%
M48
M72
T01C0.0079
%
T01
X3776Y517
X4269Y519
X4662Y519
X5202Y517
X5647Y517
X6186Y517
X6582Y517
X7074Y517
X7056Y2202
X7304Y2425
X7556Y2202
X6804Y2425
X6556Y2202
X6304Y2425
X6056Y2202
X5804Y2425
X5556Y2202
X5304Y2425
X5056Y2202
X4804Y2425
X4556Y2202
X4304Y2425
X4056Y2202
X3804Y2425
X3556Y2202
X3304Y2425
X3009Y3832
X3294Y4102
X3629Y4102
X3967Y4102
X4296Y4102
X4548Y4324
X4796Y4102
X5048Y4324
X5296Y4102
X5548Y4324
X5796Y4102
X6048Y4324
X6296Y4102
X6548Y4324
X6796Y4102
X7174Y4102
X7548Y4102
X7843Y3836
M30
