G75*
%MOIN*%
%OFA0B0*%
%FSLAX25Y25*%
%IPPOS*%
%LPD*%
%AMOC8*
5,1,8,0,0,1.08239X$1,22.5*
%
%ADD10C,0.00300*%
%ADD11C,0.00800*%
%ADD12C,0.00500*%
D10*
X0028958Y0018040D02*
X0028958Y0019975D01*
X0029925Y0020942D01*
X0030893Y0019975D01*
X0030893Y0018040D01*
X0030893Y0019491D02*
X0028958Y0019491D01*
X0029351Y0023552D02*
X0029351Y0025487D01*
X0030319Y0026454D01*
X0031286Y0025487D01*
X0031286Y0023552D01*
X0031286Y0025003D02*
X0029351Y0025003D01*
X0076989Y0039300D02*
X0078924Y0039300D01*
X0076989Y0039300D02*
X0076989Y0039783D01*
X0078924Y0041718D01*
X0078924Y0042202D01*
X0076989Y0042202D01*
X0076989Y0007950D02*
X0078924Y0007950D01*
X0078924Y0007466D01*
X0076989Y0005531D01*
X0076989Y0005048D01*
X0078924Y0005048D01*
D11*
X0077718Y0018659D02*
X0077720Y0018699D01*
X0077726Y0018739D01*
X0077736Y0018779D01*
X0077749Y0018817D01*
X0077767Y0018853D01*
X0077787Y0018888D01*
X0077812Y0018920D01*
X0077839Y0018950D01*
X0077869Y0018977D01*
X0077901Y0019002D01*
X0077936Y0019022D01*
X0077972Y0019040D01*
X0078010Y0019053D01*
X0078050Y0019063D01*
X0078090Y0019069D01*
X0078130Y0019071D01*
X0078170Y0019069D01*
X0078210Y0019063D01*
X0078250Y0019053D01*
X0078288Y0019040D01*
X0078324Y0019022D01*
X0078359Y0019002D01*
X0078391Y0018977D01*
X0078421Y0018950D01*
X0078448Y0018920D01*
X0078473Y0018888D01*
X0078493Y0018853D01*
X0078511Y0018817D01*
X0078524Y0018779D01*
X0078534Y0018739D01*
X0078540Y0018699D01*
X0078542Y0018659D01*
X0078540Y0018619D01*
X0078534Y0018579D01*
X0078524Y0018539D01*
X0078511Y0018501D01*
X0078493Y0018465D01*
X0078473Y0018430D01*
X0078448Y0018398D01*
X0078421Y0018368D01*
X0078391Y0018341D01*
X0078359Y0018316D01*
X0078324Y0018296D01*
X0078288Y0018278D01*
X0078250Y0018265D01*
X0078210Y0018255D01*
X0078170Y0018249D01*
X0078130Y0018247D01*
X0078090Y0018249D01*
X0078050Y0018255D01*
X0078010Y0018265D01*
X0077972Y0018278D01*
X0077936Y0018296D01*
X0077901Y0018316D01*
X0077869Y0018341D01*
X0077839Y0018368D01*
X0077812Y0018398D01*
X0077787Y0018430D01*
X0077767Y0018465D01*
X0077749Y0018501D01*
X0077736Y0018539D01*
X0077726Y0018579D01*
X0077720Y0018619D01*
X0077718Y0018659D01*
X0029998Y0027534D02*
X0030000Y0027574D01*
X0030006Y0027614D01*
X0030016Y0027654D01*
X0030029Y0027692D01*
X0030047Y0027728D01*
X0030067Y0027763D01*
X0030092Y0027795D01*
X0030119Y0027825D01*
X0030149Y0027852D01*
X0030181Y0027877D01*
X0030216Y0027897D01*
X0030252Y0027915D01*
X0030290Y0027928D01*
X0030330Y0027938D01*
X0030370Y0027944D01*
X0030410Y0027946D01*
X0030450Y0027944D01*
X0030490Y0027938D01*
X0030530Y0027928D01*
X0030568Y0027915D01*
X0030604Y0027897D01*
X0030639Y0027877D01*
X0030671Y0027852D01*
X0030701Y0027825D01*
X0030728Y0027795D01*
X0030753Y0027763D01*
X0030773Y0027728D01*
X0030791Y0027692D01*
X0030804Y0027654D01*
X0030814Y0027614D01*
X0030820Y0027574D01*
X0030822Y0027534D01*
X0030820Y0027494D01*
X0030814Y0027454D01*
X0030804Y0027414D01*
X0030791Y0027376D01*
X0030773Y0027340D01*
X0030753Y0027305D01*
X0030728Y0027273D01*
X0030701Y0027243D01*
X0030671Y0027216D01*
X0030639Y0027191D01*
X0030604Y0027171D01*
X0030568Y0027153D01*
X0030530Y0027140D01*
X0030490Y0027130D01*
X0030450Y0027124D01*
X0030410Y0027122D01*
X0030370Y0027124D01*
X0030330Y0027130D01*
X0030290Y0027140D01*
X0030252Y0027153D01*
X0030216Y0027171D01*
X0030181Y0027191D01*
X0030149Y0027216D01*
X0030119Y0027243D01*
X0030092Y0027273D01*
X0030067Y0027305D01*
X0030047Y0027340D01*
X0030029Y0027376D01*
X0030016Y0027414D01*
X0030006Y0027454D01*
X0030000Y0027494D01*
X0029998Y0027534D01*
D12*
X0028580Y0017209D02*
X0028580Y0010209D01*
X0080080Y0010209D01*
X0080080Y0017209D01*
X0028580Y0017209D01*
X0028460Y0028984D02*
X0079960Y0028984D01*
X0079960Y0035984D01*
X0028460Y0035984D01*
X0028460Y0028984D01*
M02*
