G75*
%MOIN*%
%OFA0B0*%
%FSLAX25Y25*%
%IPPOS*%
%LPD*%
%AMOC8*
5,1,8,0,0,1.08239X$1,22.5*
%
%ADD10R,0.01500X0.05000*%
%ADD11C,0.00492*%
%ADD12C,0.02787*%
D10*
X0033030Y0009559D03*
X0035530Y0009559D03*
X0038030Y0009559D03*
X0040530Y0009559D03*
X0043030Y0009559D03*
X0045530Y0009559D03*
X0048030Y0009559D03*
X0050530Y0009559D03*
X0053030Y0009559D03*
X0055530Y0009559D03*
X0058030Y0009559D03*
X0060530Y0009559D03*
X0063030Y0009559D03*
X0065530Y0009559D03*
X0068030Y0009559D03*
X0070530Y0009559D03*
X0073030Y0009559D03*
X0075530Y0009559D03*
X0075530Y0017559D03*
X0073030Y0017559D03*
X0070530Y0017559D03*
X0068030Y0017559D03*
X0065530Y0017559D03*
X0063030Y0017559D03*
X0060530Y0017559D03*
X0058030Y0017559D03*
X0055530Y0017559D03*
X0053030Y0017559D03*
X0050530Y0017559D03*
X0048030Y0017559D03*
X0045530Y0017559D03*
X0043030Y0017559D03*
X0040530Y0017559D03*
X0038030Y0017559D03*
X0035530Y0017559D03*
X0033030Y0017559D03*
X0033010Y0028634D03*
X0035510Y0028634D03*
X0038010Y0028634D03*
X0040510Y0028634D03*
X0043010Y0028634D03*
X0045510Y0028634D03*
X0048010Y0028634D03*
X0050510Y0028634D03*
X0053010Y0028634D03*
X0055510Y0028634D03*
X0058010Y0028634D03*
X0060510Y0028634D03*
X0063010Y0028634D03*
X0065510Y0028634D03*
X0068010Y0028634D03*
X0070510Y0028634D03*
X0073010Y0028634D03*
X0075510Y0028634D03*
X0075510Y0036634D03*
X0073010Y0036634D03*
X0070510Y0036634D03*
X0068010Y0036634D03*
X0065510Y0036634D03*
X0063010Y0036634D03*
X0060510Y0036634D03*
X0058010Y0036634D03*
X0055510Y0036634D03*
X0053010Y0036634D03*
X0050510Y0036634D03*
X0048010Y0036634D03*
X0045510Y0036634D03*
X0043010Y0036634D03*
X0040510Y0036634D03*
X0038010Y0036634D03*
X0035510Y0036634D03*
X0033010Y0036634D03*
D11*
X0029292Y0002748D02*
X0026560Y0002748D01*
X0026560Y0005637D01*
X0029292Y0002748D01*
X0028868Y0003196D02*
X0026560Y0003196D01*
X0026560Y0003687D02*
X0028404Y0003687D01*
X0027940Y0004177D02*
X0026560Y0004177D01*
X0026560Y0004668D02*
X0027476Y0004668D01*
X0027012Y0005159D02*
X0026560Y0005159D01*
X0026937Y0006669D02*
X0026937Y0040134D01*
X0029890Y0043185D01*
X0037607Y0043185D01*
X0039674Y0041020D01*
X0040550Y0040144D01*
X0040510Y0036634D01*
X0038010Y0036634D02*
X0038010Y0039278D01*
X0036288Y0041020D01*
X0035510Y0038510D02*
X0032941Y0041020D01*
X0032902Y0040980D01*
X0029319Y0040980D01*
X0027922Y0039583D01*
X0027922Y0009130D01*
X0030874Y0006177D01*
X0034812Y0006177D01*
X0035530Y0006896D01*
X0035530Y0009559D01*
X0033030Y0009559D02*
X0028906Y0013683D01*
X0028906Y0037142D01*
X0030087Y0038323D01*
X0031776Y0036634D01*
X0033010Y0036634D01*
X0031522Y0035650D02*
X0031522Y0034228D01*
X0030959Y0034228D01*
X0029890Y0033160D01*
X0029890Y0036191D01*
X0030827Y0036191D01*
X0031368Y0035650D01*
X0031522Y0035650D01*
X0031522Y0035578D02*
X0029890Y0035578D01*
X0029890Y0035088D02*
X0031522Y0035088D01*
X0031522Y0034597D02*
X0029890Y0034597D01*
X0029890Y0034106D02*
X0030837Y0034106D01*
X0030346Y0033616D02*
X0029890Y0033616D01*
X0031367Y0033244D02*
X0029890Y0031768D01*
X0029890Y0014543D01*
X0031367Y0013067D01*
X0047587Y0013067D01*
X0048000Y0012654D01*
X0048000Y0009589D01*
X0048030Y0009559D01*
X0050530Y0009559D02*
X0050530Y0006659D01*
X0052016Y0005173D01*
X0049884Y0005159D02*
X0048754Y0005159D01*
X0048754Y0005649D02*
X0049884Y0005649D01*
X0049884Y0005913D02*
X0049884Y0004290D01*
X0051133Y0003041D01*
X0052899Y0003041D01*
X0054148Y0004290D01*
X0054148Y0006056D01*
X0053884Y0006321D01*
X0054086Y0006321D01*
X0054280Y0006515D01*
X0054474Y0006321D01*
X0054598Y0006321D01*
X0054333Y0006056D01*
X0054333Y0004290D01*
X0055582Y0003041D01*
X0057348Y0003041D01*
X0058597Y0004290D01*
X0058597Y0005931D01*
X0058728Y0006064D01*
X0058985Y0006321D01*
X0059086Y0006321D01*
X0059280Y0006515D01*
X0059474Y0006321D01*
X0059991Y0006321D01*
X0059727Y0006056D01*
X0059727Y0004290D01*
X0060976Y0003041D01*
X0062742Y0003041D01*
X0063837Y0004137D01*
X0064932Y0003041D01*
X0066698Y0003041D01*
X0067370Y0003713D01*
X0068202Y0002748D01*
X0040770Y0002748D01*
X0041264Y0003364D01*
X0041382Y0003482D01*
X0041802Y0003061D01*
X0043569Y0003061D01*
X0044654Y0004146D01*
X0045739Y0003061D01*
X0047506Y0003061D01*
X0048754Y0004310D01*
X0048754Y0006076D01*
X0048509Y0006321D01*
X0049086Y0006321D01*
X0049280Y0006515D01*
X0049474Y0006321D01*
X0049546Y0006321D01*
X0049546Y0006252D01*
X0049884Y0005913D01*
X0049658Y0006140D02*
X0048690Y0006140D01*
X0048754Y0004668D02*
X0049884Y0004668D01*
X0049997Y0004177D02*
X0048622Y0004177D01*
X0048131Y0003687D02*
X0050488Y0003687D01*
X0050978Y0003196D02*
X0047641Y0003196D01*
X0045604Y0003196D02*
X0043704Y0003196D01*
X0044194Y0003687D02*
X0045114Y0003687D01*
X0046623Y0005193D02*
X0045530Y0006285D01*
X0045530Y0009559D01*
X0043030Y0009559D02*
X0043030Y0005537D01*
X0042686Y0005193D01*
X0040530Y0004022D02*
X0039733Y0003028D01*
X0030382Y0003028D01*
X0026937Y0006669D01*
X0027922Y0007061D02*
X0027922Y0007738D01*
X0030467Y0005193D01*
X0035219Y0005193D01*
X0035632Y0005606D01*
X0035632Y0004290D01*
X0035911Y0004012D01*
X0030806Y0004012D01*
X0027922Y0007061D01*
X0027922Y0007121D02*
X0028538Y0007121D01*
X0028329Y0006631D02*
X0029029Y0006631D01*
X0028793Y0006140D02*
X0029520Y0006140D01*
X0029257Y0005649D02*
X0030010Y0005649D01*
X0029721Y0005159D02*
X0035632Y0005159D01*
X0035632Y0004668D02*
X0030185Y0004668D01*
X0030650Y0004177D02*
X0035745Y0004177D01*
X0037764Y0005173D02*
X0038030Y0005459D01*
X0038030Y0009559D01*
X0040530Y0009559D02*
X0040530Y0004022D01*
X0041130Y0003196D02*
X0041667Y0003196D01*
X0031542Y0007161D02*
X0031282Y0007161D01*
X0028906Y0009538D01*
X0028906Y0012291D01*
X0031542Y0009655D01*
X0031542Y0007161D01*
X0031542Y0007612D02*
X0030832Y0007612D01*
X0030341Y0008102D02*
X0031542Y0008102D01*
X0031542Y0008593D02*
X0029850Y0008593D01*
X0029360Y0009084D02*
X0031542Y0009084D01*
X0031542Y0009574D02*
X0028906Y0009574D01*
X0028906Y0010065D02*
X0031132Y0010065D01*
X0030641Y0010556D02*
X0028906Y0010556D01*
X0028906Y0011046D02*
X0030151Y0011046D01*
X0029660Y0011537D02*
X0028906Y0011537D01*
X0028906Y0012028D02*
X0029170Y0012028D01*
X0031859Y0014051D02*
X0052036Y0014051D01*
X0053020Y0013067D01*
X0053020Y0009569D01*
X0053030Y0009559D01*
X0055481Y0009608D02*
X0055530Y0009559D01*
X0055520Y0009569D01*
X0055481Y0009608D02*
X0055481Y0013067D01*
X0056465Y0014051D01*
X0076642Y0014051D01*
X0077725Y0015035D01*
X0077725Y0031276D01*
X0076642Y0032260D01*
X0056465Y0032260D01*
X0055510Y0033215D01*
X0055510Y0036634D01*
X0055481Y0043244D01*
X0057613Y0043152D02*
X0058349Y0043152D01*
X0058349Y0044127D01*
X0058769Y0044547D01*
X0057193Y0044547D01*
X0057613Y0044127D01*
X0057613Y0043152D01*
X0057613Y0043428D02*
X0058349Y0043428D01*
X0058349Y0043919D02*
X0057613Y0043919D01*
X0057330Y0044410D02*
X0058631Y0044410D01*
X0060481Y0043244D02*
X0060510Y0036634D01*
X0060510Y0033628D01*
X0060894Y0033244D01*
X0077134Y0033244D01*
X0078709Y0031768D01*
X0078709Y0014543D01*
X0077134Y0013067D01*
X0060914Y0013067D01*
X0060500Y0012654D01*
X0060500Y0009589D01*
X0060530Y0009559D01*
X0058030Y0009559D02*
X0058030Y0006758D01*
X0056465Y0005173D01*
X0058597Y0005159D02*
X0059727Y0005159D01*
X0059727Y0005649D02*
X0058597Y0005649D01*
X0058804Y0006140D02*
X0059811Y0006140D01*
X0061859Y0005173D02*
X0063030Y0006344D01*
X0063030Y0009559D01*
X0065530Y0009559D02*
X0065530Y0005478D01*
X0065815Y0005173D01*
X0068030Y0004455D02*
X0069260Y0003028D01*
X0078119Y0003028D01*
X0081662Y0006669D01*
X0081662Y0040626D01*
X0079103Y0043185D01*
X0070028Y0043185D01*
X0067961Y0041020D01*
X0068010Y0036634D01*
X0065510Y0036634D02*
X0065481Y0043244D01*
X0067613Y0043152D02*
X0067613Y0044127D01*
X0067193Y0044547D01*
X0082040Y0044547D01*
X0082040Y0041640D01*
X0080087Y0043593D01*
X0079511Y0044169D01*
X0070422Y0044169D01*
X0070413Y0044178D01*
X0070017Y0044169D01*
X0069620Y0044169D01*
X0069611Y0044160D01*
X0069598Y0044160D01*
X0069324Y0043873D01*
X0069044Y0043593D01*
X0069044Y0043579D01*
X0068635Y0043152D01*
X0067613Y0043152D01*
X0067613Y0043428D02*
X0068900Y0043428D01*
X0069368Y0043919D02*
X0067613Y0043919D01*
X0067330Y0044410D02*
X0082040Y0044410D01*
X0082040Y0043919D02*
X0079761Y0043919D01*
X0080251Y0043428D02*
X0082040Y0043428D01*
X0082040Y0042938D02*
X0080742Y0042938D01*
X0081233Y0042447D02*
X0082040Y0042447D01*
X0082040Y0041956D02*
X0081723Y0041956D01*
X0080678Y0039583D02*
X0079142Y0041020D01*
X0075481Y0041020D01*
X0073010Y0038549D01*
X0073010Y0036634D01*
X0075510Y0036634D02*
X0077239Y0038362D01*
X0078434Y0038362D01*
X0079693Y0037201D01*
X0079693Y0013624D01*
X0075530Y0009559D01*
X0077018Y0009574D02*
X0079693Y0009574D01*
X0079693Y0009547D02*
X0077228Y0007161D01*
X0077018Y0007161D01*
X0077018Y0009636D01*
X0079693Y0012248D01*
X0079693Y0009547D01*
X0079693Y0010065D02*
X0077457Y0010065D01*
X0077960Y0010556D02*
X0079693Y0010556D01*
X0079693Y0011046D02*
X0078462Y0011046D01*
X0078965Y0011537D02*
X0079693Y0011537D01*
X0079693Y0012028D02*
X0079467Y0012028D01*
X0079215Y0009084D02*
X0077018Y0009084D01*
X0077018Y0008593D02*
X0078708Y0008593D01*
X0078201Y0008102D02*
X0077018Y0008102D01*
X0077018Y0007612D02*
X0077694Y0007612D01*
X0077626Y0006177D02*
X0080678Y0009130D01*
X0080678Y0039583D01*
X0078892Y0042004D02*
X0077511Y0042004D01*
X0077315Y0042201D01*
X0078695Y0042201D01*
X0078892Y0042004D01*
X0073647Y0042201D02*
X0073574Y0042201D01*
X0073611Y0042165D01*
X0073647Y0042201D01*
X0071741Y0041020D02*
X0070510Y0039770D01*
X0070510Y0036634D01*
X0076998Y0036559D02*
X0077221Y0036559D01*
X0077025Y0036756D02*
X0077550Y0036230D01*
X0078709Y0036230D01*
X0078709Y0033117D01*
X0077819Y0033951D01*
X0077542Y0034228D01*
X0077524Y0034228D01*
X0077510Y0034241D01*
X0077118Y0034228D01*
X0076998Y0034228D01*
X0076998Y0036730D01*
X0077025Y0036756D01*
X0076998Y0036069D02*
X0078709Y0036069D01*
X0078709Y0035578D02*
X0076998Y0035578D01*
X0076998Y0035088D02*
X0078709Y0035088D01*
X0078709Y0034597D02*
X0076998Y0034597D01*
X0077664Y0034106D02*
X0078709Y0034106D01*
X0078709Y0033616D02*
X0078177Y0033616D01*
X0078700Y0033125D02*
X0078709Y0033125D01*
X0075510Y0028634D02*
X0075560Y0022024D01*
X0075530Y0017559D01*
X0073030Y0017559D02*
X0073040Y0024248D01*
X0073010Y0028634D01*
X0070510Y0028634D02*
X0070560Y0022024D01*
X0070530Y0017559D01*
X0068030Y0017559D02*
X0068040Y0024248D01*
X0068010Y0028634D01*
X0065510Y0028634D02*
X0065560Y0022024D01*
X0065530Y0017559D01*
X0063030Y0017559D02*
X0063040Y0024248D01*
X0063010Y0028634D01*
X0060510Y0028634D02*
X0060560Y0022024D01*
X0060530Y0017559D01*
X0058030Y0017559D02*
X0058040Y0024248D01*
X0058010Y0028634D01*
X0055510Y0028634D02*
X0055560Y0022024D01*
X0055530Y0017559D01*
X0053030Y0017559D02*
X0053040Y0024248D01*
X0053010Y0028634D01*
X0050510Y0028634D02*
X0050560Y0022024D01*
X0050530Y0017559D01*
X0048030Y0017559D02*
X0048040Y0024248D01*
X0048010Y0028634D01*
X0045510Y0028634D02*
X0045560Y0022024D01*
X0045530Y0017559D01*
X0043030Y0017559D02*
X0043040Y0024248D01*
X0043010Y0028634D01*
X0040510Y0028634D02*
X0040560Y0022024D01*
X0040530Y0017559D01*
X0038030Y0017559D02*
X0038040Y0024248D01*
X0038010Y0028634D01*
X0035510Y0028634D02*
X0035560Y0022024D01*
X0035530Y0017559D01*
X0033030Y0017559D02*
X0033040Y0024248D01*
X0033010Y0028634D01*
X0030874Y0031276D02*
X0031859Y0032260D01*
X0052036Y0032260D01*
X0053020Y0033244D01*
X0053020Y0036624D01*
X0053010Y0036634D01*
X0052961Y0041020D01*
X0052613Y0043152D02*
X0053349Y0043152D01*
X0053349Y0044127D01*
X0053769Y0044547D01*
X0052193Y0044547D01*
X0052613Y0044127D01*
X0052613Y0043152D01*
X0052613Y0043428D02*
X0053349Y0043428D01*
X0053349Y0043919D02*
X0052613Y0043919D01*
X0052330Y0044410D02*
X0053631Y0044410D01*
X0050481Y0043244D02*
X0050510Y0036634D01*
X0048010Y0036634D02*
X0048010Y0033648D01*
X0047607Y0033244D01*
X0031367Y0033244D01*
X0030874Y0031276D02*
X0030874Y0015035D01*
X0031859Y0014051D01*
X0028048Y0007612D02*
X0027922Y0007612D01*
X0048985Y0012797D02*
X0048985Y0013061D01*
X0048979Y0013067D01*
X0051628Y0013067D01*
X0051936Y0012759D01*
X0051780Y0012603D01*
X0051586Y0012797D01*
X0049474Y0012797D01*
X0049280Y0012603D01*
X0049086Y0012797D01*
X0048985Y0012797D01*
X0048985Y0013009D02*
X0051686Y0013009D01*
X0053158Y0014321D02*
X0054086Y0014321D01*
X0054280Y0014515D01*
X0054474Y0014321D01*
X0055343Y0014321D01*
X0055073Y0014051D01*
X0054497Y0013475D01*
X0054497Y0012797D01*
X0054474Y0012797D01*
X0054280Y0012603D01*
X0054086Y0012797D01*
X0054004Y0012797D01*
X0054004Y0013475D01*
X0053428Y0014051D01*
X0053428Y0014051D01*
X0053158Y0014321D01*
X0053489Y0013990D02*
X0055012Y0013990D01*
X0054521Y0013500D02*
X0053980Y0013500D01*
X0054004Y0013009D02*
X0054497Y0013009D01*
X0054314Y0014481D02*
X0054246Y0014481D01*
X0056594Y0012789D02*
X0056873Y0013067D01*
X0059522Y0013067D01*
X0059516Y0013061D01*
X0059516Y0012797D01*
X0059474Y0012797D01*
X0059280Y0012603D01*
X0059086Y0012797D01*
X0056974Y0012797D01*
X0056780Y0012603D01*
X0056594Y0012789D01*
X0056815Y0013009D02*
X0059516Y0013009D01*
X0068030Y0009559D02*
X0068030Y0004455D01*
X0067393Y0003687D02*
X0067344Y0003687D01*
X0067816Y0003196D02*
X0066853Y0003196D01*
X0064778Y0003196D02*
X0062897Y0003196D01*
X0063387Y0003687D02*
X0064287Y0003687D01*
X0060821Y0003196D02*
X0057503Y0003196D01*
X0057994Y0003687D02*
X0060330Y0003687D01*
X0059840Y0004177D02*
X0058484Y0004177D01*
X0058597Y0004668D02*
X0059727Y0004668D01*
X0055427Y0003196D02*
X0053054Y0003196D01*
X0053545Y0003687D02*
X0054937Y0003687D01*
X0054446Y0004177D02*
X0054035Y0004177D01*
X0054148Y0004668D02*
X0054333Y0004668D01*
X0054333Y0005159D02*
X0054148Y0005159D01*
X0054148Y0005649D02*
X0054333Y0005649D01*
X0054417Y0006140D02*
X0054064Y0006140D01*
X0070530Y0005400D02*
X0070737Y0005173D01*
X0070530Y0005400D02*
X0070530Y0009559D01*
X0073030Y0009559D02*
X0073030Y0006837D01*
X0073689Y0006177D01*
X0077626Y0006177D01*
X0077619Y0005193D02*
X0078018Y0005186D01*
X0078025Y0005193D01*
X0078034Y0005193D01*
X0078317Y0005476D01*
X0080678Y0007760D01*
X0080678Y0007069D01*
X0077703Y0004012D01*
X0072590Y0004012D01*
X0072869Y0004290D01*
X0072869Y0005606D01*
X0073282Y0005193D01*
X0077619Y0005193D01*
X0078341Y0004668D02*
X0072869Y0004668D01*
X0072869Y0005159D02*
X0078819Y0005159D01*
X0078496Y0005649D02*
X0079296Y0005649D01*
X0079003Y0006140D02*
X0079774Y0006140D01*
X0079510Y0006631D02*
X0080251Y0006631D01*
X0080017Y0007121D02*
X0080678Y0007121D01*
X0080678Y0007612D02*
X0080524Y0007612D01*
X0082040Y0005646D02*
X0082040Y0002748D01*
X0079220Y0002748D01*
X0082040Y0005646D01*
X0082040Y0005159D02*
X0081565Y0005159D01*
X0082040Y0004668D02*
X0081088Y0004668D01*
X0080611Y0004177D02*
X0082040Y0004177D01*
X0082040Y0003687D02*
X0080133Y0003687D01*
X0079656Y0003196D02*
X0082040Y0003196D01*
X0077864Y0004177D02*
X0072756Y0004177D01*
X0076741Y0023857D02*
X0076529Y0024070D01*
X0076519Y0025396D01*
X0076566Y0025396D01*
X0076741Y0025570D01*
X0076741Y0023857D01*
X0076741Y0024294D02*
X0076527Y0024294D01*
X0076523Y0024784D02*
X0076741Y0024784D01*
X0076741Y0025275D02*
X0076520Y0025275D01*
X0059526Y0033244D02*
X0056873Y0033244D01*
X0056644Y0033473D01*
X0056760Y0033590D01*
X0056955Y0033396D01*
X0059066Y0033396D01*
X0059260Y0033590D01*
X0059455Y0033396D01*
X0059526Y0033396D01*
X0059526Y0033244D01*
X0055461Y0031872D02*
X0054455Y0031872D01*
X0054260Y0031678D01*
X0054066Y0031872D01*
X0053040Y0031872D01*
X0053428Y0032260D01*
X0054004Y0032836D01*
X0054004Y0033396D01*
X0054066Y0033396D01*
X0054260Y0033590D01*
X0054455Y0033396D01*
X0054526Y0033396D01*
X0054526Y0032807D01*
X0055461Y0031872D01*
X0055189Y0032144D02*
X0053312Y0032144D01*
X0053802Y0032634D02*
X0054699Y0032634D01*
X0054526Y0033125D02*
X0054004Y0033125D01*
X0051867Y0033483D02*
X0051628Y0033244D01*
X0048995Y0033244D01*
X0048995Y0033396D01*
X0049066Y0033396D01*
X0049260Y0033590D01*
X0049455Y0033396D01*
X0051566Y0033396D01*
X0051760Y0033590D01*
X0051867Y0033483D01*
X0048010Y0036634D02*
X0047961Y0041020D01*
X0047613Y0043152D02*
X0047613Y0044127D01*
X0047193Y0044547D01*
X0048769Y0044547D01*
X0048349Y0044127D01*
X0048349Y0043152D01*
X0047613Y0043152D01*
X0047613Y0043428D02*
X0048349Y0043428D01*
X0048349Y0043919D02*
X0047613Y0043919D01*
X0047330Y0044410D02*
X0048631Y0044410D01*
X0045481Y0043244D02*
X0045510Y0036634D01*
X0043010Y0036634D02*
X0042961Y0041020D01*
X0041374Y0042447D02*
X0041261Y0042447D01*
X0041317Y0042391D02*
X0040557Y0043152D01*
X0038999Y0043152D01*
X0038591Y0043579D01*
X0038591Y0043593D01*
X0038311Y0043873D01*
X0038037Y0044160D01*
X0038024Y0044160D01*
X0038014Y0044169D01*
X0037618Y0044169D01*
X0037222Y0044178D01*
X0037212Y0044169D01*
X0030288Y0044169D01*
X0030282Y0044176D01*
X0029882Y0044169D01*
X0029483Y0044169D01*
X0029476Y0044163D01*
X0029466Y0044162D01*
X0029189Y0043875D01*
X0028906Y0043593D01*
X0028906Y0043583D01*
X0026560Y0041159D01*
X0026560Y0044547D01*
X0043769Y0044547D01*
X0043349Y0044127D01*
X0043349Y0043152D01*
X0042078Y0043152D01*
X0041317Y0042391D01*
X0040771Y0042938D02*
X0041864Y0042938D01*
X0043349Y0043428D02*
X0038735Y0043428D01*
X0038267Y0043919D02*
X0043349Y0043919D01*
X0043631Y0044410D02*
X0026560Y0044410D01*
X0026560Y0043919D02*
X0029231Y0043919D01*
X0028756Y0043428D02*
X0026560Y0043428D01*
X0026560Y0042938D02*
X0028281Y0042938D01*
X0027806Y0042447D02*
X0026560Y0042447D01*
X0026560Y0041956D02*
X0027332Y0041956D01*
X0026857Y0041466D02*
X0026560Y0041466D01*
X0030079Y0041965D02*
X0030307Y0042201D01*
X0031108Y0042201D01*
X0030871Y0041965D01*
X0030079Y0041965D01*
X0035510Y0038510D02*
X0035510Y0036634D01*
X0030949Y0036069D02*
X0029890Y0036069D01*
X0031859Y0022414D02*
X0032053Y0022220D01*
X0032051Y0020797D01*
X0031974Y0020797D01*
X0031859Y0020682D01*
X0031859Y0022414D01*
X0031859Y0022331D02*
X0031942Y0022331D01*
X0031859Y0021840D02*
X0032052Y0021840D01*
X0032051Y0021350D02*
X0031859Y0021350D01*
X0031859Y0020859D02*
X0032051Y0020859D01*
X0058010Y0036634D02*
X0057961Y0041020D01*
X0062613Y0043152D02*
X0063349Y0043152D01*
X0063349Y0044127D01*
X0063769Y0044547D01*
X0062193Y0044547D01*
X0062613Y0044127D01*
X0062613Y0043152D01*
X0062613Y0043428D02*
X0063349Y0043428D01*
X0063349Y0043919D02*
X0062613Y0043919D01*
X0062330Y0044410D02*
X0063631Y0044410D01*
X0062961Y0041020D02*
X0063010Y0036634D01*
D12*
X0062961Y0041020D03*
X0060481Y0043244D03*
X0057961Y0041020D03*
X0055481Y0043244D03*
X0052961Y0041020D03*
X0050481Y0043244D03*
X0047961Y0041020D03*
X0045481Y0043244D03*
X0042961Y0041020D03*
X0039674Y0041020D03*
X0036288Y0041020D03*
X0032941Y0041020D03*
X0030087Y0038323D03*
X0033040Y0024248D03*
X0035560Y0022024D03*
X0038040Y0024248D03*
X0040560Y0022024D03*
X0043040Y0024248D03*
X0045560Y0022024D03*
X0048040Y0024248D03*
X0050560Y0022024D03*
X0053040Y0024248D03*
X0055560Y0022024D03*
X0058040Y0024248D03*
X0060560Y0022024D03*
X0063040Y0024248D03*
X0065560Y0022024D03*
X0068040Y0024248D03*
X0070560Y0022024D03*
X0073040Y0024248D03*
X0075560Y0022024D03*
X0078434Y0038362D03*
X0075481Y0041020D03*
X0071741Y0041020D03*
X0067961Y0041020D03*
X0065481Y0043244D03*
X0065815Y0005173D03*
X0061859Y0005173D03*
X0056465Y0005173D03*
X0052016Y0005173D03*
X0046623Y0005193D03*
X0042686Y0005193D03*
X0037764Y0005173D03*
X0070737Y0005173D03*
M02*
