G75*
%MOIN*%
%OFA0B0*%
%FSLAX25Y25*%
%IPPOS*%
%LPD*%
%AMOC8*
5,1,8,0,0,1.08239X$1,22.5*
%
%ADD10R,0.01500X0.05000*%
D10*
X0033030Y0009559D03*
X0035530Y0009559D03*
X0038030Y0009559D03*
X0040530Y0009559D03*
X0043030Y0009559D03*
X0045530Y0009559D03*
X0048030Y0009559D03*
X0050530Y0009559D03*
X0053030Y0009559D03*
X0055530Y0009559D03*
X0058030Y0009559D03*
X0060530Y0009559D03*
X0063030Y0009559D03*
X0065530Y0009559D03*
X0068030Y0009559D03*
X0070530Y0009559D03*
X0073030Y0009559D03*
X0075530Y0009559D03*
X0075530Y0017559D03*
X0073030Y0017559D03*
X0070530Y0017559D03*
X0068030Y0017559D03*
X0065530Y0017559D03*
X0063030Y0017559D03*
X0060530Y0017559D03*
X0058030Y0017559D03*
X0055530Y0017559D03*
X0053030Y0017559D03*
X0050530Y0017559D03*
X0048030Y0017559D03*
X0045530Y0017559D03*
X0043030Y0017559D03*
X0040530Y0017559D03*
X0038030Y0017559D03*
X0035530Y0017559D03*
X0033030Y0017559D03*
X0033010Y0028634D03*
X0035510Y0028634D03*
X0038010Y0028634D03*
X0040510Y0028634D03*
X0043010Y0028634D03*
X0045510Y0028634D03*
X0048010Y0028634D03*
X0050510Y0028634D03*
X0053010Y0028634D03*
X0055510Y0028634D03*
X0058010Y0028634D03*
X0060510Y0028634D03*
X0063010Y0028634D03*
X0065510Y0028634D03*
X0068010Y0028634D03*
X0070510Y0028634D03*
X0073010Y0028634D03*
X0075510Y0028634D03*
X0075510Y0036634D03*
X0073010Y0036634D03*
X0070510Y0036634D03*
X0068010Y0036634D03*
X0065510Y0036634D03*
X0063010Y0036634D03*
X0060510Y0036634D03*
X0058010Y0036634D03*
X0055510Y0036634D03*
X0053010Y0036634D03*
X0050510Y0036634D03*
X0048010Y0036634D03*
X0045510Y0036634D03*
X0043010Y0036634D03*
X0040510Y0036634D03*
X0038010Y0036634D03*
X0035510Y0036634D03*
X0033010Y0036634D03*
M02*
