G75*
%MOIN*%
%OFA0B0*%
%FSLAX25Y25*%
%IPPOS*%
%LPD*%
%AMOC8*
5,1,8,0,0,1.08239X$1,22.5*
%
%ADD10R,0.02165X0.05709*%
%ADD11R,0.07283X0.10433*%
%ADD12R,0.04134X0.07283*%
%ADD13R,0.02165X0.06693*%
%ADD14OC8,0.06984*%
%ADD15C,0.20984*%
%ADD16OC8,0.05346*%
D10*
X0121138Y0075971D03*
X0121138Y0075971D03*
X0121138Y0075971D03*
X0123106Y0075971D03*
X0123106Y0075971D03*
X0123106Y0075971D03*
X0125075Y0075971D03*
X0125075Y0075971D03*
X0125075Y0075971D03*
X0127043Y0075971D03*
X0127043Y0075971D03*
X0127043Y0075971D03*
X0129012Y0075971D03*
X0129012Y0075971D03*
X0129012Y0075971D03*
X0130980Y0075971D03*
X0130980Y0075971D03*
X0130980Y0075971D03*
X0132949Y0075971D03*
X0132949Y0075971D03*
X0132949Y0075971D03*
X0134917Y0075971D03*
X0134917Y0075971D03*
X0134917Y0075971D03*
X0136886Y0075971D03*
X0136886Y0075971D03*
X0136886Y0075971D03*
X0138854Y0075971D03*
X0138854Y0075971D03*
X0138854Y0075971D03*
X0140823Y0075971D03*
X0140823Y0075971D03*
X0140823Y0075971D03*
X0142791Y0075971D03*
X0142791Y0075971D03*
X0142791Y0075971D03*
X0144760Y0075971D03*
X0144760Y0075971D03*
X0144760Y0075971D03*
X0146728Y0075971D03*
X0146728Y0075971D03*
X0146728Y0075971D03*
X0148697Y0075971D03*
X0148697Y0075971D03*
X0148697Y0075971D03*
X0150665Y0075971D03*
X0150665Y0075971D03*
X0150665Y0075971D03*
X0152634Y0075971D03*
X0152634Y0075971D03*
X0152634Y0075971D03*
X0154602Y0075971D03*
X0154602Y0075971D03*
X0154602Y0075971D03*
X0156571Y0075971D03*
X0156571Y0075971D03*
X0156571Y0075971D03*
X0158539Y0075971D03*
X0158539Y0075971D03*
X0158539Y0075971D03*
X0160508Y0075971D03*
X0160508Y0075971D03*
X0160508Y0075971D03*
X0162476Y0075971D03*
X0162476Y0075971D03*
X0162476Y0075971D03*
X0164445Y0075971D03*
X0164445Y0075971D03*
X0164445Y0075971D03*
X0166413Y0075971D03*
X0166413Y0075971D03*
X0166413Y0075971D03*
X0168382Y0075971D03*
X0168382Y0075971D03*
X0168382Y0075971D03*
X0170350Y0075971D03*
X0170350Y0075971D03*
X0170350Y0075971D03*
X0172319Y0075971D03*
X0172319Y0075971D03*
X0172319Y0075971D03*
X0174287Y0075971D03*
X0174287Y0075971D03*
X0174287Y0075971D03*
X0176256Y0075971D03*
X0176256Y0075971D03*
X0176256Y0075971D03*
X0178224Y0075971D03*
X0178224Y0075971D03*
X0178224Y0075971D03*
X0180193Y0075971D03*
X0180193Y0075971D03*
X0180193Y0075971D03*
X0182161Y0075971D03*
X0182161Y0075971D03*
X0182161Y0075971D03*
X0184130Y0075971D03*
X0184130Y0075971D03*
X0184130Y0075971D03*
X0186098Y0075971D03*
X0186098Y0075971D03*
X0186098Y0075971D03*
X0188067Y0075971D03*
X0188067Y0075971D03*
X0188067Y0075971D03*
X0190035Y0075971D03*
X0190035Y0075971D03*
X0190035Y0075971D03*
D11*
X0196728Y0065341D03*
X0196728Y0065341D03*
X0196728Y0065341D03*
X0114445Y0065341D03*
X0114445Y0065341D03*
X0114445Y0065341D03*
D12*
X0109720Y0063767D03*
X0109720Y0063767D03*
X0109720Y0063767D03*
X0201453Y0063767D03*
X0201453Y0063767D03*
X0201453Y0063767D03*
D13*
X0192496Y0064554D03*
X0118677Y0064554D03*
D14*
X0122002Y0124239D03*
X0111102Y0124239D03*
X0100302Y0124239D03*
X0089402Y0124239D03*
X0078502Y0124239D03*
X0067702Y0124239D03*
X0056802Y0124239D03*
X0062202Y0134239D03*
X0073102Y0134239D03*
X0084002Y0134239D03*
X0094802Y0134239D03*
X0105702Y0134239D03*
X0116602Y0134239D03*
X0127402Y0134239D03*
X0138302Y0134239D03*
X0149202Y0134239D03*
X0160002Y0134239D03*
X0170902Y0134239D03*
X0181802Y0134239D03*
X0192702Y0134239D03*
X0203502Y0134239D03*
X0214402Y0134239D03*
X0225302Y0134239D03*
X0236102Y0134239D03*
X0247002Y0134239D03*
X0241602Y0124239D03*
X0252402Y0124239D03*
X0230702Y0124239D03*
X0219802Y0124239D03*
X0209002Y0124239D03*
X0198102Y0124239D03*
X0187202Y0124239D03*
X0176302Y0124239D03*
X0165502Y0124239D03*
X0154602Y0124239D03*
X0143702Y0124239D03*
X0132902Y0124239D03*
D15*
X0029602Y0129239D03*
X0279602Y0129239D03*
D16*
X0225302Y0089073D03*
X0214402Y0090771D03*
X0203502Y0093257D03*
X0193185Y0095538D03*
X0181802Y0094392D03*
X0175862Y0094751D03*
X0171138Y0091601D03*
X0165626Y0090814D03*
X0160114Y0090026D03*
X0160902Y0082940D03*
X0179012Y0069554D03*
X0170350Y0065617D03*
X0164445Y0064830D03*
X0137280Y0063255D03*
X0129406Y0064830D03*
X0125469Y0069554D03*
X0236102Y0086487D03*
M02*
