G75*
%MOIN*%
%OFA0B0*%
%FSLAX25Y25*%
%IPPOS*%
%LPD*%
%AMOC8*
5,1,8,0,0,1.08239X$1,22.5*
%
%ADD10C,0.00600*%
%ADD11C,0.00700*%
%ADD12C,0.00500*%
%ADD13R,2.25000X0.03000*%
%ADD14R,2.74000X0.02000*%
%ADD15R,0.03200X0.28500*%
%ADD16R,0.03200X0.18500*%
D10*
X0020102Y0116739D02*
X0039102Y0116739D01*
X0041102Y0118739D01*
X0041102Y0159239D01*
X0042102Y0159239D01*
X0267102Y0159239D01*
X0268102Y0159239D01*
X0268102Y0118739D01*
X0270102Y0116739D01*
X0289602Y0116739D01*
X0291602Y0118739D01*
X0291602Y0158739D01*
X0291602Y0159239D01*
X0271602Y0159239D01*
X0268102Y0159239D01*
X0267102Y0159239D02*
X0267102Y0156239D01*
X0042102Y0156239D01*
X0042102Y0159239D01*
X0041102Y0159239D02*
X0037602Y0159239D01*
X0017602Y0159239D01*
X0017602Y0158739D01*
X0017602Y0119239D01*
X0020102Y0116739D01*
X0023102Y0129239D02*
X0023104Y0129400D01*
X0023110Y0129560D01*
X0023120Y0129721D01*
X0023134Y0129881D01*
X0023152Y0130041D01*
X0023173Y0130200D01*
X0023199Y0130359D01*
X0023229Y0130517D01*
X0023262Y0130674D01*
X0023300Y0130831D01*
X0023341Y0130986D01*
X0023386Y0131140D01*
X0023435Y0131293D01*
X0023488Y0131445D01*
X0023544Y0131596D01*
X0023605Y0131745D01*
X0023668Y0131893D01*
X0023736Y0132039D01*
X0023807Y0132183D01*
X0023881Y0132325D01*
X0023959Y0132466D01*
X0024041Y0132604D01*
X0024126Y0132741D01*
X0024214Y0132875D01*
X0024306Y0133007D01*
X0024401Y0133137D01*
X0024499Y0133265D01*
X0024600Y0133390D01*
X0024704Y0133512D01*
X0024811Y0133632D01*
X0024921Y0133749D01*
X0025034Y0133864D01*
X0025150Y0133975D01*
X0025269Y0134084D01*
X0025390Y0134189D01*
X0025514Y0134292D01*
X0025640Y0134392D01*
X0025768Y0134488D01*
X0025899Y0134581D01*
X0026033Y0134671D01*
X0026168Y0134758D01*
X0026306Y0134841D01*
X0026445Y0134921D01*
X0026587Y0134997D01*
X0026730Y0135070D01*
X0026875Y0135139D01*
X0027022Y0135205D01*
X0027170Y0135267D01*
X0027320Y0135325D01*
X0027471Y0135380D01*
X0027624Y0135431D01*
X0027778Y0135478D01*
X0027933Y0135521D01*
X0028089Y0135560D01*
X0028245Y0135596D01*
X0028403Y0135627D01*
X0028561Y0135655D01*
X0028720Y0135679D01*
X0028880Y0135699D01*
X0029040Y0135715D01*
X0029200Y0135727D01*
X0029361Y0135735D01*
X0029522Y0135739D01*
X0029682Y0135739D01*
X0029843Y0135735D01*
X0030004Y0135727D01*
X0030164Y0135715D01*
X0030324Y0135699D01*
X0030484Y0135679D01*
X0030643Y0135655D01*
X0030801Y0135627D01*
X0030959Y0135596D01*
X0031115Y0135560D01*
X0031271Y0135521D01*
X0031426Y0135478D01*
X0031580Y0135431D01*
X0031733Y0135380D01*
X0031884Y0135325D01*
X0032034Y0135267D01*
X0032182Y0135205D01*
X0032329Y0135139D01*
X0032474Y0135070D01*
X0032617Y0134997D01*
X0032759Y0134921D01*
X0032898Y0134841D01*
X0033036Y0134758D01*
X0033171Y0134671D01*
X0033305Y0134581D01*
X0033436Y0134488D01*
X0033564Y0134392D01*
X0033690Y0134292D01*
X0033814Y0134189D01*
X0033935Y0134084D01*
X0034054Y0133975D01*
X0034170Y0133864D01*
X0034283Y0133749D01*
X0034393Y0133632D01*
X0034500Y0133512D01*
X0034604Y0133390D01*
X0034705Y0133265D01*
X0034803Y0133137D01*
X0034898Y0133007D01*
X0034990Y0132875D01*
X0035078Y0132741D01*
X0035163Y0132604D01*
X0035245Y0132466D01*
X0035323Y0132325D01*
X0035397Y0132183D01*
X0035468Y0132039D01*
X0035536Y0131893D01*
X0035599Y0131745D01*
X0035660Y0131596D01*
X0035716Y0131445D01*
X0035769Y0131293D01*
X0035818Y0131140D01*
X0035863Y0130986D01*
X0035904Y0130831D01*
X0035942Y0130674D01*
X0035975Y0130517D01*
X0036005Y0130359D01*
X0036031Y0130200D01*
X0036052Y0130041D01*
X0036070Y0129881D01*
X0036084Y0129721D01*
X0036094Y0129560D01*
X0036100Y0129400D01*
X0036102Y0129239D01*
X0036100Y0129078D01*
X0036094Y0128918D01*
X0036084Y0128757D01*
X0036070Y0128597D01*
X0036052Y0128437D01*
X0036031Y0128278D01*
X0036005Y0128119D01*
X0035975Y0127961D01*
X0035942Y0127804D01*
X0035904Y0127647D01*
X0035863Y0127492D01*
X0035818Y0127338D01*
X0035769Y0127185D01*
X0035716Y0127033D01*
X0035660Y0126882D01*
X0035599Y0126733D01*
X0035536Y0126585D01*
X0035468Y0126439D01*
X0035397Y0126295D01*
X0035323Y0126153D01*
X0035245Y0126012D01*
X0035163Y0125874D01*
X0035078Y0125737D01*
X0034990Y0125603D01*
X0034898Y0125471D01*
X0034803Y0125341D01*
X0034705Y0125213D01*
X0034604Y0125088D01*
X0034500Y0124966D01*
X0034393Y0124846D01*
X0034283Y0124729D01*
X0034170Y0124614D01*
X0034054Y0124503D01*
X0033935Y0124394D01*
X0033814Y0124289D01*
X0033690Y0124186D01*
X0033564Y0124086D01*
X0033436Y0123990D01*
X0033305Y0123897D01*
X0033171Y0123807D01*
X0033036Y0123720D01*
X0032898Y0123637D01*
X0032759Y0123557D01*
X0032617Y0123481D01*
X0032474Y0123408D01*
X0032329Y0123339D01*
X0032182Y0123273D01*
X0032034Y0123211D01*
X0031884Y0123153D01*
X0031733Y0123098D01*
X0031580Y0123047D01*
X0031426Y0123000D01*
X0031271Y0122957D01*
X0031115Y0122918D01*
X0030959Y0122882D01*
X0030801Y0122851D01*
X0030643Y0122823D01*
X0030484Y0122799D01*
X0030324Y0122779D01*
X0030164Y0122763D01*
X0030004Y0122751D01*
X0029843Y0122743D01*
X0029682Y0122739D01*
X0029522Y0122739D01*
X0029361Y0122743D01*
X0029200Y0122751D01*
X0029040Y0122763D01*
X0028880Y0122779D01*
X0028720Y0122799D01*
X0028561Y0122823D01*
X0028403Y0122851D01*
X0028245Y0122882D01*
X0028089Y0122918D01*
X0027933Y0122957D01*
X0027778Y0123000D01*
X0027624Y0123047D01*
X0027471Y0123098D01*
X0027320Y0123153D01*
X0027170Y0123211D01*
X0027022Y0123273D01*
X0026875Y0123339D01*
X0026730Y0123408D01*
X0026587Y0123481D01*
X0026445Y0123557D01*
X0026306Y0123637D01*
X0026168Y0123720D01*
X0026033Y0123807D01*
X0025899Y0123897D01*
X0025768Y0123990D01*
X0025640Y0124086D01*
X0025514Y0124186D01*
X0025390Y0124289D01*
X0025269Y0124394D01*
X0025150Y0124503D01*
X0025034Y0124614D01*
X0024921Y0124729D01*
X0024811Y0124846D01*
X0024704Y0124966D01*
X0024600Y0125088D01*
X0024499Y0125213D01*
X0024401Y0125341D01*
X0024306Y0125471D01*
X0024214Y0125603D01*
X0024126Y0125737D01*
X0024041Y0125874D01*
X0023959Y0126012D01*
X0023881Y0126153D01*
X0023807Y0126295D01*
X0023736Y0126439D01*
X0023668Y0126585D01*
X0023605Y0126733D01*
X0023544Y0126882D01*
X0023488Y0127033D01*
X0023435Y0127185D01*
X0023386Y0127338D01*
X0023341Y0127492D01*
X0023300Y0127647D01*
X0023262Y0127804D01*
X0023229Y0127961D01*
X0023199Y0128119D01*
X0023173Y0128278D01*
X0023152Y0128437D01*
X0023134Y0128597D01*
X0023120Y0128757D01*
X0023110Y0128918D01*
X0023104Y0129078D01*
X0023102Y0129239D01*
X0017602Y0159239D02*
X0017602Y0171239D01*
X0017602Y0173239D01*
X0027602Y0173239D01*
X0037602Y0173239D01*
X0271602Y0173239D01*
X0271602Y0171239D01*
X0271102Y0171239D01*
X0271102Y0161739D01*
X0271100Y0161641D01*
X0271094Y0161543D01*
X0271085Y0161445D01*
X0271071Y0161348D01*
X0271054Y0161251D01*
X0271033Y0161155D01*
X0271008Y0161060D01*
X0270980Y0160966D01*
X0270947Y0160874D01*
X0270912Y0160782D01*
X0270872Y0160692D01*
X0270830Y0160604D01*
X0270783Y0160517D01*
X0270734Y0160433D01*
X0270681Y0160350D01*
X0270625Y0160270D01*
X0270565Y0160191D01*
X0270503Y0160115D01*
X0270438Y0160042D01*
X0270370Y0159971D01*
X0270299Y0159903D01*
X0270226Y0159838D01*
X0270150Y0159776D01*
X0270071Y0159716D01*
X0269991Y0159660D01*
X0269908Y0159607D01*
X0269824Y0159558D01*
X0269737Y0159511D01*
X0269649Y0159469D01*
X0269559Y0159429D01*
X0269467Y0159394D01*
X0269375Y0159361D01*
X0269281Y0159333D01*
X0269186Y0159308D01*
X0269090Y0159287D01*
X0268993Y0159270D01*
X0268896Y0159256D01*
X0268798Y0159247D01*
X0268700Y0159241D01*
X0268602Y0159239D01*
X0271602Y0173239D02*
X0281602Y0173239D01*
X0291602Y0173239D01*
X0291602Y0171239D01*
X0291602Y0159239D01*
X0291602Y0173239D02*
X0291602Y0175239D01*
X0261102Y0175239D01*
X0048102Y0175239D01*
X0017602Y0175239D01*
X0017602Y0173239D01*
X0037602Y0173239D02*
X0037602Y0171239D01*
X0038102Y0171239D01*
X0038102Y0161739D01*
X0038104Y0161641D01*
X0038110Y0161543D01*
X0038119Y0161445D01*
X0038133Y0161348D01*
X0038150Y0161251D01*
X0038171Y0161155D01*
X0038196Y0161060D01*
X0038224Y0160966D01*
X0038257Y0160874D01*
X0038292Y0160782D01*
X0038332Y0160692D01*
X0038374Y0160604D01*
X0038421Y0160517D01*
X0038470Y0160433D01*
X0038523Y0160350D01*
X0038579Y0160270D01*
X0038639Y0160191D01*
X0038701Y0160115D01*
X0038766Y0160042D01*
X0038834Y0159971D01*
X0038905Y0159903D01*
X0038978Y0159838D01*
X0039054Y0159776D01*
X0039133Y0159716D01*
X0039213Y0159660D01*
X0039296Y0159607D01*
X0039380Y0159558D01*
X0039467Y0159511D01*
X0039555Y0159469D01*
X0039645Y0159429D01*
X0039737Y0159394D01*
X0039829Y0159361D01*
X0039923Y0159333D01*
X0040018Y0159308D01*
X0040114Y0159287D01*
X0040211Y0159270D01*
X0040308Y0159256D01*
X0040406Y0159247D01*
X0040504Y0159241D01*
X0040602Y0159239D01*
X0044102Y0175239D02*
X0044200Y0175241D01*
X0044298Y0175247D01*
X0044396Y0175256D01*
X0044493Y0175270D01*
X0044590Y0175287D01*
X0044686Y0175308D01*
X0044781Y0175333D01*
X0044875Y0175361D01*
X0044967Y0175394D01*
X0045059Y0175429D01*
X0045149Y0175469D01*
X0045237Y0175511D01*
X0045324Y0175558D01*
X0045408Y0175607D01*
X0045491Y0175660D01*
X0045571Y0175716D01*
X0045650Y0175776D01*
X0045726Y0175838D01*
X0045799Y0175903D01*
X0045870Y0175971D01*
X0045938Y0176042D01*
X0046003Y0176115D01*
X0046065Y0176191D01*
X0046125Y0176270D01*
X0046181Y0176350D01*
X0046234Y0176433D01*
X0046283Y0176517D01*
X0046330Y0176604D01*
X0046372Y0176692D01*
X0046412Y0176782D01*
X0046447Y0176874D01*
X0046480Y0176966D01*
X0046508Y0177060D01*
X0046533Y0177155D01*
X0046554Y0177251D01*
X0046571Y0177348D01*
X0046585Y0177445D01*
X0046594Y0177543D01*
X0046600Y0177641D01*
X0046602Y0177739D01*
X0046602Y0197739D01*
X0046604Y0197826D01*
X0046610Y0197913D01*
X0046619Y0198000D01*
X0046632Y0198086D01*
X0046649Y0198172D01*
X0046670Y0198257D01*
X0046695Y0198340D01*
X0046723Y0198423D01*
X0046754Y0198504D01*
X0046789Y0198584D01*
X0046828Y0198662D01*
X0046870Y0198739D01*
X0046915Y0198814D01*
X0046964Y0198886D01*
X0047015Y0198957D01*
X0047070Y0199025D01*
X0047127Y0199090D01*
X0047188Y0199153D01*
X0047251Y0199214D01*
X0047316Y0199271D01*
X0047384Y0199326D01*
X0047455Y0199377D01*
X0047527Y0199426D01*
X0047602Y0199471D01*
X0047679Y0199513D01*
X0047757Y0199552D01*
X0047837Y0199587D01*
X0047918Y0199618D01*
X0048001Y0199646D01*
X0048084Y0199671D01*
X0048169Y0199692D01*
X0048255Y0199709D01*
X0048341Y0199722D01*
X0048428Y0199731D01*
X0048515Y0199737D01*
X0048602Y0199739D01*
X0049602Y0199739D01*
X0259602Y0199739D01*
X0260602Y0199739D01*
X0260689Y0199737D01*
X0260776Y0199731D01*
X0260863Y0199722D01*
X0260949Y0199709D01*
X0261035Y0199692D01*
X0261120Y0199671D01*
X0261203Y0199646D01*
X0261286Y0199618D01*
X0261367Y0199587D01*
X0261447Y0199552D01*
X0261525Y0199513D01*
X0261602Y0199471D01*
X0261677Y0199426D01*
X0261749Y0199377D01*
X0261820Y0199326D01*
X0261888Y0199271D01*
X0261953Y0199214D01*
X0262016Y0199153D01*
X0262077Y0199090D01*
X0262134Y0199025D01*
X0262189Y0198957D01*
X0262240Y0198886D01*
X0262289Y0198814D01*
X0262334Y0198739D01*
X0262376Y0198662D01*
X0262415Y0198584D01*
X0262450Y0198504D01*
X0262481Y0198423D01*
X0262509Y0198340D01*
X0262534Y0198257D01*
X0262555Y0198172D01*
X0262572Y0198086D01*
X0262585Y0198000D01*
X0262594Y0197913D01*
X0262600Y0197826D01*
X0262602Y0197739D01*
X0262602Y0177739D01*
X0262604Y0177641D01*
X0262610Y0177543D01*
X0262619Y0177445D01*
X0262633Y0177348D01*
X0262650Y0177251D01*
X0262671Y0177155D01*
X0262696Y0177060D01*
X0262724Y0176966D01*
X0262757Y0176874D01*
X0262792Y0176782D01*
X0262832Y0176692D01*
X0262874Y0176604D01*
X0262921Y0176517D01*
X0262970Y0176433D01*
X0263023Y0176350D01*
X0263079Y0176270D01*
X0263139Y0176191D01*
X0263201Y0176115D01*
X0263266Y0176042D01*
X0263334Y0175971D01*
X0263405Y0175903D01*
X0263478Y0175838D01*
X0263554Y0175776D01*
X0263633Y0175716D01*
X0263713Y0175660D01*
X0263796Y0175607D01*
X0263880Y0175558D01*
X0263967Y0175511D01*
X0264055Y0175469D01*
X0264145Y0175429D01*
X0264237Y0175394D01*
X0264329Y0175361D01*
X0264423Y0175333D01*
X0264518Y0175308D01*
X0264614Y0175287D01*
X0264711Y0175270D01*
X0264808Y0175256D01*
X0264906Y0175247D01*
X0265004Y0175241D01*
X0265102Y0175239D01*
X0273102Y0129239D02*
X0273104Y0129400D01*
X0273110Y0129560D01*
X0273120Y0129721D01*
X0273134Y0129881D01*
X0273152Y0130041D01*
X0273173Y0130200D01*
X0273199Y0130359D01*
X0273229Y0130517D01*
X0273262Y0130674D01*
X0273300Y0130831D01*
X0273341Y0130986D01*
X0273386Y0131140D01*
X0273435Y0131293D01*
X0273488Y0131445D01*
X0273544Y0131596D01*
X0273605Y0131745D01*
X0273668Y0131893D01*
X0273736Y0132039D01*
X0273807Y0132183D01*
X0273881Y0132325D01*
X0273959Y0132466D01*
X0274041Y0132604D01*
X0274126Y0132741D01*
X0274214Y0132875D01*
X0274306Y0133007D01*
X0274401Y0133137D01*
X0274499Y0133265D01*
X0274600Y0133390D01*
X0274704Y0133512D01*
X0274811Y0133632D01*
X0274921Y0133749D01*
X0275034Y0133864D01*
X0275150Y0133975D01*
X0275269Y0134084D01*
X0275390Y0134189D01*
X0275514Y0134292D01*
X0275640Y0134392D01*
X0275768Y0134488D01*
X0275899Y0134581D01*
X0276033Y0134671D01*
X0276168Y0134758D01*
X0276306Y0134841D01*
X0276445Y0134921D01*
X0276587Y0134997D01*
X0276730Y0135070D01*
X0276875Y0135139D01*
X0277022Y0135205D01*
X0277170Y0135267D01*
X0277320Y0135325D01*
X0277471Y0135380D01*
X0277624Y0135431D01*
X0277778Y0135478D01*
X0277933Y0135521D01*
X0278089Y0135560D01*
X0278245Y0135596D01*
X0278403Y0135627D01*
X0278561Y0135655D01*
X0278720Y0135679D01*
X0278880Y0135699D01*
X0279040Y0135715D01*
X0279200Y0135727D01*
X0279361Y0135735D01*
X0279522Y0135739D01*
X0279682Y0135739D01*
X0279843Y0135735D01*
X0280004Y0135727D01*
X0280164Y0135715D01*
X0280324Y0135699D01*
X0280484Y0135679D01*
X0280643Y0135655D01*
X0280801Y0135627D01*
X0280959Y0135596D01*
X0281115Y0135560D01*
X0281271Y0135521D01*
X0281426Y0135478D01*
X0281580Y0135431D01*
X0281733Y0135380D01*
X0281884Y0135325D01*
X0282034Y0135267D01*
X0282182Y0135205D01*
X0282329Y0135139D01*
X0282474Y0135070D01*
X0282617Y0134997D01*
X0282759Y0134921D01*
X0282898Y0134841D01*
X0283036Y0134758D01*
X0283171Y0134671D01*
X0283305Y0134581D01*
X0283436Y0134488D01*
X0283564Y0134392D01*
X0283690Y0134292D01*
X0283814Y0134189D01*
X0283935Y0134084D01*
X0284054Y0133975D01*
X0284170Y0133864D01*
X0284283Y0133749D01*
X0284393Y0133632D01*
X0284500Y0133512D01*
X0284604Y0133390D01*
X0284705Y0133265D01*
X0284803Y0133137D01*
X0284898Y0133007D01*
X0284990Y0132875D01*
X0285078Y0132741D01*
X0285163Y0132604D01*
X0285245Y0132466D01*
X0285323Y0132325D01*
X0285397Y0132183D01*
X0285468Y0132039D01*
X0285536Y0131893D01*
X0285599Y0131745D01*
X0285660Y0131596D01*
X0285716Y0131445D01*
X0285769Y0131293D01*
X0285818Y0131140D01*
X0285863Y0130986D01*
X0285904Y0130831D01*
X0285942Y0130674D01*
X0285975Y0130517D01*
X0286005Y0130359D01*
X0286031Y0130200D01*
X0286052Y0130041D01*
X0286070Y0129881D01*
X0286084Y0129721D01*
X0286094Y0129560D01*
X0286100Y0129400D01*
X0286102Y0129239D01*
X0286100Y0129078D01*
X0286094Y0128918D01*
X0286084Y0128757D01*
X0286070Y0128597D01*
X0286052Y0128437D01*
X0286031Y0128278D01*
X0286005Y0128119D01*
X0285975Y0127961D01*
X0285942Y0127804D01*
X0285904Y0127647D01*
X0285863Y0127492D01*
X0285818Y0127338D01*
X0285769Y0127185D01*
X0285716Y0127033D01*
X0285660Y0126882D01*
X0285599Y0126733D01*
X0285536Y0126585D01*
X0285468Y0126439D01*
X0285397Y0126295D01*
X0285323Y0126153D01*
X0285245Y0126012D01*
X0285163Y0125874D01*
X0285078Y0125737D01*
X0284990Y0125603D01*
X0284898Y0125471D01*
X0284803Y0125341D01*
X0284705Y0125213D01*
X0284604Y0125088D01*
X0284500Y0124966D01*
X0284393Y0124846D01*
X0284283Y0124729D01*
X0284170Y0124614D01*
X0284054Y0124503D01*
X0283935Y0124394D01*
X0283814Y0124289D01*
X0283690Y0124186D01*
X0283564Y0124086D01*
X0283436Y0123990D01*
X0283305Y0123897D01*
X0283171Y0123807D01*
X0283036Y0123720D01*
X0282898Y0123637D01*
X0282759Y0123557D01*
X0282617Y0123481D01*
X0282474Y0123408D01*
X0282329Y0123339D01*
X0282182Y0123273D01*
X0282034Y0123211D01*
X0281884Y0123153D01*
X0281733Y0123098D01*
X0281580Y0123047D01*
X0281426Y0123000D01*
X0281271Y0122957D01*
X0281115Y0122918D01*
X0280959Y0122882D01*
X0280801Y0122851D01*
X0280643Y0122823D01*
X0280484Y0122799D01*
X0280324Y0122779D01*
X0280164Y0122763D01*
X0280004Y0122751D01*
X0279843Y0122743D01*
X0279682Y0122739D01*
X0279522Y0122739D01*
X0279361Y0122743D01*
X0279200Y0122751D01*
X0279040Y0122763D01*
X0278880Y0122779D01*
X0278720Y0122799D01*
X0278561Y0122823D01*
X0278403Y0122851D01*
X0278245Y0122882D01*
X0278089Y0122918D01*
X0277933Y0122957D01*
X0277778Y0123000D01*
X0277624Y0123047D01*
X0277471Y0123098D01*
X0277320Y0123153D01*
X0277170Y0123211D01*
X0277022Y0123273D01*
X0276875Y0123339D01*
X0276730Y0123408D01*
X0276587Y0123481D01*
X0276445Y0123557D01*
X0276306Y0123637D01*
X0276168Y0123720D01*
X0276033Y0123807D01*
X0275899Y0123897D01*
X0275768Y0123990D01*
X0275640Y0124086D01*
X0275514Y0124186D01*
X0275390Y0124289D01*
X0275269Y0124394D01*
X0275150Y0124503D01*
X0275034Y0124614D01*
X0274921Y0124729D01*
X0274811Y0124846D01*
X0274704Y0124966D01*
X0274600Y0125088D01*
X0274499Y0125213D01*
X0274401Y0125341D01*
X0274306Y0125471D01*
X0274214Y0125603D01*
X0274126Y0125737D01*
X0274041Y0125874D01*
X0273959Y0126012D01*
X0273881Y0126153D01*
X0273807Y0126295D01*
X0273736Y0126439D01*
X0273668Y0126585D01*
X0273605Y0126733D01*
X0273544Y0126882D01*
X0273488Y0127033D01*
X0273435Y0127185D01*
X0273386Y0127338D01*
X0273341Y0127492D01*
X0273300Y0127647D01*
X0273262Y0127804D01*
X0273229Y0127961D01*
X0273199Y0128119D01*
X0273173Y0128278D01*
X0273152Y0128437D01*
X0273134Y0128597D01*
X0273120Y0128757D01*
X0273110Y0128918D01*
X0273104Y0129078D01*
X0273102Y0129239D01*
D11*
X0023156Y0110894D02*
X0018952Y0104589D01*
X0023156Y0104589D02*
X0018952Y0110894D01*
X0025398Y0108793D02*
X0027500Y0110894D01*
X0027500Y0104589D01*
X0029601Y0104589D02*
X0025398Y0104589D01*
D12*
X0048852Y0121989D02*
X0051855Y0121989D01*
X0050354Y0121989D02*
X0050354Y0126493D01*
X0048852Y0124992D01*
X0049707Y0131989D02*
X0048956Y0132740D01*
X0051959Y0135742D01*
X0051959Y0132740D01*
X0051208Y0131989D01*
X0049707Y0131989D01*
X0048956Y0132740D02*
X0048956Y0135742D01*
X0049707Y0136493D01*
X0051208Y0136493D01*
X0051959Y0135742D01*
X0047355Y0135742D02*
X0046604Y0136493D01*
X0045103Y0136493D01*
X0044352Y0135742D01*
X0047355Y0135742D02*
X0047355Y0134992D01*
X0044352Y0131989D01*
X0047355Y0131989D01*
X0048852Y0162989D02*
X0048852Y0167493D01*
X0051855Y0167493D01*
X0053456Y0166742D02*
X0054207Y0167493D01*
X0055708Y0167493D01*
X0056459Y0166742D01*
X0056459Y0165992D01*
X0055708Y0165241D01*
X0056459Y0164490D01*
X0056459Y0163740D01*
X0055708Y0162989D01*
X0054207Y0162989D01*
X0053456Y0163740D01*
X0054958Y0165241D02*
X0055708Y0165241D01*
X0058060Y0163740D02*
X0058060Y0162989D01*
X0058060Y0163740D02*
X0061063Y0166742D01*
X0061063Y0167493D01*
X0058060Y0167493D01*
X0050354Y0165241D02*
X0048852Y0165241D01*
X0257352Y0135742D02*
X0258103Y0136493D01*
X0259604Y0136493D01*
X0260355Y0135742D01*
X0260355Y0134992D01*
X0259604Y0134241D01*
X0260355Y0133490D01*
X0260355Y0132740D01*
X0259604Y0131989D01*
X0258103Y0131989D01*
X0257352Y0132740D01*
X0258854Y0134241D02*
X0259604Y0134241D01*
X0261956Y0132740D02*
X0261956Y0131989D01*
X0261956Y0132740D02*
X0264959Y0135742D01*
X0264959Y0136493D01*
X0261956Y0136493D01*
X0262707Y0126493D02*
X0261956Y0125742D01*
X0261956Y0124992D01*
X0262707Y0124241D01*
X0264959Y0124241D01*
X0264959Y0122740D02*
X0264959Y0125742D01*
X0264208Y0126493D01*
X0262707Y0126493D01*
X0261956Y0122740D02*
X0262707Y0121989D01*
X0264208Y0121989D01*
X0264959Y0122740D01*
X0260355Y0121989D02*
X0257352Y0121989D01*
X0258854Y0121989D02*
X0258854Y0126493D01*
X0257352Y0124992D01*
X0284849Y0140240D02*
X0285599Y0139489D01*
X0284849Y0140240D02*
X0284849Y0141741D01*
X0285599Y0142492D01*
X0286350Y0142492D01*
X0289352Y0139489D01*
X0289352Y0142492D01*
X0290854Y0144093D02*
X0289352Y0145594D01*
X0289352Y0144844D01*
X0288602Y0144844D01*
X0288602Y0145594D01*
X0289352Y0145594D01*
X0288602Y0147162D02*
X0289352Y0147913D01*
X0289352Y0149414D01*
X0288602Y0150165D01*
X0287100Y0150165D01*
X0286350Y0149414D01*
X0286350Y0148663D01*
X0287100Y0147162D01*
X0284849Y0147162D01*
X0284849Y0150165D01*
X0287100Y0151766D02*
X0287100Y0154769D01*
X0284849Y0154018D02*
X0287100Y0151766D01*
X0289352Y0154018D02*
X0284849Y0154018D01*
D13*
X0154602Y0157739D03*
D14*
X0154602Y0174239D03*
D15*
X0154602Y0141989D03*
X0143802Y0141989D03*
X0132902Y0141989D03*
X0122002Y0141989D03*
X0111102Y0141989D03*
X0100302Y0141989D03*
X0089402Y0141989D03*
X0078502Y0141989D03*
X0067702Y0141989D03*
X0056802Y0141989D03*
X0165502Y0141989D03*
X0176302Y0141989D03*
X0187202Y0141989D03*
X0198102Y0141989D03*
X0209002Y0141989D03*
X0219802Y0141989D03*
X0230802Y0141989D03*
X0241502Y0141989D03*
X0252402Y0141989D03*
D16*
X0247002Y0146989D03*
X0236102Y0146989D03*
X0225302Y0146989D03*
X0214402Y0146989D03*
X0203502Y0146989D03*
X0192602Y0146989D03*
X0181802Y0146989D03*
X0170902Y0146989D03*
X0160002Y0146989D03*
X0149202Y0146989D03*
X0138302Y0146989D03*
X0127402Y0146989D03*
X0116602Y0146989D03*
X0105702Y0146989D03*
X0094802Y0146989D03*
X0084002Y0146989D03*
X0073102Y0146989D03*
X0062202Y0146989D03*
M02*
