G75*
%MOIN*%
%OFA0B0*%
%FSLAX25Y25*%
%IPPOS*%
%LPD*%
%AMOC8*
5,1,8,0,0,1.08239X$1,22.5*
%
%ADD10OC8,0.06984*%
%ADD11C,0.20984*%
%ADD12OC8,0.05346*%
D10*
X0056802Y0124239D03*
X0067702Y0124239D03*
X0078502Y0124239D03*
X0089402Y0124239D03*
X0100302Y0124239D03*
X0111102Y0124239D03*
X0122002Y0124239D03*
X0132902Y0124239D03*
X0143702Y0124239D03*
X0154602Y0124239D03*
X0165502Y0124239D03*
X0176302Y0124239D03*
X0187202Y0124239D03*
X0198102Y0124239D03*
X0209002Y0124239D03*
X0219802Y0124239D03*
X0230702Y0124239D03*
X0241602Y0124239D03*
X0252402Y0124239D03*
X0247002Y0134239D03*
X0236102Y0134239D03*
X0225302Y0134239D03*
X0214402Y0134239D03*
X0203502Y0134239D03*
X0192702Y0134239D03*
X0181802Y0134239D03*
X0170902Y0134239D03*
X0160002Y0134239D03*
X0149202Y0134239D03*
X0138302Y0134239D03*
X0127402Y0134239D03*
X0116602Y0134239D03*
X0105702Y0134239D03*
X0094802Y0134239D03*
X0084002Y0134239D03*
X0073102Y0134239D03*
X0062202Y0134239D03*
D11*
X0029602Y0129239D03*
X0279602Y0129239D03*
D12*
X0125469Y0069554D03*
X0129406Y0064830D03*
X0137280Y0063255D03*
X0164445Y0064830D03*
X0170350Y0065617D03*
X0179012Y0069554D03*
X0160902Y0082940D03*
X0160114Y0090026D03*
X0165626Y0090814D03*
X0171138Y0091601D03*
X0175862Y0094751D03*
X0181802Y0094392D03*
X0193185Y0095538D03*
X0203502Y0093257D03*
X0214402Y0090771D03*
X0225302Y0089073D03*
X0236102Y0086487D03*
M02*
