G75*
%MOIN*%
%OFA0B0*%
%FSLAX25Y25*%
%IPPOS*%
%LPD*%
%AMOC8*
5,1,8,0,0,1.08239X$1,22.5*
%
%ADD10C,0.00300*%
%ADD11C,0.00512*%
D10*
X0152136Y0046606D02*
X0154071Y0046606D01*
X0152136Y0048541D01*
X0152136Y0049025D01*
X0152620Y0049509D01*
X0153587Y0049509D01*
X0154071Y0049025D01*
X0155083Y0049025D02*
X0157018Y0047090D01*
X0157018Y0046606D01*
X0157018Y0049509D02*
X0155083Y0049509D01*
X0155083Y0049025D01*
X0164531Y0117735D02*
X0166466Y0117735D01*
X0165499Y0117735D02*
X0165499Y0120638D01*
X0166466Y0119670D01*
X0167478Y0117735D02*
X0169413Y0117735D01*
X0168446Y0117735D02*
X0168446Y0120638D01*
X0169413Y0119670D01*
X0168952Y0139783D02*
X0169920Y0139783D01*
X0170403Y0140266D01*
X0168469Y0142201D01*
X0168469Y0140266D01*
X0168952Y0139783D01*
X0170403Y0140266D02*
X0170403Y0142201D01*
X0169920Y0142685D01*
X0168952Y0142685D01*
X0168469Y0142201D01*
X0171415Y0142201D02*
X0171415Y0141718D01*
X0171899Y0141234D01*
X0171415Y0140750D01*
X0171415Y0140266D01*
X0171899Y0139783D01*
X0172866Y0139783D01*
X0173350Y0140266D01*
X0172383Y0141234D02*
X0171899Y0141234D01*
X0171415Y0142201D02*
X0171899Y0142685D01*
X0172866Y0142685D01*
X0173350Y0142201D01*
X0178705Y0139783D02*
X0180640Y0139783D01*
X0179672Y0139783D02*
X0179672Y0142685D01*
X0180640Y0141718D01*
X0181651Y0141718D02*
X0182135Y0141234D01*
X0181651Y0140750D01*
X0181651Y0140266D01*
X0182135Y0139783D01*
X0183102Y0139783D01*
X0183586Y0140266D01*
X0182619Y0141234D02*
X0182135Y0141234D01*
X0181651Y0141718D02*
X0181651Y0142201D01*
X0182135Y0142685D01*
X0183102Y0142685D01*
X0183586Y0142201D01*
X0190516Y0142201D02*
X0190999Y0142685D01*
X0191967Y0142685D01*
X0192451Y0142201D01*
X0193462Y0142201D02*
X0193462Y0141718D01*
X0193946Y0141234D01*
X0193462Y0140750D01*
X0193462Y0140266D01*
X0193946Y0139783D01*
X0194914Y0139783D01*
X0195397Y0140266D01*
X0194430Y0141234D02*
X0193946Y0141234D01*
X0193462Y0142201D02*
X0193946Y0142685D01*
X0194914Y0142685D01*
X0195397Y0142201D01*
X0192451Y0139783D02*
X0190516Y0141718D01*
X0190516Y0142201D01*
X0190516Y0139783D02*
X0192451Y0139783D01*
X0207839Y0119851D02*
X0209774Y0119851D01*
X0209774Y0118399D01*
X0208806Y0118883D01*
X0208322Y0118883D01*
X0207839Y0118399D01*
X0207839Y0117432D01*
X0208322Y0116948D01*
X0209290Y0116948D01*
X0209774Y0117432D01*
X0210785Y0116948D02*
X0212720Y0116948D01*
X0211753Y0116948D02*
X0211753Y0119851D01*
X0212720Y0118883D01*
X0255083Y0119007D02*
X0255566Y0118523D01*
X0256534Y0118523D01*
X0257018Y0119007D01*
X0256534Y0119974D02*
X0255083Y0119974D01*
X0255083Y0119007D02*
X0255083Y0120942D01*
X0255566Y0121425D01*
X0256534Y0121425D01*
X0257018Y0120942D01*
X0257018Y0120458D01*
X0256534Y0119974D01*
X0258029Y0118523D02*
X0259964Y0118523D01*
X0258997Y0118523D02*
X0258997Y0121425D01*
X0259964Y0120458D01*
X0119019Y0139783D02*
X0117084Y0141718D01*
X0117084Y0142201D01*
X0117568Y0142685D01*
X0118536Y0142685D01*
X0119019Y0142201D01*
X0119019Y0139783D02*
X0117084Y0139783D01*
X0116073Y0140266D02*
X0115589Y0139783D01*
X0114622Y0139783D01*
X0114138Y0140266D01*
X0114138Y0141234D01*
X0114622Y0141718D01*
X0115105Y0141718D01*
X0116073Y0141234D01*
X0116073Y0142685D01*
X0114138Y0142685D01*
X0104059Y0120638D02*
X0104059Y0119187D01*
X0103091Y0119670D01*
X0102607Y0119670D01*
X0102124Y0119187D01*
X0102124Y0118219D01*
X0102607Y0117735D01*
X0103575Y0117735D01*
X0104059Y0118219D01*
X0104059Y0120638D02*
X0102124Y0120638D01*
X0064689Y0139783D02*
X0062754Y0141718D01*
X0062754Y0142201D01*
X0063237Y0142685D01*
X0064205Y0142685D01*
X0064689Y0142201D01*
X0064689Y0139783D02*
X0062754Y0139783D01*
X0061742Y0140266D02*
X0059807Y0142201D01*
X0059807Y0140266D01*
X0060291Y0139783D01*
X0061258Y0139783D01*
X0061742Y0140266D01*
X0061742Y0142201D01*
X0061258Y0142685D01*
X0060291Y0142685D01*
X0059807Y0142201D01*
X0058997Y0120638D02*
X0058997Y0117735D01*
X0059964Y0117735D02*
X0058029Y0117735D01*
X0059964Y0119670D02*
X0058997Y0120638D01*
X0007474Y0118358D02*
X0006990Y0118842D01*
X0006506Y0118842D01*
X0006022Y0118358D01*
X0006022Y0117391D01*
X0006506Y0116907D01*
X0006990Y0116907D01*
X0007474Y0117391D01*
X0007474Y0118358D01*
X0006022Y0118358D02*
X0005539Y0118842D01*
X0005055Y0118842D01*
X0004571Y0118358D01*
X0004571Y0117391D01*
X0005055Y0116907D01*
X0005539Y0116907D01*
X0006022Y0117391D01*
X0005055Y0115918D02*
X0004571Y0115918D01*
X0004571Y0115434D01*
X0005055Y0115434D01*
X0005055Y0115918D01*
X0005055Y0114422D02*
X0004571Y0113939D01*
X0004571Y0112971D01*
X0005055Y0112487D01*
X0006990Y0114422D01*
X0005055Y0114422D01*
X0005055Y0112487D02*
X0006990Y0112487D01*
X0007474Y0112971D01*
X0007474Y0113939D01*
X0006990Y0114422D01*
X0006990Y0111476D02*
X0006506Y0111476D01*
X0006022Y0110992D01*
X0005539Y0111476D01*
X0005055Y0111476D01*
X0004571Y0110992D01*
X0004571Y0110025D01*
X0005055Y0109541D01*
X0006022Y0110508D02*
X0006022Y0110992D01*
X0006990Y0111476D02*
X0007474Y0110992D01*
X0007474Y0110025D01*
X0006990Y0109541D01*
D11*
X0012870Y0054593D02*
X0012870Y0037467D01*
X0013126Y0045144D02*
X0023106Y0044121D01*
X0023106Y0043888D02*
X0013126Y0045144D01*
X0023106Y0046168D01*
X0023106Y0046401D02*
X0023106Y0043888D01*
X0023106Y0044633D02*
X0013126Y0045144D01*
X0023106Y0045656D01*
X0023106Y0046401D02*
X0013126Y0045144D01*
X0296079Y0045144D01*
X0286098Y0044121D01*
X0286098Y0043888D02*
X0296079Y0045144D01*
X0286098Y0046168D01*
X0286098Y0046401D02*
X0286098Y0043888D01*
X0286098Y0044633D02*
X0296079Y0045144D01*
X0286098Y0045656D01*
X0286098Y0046401D02*
X0296079Y0045144D01*
X0296335Y0048294D02*
X0296335Y0037467D01*
X0016610Y0054593D02*
X0004996Y0054593D01*
X0008933Y0054849D02*
X0009957Y0064830D01*
X0010190Y0064830D02*
X0008933Y0054849D01*
X0007909Y0064830D01*
X0007676Y0064830D02*
X0010190Y0064830D01*
X0009445Y0064830D02*
X0008933Y0054849D01*
X0008421Y0064830D01*
X0007676Y0064830D02*
X0008933Y0054849D01*
X0008933Y0175597D01*
X0009957Y0165617D01*
X0010190Y0165617D02*
X0008933Y0175597D01*
X0007909Y0165617D01*
X0007676Y0165617D02*
X0010190Y0165617D01*
X0009445Y0165617D02*
X0008933Y0175597D01*
X0008421Y0165617D01*
X0007676Y0165617D02*
X0008933Y0175597D01*
X0012870Y0175853D02*
X0001256Y0175853D01*
M02*
