%
M48
M72
T01C0.02362
T02C0.04000
T03C0.13000
%
T01
X125469Y69554
X129406Y64830
X137280Y63255
X164445Y64830
X170350Y65617
X179012Y69554
X160902Y82940
X160114Y90026
X165626Y90814
X171138Y91601
X175862Y94751
X181802Y94392
X193185Y95538
X203502Y93257
X214402Y90771
X225302Y89073
X236102Y86487
T02
X230702Y124239
X219802Y124239
X209002Y124239
X198102Y124239
X187202Y124239
X176302Y124239
X165502Y124239
X154602Y124239
X143702Y124239
X132902Y124239
X122002Y124239
X111102Y124239
X100302Y124239
X89402Y124239
X78502Y124239
X67702Y124239
X56802Y124239
X62202Y134239
X73102Y134239
X84002Y134239
X94802Y134239
X105702Y134239
X116602Y134239
X127402Y134239
X138302Y134239
X149202Y134239
X160002Y134239
X170902Y134239
X181802Y134239
X192702Y134239
X203502Y134239
X214402Y134239
X225302Y134239
X236102Y134239
X247002Y134239
X241602Y124239
X252402Y124239
T03
X279602Y129239
X29602Y129239
M30
