G75*
%MOIN*%
%OFA0B0*%
%FSLAX25Y25*%
%IPPOS*%
%LPD*%
%AMOC8*
5,1,8,0,0,1.08239X$1,22.5*
%
%ADD10R,0.01181X0.04724*%
%ADD11R,0.06299X0.09449*%
%ADD12R,0.03150X0.06299*%
D10*
X0121138Y0075971D03*
X0121138Y0075971D03*
X0121138Y0075971D03*
X0123106Y0075971D03*
X0123106Y0075971D03*
X0123106Y0075971D03*
X0125075Y0075971D03*
X0125075Y0075971D03*
X0125075Y0075971D03*
X0127043Y0075971D03*
X0127043Y0075971D03*
X0127043Y0075971D03*
X0129012Y0075971D03*
X0129012Y0075971D03*
X0129012Y0075971D03*
X0130980Y0075971D03*
X0130980Y0075971D03*
X0130980Y0075971D03*
X0132949Y0075971D03*
X0132949Y0075971D03*
X0132949Y0075971D03*
X0134917Y0075971D03*
X0134917Y0075971D03*
X0134917Y0075971D03*
X0136886Y0075971D03*
X0136886Y0075971D03*
X0136886Y0075971D03*
X0138854Y0075971D03*
X0138854Y0075971D03*
X0138854Y0075971D03*
X0140823Y0075971D03*
X0140823Y0075971D03*
X0140823Y0075971D03*
X0142791Y0075971D03*
X0142791Y0075971D03*
X0142791Y0075971D03*
X0144760Y0075971D03*
X0144760Y0075971D03*
X0144760Y0075971D03*
X0146728Y0075971D03*
X0146728Y0075971D03*
X0146728Y0075971D03*
X0148697Y0075971D03*
X0148697Y0075971D03*
X0148697Y0075971D03*
X0150665Y0075971D03*
X0150665Y0075971D03*
X0150665Y0075971D03*
X0152634Y0075971D03*
X0152634Y0075971D03*
X0152634Y0075971D03*
X0154602Y0075971D03*
X0154602Y0075971D03*
X0154602Y0075971D03*
X0156571Y0075971D03*
X0156571Y0075971D03*
X0156571Y0075971D03*
X0158539Y0075971D03*
X0158539Y0075971D03*
X0158539Y0075971D03*
X0160508Y0075971D03*
X0160508Y0075971D03*
X0160508Y0075971D03*
X0162476Y0075971D03*
X0162476Y0075971D03*
X0162476Y0075971D03*
X0164445Y0075971D03*
X0164445Y0075971D03*
X0164445Y0075971D03*
X0166413Y0075971D03*
X0166413Y0075971D03*
X0166413Y0075971D03*
X0168382Y0075971D03*
X0168382Y0075971D03*
X0168382Y0075971D03*
X0170350Y0075971D03*
X0170350Y0075971D03*
X0170350Y0075971D03*
X0172319Y0075971D03*
X0172319Y0075971D03*
X0172319Y0075971D03*
X0174287Y0075971D03*
X0174287Y0075971D03*
X0174287Y0075971D03*
X0176256Y0075971D03*
X0176256Y0075971D03*
X0176256Y0075971D03*
X0178224Y0075971D03*
X0178224Y0075971D03*
X0178224Y0075971D03*
X0180193Y0075971D03*
X0180193Y0075971D03*
X0180193Y0075971D03*
X0182161Y0075971D03*
X0182161Y0075971D03*
X0182161Y0075971D03*
X0184130Y0075971D03*
X0184130Y0075971D03*
X0184130Y0075971D03*
X0186098Y0075971D03*
X0186098Y0075971D03*
X0186098Y0075971D03*
X0188067Y0075971D03*
X0188067Y0075971D03*
X0188067Y0075971D03*
X0190035Y0075971D03*
X0190035Y0075971D03*
X0190035Y0075971D03*
D11*
X0196728Y0065341D03*
X0196728Y0065341D03*
X0196728Y0065341D03*
X0114445Y0065341D03*
X0114445Y0065341D03*
X0114445Y0065341D03*
D12*
X0109720Y0063767D03*
X0109720Y0063767D03*
X0109720Y0063767D03*
X0201453Y0063767D03*
X0201453Y0063767D03*
X0201453Y0063767D03*
M02*
