%
M48
M72
T01C0.0236
T02C0.0320
T03C0.0354
T04C0.0400
T05C0.0433
%
T01
X17008Y10004
X17637Y7445
X23307Y9807
X23504Y10988
X24882Y10988
X26850Y10594
X24488Y14531
X20315Y19531
X21338Y20437
X23700Y19650
T02
X27013Y16333
X28013Y16333
X28550Y14650
X26550Y14650
X31747Y15398
X32194Y16971
X33194Y16971
X33747Y15398
X33902Y12894
X31902Y12894
X32405Y11055
X33405Y11055
X28902Y7992
X26902Y7992
X17716Y12311
X17716Y14311
X15393Y16957
X15393Y18957
T03
X15323Y22740
X16323Y22740
X17323Y22740
X18323Y22740
X19323Y22740
X19323Y23740
X18323Y23740
X17323Y23740
X16323Y23740
X15323Y23740
X14323Y23740
X14323Y22740
X21323Y22740
X22323Y22740
X23323Y22740
X24323Y22740
X25323Y22740
X26323Y22740
X27323Y22740
X28323Y22740
X28323Y23740
X27323Y23740
X26323Y23740
X25323Y23740
X24323Y23740
X23323Y23740
X22323Y23740
X21323Y23740
X21323Y5740
X21323Y4740
X20323Y4740
X19323Y4740
X19323Y5740
X20323Y5740
X18323Y5740
X17323Y5740
X17323Y4740
X18323Y4740
X16323Y4740
X15323Y4740
X15323Y5740
X16323Y5740
X14323Y5740
X14323Y4740
X22823Y4740
X23823Y4740
X24823Y4740
X25823Y4740
X26823Y4740
X27823Y4740
X28823Y4740
X29823Y4740
X30823Y4740
X31823Y4740
X31823Y5740
X30823Y5740
X29823Y5740
X28823Y5740
X27823Y5740
X26823Y5740
X25823Y5740
X24823Y5740
X23823Y5740
X22823Y5740
T04
X12704Y7453
X12704Y8453
X12704Y9453
X12704Y10453
X15748Y11382
X13858Y13744
X12704Y15343
X12704Y16343
X12704Y17343
X13307Y20594
X18189Y20831
X20304Y18056
X21804Y17306
X20304Y16556
X21804Y15806
X20304Y15056
X19960Y11303
X20551Y7051
X26417Y13114
X29500Y12048
X29500Y11048
X29500Y10048
X33397Y9028
X33397Y8028
X33094Y5500
X34094Y5500
X29550Y17788
X29550Y18788
X29550Y19788
X30484Y23008
X31484Y23008
X32484Y23008
X33858Y21106
T05
X18743Y15678
X14743Y15678
M30
