G75*
%MOIN*%
%OFA0B0*%
%FSLAX25Y25*%
%IPPOS*%
%LPD*%
%AMOC8*
5,1,8,0,0,1.08239X$1,22.5*
%
%ADD10C,0.06000*%
%ADD11OC8,0.06496*%
%ADD12C,0.06200*%
%ADD13OC8,0.06200*%
%ADD14R,0.05543X0.05543*%
%ADD15OC8,0.05200*%
%ADD16OC8,0.06000*%
%ADD17R,0.03962X0.03962*%
%ADD18C,0.02400*%
%ADD19C,0.01000*%
%ADD20C,0.05000*%
D10*
X0124044Y0074528D02*
X0130044Y0074528D01*
X0130044Y0084528D02*
X0124044Y0084528D01*
X0124044Y0094528D02*
X0130044Y0094528D01*
X0130044Y0104528D02*
X0124044Y0104528D01*
X0124044Y0153425D02*
X0130044Y0153425D01*
X0130044Y0163425D02*
X0124044Y0163425D01*
X0124044Y0173425D02*
X0130044Y0173425D01*
X0200036Y0180557D02*
X0206036Y0180557D01*
X0215036Y0173057D02*
X0221036Y0173057D01*
X0206036Y0165557D02*
X0200036Y0165557D01*
X0215036Y0158057D02*
X0221036Y0158057D01*
X0206036Y0150557D02*
X0200036Y0150557D01*
X0292501Y0177882D02*
X0298501Y0177882D01*
X0298501Y0187882D02*
X0292501Y0187882D01*
X0292501Y0197882D02*
X0298501Y0197882D01*
X0304839Y0227079D02*
X0304839Y0233079D01*
X0314839Y0233079D02*
X0314839Y0227079D01*
X0324839Y0227079D02*
X0324839Y0233079D01*
X0298003Y0120476D02*
X0292003Y0120476D01*
X0292003Y0110476D02*
X0298003Y0110476D01*
X0298003Y0100476D02*
X0292003Y0100476D01*
X0330973Y0090276D02*
X0336973Y0090276D01*
X0336973Y0080276D02*
X0330973Y0080276D01*
X0330942Y0058000D02*
X0330942Y0052000D01*
X0340942Y0052000D02*
X0340942Y0058000D01*
D11*
X0187426Y0156777D03*
X0147426Y0156777D03*
D12*
X0270131Y0163331D03*
X0331942Y0169709D03*
X0324051Y0110555D03*
D13*
X0334051Y0110555D03*
X0280131Y0163331D03*
X0321942Y0169709D03*
D14*
X0283225Y0227402D03*
X0273225Y0227402D03*
X0273225Y0237402D03*
X0283225Y0237402D03*
X0263225Y0237402D03*
X0253225Y0237402D03*
X0243225Y0237402D03*
X0233225Y0237402D03*
X0223225Y0237402D03*
X0213225Y0237402D03*
X0213225Y0227402D03*
X0223225Y0227402D03*
X0233225Y0227402D03*
X0243225Y0227402D03*
X0253225Y0227402D03*
X0263225Y0227402D03*
X0193225Y0227402D03*
X0193225Y0237402D03*
X0183225Y0237402D03*
X0173225Y0237402D03*
X0163225Y0237402D03*
X0153225Y0237402D03*
X0143225Y0237402D03*
X0143225Y0227402D03*
X0153225Y0227402D03*
X0163225Y0227402D03*
X0173225Y0227402D03*
X0183225Y0227402D03*
X0183225Y0057402D03*
X0173225Y0057402D03*
X0163225Y0057402D03*
X0153225Y0057402D03*
X0143225Y0057402D03*
X0143225Y0047402D03*
X0153225Y0047402D03*
X0163225Y0047402D03*
X0173225Y0047402D03*
X0183225Y0047402D03*
X0193225Y0047402D03*
X0203225Y0047402D03*
X0203225Y0057402D03*
X0193225Y0057402D03*
X0213225Y0057402D03*
X0213225Y0047402D03*
X0228225Y0047402D03*
X0238225Y0047402D03*
X0238225Y0057402D03*
X0228225Y0057402D03*
X0248225Y0057402D03*
X0258225Y0057402D03*
X0268225Y0057402D03*
X0278225Y0057402D03*
X0288225Y0057402D03*
X0298225Y0057402D03*
X0308225Y0057402D03*
X0318225Y0057402D03*
X0318225Y0047402D03*
X0308225Y0047402D03*
X0298225Y0047402D03*
X0288225Y0047402D03*
X0278225Y0047402D03*
X0268225Y0047402D03*
X0258225Y0047402D03*
X0248225Y0047402D03*
D15*
X0269019Y0079925D03*
X0289019Y0079925D03*
X0319019Y0128941D03*
X0339019Y0128941D03*
X0337469Y0153984D03*
X0317469Y0153984D03*
X0285501Y0146504D03*
X0265501Y0146504D03*
X0177162Y0143110D03*
X0177162Y0123110D03*
X0153934Y0169567D03*
X0153934Y0189567D03*
D16*
X0133068Y0205945D03*
X0181886Y0208307D03*
X0138579Y0137441D03*
X0157477Y0113819D03*
X0199603Y0113031D03*
X0205509Y0070512D03*
X0264170Y0131142D03*
X0338579Y0211063D03*
D17*
X0244879Y0145315D03*
X0248816Y0109882D03*
X0235036Y0109882D03*
X0233068Y0098071D03*
X0268501Y0105945D03*
X0176375Y0074449D03*
X0170075Y0100039D03*
X0203146Y0195315D03*
X0213383Y0204370D03*
X0237005Y0196496D03*
D18*
X0244879Y0188622D01*
X0244879Y0145315D01*
X0248816Y0109882D02*
X0235036Y0109882D01*
X0233068Y0098071D02*
X0260627Y0098071D01*
X0268501Y0105945D01*
X0176375Y0074449D02*
X0150745Y0074449D01*
X0127044Y0074528D01*
X0157477Y0113819D02*
X0170075Y0106732D01*
X0170075Y0100039D01*
X0134642Y0163425D02*
X0127044Y0163425D01*
X0134642Y0163425D02*
X0138579Y0167362D01*
X0138579Y0184685D01*
X0133068Y0190197D01*
X0133068Y0205945D01*
X0143304Y0220118D02*
X0161414Y0202008D01*
X0196453Y0202008D01*
X0203146Y0195315D01*
X0205902Y0204370D02*
X0193304Y0216969D01*
X0193304Y0227323D01*
X0193225Y0227402D01*
X0205902Y0204370D02*
X0213383Y0204370D01*
X0143304Y0220118D02*
X0143304Y0227323D01*
X0143225Y0227402D01*
D19*
X0116020Y0241111D02*
X0116020Y0044024D01*
X0139183Y0044062D01*
X0139153Y0044091D01*
X0139153Y0050712D01*
X0139915Y0051473D01*
X0146535Y0051473D01*
X0147297Y0050712D01*
X0147297Y0044091D01*
X0147281Y0044076D01*
X0149166Y0044079D01*
X0149153Y0044091D01*
X0149153Y0050712D01*
X0149915Y0051473D01*
X0156535Y0051473D01*
X0157297Y0050712D01*
X0157297Y0044092D01*
X0159153Y0044095D01*
X0159153Y0050712D01*
X0159915Y0051473D01*
X0166535Y0051473D01*
X0167297Y0050712D01*
X0167297Y0044109D01*
X0169153Y0044112D01*
X0169153Y0050712D01*
X0169915Y0051473D01*
X0176535Y0051473D01*
X0177297Y0050712D01*
X0177297Y0044125D01*
X0179153Y0044128D01*
X0179153Y0050712D01*
X0179915Y0051473D01*
X0186535Y0051473D01*
X0187297Y0050712D01*
X0187297Y0044142D01*
X0189153Y0044145D01*
X0189153Y0050712D01*
X0189915Y0051473D01*
X0196535Y0051473D01*
X0197297Y0050712D01*
X0197297Y0044158D01*
X0199153Y0044161D01*
X0199153Y0050712D01*
X0199915Y0051473D01*
X0206535Y0051473D01*
X0207297Y0050712D01*
X0207297Y0044175D01*
X0209153Y0044178D01*
X0209153Y0050712D01*
X0209915Y0051473D01*
X0216535Y0051473D01*
X0217297Y0050712D01*
X0217297Y0044191D01*
X0224153Y0044203D01*
X0224153Y0050712D01*
X0224915Y0051473D01*
X0231535Y0051473D01*
X0232297Y0050712D01*
X0232297Y0044216D01*
X0234153Y0044219D01*
X0234153Y0050712D01*
X0234915Y0051473D01*
X0241535Y0051473D01*
X0242297Y0050712D01*
X0242297Y0044233D01*
X0244153Y0044236D01*
X0244153Y0050712D01*
X0244915Y0051473D01*
X0251535Y0051473D01*
X0252297Y0050712D01*
X0252297Y0044249D01*
X0254153Y0044252D01*
X0254153Y0050712D01*
X0254915Y0051473D01*
X0261535Y0051473D01*
X0262297Y0050712D01*
X0262297Y0044266D01*
X0264153Y0044269D01*
X0264153Y0050712D01*
X0264915Y0051473D01*
X0271535Y0051473D01*
X0272297Y0050712D01*
X0272297Y0044282D01*
X0274153Y0044285D01*
X0274153Y0050712D01*
X0274915Y0051473D01*
X0281535Y0051473D01*
X0282297Y0050712D01*
X0282297Y0044299D01*
X0283988Y0044302D01*
X0283953Y0044432D01*
X0283953Y0047016D01*
X0287839Y0047016D01*
X0287839Y0047787D01*
X0283953Y0047787D01*
X0283953Y0050371D01*
X0284056Y0050752D01*
X0284253Y0051094D01*
X0284532Y0051374D01*
X0284874Y0051571D01*
X0285256Y0051673D01*
X0287839Y0051673D01*
X0287839Y0047787D01*
X0288611Y0047787D01*
X0292497Y0047787D01*
X0292497Y0050371D01*
X0292394Y0050752D01*
X0292197Y0051094D01*
X0291918Y0051374D01*
X0291576Y0051571D01*
X0291194Y0051673D01*
X0288611Y0051673D01*
X0288611Y0047787D01*
X0288611Y0047016D01*
X0292497Y0047016D01*
X0292497Y0044432D01*
X0292465Y0044316D01*
X0294153Y0044318D01*
X0294153Y0050712D01*
X0294915Y0051473D01*
X0301535Y0051473D01*
X0302297Y0050712D01*
X0302297Y0044332D01*
X0304153Y0044335D01*
X0304153Y0050712D01*
X0304915Y0051473D01*
X0311535Y0051473D01*
X0312297Y0050712D01*
X0312297Y0044348D01*
X0314153Y0044351D01*
X0314153Y0050712D01*
X0314915Y0051473D01*
X0321535Y0051473D01*
X0322297Y0050712D01*
X0322297Y0044365D01*
X0344209Y0044401D01*
X0344209Y0048904D01*
X0343873Y0048568D01*
X0343300Y0048151D01*
X0342669Y0047830D01*
X0341995Y0047611D01*
X0341442Y0047523D01*
X0341442Y0054500D01*
X0340442Y0054500D01*
X0340442Y0047523D01*
X0339888Y0047611D01*
X0339214Y0047830D01*
X0338583Y0048151D01*
X0338010Y0048568D01*
X0337509Y0049068D01*
X0337093Y0049641D01*
X0336771Y0050273D01*
X0336552Y0050946D01*
X0336442Y0051646D01*
X0336442Y0054500D01*
X0340442Y0054500D01*
X0340442Y0055500D01*
X0340442Y0062477D01*
X0339888Y0062389D01*
X0339214Y0062170D01*
X0338583Y0061849D01*
X0338010Y0061432D01*
X0337509Y0060932D01*
X0337093Y0060359D01*
X0336771Y0059727D01*
X0336552Y0059054D01*
X0336442Y0058354D01*
X0336442Y0055500D01*
X0340442Y0055500D01*
X0341442Y0055500D01*
X0341442Y0062477D01*
X0341995Y0062389D01*
X0342669Y0062170D01*
X0343300Y0061849D01*
X0343873Y0061432D01*
X0344209Y0061096D01*
X0344209Y0241488D01*
X0286616Y0241393D01*
X0287297Y0240712D01*
X0287297Y0234091D01*
X0286535Y0233330D01*
X0279915Y0233330D01*
X0279153Y0234091D01*
X0279153Y0240712D01*
X0279823Y0241381D01*
X0276632Y0241376D01*
X0277297Y0240712D01*
X0277297Y0234091D01*
X0276535Y0233330D01*
X0269915Y0233330D01*
X0269153Y0234091D01*
X0269153Y0240712D01*
X0269807Y0241365D01*
X0266649Y0241360D01*
X0267297Y0240712D01*
X0267297Y0234091D01*
X0266535Y0233330D01*
X0259915Y0233330D01*
X0259153Y0234091D01*
X0259153Y0240712D01*
X0259790Y0241348D01*
X0256665Y0241343D01*
X0257297Y0240712D01*
X0257297Y0234091D01*
X0256535Y0233330D01*
X0249915Y0233330D01*
X0249153Y0234091D01*
X0249153Y0240712D01*
X0249773Y0241332D01*
X0246682Y0241327D01*
X0247297Y0240712D01*
X0247297Y0234091D01*
X0246535Y0233330D01*
X0239915Y0233330D01*
X0239153Y0234091D01*
X0239153Y0240712D01*
X0239757Y0241315D01*
X0236981Y0241311D01*
X0237197Y0241094D01*
X0237394Y0240752D01*
X0237497Y0240371D01*
X0237497Y0237787D01*
X0233611Y0237787D01*
X0233611Y0237016D01*
X0237497Y0237016D01*
X0237497Y0234432D01*
X0237394Y0234051D01*
X0237197Y0233709D01*
X0236918Y0233430D01*
X0236576Y0233232D01*
X0236194Y0233130D01*
X0233611Y0233130D01*
X0233611Y0237016D01*
X0232839Y0237016D01*
X0228953Y0237016D01*
X0228953Y0234432D01*
X0229056Y0234051D01*
X0229253Y0233709D01*
X0229532Y0233430D01*
X0229874Y0233232D01*
X0230256Y0233130D01*
X0232839Y0233130D01*
X0232839Y0237016D01*
X0232839Y0237787D01*
X0228953Y0237787D01*
X0228953Y0240371D01*
X0229056Y0240752D01*
X0229253Y0241094D01*
X0229457Y0241298D01*
X0226997Y0241294D01*
X0227197Y0241094D01*
X0227394Y0240752D01*
X0227497Y0240371D01*
X0227497Y0237787D01*
X0223611Y0237787D01*
X0223611Y0237016D01*
X0227497Y0237016D01*
X0227497Y0234432D01*
X0227394Y0234051D01*
X0227197Y0233709D01*
X0226918Y0233430D01*
X0226576Y0233232D01*
X0226194Y0233130D01*
X0223611Y0233130D01*
X0223611Y0237016D01*
X0222839Y0237016D01*
X0218953Y0237016D01*
X0218953Y0234432D01*
X0219056Y0234051D01*
X0219253Y0233709D01*
X0219532Y0233430D01*
X0219874Y0233232D01*
X0220256Y0233130D01*
X0222839Y0233130D01*
X0222839Y0237016D01*
X0222839Y0237787D01*
X0218953Y0237787D01*
X0218953Y0240371D01*
X0219056Y0240752D01*
X0219253Y0241094D01*
X0219440Y0241282D01*
X0216731Y0241277D01*
X0217297Y0240712D01*
X0217297Y0234091D01*
X0216535Y0233330D01*
X0209915Y0233330D01*
X0209153Y0234091D01*
X0209153Y0240712D01*
X0209707Y0241265D01*
X0196764Y0241244D01*
X0197297Y0240712D01*
X0197297Y0234091D01*
X0196535Y0233330D01*
X0189915Y0233330D01*
X0189153Y0234091D01*
X0189153Y0240712D01*
X0189674Y0241232D01*
X0186781Y0241228D01*
X0187297Y0240712D01*
X0187297Y0234091D01*
X0186535Y0233330D01*
X0179915Y0233330D01*
X0179153Y0234091D01*
X0179153Y0240712D01*
X0179658Y0241216D01*
X0176797Y0241211D01*
X0177297Y0240712D01*
X0177297Y0234091D01*
X0176535Y0233330D01*
X0169915Y0233330D01*
X0169153Y0234091D01*
X0169153Y0240712D01*
X0169641Y0241199D01*
X0166814Y0241195D01*
X0167297Y0240712D01*
X0167297Y0234091D01*
X0166535Y0233330D01*
X0159915Y0233330D01*
X0159153Y0234091D01*
X0159153Y0240712D01*
X0159624Y0241183D01*
X0156830Y0241178D01*
X0157297Y0240712D01*
X0157297Y0234091D01*
X0156535Y0233330D01*
X0149915Y0233330D01*
X0149153Y0234091D01*
X0149153Y0240712D01*
X0149608Y0241166D01*
X0146847Y0241162D01*
X0147297Y0240712D01*
X0147297Y0234091D01*
X0146535Y0233330D01*
X0139915Y0233330D01*
X0139153Y0234091D01*
X0139153Y0240712D01*
X0139591Y0241150D01*
X0116020Y0241111D01*
X0116020Y0240971D02*
X0139413Y0240971D01*
X0139153Y0239973D02*
X0116020Y0239973D01*
X0116020Y0238974D02*
X0139153Y0238974D01*
X0139153Y0237976D02*
X0116020Y0237976D01*
X0116020Y0236977D02*
X0139153Y0236977D01*
X0139153Y0235979D02*
X0116020Y0235979D01*
X0116020Y0234980D02*
X0139153Y0234980D01*
X0139263Y0233982D02*
X0116020Y0233982D01*
X0116020Y0232983D02*
X0300539Y0232983D01*
X0300539Y0233934D02*
X0300539Y0226223D01*
X0301194Y0224643D01*
X0302403Y0223433D01*
X0303984Y0222779D01*
X0305695Y0222779D01*
X0307275Y0223433D01*
X0308485Y0224643D01*
X0309139Y0226223D01*
X0309139Y0233934D01*
X0308485Y0235514D01*
X0307275Y0236724D01*
X0305695Y0237379D01*
X0303984Y0237379D01*
X0302403Y0236724D01*
X0301194Y0235514D01*
X0300539Y0233934D01*
X0300559Y0233982D02*
X0287187Y0233982D01*
X0287297Y0234980D02*
X0300973Y0234980D01*
X0301658Y0235979D02*
X0287297Y0235979D01*
X0287297Y0236977D02*
X0303015Y0236977D01*
X0306664Y0236977D02*
X0312579Y0236977D01*
X0312481Y0236927D02*
X0311908Y0236511D01*
X0311407Y0236010D01*
X0310990Y0235437D01*
X0310669Y0234806D01*
X0310450Y0234132D01*
X0310339Y0233433D01*
X0310339Y0230579D01*
X0314339Y0230579D01*
X0314339Y0237556D01*
X0313785Y0237468D01*
X0313112Y0237249D01*
X0312481Y0236927D01*
X0311384Y0235979D02*
X0308020Y0235979D01*
X0308706Y0234980D02*
X0310758Y0234980D01*
X0310426Y0233982D02*
X0309119Y0233982D01*
X0309139Y0232983D02*
X0310339Y0232983D01*
X0310339Y0231985D02*
X0309139Y0231985D01*
X0309139Y0230986D02*
X0310339Y0230986D01*
X0310339Y0229579D02*
X0310339Y0226725D01*
X0310450Y0226025D01*
X0310669Y0225351D01*
X0310990Y0224720D01*
X0311407Y0224147D01*
X0311908Y0223646D01*
X0312481Y0223230D01*
X0313112Y0222908D01*
X0313785Y0222690D01*
X0314339Y0222602D01*
X0314339Y0229579D01*
X0310339Y0229579D01*
X0310339Y0228989D02*
X0309139Y0228989D01*
X0309139Y0227991D02*
X0310339Y0227991D01*
X0310339Y0226992D02*
X0309139Y0226992D01*
X0309044Y0225994D02*
X0310460Y0225994D01*
X0310850Y0224995D02*
X0308630Y0224995D01*
X0307838Y0223997D02*
X0311557Y0223997D01*
X0312936Y0222998D02*
X0306224Y0222998D01*
X0303454Y0222998D02*
X0195804Y0222998D01*
X0195804Y0223330D02*
X0196535Y0223330D01*
X0197297Y0224091D01*
X0197297Y0230712D01*
X0196535Y0231473D01*
X0189915Y0231473D01*
X0189153Y0230712D01*
X0189153Y0224091D01*
X0189915Y0223330D01*
X0190804Y0223330D01*
X0190804Y0216471D01*
X0191184Y0215552D01*
X0191888Y0214849D01*
X0204486Y0202251D01*
X0205405Y0201870D01*
X0210101Y0201870D01*
X0210101Y0201850D01*
X0210863Y0201089D01*
X0215902Y0201089D01*
X0216664Y0201850D01*
X0216664Y0206890D01*
X0215902Y0207651D01*
X0210863Y0207651D01*
X0210101Y0206890D01*
X0210101Y0206870D01*
X0206938Y0206870D01*
X0195804Y0218004D01*
X0195804Y0223330D01*
X0195804Y0222000D02*
X0320646Y0222000D01*
X0320646Y0222998D02*
X0316743Y0222998D01*
X0316567Y0222908D02*
X0317198Y0223230D01*
X0317771Y0223646D01*
X0318272Y0224147D01*
X0318688Y0224720D01*
X0319010Y0225351D01*
X0319228Y0226025D01*
X0319339Y0226725D01*
X0319339Y0229579D01*
X0315339Y0229579D01*
X0315339Y0230579D01*
X0314339Y0230579D01*
X0314339Y0229579D01*
X0315339Y0229579D01*
X0315339Y0222602D01*
X0315893Y0222690D01*
X0316567Y0222908D01*
X0315339Y0222998D02*
X0314339Y0222998D01*
X0314339Y0223997D02*
X0315339Y0223997D01*
X0315339Y0224995D02*
X0314339Y0224995D01*
X0314339Y0225994D02*
X0315339Y0225994D01*
X0315339Y0226992D02*
X0314339Y0226992D01*
X0314339Y0227991D02*
X0315339Y0227991D01*
X0315339Y0228989D02*
X0314339Y0228989D01*
X0314339Y0229988D02*
X0309139Y0229988D01*
X0314339Y0230986D02*
X0315339Y0230986D01*
X0315339Y0230579D02*
X0315339Y0237556D01*
X0315893Y0237468D01*
X0316567Y0237249D01*
X0317198Y0236927D01*
X0317771Y0236511D01*
X0318272Y0236010D01*
X0318688Y0235437D01*
X0319010Y0234806D01*
X0319228Y0234132D01*
X0319339Y0233433D01*
X0319339Y0230579D01*
X0315339Y0230579D01*
X0315339Y0229988D02*
X0320539Y0229988D01*
X0320539Y0230986D02*
X0319339Y0230986D01*
X0319339Y0231985D02*
X0320539Y0231985D01*
X0320539Y0232983D02*
X0319339Y0232983D01*
X0319252Y0233982D02*
X0320559Y0233982D01*
X0320539Y0233934D02*
X0320539Y0226223D01*
X0320746Y0225723D01*
X0320695Y0224929D01*
X0320646Y0224811D01*
X0320646Y0224179D01*
X0320604Y0223549D01*
X0320646Y0223427D01*
X0320646Y0216044D01*
X0236249Y0216044D01*
X0234852Y0215466D01*
X0233783Y0214397D01*
X0211809Y0192422D01*
X0206054Y0192422D01*
X0206427Y0192795D01*
X0206427Y0197835D01*
X0205666Y0198596D01*
X0203401Y0198596D01*
X0197870Y0204127D01*
X0196951Y0204508D01*
X0184168Y0204508D01*
X0186186Y0206526D01*
X0186186Y0210088D01*
X0183668Y0212607D01*
X0180105Y0212607D01*
X0177586Y0210088D01*
X0177586Y0206526D01*
X0179605Y0204508D01*
X0162450Y0204508D01*
X0145804Y0221154D01*
X0145804Y0223330D01*
X0146535Y0223330D01*
X0147297Y0224091D01*
X0147297Y0230712D01*
X0146535Y0231473D01*
X0139915Y0231473D01*
X0139153Y0230712D01*
X0139153Y0224091D01*
X0139915Y0223330D01*
X0140804Y0223330D01*
X0140804Y0219621D01*
X0141184Y0218702D01*
X0159295Y0200592D01*
X0159998Y0199888D01*
X0160917Y0199508D01*
X0195418Y0199508D01*
X0199865Y0195061D01*
X0199865Y0192795D01*
X0200239Y0192422D01*
X0185068Y0192422D01*
X0183671Y0191844D01*
X0182602Y0190775D01*
X0174728Y0182901D01*
X0174149Y0181504D01*
X0174149Y0157913D01*
X0169289Y0153052D01*
X0150133Y0153052D01*
X0151974Y0154893D01*
X0151974Y0158661D01*
X0149310Y0161325D01*
X0145542Y0161325D01*
X0142878Y0158661D01*
X0142878Y0154893D01*
X0144720Y0153052D01*
X0134344Y0153052D01*
X0134344Y0154281D01*
X0133689Y0155861D01*
X0132480Y0157071D01*
X0130899Y0157725D01*
X0123189Y0157725D01*
X0121608Y0157071D01*
X0120399Y0155861D01*
X0119744Y0154281D01*
X0119744Y0152570D01*
X0120399Y0150989D01*
X0121608Y0149780D01*
X0123189Y0149125D01*
X0125970Y0149125D01*
X0129065Y0146030D01*
X0130461Y0145452D01*
X0173988Y0145452D01*
X0173262Y0144726D01*
X0173262Y0141495D01*
X0175547Y0139210D01*
X0178777Y0139210D01*
X0181062Y0141495D01*
X0181062Y0144726D01*
X0180336Y0145452D01*
X0202488Y0145452D01*
X0203884Y0146030D01*
X0204110Y0146257D01*
X0206892Y0146257D01*
X0208472Y0146911D01*
X0209682Y0148121D01*
X0210336Y0149701D01*
X0210336Y0151412D01*
X0209682Y0152992D01*
X0208472Y0154202D01*
X0206892Y0154857D01*
X0199181Y0154857D01*
X0197601Y0154202D01*
X0196451Y0153052D01*
X0190133Y0153052D01*
X0191974Y0154893D01*
X0191974Y0158661D01*
X0189310Y0161325D01*
X0185542Y0161325D01*
X0182878Y0158661D01*
X0182878Y0154893D01*
X0184720Y0153052D01*
X0180037Y0153052D01*
X0181171Y0154186D01*
X0181749Y0155583D01*
X0181749Y0179174D01*
X0187397Y0184822D01*
X0199098Y0184822D01*
X0197601Y0184202D01*
X0196391Y0182992D01*
X0195736Y0181412D01*
X0195736Y0179701D01*
X0196391Y0178121D01*
X0197601Y0176911D01*
X0199181Y0176257D01*
X0206892Y0176257D01*
X0208472Y0176911D01*
X0209682Y0178121D01*
X0210336Y0179701D01*
X0210336Y0181412D01*
X0209682Y0182992D01*
X0208472Y0184202D01*
X0206975Y0184822D01*
X0214138Y0184822D01*
X0215535Y0185401D01*
X0238579Y0208444D01*
X0320646Y0208444D01*
X0320646Y0187605D01*
X0307681Y0179404D01*
X0307275Y0179233D01*
X0307048Y0179004D01*
X0306775Y0178831D01*
X0306522Y0178471D01*
X0306212Y0178158D01*
X0306090Y0177859D01*
X0305904Y0177595D01*
X0305808Y0177166D01*
X0305641Y0176758D01*
X0305643Y0176436D01*
X0305572Y0176121D01*
X0305647Y0175687D01*
X0306030Y0107116D01*
X0303147Y0104233D01*
X0300169Y0104233D01*
X0298859Y0104776D01*
X0291148Y0104776D01*
X0289568Y0104121D01*
X0288358Y0102912D01*
X0287703Y0101331D01*
X0287703Y0099621D01*
X0288358Y0098040D01*
X0289568Y0096831D01*
X0291148Y0096176D01*
X0298859Y0096176D01*
X0299962Y0096633D01*
X0305477Y0096633D01*
X0306874Y0097212D01*
X0307943Y0098281D01*
X0312000Y0102337D01*
X0312010Y0102342D01*
X0312534Y0102872D01*
X0313061Y0103399D01*
X0313065Y0103409D01*
X0313073Y0103417D01*
X0313354Y0104107D01*
X0313639Y0104795D01*
X0313639Y0104806D01*
X0313643Y0104817D01*
X0313639Y0105561D01*
X0313639Y0106307D01*
X0313635Y0106317D01*
X0313257Y0173938D01*
X0326201Y0182126D01*
X0326598Y0182290D01*
X0326834Y0182526D01*
X0327116Y0182704D01*
X0327363Y0183056D01*
X0327667Y0183359D01*
X0327795Y0183667D01*
X0327987Y0183940D01*
X0328081Y0184359D01*
X0328246Y0184756D01*
X0328246Y0185089D01*
X0328319Y0185415D01*
X0328246Y0185838D01*
X0328246Y0223931D01*
X0328279Y0224437D01*
X0328485Y0224643D01*
X0329139Y0226223D01*
X0329139Y0233934D01*
X0328485Y0235514D01*
X0327275Y0236724D01*
X0325695Y0237379D01*
X0323984Y0237379D01*
X0322403Y0236724D01*
X0321194Y0235514D01*
X0320539Y0233934D01*
X0320973Y0234980D02*
X0318921Y0234980D01*
X0318295Y0235979D02*
X0321658Y0235979D01*
X0323015Y0236977D02*
X0317100Y0236977D01*
X0315339Y0236977D02*
X0314339Y0236977D01*
X0314339Y0235979D02*
X0315339Y0235979D01*
X0315339Y0234980D02*
X0314339Y0234980D01*
X0314339Y0233982D02*
X0315339Y0233982D01*
X0315339Y0232983D02*
X0314339Y0232983D01*
X0314339Y0231985D02*
X0315339Y0231985D01*
X0319339Y0228989D02*
X0320539Y0228989D01*
X0320539Y0227991D02*
X0319339Y0227991D01*
X0319339Y0226992D02*
X0320539Y0226992D01*
X0320634Y0225994D02*
X0319218Y0225994D01*
X0318828Y0224995D02*
X0320699Y0224995D01*
X0320634Y0223997D02*
X0318121Y0223997D01*
X0320646Y0221001D02*
X0195804Y0221001D01*
X0195804Y0220003D02*
X0320646Y0220003D01*
X0320646Y0219004D02*
X0195804Y0219004D01*
X0195804Y0218006D02*
X0320646Y0218006D01*
X0320646Y0217007D02*
X0196801Y0217007D01*
X0197799Y0216009D02*
X0236163Y0216009D01*
X0234397Y0215010D02*
X0198798Y0215010D01*
X0199796Y0214012D02*
X0233398Y0214012D01*
X0232400Y0213013D02*
X0200795Y0213013D01*
X0201793Y0212015D02*
X0231401Y0212015D01*
X0230402Y0211016D02*
X0202792Y0211016D01*
X0203790Y0210017D02*
X0229404Y0210017D01*
X0228405Y0209019D02*
X0204789Y0209019D01*
X0205787Y0208020D02*
X0227407Y0208020D01*
X0226408Y0207022D02*
X0216531Y0207022D01*
X0216664Y0206023D02*
X0225410Y0206023D01*
X0224411Y0205025D02*
X0216664Y0205025D01*
X0216664Y0204026D02*
X0223413Y0204026D01*
X0222414Y0203028D02*
X0216664Y0203028D01*
X0216664Y0202029D02*
X0221416Y0202029D01*
X0220417Y0201031D02*
X0200966Y0201031D01*
X0199967Y0202029D02*
X0205020Y0202029D01*
X0203709Y0203028D02*
X0198969Y0203028D01*
X0197970Y0204026D02*
X0202710Y0204026D01*
X0201712Y0205025D02*
X0184685Y0205025D01*
X0185684Y0206023D02*
X0200713Y0206023D01*
X0199715Y0207022D02*
X0186186Y0207022D01*
X0186186Y0208020D02*
X0198716Y0208020D01*
X0197718Y0209019D02*
X0186186Y0209019D01*
X0186186Y0210017D02*
X0196719Y0210017D01*
X0195721Y0211016D02*
X0185259Y0211016D01*
X0184260Y0212015D02*
X0194722Y0212015D01*
X0193724Y0213013D02*
X0153944Y0213013D01*
X0152946Y0214012D02*
X0192725Y0214012D01*
X0191727Y0215010D02*
X0151947Y0215010D01*
X0150949Y0216009D02*
X0190995Y0216009D01*
X0190804Y0217007D02*
X0149950Y0217007D01*
X0148952Y0218006D02*
X0190804Y0218006D01*
X0190804Y0219004D02*
X0147953Y0219004D01*
X0146955Y0220003D02*
X0190804Y0220003D01*
X0190804Y0221001D02*
X0145956Y0221001D01*
X0145804Y0222000D02*
X0190804Y0222000D01*
X0190804Y0222998D02*
X0145804Y0222998D01*
X0147202Y0223997D02*
X0149248Y0223997D01*
X0149153Y0224091D02*
X0149915Y0223330D01*
X0156535Y0223330D01*
X0157297Y0224091D01*
X0157297Y0230712D01*
X0156535Y0231473D01*
X0149915Y0231473D01*
X0149153Y0230712D01*
X0149153Y0224091D01*
X0149153Y0224995D02*
X0147297Y0224995D01*
X0147297Y0225994D02*
X0149153Y0225994D01*
X0149153Y0226992D02*
X0147297Y0226992D01*
X0147297Y0227991D02*
X0149153Y0227991D01*
X0149153Y0228989D02*
X0147297Y0228989D01*
X0147297Y0229988D02*
X0149153Y0229988D01*
X0149428Y0230986D02*
X0147022Y0230986D01*
X0147187Y0233982D02*
X0149263Y0233982D01*
X0149153Y0234980D02*
X0147297Y0234980D01*
X0147297Y0235979D02*
X0149153Y0235979D01*
X0149153Y0236977D02*
X0147297Y0236977D01*
X0147297Y0237976D02*
X0149153Y0237976D01*
X0149153Y0238974D02*
X0147297Y0238974D01*
X0147297Y0239973D02*
X0149153Y0239973D01*
X0149413Y0240971D02*
X0147037Y0240971D01*
X0157037Y0240971D02*
X0159413Y0240971D01*
X0159153Y0239973D02*
X0157297Y0239973D01*
X0157297Y0238974D02*
X0159153Y0238974D01*
X0159153Y0237976D02*
X0157297Y0237976D01*
X0157297Y0236977D02*
X0159153Y0236977D01*
X0159153Y0235979D02*
X0157297Y0235979D01*
X0157297Y0234980D02*
X0159153Y0234980D01*
X0159263Y0233982D02*
X0157187Y0233982D01*
X0157022Y0230986D02*
X0159428Y0230986D01*
X0159153Y0230712D02*
X0159153Y0224091D01*
X0159915Y0223330D01*
X0166535Y0223330D01*
X0167297Y0224091D01*
X0167297Y0230712D01*
X0166535Y0231473D01*
X0159915Y0231473D01*
X0159153Y0230712D01*
X0159153Y0229988D02*
X0157297Y0229988D01*
X0157297Y0228989D02*
X0159153Y0228989D01*
X0159153Y0227991D02*
X0157297Y0227991D01*
X0157297Y0226992D02*
X0159153Y0226992D01*
X0159153Y0225994D02*
X0157297Y0225994D01*
X0157297Y0224995D02*
X0159153Y0224995D01*
X0159248Y0223997D02*
X0157202Y0223997D01*
X0167202Y0223997D02*
X0169248Y0223997D01*
X0169153Y0224091D02*
X0169915Y0223330D01*
X0176535Y0223330D01*
X0177297Y0224091D01*
X0177297Y0230712D01*
X0176535Y0231473D01*
X0169915Y0231473D01*
X0169153Y0230712D01*
X0169153Y0224091D01*
X0169153Y0224995D02*
X0167297Y0224995D01*
X0167297Y0225994D02*
X0169153Y0225994D01*
X0169153Y0226992D02*
X0167297Y0226992D01*
X0167297Y0227991D02*
X0169153Y0227991D01*
X0169153Y0228989D02*
X0167297Y0228989D01*
X0167297Y0229988D02*
X0169153Y0229988D01*
X0169428Y0230986D02*
X0167022Y0230986D01*
X0167187Y0233982D02*
X0169263Y0233982D01*
X0169153Y0234980D02*
X0167297Y0234980D01*
X0167297Y0235979D02*
X0169153Y0235979D01*
X0169153Y0236977D02*
X0167297Y0236977D01*
X0167297Y0237976D02*
X0169153Y0237976D01*
X0169153Y0238974D02*
X0167297Y0238974D01*
X0167297Y0239973D02*
X0169153Y0239973D01*
X0169413Y0240971D02*
X0167037Y0240971D01*
X0177037Y0240971D02*
X0179413Y0240971D01*
X0179153Y0239973D02*
X0177297Y0239973D01*
X0177297Y0238974D02*
X0179153Y0238974D01*
X0179153Y0237976D02*
X0177297Y0237976D01*
X0177297Y0236977D02*
X0179153Y0236977D01*
X0179153Y0235979D02*
X0177297Y0235979D01*
X0177297Y0234980D02*
X0179153Y0234980D01*
X0179263Y0233982D02*
X0177187Y0233982D01*
X0177022Y0230986D02*
X0179428Y0230986D01*
X0179153Y0230712D02*
X0179153Y0224091D01*
X0179915Y0223330D01*
X0186535Y0223330D01*
X0187297Y0224091D01*
X0187297Y0230712D01*
X0186535Y0231473D01*
X0179915Y0231473D01*
X0179153Y0230712D01*
X0179153Y0229988D02*
X0177297Y0229988D01*
X0177297Y0228989D02*
X0179153Y0228989D01*
X0179153Y0227991D02*
X0177297Y0227991D01*
X0177297Y0226992D02*
X0179153Y0226992D01*
X0179153Y0225994D02*
X0177297Y0225994D01*
X0177297Y0224995D02*
X0179153Y0224995D01*
X0179248Y0223997D02*
X0177202Y0223997D01*
X0187202Y0223997D02*
X0189248Y0223997D01*
X0189153Y0224995D02*
X0187297Y0224995D01*
X0187297Y0225994D02*
X0189153Y0225994D01*
X0189153Y0226992D02*
X0187297Y0226992D01*
X0187297Y0227991D02*
X0189153Y0227991D01*
X0189153Y0228989D02*
X0187297Y0228989D01*
X0187297Y0229988D02*
X0189153Y0229988D01*
X0189428Y0230986D02*
X0187022Y0230986D01*
X0187187Y0233982D02*
X0189263Y0233982D01*
X0189153Y0234980D02*
X0187297Y0234980D01*
X0187297Y0235979D02*
X0189153Y0235979D01*
X0189153Y0236977D02*
X0187297Y0236977D01*
X0187297Y0237976D02*
X0189153Y0237976D01*
X0189153Y0238974D02*
X0187297Y0238974D01*
X0187297Y0239973D02*
X0189153Y0239973D01*
X0189413Y0240971D02*
X0187037Y0240971D01*
X0197037Y0240971D02*
X0209413Y0240971D01*
X0209153Y0239973D02*
X0197297Y0239973D01*
X0197297Y0238974D02*
X0209153Y0238974D01*
X0209153Y0237976D02*
X0197297Y0237976D01*
X0197297Y0236977D02*
X0209153Y0236977D01*
X0209153Y0235979D02*
X0197297Y0235979D01*
X0197297Y0234980D02*
X0209153Y0234980D01*
X0209263Y0233982D02*
X0197187Y0233982D01*
X0197022Y0230986D02*
X0209428Y0230986D01*
X0209153Y0230712D02*
X0209153Y0224091D01*
X0209915Y0223330D01*
X0216535Y0223330D01*
X0217297Y0224091D01*
X0217297Y0230712D01*
X0216535Y0231473D01*
X0209915Y0231473D01*
X0209153Y0230712D01*
X0209153Y0229988D02*
X0197297Y0229988D01*
X0197297Y0228989D02*
X0209153Y0228989D01*
X0209153Y0227991D02*
X0197297Y0227991D01*
X0197297Y0226992D02*
X0209153Y0226992D01*
X0209153Y0225994D02*
X0197297Y0225994D01*
X0197297Y0224995D02*
X0209153Y0224995D01*
X0209248Y0223997D02*
X0197202Y0223997D01*
X0206786Y0207022D02*
X0210234Y0207022D01*
X0201964Y0200032D02*
X0219419Y0200032D01*
X0218420Y0199034D02*
X0202963Y0199034D01*
X0206227Y0198035D02*
X0217422Y0198035D01*
X0216423Y0197037D02*
X0206427Y0197037D01*
X0206427Y0196038D02*
X0215425Y0196038D01*
X0214426Y0195040D02*
X0206427Y0195040D01*
X0206427Y0194041D02*
X0213428Y0194041D01*
X0212429Y0193043D02*
X0206427Y0193043D01*
X0199865Y0193043D02*
X0155973Y0193043D01*
X0155549Y0193467D02*
X0157834Y0191182D01*
X0157834Y0187952D01*
X0155549Y0185667D01*
X0152318Y0185667D01*
X0150034Y0187952D01*
X0150034Y0191182D01*
X0152318Y0193467D01*
X0155549Y0193467D01*
X0156972Y0192044D02*
X0184156Y0192044D01*
X0182873Y0191046D02*
X0157834Y0191046D01*
X0157834Y0190047D02*
X0181875Y0190047D01*
X0180876Y0189049D02*
X0157834Y0189049D01*
X0157834Y0188050D02*
X0179878Y0188050D01*
X0178879Y0187052D02*
X0156934Y0187052D01*
X0155935Y0186053D02*
X0177881Y0186053D01*
X0176882Y0185055D02*
X0141079Y0185055D01*
X0141079Y0185182D02*
X0140699Y0186101D01*
X0139996Y0186804D01*
X0135568Y0191232D01*
X0135568Y0202364D01*
X0137368Y0204164D01*
X0137368Y0207726D01*
X0134849Y0210245D01*
X0131286Y0210245D01*
X0128768Y0207726D01*
X0128768Y0204164D01*
X0130568Y0202364D01*
X0130568Y0189700D01*
X0130948Y0188781D01*
X0136079Y0183649D01*
X0136079Y0168398D01*
X0133616Y0165934D01*
X0132480Y0167071D01*
X0130899Y0167725D01*
X0123189Y0167725D01*
X0121608Y0167071D01*
X0120399Y0165861D01*
X0119744Y0164281D01*
X0119744Y0162570D01*
X0120399Y0160989D01*
X0121608Y0159780D01*
X0123189Y0159125D01*
X0130899Y0159125D01*
X0132480Y0159780D01*
X0133625Y0160925D01*
X0135140Y0160925D01*
X0136059Y0161306D01*
X0136762Y0162009D01*
X0139996Y0165243D01*
X0140699Y0165946D01*
X0141079Y0166865D01*
X0141079Y0185182D01*
X0140719Y0186053D02*
X0151932Y0186053D01*
X0150933Y0187052D02*
X0139748Y0187052D01*
X0138750Y0188050D02*
X0150034Y0188050D01*
X0150034Y0189049D02*
X0137751Y0189049D01*
X0136753Y0190047D02*
X0150034Y0190047D01*
X0150034Y0191046D02*
X0135754Y0191046D01*
X0135568Y0192044D02*
X0150896Y0192044D01*
X0151894Y0193043D02*
X0135568Y0193043D01*
X0135568Y0194041D02*
X0199865Y0194041D01*
X0199865Y0195040D02*
X0135568Y0195040D01*
X0135568Y0196038D02*
X0198887Y0196038D01*
X0197889Y0197037D02*
X0135568Y0197037D01*
X0135568Y0198035D02*
X0196890Y0198035D01*
X0195892Y0199034D02*
X0135568Y0199034D01*
X0135568Y0200032D02*
X0159854Y0200032D01*
X0158855Y0201031D02*
X0135568Y0201031D01*
X0135568Y0202029D02*
X0157857Y0202029D01*
X0156858Y0203028D02*
X0136232Y0203028D01*
X0137230Y0204026D02*
X0155860Y0204026D01*
X0154861Y0205025D02*
X0137368Y0205025D01*
X0137368Y0206023D02*
X0153863Y0206023D01*
X0152864Y0207022D02*
X0137368Y0207022D01*
X0137073Y0208020D02*
X0151866Y0208020D01*
X0150867Y0209019D02*
X0136075Y0209019D01*
X0135076Y0210017D02*
X0149869Y0210017D01*
X0148870Y0211016D02*
X0116020Y0211016D01*
X0116020Y0210017D02*
X0131059Y0210017D01*
X0130061Y0209019D02*
X0116020Y0209019D01*
X0116020Y0208020D02*
X0129062Y0208020D01*
X0128768Y0207022D02*
X0116020Y0207022D01*
X0116020Y0206023D02*
X0128768Y0206023D01*
X0128768Y0205025D02*
X0116020Y0205025D01*
X0116020Y0204026D02*
X0128905Y0204026D01*
X0129903Y0203028D02*
X0116020Y0203028D01*
X0116020Y0202029D02*
X0130568Y0202029D01*
X0130568Y0201031D02*
X0116020Y0201031D01*
X0116020Y0200032D02*
X0130568Y0200032D01*
X0130568Y0199034D02*
X0116020Y0199034D01*
X0116020Y0198035D02*
X0130568Y0198035D01*
X0130568Y0197037D02*
X0116020Y0197037D01*
X0116020Y0196038D02*
X0130568Y0196038D01*
X0130568Y0195040D02*
X0116020Y0195040D01*
X0116020Y0194041D02*
X0130568Y0194041D01*
X0130568Y0193043D02*
X0116020Y0193043D01*
X0116020Y0192044D02*
X0130568Y0192044D01*
X0130568Y0191046D02*
X0116020Y0191046D01*
X0116020Y0190047D02*
X0130568Y0190047D01*
X0130837Y0189049D02*
X0116020Y0189049D01*
X0116020Y0188050D02*
X0131679Y0188050D01*
X0132677Y0187052D02*
X0116020Y0187052D01*
X0116020Y0186053D02*
X0133676Y0186053D01*
X0134674Y0185055D02*
X0116020Y0185055D01*
X0116020Y0184056D02*
X0135673Y0184056D01*
X0136079Y0183058D02*
X0116020Y0183058D01*
X0116020Y0182059D02*
X0136079Y0182059D01*
X0136079Y0181061D02*
X0116020Y0181061D01*
X0116020Y0180062D02*
X0136079Y0180062D01*
X0136079Y0179064D02*
X0116020Y0179064D01*
X0116020Y0178065D02*
X0136079Y0178065D01*
X0136079Y0177067D02*
X0132484Y0177067D01*
X0132480Y0177071D02*
X0130899Y0177725D01*
X0123189Y0177725D01*
X0121608Y0177071D01*
X0120399Y0175861D01*
X0119744Y0174281D01*
X0119744Y0172570D01*
X0120399Y0170989D01*
X0121608Y0169780D01*
X0123189Y0169125D01*
X0130899Y0169125D01*
X0132480Y0169780D01*
X0133689Y0170989D01*
X0134344Y0172570D01*
X0134344Y0174281D01*
X0133689Y0175861D01*
X0132480Y0177071D01*
X0133482Y0176068D02*
X0136079Y0176068D01*
X0136079Y0175070D02*
X0134017Y0175070D01*
X0134344Y0174071D02*
X0136079Y0174071D01*
X0136079Y0173073D02*
X0134344Y0173073D01*
X0134139Y0172074D02*
X0136079Y0172074D01*
X0136079Y0171076D02*
X0133725Y0171076D01*
X0132777Y0170077D02*
X0136079Y0170077D01*
X0136079Y0169079D02*
X0116020Y0169079D01*
X0116020Y0170077D02*
X0121311Y0170077D01*
X0120363Y0171076D02*
X0116020Y0171076D01*
X0116020Y0172074D02*
X0119949Y0172074D01*
X0119744Y0173073D02*
X0116020Y0173073D01*
X0116020Y0174071D02*
X0119744Y0174071D01*
X0120071Y0175070D02*
X0116020Y0175070D01*
X0116020Y0176068D02*
X0120606Y0176068D01*
X0121604Y0177067D02*
X0116020Y0177067D01*
X0116020Y0168080D02*
X0135762Y0168080D01*
X0134763Y0167082D02*
X0132453Y0167082D01*
X0133467Y0166083D02*
X0133765Y0166083D01*
X0136842Y0162089D02*
X0174149Y0162089D01*
X0174149Y0163087D02*
X0137840Y0163087D01*
X0138839Y0164086D02*
X0174149Y0164086D01*
X0174149Y0165084D02*
X0139837Y0165084D01*
X0139996Y0165243D02*
X0139996Y0165243D01*
X0140755Y0166083D02*
X0151619Y0166083D01*
X0152235Y0165467D02*
X0149834Y0167869D01*
X0149834Y0169267D01*
X0153634Y0169267D01*
X0154234Y0169267D01*
X0154234Y0169867D01*
X0158034Y0169867D01*
X0158034Y0171265D01*
X0155632Y0173667D01*
X0154234Y0173667D01*
X0154234Y0169867D01*
X0153634Y0169867D01*
X0153634Y0173667D01*
X0152235Y0173667D01*
X0149834Y0171265D01*
X0149834Y0169867D01*
X0153634Y0169867D01*
X0153634Y0169267D01*
X0153634Y0165467D01*
X0152235Y0165467D01*
X0153634Y0166083D02*
X0154234Y0166083D01*
X0154234Y0165467D02*
X0155632Y0165467D01*
X0158034Y0167869D01*
X0158034Y0169267D01*
X0154234Y0169267D01*
X0154234Y0165467D01*
X0154234Y0167082D02*
X0153634Y0167082D01*
X0153634Y0168080D02*
X0154234Y0168080D01*
X0154234Y0169079D02*
X0153634Y0169079D01*
X0153634Y0170077D02*
X0154234Y0170077D01*
X0154234Y0171076D02*
X0153634Y0171076D01*
X0153634Y0172074D02*
X0154234Y0172074D01*
X0154234Y0173073D02*
X0153634Y0173073D01*
X0151641Y0173073D02*
X0141079Y0173073D01*
X0141079Y0174071D02*
X0174149Y0174071D01*
X0174149Y0173073D02*
X0156226Y0173073D01*
X0157225Y0172074D02*
X0174149Y0172074D01*
X0174149Y0171076D02*
X0158034Y0171076D01*
X0158034Y0170077D02*
X0174149Y0170077D01*
X0174149Y0169079D02*
X0158034Y0169079D01*
X0158034Y0168080D02*
X0174149Y0168080D01*
X0174149Y0167082D02*
X0157247Y0167082D01*
X0156248Y0166083D02*
X0174149Y0166083D01*
X0174149Y0161090D02*
X0149545Y0161090D01*
X0150543Y0160092D02*
X0174149Y0160092D01*
X0174149Y0159093D02*
X0151542Y0159093D01*
X0151974Y0158095D02*
X0174149Y0158095D01*
X0173333Y0157096D02*
X0151974Y0157096D01*
X0151974Y0156098D02*
X0172335Y0156098D01*
X0171336Y0155099D02*
X0151974Y0155099D01*
X0151182Y0154101D02*
X0170338Y0154101D01*
X0169339Y0153102D02*
X0150183Y0153102D01*
X0144669Y0153102D02*
X0134344Y0153102D01*
X0134344Y0154101D02*
X0143671Y0154101D01*
X0142878Y0155099D02*
X0134005Y0155099D01*
X0133452Y0156098D02*
X0142878Y0156098D01*
X0142878Y0157096D02*
X0132417Y0157096D01*
X0132792Y0160092D02*
X0144309Y0160092D01*
X0143311Y0159093D02*
X0116020Y0159093D01*
X0116020Y0158095D02*
X0142878Y0158095D01*
X0145308Y0161090D02*
X0135539Y0161090D01*
X0136762Y0162009D02*
X0136762Y0162009D01*
X0141079Y0167082D02*
X0150621Y0167082D01*
X0149834Y0168080D02*
X0141079Y0168080D01*
X0141079Y0169079D02*
X0149834Y0169079D01*
X0149834Y0170077D02*
X0141079Y0170077D01*
X0141079Y0171076D02*
X0149834Y0171076D01*
X0150643Y0172074D02*
X0141079Y0172074D01*
X0141079Y0175070D02*
X0174149Y0175070D01*
X0174149Y0176068D02*
X0141079Y0176068D01*
X0141079Y0177067D02*
X0174149Y0177067D01*
X0174149Y0178065D02*
X0141079Y0178065D01*
X0141079Y0179064D02*
X0174149Y0179064D01*
X0174149Y0180062D02*
X0141079Y0180062D01*
X0141079Y0181061D02*
X0174149Y0181061D01*
X0174379Y0182059D02*
X0141079Y0182059D01*
X0141079Y0183058D02*
X0174885Y0183058D01*
X0175884Y0184056D02*
X0141079Y0184056D01*
X0121635Y0167082D02*
X0116020Y0167082D01*
X0116020Y0166083D02*
X0120621Y0166083D01*
X0120077Y0165084D02*
X0116020Y0165084D01*
X0116020Y0164086D02*
X0119744Y0164086D01*
X0119744Y0163087D02*
X0116020Y0163087D01*
X0116020Y0162089D02*
X0119943Y0162089D01*
X0120357Y0161090D02*
X0116020Y0161090D01*
X0116020Y0160092D02*
X0121296Y0160092D01*
X0121671Y0157096D02*
X0116020Y0157096D01*
X0116020Y0156098D02*
X0120636Y0156098D01*
X0120083Y0155099D02*
X0116020Y0155099D01*
X0116020Y0154101D02*
X0119744Y0154101D01*
X0119744Y0153102D02*
X0116020Y0153102D01*
X0116020Y0152104D02*
X0119937Y0152104D01*
X0120351Y0151105D02*
X0116020Y0151105D01*
X0116020Y0150107D02*
X0121281Y0150107D01*
X0125987Y0149108D02*
X0116020Y0149108D01*
X0116020Y0148110D02*
X0126985Y0148110D01*
X0127984Y0147111D02*
X0116020Y0147111D01*
X0116020Y0146113D02*
X0128982Y0146113D01*
X0135179Y0140122D02*
X0116020Y0140122D01*
X0116020Y0141120D02*
X0136178Y0141120D01*
X0136798Y0141741D02*
X0134279Y0139222D01*
X0134279Y0135660D01*
X0136798Y0133141D01*
X0140360Y0133141D01*
X0142879Y0135660D01*
X0142879Y0139222D01*
X0140360Y0141741D01*
X0136798Y0141741D01*
X0134279Y0139123D02*
X0116020Y0139123D01*
X0116020Y0138125D02*
X0134279Y0138125D01*
X0134279Y0137126D02*
X0116020Y0137126D01*
X0116020Y0136128D02*
X0134279Y0136128D01*
X0134810Y0135129D02*
X0116020Y0135129D01*
X0116020Y0134131D02*
X0135809Y0134131D01*
X0141350Y0134131D02*
X0261078Y0134131D01*
X0262076Y0135129D02*
X0142349Y0135129D01*
X0142879Y0136128D02*
X0305868Y0136128D01*
X0305863Y0137126D02*
X0142879Y0137126D01*
X0142879Y0138125D02*
X0305857Y0138125D01*
X0305852Y0139123D02*
X0142879Y0139123D01*
X0141980Y0140122D02*
X0174635Y0140122D01*
X0173637Y0141120D02*
X0140981Y0141120D01*
X0116020Y0142119D02*
X0173262Y0142119D01*
X0173262Y0143117D02*
X0116020Y0143117D01*
X0116020Y0144116D02*
X0173262Y0144116D01*
X0173651Y0145114D02*
X0116020Y0145114D01*
X0116020Y0133132D02*
X0260079Y0133132D01*
X0259870Y0132923D02*
X0259870Y0129361D01*
X0262389Y0126842D01*
X0265951Y0126842D01*
X0268470Y0129361D01*
X0268470Y0132923D01*
X0265951Y0135442D01*
X0262389Y0135442D01*
X0259870Y0132923D01*
X0259870Y0132134D02*
X0116020Y0132134D01*
X0116020Y0131135D02*
X0259870Y0131135D01*
X0259870Y0130137D02*
X0116020Y0130137D01*
X0116020Y0129138D02*
X0260092Y0129138D01*
X0261091Y0128140D02*
X0116020Y0128140D01*
X0116020Y0127141D02*
X0175395Y0127141D01*
X0175464Y0127210D02*
X0173062Y0124809D01*
X0173062Y0123410D01*
X0176862Y0123410D01*
X0176862Y0122810D01*
X0177462Y0122810D01*
X0177462Y0119010D01*
X0178860Y0119010D01*
X0181262Y0121412D01*
X0181262Y0122810D01*
X0177462Y0122810D01*
X0177462Y0123410D01*
X0181262Y0123410D01*
X0181262Y0124809D01*
X0178860Y0127210D01*
X0177462Y0127210D01*
X0177462Y0123410D01*
X0176862Y0123410D01*
X0176862Y0127210D01*
X0175464Y0127210D01*
X0176862Y0127141D02*
X0177462Y0127141D01*
X0177462Y0126143D02*
X0176862Y0126143D01*
X0176862Y0125144D02*
X0177462Y0125144D01*
X0177462Y0124146D02*
X0176862Y0124146D01*
X0176862Y0123147D02*
X0116020Y0123147D01*
X0116020Y0122148D02*
X0173062Y0122148D01*
X0173062Y0122810D02*
X0173062Y0121412D01*
X0175464Y0119010D01*
X0176862Y0119010D01*
X0176862Y0122810D01*
X0173062Y0122810D01*
X0173062Y0124146D02*
X0116020Y0124146D01*
X0116020Y0125144D02*
X0173398Y0125144D01*
X0174396Y0126143D02*
X0116020Y0126143D01*
X0116020Y0121150D02*
X0173324Y0121150D01*
X0174323Y0120151D02*
X0116020Y0120151D01*
X0116020Y0119153D02*
X0175321Y0119153D01*
X0176862Y0119153D02*
X0177462Y0119153D01*
X0177462Y0120151D02*
X0176862Y0120151D01*
X0176862Y0121150D02*
X0177462Y0121150D01*
X0177462Y0122148D02*
X0176862Y0122148D01*
X0177462Y0123147D02*
X0288593Y0123147D01*
X0288358Y0122912D02*
X0287703Y0121331D01*
X0287703Y0119621D01*
X0288358Y0118040D01*
X0289568Y0116831D01*
X0291148Y0116176D01*
X0298859Y0116176D01*
X0300439Y0116831D01*
X0301649Y0118040D01*
X0302303Y0119621D01*
X0302303Y0121331D01*
X0301649Y0122912D01*
X0300439Y0124121D01*
X0298859Y0124776D01*
X0291148Y0124776D01*
X0289568Y0124121D01*
X0288358Y0122912D01*
X0288042Y0122148D02*
X0181262Y0122148D01*
X0181000Y0121150D02*
X0287703Y0121150D01*
X0287703Y0120151D02*
X0180002Y0120151D01*
X0179003Y0119153D02*
X0287897Y0119153D01*
X0288311Y0118154D02*
X0116020Y0118154D01*
X0116020Y0117156D02*
X0154733Y0117156D01*
X0155696Y0118119D02*
X0153177Y0115600D01*
X0153177Y0112038D01*
X0155696Y0109519D01*
X0159258Y0109519D01*
X0159533Y0109794D01*
X0167575Y0105270D01*
X0167575Y0103320D01*
X0167556Y0103320D01*
X0166794Y0102559D01*
X0166794Y0097520D01*
X0167556Y0096758D01*
X0172595Y0096758D01*
X0173357Y0097520D01*
X0173357Y0102559D01*
X0172595Y0103320D01*
X0172575Y0103320D01*
X0172575Y0106583D01*
X0172617Y0106927D01*
X0172575Y0107076D01*
X0172575Y0107230D01*
X0172442Y0107551D01*
X0172349Y0107885D01*
X0172254Y0108006D01*
X0172195Y0108148D01*
X0171949Y0108394D01*
X0171735Y0108667D01*
X0171600Y0108743D01*
X0171492Y0108852D01*
X0171171Y0108985D01*
X0161777Y0114269D01*
X0161777Y0115600D01*
X0159258Y0118119D01*
X0155696Y0118119D01*
X0153734Y0116157D02*
X0116020Y0116157D01*
X0116020Y0115159D02*
X0153177Y0115159D01*
X0153177Y0114160D02*
X0116020Y0114160D01*
X0116020Y0113162D02*
X0153177Y0113162D01*
X0153177Y0112163D02*
X0116020Y0112163D01*
X0116020Y0111165D02*
X0154050Y0111165D01*
X0155048Y0110166D02*
X0116020Y0110166D01*
X0116020Y0109168D02*
X0160646Y0109168D01*
X0162421Y0108169D02*
X0132483Y0108169D01*
X0132480Y0108173D02*
X0130899Y0108828D01*
X0123189Y0108828D01*
X0121608Y0108173D01*
X0120399Y0106963D01*
X0119744Y0105383D01*
X0119744Y0103672D01*
X0120399Y0102092D01*
X0121608Y0100882D01*
X0123189Y0100228D01*
X0130899Y0100228D01*
X0132480Y0100882D01*
X0133689Y0102092D01*
X0134344Y0103672D01*
X0134344Y0105383D01*
X0133689Y0106963D01*
X0132480Y0108173D01*
X0133482Y0107171D02*
X0164196Y0107171D01*
X0165972Y0106172D02*
X0134017Y0106172D01*
X0134344Y0105174D02*
X0167575Y0105174D01*
X0167575Y0104175D02*
X0134344Y0104175D01*
X0134139Y0103177D02*
X0167412Y0103177D01*
X0166794Y0102178D02*
X0133725Y0102178D01*
X0132777Y0101180D02*
X0166794Y0101180D01*
X0166794Y0100181D02*
X0116020Y0100181D01*
X0116020Y0099183D02*
X0166794Y0099183D01*
X0166794Y0098184D02*
X0132452Y0098184D01*
X0132480Y0098173D02*
X0130899Y0098828D01*
X0123189Y0098828D01*
X0121608Y0098173D01*
X0120399Y0096963D01*
X0119744Y0095383D01*
X0119744Y0093672D01*
X0120399Y0092092D01*
X0121608Y0090882D01*
X0123189Y0090228D01*
X0130899Y0090228D01*
X0132480Y0090882D01*
X0133689Y0092092D01*
X0134344Y0093672D01*
X0134344Y0095383D01*
X0133689Y0096963D01*
X0132480Y0098173D01*
X0133467Y0097186D02*
X0167128Y0097186D01*
X0173022Y0097186D02*
X0229786Y0097186D01*
X0229786Y0098184D02*
X0173357Y0098184D01*
X0173357Y0099183D02*
X0229786Y0099183D01*
X0229786Y0100181D02*
X0173357Y0100181D01*
X0173357Y0101180D02*
X0230376Y0101180D01*
X0230548Y0101352D02*
X0229786Y0100590D01*
X0229786Y0095551D01*
X0230548Y0094790D01*
X0235587Y0094790D01*
X0236349Y0095551D01*
X0236349Y0095571D01*
X0261124Y0095571D01*
X0262043Y0095951D01*
X0262746Y0096655D01*
X0268755Y0102664D01*
X0271020Y0102664D01*
X0271782Y0103425D01*
X0271782Y0108464D01*
X0271020Y0109226D01*
X0265981Y0109226D01*
X0265220Y0108464D01*
X0265220Y0106199D01*
X0259591Y0100571D01*
X0236349Y0100571D01*
X0236349Y0100590D01*
X0235587Y0101352D01*
X0230548Y0101352D01*
X0235759Y0101180D02*
X0260200Y0101180D01*
X0261199Y0102178D02*
X0173357Y0102178D01*
X0172739Y0103177D02*
X0262197Y0103177D01*
X0263196Y0104175D02*
X0172575Y0104175D01*
X0172575Y0105174D02*
X0264194Y0105174D01*
X0265193Y0106172D02*
X0172575Y0106172D01*
X0172575Y0107171D02*
X0265220Y0107171D01*
X0265220Y0108169D02*
X0172174Y0108169D01*
X0170845Y0109168D02*
X0197386Y0109168D01*
X0197822Y0108731D02*
X0201384Y0108731D01*
X0203903Y0111250D01*
X0203903Y0114813D01*
X0201384Y0117331D01*
X0197822Y0117331D01*
X0195303Y0114813D01*
X0195303Y0111250D01*
X0197822Y0108731D01*
X0196387Y0110166D02*
X0169070Y0110166D01*
X0167295Y0111165D02*
X0195389Y0111165D01*
X0195303Y0112163D02*
X0165519Y0112163D01*
X0163744Y0113162D02*
X0195303Y0113162D01*
X0195303Y0114160D02*
X0161969Y0114160D01*
X0161777Y0115159D02*
X0195649Y0115159D01*
X0196648Y0116157D02*
X0161220Y0116157D01*
X0160221Y0117156D02*
X0197646Y0117156D01*
X0201560Y0117156D02*
X0289242Y0117156D01*
X0289662Y0114160D02*
X0203903Y0114160D01*
X0203903Y0113162D02*
X0288608Y0113162D01*
X0288358Y0112912D02*
X0287703Y0111331D01*
X0287703Y0109621D01*
X0288358Y0108040D01*
X0289568Y0106831D01*
X0291148Y0106176D01*
X0298859Y0106176D01*
X0300439Y0106831D01*
X0301649Y0108040D01*
X0302303Y0109621D01*
X0302303Y0111331D01*
X0301649Y0112912D01*
X0300439Y0114121D01*
X0298859Y0114776D01*
X0291148Y0114776D01*
X0289568Y0114121D01*
X0288358Y0112912D01*
X0288048Y0112163D02*
X0203903Y0112163D01*
X0203817Y0111165D02*
X0287703Y0111165D01*
X0287703Y0110166D02*
X0202819Y0110166D01*
X0201820Y0109168D02*
X0265923Y0109168D01*
X0271078Y0109168D02*
X0287891Y0109168D01*
X0288305Y0108169D02*
X0271782Y0108169D01*
X0271782Y0107171D02*
X0289227Y0107171D01*
X0289698Y0104175D02*
X0271782Y0104175D01*
X0271782Y0105174D02*
X0304088Y0105174D01*
X0305086Y0106172D02*
X0271782Y0106172D01*
X0271533Y0103177D02*
X0288623Y0103177D01*
X0288054Y0102178D02*
X0268270Y0102178D01*
X0267271Y0101180D02*
X0287703Y0101180D01*
X0287703Y0100181D02*
X0266273Y0100181D01*
X0265274Y0099183D02*
X0287885Y0099183D01*
X0288298Y0098184D02*
X0264276Y0098184D01*
X0263277Y0097186D02*
X0289213Y0097186D01*
X0291121Y0096187D02*
X0262279Y0096187D01*
X0262746Y0096655D02*
X0262746Y0096655D01*
X0267321Y0084025D02*
X0264919Y0081623D01*
X0264919Y0080225D01*
X0268719Y0080225D01*
X0268719Y0084025D01*
X0267321Y0084025D01*
X0266503Y0083207D02*
X0134151Y0083207D01*
X0134344Y0083672D02*
X0134344Y0085383D01*
X0133689Y0086963D01*
X0132480Y0088173D01*
X0130899Y0088828D01*
X0123189Y0088828D01*
X0121608Y0088173D01*
X0120399Y0086963D01*
X0119744Y0085383D01*
X0119744Y0083672D01*
X0120399Y0082092D01*
X0121608Y0080882D01*
X0123189Y0080228D01*
X0130899Y0080228D01*
X0132480Y0080882D01*
X0133689Y0082092D01*
X0134344Y0083672D01*
X0134344Y0084205D02*
X0329223Y0084205D01*
X0328537Y0083921D02*
X0330118Y0084576D01*
X0337828Y0084576D01*
X0339409Y0083921D01*
X0340618Y0082711D01*
X0341273Y0081131D01*
X0341273Y0079420D01*
X0340618Y0077840D01*
X0339409Y0076630D01*
X0337828Y0075976D01*
X0330118Y0075976D01*
X0328537Y0076630D01*
X0327328Y0077840D01*
X0326673Y0079420D01*
X0326673Y0081131D01*
X0327328Y0082711D01*
X0328537Y0083921D01*
X0327823Y0083207D02*
X0291253Y0083207D01*
X0290635Y0083825D02*
X0287404Y0083825D01*
X0285119Y0081540D01*
X0285119Y0078309D01*
X0287404Y0076025D01*
X0290635Y0076025D01*
X0292919Y0078309D01*
X0292919Y0081540D01*
X0290635Y0083825D01*
X0292251Y0082208D02*
X0327119Y0082208D01*
X0326706Y0081210D02*
X0292919Y0081210D01*
X0292919Y0080211D02*
X0326673Y0080211D01*
X0326759Y0079213D02*
X0292919Y0079213D01*
X0292824Y0078214D02*
X0327173Y0078214D01*
X0327952Y0077215D02*
X0291825Y0077215D01*
X0290827Y0076217D02*
X0329535Y0076217D01*
X0338411Y0076217D02*
X0344209Y0076217D01*
X0344209Y0077215D02*
X0339994Y0077215D01*
X0340773Y0078214D02*
X0344209Y0078214D01*
X0344209Y0079213D02*
X0341187Y0079213D01*
X0341273Y0080211D02*
X0344209Y0080211D01*
X0344209Y0081210D02*
X0341241Y0081210D01*
X0340827Y0082208D02*
X0344209Y0082208D01*
X0344209Y0083207D02*
X0340123Y0083207D01*
X0338723Y0084205D02*
X0344209Y0084205D01*
X0344209Y0085204D02*
X0134344Y0085204D01*
X0134005Y0086202D02*
X0329056Y0086202D01*
X0329246Y0086105D02*
X0329919Y0085886D01*
X0330619Y0085776D01*
X0333473Y0085776D01*
X0333473Y0089776D01*
X0326496Y0089776D01*
X0326584Y0089222D01*
X0326803Y0088548D01*
X0327124Y0087917D01*
X0327541Y0087344D01*
X0328042Y0086843D01*
X0328615Y0086427D01*
X0329246Y0086105D01*
X0327684Y0087201D02*
X0133452Y0087201D01*
X0132416Y0088199D02*
X0326981Y0088199D01*
X0326592Y0089198D02*
X0116020Y0089198D01*
X0116020Y0090196D02*
X0333473Y0090196D01*
X0333473Y0089776D02*
X0333473Y0090776D01*
X0333473Y0094776D01*
X0330619Y0094776D01*
X0329919Y0094665D01*
X0329246Y0094446D01*
X0328615Y0094124D01*
X0328042Y0093708D01*
X0327541Y0093207D01*
X0327124Y0092634D01*
X0326803Y0092003D01*
X0326584Y0091329D01*
X0326496Y0090776D01*
X0333473Y0090776D01*
X0334473Y0090776D01*
X0334473Y0094776D01*
X0337327Y0094776D01*
X0338027Y0094665D01*
X0338700Y0094446D01*
X0339332Y0094124D01*
X0339905Y0093708D01*
X0340405Y0093207D01*
X0340822Y0092634D01*
X0341143Y0092003D01*
X0341362Y0091329D01*
X0341450Y0090776D01*
X0334473Y0090776D01*
X0334473Y0089776D01*
X0341450Y0089776D01*
X0341362Y0089222D01*
X0341143Y0088548D01*
X0340822Y0087917D01*
X0340405Y0087344D01*
X0339905Y0086843D01*
X0339332Y0086427D01*
X0338700Y0086105D01*
X0338027Y0085886D01*
X0337327Y0085776D01*
X0334473Y0085776D01*
X0334473Y0089776D01*
X0333473Y0089776D01*
X0333473Y0089198D02*
X0334473Y0089198D01*
X0334473Y0090196D02*
X0344209Y0090196D01*
X0344209Y0089198D02*
X0341354Y0089198D01*
X0340966Y0088199D02*
X0344209Y0088199D01*
X0344209Y0087201D02*
X0340262Y0087201D01*
X0338890Y0086202D02*
X0344209Y0086202D01*
X0344209Y0091195D02*
X0341384Y0091195D01*
X0341047Y0092193D02*
X0344209Y0092193D01*
X0344209Y0093192D02*
X0340417Y0093192D01*
X0339202Y0094190D02*
X0344209Y0094190D01*
X0344209Y0095189D02*
X0235986Y0095189D01*
X0230149Y0095189D02*
X0134344Y0095189D01*
X0134344Y0094190D02*
X0328744Y0094190D01*
X0327529Y0093192D02*
X0134145Y0093192D01*
X0133731Y0092193D02*
X0326900Y0092193D01*
X0326563Y0091195D02*
X0132792Y0091195D01*
X0134011Y0096187D02*
X0229786Y0096187D01*
X0207290Y0074812D02*
X0203727Y0074812D01*
X0201209Y0072293D01*
X0201209Y0068731D01*
X0203727Y0066212D01*
X0207290Y0066212D01*
X0209809Y0068731D01*
X0209809Y0072293D01*
X0207290Y0074812D01*
X0207881Y0074220D02*
X0344209Y0074220D01*
X0344209Y0075218D02*
X0134491Y0075218D01*
X0134521Y0075028D02*
X0134433Y0075581D01*
X0134214Y0076255D01*
X0133893Y0076886D01*
X0133476Y0077459D01*
X0132976Y0077960D01*
X0132402Y0078376D01*
X0131771Y0078698D01*
X0131098Y0078917D01*
X0130398Y0079028D01*
X0127544Y0079028D01*
X0127544Y0075028D01*
X0126544Y0075028D01*
X0126544Y0079028D01*
X0123690Y0079028D01*
X0122990Y0078917D01*
X0122317Y0078698D01*
X0121685Y0078376D01*
X0121112Y0077960D01*
X0120612Y0077459D01*
X0120195Y0076886D01*
X0119874Y0076255D01*
X0119655Y0075581D01*
X0119567Y0075028D01*
X0126544Y0075028D01*
X0126544Y0074028D01*
X0119567Y0074028D01*
X0119655Y0073474D01*
X0119874Y0072800D01*
X0120195Y0072169D01*
X0120612Y0071596D01*
X0121112Y0071095D01*
X0121685Y0070679D01*
X0122317Y0070357D01*
X0122990Y0070138D01*
X0123690Y0070028D01*
X0126544Y0070028D01*
X0126544Y0074027D01*
X0127544Y0074027D01*
X0127544Y0070028D01*
X0130398Y0070028D01*
X0131098Y0070138D01*
X0131771Y0070357D01*
X0132402Y0070679D01*
X0132976Y0071095D01*
X0133476Y0071596D01*
X0133893Y0072169D01*
X0134214Y0072800D01*
X0134433Y0073474D01*
X0134521Y0074028D01*
X0127544Y0074028D01*
X0127544Y0075028D01*
X0134521Y0075028D01*
X0134227Y0076217D02*
X0266929Y0076217D01*
X0267321Y0075825D02*
X0268719Y0075825D01*
X0268719Y0079625D01*
X0264919Y0079625D01*
X0264919Y0078227D01*
X0267321Y0075825D01*
X0268719Y0076217D02*
X0269319Y0076217D01*
X0269319Y0075825D02*
X0270717Y0075825D01*
X0273119Y0078227D01*
X0273119Y0079625D01*
X0269319Y0079625D01*
X0269319Y0080225D01*
X0268719Y0080225D01*
X0268719Y0079625D01*
X0269319Y0079625D01*
X0269319Y0075825D01*
X0269319Y0077215D02*
X0268719Y0077215D01*
X0268719Y0078214D02*
X0269319Y0078214D01*
X0269319Y0079213D02*
X0268719Y0079213D01*
X0268719Y0080211D02*
X0116020Y0080211D01*
X0116020Y0079213D02*
X0264919Y0079213D01*
X0264932Y0078214D02*
X0132626Y0078214D01*
X0133653Y0077215D02*
X0265930Y0077215D01*
X0269319Y0080211D02*
X0285119Y0080211D01*
X0285119Y0079213D02*
X0273119Y0079213D01*
X0273107Y0078214D02*
X0285215Y0078214D01*
X0286213Y0077215D02*
X0272108Y0077215D01*
X0271110Y0076217D02*
X0287212Y0076217D01*
X0285119Y0081210D02*
X0273119Y0081210D01*
X0273119Y0081623D02*
X0270717Y0084025D01*
X0269319Y0084025D01*
X0269319Y0080225D01*
X0273119Y0080225D01*
X0273119Y0081623D01*
X0272534Y0082208D02*
X0285787Y0082208D01*
X0286785Y0083207D02*
X0271536Y0083207D01*
X0269319Y0083207D02*
X0268719Y0083207D01*
X0268719Y0082208D02*
X0269319Y0082208D01*
X0269319Y0081210D02*
X0268719Y0081210D01*
X0265504Y0082208D02*
X0133737Y0082208D01*
X0132807Y0081210D02*
X0264919Y0081210D01*
X0264915Y0061473D02*
X0264153Y0060712D01*
X0264153Y0054091D01*
X0264915Y0053330D01*
X0271535Y0053330D01*
X0272297Y0054091D01*
X0272297Y0060712D01*
X0271535Y0061473D01*
X0264915Y0061473D01*
X0264681Y0061239D02*
X0261769Y0061239D01*
X0261535Y0061473D02*
X0254915Y0061473D01*
X0254153Y0060712D01*
X0254153Y0054091D01*
X0254915Y0053330D01*
X0261535Y0053330D01*
X0262297Y0054091D01*
X0262297Y0060712D01*
X0261535Y0061473D01*
X0262297Y0060241D02*
X0264153Y0060241D01*
X0264153Y0059242D02*
X0262297Y0059242D01*
X0262297Y0058244D02*
X0264153Y0058244D01*
X0264153Y0057245D02*
X0262297Y0057245D01*
X0262297Y0056247D02*
X0264153Y0056247D01*
X0264153Y0055248D02*
X0262297Y0055248D01*
X0262297Y0054250D02*
X0264153Y0054250D01*
X0264696Y0051254D02*
X0261754Y0051254D01*
X0262297Y0050256D02*
X0264153Y0050256D01*
X0264153Y0049257D02*
X0262297Y0049257D01*
X0262297Y0048259D02*
X0264153Y0048259D01*
X0264153Y0047260D02*
X0262297Y0047260D01*
X0262297Y0046262D02*
X0264153Y0046262D01*
X0264153Y0045263D02*
X0262297Y0045263D01*
X0254153Y0045263D02*
X0252297Y0045263D01*
X0252297Y0044265D02*
X0254153Y0044265D01*
X0254153Y0046262D02*
X0252297Y0046262D01*
X0252297Y0047260D02*
X0254153Y0047260D01*
X0254153Y0048259D02*
X0252297Y0048259D01*
X0252297Y0049257D02*
X0254153Y0049257D01*
X0254153Y0050256D02*
X0252297Y0050256D01*
X0251754Y0051254D02*
X0254696Y0051254D01*
X0254153Y0054250D02*
X0252297Y0054250D01*
X0252297Y0054091D02*
X0252297Y0060712D01*
X0251535Y0061473D01*
X0244915Y0061473D01*
X0244153Y0060712D01*
X0244153Y0054091D01*
X0244915Y0053330D01*
X0251535Y0053330D01*
X0252297Y0054091D01*
X0252297Y0055248D02*
X0254153Y0055248D01*
X0254153Y0056247D02*
X0252297Y0056247D01*
X0252297Y0057245D02*
X0254153Y0057245D01*
X0254153Y0058244D02*
X0252297Y0058244D01*
X0252297Y0059242D02*
X0254153Y0059242D01*
X0254153Y0060241D02*
X0252297Y0060241D01*
X0251769Y0061239D02*
X0254681Y0061239D01*
X0244681Y0061239D02*
X0241769Y0061239D01*
X0241535Y0061473D02*
X0234915Y0061473D01*
X0234153Y0060712D01*
X0234153Y0054091D01*
X0234915Y0053330D01*
X0241535Y0053330D01*
X0242297Y0054091D01*
X0242297Y0060712D01*
X0241535Y0061473D01*
X0242297Y0060241D02*
X0244153Y0060241D01*
X0244153Y0059242D02*
X0242297Y0059242D01*
X0242297Y0058244D02*
X0244153Y0058244D01*
X0244153Y0057245D02*
X0242297Y0057245D01*
X0242297Y0056247D02*
X0244153Y0056247D01*
X0244153Y0055248D02*
X0242297Y0055248D01*
X0242297Y0054250D02*
X0244153Y0054250D01*
X0244696Y0051254D02*
X0241754Y0051254D01*
X0242297Y0050256D02*
X0244153Y0050256D01*
X0244153Y0049257D02*
X0242297Y0049257D01*
X0242297Y0048259D02*
X0244153Y0048259D01*
X0244153Y0047260D02*
X0242297Y0047260D01*
X0242297Y0046262D02*
X0244153Y0046262D01*
X0244153Y0045263D02*
X0242297Y0045263D01*
X0242297Y0044265D02*
X0244153Y0044265D01*
X0234153Y0044265D02*
X0232297Y0044265D01*
X0232297Y0045263D02*
X0234153Y0045263D01*
X0234153Y0046262D02*
X0232297Y0046262D01*
X0232297Y0047260D02*
X0234153Y0047260D01*
X0234153Y0048259D02*
X0232297Y0048259D01*
X0232297Y0049257D02*
X0234153Y0049257D01*
X0234153Y0050256D02*
X0232297Y0050256D01*
X0231754Y0051254D02*
X0234696Y0051254D01*
X0234153Y0054250D02*
X0232297Y0054250D01*
X0232297Y0054091D02*
X0232297Y0060712D01*
X0231535Y0061473D01*
X0224915Y0061473D01*
X0224153Y0060712D01*
X0224153Y0054091D01*
X0224915Y0053330D01*
X0231535Y0053330D01*
X0232297Y0054091D01*
X0232297Y0055248D02*
X0234153Y0055248D01*
X0234153Y0056247D02*
X0232297Y0056247D01*
X0232297Y0057245D02*
X0234153Y0057245D01*
X0234153Y0058244D02*
X0232297Y0058244D01*
X0232297Y0059242D02*
X0234153Y0059242D01*
X0234153Y0060241D02*
X0232297Y0060241D01*
X0231769Y0061239D02*
X0234681Y0061239D01*
X0224681Y0061239D02*
X0216769Y0061239D01*
X0216535Y0061473D02*
X0209915Y0061473D01*
X0209153Y0060712D01*
X0209153Y0054091D01*
X0209915Y0053330D01*
X0216535Y0053330D01*
X0217297Y0054091D01*
X0217297Y0060712D01*
X0216535Y0061473D01*
X0217297Y0060241D02*
X0224153Y0060241D01*
X0224153Y0059242D02*
X0217297Y0059242D01*
X0217297Y0058244D02*
X0224153Y0058244D01*
X0224153Y0057245D02*
X0217297Y0057245D01*
X0217297Y0056247D02*
X0224153Y0056247D01*
X0224153Y0055248D02*
X0217297Y0055248D01*
X0217297Y0054250D02*
X0224153Y0054250D01*
X0224696Y0051254D02*
X0216754Y0051254D01*
X0217297Y0050256D02*
X0224153Y0050256D01*
X0224153Y0049257D02*
X0217297Y0049257D01*
X0217297Y0048259D02*
X0224153Y0048259D01*
X0224153Y0047260D02*
X0217297Y0047260D01*
X0217297Y0046262D02*
X0224153Y0046262D01*
X0224153Y0045263D02*
X0217297Y0045263D01*
X0217297Y0044265D02*
X0224153Y0044265D01*
X0209153Y0044265D02*
X0207297Y0044265D01*
X0207297Y0045263D02*
X0209153Y0045263D01*
X0209153Y0046262D02*
X0207297Y0046262D01*
X0207297Y0047260D02*
X0209153Y0047260D01*
X0209153Y0048259D02*
X0207297Y0048259D01*
X0207297Y0049257D02*
X0209153Y0049257D01*
X0209153Y0050256D02*
X0207297Y0050256D01*
X0206754Y0051254D02*
X0209696Y0051254D01*
X0209153Y0054250D02*
X0207297Y0054250D01*
X0207297Y0054091D02*
X0207297Y0060712D01*
X0206535Y0061473D01*
X0199915Y0061473D01*
X0199153Y0060712D01*
X0199153Y0054091D01*
X0199915Y0053330D01*
X0206535Y0053330D01*
X0207297Y0054091D01*
X0207297Y0055248D02*
X0209153Y0055248D01*
X0209153Y0056247D02*
X0207297Y0056247D01*
X0207297Y0057245D02*
X0209153Y0057245D01*
X0209153Y0058244D02*
X0207297Y0058244D01*
X0207297Y0059242D02*
X0209153Y0059242D01*
X0209153Y0060241D02*
X0207297Y0060241D01*
X0206769Y0061239D02*
X0209681Y0061239D01*
X0207310Y0066232D02*
X0344209Y0066232D01*
X0344209Y0067230D02*
X0208308Y0067230D01*
X0209307Y0068229D02*
X0344209Y0068229D01*
X0344209Y0069227D02*
X0209809Y0069227D01*
X0209809Y0070226D02*
X0344209Y0070226D01*
X0344209Y0071224D02*
X0209809Y0071224D01*
X0209809Y0072223D02*
X0344209Y0072223D01*
X0344209Y0073221D02*
X0208880Y0073221D01*
X0203136Y0074220D02*
X0127544Y0074220D01*
X0127544Y0075218D02*
X0126544Y0075218D01*
X0126544Y0074220D02*
X0116020Y0074220D01*
X0116020Y0075218D02*
X0119597Y0075218D01*
X0119861Y0076217D02*
X0116020Y0076217D01*
X0116020Y0077215D02*
X0120435Y0077215D01*
X0121462Y0078214D02*
X0116020Y0078214D01*
X0116020Y0081210D02*
X0121281Y0081210D01*
X0120350Y0082208D02*
X0116020Y0082208D01*
X0116020Y0083207D02*
X0119937Y0083207D01*
X0119744Y0084205D02*
X0116020Y0084205D01*
X0116020Y0085204D02*
X0119744Y0085204D01*
X0120083Y0086202D02*
X0116020Y0086202D01*
X0116020Y0087201D02*
X0120636Y0087201D01*
X0121671Y0088199D02*
X0116020Y0088199D01*
X0116020Y0091195D02*
X0121296Y0091195D01*
X0120357Y0092193D02*
X0116020Y0092193D01*
X0116020Y0093192D02*
X0119943Y0093192D01*
X0119744Y0094190D02*
X0116020Y0094190D01*
X0116020Y0095189D02*
X0119744Y0095189D01*
X0120077Y0096187D02*
X0116020Y0096187D01*
X0116020Y0097186D02*
X0120621Y0097186D01*
X0121636Y0098184D02*
X0116020Y0098184D01*
X0116020Y0101180D02*
X0121311Y0101180D01*
X0120363Y0102178D02*
X0116020Y0102178D01*
X0116020Y0103177D02*
X0119949Y0103177D01*
X0119744Y0104175D02*
X0116020Y0104175D01*
X0116020Y0105174D02*
X0119744Y0105174D01*
X0120071Y0106172D02*
X0116020Y0106172D01*
X0116020Y0107171D02*
X0120606Y0107171D01*
X0121605Y0108169D02*
X0116020Y0108169D01*
X0126544Y0078214D02*
X0127544Y0078214D01*
X0127544Y0077215D02*
X0126544Y0077215D01*
X0126544Y0076217D02*
X0127544Y0076217D01*
X0127544Y0073221D02*
X0126544Y0073221D01*
X0126544Y0072223D02*
X0127544Y0072223D01*
X0127544Y0071224D02*
X0126544Y0071224D01*
X0126544Y0070226D02*
X0127544Y0070226D01*
X0131367Y0070226D02*
X0201209Y0070226D01*
X0201209Y0071224D02*
X0133105Y0071224D01*
X0133920Y0072223D02*
X0201209Y0072223D01*
X0202137Y0073221D02*
X0134351Y0073221D01*
X0122721Y0070226D02*
X0116020Y0070226D01*
X0116020Y0071224D02*
X0120983Y0071224D01*
X0120168Y0072223D02*
X0116020Y0072223D01*
X0116020Y0073221D02*
X0119737Y0073221D01*
X0116020Y0069227D02*
X0201209Y0069227D01*
X0201710Y0068229D02*
X0116020Y0068229D01*
X0116020Y0067230D02*
X0202709Y0067230D01*
X0203707Y0066232D02*
X0116020Y0066232D01*
X0116020Y0065233D02*
X0344209Y0065233D01*
X0344209Y0064235D02*
X0116020Y0064235D01*
X0116020Y0063236D02*
X0344209Y0063236D01*
X0344209Y0062238D02*
X0342461Y0062238D01*
X0341442Y0062238D02*
X0340442Y0062238D01*
X0340442Y0061239D02*
X0341442Y0061239D01*
X0341442Y0060241D02*
X0340442Y0060241D01*
X0340442Y0059242D02*
X0341442Y0059242D01*
X0341442Y0058244D02*
X0340442Y0058244D01*
X0340442Y0057245D02*
X0341442Y0057245D01*
X0341442Y0056247D02*
X0340442Y0056247D01*
X0340442Y0055248D02*
X0335242Y0055248D01*
X0335242Y0054250D02*
X0336442Y0054250D01*
X0336442Y0053251D02*
X0335242Y0053251D01*
X0335242Y0052253D02*
X0336442Y0052253D01*
X0336504Y0051254D02*
X0335242Y0051254D01*
X0335242Y0051145D02*
X0335242Y0058855D01*
X0334587Y0060436D01*
X0333377Y0061645D01*
X0331797Y0062300D01*
X0330086Y0062300D01*
X0328506Y0061645D01*
X0327296Y0060436D01*
X0326642Y0058855D01*
X0326642Y0051145D01*
X0327296Y0049564D01*
X0328506Y0048355D01*
X0330086Y0047700D01*
X0331797Y0047700D01*
X0333377Y0048355D01*
X0334587Y0049564D01*
X0335242Y0051145D01*
X0334873Y0050256D02*
X0336780Y0050256D01*
X0337372Y0049257D02*
X0334280Y0049257D01*
X0333146Y0048259D02*
X0338435Y0048259D01*
X0340442Y0048259D02*
X0341442Y0048259D01*
X0341442Y0049257D02*
X0340442Y0049257D01*
X0340442Y0050256D02*
X0341442Y0050256D01*
X0341442Y0051254D02*
X0340442Y0051254D01*
X0340442Y0052253D02*
X0341442Y0052253D01*
X0341442Y0053251D02*
X0340442Y0053251D01*
X0340442Y0054250D02*
X0341442Y0054250D01*
X0336442Y0056247D02*
X0335242Y0056247D01*
X0335242Y0057245D02*
X0336442Y0057245D01*
X0336442Y0058244D02*
X0335242Y0058244D01*
X0335081Y0059242D02*
X0336614Y0059242D01*
X0337033Y0060241D02*
X0334668Y0060241D01*
X0333783Y0061239D02*
X0337817Y0061239D01*
X0339422Y0062238D02*
X0331947Y0062238D01*
X0329936Y0062238D02*
X0116020Y0062238D01*
X0116020Y0061239D02*
X0139681Y0061239D01*
X0139915Y0061473D02*
X0139153Y0060712D01*
X0139153Y0054091D01*
X0139915Y0053330D01*
X0146535Y0053330D01*
X0147297Y0054091D01*
X0147297Y0060712D01*
X0146535Y0061473D01*
X0139915Y0061473D01*
X0139153Y0060241D02*
X0116020Y0060241D01*
X0116020Y0059242D02*
X0139153Y0059242D01*
X0139153Y0058244D02*
X0116020Y0058244D01*
X0116020Y0057245D02*
X0139153Y0057245D01*
X0139153Y0056247D02*
X0116020Y0056247D01*
X0116020Y0055248D02*
X0139153Y0055248D01*
X0139153Y0054250D02*
X0116020Y0054250D01*
X0116020Y0053251D02*
X0326642Y0053251D01*
X0326642Y0052253D02*
X0116020Y0052253D01*
X0116020Y0051254D02*
X0139696Y0051254D01*
X0139153Y0050256D02*
X0116020Y0050256D01*
X0116020Y0049257D02*
X0139153Y0049257D01*
X0139153Y0048259D02*
X0116020Y0048259D01*
X0116020Y0047260D02*
X0139153Y0047260D01*
X0139153Y0046262D02*
X0116020Y0046262D01*
X0116020Y0045263D02*
X0139153Y0045263D01*
X0139153Y0044265D02*
X0116020Y0044265D01*
X0147297Y0044265D02*
X0149153Y0044265D01*
X0149153Y0045263D02*
X0147297Y0045263D01*
X0147297Y0046262D02*
X0149153Y0046262D01*
X0149153Y0047260D02*
X0147297Y0047260D01*
X0147297Y0048259D02*
X0149153Y0048259D01*
X0149153Y0049257D02*
X0147297Y0049257D01*
X0147297Y0050256D02*
X0149153Y0050256D01*
X0149696Y0051254D02*
X0146754Y0051254D01*
X0147297Y0054250D02*
X0149153Y0054250D01*
X0149153Y0054091D02*
X0149915Y0053330D01*
X0156535Y0053330D01*
X0157297Y0054091D01*
X0157297Y0060712D01*
X0156535Y0061473D01*
X0149915Y0061473D01*
X0149153Y0060712D01*
X0149153Y0054091D01*
X0149153Y0055248D02*
X0147297Y0055248D01*
X0147297Y0056247D02*
X0149153Y0056247D01*
X0149153Y0057245D02*
X0147297Y0057245D01*
X0147297Y0058244D02*
X0149153Y0058244D01*
X0149153Y0059242D02*
X0147297Y0059242D01*
X0147297Y0060241D02*
X0149153Y0060241D01*
X0149681Y0061239D02*
X0146769Y0061239D01*
X0156769Y0061239D02*
X0159681Y0061239D01*
X0159915Y0061473D02*
X0159153Y0060712D01*
X0159153Y0054091D01*
X0159915Y0053330D01*
X0166535Y0053330D01*
X0167297Y0054091D01*
X0167297Y0060712D01*
X0166535Y0061473D01*
X0159915Y0061473D01*
X0159153Y0060241D02*
X0157297Y0060241D01*
X0157297Y0059242D02*
X0159153Y0059242D01*
X0159153Y0058244D02*
X0157297Y0058244D01*
X0157297Y0057245D02*
X0159153Y0057245D01*
X0159153Y0056247D02*
X0157297Y0056247D01*
X0157297Y0055248D02*
X0159153Y0055248D01*
X0159153Y0054250D02*
X0157297Y0054250D01*
X0156754Y0051254D02*
X0159696Y0051254D01*
X0159153Y0050256D02*
X0157297Y0050256D01*
X0157297Y0049257D02*
X0159153Y0049257D01*
X0159153Y0048259D02*
X0157297Y0048259D01*
X0157297Y0047260D02*
X0159153Y0047260D01*
X0159153Y0046262D02*
X0157297Y0046262D01*
X0157297Y0045263D02*
X0159153Y0045263D01*
X0159153Y0044265D02*
X0157297Y0044265D01*
X0167297Y0044265D02*
X0169153Y0044265D01*
X0169153Y0045263D02*
X0167297Y0045263D01*
X0167297Y0046262D02*
X0169153Y0046262D01*
X0169153Y0047260D02*
X0167297Y0047260D01*
X0167297Y0048259D02*
X0169153Y0048259D01*
X0169153Y0049257D02*
X0167297Y0049257D01*
X0167297Y0050256D02*
X0169153Y0050256D01*
X0169696Y0051254D02*
X0166754Y0051254D01*
X0167297Y0054250D02*
X0169153Y0054250D01*
X0169153Y0054091D02*
X0169915Y0053330D01*
X0176535Y0053330D01*
X0177297Y0054091D01*
X0177297Y0060712D01*
X0176535Y0061473D01*
X0169915Y0061473D01*
X0169153Y0060712D01*
X0169153Y0054091D01*
X0169153Y0055248D02*
X0167297Y0055248D01*
X0167297Y0056247D02*
X0169153Y0056247D01*
X0169153Y0057245D02*
X0167297Y0057245D01*
X0167297Y0058244D02*
X0169153Y0058244D01*
X0169153Y0059242D02*
X0167297Y0059242D01*
X0167297Y0060241D02*
X0169153Y0060241D01*
X0169681Y0061239D02*
X0166769Y0061239D01*
X0176769Y0061239D02*
X0179681Y0061239D01*
X0179915Y0061473D02*
X0179153Y0060712D01*
X0179153Y0054091D01*
X0179915Y0053330D01*
X0186535Y0053330D01*
X0187297Y0054091D01*
X0187297Y0060712D01*
X0186535Y0061473D01*
X0179915Y0061473D01*
X0179153Y0060241D02*
X0177297Y0060241D01*
X0177297Y0059242D02*
X0179153Y0059242D01*
X0179153Y0058244D02*
X0177297Y0058244D01*
X0177297Y0057245D02*
X0179153Y0057245D01*
X0179153Y0056247D02*
X0177297Y0056247D01*
X0177297Y0055248D02*
X0179153Y0055248D01*
X0179153Y0054250D02*
X0177297Y0054250D01*
X0176754Y0051254D02*
X0179696Y0051254D01*
X0179153Y0050256D02*
X0177297Y0050256D01*
X0177297Y0049257D02*
X0179153Y0049257D01*
X0179153Y0048259D02*
X0177297Y0048259D01*
X0177297Y0047260D02*
X0179153Y0047260D01*
X0179153Y0046262D02*
X0177297Y0046262D01*
X0177297Y0045263D02*
X0179153Y0045263D01*
X0179153Y0044265D02*
X0177297Y0044265D01*
X0187297Y0044265D02*
X0189153Y0044265D01*
X0189153Y0045263D02*
X0187297Y0045263D01*
X0187297Y0046262D02*
X0189153Y0046262D01*
X0189153Y0047260D02*
X0187297Y0047260D01*
X0187297Y0048259D02*
X0189153Y0048259D01*
X0189153Y0049257D02*
X0187297Y0049257D01*
X0187297Y0050256D02*
X0189153Y0050256D01*
X0189696Y0051254D02*
X0186754Y0051254D01*
X0187297Y0054250D02*
X0189153Y0054250D01*
X0189153Y0054091D02*
X0189915Y0053330D01*
X0196535Y0053330D01*
X0197297Y0054091D01*
X0197297Y0060712D01*
X0196535Y0061473D01*
X0189915Y0061473D01*
X0189153Y0060712D01*
X0189153Y0054091D01*
X0189153Y0055248D02*
X0187297Y0055248D01*
X0187297Y0056247D02*
X0189153Y0056247D01*
X0189153Y0057245D02*
X0187297Y0057245D01*
X0187297Y0058244D02*
X0189153Y0058244D01*
X0189153Y0059242D02*
X0187297Y0059242D01*
X0187297Y0060241D02*
X0189153Y0060241D01*
X0189681Y0061239D02*
X0186769Y0061239D01*
X0196769Y0061239D02*
X0199681Y0061239D01*
X0199153Y0060241D02*
X0197297Y0060241D01*
X0197297Y0059242D02*
X0199153Y0059242D01*
X0199153Y0058244D02*
X0197297Y0058244D01*
X0197297Y0057245D02*
X0199153Y0057245D01*
X0199153Y0056247D02*
X0197297Y0056247D01*
X0197297Y0055248D02*
X0199153Y0055248D01*
X0199153Y0054250D02*
X0197297Y0054250D01*
X0196754Y0051254D02*
X0199696Y0051254D01*
X0199153Y0050256D02*
X0197297Y0050256D01*
X0197297Y0049257D02*
X0199153Y0049257D01*
X0199153Y0048259D02*
X0197297Y0048259D01*
X0197297Y0047260D02*
X0199153Y0047260D01*
X0199153Y0046262D02*
X0197297Y0046262D01*
X0197297Y0045263D02*
X0199153Y0045263D01*
X0199153Y0044265D02*
X0197297Y0044265D01*
X0271754Y0051254D02*
X0274696Y0051254D01*
X0274153Y0050256D02*
X0272297Y0050256D01*
X0272297Y0049257D02*
X0274153Y0049257D01*
X0274153Y0048259D02*
X0272297Y0048259D01*
X0272297Y0047260D02*
X0274153Y0047260D01*
X0274153Y0046262D02*
X0272297Y0046262D01*
X0272297Y0045263D02*
X0274153Y0045263D01*
X0282297Y0045263D02*
X0283953Y0045263D01*
X0283953Y0046262D02*
X0282297Y0046262D01*
X0282297Y0047260D02*
X0287839Y0047260D01*
X0288611Y0047260D02*
X0294153Y0047260D01*
X0294153Y0046262D02*
X0292497Y0046262D01*
X0292497Y0045263D02*
X0294153Y0045263D01*
X0294153Y0048259D02*
X0292497Y0048259D01*
X0292497Y0049257D02*
X0294153Y0049257D01*
X0294153Y0050256D02*
X0292497Y0050256D01*
X0292037Y0051254D02*
X0294696Y0051254D01*
X0294915Y0053330D02*
X0294153Y0054091D01*
X0294153Y0060712D01*
X0294915Y0061473D01*
X0301535Y0061473D01*
X0302297Y0060712D01*
X0302297Y0054091D01*
X0301535Y0053330D01*
X0294915Y0053330D01*
X0294153Y0054250D02*
X0292297Y0054250D01*
X0292297Y0054091D02*
X0292297Y0060712D01*
X0291535Y0061473D01*
X0284915Y0061473D01*
X0284153Y0060712D01*
X0284153Y0054091D01*
X0284915Y0053330D01*
X0291535Y0053330D01*
X0292297Y0054091D01*
X0292297Y0055248D02*
X0294153Y0055248D01*
X0294153Y0056247D02*
X0292297Y0056247D01*
X0292297Y0057245D02*
X0294153Y0057245D01*
X0294153Y0058244D02*
X0292297Y0058244D01*
X0292297Y0059242D02*
X0294153Y0059242D01*
X0294153Y0060241D02*
X0292297Y0060241D01*
X0291769Y0061239D02*
X0294681Y0061239D01*
X0301769Y0061239D02*
X0304681Y0061239D01*
X0304915Y0061473D02*
X0304153Y0060712D01*
X0304153Y0054091D01*
X0304915Y0053330D01*
X0311535Y0053330D01*
X0312297Y0054091D01*
X0312297Y0060712D01*
X0311535Y0061473D01*
X0304915Y0061473D01*
X0304153Y0060241D02*
X0302297Y0060241D01*
X0302297Y0059242D02*
X0304153Y0059242D01*
X0304153Y0058244D02*
X0302297Y0058244D01*
X0302297Y0057245D02*
X0304153Y0057245D01*
X0304153Y0056247D02*
X0302297Y0056247D01*
X0302297Y0055248D02*
X0304153Y0055248D01*
X0304153Y0054250D02*
X0302297Y0054250D01*
X0301754Y0051254D02*
X0304696Y0051254D01*
X0304153Y0050256D02*
X0302297Y0050256D01*
X0302297Y0049257D02*
X0304153Y0049257D01*
X0304153Y0048259D02*
X0302297Y0048259D01*
X0302297Y0047260D02*
X0304153Y0047260D01*
X0304153Y0046262D02*
X0302297Y0046262D01*
X0302297Y0045263D02*
X0304153Y0045263D01*
X0312297Y0045263D02*
X0314153Y0045263D01*
X0314153Y0046262D02*
X0312297Y0046262D01*
X0312297Y0047260D02*
X0314153Y0047260D01*
X0314153Y0048259D02*
X0312297Y0048259D01*
X0312297Y0049257D02*
X0314153Y0049257D01*
X0314153Y0050256D02*
X0312297Y0050256D01*
X0311754Y0051254D02*
X0314696Y0051254D01*
X0314915Y0053330D02*
X0314153Y0054091D01*
X0314153Y0060712D01*
X0314915Y0061473D01*
X0321535Y0061473D01*
X0322297Y0060712D01*
X0322297Y0054091D01*
X0321535Y0053330D01*
X0314915Y0053330D01*
X0314153Y0054250D02*
X0312297Y0054250D01*
X0312297Y0055248D02*
X0314153Y0055248D01*
X0314153Y0056247D02*
X0312297Y0056247D01*
X0312297Y0057245D02*
X0314153Y0057245D01*
X0314153Y0058244D02*
X0312297Y0058244D01*
X0312297Y0059242D02*
X0314153Y0059242D01*
X0314153Y0060241D02*
X0312297Y0060241D01*
X0311769Y0061239D02*
X0314681Y0061239D01*
X0321769Y0061239D02*
X0328100Y0061239D01*
X0327215Y0060241D02*
X0322297Y0060241D01*
X0322297Y0059242D02*
X0326802Y0059242D01*
X0326642Y0058244D02*
X0322297Y0058244D01*
X0322297Y0057245D02*
X0326642Y0057245D01*
X0326642Y0056247D02*
X0322297Y0056247D01*
X0322297Y0055248D02*
X0326642Y0055248D01*
X0326642Y0054250D02*
X0322297Y0054250D01*
X0321754Y0051254D02*
X0326642Y0051254D01*
X0327010Y0050256D02*
X0322297Y0050256D01*
X0322297Y0049257D02*
X0327603Y0049257D01*
X0328738Y0048259D02*
X0322297Y0048259D01*
X0322297Y0047260D02*
X0344209Y0047260D01*
X0344209Y0046262D02*
X0322297Y0046262D01*
X0322297Y0045263D02*
X0344209Y0045263D01*
X0344209Y0048259D02*
X0343448Y0048259D01*
X0344066Y0061239D02*
X0344209Y0061239D01*
X0334473Y0086202D02*
X0333473Y0086202D01*
X0333473Y0087201D02*
X0334473Y0087201D01*
X0334473Y0088199D02*
X0333473Y0088199D01*
X0333473Y0091195D02*
X0334473Y0091195D01*
X0334473Y0092193D02*
X0333473Y0092193D01*
X0333473Y0093192D02*
X0334473Y0093192D01*
X0334473Y0094190D02*
X0333473Y0094190D01*
X0344209Y0096187D02*
X0298886Y0096187D01*
X0306811Y0097186D02*
X0344209Y0097186D01*
X0344209Y0098184D02*
X0307846Y0098184D01*
X0308845Y0099183D02*
X0344209Y0099183D01*
X0344209Y0100181D02*
X0309843Y0100181D01*
X0310842Y0101180D02*
X0344209Y0101180D01*
X0344209Y0102178D02*
X0311840Y0102178D01*
X0312839Y0103177D02*
X0344209Y0103177D01*
X0344209Y0104175D02*
X0313382Y0104175D01*
X0313641Y0105174D02*
X0344209Y0105174D01*
X0344209Y0106172D02*
X0336174Y0106172D01*
X0335956Y0105955D02*
X0338651Y0108649D01*
X0338651Y0110255D01*
X0334351Y0110255D01*
X0334351Y0110855D01*
X0338651Y0110855D01*
X0338651Y0112460D01*
X0335956Y0115155D01*
X0334351Y0115155D01*
X0334351Y0110855D01*
X0333751Y0110855D01*
X0333751Y0115155D01*
X0332145Y0115155D01*
X0329451Y0112460D01*
X0329451Y0110855D01*
X0333751Y0110855D01*
X0333751Y0110255D01*
X0334351Y0110255D01*
X0334351Y0105955D01*
X0335956Y0105955D01*
X0334351Y0106172D02*
X0333751Y0106172D01*
X0333751Y0105955D02*
X0333751Y0110255D01*
X0329451Y0110255D01*
X0329451Y0108649D01*
X0332145Y0105955D01*
X0333751Y0105955D01*
X0333751Y0107171D02*
X0334351Y0107171D01*
X0334351Y0108169D02*
X0333751Y0108169D01*
X0333751Y0109168D02*
X0334351Y0109168D01*
X0334351Y0110166D02*
X0333751Y0110166D01*
X0333751Y0111165D02*
X0334351Y0111165D01*
X0334351Y0112163D02*
X0333751Y0112163D01*
X0333751Y0113162D02*
X0334351Y0113162D01*
X0334351Y0114160D02*
X0333751Y0114160D01*
X0331151Y0114160D02*
X0326667Y0114160D01*
X0326543Y0114285D02*
X0324926Y0114955D01*
X0323175Y0114955D01*
X0321558Y0114285D01*
X0320321Y0113047D01*
X0319651Y0111430D01*
X0319651Y0109680D01*
X0320321Y0108062D01*
X0321558Y0106825D01*
X0323175Y0106155D01*
X0324926Y0106155D01*
X0326543Y0106825D01*
X0327781Y0108062D01*
X0328451Y0109680D01*
X0328451Y0111430D01*
X0327781Y0113047D01*
X0326543Y0114285D01*
X0327666Y0113162D02*
X0330152Y0113162D01*
X0329451Y0112163D02*
X0328147Y0112163D01*
X0328451Y0111165D02*
X0329451Y0111165D01*
X0329451Y0110166D02*
X0328451Y0110166D01*
X0328239Y0109168D02*
X0329451Y0109168D01*
X0329931Y0108169D02*
X0327825Y0108169D01*
X0326889Y0107171D02*
X0330929Y0107171D01*
X0331928Y0106172D02*
X0324968Y0106172D01*
X0323133Y0106172D02*
X0313639Y0106172D01*
X0313630Y0107171D02*
X0321212Y0107171D01*
X0320276Y0108169D02*
X0313625Y0108169D01*
X0313619Y0109168D02*
X0319863Y0109168D01*
X0319651Y0110166D02*
X0313613Y0110166D01*
X0313608Y0111165D02*
X0319651Y0111165D01*
X0319954Y0112163D02*
X0313602Y0112163D01*
X0313597Y0113162D02*
X0320435Y0113162D01*
X0321434Y0114160D02*
X0313591Y0114160D01*
X0313586Y0115159D02*
X0344209Y0115159D01*
X0344209Y0116157D02*
X0313580Y0116157D01*
X0313574Y0117156D02*
X0344209Y0117156D01*
X0344209Y0118154D02*
X0313569Y0118154D01*
X0313563Y0119153D02*
X0344209Y0119153D01*
X0344209Y0120151D02*
X0313558Y0120151D01*
X0313552Y0121150D02*
X0344209Y0121150D01*
X0344209Y0122148D02*
X0313547Y0122148D01*
X0313541Y0123147D02*
X0344209Y0123147D01*
X0344209Y0124146D02*
X0313535Y0124146D01*
X0313530Y0125144D02*
X0317300Y0125144D01*
X0317404Y0125041D02*
X0320635Y0125041D01*
X0322919Y0127325D01*
X0322919Y0130556D01*
X0320635Y0132841D01*
X0317404Y0132841D01*
X0315119Y0130556D01*
X0315119Y0127325D01*
X0317404Y0125041D01*
X0316302Y0126143D02*
X0313524Y0126143D01*
X0313519Y0127141D02*
X0315303Y0127141D01*
X0315119Y0128140D02*
X0313513Y0128140D01*
X0313508Y0129138D02*
X0315119Y0129138D01*
X0315119Y0130137D02*
X0313502Y0130137D01*
X0313496Y0131135D02*
X0315698Y0131135D01*
X0316697Y0132134D02*
X0313491Y0132134D01*
X0313485Y0133132D02*
X0344209Y0133132D01*
X0344209Y0132134D02*
X0341624Y0132134D01*
X0340717Y0133041D02*
X0339319Y0133041D01*
X0339319Y0129241D01*
X0338719Y0129241D01*
X0338719Y0133041D01*
X0337321Y0133041D01*
X0334919Y0130639D01*
X0334919Y0129241D01*
X0338719Y0129241D01*
X0338719Y0128641D01*
X0334919Y0128641D01*
X0334919Y0127242D01*
X0337321Y0124841D01*
X0338719Y0124841D01*
X0338719Y0128640D01*
X0339319Y0128640D01*
X0339319Y0124841D01*
X0340717Y0124841D01*
X0343119Y0127242D01*
X0343119Y0128641D01*
X0339319Y0128641D01*
X0339319Y0129241D01*
X0343119Y0129241D01*
X0343119Y0130639D01*
X0340717Y0133041D01*
X0339319Y0132134D02*
X0338719Y0132134D01*
X0338719Y0131135D02*
X0339319Y0131135D01*
X0339319Y0130137D02*
X0338719Y0130137D01*
X0338719Y0129138D02*
X0322919Y0129138D01*
X0322919Y0128140D02*
X0334919Y0128140D01*
X0335020Y0127141D02*
X0322735Y0127141D01*
X0321737Y0126143D02*
X0336019Y0126143D01*
X0337017Y0125144D02*
X0320738Y0125144D01*
X0322919Y0130137D02*
X0334919Y0130137D01*
X0335415Y0131135D02*
X0322340Y0131135D01*
X0321341Y0132134D02*
X0336414Y0132134D01*
X0339319Y0129138D02*
X0344209Y0129138D01*
X0344209Y0128140D02*
X0343119Y0128140D01*
X0343018Y0127141D02*
X0344209Y0127141D01*
X0344209Y0126143D02*
X0342019Y0126143D01*
X0341021Y0125144D02*
X0344209Y0125144D01*
X0344209Y0130137D02*
X0343119Y0130137D01*
X0342623Y0131135D02*
X0344209Y0131135D01*
X0344209Y0134131D02*
X0313480Y0134131D01*
X0313474Y0135129D02*
X0344209Y0135129D01*
X0344209Y0136128D02*
X0313468Y0136128D01*
X0313463Y0137126D02*
X0344209Y0137126D01*
X0344209Y0138125D02*
X0313457Y0138125D01*
X0313452Y0139123D02*
X0344209Y0139123D01*
X0344209Y0140122D02*
X0313446Y0140122D01*
X0313441Y0141120D02*
X0344209Y0141120D01*
X0344209Y0142119D02*
X0313435Y0142119D01*
X0313429Y0143117D02*
X0344209Y0143117D01*
X0344209Y0144116D02*
X0313424Y0144116D01*
X0313418Y0145114D02*
X0344209Y0145114D01*
X0344209Y0146113D02*
X0313413Y0146113D01*
X0313407Y0147111D02*
X0344209Y0147111D01*
X0344209Y0148110D02*
X0313402Y0148110D01*
X0313396Y0149108D02*
X0344209Y0149108D01*
X0344209Y0150107D02*
X0339390Y0150107D01*
X0339167Y0149884D02*
X0341569Y0152286D01*
X0341569Y0153684D01*
X0337769Y0153684D01*
X0337769Y0149884D01*
X0339167Y0149884D01*
X0337769Y0150107D02*
X0337169Y0150107D01*
X0337169Y0149884D02*
X0337169Y0153684D01*
X0337769Y0153684D01*
X0337769Y0154284D01*
X0341569Y0154284D01*
X0341569Y0155683D01*
X0339167Y0158084D01*
X0337769Y0158084D01*
X0337769Y0154284D01*
X0337169Y0154284D01*
X0337169Y0153684D01*
X0333369Y0153684D01*
X0333369Y0152286D01*
X0335771Y0149884D01*
X0337169Y0149884D01*
X0337169Y0151105D02*
X0337769Y0151105D01*
X0337769Y0152104D02*
X0337169Y0152104D01*
X0337169Y0153102D02*
X0337769Y0153102D01*
X0337769Y0154101D02*
X0344209Y0154101D01*
X0344209Y0155099D02*
X0341569Y0155099D01*
X0341154Y0156098D02*
X0344209Y0156098D01*
X0344209Y0157096D02*
X0340155Y0157096D01*
X0337769Y0157096D02*
X0337169Y0157096D01*
X0337169Y0158084D02*
X0335771Y0158084D01*
X0333369Y0155683D01*
X0333369Y0154284D01*
X0337169Y0154284D01*
X0337169Y0158084D01*
X0337169Y0156098D02*
X0337769Y0156098D01*
X0337769Y0155099D02*
X0337169Y0155099D01*
X0337169Y0154101D02*
X0321369Y0154101D01*
X0321369Y0155099D02*
X0333369Y0155099D01*
X0333785Y0156098D02*
X0320871Y0156098D01*
X0321369Y0155600D02*
X0319085Y0157884D01*
X0315854Y0157884D01*
X0313569Y0155600D01*
X0313569Y0152369D01*
X0315854Y0150084D01*
X0319085Y0150084D01*
X0321369Y0152369D01*
X0321369Y0155600D01*
X0319872Y0157096D02*
X0334783Y0157096D01*
X0333369Y0153102D02*
X0321369Y0153102D01*
X0321104Y0152104D02*
X0333551Y0152104D01*
X0334550Y0151105D02*
X0320106Y0151105D01*
X0319107Y0150107D02*
X0335548Y0150107D01*
X0340388Y0151105D02*
X0344209Y0151105D01*
X0344209Y0152104D02*
X0341387Y0152104D01*
X0341569Y0153102D02*
X0344209Y0153102D01*
X0344209Y0158095D02*
X0313346Y0158095D01*
X0313340Y0159093D02*
X0344209Y0159093D01*
X0344209Y0160092D02*
X0313335Y0160092D01*
X0313329Y0161090D02*
X0344209Y0161090D01*
X0344209Y0162089D02*
X0313323Y0162089D01*
X0313318Y0163087D02*
X0344209Y0163087D01*
X0344209Y0164086D02*
X0313312Y0164086D01*
X0313307Y0165084D02*
X0344209Y0165084D01*
X0344209Y0166083D02*
X0334777Y0166083D01*
X0334938Y0166200D02*
X0335450Y0166712D01*
X0335876Y0167298D01*
X0336205Y0167943D01*
X0336428Y0168631D01*
X0336542Y0169347D01*
X0336542Y0169409D01*
X0332242Y0169409D01*
X0332242Y0170009D01*
X0336542Y0170009D01*
X0336542Y0170071D01*
X0336428Y0170786D01*
X0336205Y0171474D01*
X0335876Y0172120D01*
X0335450Y0172705D01*
X0334938Y0173217D01*
X0334353Y0173643D01*
X0333707Y0173972D01*
X0333019Y0174195D01*
X0332304Y0174309D01*
X0332242Y0174309D01*
X0332242Y0170009D01*
X0331642Y0170009D01*
X0331642Y0174309D01*
X0331580Y0174309D01*
X0330864Y0174195D01*
X0330176Y0173972D01*
X0329531Y0173643D01*
X0328945Y0173217D01*
X0328433Y0172705D01*
X0328007Y0172120D01*
X0327679Y0171474D01*
X0327455Y0170786D01*
X0327342Y0170071D01*
X0327342Y0170009D01*
X0331642Y0170009D01*
X0331642Y0169409D01*
X0332242Y0169409D01*
X0332242Y0165109D01*
X0332304Y0165109D01*
X0333019Y0165222D01*
X0333707Y0165446D01*
X0334353Y0165774D01*
X0334938Y0166200D01*
X0335719Y0167082D02*
X0344209Y0167082D01*
X0344209Y0168080D02*
X0336249Y0168080D01*
X0336499Y0169079D02*
X0344209Y0169079D01*
X0344209Y0170077D02*
X0336541Y0170077D01*
X0336334Y0171076D02*
X0344209Y0171076D01*
X0344209Y0172074D02*
X0335899Y0172074D01*
X0335083Y0173073D02*
X0344209Y0173073D01*
X0344209Y0174071D02*
X0333401Y0174071D01*
X0332242Y0174071D02*
X0331642Y0174071D01*
X0331642Y0173073D02*
X0332242Y0173073D01*
X0332242Y0172074D02*
X0331642Y0172074D01*
X0331642Y0171076D02*
X0332242Y0171076D01*
X0332242Y0170077D02*
X0331642Y0170077D01*
X0331642Y0169409D02*
X0327342Y0169409D01*
X0327342Y0169347D01*
X0327455Y0168631D01*
X0327679Y0167943D01*
X0328007Y0167298D01*
X0328433Y0166712D01*
X0328945Y0166200D01*
X0329531Y0165774D01*
X0330176Y0165446D01*
X0330864Y0165222D01*
X0331580Y0165109D01*
X0331642Y0165109D01*
X0331642Y0169409D01*
X0331642Y0169079D02*
X0332242Y0169079D01*
X0332242Y0168080D02*
X0331642Y0168080D01*
X0331642Y0167082D02*
X0332242Y0167082D01*
X0332242Y0166083D02*
X0331642Y0166083D01*
X0329106Y0166083D02*
X0324538Y0166083D01*
X0323764Y0165309D02*
X0326342Y0167886D01*
X0326342Y0171531D01*
X0323764Y0174109D01*
X0320119Y0174109D01*
X0317542Y0171531D01*
X0317542Y0167886D01*
X0320119Y0165309D01*
X0323764Y0165309D01*
X0325537Y0167082D02*
X0328164Y0167082D01*
X0327634Y0168080D02*
X0326342Y0168080D01*
X0326342Y0169079D02*
X0327384Y0169079D01*
X0327343Y0170077D02*
X0326342Y0170077D01*
X0326342Y0171076D02*
X0327549Y0171076D01*
X0327984Y0172074D02*
X0325799Y0172074D01*
X0324800Y0173073D02*
X0328800Y0173073D01*
X0330482Y0174071D02*
X0323802Y0174071D01*
X0320081Y0174071D02*
X0313467Y0174071D01*
X0313262Y0173073D02*
X0319083Y0173073D01*
X0318084Y0172074D02*
X0313268Y0172074D01*
X0313273Y0171076D02*
X0317542Y0171076D01*
X0317542Y0170077D02*
X0313279Y0170077D01*
X0313284Y0169079D02*
X0317542Y0169079D01*
X0317542Y0168080D02*
X0313290Y0168080D01*
X0313296Y0167082D02*
X0318346Y0167082D01*
X0319345Y0166083D02*
X0313301Y0166083D01*
X0305701Y0166083D02*
X0283601Y0166083D01*
X0284531Y0165153D02*
X0281953Y0167731D01*
X0278308Y0167731D01*
X0275731Y0165153D01*
X0275731Y0161508D01*
X0278308Y0158931D01*
X0281953Y0158931D01*
X0284531Y0161508D01*
X0284531Y0165153D01*
X0284531Y0165084D02*
X0305707Y0165084D01*
X0305712Y0164086D02*
X0284531Y0164086D01*
X0284531Y0163087D02*
X0305718Y0163087D01*
X0305723Y0162089D02*
X0284531Y0162089D01*
X0284113Y0161090D02*
X0305729Y0161090D01*
X0305734Y0160092D02*
X0283114Y0160092D01*
X0282116Y0159093D02*
X0305740Y0159093D01*
X0305746Y0158095D02*
X0247379Y0158095D01*
X0247379Y0159093D02*
X0268314Y0159093D01*
X0268365Y0159068D02*
X0269053Y0158844D01*
X0269769Y0158731D01*
X0269831Y0158731D01*
X0269831Y0163031D01*
X0270431Y0163031D01*
X0270431Y0163631D01*
X0274731Y0163631D01*
X0274731Y0163693D01*
X0274617Y0164408D01*
X0274394Y0165096D01*
X0274065Y0165742D01*
X0273639Y0166327D01*
X0273127Y0166839D01*
X0272541Y0167265D01*
X0271896Y0167594D01*
X0271208Y0167817D01*
X0270493Y0167931D01*
X0270431Y0167931D01*
X0270431Y0163631D01*
X0269831Y0163631D01*
X0269831Y0167931D01*
X0269769Y0167931D01*
X0269053Y0167817D01*
X0268365Y0167594D01*
X0267720Y0167265D01*
X0267134Y0166839D01*
X0266622Y0166327D01*
X0266196Y0165742D01*
X0265868Y0165096D01*
X0265644Y0164408D01*
X0265531Y0163693D01*
X0265531Y0163631D01*
X0269830Y0163631D01*
X0269830Y0163031D01*
X0265531Y0163031D01*
X0265531Y0162969D01*
X0265644Y0162254D01*
X0265868Y0161565D01*
X0266196Y0160920D01*
X0266622Y0160334D01*
X0267134Y0159822D01*
X0267720Y0159396D01*
X0268365Y0159068D01*
X0269831Y0159093D02*
X0270431Y0159093D01*
X0270431Y0158731D02*
X0270493Y0158731D01*
X0271208Y0158844D01*
X0271896Y0159068D01*
X0272541Y0159396D01*
X0273127Y0159822D01*
X0273639Y0160334D01*
X0274065Y0160920D01*
X0274394Y0161565D01*
X0274617Y0162254D01*
X0274731Y0162969D01*
X0274731Y0163031D01*
X0270431Y0163031D01*
X0270431Y0158731D01*
X0270431Y0160092D02*
X0269831Y0160092D01*
X0269831Y0161090D02*
X0270431Y0161090D01*
X0270431Y0162089D02*
X0269831Y0162089D01*
X0269830Y0163087D02*
X0247379Y0163087D01*
X0247379Y0162089D02*
X0265697Y0162089D01*
X0266109Y0161090D02*
X0247379Y0161090D01*
X0247379Y0160092D02*
X0266864Y0160092D01*
X0265593Y0164086D02*
X0247379Y0164086D01*
X0247379Y0165084D02*
X0265864Y0165084D01*
X0266444Y0166083D02*
X0247379Y0166083D01*
X0247379Y0167082D02*
X0267467Y0167082D01*
X0269831Y0167082D02*
X0270431Y0167082D01*
X0270431Y0166083D02*
X0269831Y0166083D01*
X0269831Y0165084D02*
X0270431Y0165084D01*
X0270431Y0164086D02*
X0269831Y0164086D01*
X0270431Y0163087D02*
X0275731Y0163087D01*
X0275731Y0162089D02*
X0274564Y0162089D01*
X0274152Y0161090D02*
X0276148Y0161090D01*
X0277147Y0160092D02*
X0273397Y0160092D01*
X0271947Y0159093D02*
X0278145Y0159093D01*
X0275731Y0164086D02*
X0274668Y0164086D01*
X0274397Y0165084D02*
X0275731Y0165084D01*
X0276660Y0166083D02*
X0273817Y0166083D01*
X0272794Y0167082D02*
X0277659Y0167082D01*
X0282602Y0167082D02*
X0305695Y0167082D01*
X0305690Y0168080D02*
X0247379Y0168080D01*
X0247379Y0169079D02*
X0305684Y0169079D01*
X0305679Y0170077D02*
X0247379Y0170077D01*
X0247379Y0171076D02*
X0305673Y0171076D01*
X0305668Y0172074D02*
X0247379Y0172074D01*
X0247379Y0173073D02*
X0305662Y0173073D01*
X0305656Y0174071D02*
X0300537Y0174071D01*
X0300936Y0174237D02*
X0302146Y0175446D01*
X0302801Y0177027D01*
X0302801Y0178737D01*
X0302146Y0180318D01*
X0300936Y0181527D01*
X0299356Y0182182D01*
X0291645Y0182182D01*
X0290065Y0181527D01*
X0288855Y0180318D01*
X0288201Y0178737D01*
X0288201Y0177027D01*
X0288855Y0175446D01*
X0290065Y0174237D01*
X0291645Y0173582D01*
X0299356Y0173582D01*
X0300936Y0174237D01*
X0301769Y0175070D02*
X0305651Y0175070D01*
X0305581Y0176068D02*
X0302404Y0176068D01*
X0302801Y0177067D02*
X0305767Y0177067D01*
X0306174Y0178065D02*
X0302801Y0178065D01*
X0302665Y0179064D02*
X0307108Y0179064D01*
X0308722Y0180062D02*
X0302252Y0180062D01*
X0301403Y0181061D02*
X0310300Y0181061D01*
X0311879Y0182059D02*
X0299652Y0182059D01*
X0299356Y0183582D02*
X0300936Y0184237D01*
X0302146Y0185446D01*
X0302801Y0187027D01*
X0302801Y0188737D01*
X0302146Y0190318D01*
X0300936Y0191527D01*
X0299356Y0192182D01*
X0291645Y0192182D01*
X0290065Y0191527D01*
X0288855Y0190318D01*
X0288201Y0188737D01*
X0288201Y0187027D01*
X0288855Y0185446D01*
X0290065Y0184237D01*
X0291645Y0183582D01*
X0299356Y0183582D01*
X0300501Y0184056D02*
X0315036Y0184056D01*
X0313457Y0183058D02*
X0247379Y0183058D01*
X0247379Y0184056D02*
X0290500Y0184056D01*
X0289247Y0185055D02*
X0247379Y0185055D01*
X0247379Y0186053D02*
X0288604Y0186053D01*
X0288201Y0187052D02*
X0247379Y0187052D01*
X0247379Y0188050D02*
X0288201Y0188050D01*
X0288330Y0189049D02*
X0247379Y0189049D01*
X0247379Y0189119D02*
X0246998Y0190038D01*
X0240286Y0196750D01*
X0240286Y0199016D01*
X0239524Y0199777D01*
X0234485Y0199777D01*
X0233723Y0199016D01*
X0233723Y0193976D01*
X0234485Y0193215D01*
X0236750Y0193215D01*
X0242379Y0187587D01*
X0242379Y0148596D01*
X0242359Y0148596D01*
X0241598Y0147835D01*
X0241598Y0142795D01*
X0242359Y0142034D01*
X0247398Y0142034D01*
X0248160Y0142795D01*
X0248160Y0147835D01*
X0247398Y0148596D01*
X0247379Y0148596D01*
X0247379Y0189119D01*
X0246989Y0190047D02*
X0288743Y0190047D01*
X0289583Y0191046D02*
X0245990Y0191046D01*
X0244992Y0192044D02*
X0291313Y0192044D01*
X0291645Y0193582D02*
X0290065Y0194237D01*
X0288855Y0195446D01*
X0288201Y0197027D01*
X0288201Y0198737D01*
X0288855Y0200318D01*
X0290065Y0201527D01*
X0291645Y0202182D01*
X0299356Y0202182D01*
X0300936Y0201527D01*
X0302146Y0200318D01*
X0302801Y0198737D01*
X0302801Y0197027D01*
X0302146Y0195446D01*
X0300936Y0194237D01*
X0299356Y0193582D01*
X0291645Y0193582D01*
X0290536Y0194041D02*
X0242995Y0194041D01*
X0243993Y0193043D02*
X0320646Y0193043D01*
X0320646Y0194041D02*
X0300465Y0194041D01*
X0301740Y0195040D02*
X0320646Y0195040D01*
X0320646Y0196038D02*
X0302391Y0196038D01*
X0302801Y0197037D02*
X0320646Y0197037D01*
X0320646Y0198035D02*
X0302801Y0198035D01*
X0302678Y0199034D02*
X0320646Y0199034D01*
X0320646Y0200032D02*
X0302264Y0200032D01*
X0301433Y0201031D02*
X0320646Y0201031D01*
X0320646Y0202029D02*
X0299724Y0202029D01*
X0291277Y0202029D02*
X0232164Y0202029D01*
X0231165Y0201031D02*
X0289569Y0201031D01*
X0288737Y0200032D02*
X0230167Y0200032D01*
X0229168Y0199034D02*
X0233742Y0199034D01*
X0233723Y0198035D02*
X0228170Y0198035D01*
X0227171Y0197037D02*
X0233723Y0197037D01*
X0233723Y0196038D02*
X0226173Y0196038D01*
X0225174Y0195040D02*
X0233723Y0195040D01*
X0233723Y0194041D02*
X0224176Y0194041D01*
X0223177Y0193043D02*
X0236922Y0193043D01*
X0237921Y0192044D02*
X0222179Y0192044D01*
X0221180Y0191046D02*
X0238919Y0191046D01*
X0239918Y0190047D02*
X0220182Y0190047D01*
X0219183Y0189049D02*
X0240916Y0189049D01*
X0241915Y0188050D02*
X0218185Y0188050D01*
X0217186Y0187052D02*
X0242379Y0187052D01*
X0242379Y0186053D02*
X0216188Y0186053D01*
X0214700Y0185055D02*
X0242379Y0185055D01*
X0242379Y0184056D02*
X0208618Y0184056D01*
X0209617Y0183058D02*
X0242379Y0183058D01*
X0242379Y0182059D02*
X0210068Y0182059D01*
X0210336Y0181061D02*
X0242379Y0181061D01*
X0242379Y0180062D02*
X0210336Y0180062D01*
X0210072Y0179064D02*
X0242379Y0179064D01*
X0242379Y0178065D02*
X0209626Y0178065D01*
X0208628Y0177067D02*
X0213481Y0177067D01*
X0214181Y0177357D02*
X0212601Y0176702D01*
X0211391Y0175492D01*
X0210736Y0173912D01*
X0210736Y0172201D01*
X0211391Y0170621D01*
X0212601Y0169411D01*
X0214181Y0168757D01*
X0221892Y0168757D01*
X0223472Y0169411D01*
X0224682Y0170621D01*
X0225336Y0172201D01*
X0225336Y0173912D01*
X0224682Y0175492D01*
X0223472Y0176702D01*
X0221892Y0177357D01*
X0214181Y0177357D01*
X0211967Y0176068D02*
X0181749Y0176068D01*
X0181749Y0175070D02*
X0211216Y0175070D01*
X0210802Y0174071D02*
X0181749Y0174071D01*
X0181749Y0173073D02*
X0210736Y0173073D01*
X0210789Y0172074D02*
X0181749Y0172074D01*
X0181749Y0171076D02*
X0211203Y0171076D01*
X0211935Y0170077D02*
X0181749Y0170077D01*
X0181749Y0169079D02*
X0197477Y0169079D01*
X0197601Y0169202D02*
X0196391Y0167992D01*
X0195736Y0166412D01*
X0195736Y0164701D01*
X0196391Y0163121D01*
X0197601Y0161911D01*
X0199181Y0161257D01*
X0206892Y0161257D01*
X0208472Y0161911D01*
X0209682Y0163121D01*
X0210336Y0164701D01*
X0210336Y0166412D01*
X0209682Y0167992D01*
X0208472Y0169202D01*
X0206892Y0169857D01*
X0199181Y0169857D01*
X0197601Y0169202D01*
X0196479Y0168080D02*
X0181749Y0168080D01*
X0181749Y0167082D02*
X0196014Y0167082D01*
X0195736Y0166083D02*
X0181749Y0166083D01*
X0181749Y0165084D02*
X0195736Y0165084D01*
X0195991Y0164086D02*
X0181749Y0164086D01*
X0181749Y0163087D02*
X0196425Y0163087D01*
X0197423Y0162089D02*
X0181749Y0162089D01*
X0181749Y0161090D02*
X0185308Y0161090D01*
X0184309Y0160092D02*
X0181749Y0160092D01*
X0181749Y0159093D02*
X0183311Y0159093D01*
X0182878Y0158095D02*
X0181749Y0158095D01*
X0181749Y0157096D02*
X0182878Y0157096D01*
X0182878Y0156098D02*
X0181749Y0156098D01*
X0181549Y0155099D02*
X0182878Y0155099D01*
X0183671Y0154101D02*
X0181086Y0154101D01*
X0180087Y0153102D02*
X0184669Y0153102D01*
X0190183Y0153102D02*
X0196501Y0153102D01*
X0197500Y0154101D02*
X0191182Y0154101D01*
X0191974Y0155099D02*
X0211913Y0155099D01*
X0211391Y0155621D02*
X0212601Y0154411D01*
X0214181Y0153757D01*
X0221892Y0153757D01*
X0223472Y0154411D01*
X0224682Y0155621D01*
X0225336Y0157201D01*
X0225336Y0158912D01*
X0224682Y0160492D01*
X0223472Y0161702D01*
X0221892Y0162357D01*
X0214181Y0162357D01*
X0212601Y0161702D01*
X0211391Y0160492D01*
X0210736Y0158912D01*
X0210736Y0157201D01*
X0211391Y0155621D01*
X0211194Y0156098D02*
X0191974Y0156098D01*
X0191974Y0157096D02*
X0210780Y0157096D01*
X0210736Y0158095D02*
X0191974Y0158095D01*
X0191542Y0159093D02*
X0210812Y0159093D01*
X0211225Y0160092D02*
X0190543Y0160092D01*
X0189545Y0161090D02*
X0211989Y0161090D01*
X0213535Y0162089D02*
X0208650Y0162089D01*
X0209648Y0163087D02*
X0242379Y0163087D01*
X0242379Y0162089D02*
X0222538Y0162089D01*
X0224084Y0161090D02*
X0242379Y0161090D01*
X0242379Y0160092D02*
X0224848Y0160092D01*
X0225261Y0159093D02*
X0242379Y0159093D01*
X0242379Y0158095D02*
X0225336Y0158095D01*
X0225293Y0157096D02*
X0242379Y0157096D01*
X0242379Y0156098D02*
X0224879Y0156098D01*
X0224160Y0155099D02*
X0242379Y0155099D01*
X0242379Y0154101D02*
X0222723Y0154101D01*
X0213350Y0154101D02*
X0208573Y0154101D01*
X0209572Y0153102D02*
X0242379Y0153102D01*
X0242379Y0152104D02*
X0210050Y0152104D01*
X0210336Y0151105D02*
X0242379Y0151105D01*
X0242379Y0150107D02*
X0210336Y0150107D01*
X0210091Y0149108D02*
X0242379Y0149108D01*
X0241873Y0148110D02*
X0209671Y0148110D01*
X0208672Y0147111D02*
X0241598Y0147111D01*
X0241598Y0146113D02*
X0203967Y0146113D01*
X0210082Y0164086D02*
X0242379Y0164086D01*
X0242379Y0165084D02*
X0210336Y0165084D01*
X0210336Y0166083D02*
X0242379Y0166083D01*
X0242379Y0167082D02*
X0210059Y0167082D01*
X0209594Y0168080D02*
X0242379Y0168080D01*
X0242379Y0169079D02*
X0222669Y0169079D01*
X0224138Y0170077D02*
X0242379Y0170077D01*
X0242379Y0171076D02*
X0224870Y0171076D01*
X0225284Y0172074D02*
X0242379Y0172074D01*
X0242379Y0173073D02*
X0225336Y0173073D01*
X0225271Y0174071D02*
X0242379Y0174071D01*
X0242379Y0175070D02*
X0224857Y0175070D01*
X0224106Y0176068D02*
X0242379Y0176068D01*
X0242379Y0177067D02*
X0222592Y0177067D01*
X0213404Y0169079D02*
X0208596Y0169079D01*
X0197445Y0177067D02*
X0181749Y0177067D01*
X0181749Y0178065D02*
X0196447Y0178065D01*
X0196001Y0179064D02*
X0181749Y0179064D01*
X0182638Y0180062D02*
X0195736Y0180062D01*
X0195736Y0181061D02*
X0183636Y0181061D01*
X0184635Y0182059D02*
X0196005Y0182059D01*
X0196456Y0183058D02*
X0185633Y0183058D01*
X0186632Y0184056D02*
X0197455Y0184056D01*
X0179088Y0205025D02*
X0161932Y0205025D01*
X0160934Y0206023D02*
X0178089Y0206023D01*
X0177586Y0207022D02*
X0159935Y0207022D01*
X0158937Y0208020D02*
X0177586Y0208020D01*
X0177586Y0209019D02*
X0157938Y0209019D01*
X0156940Y0210017D02*
X0177586Y0210017D01*
X0178514Y0211016D02*
X0155941Y0211016D01*
X0154943Y0212015D02*
X0179513Y0212015D01*
X0147872Y0212015D02*
X0116020Y0212015D01*
X0116020Y0213013D02*
X0146873Y0213013D01*
X0145875Y0214012D02*
X0116020Y0214012D01*
X0116020Y0215010D02*
X0144876Y0215010D01*
X0143878Y0216009D02*
X0116020Y0216009D01*
X0116020Y0217007D02*
X0142879Y0217007D01*
X0141881Y0218006D02*
X0116020Y0218006D01*
X0116020Y0219004D02*
X0141059Y0219004D01*
X0140804Y0220003D02*
X0116020Y0220003D01*
X0116020Y0221001D02*
X0140804Y0221001D01*
X0140804Y0222000D02*
X0116020Y0222000D01*
X0116020Y0222998D02*
X0140804Y0222998D01*
X0139248Y0223997D02*
X0116020Y0223997D01*
X0116020Y0224995D02*
X0139153Y0224995D01*
X0139153Y0225994D02*
X0116020Y0225994D01*
X0116020Y0226992D02*
X0139153Y0226992D01*
X0139153Y0227991D02*
X0116020Y0227991D01*
X0116020Y0228989D02*
X0139153Y0228989D01*
X0139153Y0229988D02*
X0116020Y0229988D01*
X0116020Y0230986D02*
X0139428Y0230986D01*
X0116020Y0231985D02*
X0300539Y0231985D01*
X0300539Y0230986D02*
X0287022Y0230986D01*
X0287297Y0230712D02*
X0286535Y0231473D01*
X0279915Y0231473D01*
X0279153Y0230712D01*
X0279153Y0224091D01*
X0279915Y0223330D01*
X0286535Y0223330D01*
X0287297Y0224091D01*
X0287297Y0230712D01*
X0287297Y0229988D02*
X0300539Y0229988D01*
X0300539Y0228989D02*
X0287297Y0228989D01*
X0287297Y0227991D02*
X0300539Y0227991D01*
X0300539Y0226992D02*
X0287297Y0226992D01*
X0287297Y0225994D02*
X0300634Y0225994D01*
X0301048Y0224995D02*
X0287297Y0224995D01*
X0287202Y0223997D02*
X0301840Y0223997D01*
X0287297Y0237976D02*
X0344209Y0237976D01*
X0344209Y0238974D02*
X0287297Y0238974D01*
X0287297Y0239973D02*
X0344209Y0239973D01*
X0344209Y0240971D02*
X0287037Y0240971D01*
X0279413Y0240971D02*
X0277037Y0240971D01*
X0277297Y0239973D02*
X0279153Y0239973D01*
X0279153Y0238974D02*
X0277297Y0238974D01*
X0277297Y0237976D02*
X0279153Y0237976D01*
X0279153Y0236977D02*
X0277297Y0236977D01*
X0277297Y0235979D02*
X0279153Y0235979D01*
X0279153Y0234980D02*
X0277297Y0234980D01*
X0277187Y0233982D02*
X0279263Y0233982D01*
X0279428Y0230986D02*
X0277022Y0230986D01*
X0277297Y0230712D02*
X0276535Y0231473D01*
X0269915Y0231473D01*
X0269153Y0230712D01*
X0269153Y0224091D01*
X0269915Y0223330D01*
X0276535Y0223330D01*
X0277297Y0224091D01*
X0277297Y0230712D01*
X0277297Y0229988D02*
X0279153Y0229988D01*
X0279153Y0228989D02*
X0277297Y0228989D01*
X0277297Y0227991D02*
X0279153Y0227991D01*
X0279153Y0226992D02*
X0277297Y0226992D01*
X0277297Y0225994D02*
X0279153Y0225994D01*
X0279153Y0224995D02*
X0277297Y0224995D01*
X0277202Y0223997D02*
X0279248Y0223997D01*
X0269248Y0223997D02*
X0267202Y0223997D01*
X0267297Y0224091D02*
X0267297Y0230712D01*
X0266535Y0231473D01*
X0259915Y0231473D01*
X0259153Y0230712D01*
X0259153Y0224091D01*
X0259915Y0223330D01*
X0266535Y0223330D01*
X0267297Y0224091D01*
X0267297Y0224995D02*
X0269153Y0224995D01*
X0269153Y0225994D02*
X0267297Y0225994D01*
X0267297Y0226992D02*
X0269153Y0226992D01*
X0269153Y0227991D02*
X0267297Y0227991D01*
X0267297Y0228989D02*
X0269153Y0228989D01*
X0269153Y0229988D02*
X0267297Y0229988D01*
X0267022Y0230986D02*
X0269428Y0230986D01*
X0269263Y0233982D02*
X0267187Y0233982D01*
X0267297Y0234980D02*
X0269153Y0234980D01*
X0269153Y0235979D02*
X0267297Y0235979D01*
X0267297Y0236977D02*
X0269153Y0236977D01*
X0269153Y0237976D02*
X0267297Y0237976D01*
X0267297Y0238974D02*
X0269153Y0238974D01*
X0269153Y0239973D02*
X0267297Y0239973D01*
X0267037Y0240971D02*
X0269413Y0240971D01*
X0259413Y0240971D02*
X0257037Y0240971D01*
X0257297Y0239973D02*
X0259153Y0239973D01*
X0259153Y0238974D02*
X0257297Y0238974D01*
X0257297Y0237976D02*
X0259153Y0237976D01*
X0259153Y0236977D02*
X0257297Y0236977D01*
X0257297Y0235979D02*
X0259153Y0235979D01*
X0259153Y0234980D02*
X0257297Y0234980D01*
X0257187Y0233982D02*
X0259263Y0233982D01*
X0259428Y0230986D02*
X0257022Y0230986D01*
X0257297Y0230712D02*
X0256535Y0231473D01*
X0249915Y0231473D01*
X0249153Y0230712D01*
X0249153Y0224091D01*
X0249915Y0223330D01*
X0256535Y0223330D01*
X0257297Y0224091D01*
X0257297Y0230712D01*
X0257297Y0229988D02*
X0259153Y0229988D01*
X0259153Y0228989D02*
X0257297Y0228989D01*
X0257297Y0227991D02*
X0259153Y0227991D01*
X0259153Y0226992D02*
X0257297Y0226992D01*
X0257297Y0225994D02*
X0259153Y0225994D01*
X0259153Y0224995D02*
X0257297Y0224995D01*
X0257202Y0223997D02*
X0259248Y0223997D01*
X0249248Y0223997D02*
X0247202Y0223997D01*
X0247297Y0224091D02*
X0247297Y0230712D01*
X0246535Y0231473D01*
X0239915Y0231473D01*
X0239153Y0230712D01*
X0239153Y0224091D01*
X0239915Y0223330D01*
X0246535Y0223330D01*
X0247297Y0224091D01*
X0247297Y0224995D02*
X0249153Y0224995D01*
X0249153Y0225994D02*
X0247297Y0225994D01*
X0247297Y0226992D02*
X0249153Y0226992D01*
X0249153Y0227991D02*
X0247297Y0227991D01*
X0247297Y0228989D02*
X0249153Y0228989D01*
X0249153Y0229988D02*
X0247297Y0229988D01*
X0247022Y0230986D02*
X0249428Y0230986D01*
X0249263Y0233982D02*
X0247187Y0233982D01*
X0247297Y0234980D02*
X0249153Y0234980D01*
X0249153Y0235979D02*
X0247297Y0235979D01*
X0247297Y0236977D02*
X0249153Y0236977D01*
X0249153Y0237976D02*
X0247297Y0237976D01*
X0247297Y0238974D02*
X0249153Y0238974D01*
X0249153Y0239973D02*
X0247297Y0239973D01*
X0247037Y0240971D02*
X0249413Y0240971D01*
X0239413Y0240971D02*
X0237268Y0240971D01*
X0237497Y0239973D02*
X0239153Y0239973D01*
X0239153Y0238974D02*
X0237497Y0238974D01*
X0237497Y0237976D02*
X0239153Y0237976D01*
X0239153Y0236977D02*
X0237497Y0236977D01*
X0237497Y0235979D02*
X0239153Y0235979D01*
X0239153Y0234980D02*
X0237497Y0234980D01*
X0237355Y0233982D02*
X0239263Y0233982D01*
X0239428Y0230986D02*
X0237022Y0230986D01*
X0237297Y0230712D02*
X0236535Y0231473D01*
X0229915Y0231473D01*
X0229153Y0230712D01*
X0229153Y0224091D01*
X0229915Y0223330D01*
X0236535Y0223330D01*
X0237297Y0224091D01*
X0237297Y0230712D01*
X0237297Y0229988D02*
X0239153Y0229988D01*
X0239153Y0228989D02*
X0237297Y0228989D01*
X0237297Y0227991D02*
X0239153Y0227991D01*
X0239153Y0226992D02*
X0237297Y0226992D01*
X0237297Y0225994D02*
X0239153Y0225994D01*
X0239153Y0224995D02*
X0237297Y0224995D01*
X0237202Y0223997D02*
X0239248Y0223997D01*
X0229248Y0223997D02*
X0227202Y0223997D01*
X0227297Y0224091D02*
X0227297Y0230712D01*
X0226535Y0231473D01*
X0219915Y0231473D01*
X0219153Y0230712D01*
X0219153Y0224091D01*
X0219915Y0223330D01*
X0226535Y0223330D01*
X0227297Y0224091D01*
X0227297Y0224995D02*
X0229153Y0224995D01*
X0229153Y0225994D02*
X0227297Y0225994D01*
X0227297Y0226992D02*
X0229153Y0226992D01*
X0229153Y0227991D02*
X0227297Y0227991D01*
X0227297Y0228989D02*
X0229153Y0228989D01*
X0229153Y0229988D02*
X0227297Y0229988D01*
X0227022Y0230986D02*
X0229428Y0230986D01*
X0229096Y0233982D02*
X0227355Y0233982D01*
X0227497Y0234980D02*
X0228953Y0234980D01*
X0228953Y0235979D02*
X0227497Y0235979D01*
X0227497Y0236977D02*
X0228953Y0236977D01*
X0228953Y0237976D02*
X0227497Y0237976D01*
X0227497Y0238974D02*
X0228953Y0238974D01*
X0228953Y0239973D02*
X0227497Y0239973D01*
X0227268Y0240971D02*
X0229182Y0240971D01*
X0232839Y0236977D02*
X0233611Y0236977D01*
X0233611Y0235979D02*
X0232839Y0235979D01*
X0232839Y0234980D02*
X0233611Y0234980D01*
X0233611Y0233982D02*
X0232839Y0233982D01*
X0223611Y0233982D02*
X0222839Y0233982D01*
X0222839Y0234980D02*
X0223611Y0234980D01*
X0223611Y0235979D02*
X0222839Y0235979D01*
X0222839Y0236977D02*
X0223611Y0236977D01*
X0218953Y0236977D02*
X0217297Y0236977D01*
X0217297Y0235979D02*
X0218953Y0235979D01*
X0218953Y0234980D02*
X0217297Y0234980D01*
X0217187Y0233982D02*
X0219096Y0233982D01*
X0219428Y0230986D02*
X0217022Y0230986D01*
X0217297Y0229988D02*
X0219153Y0229988D01*
X0219153Y0228989D02*
X0217297Y0228989D01*
X0217297Y0227991D02*
X0219153Y0227991D01*
X0219153Y0226992D02*
X0217297Y0226992D01*
X0217297Y0225994D02*
X0219153Y0225994D01*
X0219153Y0224995D02*
X0217297Y0224995D01*
X0217202Y0223997D02*
X0219248Y0223997D01*
X0218953Y0237976D02*
X0217297Y0237976D01*
X0217297Y0238974D02*
X0218953Y0238974D01*
X0218953Y0239973D02*
X0217297Y0239973D01*
X0217037Y0240971D02*
X0219182Y0240971D01*
X0238155Y0208020D02*
X0320646Y0208020D01*
X0320646Y0207022D02*
X0237156Y0207022D01*
X0236158Y0206023D02*
X0320646Y0206023D01*
X0320646Y0205025D02*
X0235159Y0205025D01*
X0234161Y0204026D02*
X0320646Y0204026D01*
X0320646Y0203028D02*
X0233162Y0203028D01*
X0240267Y0199034D02*
X0288324Y0199034D01*
X0288201Y0198035D02*
X0240286Y0198035D01*
X0240286Y0197037D02*
X0288201Y0197037D01*
X0288610Y0196038D02*
X0240998Y0196038D01*
X0241996Y0195040D02*
X0289262Y0195040D01*
X0299688Y0192044D02*
X0320646Y0192044D01*
X0320646Y0191046D02*
X0301418Y0191046D01*
X0302258Y0190047D02*
X0320646Y0190047D01*
X0320646Y0189049D02*
X0302672Y0189049D01*
X0302801Y0188050D02*
X0320646Y0188050D01*
X0319772Y0187052D02*
X0302801Y0187052D01*
X0302397Y0186053D02*
X0318193Y0186053D01*
X0316615Y0185055D02*
X0301755Y0185055D01*
X0291349Y0182059D02*
X0247379Y0182059D01*
X0247379Y0181061D02*
X0289598Y0181061D01*
X0288749Y0180062D02*
X0247379Y0180062D01*
X0247379Y0179064D02*
X0288336Y0179064D01*
X0288201Y0178065D02*
X0247379Y0178065D01*
X0247379Y0177067D02*
X0288201Y0177067D01*
X0288598Y0176068D02*
X0247379Y0176068D01*
X0247379Y0175070D02*
X0289232Y0175070D01*
X0290464Y0174071D02*
X0247379Y0174071D01*
X0247379Y0157096D02*
X0305751Y0157096D01*
X0305757Y0156098D02*
X0247379Y0156098D01*
X0247379Y0155099D02*
X0305762Y0155099D01*
X0305768Y0154101D02*
X0247379Y0154101D01*
X0247379Y0153102D02*
X0305774Y0153102D01*
X0305779Y0152104D02*
X0247379Y0152104D01*
X0247379Y0151105D02*
X0305785Y0151105D01*
X0305790Y0150107D02*
X0287413Y0150107D01*
X0287116Y0150404D02*
X0283885Y0150404D01*
X0281601Y0148119D01*
X0281601Y0144889D01*
X0283885Y0142604D01*
X0287116Y0142604D01*
X0289401Y0144889D01*
X0289401Y0148119D01*
X0287116Y0150404D01*
X0288412Y0149108D02*
X0305796Y0149108D01*
X0305801Y0148110D02*
X0289401Y0148110D01*
X0289401Y0147111D02*
X0305807Y0147111D01*
X0305813Y0146113D02*
X0289401Y0146113D01*
X0289401Y0145114D02*
X0305818Y0145114D01*
X0305824Y0144116D02*
X0288628Y0144116D01*
X0287629Y0143117D02*
X0305829Y0143117D01*
X0305835Y0142119D02*
X0247483Y0142119D01*
X0248160Y0143117D02*
X0263089Y0143117D01*
X0263802Y0142404D02*
X0261401Y0144806D01*
X0261401Y0146204D01*
X0265201Y0146204D01*
X0265801Y0146204D01*
X0265801Y0146804D01*
X0269601Y0146804D01*
X0269601Y0148202D01*
X0267199Y0150604D01*
X0265801Y0150604D01*
X0265801Y0146804D01*
X0265201Y0146804D01*
X0265201Y0150604D01*
X0263802Y0150604D01*
X0261401Y0148202D01*
X0261401Y0146804D01*
X0265201Y0146804D01*
X0265201Y0146204D01*
X0265201Y0142404D01*
X0263802Y0142404D01*
X0265201Y0143117D02*
X0265801Y0143117D01*
X0265801Y0142404D02*
X0267199Y0142404D01*
X0269601Y0144806D01*
X0269601Y0146204D01*
X0265801Y0146204D01*
X0265801Y0142404D01*
X0265801Y0144116D02*
X0265201Y0144116D01*
X0265201Y0145114D02*
X0265801Y0145114D01*
X0265801Y0146113D02*
X0265201Y0146113D01*
X0265201Y0147111D02*
X0265801Y0147111D01*
X0265801Y0148110D02*
X0265201Y0148110D01*
X0265201Y0149108D02*
X0265801Y0149108D01*
X0265801Y0150107D02*
X0265201Y0150107D01*
X0263305Y0150107D02*
X0247379Y0150107D01*
X0247379Y0149108D02*
X0262307Y0149108D01*
X0261401Y0148110D02*
X0247884Y0148110D01*
X0248160Y0147111D02*
X0261401Y0147111D01*
X0261401Y0146113D02*
X0248160Y0146113D01*
X0248160Y0145114D02*
X0261401Y0145114D01*
X0262091Y0144116D02*
X0248160Y0144116D01*
X0242274Y0142119D02*
X0181062Y0142119D01*
X0181062Y0143117D02*
X0241598Y0143117D01*
X0241598Y0144116D02*
X0181062Y0144116D01*
X0180673Y0145114D02*
X0241598Y0145114D01*
X0266264Y0135129D02*
X0305874Y0135129D01*
X0305880Y0134131D02*
X0267262Y0134131D01*
X0268261Y0133132D02*
X0305885Y0133132D01*
X0305891Y0132134D02*
X0268470Y0132134D01*
X0268470Y0131135D02*
X0305896Y0131135D01*
X0305902Y0130137D02*
X0268470Y0130137D01*
X0268247Y0129138D02*
X0305907Y0129138D01*
X0305913Y0128140D02*
X0267249Y0128140D01*
X0266250Y0127141D02*
X0305919Y0127141D01*
X0305924Y0126143D02*
X0179928Y0126143D01*
X0178930Y0127141D02*
X0262090Y0127141D01*
X0267912Y0143117D02*
X0283372Y0143117D01*
X0282373Y0144116D02*
X0268911Y0144116D01*
X0269601Y0145114D02*
X0281601Y0145114D01*
X0281601Y0146113D02*
X0269601Y0146113D01*
X0269601Y0147111D02*
X0281601Y0147111D01*
X0281601Y0148110D02*
X0269601Y0148110D01*
X0268695Y0149108D02*
X0282590Y0149108D01*
X0283588Y0150107D02*
X0267696Y0150107D01*
X0289626Y0124146D02*
X0181262Y0124146D01*
X0180927Y0125144D02*
X0305930Y0125144D01*
X0305935Y0124146D02*
X0300381Y0124146D01*
X0301413Y0123147D02*
X0305941Y0123147D01*
X0305946Y0122148D02*
X0301965Y0122148D01*
X0302303Y0121150D02*
X0305952Y0121150D01*
X0305958Y0120151D02*
X0302303Y0120151D01*
X0302110Y0119153D02*
X0305963Y0119153D01*
X0305969Y0118154D02*
X0301696Y0118154D01*
X0300764Y0117156D02*
X0305974Y0117156D01*
X0305980Y0116157D02*
X0202558Y0116157D01*
X0203557Y0115159D02*
X0305986Y0115159D01*
X0305991Y0114160D02*
X0300345Y0114160D01*
X0301399Y0113162D02*
X0305997Y0113162D01*
X0306002Y0112163D02*
X0301959Y0112163D01*
X0302303Y0111165D02*
X0306008Y0111165D01*
X0306013Y0110166D02*
X0302303Y0110166D01*
X0302116Y0109168D02*
X0306019Y0109168D01*
X0306025Y0108169D02*
X0301702Y0108169D01*
X0300779Y0107171D02*
X0306030Y0107171D01*
X0337172Y0107171D02*
X0344209Y0107171D01*
X0344209Y0108169D02*
X0338171Y0108169D01*
X0338651Y0109168D02*
X0344209Y0109168D01*
X0344209Y0110166D02*
X0338651Y0110166D01*
X0338651Y0111165D02*
X0344209Y0111165D01*
X0344209Y0112163D02*
X0338651Y0112163D01*
X0337949Y0113162D02*
X0344209Y0113162D01*
X0344209Y0114160D02*
X0336950Y0114160D01*
X0338719Y0125144D02*
X0339319Y0125144D01*
X0339319Y0126143D02*
X0338719Y0126143D01*
X0338719Y0127141D02*
X0339319Y0127141D01*
X0339319Y0128140D02*
X0338719Y0128140D01*
X0315831Y0150107D02*
X0313390Y0150107D01*
X0313385Y0151105D02*
X0314833Y0151105D01*
X0313834Y0152104D02*
X0313379Y0152104D01*
X0313374Y0153102D02*
X0313569Y0153102D01*
X0313569Y0154101D02*
X0313368Y0154101D01*
X0313362Y0155099D02*
X0313569Y0155099D01*
X0313357Y0156098D02*
X0314067Y0156098D01*
X0313351Y0157096D02*
X0315066Y0157096D01*
X0305840Y0141120D02*
X0180687Y0141120D01*
X0179689Y0140122D02*
X0305846Y0140122D01*
X0315046Y0175070D02*
X0344209Y0175070D01*
X0344209Y0176068D02*
X0316624Y0176068D01*
X0318203Y0177067D02*
X0344209Y0177067D01*
X0344209Y0178065D02*
X0319781Y0178065D01*
X0321360Y0179064D02*
X0344209Y0179064D01*
X0344209Y0180062D02*
X0322939Y0180062D01*
X0324517Y0181061D02*
X0344209Y0181061D01*
X0344209Y0182059D02*
X0326096Y0182059D01*
X0327365Y0183058D02*
X0344209Y0183058D01*
X0344209Y0184056D02*
X0328013Y0184056D01*
X0328246Y0185055D02*
X0344209Y0185055D01*
X0344209Y0186053D02*
X0328246Y0186053D01*
X0328246Y0187052D02*
X0344209Y0187052D01*
X0344209Y0188050D02*
X0328246Y0188050D01*
X0328246Y0189049D02*
X0344209Y0189049D01*
X0344209Y0190047D02*
X0328246Y0190047D01*
X0328246Y0191046D02*
X0344209Y0191046D01*
X0344209Y0192044D02*
X0328246Y0192044D01*
X0328246Y0193043D02*
X0344209Y0193043D01*
X0344209Y0194041D02*
X0328246Y0194041D01*
X0328246Y0195040D02*
X0344209Y0195040D01*
X0344209Y0196038D02*
X0328246Y0196038D01*
X0328246Y0197037D02*
X0344209Y0197037D01*
X0344209Y0198035D02*
X0328246Y0198035D01*
X0328246Y0199034D02*
X0344209Y0199034D01*
X0344209Y0200032D02*
X0328246Y0200032D01*
X0328246Y0201031D02*
X0344209Y0201031D01*
X0344209Y0202029D02*
X0328246Y0202029D01*
X0328246Y0203028D02*
X0344209Y0203028D01*
X0344209Y0204026D02*
X0328246Y0204026D01*
X0328246Y0205025D02*
X0344209Y0205025D01*
X0344209Y0206023D02*
X0328246Y0206023D01*
X0328246Y0207022D02*
X0336256Y0207022D01*
X0336715Y0206563D02*
X0338079Y0206563D01*
X0338079Y0210563D01*
X0334079Y0210563D01*
X0334079Y0209199D01*
X0336715Y0206563D01*
X0338079Y0207022D02*
X0339079Y0207022D01*
X0339079Y0206563D02*
X0340443Y0206563D01*
X0343079Y0209199D01*
X0343079Y0210563D01*
X0339079Y0210563D01*
X0339079Y0206563D01*
X0339079Y0208020D02*
X0338079Y0208020D01*
X0338079Y0209019D02*
X0339079Y0209019D01*
X0339079Y0210017D02*
X0338079Y0210017D01*
X0338079Y0210563D02*
X0339079Y0210563D01*
X0339079Y0211563D01*
X0338079Y0211563D01*
X0338079Y0210563D01*
X0338079Y0211016D02*
X0328246Y0211016D01*
X0328246Y0210017D02*
X0334079Y0210017D01*
X0334259Y0209019D02*
X0328246Y0209019D01*
X0328246Y0208020D02*
X0335258Y0208020D01*
X0334079Y0211563D02*
X0338079Y0211563D01*
X0338079Y0215563D01*
X0336715Y0215563D01*
X0334079Y0212927D01*
X0334079Y0211563D01*
X0334079Y0212015D02*
X0328246Y0212015D01*
X0328246Y0213013D02*
X0334165Y0213013D01*
X0335164Y0214012D02*
X0328246Y0214012D01*
X0328246Y0215010D02*
X0336163Y0215010D01*
X0338079Y0215010D02*
X0339079Y0215010D01*
X0339079Y0215563D02*
X0340443Y0215563D01*
X0343079Y0212927D01*
X0343079Y0211563D01*
X0339079Y0211563D01*
X0339079Y0215563D01*
X0339079Y0214012D02*
X0338079Y0214012D01*
X0338079Y0213013D02*
X0339079Y0213013D01*
X0339079Y0212015D02*
X0338079Y0212015D01*
X0339079Y0211016D02*
X0344209Y0211016D01*
X0344209Y0210017D02*
X0343079Y0210017D01*
X0342899Y0209019D02*
X0344209Y0209019D01*
X0344209Y0208020D02*
X0341901Y0208020D01*
X0340902Y0207022D02*
X0344209Y0207022D01*
X0344209Y0212015D02*
X0343079Y0212015D01*
X0342993Y0213013D02*
X0344209Y0213013D01*
X0344209Y0214012D02*
X0341995Y0214012D01*
X0340996Y0215010D02*
X0344209Y0215010D01*
X0344209Y0216009D02*
X0328246Y0216009D01*
X0328246Y0217007D02*
X0344209Y0217007D01*
X0344209Y0218006D02*
X0328246Y0218006D01*
X0328246Y0219004D02*
X0344209Y0219004D01*
X0344209Y0220003D02*
X0328246Y0220003D01*
X0328246Y0221001D02*
X0344209Y0221001D01*
X0344209Y0222000D02*
X0328246Y0222000D01*
X0328246Y0222998D02*
X0344209Y0222998D01*
X0344209Y0223997D02*
X0328250Y0223997D01*
X0328630Y0224995D02*
X0344209Y0224995D01*
X0344209Y0225994D02*
X0329044Y0225994D01*
X0329139Y0226992D02*
X0344209Y0226992D01*
X0344209Y0227991D02*
X0329139Y0227991D01*
X0329139Y0228989D02*
X0344209Y0228989D01*
X0344209Y0229988D02*
X0329139Y0229988D01*
X0329139Y0230986D02*
X0344209Y0230986D01*
X0344209Y0231985D02*
X0329139Y0231985D01*
X0329139Y0232983D02*
X0344209Y0232983D01*
X0344209Y0233982D02*
X0329119Y0233982D01*
X0328706Y0234980D02*
X0344209Y0234980D01*
X0344209Y0235979D02*
X0328020Y0235979D01*
X0326664Y0236977D02*
X0344209Y0236977D01*
X0284681Y0061239D02*
X0281769Y0061239D01*
X0281535Y0061473D02*
X0274915Y0061473D01*
X0274153Y0060712D01*
X0274153Y0054091D01*
X0274915Y0053330D01*
X0281535Y0053330D01*
X0282297Y0054091D01*
X0282297Y0060712D01*
X0281535Y0061473D01*
X0282297Y0060241D02*
X0284153Y0060241D01*
X0284153Y0059242D02*
X0282297Y0059242D01*
X0282297Y0058244D02*
X0284153Y0058244D01*
X0284153Y0057245D02*
X0282297Y0057245D01*
X0282297Y0056247D02*
X0284153Y0056247D01*
X0284153Y0055248D02*
X0282297Y0055248D01*
X0282297Y0054250D02*
X0284153Y0054250D01*
X0284413Y0051254D02*
X0281754Y0051254D01*
X0282297Y0050256D02*
X0283953Y0050256D01*
X0283953Y0049257D02*
X0282297Y0049257D01*
X0282297Y0048259D02*
X0283953Y0048259D01*
X0287839Y0048259D02*
X0288611Y0048259D01*
X0288611Y0049257D02*
X0287839Y0049257D01*
X0287839Y0050256D02*
X0288611Y0050256D01*
X0288611Y0051254D02*
X0287839Y0051254D01*
X0274153Y0054250D02*
X0272297Y0054250D01*
X0272297Y0055248D02*
X0274153Y0055248D01*
X0274153Y0056247D02*
X0272297Y0056247D01*
X0272297Y0057245D02*
X0274153Y0057245D01*
X0274153Y0058244D02*
X0272297Y0058244D01*
X0272297Y0059242D02*
X0274153Y0059242D01*
X0274153Y0060241D02*
X0272297Y0060241D01*
X0271769Y0061239D02*
X0274681Y0061239D01*
D20*
X0295046Y0100433D02*
X0295003Y0100476D01*
X0295046Y0100433D02*
X0304721Y0100433D01*
X0309839Y0105551D01*
X0309446Y0176024D01*
X0324446Y0185512D01*
X0324446Y0212244D01*
X0237005Y0212244D01*
X0213383Y0188622D01*
X0185823Y0188622D01*
X0177949Y0180748D01*
X0177949Y0156339D01*
X0170863Y0149252D01*
X0201732Y0149252D01*
X0203036Y0150557D01*
X0170863Y0149252D02*
X0131217Y0149252D01*
X0127044Y0153425D01*
X0324446Y0212244D02*
X0324446Y0224055D01*
X0324839Y0230079D01*
M02*
