G04 EAGLE Gerber RS-274X export*
G75*
%MOMM*%
%FSLAX34Y34*%
%LPD*%
%INBottom Copper*%
%IPPOS*%
%AMOC8*
5,1,8,0,0,1.08239X$1,22.5*%
G01*
%ADD10P,1.649562X8X22.500000*%
%ADD11C,5.080000*%
%ADD12C,1.500000*%
%ADD13C,1.143000*%
%ADD14C,1.524000*%
%ADD15C,0.152400*%
%ADD16C,0.604800*%
%ADD17C,0.203200*%

G36*
X968207Y298828D02*
X968207Y298828D01*
X968283Y298826D01*
X968452Y298848D01*
X968623Y298862D01*
X968697Y298880D01*
X968772Y298890D01*
X968936Y298939D01*
X969102Y298980D01*
X969171Y299010D01*
X969245Y299032D01*
X969398Y299108D01*
X969555Y299175D01*
X969619Y299216D01*
X969688Y299249D01*
X969827Y299348D01*
X969971Y299440D01*
X970028Y299491D01*
X970090Y299535D01*
X970211Y299655D01*
X970339Y299769D01*
X970387Y299828D01*
X970441Y299882D01*
X970542Y300020D01*
X970649Y300153D01*
X970686Y300219D01*
X970731Y300280D01*
X970808Y300433D01*
X970893Y300581D01*
X970919Y300653D01*
X970954Y300721D01*
X971005Y300884D01*
X971064Y301044D01*
X971079Y301119D01*
X971102Y301191D01*
X971114Y301296D01*
X971159Y301528D01*
X971166Y301764D01*
X971178Y301869D01*
X971178Y821357D01*
X971164Y821537D01*
X971157Y821717D01*
X971144Y821782D01*
X971138Y821849D01*
X971095Y822024D01*
X971059Y822201D01*
X971036Y822263D01*
X971020Y822327D01*
X970948Y822494D01*
X970885Y822662D01*
X970851Y822720D01*
X970825Y822781D01*
X970728Y822933D01*
X970638Y823089D01*
X970596Y823141D01*
X970560Y823197D01*
X970440Y823331D01*
X970325Y823471D01*
X970276Y823515D01*
X970231Y823565D01*
X970091Y823678D01*
X969956Y823798D01*
X969899Y823833D01*
X969847Y823875D01*
X969691Y823964D01*
X969538Y824060D01*
X969477Y824086D01*
X969419Y824119D01*
X969249Y824182D01*
X969083Y824252D01*
X969019Y824267D01*
X968956Y824290D01*
X968779Y824325D01*
X968604Y824367D01*
X968537Y824372D01*
X968472Y824385D01*
X968292Y824391D01*
X968112Y824404D01*
X968045Y824398D01*
X967979Y824400D01*
X967800Y824377D01*
X967620Y824361D01*
X967570Y824346D01*
X967490Y824336D01*
X967018Y824193D01*
X966987Y824179D01*
X966965Y824172D01*
X960497Y821493D01*
X952502Y821493D01*
X945116Y824553D01*
X939463Y830206D01*
X936403Y837592D01*
X936403Y845588D01*
X939335Y852665D01*
X939390Y852836D01*
X939453Y853006D01*
X939466Y853071D01*
X939486Y853134D01*
X939513Y853313D01*
X939548Y853490D01*
X939550Y853556D01*
X939560Y853622D01*
X939557Y853803D01*
X939563Y853983D01*
X939554Y854049D01*
X939553Y854116D01*
X939522Y854293D01*
X939499Y854472D01*
X939479Y854536D01*
X939468Y854601D01*
X939408Y854771D01*
X939356Y854945D01*
X939327Y855004D01*
X939305Y855067D01*
X939219Y855225D01*
X939139Y855388D01*
X939101Y855442D01*
X939069Y855500D01*
X938958Y855643D01*
X938854Y855790D01*
X938807Y855837D01*
X938766Y855890D01*
X938634Y856013D01*
X938507Y856141D01*
X938453Y856180D01*
X938404Y856225D01*
X938254Y856325D01*
X938108Y856431D01*
X938049Y856461D01*
X937993Y856498D01*
X937829Y856572D01*
X937668Y856654D01*
X937604Y856674D01*
X937544Y856701D01*
X937370Y856748D01*
X937197Y856802D01*
X937145Y856808D01*
X937067Y856829D01*
X936576Y856878D01*
X936543Y856876D01*
X936520Y856878D01*
X283704Y856878D01*
X283524Y856864D01*
X283344Y856857D01*
X283278Y856844D01*
X283212Y856838D01*
X283037Y856795D01*
X282860Y856759D01*
X282798Y856736D01*
X282733Y856720D01*
X282567Y856648D01*
X282399Y856585D01*
X282341Y856551D01*
X282280Y856525D01*
X282128Y856428D01*
X281971Y856338D01*
X281920Y856296D01*
X281864Y856260D01*
X281729Y856140D01*
X281590Y856025D01*
X281546Y855976D01*
X281496Y855931D01*
X281383Y855791D01*
X281263Y855656D01*
X281228Y855599D01*
X281186Y855547D01*
X281097Y855391D01*
X281001Y855238D01*
X280975Y855177D01*
X280942Y855119D01*
X280879Y854949D01*
X280809Y854783D01*
X280794Y854719D01*
X280770Y854656D01*
X280736Y854479D01*
X280693Y854304D01*
X280689Y854237D01*
X280676Y854172D01*
X280670Y853992D01*
X280657Y853812D01*
X280662Y853745D01*
X280660Y853679D01*
X280684Y853500D01*
X280700Y853320D01*
X280714Y853270D01*
X280725Y853190D01*
X280867Y852718D01*
X280882Y852687D01*
X280889Y852665D01*
X283837Y845547D01*
X283837Y837552D01*
X280777Y830166D01*
X275124Y824513D01*
X267738Y821453D01*
X259743Y821453D01*
X252235Y824563D01*
X252064Y824618D01*
X251894Y824681D01*
X251829Y824694D01*
X251766Y824714D01*
X251587Y824741D01*
X251410Y824776D01*
X251344Y824778D01*
X251278Y824788D01*
X251097Y824786D01*
X250917Y824791D01*
X250851Y824782D01*
X250784Y824782D01*
X250607Y824750D01*
X250428Y824727D01*
X250364Y824707D01*
X250299Y824696D01*
X250129Y824636D01*
X249955Y824584D01*
X249896Y824555D01*
X249833Y824533D01*
X249675Y824447D01*
X249512Y824367D01*
X249458Y824329D01*
X249400Y824297D01*
X249257Y824186D01*
X249110Y824082D01*
X249063Y824035D01*
X249010Y823994D01*
X248887Y823862D01*
X248759Y823735D01*
X248720Y823681D01*
X248675Y823633D01*
X248575Y823482D01*
X248469Y823336D01*
X248439Y823277D01*
X248402Y823222D01*
X248328Y823057D01*
X248246Y822896D01*
X248226Y822832D01*
X248199Y822772D01*
X248152Y822598D01*
X248098Y822425D01*
X248092Y822373D01*
X248071Y822295D01*
X248022Y821804D01*
X248024Y821771D01*
X248022Y821748D01*
X248022Y301869D01*
X248028Y301793D01*
X248026Y301717D01*
X248048Y301548D01*
X248062Y301377D01*
X248080Y301303D01*
X248090Y301228D01*
X248139Y301064D01*
X248180Y300898D01*
X248210Y300829D01*
X248232Y300755D01*
X248308Y300602D01*
X248375Y300445D01*
X248416Y300381D01*
X248449Y300312D01*
X248548Y300173D01*
X248640Y300029D01*
X248691Y299972D01*
X248735Y299910D01*
X248855Y299789D01*
X248969Y299661D01*
X249028Y299613D01*
X249082Y299559D01*
X249220Y299458D01*
X249353Y299351D01*
X249419Y299314D01*
X249480Y299269D01*
X249633Y299192D01*
X249781Y299107D01*
X249853Y299081D01*
X249921Y299046D01*
X250084Y298995D01*
X250244Y298936D01*
X250319Y298921D01*
X250391Y298898D01*
X250496Y298886D01*
X250728Y298841D01*
X250964Y298834D01*
X251069Y298822D01*
X968131Y298822D01*
X968207Y298828D01*
G37*
%LPC*%
G36*
X388330Y336827D02*
X388330Y336827D01*
X384971Y338219D01*
X384910Y338271D01*
X384829Y338352D01*
X384722Y338430D01*
X384621Y338516D01*
X384523Y338575D01*
X384431Y338642D01*
X384312Y338702D01*
X384198Y338771D01*
X384092Y338813D01*
X383990Y338865D01*
X383863Y338905D01*
X383740Y338954D01*
X383629Y338979D01*
X383520Y339013D01*
X383426Y339023D01*
X383258Y339061D01*
X382934Y339079D01*
X382842Y339089D01*
X376588Y339089D01*
X374067Y340133D01*
X341657Y372543D01*
X340613Y375064D01*
X340613Y665828D01*
X341657Y668349D01*
X386259Y712951D01*
X388780Y713995D01*
X452652Y713995D01*
X452728Y714001D01*
X452804Y713999D01*
X452973Y714021D01*
X453144Y714035D01*
X453218Y714053D01*
X453293Y714063D01*
X453457Y714112D01*
X453623Y714153D01*
X453692Y714183D01*
X453766Y714205D01*
X453919Y714281D01*
X454076Y714348D01*
X454140Y714389D01*
X454209Y714422D01*
X454348Y714521D01*
X454492Y714613D01*
X454549Y714664D01*
X454611Y714708D01*
X454732Y714828D01*
X454860Y714942D01*
X454908Y715001D01*
X454962Y715055D01*
X455063Y715193D01*
X455170Y715326D01*
X455207Y715392D01*
X455252Y715453D01*
X455329Y715606D01*
X455414Y715754D01*
X455440Y715826D01*
X455475Y715894D01*
X455526Y716057D01*
X455585Y716217D01*
X455600Y716292D01*
X455623Y716364D01*
X455635Y716469D01*
X455680Y716701D01*
X455687Y716937D01*
X455699Y717042D01*
X455699Y721142D01*
X457088Y724494D01*
X459654Y727060D01*
X463012Y728451D01*
X463092Y728458D01*
X463207Y728457D01*
X463338Y728478D01*
X463471Y728489D01*
X463581Y728516D01*
X463694Y728534D01*
X463820Y728575D01*
X463949Y728607D01*
X464054Y728652D01*
X464163Y728688D01*
X464281Y728750D01*
X464403Y728802D01*
X464499Y728863D01*
X464600Y728916D01*
X464674Y728975D01*
X464819Y729067D01*
X465061Y729283D01*
X465134Y729341D01*
X497924Y762131D01*
X497948Y762160D01*
X497977Y762186D01*
X498108Y762348D01*
X498243Y762507D01*
X498263Y762540D01*
X498287Y762570D01*
X498390Y762750D01*
X498498Y762930D01*
X498512Y762965D01*
X498531Y762998D01*
X498603Y763194D01*
X498681Y763388D01*
X498689Y763425D01*
X498702Y763461D01*
X498742Y763666D01*
X498788Y763870D01*
X498790Y763908D01*
X498797Y763945D01*
X498803Y764153D01*
X498815Y764362D01*
X498811Y764400D01*
X498812Y764438D01*
X498785Y764645D01*
X498763Y764853D01*
X498753Y764889D01*
X498748Y764927D01*
X498688Y765127D01*
X498632Y765328D01*
X498616Y765363D01*
X498605Y765400D01*
X498514Y765587D01*
X498427Y765777D01*
X498405Y765809D01*
X498389Y765843D01*
X498268Y766013D01*
X498151Y766186D01*
X498125Y766214D01*
X498103Y766245D01*
X497956Y766394D01*
X497813Y766546D01*
X497783Y766569D01*
X497756Y766596D01*
X497588Y766719D01*
X497422Y766846D01*
X497388Y766864D01*
X497358Y766886D01*
X497171Y766980D01*
X496987Y767079D01*
X496951Y767091D01*
X496917Y767109D01*
X496718Y767171D01*
X496521Y767239D01*
X496483Y767245D01*
X496447Y767257D01*
X496354Y767267D01*
X496034Y767322D01*
X495862Y767323D01*
X495769Y767333D01*
X469074Y767333D01*
X468960Y767324D01*
X468846Y767325D01*
X468715Y767304D01*
X468582Y767293D01*
X468471Y767266D01*
X468359Y767248D01*
X468233Y767207D01*
X468104Y767175D01*
X467998Y767129D01*
X467890Y767094D01*
X467772Y767033D01*
X467650Y766980D01*
X467554Y766919D01*
X467452Y766866D01*
X467379Y766807D01*
X467234Y766715D01*
X466992Y766499D01*
X466948Y766464D01*
X463586Y765071D01*
X459958Y765071D01*
X456606Y766460D01*
X454040Y769026D01*
X452651Y772378D01*
X452651Y776006D01*
X454040Y779358D01*
X456606Y781924D01*
X459958Y783313D01*
X463586Y783313D01*
X466945Y781922D01*
X467006Y781869D01*
X467087Y781788D01*
X467194Y781710D01*
X467295Y781624D01*
X467393Y781565D01*
X467485Y781498D01*
X467604Y781438D01*
X467718Y781369D01*
X467824Y781327D01*
X467926Y781275D01*
X468053Y781235D01*
X468176Y781186D01*
X468287Y781161D01*
X468396Y781127D01*
X468490Y781117D01*
X468658Y781079D01*
X468982Y781061D01*
X469074Y781051D01*
X478526Y781051D01*
X478602Y781057D01*
X478678Y781055D01*
X478847Y781077D01*
X479018Y781091D01*
X479092Y781109D01*
X479167Y781119D01*
X479331Y781168D01*
X479497Y781209D01*
X479566Y781239D01*
X479640Y781261D01*
X479793Y781337D01*
X479950Y781404D01*
X480014Y781445D01*
X480083Y781478D01*
X480222Y781577D01*
X480366Y781669D01*
X480423Y781720D01*
X480485Y781764D01*
X480606Y781884D01*
X480734Y781998D01*
X480782Y782057D01*
X480836Y782111D01*
X480937Y782249D01*
X481044Y782382D01*
X481081Y782448D01*
X481126Y782509D01*
X481203Y782662D01*
X481288Y782810D01*
X481314Y782882D01*
X481349Y782950D01*
X481400Y783113D01*
X481459Y783273D01*
X481474Y783348D01*
X481497Y783420D01*
X481509Y783525D01*
X481554Y783757D01*
X481561Y783993D01*
X481573Y784098D01*
X481573Y786865D01*
X483643Y791862D01*
X487468Y795687D01*
X492465Y797757D01*
X497875Y797757D01*
X502872Y795687D01*
X506697Y791862D01*
X508767Y786865D01*
X508767Y784903D01*
X508770Y784865D01*
X508768Y784827D01*
X508790Y784619D01*
X508807Y784411D01*
X508816Y784374D01*
X508820Y784337D01*
X508875Y784135D01*
X508925Y783933D01*
X508940Y783898D01*
X508951Y783861D01*
X509038Y783671D01*
X509120Y783479D01*
X509140Y783447D01*
X509156Y783412D01*
X509273Y783239D01*
X509385Y783063D01*
X509410Y783035D01*
X509432Y783003D01*
X509575Y782851D01*
X509714Y782695D01*
X509743Y782671D01*
X509769Y782644D01*
X509935Y782516D01*
X510098Y782385D01*
X510131Y782366D01*
X510161Y782343D01*
X510345Y782245D01*
X510526Y782141D01*
X510562Y782128D01*
X510596Y782110D01*
X510793Y782042D01*
X510989Y781970D01*
X511026Y781962D01*
X511062Y781950D01*
X511269Y781915D01*
X511473Y781875D01*
X511511Y781874D01*
X511549Y781867D01*
X511758Y781866D01*
X511966Y781860D01*
X512004Y781865D01*
X512042Y781864D01*
X512249Y781897D01*
X512455Y781924D01*
X512492Y781935D01*
X512529Y781941D01*
X512728Y782006D01*
X512927Y782067D01*
X512962Y782083D01*
X512998Y782095D01*
X513183Y782192D01*
X513371Y782283D01*
X513402Y782305D01*
X513436Y782323D01*
X513508Y782381D01*
X513773Y782569D01*
X513895Y782690D01*
X513969Y782748D01*
X563733Y832513D01*
X566091Y834871D01*
X568612Y835915D01*
X595724Y835915D01*
X598245Y834871D01*
X601572Y831543D01*
X601739Y831402D01*
X601903Y831257D01*
X601927Y831242D01*
X601948Y831224D01*
X602135Y831111D01*
X602320Y830995D01*
X602347Y830984D01*
X602371Y830969D01*
X602573Y830888D01*
X602775Y830803D01*
X602803Y830797D01*
X602829Y830786D01*
X603043Y830739D01*
X603255Y830688D01*
X603283Y830685D01*
X603311Y830679D01*
X603529Y830667D01*
X603747Y830651D01*
X603775Y830653D01*
X603803Y830652D01*
X604021Y830675D01*
X604238Y830694D01*
X604261Y830700D01*
X604294Y830704D01*
X604770Y830834D01*
X604843Y830868D01*
X604893Y830883D01*
X607792Y832083D01*
X607873Y832090D01*
X607987Y832089D01*
X608118Y832110D01*
X608251Y832121D01*
X608361Y832148D01*
X608474Y832166D01*
X608600Y832207D01*
X608729Y832239D01*
X608834Y832284D01*
X608943Y832320D01*
X609061Y832382D01*
X609183Y832434D01*
X609279Y832495D01*
X609380Y832548D01*
X609454Y832607D01*
X609599Y832699D01*
X609841Y832915D01*
X609914Y832973D01*
X613335Y836395D01*
X615856Y837439D01*
X693260Y837439D01*
X695781Y836395D01*
X698139Y834037D01*
X872137Y660039D01*
X874495Y657681D01*
X875539Y655160D01*
X875539Y388780D01*
X874495Y386259D01*
X864945Y376709D01*
X862424Y375665D01*
X861060Y375665D01*
X860984Y375659D01*
X860908Y375661D01*
X860739Y375639D01*
X860568Y375625D01*
X860494Y375607D01*
X860419Y375597D01*
X860255Y375548D01*
X860089Y375507D01*
X860020Y375477D01*
X859946Y375455D01*
X859793Y375379D01*
X859636Y375312D01*
X859572Y375271D01*
X859503Y375238D01*
X859364Y375139D01*
X859220Y375047D01*
X859163Y374996D01*
X859101Y374952D01*
X858980Y374832D01*
X858852Y374718D01*
X858804Y374659D01*
X858750Y374605D01*
X858649Y374467D01*
X858542Y374334D01*
X858505Y374268D01*
X858460Y374207D01*
X858383Y374054D01*
X858298Y373906D01*
X858272Y373834D01*
X858237Y373766D01*
X858186Y373603D01*
X858127Y373443D01*
X858112Y373368D01*
X858089Y373296D01*
X858077Y373191D01*
X858032Y372959D01*
X858025Y372723D01*
X858013Y372618D01*
X858013Y362618D01*
X849978Y354583D01*
X838614Y354583D01*
X832608Y360590D01*
X832550Y360639D01*
X832498Y360695D01*
X832362Y360799D01*
X832232Y360909D01*
X832166Y360949D01*
X832106Y360995D01*
X831956Y361076D01*
X831809Y361164D01*
X831739Y361192D01*
X831671Y361228D01*
X831510Y361284D01*
X831351Y361347D01*
X831277Y361364D01*
X831205Y361388D01*
X831036Y361417D01*
X830870Y361454D01*
X830793Y361458D01*
X830718Y361471D01*
X830547Y361472D01*
X830377Y361481D01*
X830301Y361473D01*
X830225Y361474D01*
X830056Y361447D01*
X829886Y361429D01*
X829813Y361409D01*
X829738Y361397D01*
X829575Y361344D01*
X829411Y361299D01*
X829341Y361267D01*
X829269Y361243D01*
X829118Y361164D01*
X828962Y361093D01*
X828899Y361050D01*
X828831Y361015D01*
X828749Y360950D01*
X828553Y360818D01*
X828380Y360655D01*
X828298Y360590D01*
X822292Y354583D01*
X810928Y354583D01*
X807692Y357819D01*
X807634Y357869D01*
X807582Y357924D01*
X807447Y358028D01*
X807316Y358139D01*
X807251Y358178D01*
X807191Y358224D01*
X807040Y358305D01*
X806894Y358393D01*
X806823Y358422D01*
X806756Y358458D01*
X806594Y358513D01*
X806436Y358576D01*
X806362Y358593D01*
X806289Y358618D01*
X806121Y358646D01*
X805954Y358683D01*
X805878Y358687D01*
X805803Y358700D01*
X805632Y358701D01*
X805462Y358711D01*
X805386Y358703D01*
X805310Y358703D01*
X805141Y358677D01*
X804971Y358659D01*
X804898Y358638D01*
X804822Y358627D01*
X804660Y358573D01*
X804495Y358528D01*
X804426Y358496D01*
X804354Y358472D01*
X804202Y358393D01*
X804047Y358322D01*
X803984Y358280D01*
X803916Y358245D01*
X803834Y358179D01*
X803638Y358047D01*
X803465Y357885D01*
X803383Y357819D01*
X794151Y348587D01*
X791793Y346229D01*
X789272Y345185D01*
X666148Y345185D01*
X663627Y346229D01*
X656166Y353691D01*
X656078Y353765D01*
X655998Y353846D01*
X655891Y353924D01*
X655790Y354010D01*
X655692Y354069D01*
X655600Y354136D01*
X655481Y354196D01*
X655367Y354265D01*
X655261Y354307D01*
X655159Y354359D01*
X655032Y354399D01*
X654909Y354448D01*
X654798Y354473D01*
X654689Y354507D01*
X654595Y354517D01*
X654427Y354555D01*
X654103Y354573D01*
X654011Y354583D01*
X645320Y354583D01*
X644116Y355787D01*
X644058Y355837D01*
X644006Y355892D01*
X643871Y355996D01*
X643740Y356107D01*
X643675Y356146D01*
X643615Y356192D01*
X643464Y356273D01*
X643318Y356361D01*
X643247Y356390D01*
X643180Y356426D01*
X643018Y356481D01*
X642860Y356544D01*
X642786Y356561D01*
X642713Y356586D01*
X642545Y356614D01*
X642378Y356651D01*
X642302Y356655D01*
X642227Y356668D01*
X642056Y356669D01*
X641886Y356679D01*
X641810Y356671D01*
X641734Y356671D01*
X641565Y356645D01*
X641395Y356627D01*
X641322Y356606D01*
X641246Y356595D01*
X641084Y356541D01*
X640919Y356496D01*
X640850Y356464D01*
X640778Y356440D01*
X640626Y356361D01*
X640471Y356290D01*
X640408Y356248D01*
X640340Y356213D01*
X640258Y356147D01*
X640062Y356015D01*
X639889Y355853D01*
X639807Y355787D01*
X627201Y343181D01*
X624680Y342137D01*
X400474Y342137D01*
X400256Y342120D01*
X400038Y342106D01*
X400011Y342100D01*
X399982Y342097D01*
X399770Y342045D01*
X399557Y341996D01*
X399531Y341985D01*
X399503Y341979D01*
X399302Y341892D01*
X399100Y341810D01*
X399076Y341795D01*
X399050Y341784D01*
X398866Y341667D01*
X398680Y341553D01*
X398658Y341534D01*
X398634Y341519D01*
X398471Y341374D01*
X398306Y341231D01*
X398287Y341209D01*
X398266Y341190D01*
X398186Y341092D01*
X395310Y338216D01*
X391958Y336827D01*
X388330Y336827D01*
G37*
%LPD*%
G36*
X548068Y417117D02*
X548068Y417117D01*
X548106Y417116D01*
X548313Y417149D01*
X548519Y417176D01*
X548556Y417187D01*
X548593Y417193D01*
X548792Y417258D01*
X548991Y417319D01*
X549026Y417335D01*
X549062Y417347D01*
X549247Y417444D01*
X549435Y417535D01*
X549466Y417557D01*
X549500Y417575D01*
X549572Y417633D01*
X549837Y417821D01*
X549959Y417942D01*
X550033Y418000D01*
X632329Y500296D01*
X632403Y500383D01*
X632484Y500464D01*
X632562Y500571D01*
X632648Y500672D01*
X632707Y500770D01*
X632774Y500863D01*
X632834Y500981D01*
X632903Y501095D01*
X632945Y501201D01*
X632997Y501303D01*
X633037Y501430D01*
X633086Y501553D01*
X633111Y501664D01*
X633145Y501773D01*
X633155Y501867D01*
X633193Y502035D01*
X633211Y502359D01*
X633221Y502451D01*
X633221Y537591D01*
X633215Y537667D01*
X633217Y537743D01*
X633195Y537912D01*
X633181Y538083D01*
X633163Y538157D01*
X633153Y538232D01*
X633104Y538396D01*
X633063Y538562D01*
X633033Y538631D01*
X633011Y538705D01*
X632935Y538858D01*
X632868Y539015D01*
X632827Y539079D01*
X632794Y539148D01*
X632695Y539287D01*
X632603Y539431D01*
X632552Y539488D01*
X632508Y539550D01*
X632388Y539671D01*
X632274Y539799D01*
X632215Y539847D01*
X632161Y539901D01*
X632023Y540002D01*
X631890Y540109D01*
X631824Y540146D01*
X631763Y540191D01*
X631610Y540268D01*
X631462Y540353D01*
X631390Y540379D01*
X631322Y540414D01*
X631159Y540465D01*
X630999Y540524D01*
X630924Y540539D01*
X630852Y540562D01*
X630747Y540574D01*
X630515Y540619D01*
X630279Y540626D01*
X630174Y540638D01*
X627800Y540638D01*
X627686Y540629D01*
X627572Y540630D01*
X627441Y540609D01*
X627308Y540598D01*
X627198Y540571D01*
X627085Y540553D01*
X626959Y540512D01*
X626830Y540480D01*
X626725Y540435D01*
X626616Y540399D01*
X626498Y540337D01*
X626376Y540285D01*
X626280Y540224D01*
X626179Y540171D01*
X626105Y540112D01*
X625960Y540020D01*
X625718Y539804D01*
X625645Y539746D01*
X619613Y533714D01*
X619539Y533627D01*
X619458Y533546D01*
X619380Y533439D01*
X619294Y533338D01*
X619235Y533240D01*
X619168Y533148D01*
X619108Y533029D01*
X619039Y532915D01*
X618997Y532809D01*
X618945Y532707D01*
X618905Y532580D01*
X618856Y532457D01*
X618831Y532346D01*
X618797Y532237D01*
X618787Y532143D01*
X618749Y531975D01*
X618731Y531651D01*
X618721Y531559D01*
X618721Y528538D01*
X617332Y525186D01*
X614766Y522620D01*
X611414Y521231D01*
X607786Y521231D01*
X604427Y522623D01*
X604366Y522675D01*
X604285Y522756D01*
X604178Y522834D01*
X604077Y522920D01*
X603979Y522979D01*
X603887Y523046D01*
X603768Y523106D01*
X603654Y523175D01*
X603548Y523217D01*
X603446Y523269D01*
X603319Y523309D01*
X603196Y523358D01*
X603085Y523383D01*
X602976Y523417D01*
X602882Y523427D01*
X602714Y523465D01*
X602390Y523483D01*
X602298Y523493D01*
X497879Y523493D01*
X497841Y523490D01*
X497803Y523492D01*
X497595Y523470D01*
X497387Y523453D01*
X497350Y523444D01*
X497313Y523440D01*
X497111Y523385D01*
X496909Y523335D01*
X496874Y523320D01*
X496837Y523309D01*
X496647Y523222D01*
X496455Y523140D01*
X496423Y523120D01*
X496388Y523104D01*
X496215Y522987D01*
X496039Y522875D01*
X496011Y522850D01*
X495979Y522828D01*
X495827Y522685D01*
X495671Y522546D01*
X495647Y522517D01*
X495620Y522491D01*
X495492Y522325D01*
X495361Y522162D01*
X495342Y522129D01*
X495319Y522099D01*
X495221Y521915D01*
X495117Y521734D01*
X495104Y521698D01*
X495086Y521664D01*
X495018Y521467D01*
X494946Y521271D01*
X494938Y521234D01*
X494926Y521198D01*
X494891Y520991D01*
X494851Y520787D01*
X494850Y520749D01*
X494843Y520711D01*
X494842Y520502D01*
X494836Y520294D01*
X494841Y520256D01*
X494840Y520218D01*
X494873Y520011D01*
X494900Y519805D01*
X494911Y519768D01*
X494917Y519731D01*
X494982Y519532D01*
X495043Y519333D01*
X495059Y519298D01*
X495071Y519262D01*
X495168Y519077D01*
X495259Y518889D01*
X495281Y518858D01*
X495299Y518824D01*
X495357Y518752D01*
X495545Y518487D01*
X495666Y518365D01*
X495724Y518291D01*
X543787Y470229D01*
X544831Y467708D01*
X544831Y420155D01*
X544834Y420117D01*
X544832Y420079D01*
X544854Y419871D01*
X544871Y419663D01*
X544880Y419626D01*
X544884Y419589D01*
X544939Y419387D01*
X544989Y419185D01*
X545004Y419150D01*
X545015Y419113D01*
X545102Y418923D01*
X545184Y418731D01*
X545204Y418699D01*
X545220Y418664D01*
X545337Y418491D01*
X545449Y418315D01*
X545474Y418287D01*
X545496Y418255D01*
X545639Y418103D01*
X545778Y417947D01*
X545807Y417923D01*
X545833Y417896D01*
X545999Y417768D01*
X546162Y417637D01*
X546195Y417618D01*
X546225Y417595D01*
X546409Y417497D01*
X546590Y417393D01*
X546626Y417380D01*
X546660Y417362D01*
X546857Y417294D01*
X547053Y417222D01*
X547090Y417214D01*
X547126Y417202D01*
X547333Y417167D01*
X547537Y417127D01*
X547575Y417126D01*
X547613Y417119D01*
X547822Y417118D01*
X548030Y417112D01*
X548068Y417117D01*
G37*
G36*
X702693Y696748D02*
X702693Y696748D01*
X702769Y696748D01*
X702938Y696774D01*
X703108Y696792D01*
X703181Y696813D01*
X703257Y696824D01*
X703419Y696878D01*
X703584Y696923D01*
X703653Y696955D01*
X703725Y696979D01*
X703877Y697058D01*
X704032Y697129D01*
X704095Y697171D01*
X704163Y697207D01*
X704245Y697272D01*
X704441Y697404D01*
X704614Y697566D01*
X704696Y697632D01*
X713085Y706021D01*
X715443Y708379D01*
X717964Y709423D01*
X767041Y709423D01*
X767079Y709426D01*
X767117Y709424D01*
X767325Y709446D01*
X767533Y709463D01*
X767570Y709472D01*
X767607Y709476D01*
X767809Y709531D01*
X768011Y709581D01*
X768046Y709596D01*
X768083Y709607D01*
X768273Y709694D01*
X768465Y709776D01*
X768497Y709796D01*
X768532Y709812D01*
X768705Y709929D01*
X768881Y710041D01*
X768909Y710066D01*
X768941Y710088D01*
X769093Y710231D01*
X769249Y710370D01*
X769273Y710399D01*
X769300Y710425D01*
X769428Y710591D01*
X769559Y710754D01*
X769578Y710787D01*
X769601Y710817D01*
X769699Y711001D01*
X769803Y711182D01*
X769816Y711218D01*
X769834Y711252D01*
X769902Y711449D01*
X769974Y711645D01*
X769982Y711682D01*
X769994Y711718D01*
X770029Y711924D01*
X770069Y712129D01*
X770070Y712167D01*
X770077Y712205D01*
X770078Y712414D01*
X770084Y712622D01*
X770079Y712660D01*
X770080Y712698D01*
X770047Y712904D01*
X770020Y713111D01*
X770009Y713148D01*
X770003Y713185D01*
X769938Y713384D01*
X769877Y713583D01*
X769861Y713618D01*
X769849Y713654D01*
X769752Y713839D01*
X769661Y714027D01*
X769639Y714058D01*
X769621Y714092D01*
X769563Y714164D01*
X769375Y714429D01*
X769254Y714551D01*
X769196Y714625D01*
X711284Y772537D01*
X711197Y772611D01*
X711116Y772692D01*
X711009Y772770D01*
X710908Y772856D01*
X710810Y772915D01*
X710717Y772982D01*
X710599Y773042D01*
X710485Y773111D01*
X710379Y773153D01*
X710277Y773205D01*
X710150Y773245D01*
X710027Y773294D01*
X709916Y773319D01*
X709807Y773353D01*
X709713Y773363D01*
X709545Y773401D01*
X709221Y773419D01*
X709129Y773429D01*
X703770Y773429D01*
X703656Y773420D01*
X703542Y773421D01*
X703411Y773400D01*
X703278Y773389D01*
X703168Y773362D01*
X703055Y773344D01*
X702928Y773303D01*
X702800Y773271D01*
X702695Y773226D01*
X702586Y773190D01*
X702468Y773128D01*
X702346Y773076D01*
X702250Y773015D01*
X702149Y772962D01*
X702075Y772903D01*
X701930Y772811D01*
X701688Y772595D01*
X701645Y772560D01*
X698282Y771167D01*
X694654Y771167D01*
X691302Y772556D01*
X690241Y773617D01*
X690212Y773641D01*
X690186Y773670D01*
X690024Y773801D01*
X689865Y773936D01*
X689832Y773956D01*
X689802Y773980D01*
X689621Y774083D01*
X689442Y774191D01*
X689407Y774205D01*
X689374Y774224D01*
X689178Y774296D01*
X688984Y774374D01*
X688947Y774382D01*
X688911Y774395D01*
X688707Y774435D01*
X688503Y774481D01*
X688464Y774483D01*
X688427Y774490D01*
X688219Y774496D01*
X688010Y774508D01*
X687972Y774504D01*
X687934Y774505D01*
X687728Y774478D01*
X687519Y774456D01*
X687483Y774446D01*
X687445Y774441D01*
X687245Y774381D01*
X687044Y774325D01*
X687009Y774310D01*
X686972Y774298D01*
X686785Y774207D01*
X686595Y774120D01*
X686564Y774098D01*
X686529Y774082D01*
X686359Y773961D01*
X686186Y773844D01*
X686158Y773818D01*
X686127Y773796D01*
X685979Y773649D01*
X685826Y773506D01*
X685803Y773476D01*
X685776Y773449D01*
X685653Y773281D01*
X685526Y773115D01*
X685508Y773081D01*
X685486Y773051D01*
X685392Y772864D01*
X685293Y772680D01*
X685281Y772644D01*
X685263Y772610D01*
X685200Y772411D01*
X685133Y772214D01*
X685127Y772176D01*
X685115Y772140D01*
X685105Y772047D01*
X685050Y771727D01*
X685049Y771555D01*
X685039Y771462D01*
X685039Y702295D01*
X685053Y702115D01*
X685060Y701935D01*
X685073Y701870D01*
X685079Y701804D01*
X685122Y701629D01*
X685158Y701452D01*
X685181Y701389D01*
X685197Y701325D01*
X685269Y701159D01*
X685332Y700990D01*
X685366Y700933D01*
X685392Y700871D01*
X685489Y700719D01*
X685579Y700563D01*
X685621Y700511D01*
X685657Y700455D01*
X685777Y700321D01*
X685892Y700181D01*
X685941Y700137D01*
X685986Y700088D01*
X686126Y699974D01*
X686261Y699855D01*
X686318Y699819D01*
X686370Y699778D01*
X686526Y699688D01*
X686679Y699592D01*
X686741Y699566D01*
X686798Y699534D01*
X686967Y699471D01*
X687134Y699401D01*
X687199Y699385D01*
X687261Y699362D01*
X687438Y699327D01*
X687613Y699285D01*
X687680Y699280D01*
X687745Y699267D01*
X687925Y699262D01*
X688105Y699248D01*
X688172Y699254D01*
X688238Y699252D01*
X688417Y699276D01*
X688597Y699291D01*
X688648Y699306D01*
X688727Y699316D01*
X689199Y699459D01*
X689230Y699474D01*
X689252Y699480D01*
X689872Y699737D01*
X695328Y699737D01*
X700370Y697648D01*
X700387Y697632D01*
X700445Y697583D01*
X700497Y697527D01*
X700632Y697423D01*
X700763Y697312D01*
X700828Y697273D01*
X700888Y697227D01*
X701038Y697146D01*
X701185Y697058D01*
X701256Y697029D01*
X701323Y696993D01*
X701485Y696938D01*
X701643Y696875D01*
X701717Y696858D01*
X701790Y696833D01*
X701958Y696805D01*
X702125Y696768D01*
X702201Y696764D01*
X702276Y696751D01*
X702447Y696750D01*
X702617Y696740D01*
X702693Y696748D01*
G37*
%LPC*%
G36*
X287953Y349503D02*
X287953Y349503D01*
X279943Y351650D01*
X272760Y355796D01*
X266896Y361660D01*
X262750Y368843D01*
X260603Y376853D01*
X260603Y385147D01*
X262750Y393157D01*
X266896Y400340D01*
X272760Y406204D01*
X279943Y410350D01*
X287953Y412497D01*
X296247Y412497D01*
X304257Y410350D01*
X311440Y406204D01*
X317304Y400340D01*
X321450Y393157D01*
X323597Y385147D01*
X323597Y376853D01*
X321450Y368843D01*
X317304Y361660D01*
X311440Y355796D01*
X304257Y351650D01*
X296247Y349503D01*
X287953Y349503D01*
G37*
%LPD*%
%LPC*%
G36*
X922953Y349503D02*
X922953Y349503D01*
X914943Y351650D01*
X907760Y355796D01*
X901896Y361660D01*
X897750Y368843D01*
X895603Y376853D01*
X895603Y385147D01*
X897750Y393157D01*
X901896Y400340D01*
X907760Y406204D01*
X914943Y410350D01*
X922953Y412497D01*
X931247Y412497D01*
X939257Y410350D01*
X946440Y406204D01*
X952304Y400340D01*
X956450Y393157D01*
X958597Y385147D01*
X958597Y376853D01*
X956450Y368843D01*
X952304Y361660D01*
X946440Y355796D01*
X939257Y351650D01*
X931247Y349503D01*
X922953Y349503D01*
G37*
%LPD*%
G36*
X844321Y400527D02*
X844321Y400527D01*
X844397Y400526D01*
X844566Y400553D01*
X844736Y400571D01*
X844809Y400591D01*
X844884Y400603D01*
X845047Y400656D01*
X845211Y400701D01*
X845281Y400733D01*
X845353Y400757D01*
X845504Y400836D01*
X845660Y400907D01*
X845723Y400950D01*
X845791Y400985D01*
X845873Y401051D01*
X846069Y401183D01*
X846241Y401344D01*
X846324Y401410D01*
X850261Y405347D01*
X850335Y405434D01*
X850416Y405514D01*
X850494Y405622D01*
X850580Y405723D01*
X850639Y405821D01*
X850706Y405913D01*
X850766Y406032D01*
X850835Y406146D01*
X850877Y406252D01*
X850929Y406354D01*
X850969Y406480D01*
X851018Y406604D01*
X851043Y406715D01*
X851077Y406824D01*
X851087Y406918D01*
X851125Y407085D01*
X851143Y407410D01*
X851153Y407502D01*
X851153Y646645D01*
X851144Y646758D01*
X851145Y646873D01*
X851124Y647004D01*
X851113Y647137D01*
X851086Y647247D01*
X851068Y647360D01*
X851027Y647486D01*
X850995Y647615D01*
X850950Y647720D01*
X850914Y647829D01*
X850852Y647947D01*
X850800Y648069D01*
X850739Y648165D01*
X850686Y648266D01*
X850627Y648340D01*
X850535Y648485D01*
X850319Y648727D01*
X850261Y648800D01*
X844165Y654896D01*
X844136Y654920D01*
X844110Y654949D01*
X843948Y655080D01*
X843789Y655215D01*
X843756Y655235D01*
X843726Y655259D01*
X843545Y655362D01*
X843366Y655470D01*
X843331Y655484D01*
X843298Y655503D01*
X843102Y655575D01*
X842908Y655653D01*
X842871Y655661D01*
X842835Y655674D01*
X842630Y655714D01*
X842426Y655760D01*
X842388Y655762D01*
X842351Y655769D01*
X842143Y655775D01*
X841934Y655787D01*
X841896Y655783D01*
X841858Y655784D01*
X841651Y655757D01*
X841443Y655735D01*
X841407Y655725D01*
X841369Y655720D01*
X841169Y655659D01*
X840968Y655604D01*
X840933Y655588D01*
X840896Y655577D01*
X840709Y655486D01*
X840519Y655399D01*
X840487Y655377D01*
X840453Y655361D01*
X840284Y655240D01*
X840110Y655123D01*
X840082Y655097D01*
X840051Y655075D01*
X839903Y654929D01*
X839750Y654785D01*
X839727Y654755D01*
X839700Y654728D01*
X839577Y654560D01*
X839450Y654394D01*
X839432Y654360D01*
X839410Y654330D01*
X839316Y654144D01*
X839217Y653959D01*
X839204Y653923D01*
X839187Y653889D01*
X839125Y653690D01*
X839057Y653493D01*
X839051Y653455D01*
X839039Y653419D01*
X839029Y653326D01*
X838974Y653006D01*
X838973Y652834D01*
X838963Y652741D01*
X838963Y417258D01*
X838972Y417144D01*
X838971Y417030D01*
X838992Y416899D01*
X839003Y416766D01*
X839030Y416656D01*
X839048Y416543D01*
X839089Y416416D01*
X839121Y416288D01*
X839166Y416183D01*
X839202Y416074D01*
X839264Y415956D01*
X839316Y415834D01*
X839377Y415738D01*
X839430Y415637D01*
X839489Y415563D01*
X839581Y415418D01*
X839797Y415176D01*
X839832Y415133D01*
X841225Y411770D01*
X841225Y408142D01*
X840264Y405821D01*
X840197Y405614D01*
X840126Y405407D01*
X840121Y405379D01*
X840112Y405352D01*
X840080Y405136D01*
X840043Y404920D01*
X840043Y404892D01*
X840039Y404864D01*
X840041Y404646D01*
X840040Y404427D01*
X840045Y404399D01*
X840045Y404371D01*
X840083Y404156D01*
X840117Y403940D01*
X840126Y403913D01*
X840131Y403885D01*
X840202Y403679D01*
X840271Y403471D01*
X840284Y403446D01*
X840293Y403419D01*
X840398Y403227D01*
X840499Y403034D01*
X840513Y403015D01*
X840529Y402986D01*
X840832Y402596D01*
X840891Y402541D01*
X840924Y402500D01*
X842014Y401410D01*
X842072Y401361D01*
X842125Y401305D01*
X842260Y401201D01*
X842390Y401091D01*
X842456Y401051D01*
X842516Y401005D01*
X842666Y400924D01*
X842813Y400836D01*
X842884Y400808D01*
X842951Y400772D01*
X843112Y400716D01*
X843271Y400653D01*
X843345Y400637D01*
X843417Y400612D01*
X843586Y400583D01*
X843753Y400546D01*
X843829Y400542D01*
X843904Y400529D01*
X844075Y400528D01*
X844245Y400519D01*
X844321Y400527D01*
G37*
G36*
X430301Y400527D02*
X430301Y400527D01*
X430377Y400526D01*
X430546Y400553D01*
X430716Y400571D01*
X430789Y400591D01*
X430864Y400603D01*
X431027Y400656D01*
X431191Y400701D01*
X431261Y400733D01*
X431333Y400757D01*
X431484Y400836D01*
X431640Y400907D01*
X431703Y400950D01*
X431771Y400985D01*
X431853Y401051D01*
X432049Y401183D01*
X432221Y401344D01*
X432304Y401410D01*
X437257Y406363D01*
X437299Y406412D01*
X437310Y406422D01*
X437338Y406458D01*
X437412Y406530D01*
X437490Y406638D01*
X437576Y406739D01*
X437607Y406791D01*
X437620Y406806D01*
X437645Y406850D01*
X437702Y406929D01*
X437762Y407048D01*
X437831Y407162D01*
X437852Y407213D01*
X437864Y407235D01*
X437884Y407288D01*
X437925Y407370D01*
X437965Y407496D01*
X438014Y407620D01*
X438025Y407669D01*
X438035Y407698D01*
X438048Y407759D01*
X438073Y407840D01*
X438083Y407934D01*
X438121Y408101D01*
X438123Y408146D01*
X438130Y408182D01*
X438136Y408379D01*
X438139Y408426D01*
X438149Y408518D01*
X438149Y506437D01*
X438146Y506475D01*
X438148Y506513D01*
X438126Y506721D01*
X438109Y506929D01*
X438100Y506966D01*
X438096Y507003D01*
X438041Y507205D01*
X437991Y507407D01*
X437976Y507442D01*
X437965Y507479D01*
X437878Y507669D01*
X437796Y507861D01*
X437776Y507893D01*
X437760Y507928D01*
X437643Y508101D01*
X437531Y508277D01*
X437506Y508305D01*
X437484Y508337D01*
X437341Y508489D01*
X437202Y508645D01*
X437173Y508669D01*
X437147Y508696D01*
X436981Y508824D01*
X436818Y508955D01*
X436785Y508974D01*
X436755Y508997D01*
X436571Y509095D01*
X436390Y509199D01*
X436354Y509212D01*
X436320Y509230D01*
X436123Y509298D01*
X435927Y509370D01*
X435890Y509378D01*
X435854Y509390D01*
X435647Y509425D01*
X435443Y509465D01*
X435405Y509466D01*
X435367Y509473D01*
X435158Y509474D01*
X434950Y509480D01*
X434912Y509475D01*
X434874Y509476D01*
X434667Y509443D01*
X434461Y509416D01*
X434424Y509405D01*
X434387Y509399D01*
X434188Y509334D01*
X433989Y509273D01*
X433954Y509257D01*
X433918Y509245D01*
X433733Y509148D01*
X433545Y509057D01*
X433514Y509035D01*
X433480Y509017D01*
X433408Y508959D01*
X433143Y508771D01*
X433021Y508650D01*
X432947Y508592D01*
X405515Y481160D01*
X405441Y481073D01*
X405360Y480992D01*
X405282Y480885D01*
X405196Y480784D01*
X405137Y480686D01*
X405070Y480593D01*
X405010Y480475D01*
X404941Y480361D01*
X404899Y480255D01*
X404847Y480153D01*
X404807Y480026D01*
X404758Y479903D01*
X404733Y479792D01*
X404699Y479683D01*
X404689Y479589D01*
X404651Y479421D01*
X404633Y479097D01*
X404623Y479005D01*
X404623Y440118D01*
X404632Y440004D01*
X404631Y439890D01*
X404652Y439759D01*
X404663Y439626D01*
X404690Y439515D01*
X404708Y439403D01*
X404749Y439277D01*
X404781Y439148D01*
X404827Y439042D01*
X404862Y438934D01*
X404923Y438816D01*
X404976Y438694D01*
X405037Y438598D01*
X405090Y438496D01*
X405149Y438423D01*
X405241Y438278D01*
X405457Y438036D01*
X405492Y437992D01*
X406885Y434630D01*
X406885Y431002D01*
X405496Y427650D01*
X402931Y425084D01*
X401808Y424619D01*
X401647Y424537D01*
X401483Y424461D01*
X401428Y424424D01*
X401369Y424394D01*
X401223Y424287D01*
X401074Y424186D01*
X401025Y424140D01*
X400972Y424101D01*
X400845Y423971D01*
X400714Y423848D01*
X400674Y423795D01*
X400627Y423748D01*
X400524Y423599D01*
X400414Y423457D01*
X400382Y423398D01*
X400344Y423343D01*
X400266Y423181D01*
X400181Y423022D01*
X400159Y422959D01*
X400130Y422899D01*
X400079Y422726D01*
X400021Y422555D01*
X400009Y422489D01*
X399991Y422426D01*
X399968Y422247D01*
X399938Y422069D01*
X399938Y422002D01*
X399929Y421936D01*
X399936Y421756D01*
X399935Y421575D01*
X399945Y421510D01*
X399948Y421443D01*
X399984Y421267D01*
X400012Y421088D01*
X400032Y421025D01*
X400046Y420960D01*
X400110Y420791D01*
X400166Y420619D01*
X400197Y420560D01*
X400220Y420498D01*
X400310Y420342D01*
X400394Y420182D01*
X400427Y420141D01*
X400467Y420071D01*
X400779Y419689D01*
X400804Y419667D01*
X400819Y419649D01*
X412158Y408309D01*
X412245Y408235D01*
X412326Y408154D01*
X412433Y408076D01*
X412534Y407990D01*
X412632Y407931D01*
X412724Y407864D01*
X412843Y407804D01*
X412957Y407735D01*
X413063Y407693D01*
X413165Y407641D01*
X413292Y407601D01*
X413415Y407552D01*
X413526Y407527D01*
X413635Y407493D01*
X413729Y407483D01*
X413897Y407445D01*
X414221Y407427D01*
X414313Y407417D01*
X421988Y407417D01*
X427994Y401410D01*
X428052Y401361D01*
X428105Y401305D01*
X428240Y401201D01*
X428370Y401091D01*
X428436Y401051D01*
X428496Y401005D01*
X428646Y400924D01*
X428793Y400836D01*
X428864Y400808D01*
X428931Y400772D01*
X429092Y400716D01*
X429251Y400653D01*
X429325Y400637D01*
X429397Y400612D01*
X429566Y400583D01*
X429733Y400546D01*
X429809Y400542D01*
X429884Y400529D01*
X430055Y400528D01*
X430225Y400519D01*
X430301Y400527D01*
G37*
G36*
X789203Y400527D02*
X789203Y400527D01*
X789279Y400526D01*
X789448Y400553D01*
X789618Y400571D01*
X789691Y400591D01*
X789766Y400603D01*
X789929Y400656D01*
X790093Y400701D01*
X790163Y400733D01*
X790235Y400757D01*
X790386Y400836D01*
X790542Y400907D01*
X790605Y400950D01*
X790673Y400985D01*
X790755Y401051D01*
X790951Y401183D01*
X791123Y401344D01*
X791206Y401410D01*
X796921Y407125D01*
X796995Y407212D01*
X797076Y407292D01*
X797154Y407400D01*
X797240Y407501D01*
X797299Y407599D01*
X797366Y407691D01*
X797426Y407810D01*
X797495Y407924D01*
X797537Y408030D01*
X797589Y408132D01*
X797629Y408258D01*
X797678Y408382D01*
X797703Y408493D01*
X797737Y408602D01*
X797747Y408696D01*
X797785Y408863D01*
X797803Y409188D01*
X797813Y409280D01*
X797813Y570445D01*
X797810Y570483D01*
X797812Y570521D01*
X797790Y570729D01*
X797773Y570937D01*
X797764Y570974D01*
X797760Y571011D01*
X797705Y571213D01*
X797655Y571415D01*
X797640Y571450D01*
X797629Y571487D01*
X797542Y571677D01*
X797460Y571869D01*
X797440Y571901D01*
X797424Y571936D01*
X797307Y572109D01*
X797195Y572285D01*
X797170Y572313D01*
X797148Y572345D01*
X797005Y572497D01*
X796866Y572653D01*
X796837Y572677D01*
X796811Y572704D01*
X796645Y572832D01*
X796482Y572963D01*
X796449Y572982D01*
X796419Y573005D01*
X796235Y573103D01*
X796054Y573207D01*
X796018Y573220D01*
X795984Y573238D01*
X795787Y573306D01*
X795591Y573378D01*
X795554Y573386D01*
X795518Y573398D01*
X795311Y573433D01*
X795107Y573473D01*
X795069Y573474D01*
X795031Y573481D01*
X794822Y573482D01*
X794614Y573488D01*
X794576Y573483D01*
X794538Y573484D01*
X794331Y573451D01*
X794125Y573424D01*
X794088Y573413D01*
X794051Y573407D01*
X793852Y573342D01*
X793653Y573281D01*
X793618Y573265D01*
X793582Y573253D01*
X793397Y573156D01*
X793209Y573065D01*
X793178Y573043D01*
X793144Y573025D01*
X793072Y572967D01*
X792807Y572779D01*
X792685Y572658D01*
X792611Y572600D01*
X783467Y563456D01*
X783393Y563368D01*
X783312Y563288D01*
X783234Y563181D01*
X783148Y563080D01*
X783089Y562982D01*
X783022Y562889D01*
X782962Y562771D01*
X782893Y562657D01*
X782851Y562551D01*
X782799Y562449D01*
X782759Y562322D01*
X782710Y562199D01*
X782685Y562088D01*
X782651Y561979D01*
X782641Y561885D01*
X782603Y561717D01*
X782585Y561393D01*
X782575Y561301D01*
X782575Y406994D01*
X782584Y406880D01*
X782583Y406766D01*
X782604Y406634D01*
X782615Y406502D01*
X782642Y406391D01*
X782660Y406278D01*
X782701Y406152D01*
X782733Y406023D01*
X782778Y405918D01*
X782814Y405810D01*
X782876Y405692D01*
X782928Y405570D01*
X782989Y405474D01*
X783042Y405372D01*
X783101Y405299D01*
X783193Y405154D01*
X783409Y404912D01*
X783467Y404839D01*
X786896Y401410D01*
X786954Y401361D01*
X787007Y401305D01*
X787142Y401201D01*
X787272Y401091D01*
X787338Y401051D01*
X787398Y401005D01*
X787548Y400924D01*
X787695Y400836D01*
X787766Y400808D01*
X787833Y400772D01*
X787994Y400716D01*
X788153Y400653D01*
X788227Y400637D01*
X788299Y400612D01*
X788468Y400583D01*
X788635Y400546D01*
X788711Y400542D01*
X788786Y400529D01*
X788957Y400528D01*
X789127Y400519D01*
X789203Y400527D01*
G37*
G36*
X654652Y693990D02*
X654652Y693990D01*
X654728Y693989D01*
X654897Y694016D01*
X655067Y694034D01*
X655140Y694054D01*
X655215Y694066D01*
X655378Y694119D01*
X655542Y694164D01*
X655612Y694196D01*
X655684Y694220D01*
X655836Y694299D01*
X655991Y694370D01*
X656054Y694413D01*
X656122Y694448D01*
X656204Y694514D01*
X656400Y694646D01*
X656572Y694808D01*
X656655Y694873D01*
X659430Y697648D01*
X664472Y699737D01*
X668274Y699737D01*
X668350Y699743D01*
X668426Y699741D01*
X668595Y699763D01*
X668766Y699777D01*
X668840Y699795D01*
X668915Y699805D01*
X669079Y699854D01*
X669245Y699895D01*
X669314Y699925D01*
X669388Y699947D01*
X669541Y700023D01*
X669698Y700090D01*
X669762Y700131D01*
X669831Y700164D01*
X669970Y700263D01*
X670114Y700355D01*
X670171Y700406D01*
X670233Y700450D01*
X670354Y700570D01*
X670482Y700684D01*
X670530Y700743D01*
X670584Y700797D01*
X670685Y700935D01*
X670792Y701068D01*
X670829Y701134D01*
X670874Y701195D01*
X670951Y701348D01*
X671036Y701496D01*
X671062Y701568D01*
X671097Y701636D01*
X671148Y701799D01*
X671207Y701959D01*
X671222Y702034D01*
X671245Y702106D01*
X671257Y702211D01*
X671302Y702443D01*
X671309Y702679D01*
X671321Y702784D01*
X671321Y713550D01*
X671318Y713588D01*
X671320Y713626D01*
X671298Y713834D01*
X671281Y714042D01*
X671272Y714079D01*
X671268Y714117D01*
X671213Y714317D01*
X671163Y714520D01*
X671148Y714556D01*
X671137Y714592D01*
X671051Y714782D01*
X670968Y714974D01*
X670948Y715006D01*
X670932Y715041D01*
X670815Y715214D01*
X670703Y715390D01*
X670678Y715418D01*
X670656Y715450D01*
X670513Y715602D01*
X670374Y715758D01*
X670345Y715782D01*
X670318Y715810D01*
X670153Y715936D01*
X669990Y716068D01*
X669957Y716087D01*
X669927Y716110D01*
X669743Y716208D01*
X669562Y716312D01*
X669526Y716325D01*
X669492Y716343D01*
X669295Y716411D01*
X669099Y716483D01*
X669062Y716491D01*
X669026Y716503D01*
X668819Y716538D01*
X668615Y716578D01*
X668577Y716579D01*
X668539Y716586D01*
X668330Y716587D01*
X668122Y716593D01*
X668084Y716588D01*
X668046Y716589D01*
X667839Y716556D01*
X667633Y716529D01*
X667596Y716518D01*
X667559Y716512D01*
X667361Y716447D01*
X667161Y716386D01*
X667126Y716370D01*
X667090Y716358D01*
X666905Y716261D01*
X666717Y716170D01*
X666686Y716148D01*
X666652Y716130D01*
X666580Y716072D01*
X666315Y715884D01*
X666193Y715763D01*
X666119Y715705D01*
X665058Y714644D01*
X661706Y713255D01*
X658078Y713255D01*
X654726Y714644D01*
X652160Y717210D01*
X650771Y720562D01*
X650771Y724190D01*
X652163Y727549D01*
X652215Y727610D01*
X652296Y727691D01*
X652374Y727798D01*
X652460Y727899D01*
X652519Y727997D01*
X652586Y728089D01*
X652646Y728208D01*
X652715Y728322D01*
X652757Y728428D01*
X652809Y728530D01*
X652849Y728657D01*
X652898Y728780D01*
X652923Y728891D01*
X652957Y729000D01*
X652967Y729094D01*
X653005Y729262D01*
X653023Y729586D01*
X653033Y729678D01*
X653033Y808189D01*
X653030Y808227D01*
X653032Y808265D01*
X653010Y808473D01*
X652993Y808681D01*
X652984Y808718D01*
X652980Y808755D01*
X652925Y808957D01*
X652875Y809159D01*
X652860Y809194D01*
X652849Y809231D01*
X652762Y809421D01*
X652680Y809613D01*
X652660Y809645D01*
X652644Y809680D01*
X652527Y809853D01*
X652415Y810029D01*
X652390Y810057D01*
X652368Y810089D01*
X652225Y810241D01*
X652086Y810397D01*
X652057Y810421D01*
X652031Y810448D01*
X651865Y810576D01*
X651702Y810707D01*
X651669Y810726D01*
X651639Y810749D01*
X651455Y810847D01*
X651274Y810951D01*
X651238Y810964D01*
X651204Y810982D01*
X651007Y811050D01*
X650811Y811122D01*
X650774Y811130D01*
X650738Y811142D01*
X650531Y811177D01*
X650327Y811217D01*
X650289Y811218D01*
X650251Y811225D01*
X650042Y811226D01*
X649834Y811232D01*
X649796Y811227D01*
X649758Y811228D01*
X649551Y811195D01*
X649345Y811168D01*
X649308Y811157D01*
X649271Y811151D01*
X649072Y811086D01*
X648873Y811025D01*
X648838Y811009D01*
X648802Y810997D01*
X648617Y810900D01*
X648429Y810809D01*
X648398Y810787D01*
X648364Y810769D01*
X648292Y810711D01*
X648027Y810523D01*
X647905Y810402D01*
X647831Y810344D01*
X621137Y783650D01*
X621063Y783563D01*
X620982Y783482D01*
X620904Y783375D01*
X620818Y783274D01*
X620759Y783176D01*
X620692Y783083D01*
X620632Y782965D01*
X620563Y782851D01*
X620521Y782745D01*
X620469Y782643D01*
X620429Y782516D01*
X620380Y782393D01*
X620355Y782282D01*
X620321Y782173D01*
X620311Y782079D01*
X620273Y781911D01*
X620255Y781587D01*
X620245Y781495D01*
X620245Y779998D01*
X619493Y778183D01*
X619426Y777975D01*
X619355Y777769D01*
X619350Y777740D01*
X619342Y777713D01*
X619309Y777498D01*
X619273Y777282D01*
X619272Y777254D01*
X619268Y777226D01*
X619271Y777008D01*
X619270Y776789D01*
X619274Y776761D01*
X619274Y776732D01*
X619312Y776517D01*
X619346Y776301D01*
X619355Y776275D01*
X619360Y776246D01*
X619432Y776040D01*
X619500Y775833D01*
X619514Y775808D01*
X619523Y775781D01*
X619627Y775590D01*
X619728Y775395D01*
X619743Y775377D01*
X619759Y775348D01*
X620062Y774958D01*
X620121Y774903D01*
X620154Y774862D01*
X635227Y759789D01*
X636271Y757268D01*
X636271Y702784D01*
X636277Y702708D01*
X636275Y702632D01*
X636297Y702463D01*
X636311Y702292D01*
X636329Y702218D01*
X636339Y702143D01*
X636388Y701979D01*
X636429Y701813D01*
X636459Y701744D01*
X636481Y701670D01*
X636557Y701517D01*
X636624Y701360D01*
X636665Y701296D01*
X636698Y701227D01*
X636797Y701088D01*
X636889Y700944D01*
X636940Y700887D01*
X636984Y700825D01*
X637104Y700704D01*
X637218Y700576D01*
X637277Y700528D01*
X637331Y700474D01*
X637469Y700373D01*
X637602Y700266D01*
X637668Y700229D01*
X637729Y700184D01*
X637882Y700107D01*
X638030Y700022D01*
X638102Y699996D01*
X638170Y699961D01*
X638333Y699910D01*
X638493Y699851D01*
X638568Y699836D01*
X638640Y699813D01*
X638745Y699801D01*
X638977Y699756D01*
X639213Y699749D01*
X639318Y699737D01*
X644528Y699737D01*
X649570Y697649D01*
X652345Y694873D01*
X652403Y694824D01*
X652455Y694768D01*
X652591Y694664D01*
X652721Y694554D01*
X652787Y694514D01*
X652847Y694468D01*
X652997Y694387D01*
X653144Y694299D01*
X653214Y694271D01*
X653282Y694235D01*
X653443Y694179D01*
X653602Y694116D01*
X653676Y694100D01*
X653748Y694075D01*
X653917Y694046D01*
X654083Y694009D01*
X654160Y694005D01*
X654235Y693992D01*
X654406Y693991D01*
X654576Y693982D01*
X654652Y693990D01*
G37*
G36*
X528180Y427781D02*
X528180Y427781D01*
X528218Y427780D01*
X528425Y427807D01*
X528633Y427829D01*
X528669Y427839D01*
X528707Y427844D01*
X528907Y427905D01*
X529108Y427960D01*
X529143Y427976D01*
X529180Y427987D01*
X529367Y428078D01*
X529557Y428165D01*
X529589Y428187D01*
X529623Y428203D01*
X529793Y428324D01*
X529966Y428441D01*
X529994Y428467D01*
X530025Y428489D01*
X530174Y428636D01*
X530326Y428779D01*
X530349Y428809D01*
X530376Y428836D01*
X530499Y429004D01*
X530626Y429170D01*
X530644Y429204D01*
X530666Y429234D01*
X530760Y429421D01*
X530859Y429605D01*
X530871Y429641D01*
X530889Y429675D01*
X530951Y429874D01*
X531019Y430071D01*
X531025Y430109D01*
X531037Y430145D01*
X531047Y430238D01*
X531102Y430558D01*
X531103Y430730D01*
X531113Y430823D01*
X531113Y462241D01*
X531104Y462354D01*
X531105Y462469D01*
X531084Y462600D01*
X531073Y462733D01*
X531046Y462843D01*
X531028Y462956D01*
X530987Y463082D01*
X530955Y463211D01*
X530910Y463316D01*
X530874Y463425D01*
X530812Y463543D01*
X530760Y463665D01*
X530699Y463761D01*
X530646Y463862D01*
X530587Y463936D01*
X530495Y464081D01*
X530279Y464323D01*
X530221Y464396D01*
X476881Y517736D01*
X476852Y517760D01*
X476826Y517789D01*
X476664Y517920D01*
X476505Y518055D01*
X476472Y518075D01*
X476442Y518099D01*
X476262Y518202D01*
X476082Y518310D01*
X476047Y518324D01*
X476014Y518343D01*
X475818Y518415D01*
X475624Y518493D01*
X475587Y518501D01*
X475551Y518514D01*
X475346Y518554D01*
X475142Y518600D01*
X475104Y518602D01*
X475067Y518609D01*
X474859Y518615D01*
X474650Y518627D01*
X474612Y518623D01*
X474574Y518624D01*
X474367Y518597D01*
X474159Y518575D01*
X474123Y518565D01*
X474085Y518560D01*
X473885Y518499D01*
X473684Y518444D01*
X473649Y518428D01*
X473612Y518417D01*
X473425Y518326D01*
X473235Y518239D01*
X473203Y518217D01*
X473169Y518201D01*
X472999Y518080D01*
X472826Y517963D01*
X472798Y517937D01*
X472767Y517915D01*
X472618Y517768D01*
X472466Y517625D01*
X472443Y517595D01*
X472416Y517568D01*
X472293Y517400D01*
X472166Y517234D01*
X472148Y517200D01*
X472126Y517170D01*
X472032Y516983D01*
X471933Y516799D01*
X471921Y516763D01*
X471903Y516729D01*
X471841Y516530D01*
X471773Y516333D01*
X471767Y516295D01*
X471755Y516259D01*
X471745Y516166D01*
X471690Y515846D01*
X471689Y515674D01*
X471679Y515581D01*
X471679Y494982D01*
X471688Y494868D01*
X471687Y494754D01*
X471708Y494623D01*
X471719Y494490D01*
X471746Y494380D01*
X471764Y494267D01*
X471805Y494140D01*
X471837Y494012D01*
X471882Y493907D01*
X471918Y493798D01*
X471980Y493680D01*
X472032Y493558D01*
X472093Y493462D01*
X472146Y493361D01*
X472205Y493287D01*
X472297Y493142D01*
X472513Y492900D01*
X472548Y492857D01*
X473941Y489494D01*
X473941Y485866D01*
X473189Y484051D01*
X473122Y483843D01*
X473051Y483637D01*
X473046Y483608D01*
X473038Y483581D01*
X473005Y483366D01*
X472969Y483150D01*
X472968Y483122D01*
X472964Y483094D01*
X472967Y482876D01*
X472966Y482657D01*
X472970Y482629D01*
X472970Y482600D01*
X473008Y482385D01*
X473042Y482169D01*
X473051Y482143D01*
X473056Y482114D01*
X473128Y481908D01*
X473196Y481701D01*
X473210Y481676D01*
X473219Y481649D01*
X473323Y481458D01*
X473424Y481263D01*
X473439Y481245D01*
X473455Y481216D01*
X473758Y480826D01*
X473817Y480771D01*
X473850Y480730D01*
X525911Y428668D01*
X525940Y428644D01*
X525966Y428615D01*
X526128Y428484D01*
X526287Y428349D01*
X526320Y428329D01*
X526350Y428305D01*
X526530Y428202D01*
X526710Y428094D01*
X526745Y428080D01*
X526778Y428061D01*
X526974Y427989D01*
X527168Y427911D01*
X527205Y427903D01*
X527241Y427890D01*
X527446Y427850D01*
X527650Y427804D01*
X527688Y427802D01*
X527725Y427795D01*
X527933Y427789D01*
X528142Y427777D01*
X528180Y427781D01*
G37*
G36*
X362026Y407423D02*
X362026Y407423D01*
X362102Y407421D01*
X362271Y407443D01*
X362442Y407457D01*
X362516Y407475D01*
X362591Y407485D01*
X362755Y407534D01*
X362921Y407575D01*
X362990Y407605D01*
X363064Y407627D01*
X363217Y407703D01*
X363374Y407770D01*
X363438Y407811D01*
X363507Y407844D01*
X363646Y407943D01*
X363790Y408035D01*
X363847Y408086D01*
X363909Y408130D01*
X364030Y408250D01*
X364158Y408364D01*
X364206Y408423D01*
X364260Y408477D01*
X364361Y408615D01*
X364468Y408748D01*
X364505Y408814D01*
X364550Y408875D01*
X364627Y409028D01*
X364712Y409176D01*
X364738Y409248D01*
X364773Y409316D01*
X364824Y409479D01*
X364883Y409639D01*
X364898Y409714D01*
X364921Y409786D01*
X364933Y409891D01*
X364978Y410123D01*
X364985Y410359D01*
X364997Y410464D01*
X364997Y641444D01*
X366041Y643965D01*
X378224Y656148D01*
X378273Y656206D01*
X378329Y656258D01*
X378433Y656394D01*
X378544Y656524D01*
X378583Y656589D01*
X378629Y656650D01*
X378710Y656800D01*
X378798Y656946D01*
X378827Y657017D01*
X378863Y657084D01*
X378918Y657246D01*
X378981Y657405D01*
X378998Y657479D01*
X379023Y657551D01*
X379051Y657720D01*
X379088Y657886D01*
X379092Y657962D01*
X379105Y658037D01*
X379106Y658208D01*
X379116Y658379D01*
X379108Y658454D01*
X379108Y658531D01*
X379082Y658700D01*
X379064Y658869D01*
X379043Y658943D01*
X379032Y659018D01*
X378978Y659180D01*
X378933Y659345D01*
X378901Y659414D01*
X378877Y659487D01*
X378798Y659638D01*
X378727Y659793D01*
X378685Y659857D01*
X378649Y659924D01*
X378584Y660006D01*
X378452Y660203D01*
X378313Y660350D01*
X378309Y660356D01*
X378288Y660378D01*
X378224Y660457D01*
X376172Y662510D01*
X374083Y667552D01*
X374083Y669447D01*
X374080Y669485D01*
X374082Y669523D01*
X374060Y669731D01*
X374043Y669939D01*
X374034Y669976D01*
X374030Y670013D01*
X373975Y670215D01*
X373925Y670417D01*
X373910Y670452D01*
X373899Y670489D01*
X373812Y670679D01*
X373730Y670871D01*
X373710Y670903D01*
X373694Y670938D01*
X373577Y671111D01*
X373465Y671287D01*
X373440Y671315D01*
X373418Y671347D01*
X373275Y671499D01*
X373136Y671655D01*
X373107Y671679D01*
X373081Y671706D01*
X372915Y671834D01*
X372752Y671965D01*
X372719Y671984D01*
X372689Y672007D01*
X372505Y672105D01*
X372324Y672209D01*
X372288Y672222D01*
X372254Y672240D01*
X372057Y672308D01*
X371861Y672380D01*
X371824Y672388D01*
X371788Y672400D01*
X371581Y672435D01*
X371377Y672475D01*
X371339Y672476D01*
X371301Y672483D01*
X371092Y672484D01*
X370884Y672490D01*
X370846Y672485D01*
X370808Y672486D01*
X370601Y672453D01*
X370395Y672426D01*
X370358Y672415D01*
X370321Y672409D01*
X370122Y672344D01*
X369923Y672283D01*
X369888Y672267D01*
X369852Y672255D01*
X369667Y672158D01*
X369479Y672067D01*
X369448Y672045D01*
X369414Y672027D01*
X369342Y671969D01*
X369077Y671781D01*
X368955Y671660D01*
X368881Y671602D01*
X358271Y660992D01*
X358197Y660905D01*
X358116Y660824D01*
X358038Y660717D01*
X357952Y660616D01*
X357893Y660518D01*
X357826Y660425D01*
X357766Y660307D01*
X357697Y660193D01*
X357655Y660087D01*
X357603Y659985D01*
X357563Y659858D01*
X357514Y659735D01*
X357489Y659624D01*
X357455Y659515D01*
X357445Y659421D01*
X357407Y659253D01*
X357389Y658929D01*
X357379Y658837D01*
X357379Y410464D01*
X357385Y410388D01*
X357383Y410312D01*
X357405Y410143D01*
X357419Y409972D01*
X357437Y409898D01*
X357447Y409823D01*
X357496Y409659D01*
X357537Y409493D01*
X357567Y409424D01*
X357589Y409350D01*
X357665Y409197D01*
X357732Y409040D01*
X357773Y408976D01*
X357806Y408907D01*
X357905Y408768D01*
X357997Y408624D01*
X358048Y408567D01*
X358092Y408505D01*
X358212Y408384D01*
X358326Y408256D01*
X358385Y408208D01*
X358439Y408154D01*
X358577Y408053D01*
X358710Y407946D01*
X358776Y407909D01*
X358837Y407864D01*
X358990Y407787D01*
X359138Y407702D01*
X359210Y407676D01*
X359278Y407641D01*
X359441Y407590D01*
X359601Y407531D01*
X359676Y407516D01*
X359748Y407493D01*
X359853Y407481D01*
X360085Y407436D01*
X360321Y407429D01*
X360426Y407417D01*
X361950Y407417D01*
X362026Y407423D01*
G37*
G36*
X388048Y493317D02*
X388048Y493317D01*
X388086Y493316D01*
X388293Y493349D01*
X388499Y493376D01*
X388536Y493387D01*
X388573Y493393D01*
X388772Y493458D01*
X388971Y493519D01*
X389006Y493535D01*
X389042Y493547D01*
X389227Y493644D01*
X389415Y493735D01*
X389446Y493757D01*
X389480Y493775D01*
X389552Y493833D01*
X389817Y494021D01*
X389939Y494142D01*
X390013Y494200D01*
X405253Y509440D01*
X405327Y509527D01*
X405408Y509608D01*
X405486Y509715D01*
X405572Y509816D01*
X405631Y509914D01*
X405698Y510007D01*
X405758Y510125D01*
X405827Y510239D01*
X405869Y510345D01*
X405921Y510447D01*
X405961Y510574D01*
X406010Y510697D01*
X406035Y510808D01*
X406069Y510917D01*
X406079Y511011D01*
X406117Y511179D01*
X406135Y511503D01*
X406145Y511595D01*
X406145Y602449D01*
X406142Y602487D01*
X406144Y602525D01*
X406122Y602733D01*
X406105Y602941D01*
X406096Y602978D01*
X406092Y603015D01*
X406037Y603217D01*
X405987Y603419D01*
X405972Y603454D01*
X405961Y603491D01*
X405874Y603681D01*
X405792Y603873D01*
X405772Y603905D01*
X405756Y603940D01*
X405639Y604113D01*
X405527Y604289D01*
X405502Y604317D01*
X405480Y604349D01*
X405337Y604501D01*
X405198Y604657D01*
X405169Y604681D01*
X405143Y604708D01*
X404977Y604836D01*
X404814Y604967D01*
X404781Y604986D01*
X404751Y605009D01*
X404567Y605107D01*
X404386Y605211D01*
X404350Y605224D01*
X404316Y605242D01*
X404119Y605310D01*
X403923Y605382D01*
X403886Y605390D01*
X403850Y605402D01*
X403643Y605437D01*
X403439Y605477D01*
X403401Y605478D01*
X403363Y605485D01*
X403154Y605486D01*
X402946Y605492D01*
X402908Y605487D01*
X402870Y605488D01*
X402663Y605455D01*
X402457Y605428D01*
X402420Y605417D01*
X402383Y605411D01*
X402184Y605346D01*
X401985Y605285D01*
X401950Y605269D01*
X401914Y605257D01*
X401729Y605160D01*
X401541Y605069D01*
X401510Y605047D01*
X401476Y605029D01*
X401404Y604971D01*
X401139Y604783D01*
X401017Y604662D01*
X400943Y604604D01*
X385703Y589364D01*
X385629Y589277D01*
X385548Y589196D01*
X385470Y589089D01*
X385384Y588988D01*
X385325Y588890D01*
X385258Y588798D01*
X385198Y588679D01*
X385129Y588565D01*
X385087Y588459D01*
X385035Y588357D01*
X384995Y588230D01*
X384946Y588107D01*
X384921Y587996D01*
X384887Y587887D01*
X384877Y587793D01*
X384839Y587625D01*
X384821Y587301D01*
X384811Y587209D01*
X384811Y496355D01*
X384814Y496317D01*
X384812Y496279D01*
X384834Y496071D01*
X384851Y495863D01*
X384860Y495826D01*
X384864Y495789D01*
X384919Y495587D01*
X384969Y495385D01*
X384984Y495350D01*
X384995Y495313D01*
X385082Y495123D01*
X385164Y494931D01*
X385184Y494899D01*
X385200Y494864D01*
X385317Y494691D01*
X385429Y494515D01*
X385454Y494487D01*
X385476Y494455D01*
X385619Y494303D01*
X385758Y494147D01*
X385787Y494123D01*
X385813Y494096D01*
X385979Y493968D01*
X386142Y493837D01*
X386175Y493818D01*
X386205Y493795D01*
X386389Y493697D01*
X386570Y493593D01*
X386606Y493580D01*
X386640Y493562D01*
X386837Y493494D01*
X387033Y493422D01*
X387070Y493414D01*
X387106Y493402D01*
X387313Y493367D01*
X387517Y493327D01*
X387555Y493326D01*
X387593Y493319D01*
X387802Y493318D01*
X388010Y493312D01*
X388048Y493317D01*
G37*
G36*
X733958Y400654D02*
X733958Y400654D01*
X734034Y400653D01*
X734203Y400680D01*
X734373Y400698D01*
X734446Y400718D01*
X734521Y400730D01*
X734684Y400783D01*
X734848Y400828D01*
X734918Y400860D01*
X734990Y400884D01*
X735142Y400963D01*
X735297Y401034D01*
X735360Y401077D01*
X735428Y401112D01*
X735510Y401178D01*
X735706Y401310D01*
X735878Y401471D01*
X735961Y401537D01*
X740533Y406109D01*
X740607Y406196D01*
X740688Y406276D01*
X740766Y406384D01*
X740852Y406485D01*
X740911Y406583D01*
X740978Y406675D01*
X741038Y406794D01*
X741107Y406908D01*
X741149Y407014D01*
X741201Y407116D01*
X741241Y407242D01*
X741290Y407366D01*
X741315Y407477D01*
X741349Y407586D01*
X741359Y407680D01*
X741397Y407847D01*
X741415Y408172D01*
X741425Y408264D01*
X741425Y526411D01*
X741411Y526591D01*
X741404Y526771D01*
X741391Y526837D01*
X741385Y526903D01*
X741342Y527078D01*
X741306Y527255D01*
X741283Y527317D01*
X741267Y527382D01*
X741195Y527548D01*
X741132Y527716D01*
X741098Y527774D01*
X741072Y527835D01*
X740975Y527987D01*
X740885Y528144D01*
X740843Y528195D01*
X740807Y528251D01*
X740687Y528386D01*
X740572Y528525D01*
X740523Y528569D01*
X740478Y528619D01*
X740338Y528733D01*
X740203Y528852D01*
X740146Y528887D01*
X740094Y528929D01*
X739938Y529018D01*
X739785Y529114D01*
X739724Y529140D01*
X739666Y529173D01*
X739496Y529236D01*
X739330Y529306D01*
X739266Y529322D01*
X739203Y529345D01*
X739026Y529379D01*
X738851Y529422D01*
X738784Y529427D01*
X738719Y529439D01*
X738539Y529445D01*
X738359Y529458D01*
X738292Y529453D01*
X738226Y529455D01*
X738047Y529431D01*
X737867Y529415D01*
X737817Y529401D01*
X737737Y529390D01*
X737265Y529248D01*
X737234Y529233D01*
X737212Y529227D01*
X734408Y528065D01*
X716280Y528065D01*
X716204Y528059D01*
X716128Y528061D01*
X715959Y528039D01*
X715788Y528025D01*
X715714Y528007D01*
X715639Y527997D01*
X715475Y527948D01*
X715309Y527907D01*
X715240Y527877D01*
X715166Y527855D01*
X715013Y527779D01*
X714856Y527712D01*
X714792Y527671D01*
X714723Y527638D01*
X714584Y527539D01*
X714440Y527447D01*
X714383Y527396D01*
X714321Y527352D01*
X714200Y527232D01*
X714072Y527118D01*
X714024Y527059D01*
X713970Y527005D01*
X713869Y526867D01*
X713762Y526734D01*
X713725Y526668D01*
X713680Y526607D01*
X713603Y526454D01*
X713518Y526306D01*
X713492Y526234D01*
X713457Y526166D01*
X713406Y526003D01*
X713347Y525843D01*
X713332Y525768D01*
X713309Y525696D01*
X713297Y525591D01*
X713252Y525359D01*
X713245Y525123D01*
X713233Y525018D01*
X713233Y521817D01*
X713247Y521637D01*
X713254Y521457D01*
X713267Y521391D01*
X713273Y521325D01*
X713316Y521150D01*
X713352Y520973D01*
X713375Y520911D01*
X713391Y520846D01*
X713463Y520680D01*
X713526Y520512D01*
X713560Y520454D01*
X713586Y520393D01*
X713683Y520241D01*
X713773Y520084D01*
X713815Y520033D01*
X713851Y519977D01*
X713971Y519842D01*
X714086Y519702D01*
X714135Y519658D01*
X714180Y519609D01*
X714320Y519496D01*
X714455Y519376D01*
X714512Y519341D01*
X714564Y519299D01*
X714720Y519210D01*
X714873Y519114D01*
X714935Y519088D01*
X714992Y519055D01*
X715162Y518992D01*
X715328Y518922D01*
X715392Y518906D01*
X715455Y518883D01*
X715632Y518849D01*
X715807Y518806D01*
X715874Y518801D01*
X715939Y518789D01*
X716119Y518783D01*
X716299Y518770D01*
X716366Y518775D01*
X716432Y518773D01*
X716611Y518797D01*
X716791Y518813D01*
X716841Y518827D01*
X716921Y518838D01*
X717393Y518980D01*
X717424Y518995D01*
X717446Y519001D01*
X719038Y519661D01*
X722666Y519661D01*
X726018Y518272D01*
X728584Y515706D01*
X729973Y512354D01*
X729973Y508726D01*
X728581Y505367D01*
X728529Y505306D01*
X728448Y505225D01*
X728370Y505118D01*
X728284Y505017D01*
X728225Y504919D01*
X728158Y504827D01*
X728098Y504708D01*
X728029Y504594D01*
X727987Y504488D01*
X727935Y504386D01*
X727895Y504259D01*
X727846Y504136D01*
X727821Y504025D01*
X727787Y503916D01*
X727777Y503822D01*
X727739Y503654D01*
X727721Y503330D01*
X727711Y503238D01*
X727711Y406740D01*
X727720Y406626D01*
X727719Y406512D01*
X727740Y406380D01*
X727751Y406248D01*
X727778Y406137D01*
X727796Y406024D01*
X727837Y405898D01*
X727869Y405769D01*
X727914Y405664D01*
X727950Y405556D01*
X728012Y405438D01*
X728064Y405316D01*
X728125Y405220D01*
X728178Y405118D01*
X728237Y405045D01*
X728329Y404900D01*
X728545Y404658D01*
X728603Y404585D01*
X731651Y401537D01*
X731709Y401488D01*
X731762Y401432D01*
X731897Y401328D01*
X732027Y401218D01*
X732092Y401178D01*
X732153Y401132D01*
X732304Y401051D01*
X732450Y400963D01*
X732521Y400935D01*
X732588Y400899D01*
X732749Y400843D01*
X732908Y400780D01*
X732982Y400763D01*
X733054Y400739D01*
X733223Y400710D01*
X733390Y400673D01*
X733466Y400669D01*
X733541Y400656D01*
X733712Y400655D01*
X733882Y400646D01*
X733958Y400654D01*
G37*
G36*
X660552Y575567D02*
X660552Y575567D01*
X660685Y575569D01*
X660797Y575589D01*
X660911Y575599D01*
X661001Y575625D01*
X661170Y575655D01*
X661477Y575762D01*
X661566Y575788D01*
X664401Y576962D01*
X669359Y576962D01*
X669457Y576943D01*
X669523Y576941D01*
X669589Y576931D01*
X669770Y576933D01*
X669950Y576927D01*
X670016Y576936D01*
X670082Y576937D01*
X670260Y576968D01*
X670439Y576992D01*
X670503Y577011D01*
X670568Y577022D01*
X670738Y577082D01*
X670912Y577134D01*
X670971Y577163D01*
X671034Y577185D01*
X671192Y577272D01*
X671355Y577351D01*
X671409Y577389D01*
X671467Y577421D01*
X671610Y577532D01*
X671757Y577637D01*
X671804Y577683D01*
X671856Y577724D01*
X671979Y577856D01*
X672108Y577983D01*
X672147Y578037D01*
X672192Y578085D01*
X672292Y578236D01*
X672398Y578382D01*
X672428Y578441D01*
X672465Y578496D01*
X672539Y578661D01*
X672621Y578822D01*
X672641Y578886D01*
X672668Y578946D01*
X672715Y579120D01*
X672769Y579293D01*
X672775Y579345D01*
X672796Y579423D01*
X672845Y579913D01*
X672843Y579947D01*
X672845Y579971D01*
X672845Y590106D01*
X672836Y590220D01*
X672837Y590334D01*
X672816Y590465D01*
X672805Y590598D01*
X672778Y590708D01*
X672760Y590821D01*
X672719Y590948D01*
X672687Y591076D01*
X672642Y591181D01*
X672606Y591290D01*
X672544Y591408D01*
X672492Y591530D01*
X672431Y591626D01*
X672378Y591727D01*
X672319Y591801D01*
X672227Y591946D01*
X672011Y592188D01*
X671976Y592231D01*
X670927Y594764D01*
X670827Y594958D01*
X670731Y595155D01*
X670715Y595178D01*
X670702Y595203D01*
X670572Y595379D01*
X670446Y595557D01*
X670426Y595577D01*
X670409Y595600D01*
X670253Y595752D01*
X670099Y595908D01*
X670076Y595925D01*
X670056Y595945D01*
X669877Y596070D01*
X669700Y596198D01*
X669675Y596211D01*
X669652Y596228D01*
X669454Y596322D01*
X669260Y596421D01*
X669233Y596429D01*
X669207Y596442D01*
X668998Y596503D01*
X668789Y596569D01*
X668766Y596572D01*
X668734Y596581D01*
X668244Y596642D01*
X668164Y596639D01*
X668112Y596645D01*
X633515Y596645D01*
X633402Y596636D01*
X633287Y596637D01*
X633156Y596616D01*
X633023Y596605D01*
X632913Y596578D01*
X632800Y596560D01*
X632674Y596519D01*
X632545Y596487D01*
X632440Y596442D01*
X632331Y596406D01*
X632213Y596344D01*
X632091Y596292D01*
X631995Y596231D01*
X631894Y596178D01*
X631820Y596119D01*
X631675Y596027D01*
X631433Y595811D01*
X631360Y595753D01*
X617473Y581865D01*
X617356Y581727D01*
X617233Y581595D01*
X617196Y581540D01*
X617153Y581489D01*
X617060Y581334D01*
X616960Y581184D01*
X616933Y581123D01*
X616898Y581066D01*
X616831Y580898D01*
X616757Y580734D01*
X616740Y580670D01*
X616715Y580608D01*
X616676Y580432D01*
X616630Y580258D01*
X616623Y580192D01*
X616609Y580127D01*
X616598Y579946D01*
X616581Y579767D01*
X616585Y579701D01*
X616581Y579634D01*
X616600Y579454D01*
X616611Y579274D01*
X616626Y579210D01*
X616633Y579143D01*
X616681Y578969D01*
X616721Y578793D01*
X616746Y578732D01*
X616764Y578668D01*
X616839Y578504D01*
X616907Y578337D01*
X616942Y578280D01*
X616970Y578219D01*
X617070Y578069D01*
X617164Y577916D01*
X617208Y577865D01*
X617245Y577810D01*
X617369Y577678D01*
X617486Y577542D01*
X617537Y577499D01*
X617583Y577450D01*
X617726Y577341D01*
X617864Y577225D01*
X617910Y577199D01*
X617974Y577150D01*
X618409Y576917D01*
X618441Y576906D01*
X618461Y576895D01*
X621134Y575788D01*
X621242Y575753D01*
X621348Y575708D01*
X621477Y575677D01*
X621603Y575636D01*
X621716Y575619D01*
X621827Y575593D01*
X621960Y575583D01*
X622091Y575563D01*
X622205Y575564D01*
X622319Y575556D01*
X622452Y575567D01*
X622585Y575569D01*
X622697Y575589D01*
X622811Y575599D01*
X622901Y575625D01*
X623070Y575655D01*
X623377Y575762D01*
X623466Y575788D01*
X626300Y576962D01*
X630999Y576962D01*
X633834Y575788D01*
X633942Y575753D01*
X634048Y575708D01*
X634177Y575677D01*
X634303Y575636D01*
X634416Y575619D01*
X634527Y575593D01*
X634660Y575583D01*
X634791Y575563D01*
X634905Y575564D01*
X635019Y575556D01*
X635152Y575567D01*
X635285Y575569D01*
X635397Y575589D01*
X635511Y575599D01*
X635601Y575625D01*
X635770Y575655D01*
X636077Y575762D01*
X636166Y575788D01*
X639000Y576962D01*
X643699Y576962D01*
X646534Y575788D01*
X646642Y575753D01*
X646748Y575708D01*
X646877Y575677D01*
X647003Y575636D01*
X647116Y575619D01*
X647227Y575593D01*
X647360Y575583D01*
X647491Y575563D01*
X647605Y575564D01*
X647719Y575556D01*
X647852Y575567D01*
X647985Y575569D01*
X648097Y575589D01*
X648211Y575599D01*
X648301Y575625D01*
X648470Y575655D01*
X648777Y575762D01*
X648866Y575788D01*
X651700Y576962D01*
X656400Y576962D01*
X659234Y575788D01*
X659343Y575753D01*
X659448Y575708D01*
X659577Y575677D01*
X659703Y575636D01*
X659816Y575619D01*
X659927Y575593D01*
X660060Y575583D01*
X660191Y575563D01*
X660306Y575564D01*
X660419Y575556D01*
X660552Y575567D01*
G37*
G36*
X423100Y523797D02*
X423100Y523797D01*
X423138Y523796D01*
X423345Y523829D01*
X423551Y523856D01*
X423588Y523867D01*
X423625Y523873D01*
X423824Y523938D01*
X424023Y523999D01*
X424058Y524015D01*
X424094Y524027D01*
X424279Y524124D01*
X424467Y524215D01*
X424498Y524237D01*
X424532Y524255D01*
X424604Y524313D01*
X424869Y524501D01*
X424991Y524622D01*
X425065Y524680D01*
X431161Y530776D01*
X431235Y530864D01*
X431316Y530944D01*
X431394Y531051D01*
X431480Y531152D01*
X431539Y531250D01*
X431606Y531343D01*
X431666Y531461D01*
X431735Y531575D01*
X431777Y531681D01*
X431829Y531783D01*
X431869Y531910D01*
X431918Y532033D01*
X431943Y532144D01*
X431977Y532253D01*
X431987Y532347D01*
X432025Y532515D01*
X432043Y532839D01*
X432053Y532931D01*
X432053Y604466D01*
X432044Y604580D01*
X432045Y604694D01*
X432024Y604826D01*
X432013Y604958D01*
X431986Y605069D01*
X431968Y605181D01*
X431927Y605308D01*
X431895Y605437D01*
X431850Y605542D01*
X431814Y605650D01*
X431752Y605768D01*
X431700Y605890D01*
X431639Y605986D01*
X431586Y606088D01*
X431527Y606161D01*
X431435Y606306D01*
X431219Y606548D01*
X431161Y606621D01*
X429255Y608527D01*
X429197Y608576D01*
X429144Y608632D01*
X429009Y608736D01*
X428879Y608846D01*
X428814Y608886D01*
X428753Y608932D01*
X428603Y609013D01*
X428456Y609101D01*
X428385Y609129D01*
X428318Y609165D01*
X428157Y609221D01*
X427998Y609284D01*
X427924Y609300D01*
X427852Y609325D01*
X427683Y609354D01*
X427516Y609391D01*
X427440Y609395D01*
X427365Y609408D01*
X427194Y609409D01*
X427024Y609418D01*
X426948Y609410D01*
X426872Y609411D01*
X426703Y609384D01*
X426533Y609366D01*
X426460Y609346D01*
X426385Y609334D01*
X426222Y609281D01*
X426058Y609236D01*
X425988Y609204D01*
X425916Y609180D01*
X425765Y609101D01*
X425609Y609030D01*
X425546Y608987D01*
X425478Y608952D01*
X425396Y608886D01*
X425200Y608754D01*
X425028Y608593D01*
X424945Y608527D01*
X422170Y605751D01*
X421744Y605575D01*
X421550Y605476D01*
X421353Y605379D01*
X421330Y605363D01*
X421305Y605350D01*
X421129Y605220D01*
X420951Y605094D01*
X420931Y605074D01*
X420908Y605057D01*
X420755Y604901D01*
X420600Y604747D01*
X420583Y604724D01*
X420563Y604704D01*
X420438Y604525D01*
X420310Y604348D01*
X420297Y604323D01*
X420281Y604300D01*
X420186Y604103D01*
X420087Y603908D01*
X420079Y603881D01*
X420066Y603855D01*
X420005Y603646D01*
X419939Y603437D01*
X419936Y603414D01*
X419927Y603382D01*
X419866Y602893D01*
X419869Y602812D01*
X419863Y602760D01*
X419863Y526835D01*
X419866Y526797D01*
X419864Y526759D01*
X419886Y526551D01*
X419903Y526343D01*
X419912Y526306D01*
X419916Y526268D01*
X419971Y526067D01*
X420021Y525865D01*
X420036Y525830D01*
X420047Y525793D01*
X420134Y525603D01*
X420216Y525411D01*
X420236Y525379D01*
X420252Y525344D01*
X420370Y525170D01*
X420481Y524995D01*
X420506Y524967D01*
X420528Y524935D01*
X420671Y524783D01*
X420810Y524627D01*
X420839Y524603D01*
X420865Y524576D01*
X421031Y524448D01*
X421194Y524317D01*
X421227Y524298D01*
X421257Y524275D01*
X421441Y524177D01*
X421622Y524073D01*
X421658Y524060D01*
X421692Y524042D01*
X421889Y523974D01*
X422085Y523902D01*
X422122Y523894D01*
X422158Y523882D01*
X422365Y523847D01*
X422569Y523807D01*
X422607Y523806D01*
X422645Y523799D01*
X422854Y523798D01*
X423062Y523792D01*
X423100Y523797D01*
G37*
G36*
X485419Y400527D02*
X485419Y400527D01*
X485495Y400526D01*
X485664Y400553D01*
X485834Y400571D01*
X485907Y400591D01*
X485982Y400603D01*
X486145Y400656D01*
X486309Y400701D01*
X486379Y400733D01*
X486451Y400757D01*
X486602Y400836D01*
X486758Y400907D01*
X486821Y400950D01*
X486889Y400985D01*
X486971Y401051D01*
X487167Y401183D01*
X487339Y401344D01*
X487422Y401410D01*
X493428Y407417D01*
X496023Y407417D01*
X496061Y407420D01*
X496099Y407418D01*
X496307Y407440D01*
X496515Y407457D01*
X496552Y407466D01*
X496589Y407470D01*
X496791Y407525D01*
X496993Y407575D01*
X497028Y407590D01*
X497065Y407601D01*
X497255Y407688D01*
X497447Y407770D01*
X497479Y407790D01*
X497514Y407806D01*
X497687Y407923D01*
X497863Y408035D01*
X497891Y408060D01*
X497923Y408082D01*
X498075Y408225D01*
X498231Y408364D01*
X498255Y408393D01*
X498282Y408419D01*
X498410Y408585D01*
X498541Y408748D01*
X498560Y408781D01*
X498583Y408811D01*
X498681Y408995D01*
X498785Y409176D01*
X498798Y409212D01*
X498816Y409246D01*
X498884Y409443D01*
X498956Y409639D01*
X498964Y409676D01*
X498976Y409712D01*
X499011Y409919D01*
X499051Y410123D01*
X499052Y410161D01*
X499059Y410199D01*
X499060Y410408D01*
X499066Y410616D01*
X499061Y410654D01*
X499062Y410692D01*
X499029Y410899D01*
X499002Y411105D01*
X498991Y411142D01*
X498985Y411179D01*
X498920Y411378D01*
X498859Y411577D01*
X498843Y411612D01*
X498831Y411648D01*
X498734Y411833D01*
X498643Y412021D01*
X498621Y412052D01*
X498603Y412086D01*
X498545Y412158D01*
X498357Y412423D01*
X498236Y412545D01*
X498178Y412619D01*
X464689Y446108D01*
X464660Y446132D01*
X464634Y446161D01*
X464472Y446292D01*
X464313Y446427D01*
X464280Y446447D01*
X464250Y446471D01*
X464070Y446574D01*
X463890Y446682D01*
X463855Y446696D01*
X463822Y446715D01*
X463626Y446787D01*
X463432Y446865D01*
X463395Y446873D01*
X463359Y446886D01*
X463154Y446926D01*
X462950Y446972D01*
X462912Y446974D01*
X462875Y446981D01*
X462667Y446987D01*
X462458Y446999D01*
X462420Y446995D01*
X462382Y446996D01*
X462175Y446969D01*
X461967Y446947D01*
X461931Y446937D01*
X461893Y446932D01*
X461693Y446871D01*
X461492Y446816D01*
X461457Y446800D01*
X461420Y446789D01*
X461233Y446698D01*
X461043Y446611D01*
X461011Y446589D01*
X460977Y446573D01*
X460807Y446452D01*
X460634Y446335D01*
X460606Y446309D01*
X460575Y446287D01*
X460426Y446140D01*
X460274Y445997D01*
X460251Y445967D01*
X460224Y445940D01*
X460101Y445772D01*
X459974Y445606D01*
X459956Y445572D01*
X459934Y445542D01*
X459840Y445355D01*
X459741Y445171D01*
X459729Y445135D01*
X459711Y445101D01*
X459649Y444902D01*
X459581Y444705D01*
X459575Y444667D01*
X459563Y444631D01*
X459553Y444538D01*
X459498Y444218D01*
X459497Y444046D01*
X459487Y443953D01*
X459487Y417107D01*
X459496Y416994D01*
X459495Y416879D01*
X459516Y416748D01*
X459527Y416615D01*
X459554Y416505D01*
X459572Y416392D01*
X459613Y416266D01*
X459645Y416137D01*
X459690Y416032D01*
X459726Y415923D01*
X459788Y415805D01*
X459840Y415683D01*
X459901Y415587D01*
X459954Y415486D01*
X460013Y415412D01*
X460105Y415267D01*
X460321Y415025D01*
X460379Y414952D01*
X467022Y408309D01*
X467109Y408235D01*
X467190Y408154D01*
X467297Y408076D01*
X467398Y407990D01*
X467496Y407931D01*
X467589Y407864D01*
X467707Y407804D01*
X467821Y407735D01*
X467927Y407693D01*
X468029Y407641D01*
X468156Y407601D01*
X468279Y407552D01*
X468390Y407527D01*
X468499Y407493D01*
X468593Y407483D01*
X468761Y407445D01*
X469085Y407427D01*
X469177Y407417D01*
X477106Y407417D01*
X483112Y401410D01*
X483170Y401361D01*
X483223Y401305D01*
X483358Y401201D01*
X483488Y401091D01*
X483554Y401051D01*
X483614Y401005D01*
X483764Y400924D01*
X483911Y400836D01*
X483982Y400808D01*
X484049Y400772D01*
X484210Y400716D01*
X484369Y400653D01*
X484443Y400637D01*
X484515Y400612D01*
X484684Y400583D01*
X484851Y400546D01*
X484927Y400542D01*
X485002Y400529D01*
X485173Y400528D01*
X485343Y400519D01*
X485419Y400527D01*
G37*
G36*
X616534Y699743D02*
X616534Y699743D01*
X616610Y699741D01*
X616779Y699763D01*
X616950Y699777D01*
X617024Y699795D01*
X617099Y699805D01*
X617263Y699854D01*
X617429Y699895D01*
X617498Y699925D01*
X617572Y699947D01*
X617725Y700023D01*
X617882Y700090D01*
X617946Y700131D01*
X618015Y700164D01*
X618154Y700263D01*
X618298Y700355D01*
X618355Y700406D01*
X618417Y700450D01*
X618538Y700570D01*
X618666Y700684D01*
X618714Y700743D01*
X618768Y700797D01*
X618869Y700935D01*
X618976Y701068D01*
X619013Y701134D01*
X619058Y701195D01*
X619135Y701348D01*
X619220Y701496D01*
X619246Y701568D01*
X619281Y701636D01*
X619332Y701799D01*
X619391Y701959D01*
X619406Y702034D01*
X619429Y702106D01*
X619441Y702211D01*
X619486Y702443D01*
X619493Y702679D01*
X619505Y702784D01*
X619505Y733513D01*
X619496Y733626D01*
X619497Y733741D01*
X619476Y733872D01*
X619465Y734005D01*
X619438Y734115D01*
X619420Y734228D01*
X619379Y734354D01*
X619347Y734483D01*
X619302Y734588D01*
X619266Y734697D01*
X619204Y734815D01*
X619152Y734937D01*
X619091Y735033D01*
X619038Y735134D01*
X618979Y735208D01*
X618887Y735353D01*
X618671Y735595D01*
X618613Y735668D01*
X585085Y769196D01*
X585056Y769220D01*
X585030Y769249D01*
X584868Y769380D01*
X584709Y769515D01*
X584676Y769535D01*
X584646Y769559D01*
X584466Y769662D01*
X584286Y769770D01*
X584251Y769784D01*
X584218Y769803D01*
X584022Y769875D01*
X583828Y769953D01*
X583791Y769961D01*
X583755Y769974D01*
X583550Y770014D01*
X583346Y770060D01*
X583308Y770062D01*
X583271Y770069D01*
X583063Y770075D01*
X582854Y770087D01*
X582816Y770083D01*
X582778Y770084D01*
X582571Y770057D01*
X582363Y770035D01*
X582327Y770025D01*
X582289Y770020D01*
X582089Y769959D01*
X581888Y769904D01*
X581853Y769888D01*
X581816Y769877D01*
X581629Y769786D01*
X581439Y769699D01*
X581407Y769677D01*
X581373Y769661D01*
X581203Y769540D01*
X581030Y769423D01*
X581002Y769397D01*
X580971Y769375D01*
X580822Y769228D01*
X580670Y769085D01*
X580647Y769055D01*
X580620Y769028D01*
X580497Y768860D01*
X580370Y768694D01*
X580352Y768660D01*
X580330Y768630D01*
X580236Y768443D01*
X580137Y768259D01*
X580125Y768223D01*
X580107Y768189D01*
X580045Y767990D01*
X579977Y767793D01*
X579971Y767755D01*
X579959Y767719D01*
X579949Y767626D01*
X579894Y767306D01*
X579893Y767134D01*
X579883Y767041D01*
X579883Y755435D01*
X579892Y755322D01*
X579891Y755207D01*
X579912Y755076D01*
X579923Y754943D01*
X579950Y754833D01*
X579968Y754720D01*
X580009Y754594D01*
X580041Y754465D01*
X580086Y754360D01*
X580122Y754251D01*
X580184Y754133D01*
X580236Y754011D01*
X580297Y753915D01*
X580350Y753814D01*
X580409Y753740D01*
X580501Y753595D01*
X580717Y753353D01*
X580775Y753280D01*
X609319Y724737D01*
X610363Y722216D01*
X610363Y702784D01*
X610369Y702708D01*
X610367Y702632D01*
X610389Y702463D01*
X610403Y702292D01*
X610421Y702218D01*
X610431Y702143D01*
X610480Y701979D01*
X610521Y701813D01*
X610551Y701744D01*
X610573Y701670D01*
X610649Y701517D01*
X610716Y701360D01*
X610757Y701296D01*
X610790Y701227D01*
X610889Y701088D01*
X610981Y700944D01*
X611032Y700887D01*
X611076Y700825D01*
X611196Y700704D01*
X611310Y700576D01*
X611369Y700528D01*
X611423Y700474D01*
X611561Y700373D01*
X611694Y700266D01*
X611760Y700229D01*
X611821Y700184D01*
X611974Y700107D01*
X612122Y700022D01*
X612194Y699996D01*
X612262Y699961D01*
X612425Y699910D01*
X612585Y699851D01*
X612660Y699836D01*
X612732Y699813D01*
X612837Y699801D01*
X613069Y699756D01*
X613305Y699749D01*
X613410Y699737D01*
X616458Y699737D01*
X616534Y699743D01*
G37*
G36*
X541602Y703336D02*
X541602Y703336D01*
X541717Y703335D01*
X541848Y703356D01*
X541981Y703367D01*
X542091Y703394D01*
X542204Y703412D01*
X542330Y703453D01*
X542459Y703485D01*
X542564Y703530D01*
X542673Y703566D01*
X542791Y703627D01*
X542913Y703680D01*
X543009Y703741D01*
X543110Y703794D01*
X543184Y703853D01*
X543329Y703945D01*
X543571Y704161D01*
X543644Y704219D01*
X547230Y707806D01*
X547372Y707973D01*
X547516Y708136D01*
X547531Y708160D01*
X547550Y708182D01*
X547663Y708369D01*
X547779Y708554D01*
X547790Y708580D01*
X547804Y708605D01*
X547885Y708807D01*
X547970Y709009D01*
X547977Y709036D01*
X547988Y709063D01*
X548035Y709276D01*
X548086Y709488D01*
X548088Y709517D01*
X548094Y709544D01*
X548107Y709763D01*
X548123Y709980D01*
X548120Y710008D01*
X548122Y710037D01*
X548099Y710254D01*
X548080Y710472D01*
X548073Y710494D01*
X548070Y710527D01*
X547939Y711003D01*
X547906Y711076D01*
X547891Y711127D01*
X547137Y712948D01*
X547130Y713029D01*
X547131Y713143D01*
X547110Y713274D01*
X547099Y713407D01*
X547072Y713517D01*
X547054Y713630D01*
X547013Y713756D01*
X546981Y713885D01*
X546936Y713990D01*
X546900Y714099D01*
X546838Y714217D01*
X546786Y714339D01*
X546725Y714435D01*
X546672Y714536D01*
X546613Y714610D01*
X546521Y714755D01*
X546305Y714997D01*
X546247Y715070D01*
X527618Y733699D01*
X527532Y733772D01*
X527463Y733841D01*
X527463Y733842D01*
X527450Y733854D01*
X527343Y733932D01*
X527242Y734018D01*
X527144Y734077D01*
X527052Y734144D01*
X526933Y734204D01*
X526819Y734273D01*
X526713Y734315D01*
X526611Y734367D01*
X526484Y734407D01*
X526361Y734456D01*
X526250Y734481D01*
X526141Y734515D01*
X526047Y734525D01*
X525879Y734563D01*
X525555Y734581D01*
X525500Y734587D01*
X523675Y735343D01*
X523467Y735410D01*
X523261Y735481D01*
X523232Y735486D01*
X523205Y735494D01*
X522990Y735527D01*
X522774Y735563D01*
X522746Y735564D01*
X522718Y735568D01*
X522500Y735565D01*
X522281Y735566D01*
X522253Y735562D01*
X522224Y735562D01*
X522009Y735524D01*
X521793Y735490D01*
X521767Y735481D01*
X521738Y735476D01*
X521532Y735404D01*
X521325Y735336D01*
X521300Y735322D01*
X521273Y735313D01*
X521082Y735209D01*
X520887Y735108D01*
X520869Y735093D01*
X520840Y735077D01*
X520450Y734774D01*
X520395Y734715D01*
X520354Y734682D01*
X514457Y728786D01*
X514383Y728698D01*
X514302Y728618D01*
X514224Y728511D01*
X514138Y728410D01*
X514079Y728312D01*
X514012Y728219D01*
X513952Y728101D01*
X513883Y727987D01*
X513841Y727881D01*
X513789Y727779D01*
X513749Y727652D01*
X513700Y727529D01*
X513675Y727418D01*
X513641Y727309D01*
X513631Y727215D01*
X513593Y727047D01*
X513575Y726723D01*
X513569Y726668D01*
X512176Y723306D01*
X509610Y720740D01*
X507088Y719695D01*
X506894Y719595D01*
X506697Y719499D01*
X506674Y719483D01*
X506649Y719470D01*
X506473Y719340D01*
X506295Y719214D01*
X506275Y719194D01*
X506252Y719177D01*
X506100Y719021D01*
X505944Y718867D01*
X505927Y718844D01*
X505907Y718824D01*
X505782Y718645D01*
X505654Y718468D01*
X505641Y718443D01*
X505624Y718420D01*
X505530Y718222D01*
X505431Y718028D01*
X505423Y718001D01*
X505410Y717975D01*
X505349Y717766D01*
X505283Y717557D01*
X505280Y717534D01*
X505271Y717502D01*
X505210Y717012D01*
X505213Y716932D01*
X505207Y716880D01*
X505207Y707245D01*
X505190Y707199D01*
X505177Y707134D01*
X505157Y707071D01*
X505130Y706892D01*
X505095Y706715D01*
X505093Y706649D01*
X505083Y706583D01*
X505085Y706402D01*
X505080Y706222D01*
X505088Y706156D01*
X505089Y706090D01*
X505121Y705912D01*
X505144Y705733D01*
X505163Y705669D01*
X505175Y705604D01*
X505235Y705433D01*
X505287Y705260D01*
X505316Y705201D01*
X505338Y705138D01*
X505424Y704979D01*
X505504Y704817D01*
X505542Y704763D01*
X505574Y704705D01*
X505685Y704562D01*
X505789Y704415D01*
X505836Y704368D01*
X505877Y704315D01*
X506009Y704193D01*
X506136Y704064D01*
X506189Y704025D01*
X506238Y703980D01*
X506389Y703880D01*
X506535Y703774D01*
X506594Y703744D01*
X506649Y703707D01*
X506814Y703633D01*
X506975Y703551D01*
X507038Y703531D01*
X507099Y703504D01*
X507273Y703457D01*
X507445Y703403D01*
X507498Y703397D01*
X507575Y703376D01*
X508066Y703327D01*
X508100Y703329D01*
X508123Y703327D01*
X541489Y703327D01*
X541602Y703336D01*
G37*
G36*
X595236Y779825D02*
X595236Y779825D01*
X595274Y779824D01*
X595481Y779851D01*
X595689Y779873D01*
X595725Y779883D01*
X595763Y779888D01*
X595963Y779949D01*
X596164Y780004D01*
X596199Y780020D01*
X596236Y780031D01*
X596423Y780122D01*
X596613Y780209D01*
X596645Y780231D01*
X596679Y780247D01*
X596848Y780368D01*
X597022Y780485D01*
X597050Y780511D01*
X597081Y780533D01*
X597229Y780679D01*
X597382Y780823D01*
X597405Y780853D01*
X597432Y780880D01*
X597555Y781048D01*
X597682Y781214D01*
X597700Y781248D01*
X597722Y781278D01*
X597816Y781464D01*
X597915Y781649D01*
X597928Y781685D01*
X597945Y781719D01*
X598007Y781918D01*
X598075Y782115D01*
X598081Y782153D01*
X598093Y782189D01*
X598103Y782282D01*
X598158Y782602D01*
X598159Y782774D01*
X598169Y782867D01*
X598169Y814285D01*
X598160Y814398D01*
X598161Y814513D01*
X598140Y814644D01*
X598129Y814777D01*
X598102Y814887D01*
X598084Y815000D01*
X598043Y815126D01*
X598011Y815255D01*
X597966Y815360D01*
X597930Y815469D01*
X597868Y815587D01*
X597816Y815709D01*
X597755Y815805D01*
X597702Y815906D01*
X597643Y815980D01*
X597551Y816125D01*
X597335Y816367D01*
X597277Y816440D01*
X595828Y817888D01*
X595770Y817937D01*
X595718Y817993D01*
X595582Y818097D01*
X595452Y818208D01*
X595387Y818247D01*
X595327Y818293D01*
X595176Y818374D01*
X595030Y818462D01*
X594959Y818490D01*
X594892Y818526D01*
X594730Y818582D01*
X594572Y818645D01*
X594497Y818662D01*
X594425Y818686D01*
X594257Y818715D01*
X594090Y818752D01*
X594014Y818756D01*
X593939Y818769D01*
X593768Y818770D01*
X593597Y818780D01*
X593522Y818772D01*
X593445Y818772D01*
X593276Y818746D01*
X593107Y818727D01*
X593033Y818707D01*
X592958Y818695D01*
X592796Y818642D01*
X592631Y818597D01*
X592562Y818565D01*
X592489Y818541D01*
X592338Y818462D01*
X592183Y818391D01*
X592119Y818349D01*
X592052Y818313D01*
X591970Y818248D01*
X591773Y818116D01*
X591601Y817954D01*
X591519Y817888D01*
X588858Y815228D01*
X585506Y813839D01*
X581878Y813839D01*
X578519Y815230D01*
X578458Y815283D01*
X578377Y815364D01*
X578270Y815442D01*
X578169Y815528D01*
X578071Y815587D01*
X577979Y815654D01*
X577860Y815714D01*
X577746Y815783D01*
X577640Y815825D01*
X577538Y815877D01*
X577411Y815917D01*
X577288Y815966D01*
X577177Y815991D01*
X577068Y816025D01*
X576974Y816035D01*
X576806Y816073D01*
X576482Y816091D01*
X576390Y816101D01*
X572555Y816101D01*
X572442Y816092D01*
X572327Y816093D01*
X572196Y816072D01*
X572063Y816061D01*
X571953Y816034D01*
X571840Y816016D01*
X571714Y815975D01*
X571585Y815943D01*
X571480Y815898D01*
X571371Y815862D01*
X571253Y815800D01*
X571131Y815748D01*
X571035Y815687D01*
X570934Y815634D01*
X570860Y815575D01*
X570715Y815483D01*
X570473Y815267D01*
X570400Y815209D01*
X556760Y801568D01*
X556711Y801510D01*
X556655Y801458D01*
X556551Y801322D01*
X556440Y801192D01*
X556401Y801127D01*
X556355Y801067D01*
X556274Y800916D01*
X556186Y800770D01*
X556158Y800699D01*
X556122Y800632D01*
X556066Y800470D01*
X556003Y800312D01*
X555986Y800237D01*
X555962Y800165D01*
X555933Y799996D01*
X555896Y799830D01*
X555892Y799754D01*
X555879Y799679D01*
X555878Y799508D01*
X555868Y799337D01*
X555876Y799262D01*
X555876Y799185D01*
X555902Y799016D01*
X555921Y798847D01*
X555941Y798773D01*
X555953Y798698D01*
X556006Y798536D01*
X556051Y798371D01*
X556083Y798302D01*
X556107Y798229D01*
X556186Y798078D01*
X556257Y797923D01*
X556299Y797859D01*
X556335Y797792D01*
X556400Y797710D01*
X556532Y797513D01*
X556648Y797390D01*
X556656Y797379D01*
X556698Y797337D01*
X556760Y797259D01*
X556835Y797183D01*
X556922Y797109D01*
X557003Y797028D01*
X557110Y796950D01*
X557211Y796864D01*
X557309Y796805D01*
X557401Y796738D01*
X557520Y796678D01*
X557634Y796609D01*
X557740Y796567D01*
X557842Y796515D01*
X557969Y796475D01*
X558092Y796426D01*
X558203Y796401D01*
X558312Y796367D01*
X558406Y796357D01*
X558574Y796319D01*
X558898Y796301D01*
X558990Y796291D01*
X575912Y796291D01*
X578433Y795247D01*
X592967Y780712D01*
X592996Y780688D01*
X593022Y780659D01*
X593184Y780528D01*
X593343Y780393D01*
X593376Y780373D01*
X593406Y780349D01*
X593586Y780246D01*
X593766Y780138D01*
X593801Y780124D01*
X593834Y780105D01*
X594030Y780033D01*
X594224Y779955D01*
X594261Y779947D01*
X594297Y779934D01*
X594502Y779894D01*
X594706Y779848D01*
X594744Y779846D01*
X594781Y779839D01*
X594989Y779833D01*
X595198Y779821D01*
X595236Y779825D01*
G37*
G36*
X696036Y407423D02*
X696036Y407423D01*
X696112Y407421D01*
X696281Y407443D01*
X696452Y407457D01*
X696526Y407475D01*
X696601Y407485D01*
X696765Y407534D01*
X696931Y407575D01*
X697000Y407605D01*
X697074Y407627D01*
X697227Y407703D01*
X697384Y407770D01*
X697448Y407811D01*
X697517Y407844D01*
X697656Y407943D01*
X697800Y408035D01*
X697857Y408086D01*
X697919Y408130D01*
X698040Y408250D01*
X698168Y408364D01*
X698216Y408423D01*
X698270Y408477D01*
X698371Y408615D01*
X698478Y408748D01*
X698515Y408814D01*
X698560Y408875D01*
X698637Y409028D01*
X698722Y409176D01*
X698748Y409248D01*
X698783Y409316D01*
X698834Y409479D01*
X698893Y409639D01*
X698908Y409714D01*
X698931Y409786D01*
X698943Y409891D01*
X698988Y410123D01*
X698995Y410359D01*
X699007Y410464D01*
X699007Y470115D01*
X699004Y470153D01*
X699006Y470191D01*
X698984Y470399D01*
X698967Y470607D01*
X698958Y470644D01*
X698954Y470682D01*
X698899Y470883D01*
X698849Y471085D01*
X698834Y471120D01*
X698823Y471157D01*
X698736Y471347D01*
X698654Y471539D01*
X698634Y471571D01*
X698618Y471606D01*
X698501Y471779D01*
X698389Y471955D01*
X698364Y471983D01*
X698342Y472015D01*
X698199Y472167D01*
X698060Y472323D01*
X698031Y472347D01*
X698005Y472374D01*
X697839Y472502D01*
X697676Y472633D01*
X697643Y472652D01*
X697613Y472675D01*
X697429Y472773D01*
X697248Y472877D01*
X697212Y472890D01*
X697178Y472908D01*
X696981Y472976D01*
X696785Y473048D01*
X696748Y473056D01*
X696712Y473068D01*
X696505Y473103D01*
X696301Y473143D01*
X696263Y473144D01*
X696225Y473151D01*
X696016Y473152D01*
X695808Y473158D01*
X695770Y473153D01*
X695732Y473154D01*
X695525Y473121D01*
X695319Y473094D01*
X695282Y473083D01*
X695245Y473077D01*
X695046Y473012D01*
X694847Y472951D01*
X694812Y472935D01*
X694776Y472923D01*
X694591Y472826D01*
X694403Y472735D01*
X694372Y472713D01*
X694338Y472695D01*
X694266Y472637D01*
X694001Y472449D01*
X693879Y472328D01*
X693805Y472270D01*
X687455Y465920D01*
X687381Y465832D01*
X687300Y465752D01*
X687222Y465645D01*
X687136Y465544D01*
X687077Y465446D01*
X687010Y465353D01*
X686950Y465235D01*
X686881Y465121D01*
X686839Y465015D01*
X686787Y464913D01*
X686747Y464786D01*
X686698Y464663D01*
X686673Y464552D01*
X686639Y464443D01*
X686629Y464349D01*
X686591Y464181D01*
X686573Y463857D01*
X686563Y463765D01*
X686563Y410464D01*
X686569Y410388D01*
X686567Y410312D01*
X686589Y410143D01*
X686603Y409972D01*
X686621Y409898D01*
X686631Y409823D01*
X686680Y409659D01*
X686721Y409493D01*
X686751Y409424D01*
X686773Y409350D01*
X686849Y409197D01*
X686916Y409040D01*
X686957Y408976D01*
X686990Y408907D01*
X687089Y408768D01*
X687181Y408624D01*
X687232Y408567D01*
X687276Y408505D01*
X687396Y408384D01*
X687510Y408256D01*
X687569Y408208D01*
X687623Y408154D01*
X687761Y408053D01*
X687894Y407946D01*
X687960Y407909D01*
X688021Y407864D01*
X688174Y407787D01*
X688322Y407702D01*
X688394Y407676D01*
X688462Y407641D01*
X688625Y407590D01*
X688785Y407531D01*
X688860Y407516D01*
X688932Y407493D01*
X689037Y407481D01*
X689269Y407436D01*
X689505Y407429D01*
X689610Y407417D01*
X695960Y407417D01*
X696036Y407423D01*
G37*
G36*
X688276Y786076D02*
X688276Y786076D01*
X688314Y786075D01*
X688521Y786108D01*
X688727Y786135D01*
X688764Y786146D01*
X688801Y786152D01*
X688999Y786217D01*
X689199Y786278D01*
X689234Y786294D01*
X689270Y786306D01*
X689455Y786403D01*
X689643Y786494D01*
X689674Y786516D01*
X689708Y786534D01*
X689780Y786592D01*
X690045Y786780D01*
X690167Y786901D01*
X690241Y786959D01*
X691302Y788020D01*
X694654Y789409D01*
X698282Y789409D01*
X701641Y788017D01*
X701702Y787965D01*
X701783Y787884D01*
X701890Y787806D01*
X701991Y787720D01*
X702089Y787661D01*
X702181Y787594D01*
X702300Y787534D01*
X702414Y787465D01*
X702520Y787423D01*
X702622Y787371D01*
X702749Y787331D01*
X702872Y787282D01*
X702983Y787257D01*
X703092Y787223D01*
X703186Y787213D01*
X703354Y787175D01*
X703678Y787157D01*
X703770Y787147D01*
X708254Y787147D01*
X708472Y787164D01*
X708690Y787178D01*
X708717Y787184D01*
X708746Y787187D01*
X708958Y787239D01*
X709171Y787288D01*
X709197Y787299D01*
X709225Y787305D01*
X709425Y787391D01*
X709628Y787474D01*
X709652Y787489D01*
X709678Y787500D01*
X709862Y787617D01*
X710049Y787731D01*
X710070Y787750D01*
X710094Y787765D01*
X710257Y787910D01*
X710422Y788053D01*
X710441Y788075D01*
X710462Y788094D01*
X710599Y788263D01*
X710739Y788431D01*
X710751Y788452D01*
X710772Y788478D01*
X711016Y788906D01*
X711044Y788982D01*
X711069Y789028D01*
X712243Y791862D01*
X714424Y794043D01*
X714473Y794101D01*
X714529Y794153D01*
X714633Y794288D01*
X714744Y794419D01*
X714783Y794484D01*
X714829Y794544D01*
X714910Y794695D01*
X714998Y794841D01*
X715026Y794912D01*
X715062Y794979D01*
X715118Y795141D01*
X715181Y795299D01*
X715198Y795374D01*
X715222Y795446D01*
X715251Y795614D01*
X715288Y795781D01*
X715292Y795857D01*
X715305Y795932D01*
X715306Y796103D01*
X715316Y796274D01*
X715308Y796349D01*
X715308Y796425D01*
X715282Y796594D01*
X715263Y796764D01*
X715243Y796837D01*
X715231Y796913D01*
X715178Y797075D01*
X715133Y797240D01*
X715101Y797309D01*
X715077Y797381D01*
X714998Y797533D01*
X714927Y797688D01*
X714885Y797751D01*
X714849Y797819D01*
X714784Y797901D01*
X714652Y798098D01*
X714490Y798270D01*
X714424Y798352D01*
X691347Y821429D01*
X691210Y821546D01*
X691077Y821669D01*
X691022Y821705D01*
X690971Y821748D01*
X690817Y821842D01*
X690666Y821941D01*
X690606Y821969D01*
X690549Y822003D01*
X690381Y822070D01*
X690217Y822144D01*
X690152Y822162D01*
X690091Y822186D01*
X689915Y822225D01*
X689740Y822272D01*
X689674Y822278D01*
X689609Y822293D01*
X689429Y822303D01*
X689249Y822321D01*
X689183Y822317D01*
X689117Y822321D01*
X688937Y822301D01*
X688757Y822290D01*
X688692Y822275D01*
X688626Y822268D01*
X688452Y822221D01*
X688276Y822180D01*
X688214Y822155D01*
X688150Y822138D01*
X687986Y822062D01*
X687819Y821994D01*
X687762Y821960D01*
X687702Y821932D01*
X687552Y821831D01*
X687398Y821737D01*
X687348Y821694D01*
X687293Y821657D01*
X687161Y821533D01*
X687024Y821415D01*
X686981Y821364D01*
X686933Y821319D01*
X686823Y821176D01*
X686707Y821037D01*
X686682Y820991D01*
X686633Y820927D01*
X686399Y820493D01*
X686389Y820461D01*
X686377Y820440D01*
X685909Y819311D01*
X685857Y819250D01*
X685776Y819169D01*
X685698Y819062D01*
X685612Y818961D01*
X685553Y818863D01*
X685486Y818771D01*
X685426Y818652D01*
X685357Y818538D01*
X685315Y818432D01*
X685263Y818330D01*
X685223Y818203D01*
X685174Y818080D01*
X685149Y817969D01*
X685115Y817860D01*
X685105Y817766D01*
X685067Y817598D01*
X685049Y817274D01*
X685039Y817182D01*
X685039Y789114D01*
X685042Y789076D01*
X685040Y789038D01*
X685062Y788830D01*
X685079Y788622D01*
X685088Y788585D01*
X685092Y788547D01*
X685147Y788346D01*
X685197Y788144D01*
X685212Y788108D01*
X685223Y788072D01*
X685309Y787882D01*
X685392Y787690D01*
X685412Y787658D01*
X685428Y787623D01*
X685545Y787450D01*
X685657Y787274D01*
X685682Y787246D01*
X685704Y787214D01*
X685847Y787062D01*
X685986Y786906D01*
X686015Y786882D01*
X686042Y786854D01*
X686207Y786728D01*
X686370Y786596D01*
X686403Y786577D01*
X686433Y786554D01*
X686617Y786456D01*
X686798Y786352D01*
X686834Y786339D01*
X686868Y786321D01*
X687065Y786253D01*
X687261Y786181D01*
X687298Y786173D01*
X687334Y786161D01*
X687541Y786126D01*
X687745Y786086D01*
X687783Y786085D01*
X687821Y786078D01*
X688030Y786077D01*
X688238Y786071D01*
X688276Y786076D01*
G37*
G36*
X602932Y426261D02*
X602932Y426261D01*
X602970Y426260D01*
X603177Y426293D01*
X603383Y426320D01*
X603420Y426331D01*
X603457Y426337D01*
X603655Y426402D01*
X603855Y426463D01*
X603890Y426479D01*
X603926Y426491D01*
X604111Y426588D01*
X604299Y426679D01*
X604330Y426702D01*
X604364Y426719D01*
X604436Y426777D01*
X604701Y426965D01*
X604823Y427086D01*
X604897Y427144D01*
X606143Y428391D01*
X606144Y428391D01*
X665857Y488104D01*
X665931Y488191D01*
X666012Y488272D01*
X666090Y488379D01*
X666176Y488480D01*
X666235Y488578D01*
X666302Y488671D01*
X666362Y488789D01*
X666431Y488903D01*
X666473Y489009D01*
X666525Y489111D01*
X666565Y489238D01*
X666614Y489361D01*
X666639Y489472D01*
X666673Y489581D01*
X666683Y489675D01*
X666721Y489843D01*
X666739Y490167D01*
X666749Y490259D01*
X666749Y491197D01*
X666746Y491235D01*
X666748Y491273D01*
X666726Y491481D01*
X666709Y491689D01*
X666700Y491726D01*
X666696Y491763D01*
X666641Y491965D01*
X666591Y492167D01*
X666576Y492202D01*
X666565Y492239D01*
X666478Y492429D01*
X666396Y492621D01*
X666376Y492653D01*
X666360Y492688D01*
X666243Y492861D01*
X666131Y493037D01*
X666106Y493065D01*
X666084Y493097D01*
X665941Y493249D01*
X665802Y493405D01*
X665773Y493429D01*
X665747Y493456D01*
X665581Y493584D01*
X665418Y493715D01*
X665385Y493734D01*
X665355Y493757D01*
X665171Y493855D01*
X664990Y493959D01*
X664954Y493972D01*
X664920Y493990D01*
X664723Y494058D01*
X664527Y494130D01*
X664490Y494138D01*
X664454Y494150D01*
X664247Y494185D01*
X664043Y494225D01*
X664005Y494226D01*
X663967Y494233D01*
X663758Y494234D01*
X663550Y494240D01*
X663512Y494235D01*
X663474Y494236D01*
X663267Y494203D01*
X663061Y494176D01*
X663024Y494165D01*
X662987Y494159D01*
X662788Y494094D01*
X662589Y494033D01*
X662554Y494017D01*
X662518Y494005D01*
X662333Y493908D01*
X662145Y493817D01*
X662114Y493795D01*
X662080Y493777D01*
X662008Y493719D01*
X661743Y493531D01*
X661621Y493410D01*
X661547Y493352D01*
X600587Y432392D01*
X600513Y432305D01*
X600432Y432224D01*
X600354Y432117D01*
X600268Y432016D01*
X600209Y431918D01*
X600142Y431825D01*
X600082Y431707D01*
X600013Y431593D01*
X599971Y431487D01*
X599919Y431385D01*
X599879Y431258D01*
X599830Y431135D01*
X599805Y431024D01*
X599771Y430915D01*
X599761Y430821D01*
X599723Y430653D01*
X599705Y430329D01*
X599695Y430237D01*
X599695Y429299D01*
X599698Y429261D01*
X599696Y429223D01*
X599718Y429015D01*
X599735Y428807D01*
X599744Y428770D01*
X599748Y428732D01*
X599803Y428532D01*
X599853Y428329D01*
X599868Y428293D01*
X599879Y428257D01*
X599965Y428067D01*
X600048Y427875D01*
X600068Y427843D01*
X600084Y427808D01*
X600201Y427635D01*
X600313Y427459D01*
X600338Y427431D01*
X600360Y427399D01*
X600503Y427247D01*
X600642Y427091D01*
X600671Y427067D01*
X600698Y427040D01*
X600863Y426912D01*
X601026Y426781D01*
X601059Y426763D01*
X601089Y426739D01*
X601273Y426641D01*
X601454Y426537D01*
X601490Y426524D01*
X601524Y426506D01*
X601721Y426438D01*
X601917Y426366D01*
X601954Y426358D01*
X601990Y426346D01*
X602197Y426311D01*
X602401Y426271D01*
X602439Y426270D01*
X602477Y426263D01*
X602686Y426262D01*
X602894Y426256D01*
X602932Y426261D01*
G37*
G36*
X698652Y575567D02*
X698652Y575567D01*
X698785Y575569D01*
X698897Y575589D01*
X699011Y575599D01*
X699101Y575625D01*
X699270Y575655D01*
X699577Y575762D01*
X699666Y575788D01*
X702500Y576962D01*
X706208Y576962D01*
X706321Y576971D01*
X706436Y576970D01*
X706567Y576991D01*
X706700Y577002D01*
X706810Y577029D01*
X706923Y577047D01*
X707049Y577088D01*
X707178Y577120D01*
X707283Y577165D01*
X707392Y577201D01*
X707510Y577263D01*
X707632Y577315D01*
X707728Y577376D01*
X707829Y577429D01*
X707903Y577488D01*
X708048Y577580D01*
X708290Y577796D01*
X708363Y577854D01*
X721952Y591443D01*
X721976Y591472D01*
X722005Y591498D01*
X722136Y591660D01*
X722271Y591819D01*
X722291Y591852D01*
X722315Y591882D01*
X722418Y592062D01*
X722526Y592242D01*
X722540Y592277D01*
X722559Y592310D01*
X722631Y592506D01*
X722709Y592700D01*
X722717Y592737D01*
X722730Y592773D01*
X722770Y592978D01*
X722816Y593182D01*
X722818Y593220D01*
X722825Y593257D01*
X722831Y593465D01*
X722843Y593674D01*
X722839Y593712D01*
X722840Y593750D01*
X722813Y593957D01*
X722791Y594165D01*
X722781Y594201D01*
X722776Y594239D01*
X722715Y594439D01*
X722660Y594640D01*
X722644Y594675D01*
X722633Y594712D01*
X722542Y594899D01*
X722455Y595089D01*
X722433Y595121D01*
X722417Y595155D01*
X722296Y595324D01*
X722179Y595498D01*
X722153Y595526D01*
X722131Y595557D01*
X721985Y595705D01*
X721841Y595858D01*
X721811Y595881D01*
X721784Y595908D01*
X721616Y596031D01*
X721450Y596158D01*
X721416Y596176D01*
X721386Y596198D01*
X721200Y596292D01*
X721015Y596391D01*
X720979Y596404D01*
X720945Y596421D01*
X720746Y596483D01*
X720549Y596551D01*
X720511Y596557D01*
X720475Y596569D01*
X720382Y596579D01*
X720062Y596634D01*
X719890Y596635D01*
X719797Y596645D01*
X691296Y596645D01*
X691078Y596628D01*
X690861Y596614D01*
X690833Y596608D01*
X690805Y596605D01*
X690592Y596553D01*
X690380Y596504D01*
X690354Y596493D01*
X690326Y596487D01*
X690125Y596400D01*
X689923Y596318D01*
X689899Y596303D01*
X689872Y596292D01*
X689689Y596175D01*
X689502Y596061D01*
X689480Y596042D01*
X689456Y596027D01*
X689294Y595882D01*
X689128Y595739D01*
X689110Y595717D01*
X689089Y595698D01*
X688951Y595528D01*
X688811Y595361D01*
X688800Y595341D01*
X688779Y595314D01*
X688535Y594886D01*
X688507Y594810D01*
X688481Y594764D01*
X687433Y592235D01*
X687381Y592174D01*
X687300Y592093D01*
X687222Y591986D01*
X687136Y591885D01*
X687077Y591787D01*
X687010Y591695D01*
X686950Y591576D01*
X686881Y591462D01*
X686839Y591356D01*
X686787Y591254D01*
X686747Y591127D01*
X686698Y591004D01*
X686673Y590893D01*
X686639Y590784D01*
X686629Y590690D01*
X686591Y590522D01*
X686573Y590198D01*
X686563Y590106D01*
X686563Y580009D01*
X686569Y579933D01*
X686567Y579857D01*
X686589Y579688D01*
X686603Y579517D01*
X686621Y579443D01*
X686631Y579368D01*
X686680Y579204D01*
X686721Y579038D01*
X686751Y578969D01*
X686773Y578895D01*
X686849Y578742D01*
X686916Y578585D01*
X686957Y578521D01*
X686990Y578452D01*
X687089Y578313D01*
X687181Y578169D01*
X687232Y578112D01*
X687276Y578050D01*
X687396Y577929D01*
X687510Y577801D01*
X687569Y577753D01*
X687623Y577699D01*
X687761Y577598D01*
X687894Y577491D01*
X687960Y577454D01*
X688021Y577409D01*
X688174Y577332D01*
X688322Y577247D01*
X688394Y577221D01*
X688462Y577186D01*
X688625Y577135D01*
X688785Y577076D01*
X688860Y577061D01*
X688932Y577038D01*
X689037Y577026D01*
X689269Y576981D01*
X689505Y576974D01*
X689610Y576962D01*
X694499Y576962D01*
X697334Y575788D01*
X697442Y575753D01*
X697548Y575708D01*
X697677Y575677D01*
X697803Y575636D01*
X697916Y575619D01*
X698027Y575593D01*
X698160Y575583D01*
X698291Y575563D01*
X698405Y575564D01*
X698519Y575556D01*
X698652Y575567D01*
G37*
G36*
X792987Y712474D02*
X792987Y712474D01*
X793025Y712472D01*
X793233Y712494D01*
X793441Y712511D01*
X793478Y712520D01*
X793515Y712524D01*
X793717Y712579D01*
X793919Y712629D01*
X793954Y712644D01*
X793991Y712655D01*
X794181Y712742D01*
X794373Y712824D01*
X794405Y712844D01*
X794440Y712860D01*
X794613Y712977D01*
X794789Y713089D01*
X794817Y713114D01*
X794849Y713136D01*
X795001Y713279D01*
X795157Y713418D01*
X795181Y713447D01*
X795208Y713473D01*
X795336Y713639D01*
X795467Y713802D01*
X795486Y713835D01*
X795509Y713865D01*
X795607Y714049D01*
X795711Y714230D01*
X795724Y714266D01*
X795742Y714300D01*
X795810Y714497D01*
X795882Y714693D01*
X795890Y714730D01*
X795902Y714766D01*
X795937Y714973D01*
X795977Y715177D01*
X795978Y715215D01*
X795985Y715253D01*
X795986Y715462D01*
X795992Y715670D01*
X795987Y715708D01*
X795988Y715746D01*
X795955Y715953D01*
X795928Y716159D01*
X795917Y716196D01*
X795911Y716233D01*
X795846Y716432D01*
X795785Y716631D01*
X795769Y716666D01*
X795757Y716702D01*
X795660Y716887D01*
X795569Y717075D01*
X795547Y717106D01*
X795529Y717140D01*
X795471Y717212D01*
X795283Y717477D01*
X795162Y717599D01*
X795104Y717673D01*
X737962Y774814D01*
X737904Y774863D01*
X737852Y774919D01*
X737716Y775023D01*
X737586Y775134D01*
X737521Y775173D01*
X737461Y775219D01*
X737310Y775300D01*
X737164Y775388D01*
X737093Y775416D01*
X737026Y775452D01*
X736864Y775508D01*
X736706Y775571D01*
X736631Y775588D01*
X736559Y775612D01*
X736391Y775641D01*
X736224Y775678D01*
X736148Y775682D01*
X736073Y775695D01*
X735902Y775696D01*
X735731Y775706D01*
X735656Y775698D01*
X735579Y775698D01*
X735411Y775672D01*
X735241Y775653D01*
X735168Y775633D01*
X735092Y775621D01*
X734930Y775568D01*
X734765Y775523D01*
X734696Y775491D01*
X734624Y775467D01*
X734472Y775388D01*
X734317Y775317D01*
X734254Y775275D01*
X734186Y775239D01*
X734104Y775174D01*
X733907Y775042D01*
X733735Y774880D01*
X733653Y774814D01*
X733184Y774345D01*
X733135Y774287D01*
X733079Y774235D01*
X732975Y774099D01*
X732864Y773969D01*
X732825Y773904D01*
X732779Y773844D01*
X732698Y773693D01*
X732610Y773547D01*
X732582Y773476D01*
X732546Y773409D01*
X732490Y773247D01*
X732427Y773089D01*
X732410Y773014D01*
X732386Y772942D01*
X732357Y772774D01*
X732320Y772607D01*
X732316Y772531D01*
X732303Y772456D01*
X732302Y772285D01*
X732292Y772114D01*
X732300Y772039D01*
X732300Y771963D01*
X732326Y771794D01*
X732345Y771624D01*
X732365Y771551D01*
X732377Y771475D01*
X732430Y771313D01*
X732475Y771148D01*
X732507Y771079D01*
X732531Y771007D01*
X732610Y770855D01*
X732681Y770700D01*
X732723Y770637D01*
X732759Y770569D01*
X732824Y770487D01*
X732956Y770290D01*
X733118Y770118D01*
X733184Y770036D01*
X789856Y713363D01*
X789943Y713289D01*
X790024Y713208D01*
X790131Y713130D01*
X790232Y713044D01*
X790330Y712985D01*
X790423Y712918D01*
X790541Y712858D01*
X790655Y712789D01*
X790761Y712747D01*
X790863Y712695D01*
X790990Y712655D01*
X791113Y712606D01*
X791224Y712581D01*
X791333Y712547D01*
X791427Y712537D01*
X791595Y712499D01*
X791919Y712481D01*
X792011Y712471D01*
X792949Y712471D01*
X792987Y712474D01*
G37*
G36*
X630364Y407257D02*
X630364Y407257D01*
X630402Y407257D01*
X630609Y407290D01*
X630815Y407317D01*
X630852Y407328D01*
X630890Y407334D01*
X631087Y407399D01*
X631147Y407417D01*
X642366Y407417D01*
X642442Y407423D01*
X642518Y407421D01*
X642687Y407443D01*
X642858Y407457D01*
X642932Y407475D01*
X643007Y407485D01*
X643171Y407534D01*
X643337Y407575D01*
X643406Y407605D01*
X643480Y407627D01*
X643633Y407703D01*
X643790Y407770D01*
X643854Y407811D01*
X643923Y407844D01*
X644062Y407943D01*
X644206Y408035D01*
X644263Y408086D01*
X644325Y408130D01*
X644446Y408250D01*
X644574Y408364D01*
X644622Y408423D01*
X644676Y408477D01*
X644777Y408615D01*
X644884Y408748D01*
X644921Y408814D01*
X644966Y408875D01*
X645043Y409028D01*
X645128Y409176D01*
X645154Y409248D01*
X645189Y409316D01*
X645240Y409479D01*
X645299Y409639D01*
X645314Y409714D01*
X645337Y409786D01*
X645349Y409891D01*
X645394Y410123D01*
X645401Y410359D01*
X645413Y410464D01*
X645413Y436333D01*
X645410Y436371D01*
X645412Y436409D01*
X645390Y436617D01*
X645373Y436825D01*
X645364Y436862D01*
X645360Y436899D01*
X645305Y437101D01*
X645255Y437303D01*
X645240Y437338D01*
X645229Y437375D01*
X645142Y437565D01*
X645060Y437757D01*
X645040Y437789D01*
X645024Y437824D01*
X644907Y437997D01*
X644795Y438173D01*
X644770Y438201D01*
X644748Y438233D01*
X644605Y438385D01*
X644466Y438541D01*
X644437Y438565D01*
X644411Y438592D01*
X644245Y438720D01*
X644082Y438851D01*
X644049Y438870D01*
X644019Y438893D01*
X643835Y438991D01*
X643654Y439095D01*
X643618Y439108D01*
X643584Y439126D01*
X643387Y439194D01*
X643191Y439266D01*
X643154Y439274D01*
X643118Y439286D01*
X642911Y439321D01*
X642707Y439361D01*
X642669Y439362D01*
X642631Y439369D01*
X642422Y439370D01*
X642214Y439376D01*
X642176Y439371D01*
X642138Y439372D01*
X641931Y439339D01*
X641725Y439312D01*
X641688Y439301D01*
X641651Y439295D01*
X641452Y439230D01*
X641253Y439169D01*
X641218Y439153D01*
X641182Y439141D01*
X640997Y439044D01*
X640809Y438953D01*
X640778Y438931D01*
X640744Y438913D01*
X640672Y438855D01*
X640407Y438667D01*
X640285Y438546D01*
X640211Y438488D01*
X628019Y426296D01*
X627945Y426209D01*
X627864Y426128D01*
X627786Y426021D01*
X627700Y425920D01*
X627641Y425822D01*
X627574Y425729D01*
X627514Y425611D01*
X627445Y425497D01*
X627403Y425391D01*
X627351Y425289D01*
X627311Y425162D01*
X627262Y425039D01*
X627237Y424928D01*
X627203Y424819D01*
X627193Y424725D01*
X627155Y424557D01*
X627137Y424233D01*
X627127Y424141D01*
X627127Y410296D01*
X627130Y410258D01*
X627128Y410219D01*
X627150Y410012D01*
X627167Y409804D01*
X627176Y409767D01*
X627180Y409729D01*
X627235Y409527D01*
X627285Y409325D01*
X627300Y409290D01*
X627311Y409253D01*
X627398Y409063D01*
X627480Y408872D01*
X627500Y408840D01*
X627516Y408805D01*
X627633Y408631D01*
X627745Y408456D01*
X627770Y408427D01*
X627792Y408396D01*
X627935Y408243D01*
X628074Y408088D01*
X628104Y408064D01*
X628130Y408036D01*
X628295Y407909D01*
X628458Y407778D01*
X628491Y407759D01*
X628521Y407736D01*
X628705Y407637D01*
X628886Y407534D01*
X628922Y407521D01*
X628956Y407503D01*
X629153Y407435D01*
X629349Y407362D01*
X629386Y407355D01*
X629423Y407343D01*
X629628Y407308D01*
X629833Y407268D01*
X629871Y407267D01*
X629909Y407260D01*
X630118Y407259D01*
X630326Y407252D01*
X630364Y407257D01*
G37*
G36*
X596203Y637022D02*
X596203Y637022D01*
X596269Y637018D01*
X596449Y637037D01*
X596629Y637048D01*
X596694Y637063D01*
X596760Y637070D01*
X596934Y637118D01*
X597110Y637158D01*
X597171Y637183D01*
X597235Y637201D01*
X597400Y637276D01*
X597567Y637344D01*
X597623Y637379D01*
X597684Y637406D01*
X597834Y637507D01*
X597988Y637601D01*
X598038Y637645D01*
X598093Y637682D01*
X598225Y637805D01*
X598361Y637923D01*
X598404Y637974D01*
X598453Y638020D01*
X598562Y638163D01*
X598678Y638301D01*
X598704Y638347D01*
X598753Y638411D01*
X598986Y638846D01*
X598997Y638877D01*
X599008Y638898D01*
X599213Y639393D01*
X601973Y642153D01*
X602090Y642290D01*
X602213Y642423D01*
X602249Y642478D01*
X602292Y642529D01*
X602386Y642683D01*
X602485Y642834D01*
X602513Y642894D01*
X602547Y642951D01*
X602614Y643118D01*
X602688Y643283D01*
X602705Y643348D01*
X602730Y643409D01*
X602769Y643586D01*
X602816Y643760D01*
X602822Y643826D01*
X602837Y643891D01*
X602847Y644071D01*
X602865Y644251D01*
X602861Y644317D01*
X602865Y644383D01*
X602845Y644563D01*
X602834Y644743D01*
X602819Y644808D01*
X602812Y644874D01*
X602765Y645048D01*
X602724Y645224D01*
X602699Y645286D01*
X602682Y645350D01*
X602606Y645514D01*
X602538Y645681D01*
X602504Y645738D01*
X602476Y645798D01*
X602375Y645948D01*
X602281Y646102D01*
X602238Y646152D01*
X602201Y646207D01*
X602077Y646339D01*
X601959Y646476D01*
X601908Y646519D01*
X601863Y646567D01*
X601720Y646677D01*
X601581Y646793D01*
X601535Y646818D01*
X601471Y646867D01*
X601037Y647101D01*
X601005Y647111D01*
X600984Y647123D01*
X599861Y647588D01*
X597296Y650154D01*
X595907Y653506D01*
X595907Y657134D01*
X597299Y660493D01*
X597351Y660554D01*
X597432Y660635D01*
X597510Y660742D01*
X597596Y660843D01*
X597655Y660941D01*
X597722Y661033D01*
X597782Y661152D01*
X597851Y661266D01*
X597893Y661372D01*
X597945Y661474D01*
X597985Y661601D01*
X598034Y661724D01*
X598059Y661835D01*
X598093Y661944D01*
X598103Y662038D01*
X598141Y662206D01*
X598159Y662530D01*
X598169Y662622D01*
X598169Y669254D01*
X598178Y669312D01*
X598176Y669454D01*
X598184Y669597D01*
X598173Y669701D01*
X598172Y669805D01*
X598147Y669945D01*
X598132Y670087D01*
X598104Y670188D01*
X598086Y670291D01*
X598039Y670425D01*
X598001Y670563D01*
X597958Y670658D01*
X597923Y670756D01*
X597855Y670882D01*
X597796Y671011D01*
X597737Y671098D01*
X597687Y671190D01*
X597600Y671303D01*
X597520Y671421D01*
X597449Y671497D01*
X597385Y671579D01*
X597280Y671676D01*
X597182Y671780D01*
X597100Y671844D01*
X597023Y671915D01*
X596904Y671994D01*
X596791Y672081D01*
X596699Y672130D01*
X596612Y672188D01*
X596482Y672246D01*
X596356Y672314D01*
X596258Y672348D01*
X596162Y672391D01*
X596025Y672428D01*
X595890Y672474D01*
X595787Y672491D01*
X595686Y672518D01*
X595544Y672532D01*
X595403Y672556D01*
X595299Y672557D01*
X595195Y672567D01*
X595053Y672559D01*
X594910Y672559D01*
X594807Y672543D01*
X594703Y672537D01*
X594564Y672505D01*
X594423Y672483D01*
X594323Y672450D01*
X594222Y672427D01*
X594090Y672373D01*
X593954Y672329D01*
X593861Y672280D01*
X593765Y672241D01*
X593643Y672167D01*
X593516Y672101D01*
X593455Y672052D01*
X593344Y671984D01*
X593014Y671700D01*
X592983Y671675D01*
X578782Y657475D01*
X578769Y657459D01*
X578759Y657450D01*
X578729Y657413D01*
X578678Y657364D01*
X578573Y657229D01*
X578463Y657099D01*
X578424Y657034D01*
X578377Y656973D01*
X578297Y656823D01*
X578208Y656676D01*
X578180Y656605D01*
X578144Y656538D01*
X578089Y656377D01*
X578025Y656218D01*
X578009Y656144D01*
X577984Y656072D01*
X577955Y655903D01*
X577919Y655736D01*
X577914Y655660D01*
X577901Y655585D01*
X577900Y655414D01*
X577891Y655244D01*
X577899Y655168D01*
X577898Y655092D01*
X577925Y654923D01*
X577943Y654753D01*
X577963Y654680D01*
X577975Y654605D01*
X578029Y654442D01*
X578074Y654278D01*
X578106Y654208D01*
X578129Y654136D01*
X578208Y653985D01*
X578279Y653829D01*
X578322Y653766D01*
X578357Y653698D01*
X578423Y653616D01*
X578555Y653420D01*
X578717Y653248D01*
X578782Y653165D01*
X594038Y637909D01*
X594122Y637839D01*
X594156Y637804D01*
X594192Y637778D01*
X594308Y637670D01*
X594364Y637633D01*
X594414Y637590D01*
X594569Y637497D01*
X594719Y637397D01*
X594780Y637370D01*
X594837Y637335D01*
X595004Y637268D01*
X595169Y637194D01*
X595233Y637177D01*
X595295Y637152D01*
X595471Y637113D01*
X595645Y637066D01*
X595712Y637060D01*
X595777Y637045D01*
X595957Y637035D01*
X596136Y637017D01*
X596203Y637022D01*
G37*
G36*
X455104Y580185D02*
X455104Y580185D01*
X455142Y580184D01*
X455349Y580217D01*
X455555Y580244D01*
X455592Y580255D01*
X455629Y580261D01*
X455828Y580326D01*
X456027Y580387D01*
X456062Y580403D01*
X456098Y580415D01*
X456283Y580512D01*
X456471Y580603D01*
X456502Y580625D01*
X456536Y580643D01*
X456608Y580701D01*
X456873Y580889D01*
X456995Y581010D01*
X457069Y581068D01*
X465475Y589474D01*
X465549Y589561D01*
X465630Y589642D01*
X465708Y589749D01*
X465794Y589850D01*
X465853Y589948D01*
X465920Y590040D01*
X465980Y590159D01*
X466049Y590273D01*
X466091Y590379D01*
X466143Y590481D01*
X466183Y590608D01*
X466232Y590731D01*
X466257Y590842D01*
X466291Y590951D01*
X466301Y591045D01*
X466339Y591213D01*
X466357Y591537D01*
X466363Y591592D01*
X467756Y594954D01*
X470322Y597520D01*
X473674Y598909D01*
X477302Y598909D01*
X478132Y598565D01*
X478304Y598510D01*
X478473Y598447D01*
X478538Y598434D01*
X478601Y598414D01*
X478780Y598387D01*
X478957Y598352D01*
X479023Y598350D01*
X479089Y598340D01*
X479270Y598343D01*
X479450Y598337D01*
X479516Y598346D01*
X479583Y598346D01*
X479760Y598378D01*
X479939Y598401D01*
X480003Y598421D01*
X480068Y598432D01*
X480239Y598492D01*
X480412Y598544D01*
X480471Y598573D01*
X480534Y598595D01*
X480692Y598681D01*
X480855Y598761D01*
X480909Y598799D01*
X480967Y598831D01*
X481110Y598942D01*
X481257Y599046D01*
X481304Y599093D01*
X481357Y599134D01*
X481480Y599266D01*
X481608Y599393D01*
X481647Y599447D01*
X481692Y599495D01*
X481792Y599646D01*
X481898Y599792D01*
X481928Y599851D01*
X481965Y599906D01*
X482039Y600071D01*
X482121Y600232D01*
X482141Y600295D01*
X482168Y600356D01*
X482215Y600530D01*
X482269Y600703D01*
X482275Y600755D01*
X482296Y600833D01*
X482345Y601324D01*
X482343Y601357D01*
X482345Y601380D01*
X482345Y604974D01*
X482336Y605088D01*
X482337Y605202D01*
X482316Y605334D01*
X482305Y605466D01*
X482278Y605577D01*
X482260Y605689D01*
X482219Y605816D01*
X482187Y605945D01*
X482142Y606050D01*
X482106Y606158D01*
X482044Y606276D01*
X481992Y606398D01*
X481931Y606494D01*
X481878Y606596D01*
X481819Y606669D01*
X481727Y606814D01*
X481511Y607056D01*
X481453Y607129D01*
X480055Y608527D01*
X479997Y608576D01*
X479944Y608632D01*
X479809Y608736D01*
X479679Y608846D01*
X479614Y608886D01*
X479553Y608932D01*
X479403Y609013D01*
X479256Y609101D01*
X479185Y609129D01*
X479118Y609165D01*
X478957Y609221D01*
X478798Y609284D01*
X478724Y609300D01*
X478652Y609325D01*
X478483Y609354D01*
X478316Y609391D01*
X478240Y609395D01*
X478165Y609408D01*
X477994Y609409D01*
X477824Y609418D01*
X477748Y609410D01*
X477672Y609411D01*
X477503Y609384D01*
X477333Y609366D01*
X477260Y609346D01*
X477185Y609334D01*
X477022Y609281D01*
X476858Y609236D01*
X476788Y609204D01*
X476716Y609180D01*
X476565Y609101D01*
X476409Y609030D01*
X476346Y608987D01*
X476278Y608952D01*
X476196Y608886D01*
X476000Y608754D01*
X475828Y608593D01*
X475745Y608527D01*
X472970Y605751D01*
X467928Y603663D01*
X462472Y603663D01*
X458975Y605111D01*
X458768Y605178D01*
X458561Y605249D01*
X458533Y605254D01*
X458506Y605263D01*
X458290Y605295D01*
X458075Y605332D01*
X458046Y605332D01*
X458018Y605336D01*
X457800Y605334D01*
X457581Y605335D01*
X457553Y605330D01*
X457525Y605330D01*
X457310Y605292D01*
X457094Y605258D01*
X457067Y605249D01*
X457039Y605244D01*
X456833Y605172D01*
X456625Y605104D01*
X456600Y605091D01*
X456573Y605081D01*
X456382Y604977D01*
X456188Y604876D01*
X456169Y604861D01*
X456140Y604845D01*
X455751Y604543D01*
X455696Y604484D01*
X455655Y604451D01*
X452759Y601556D01*
X452685Y601468D01*
X452604Y601388D01*
X452526Y601281D01*
X452440Y601180D01*
X452381Y601082D01*
X452314Y600989D01*
X452254Y600871D01*
X452185Y600757D01*
X452143Y600651D01*
X452091Y600549D01*
X452051Y600422D01*
X452002Y600299D01*
X451977Y600187D01*
X451943Y600079D01*
X451933Y599985D01*
X451895Y599817D01*
X451877Y599493D01*
X451867Y599401D01*
X451867Y583223D01*
X451870Y583185D01*
X451868Y583147D01*
X451890Y582939D01*
X451907Y582731D01*
X451916Y582694D01*
X451920Y582657D01*
X451975Y582455D01*
X452025Y582253D01*
X452040Y582218D01*
X452051Y582181D01*
X452138Y581991D01*
X452220Y581799D01*
X452240Y581767D01*
X452256Y581732D01*
X452373Y581559D01*
X452485Y581383D01*
X452510Y581355D01*
X452532Y581323D01*
X452675Y581171D01*
X452814Y581015D01*
X452843Y580991D01*
X452869Y580964D01*
X453035Y580836D01*
X453198Y580705D01*
X453231Y580686D01*
X453261Y580663D01*
X453445Y580565D01*
X453626Y580461D01*
X453662Y580448D01*
X453696Y580430D01*
X453893Y580362D01*
X454089Y580290D01*
X454126Y580282D01*
X454162Y580270D01*
X454369Y580235D01*
X454573Y580195D01*
X454611Y580194D01*
X454649Y580187D01*
X454858Y580186D01*
X455066Y580180D01*
X455104Y580185D01*
G37*
G36*
X553939Y576976D02*
X553939Y576976D01*
X554119Y576983D01*
X554185Y576996D01*
X554251Y577002D01*
X554426Y577045D01*
X554603Y577081D01*
X554665Y577104D01*
X554730Y577120D01*
X554895Y577192D01*
X555064Y577255D01*
X555122Y577289D01*
X555183Y577315D01*
X555335Y577412D01*
X555492Y577502D01*
X555543Y577544D01*
X555599Y577580D01*
X555734Y577700D01*
X555873Y577815D01*
X555917Y577864D01*
X555967Y577909D01*
X556080Y578049D01*
X556200Y578184D01*
X556235Y578241D01*
X556277Y578293D01*
X556366Y578449D01*
X556462Y578602D01*
X556488Y578663D01*
X556521Y578721D01*
X556584Y578891D01*
X556654Y579057D01*
X556669Y579121D01*
X556692Y579184D01*
X556727Y579361D01*
X556769Y579536D01*
X556774Y579603D01*
X556787Y579668D01*
X556793Y579848D01*
X556806Y580028D01*
X556800Y580095D01*
X556802Y580161D01*
X556779Y580340D01*
X556763Y580520D01*
X556749Y580570D01*
X556738Y580650D01*
X556596Y581122D01*
X556581Y581153D01*
X556574Y581175D01*
X556283Y581878D01*
X556283Y585506D01*
X557672Y588858D01*
X560238Y591424D01*
X563596Y592815D01*
X563676Y592822D01*
X563791Y592821D01*
X563922Y592842D01*
X564055Y592853D01*
X564165Y592880D01*
X564278Y592898D01*
X564404Y592939D01*
X564533Y592971D01*
X564638Y593016D01*
X564747Y593052D01*
X564865Y593114D01*
X564987Y593166D01*
X565083Y593227D01*
X565184Y593280D01*
X565258Y593339D01*
X565403Y593431D01*
X565645Y593647D01*
X565718Y593705D01*
X570474Y598461D01*
X570498Y598490D01*
X570527Y598516D01*
X570658Y598678D01*
X570793Y598837D01*
X570813Y598870D01*
X570837Y598900D01*
X570940Y599081D01*
X571048Y599260D01*
X571062Y599295D01*
X571081Y599328D01*
X571153Y599524D01*
X571231Y599718D01*
X571239Y599755D01*
X571252Y599791D01*
X571292Y599996D01*
X571338Y600200D01*
X571340Y600238D01*
X571347Y600275D01*
X571353Y600483D01*
X571365Y600692D01*
X571361Y600730D01*
X571362Y600768D01*
X571335Y600975D01*
X571313Y601183D01*
X571303Y601219D01*
X571298Y601257D01*
X571237Y601457D01*
X571182Y601658D01*
X571166Y601693D01*
X571155Y601730D01*
X571064Y601917D01*
X570977Y602107D01*
X570955Y602139D01*
X570939Y602173D01*
X570818Y602342D01*
X570701Y602516D01*
X570675Y602544D01*
X570653Y602575D01*
X570507Y602723D01*
X570363Y602876D01*
X570333Y602899D01*
X570306Y602926D01*
X570138Y603049D01*
X569972Y603176D01*
X569938Y603194D01*
X569908Y603216D01*
X569722Y603310D01*
X569537Y603409D01*
X569501Y603422D01*
X569467Y603439D01*
X569268Y603501D01*
X569071Y603569D01*
X569033Y603575D01*
X568997Y603587D01*
X568904Y603597D01*
X568584Y603652D01*
X568412Y603653D01*
X568319Y603663D01*
X564072Y603663D01*
X558779Y605855D01*
X558572Y605922D01*
X558365Y605993D01*
X558337Y605998D01*
X558310Y606007D01*
X558094Y606039D01*
X557879Y606076D01*
X557850Y606076D01*
X557822Y606080D01*
X557604Y606077D01*
X557385Y606079D01*
X557357Y606074D01*
X557329Y606074D01*
X557114Y606036D01*
X556898Y606002D01*
X556871Y605993D01*
X556843Y605988D01*
X556637Y605916D01*
X556429Y605848D01*
X556404Y605835D01*
X556377Y605825D01*
X556186Y605721D01*
X555992Y605620D01*
X555973Y605605D01*
X555944Y605589D01*
X555554Y605287D01*
X555500Y605228D01*
X555458Y605195D01*
X548771Y598508D01*
X548697Y598420D01*
X548616Y598340D01*
X548538Y598233D01*
X548452Y598132D01*
X548393Y598034D01*
X548326Y597941D01*
X548266Y597823D01*
X548197Y597709D01*
X548155Y597603D01*
X548103Y597501D01*
X548063Y597374D01*
X548014Y597251D01*
X547989Y597140D01*
X547955Y597031D01*
X547945Y596937D01*
X547907Y596769D01*
X547889Y596445D01*
X547879Y596353D01*
X547879Y580009D01*
X547885Y579933D01*
X547883Y579857D01*
X547905Y579688D01*
X547919Y579517D01*
X547937Y579443D01*
X547947Y579368D01*
X547996Y579204D01*
X548037Y579038D01*
X548067Y578969D01*
X548089Y578895D01*
X548165Y578742D01*
X548232Y578585D01*
X548273Y578521D01*
X548306Y578452D01*
X548405Y578313D01*
X548497Y578169D01*
X548548Y578112D01*
X548592Y578050D01*
X548712Y577929D01*
X548826Y577801D01*
X548885Y577753D01*
X548939Y577699D01*
X549077Y577598D01*
X549210Y577491D01*
X549276Y577454D01*
X549337Y577409D01*
X549490Y577332D01*
X549638Y577247D01*
X549710Y577221D01*
X549778Y577186D01*
X549941Y577135D01*
X550101Y577076D01*
X550176Y577061D01*
X550248Y577038D01*
X550353Y577026D01*
X550585Y576981D01*
X550821Y576974D01*
X550926Y576962D01*
X553759Y576962D01*
X553939Y576976D01*
G37*
G36*
X615124Y798117D02*
X615124Y798117D01*
X615162Y798116D01*
X615369Y798149D01*
X615575Y798176D01*
X615612Y798187D01*
X615649Y798193D01*
X615848Y798258D01*
X616047Y798319D01*
X616082Y798335D01*
X616118Y798347D01*
X616303Y798444D01*
X616491Y798535D01*
X616522Y798557D01*
X616556Y798575D01*
X616628Y798633D01*
X616893Y798821D01*
X617015Y798942D01*
X617089Y799000D01*
X636608Y818519D01*
X636632Y818548D01*
X636661Y818574D01*
X636792Y818736D01*
X636927Y818895D01*
X636947Y818928D01*
X636971Y818958D01*
X637074Y819138D01*
X637182Y819318D01*
X637196Y819353D01*
X637215Y819386D01*
X637287Y819582D01*
X637365Y819776D01*
X637373Y819813D01*
X637386Y819849D01*
X637426Y820054D01*
X637472Y820258D01*
X637474Y820296D01*
X637481Y820333D01*
X637487Y820541D01*
X637499Y820750D01*
X637495Y820788D01*
X637496Y820826D01*
X637469Y821033D01*
X637447Y821241D01*
X637437Y821277D01*
X637432Y821315D01*
X637371Y821515D01*
X637316Y821716D01*
X637300Y821751D01*
X637289Y821788D01*
X637198Y821975D01*
X637111Y822165D01*
X637089Y822197D01*
X637073Y822231D01*
X636952Y822401D01*
X636835Y822574D01*
X636809Y822602D01*
X636787Y822633D01*
X636640Y822782D01*
X636497Y822934D01*
X636467Y822957D01*
X636440Y822984D01*
X636272Y823107D01*
X636106Y823234D01*
X636072Y823252D01*
X636042Y823274D01*
X635855Y823368D01*
X635671Y823467D01*
X635635Y823479D01*
X635601Y823497D01*
X635402Y823559D01*
X635205Y823627D01*
X635167Y823633D01*
X635131Y823645D01*
X635038Y823655D01*
X634718Y823710D01*
X634546Y823711D01*
X634453Y823721D01*
X621768Y823721D01*
X621692Y823715D01*
X621616Y823717D01*
X621447Y823695D01*
X621276Y823681D01*
X621202Y823663D01*
X621127Y823653D01*
X620963Y823604D01*
X620797Y823563D01*
X620728Y823533D01*
X620654Y823511D01*
X620501Y823435D01*
X620344Y823368D01*
X620280Y823327D01*
X620211Y823294D01*
X620072Y823195D01*
X619928Y823103D01*
X619871Y823052D01*
X619809Y823008D01*
X619688Y822888D01*
X619560Y822774D01*
X619512Y822715D01*
X619458Y822661D01*
X619357Y822523D01*
X619250Y822390D01*
X619213Y822324D01*
X619168Y822263D01*
X619091Y822110D01*
X619006Y821962D01*
X618980Y821890D01*
X618945Y821822D01*
X618894Y821659D01*
X618835Y821499D01*
X618820Y821424D01*
X618797Y821352D01*
X618794Y821322D01*
X617332Y817794D01*
X614767Y815228D01*
X613768Y814814D01*
X613573Y814714D01*
X613377Y814619D01*
X613354Y814602D01*
X613329Y814589D01*
X613153Y814459D01*
X612975Y814333D01*
X612955Y814313D01*
X612932Y814296D01*
X612779Y814139D01*
X612624Y813986D01*
X612607Y813963D01*
X612587Y813943D01*
X612462Y813764D01*
X612334Y813588D01*
X612321Y813562D01*
X612305Y813539D01*
X612210Y813342D01*
X612111Y813147D01*
X612103Y813120D01*
X612090Y813094D01*
X612029Y812885D01*
X611963Y812677D01*
X611960Y812653D01*
X611951Y812621D01*
X611890Y812132D01*
X611893Y812051D01*
X611887Y811999D01*
X611887Y801155D01*
X611890Y801117D01*
X611888Y801079D01*
X611910Y800871D01*
X611927Y800663D01*
X611936Y800626D01*
X611940Y800589D01*
X611995Y800387D01*
X612045Y800185D01*
X612060Y800150D01*
X612071Y800113D01*
X612158Y799923D01*
X612240Y799731D01*
X612260Y799699D01*
X612276Y799664D01*
X612393Y799491D01*
X612505Y799315D01*
X612530Y799287D01*
X612552Y799255D01*
X612695Y799103D01*
X612834Y798947D01*
X612863Y798923D01*
X612889Y798896D01*
X613055Y798768D01*
X613218Y798637D01*
X613251Y798618D01*
X613281Y798595D01*
X613465Y798497D01*
X613646Y798393D01*
X613682Y798380D01*
X613716Y798362D01*
X613913Y798294D01*
X614109Y798222D01*
X614146Y798214D01*
X614182Y798202D01*
X614389Y798167D01*
X614593Y798127D01*
X614631Y798126D01*
X614669Y798119D01*
X614878Y798118D01*
X615086Y798112D01*
X615124Y798117D01*
G37*
G36*
X766037Y578736D02*
X766037Y578736D01*
X766113Y578736D01*
X766282Y578762D01*
X766452Y578781D01*
X766526Y578801D01*
X766601Y578813D01*
X766763Y578866D01*
X766928Y578911D01*
X766997Y578943D01*
X767069Y578967D01*
X767221Y579046D01*
X767376Y579117D01*
X767439Y579159D01*
X767507Y579195D01*
X767589Y579260D01*
X767785Y579392D01*
X767958Y579554D01*
X768040Y579620D01*
X771013Y582592D01*
X771087Y582679D01*
X771168Y582760D01*
X771246Y582867D01*
X771332Y582968D01*
X771391Y583066D01*
X771458Y583159D01*
X771518Y583277D01*
X771587Y583391D01*
X771629Y583497D01*
X771681Y583599D01*
X771721Y583726D01*
X771770Y583849D01*
X771795Y583960D01*
X771829Y584069D01*
X771839Y584163D01*
X771877Y584331D01*
X771895Y584655D01*
X771905Y584747D01*
X771905Y599916D01*
X771899Y599992D01*
X771901Y600068D01*
X771879Y600237D01*
X771865Y600408D01*
X771847Y600482D01*
X771837Y600557D01*
X771788Y600721D01*
X771747Y600887D01*
X771717Y600956D01*
X771695Y601030D01*
X771619Y601183D01*
X771552Y601340D01*
X771511Y601404D01*
X771478Y601473D01*
X771379Y601612D01*
X771287Y601756D01*
X771236Y601813D01*
X771192Y601875D01*
X771072Y601996D01*
X770958Y602124D01*
X770899Y602172D01*
X770845Y602226D01*
X770707Y602327D01*
X770574Y602434D01*
X770508Y602471D01*
X770447Y602516D01*
X770294Y602593D01*
X770146Y602678D01*
X770074Y602704D01*
X770006Y602739D01*
X769843Y602790D01*
X769683Y602849D01*
X769608Y602864D01*
X769536Y602887D01*
X769431Y602899D01*
X769199Y602944D01*
X768963Y602951D01*
X768858Y602963D01*
X766072Y602963D01*
X761851Y604711D01*
X761644Y604778D01*
X761437Y604849D01*
X761409Y604854D01*
X761382Y604863D01*
X761166Y604895D01*
X760951Y604932D01*
X760922Y604932D01*
X760894Y604936D01*
X760676Y604933D01*
X760457Y604935D01*
X760429Y604930D01*
X760401Y604930D01*
X760185Y604892D01*
X759970Y604858D01*
X759943Y604849D01*
X759915Y604844D01*
X759709Y604772D01*
X759501Y604704D01*
X759476Y604691D01*
X759449Y604681D01*
X759258Y604577D01*
X759064Y604476D01*
X759045Y604461D01*
X759016Y604445D01*
X758626Y604143D01*
X758572Y604084D01*
X758531Y604051D01*
X757760Y603280D01*
X757618Y603114D01*
X757474Y602950D01*
X757459Y602926D01*
X757441Y602904D01*
X757328Y602717D01*
X757212Y602532D01*
X757201Y602506D01*
X757186Y602482D01*
X757105Y602279D01*
X757020Y602078D01*
X757013Y602050D01*
X757003Y602024D01*
X756955Y601810D01*
X756904Y601598D01*
X756902Y601570D01*
X756896Y601542D01*
X756884Y601323D01*
X756867Y601106D01*
X756870Y601078D01*
X756868Y601050D01*
X756892Y600832D01*
X756911Y600615D01*
X756917Y600592D01*
X756921Y600559D01*
X757051Y600083D01*
X757085Y600010D01*
X757099Y599959D01*
X757405Y599222D01*
X757405Y595594D01*
X756016Y592242D01*
X754118Y590343D01*
X754069Y590285D01*
X754013Y590233D01*
X753909Y590098D01*
X753798Y589967D01*
X753759Y589902D01*
X753713Y589842D01*
X753632Y589691D01*
X753544Y589545D01*
X753516Y589474D01*
X753480Y589407D01*
X753424Y589245D01*
X753361Y589087D01*
X753344Y589012D01*
X753320Y588940D01*
X753291Y588772D01*
X753254Y588605D01*
X753250Y588529D01*
X753237Y588454D01*
X753236Y588283D01*
X753226Y588113D01*
X753234Y588037D01*
X753234Y587961D01*
X753260Y587792D01*
X753279Y587622D01*
X753299Y587549D01*
X753311Y587473D01*
X753364Y587311D01*
X753409Y587146D01*
X753441Y587077D01*
X753465Y587005D01*
X753544Y586853D01*
X753615Y586698D01*
X753657Y586635D01*
X753693Y586567D01*
X753758Y586485D01*
X753890Y586288D01*
X754052Y586116D01*
X754118Y586034D01*
X757114Y583037D01*
X757196Y582968D01*
X757210Y582953D01*
X757214Y582951D01*
X757282Y582882D01*
X757389Y582804D01*
X757490Y582718D01*
X757588Y582659D01*
X757681Y582592D01*
X757799Y582532D01*
X757913Y582463D01*
X758019Y582421D01*
X758121Y582369D01*
X758248Y582329D01*
X758371Y582280D01*
X758482Y582255D01*
X758591Y582221D01*
X758685Y582211D01*
X758853Y582173D01*
X759177Y582155D01*
X759232Y582149D01*
X762594Y580756D01*
X763731Y579620D01*
X763789Y579571D01*
X763841Y579515D01*
X763977Y579411D01*
X764107Y579300D01*
X764172Y579261D01*
X764232Y579215D01*
X764383Y579134D01*
X764529Y579046D01*
X764600Y579018D01*
X764667Y578982D01*
X764829Y578926D01*
X764987Y578863D01*
X765062Y578846D01*
X765134Y578822D01*
X765302Y578793D01*
X765469Y578756D01*
X765545Y578752D01*
X765620Y578739D01*
X765791Y578738D01*
X765961Y578728D01*
X766037Y578736D01*
G37*
G36*
X549451Y750585D02*
X549451Y750585D01*
X549631Y750592D01*
X549697Y750605D01*
X549763Y750611D01*
X549938Y750654D01*
X550115Y750690D01*
X550177Y750713D01*
X550242Y750729D01*
X550408Y750801D01*
X550576Y750864D01*
X550634Y750898D01*
X550695Y750924D01*
X550847Y751021D01*
X551004Y751111D01*
X551055Y751153D01*
X551111Y751189D01*
X551246Y751309D01*
X551385Y751424D01*
X551429Y751473D01*
X551479Y751518D01*
X551593Y751658D01*
X551712Y751793D01*
X551747Y751850D01*
X551789Y751902D01*
X551878Y752058D01*
X551974Y752211D01*
X552000Y752272D01*
X552033Y752330D01*
X552096Y752500D01*
X552166Y752666D01*
X552182Y752730D01*
X552205Y752793D01*
X552239Y752970D01*
X552282Y753145D01*
X552287Y753212D01*
X552299Y753277D01*
X552305Y753457D01*
X552318Y753637D01*
X552313Y753704D01*
X552315Y753770D01*
X552291Y753949D01*
X552275Y754129D01*
X552261Y754179D01*
X552250Y754259D01*
X552108Y754731D01*
X552093Y754762D01*
X552087Y754784D01*
X550925Y757588D01*
X550925Y771613D01*
X550922Y771651D01*
X550924Y771689D01*
X550902Y771897D01*
X550885Y772105D01*
X550876Y772142D01*
X550872Y772179D01*
X550817Y772381D01*
X550767Y772583D01*
X550752Y772618D01*
X550741Y772655D01*
X550654Y772845D01*
X550572Y773037D01*
X550552Y773069D01*
X550536Y773104D01*
X550419Y773277D01*
X550307Y773453D01*
X550282Y773481D01*
X550260Y773513D01*
X550117Y773665D01*
X549978Y773821D01*
X549949Y773845D01*
X549923Y773872D01*
X549757Y774000D01*
X549594Y774131D01*
X549561Y774150D01*
X549531Y774173D01*
X549347Y774271D01*
X549166Y774375D01*
X549130Y774388D01*
X549096Y774406D01*
X548899Y774474D01*
X548703Y774546D01*
X548666Y774554D01*
X548630Y774566D01*
X548423Y774601D01*
X548219Y774641D01*
X548181Y774642D01*
X548143Y774649D01*
X547934Y774650D01*
X547726Y774656D01*
X547688Y774651D01*
X547650Y774652D01*
X547443Y774619D01*
X547237Y774592D01*
X547200Y774581D01*
X547163Y774575D01*
X546964Y774510D01*
X546765Y774449D01*
X546730Y774433D01*
X546694Y774421D01*
X546509Y774324D01*
X546321Y774233D01*
X546290Y774211D01*
X546256Y774193D01*
X546184Y774135D01*
X545919Y773947D01*
X545797Y773826D01*
X545723Y773768D01*
X532300Y760345D01*
X532251Y760287D01*
X532196Y760235D01*
X532092Y760099D01*
X531981Y759969D01*
X531942Y759903D01*
X531895Y759843D01*
X531815Y759693D01*
X531726Y759546D01*
X531698Y759475D01*
X531662Y759408D01*
X531607Y759247D01*
X531543Y759088D01*
X531527Y759014D01*
X531502Y758942D01*
X531473Y758773D01*
X531437Y758607D01*
X531432Y758530D01*
X531419Y758455D01*
X531418Y758284D01*
X531409Y758114D01*
X531417Y758038D01*
X531416Y757962D01*
X531443Y757793D01*
X531461Y757623D01*
X531481Y757550D01*
X531493Y757475D01*
X531547Y757312D01*
X531592Y757148D01*
X531624Y757078D01*
X531647Y757006D01*
X531726Y756855D01*
X531797Y756699D01*
X531840Y756636D01*
X531875Y756568D01*
X531941Y756486D01*
X532073Y756290D01*
X532235Y756118D01*
X532300Y756035D01*
X536872Y751463D01*
X536959Y751389D01*
X537040Y751308D01*
X537147Y751230D01*
X537248Y751144D01*
X537346Y751085D01*
X537439Y751018D01*
X537557Y750958D01*
X537671Y750889D01*
X537777Y750847D01*
X537879Y750795D01*
X538006Y750755D01*
X538129Y750706D01*
X538240Y750681D01*
X538349Y750647D01*
X538443Y750637D01*
X538611Y750599D01*
X538935Y750581D01*
X539027Y750571D01*
X549271Y750571D01*
X549451Y750585D01*
G37*
G36*
X779275Y642266D02*
X779275Y642266D01*
X779351Y642266D01*
X779520Y642292D01*
X779690Y642310D01*
X779763Y642331D01*
X779839Y642342D01*
X780001Y642396D01*
X780166Y642441D01*
X780235Y642473D01*
X780307Y642497D01*
X780459Y642576D01*
X780614Y642647D01*
X780677Y642689D01*
X780745Y642725D01*
X780827Y642790D01*
X781023Y642922D01*
X781196Y643084D01*
X781278Y643150D01*
X786253Y648124D01*
X786327Y648211D01*
X786408Y648292D01*
X786486Y648399D01*
X786572Y648500D01*
X786631Y648598D01*
X786698Y648691D01*
X786758Y648809D01*
X786827Y648923D01*
X786869Y649029D01*
X786921Y649131D01*
X786961Y649258D01*
X787010Y649381D01*
X787035Y649492D01*
X787069Y649601D01*
X787079Y649695D01*
X787117Y649863D01*
X787135Y650187D01*
X787145Y650279D01*
X787145Y657174D01*
X787136Y657288D01*
X787137Y657402D01*
X787116Y657534D01*
X787105Y657666D01*
X787078Y657777D01*
X787060Y657890D01*
X787019Y658016D01*
X786987Y658145D01*
X786942Y658250D01*
X786906Y658358D01*
X786844Y658476D01*
X786792Y658598D01*
X786731Y658695D01*
X786678Y658796D01*
X786619Y658869D01*
X786527Y659014D01*
X786311Y659256D01*
X786253Y659329D01*
X783655Y661927D01*
X783597Y661976D01*
X783544Y662032D01*
X783409Y662136D01*
X783279Y662246D01*
X783214Y662286D01*
X783153Y662332D01*
X783002Y662413D01*
X782856Y662501D01*
X782785Y662529D01*
X782718Y662565D01*
X782557Y662621D01*
X782398Y662684D01*
X782324Y662701D01*
X782252Y662725D01*
X782083Y662754D01*
X781916Y662791D01*
X781840Y662795D01*
X781765Y662808D01*
X781594Y662809D01*
X781424Y662818D01*
X781348Y662810D01*
X781272Y662811D01*
X781103Y662784D01*
X780933Y662766D01*
X780860Y662746D01*
X780785Y662734D01*
X780622Y662681D01*
X780458Y662636D01*
X780388Y662604D01*
X780316Y662580D01*
X780164Y662501D01*
X780009Y662430D01*
X779946Y662387D01*
X779878Y662352D01*
X779796Y662286D01*
X779600Y662154D01*
X779428Y661993D01*
X779345Y661927D01*
X776570Y659151D01*
X771528Y657063D01*
X766072Y657063D01*
X765991Y657097D01*
X765954Y657109D01*
X765920Y657125D01*
X765720Y657184D01*
X765521Y657248D01*
X765483Y657254D01*
X765447Y657265D01*
X765240Y657290D01*
X765033Y657322D01*
X764995Y657321D01*
X764957Y657326D01*
X764749Y657318D01*
X764540Y657316D01*
X764502Y657309D01*
X764464Y657307D01*
X764260Y657266D01*
X764054Y657230D01*
X764018Y657217D01*
X763981Y657210D01*
X763785Y657136D01*
X763588Y657067D01*
X763555Y657049D01*
X763519Y657035D01*
X763338Y656931D01*
X763155Y656831D01*
X763125Y656808D01*
X763092Y656788D01*
X762930Y656656D01*
X762766Y656528D01*
X762740Y656500D01*
X762710Y656476D01*
X762572Y656320D01*
X762430Y656167D01*
X762409Y656135D01*
X762384Y656106D01*
X762273Y655929D01*
X762157Y655755D01*
X762142Y655721D01*
X762121Y655688D01*
X762040Y655496D01*
X761954Y655306D01*
X761944Y655269D01*
X761930Y655234D01*
X761881Y655031D01*
X761827Y654829D01*
X761823Y654791D01*
X761814Y654754D01*
X761798Y654546D01*
X761778Y654338D01*
X761780Y654300D01*
X761777Y654262D01*
X761795Y654055D01*
X761808Y653846D01*
X761817Y653809D01*
X761820Y653771D01*
X761846Y653682D01*
X761918Y653365D01*
X761983Y653206D01*
X762009Y653115D01*
X762663Y651536D01*
X762715Y651435D01*
X762758Y651329D01*
X762828Y651216D01*
X762888Y651097D01*
X762956Y651005D01*
X763016Y650908D01*
X763102Y650807D01*
X763181Y650700D01*
X763263Y650621D01*
X763337Y650534D01*
X763439Y650449D01*
X763534Y650356D01*
X763628Y650290D01*
X763715Y650217D01*
X763798Y650172D01*
X763938Y650073D01*
X764231Y649932D01*
X764312Y649887D01*
X765642Y649336D01*
X768449Y646529D01*
X768536Y646455D01*
X768617Y646374D01*
X768724Y646296D01*
X768825Y646210D01*
X768923Y646151D01*
X769015Y646084D01*
X769134Y646024D01*
X769248Y645955D01*
X769354Y645913D01*
X769456Y645861D01*
X769583Y645821D01*
X769706Y645772D01*
X769817Y645747D01*
X769926Y645713D01*
X770020Y645703D01*
X770188Y645665D01*
X770512Y645647D01*
X770604Y645637D01*
X771528Y645637D01*
X776570Y643549D01*
X776969Y643150D01*
X777027Y643100D01*
X777079Y643045D01*
X777214Y642941D01*
X777344Y642830D01*
X777410Y642791D01*
X777470Y642745D01*
X777621Y642664D01*
X777767Y642576D01*
X777838Y642547D01*
X777905Y642511D01*
X778067Y642456D01*
X778225Y642393D01*
X778300Y642376D01*
X778372Y642351D01*
X778540Y642323D01*
X778707Y642286D01*
X778783Y642282D01*
X778858Y642269D01*
X779029Y642268D01*
X779199Y642258D01*
X779275Y642266D01*
G37*
G36*
X650176Y514653D02*
X650176Y514653D01*
X650214Y514652D01*
X650421Y514685D01*
X650627Y514712D01*
X650664Y514723D01*
X650701Y514729D01*
X650900Y514794D01*
X651099Y514855D01*
X651134Y514871D01*
X651170Y514883D01*
X651355Y514980D01*
X651543Y515071D01*
X651574Y515093D01*
X651608Y515111D01*
X651680Y515169D01*
X651945Y515357D01*
X652067Y515478D01*
X652141Y515536D01*
X658237Y521632D01*
X658311Y521720D01*
X658392Y521800D01*
X658470Y521907D01*
X658556Y522008D01*
X658615Y522106D01*
X658682Y522199D01*
X658742Y522317D01*
X658811Y522431D01*
X658853Y522537D01*
X658905Y522639D01*
X658945Y522766D01*
X658994Y522889D01*
X659019Y523000D01*
X659053Y523109D01*
X659063Y523203D01*
X659101Y523371D01*
X659119Y523695D01*
X659129Y523787D01*
X659129Y537591D01*
X659123Y537667D01*
X659125Y537743D01*
X659103Y537912D01*
X659089Y538083D01*
X659071Y538157D01*
X659061Y538232D01*
X659012Y538396D01*
X658971Y538562D01*
X658941Y538631D01*
X658919Y538705D01*
X658843Y538858D01*
X658776Y539015D01*
X658735Y539079D01*
X658702Y539148D01*
X658603Y539287D01*
X658511Y539431D01*
X658460Y539488D01*
X658416Y539550D01*
X658296Y539671D01*
X658182Y539799D01*
X658123Y539847D01*
X658069Y539901D01*
X657931Y540002D01*
X657798Y540109D01*
X657732Y540146D01*
X657671Y540191D01*
X657518Y540268D01*
X657370Y540353D01*
X657298Y540379D01*
X657230Y540414D01*
X657067Y540465D01*
X656907Y540524D01*
X656832Y540539D01*
X656760Y540562D01*
X656655Y540574D01*
X656423Y540619D01*
X656187Y540626D01*
X656082Y540638D01*
X651701Y540638D01*
X651152Y540865D01*
X650980Y540921D01*
X650811Y540984D01*
X650746Y540996D01*
X650683Y541017D01*
X650504Y541044D01*
X650327Y541078D01*
X650261Y541080D01*
X650195Y541090D01*
X650014Y541088D01*
X649834Y541094D01*
X649768Y541085D01*
X649701Y541084D01*
X649524Y541053D01*
X649345Y541029D01*
X649281Y541010D01*
X649216Y540998D01*
X649045Y540939D01*
X648872Y540887D01*
X648813Y540857D01*
X648750Y540835D01*
X648592Y540749D01*
X648429Y540670D01*
X648375Y540631D01*
X648317Y540600D01*
X648174Y540489D01*
X648027Y540384D01*
X647980Y540338D01*
X647927Y540297D01*
X647804Y540164D01*
X647676Y540038D01*
X647637Y539984D01*
X647592Y539935D01*
X647492Y539784D01*
X647386Y539639D01*
X647356Y539580D01*
X647319Y539524D01*
X647245Y539359D01*
X647163Y539198D01*
X647143Y539135D01*
X647116Y539074D01*
X647069Y538900D01*
X647015Y538728D01*
X647009Y538675D01*
X646988Y538598D01*
X646939Y538107D01*
X646941Y538073D01*
X646939Y538050D01*
X646939Y517691D01*
X646942Y517653D01*
X646940Y517615D01*
X646962Y517407D01*
X646979Y517199D01*
X646988Y517162D01*
X646992Y517124D01*
X647047Y516923D01*
X647097Y516721D01*
X647112Y516686D01*
X647123Y516649D01*
X647210Y516459D01*
X647292Y516267D01*
X647312Y516235D01*
X647328Y516200D01*
X647445Y516027D01*
X647557Y515851D01*
X647582Y515823D01*
X647604Y515791D01*
X647747Y515639D01*
X647886Y515483D01*
X647915Y515459D01*
X647941Y515432D01*
X648107Y515304D01*
X648270Y515173D01*
X648303Y515154D01*
X648333Y515131D01*
X648517Y515033D01*
X648698Y514929D01*
X648734Y514916D01*
X648768Y514898D01*
X648965Y514830D01*
X649161Y514758D01*
X649198Y514750D01*
X649234Y514738D01*
X649441Y514703D01*
X649645Y514663D01*
X649683Y514662D01*
X649721Y514655D01*
X649930Y514654D01*
X650138Y514648D01*
X650176Y514653D01*
G37*
G36*
X654652Y639890D02*
X654652Y639890D01*
X654728Y639889D01*
X654897Y639916D01*
X655067Y639934D01*
X655140Y639954D01*
X655215Y639966D01*
X655378Y640019D01*
X655542Y640064D01*
X655612Y640096D01*
X655684Y640120D01*
X655836Y640199D01*
X655991Y640270D01*
X656054Y640313D01*
X656122Y640348D01*
X656204Y640414D01*
X656400Y640546D01*
X656572Y640708D01*
X656655Y640773D01*
X659304Y643423D01*
X659353Y643481D01*
X659409Y643533D01*
X659513Y643668D01*
X659624Y643799D01*
X659663Y643864D01*
X659709Y643924D01*
X659790Y644074D01*
X659878Y644221D01*
X659907Y644292D01*
X659943Y644359D01*
X659998Y644521D01*
X660061Y644679D01*
X660078Y644753D01*
X660103Y644826D01*
X660131Y644994D01*
X660168Y645161D01*
X660172Y645237D01*
X660185Y645312D01*
X660186Y645483D01*
X660196Y645653D01*
X660188Y645729D01*
X660188Y645805D01*
X660162Y645974D01*
X660144Y646144D01*
X660123Y646217D01*
X660112Y646293D01*
X660058Y646455D01*
X660013Y646620D01*
X659981Y646689D01*
X659957Y646761D01*
X659878Y646913D01*
X659807Y647068D01*
X659765Y647131D01*
X659729Y647199D01*
X659664Y647281D01*
X659532Y647477D01*
X659370Y647650D01*
X659304Y647732D01*
X649818Y657218D01*
X649652Y657359D01*
X649488Y657504D01*
X649464Y657519D01*
X649442Y657538D01*
X649255Y657651D01*
X649070Y657767D01*
X649044Y657778D01*
X649020Y657792D01*
X648817Y657873D01*
X648616Y657958D01*
X648588Y657965D01*
X648561Y657975D01*
X648348Y658023D01*
X648136Y658074D01*
X648108Y658076D01*
X648080Y658082D01*
X647861Y658094D01*
X647644Y658111D01*
X647616Y658108D01*
X647587Y658110D01*
X647370Y658087D01*
X647153Y658068D01*
X647130Y658061D01*
X647097Y658058D01*
X646621Y657927D01*
X646548Y657893D01*
X646497Y657879D01*
X644528Y657063D01*
X639318Y657063D01*
X639242Y657057D01*
X639166Y657059D01*
X638997Y657037D01*
X638826Y657023D01*
X638752Y657005D01*
X638677Y656995D01*
X638513Y656946D01*
X638347Y656905D01*
X638278Y656875D01*
X638204Y656853D01*
X638051Y656777D01*
X637894Y656710D01*
X637830Y656669D01*
X637761Y656636D01*
X637622Y656537D01*
X637478Y656445D01*
X637421Y656394D01*
X637359Y656350D01*
X637238Y656230D01*
X637110Y656116D01*
X637062Y656057D01*
X637008Y656003D01*
X636907Y655865D01*
X636800Y655732D01*
X636763Y655666D01*
X636718Y655605D01*
X636641Y655452D01*
X636556Y655304D01*
X636530Y655232D01*
X636495Y655164D01*
X636444Y655001D01*
X636385Y654841D01*
X636370Y654766D01*
X636347Y654694D01*
X636335Y654589D01*
X636290Y654357D01*
X636283Y654121D01*
X636271Y654016D01*
X636271Y648684D01*
X636277Y648608D01*
X636275Y648532D01*
X636297Y648363D01*
X636311Y648192D01*
X636329Y648118D01*
X636339Y648043D01*
X636388Y647879D01*
X636429Y647713D01*
X636459Y647644D01*
X636481Y647570D01*
X636557Y647417D01*
X636624Y647260D01*
X636665Y647196D01*
X636698Y647127D01*
X636797Y646988D01*
X636889Y646844D01*
X636940Y646787D01*
X636984Y646725D01*
X637104Y646604D01*
X637218Y646476D01*
X637277Y646428D01*
X637331Y646374D01*
X637469Y646273D01*
X637602Y646166D01*
X637668Y646129D01*
X637729Y646084D01*
X637882Y646007D01*
X638030Y645922D01*
X638102Y645896D01*
X638170Y645861D01*
X638333Y645810D01*
X638493Y645751D01*
X638568Y645736D01*
X638640Y645713D01*
X638745Y645701D01*
X638977Y645656D01*
X639213Y645649D01*
X639318Y645637D01*
X644528Y645637D01*
X649570Y643549D01*
X652345Y640773D01*
X652403Y640724D01*
X652455Y640668D01*
X652591Y640564D01*
X652721Y640454D01*
X652787Y640414D01*
X652847Y640368D01*
X652997Y640287D01*
X653144Y640199D01*
X653214Y640171D01*
X653282Y640135D01*
X653443Y640079D01*
X653602Y640016D01*
X653676Y640000D01*
X653748Y639975D01*
X653917Y639946D01*
X654083Y639909D01*
X654160Y639905D01*
X654235Y639892D01*
X654406Y639891D01*
X654576Y639882D01*
X654652Y639890D01*
G37*
G36*
X531190Y584461D02*
X531190Y584461D01*
X531266Y584459D01*
X531435Y584481D01*
X531606Y584495D01*
X531680Y584513D01*
X531755Y584523D01*
X531919Y584572D01*
X532085Y584613D01*
X532154Y584643D01*
X532228Y584665D01*
X532381Y584741D01*
X532538Y584808D01*
X532602Y584849D01*
X532671Y584882D01*
X532810Y584981D01*
X532954Y585073D01*
X533011Y585124D01*
X533073Y585168D01*
X533194Y585288D01*
X533322Y585402D01*
X533370Y585461D01*
X533424Y585515D01*
X533525Y585653D01*
X533632Y585786D01*
X533669Y585852D01*
X533714Y585913D01*
X533791Y586066D01*
X533876Y586214D01*
X533902Y586286D01*
X533937Y586354D01*
X533988Y586517D01*
X534047Y586677D01*
X534062Y586752D01*
X534085Y586824D01*
X534097Y586929D01*
X534142Y587161D01*
X534149Y587397D01*
X534161Y587502D01*
X534161Y594829D01*
X534158Y594867D01*
X534160Y594905D01*
X534138Y595113D01*
X534121Y595321D01*
X534112Y595358D01*
X534108Y595395D01*
X534053Y595597D01*
X534003Y595799D01*
X533988Y595834D01*
X533977Y595871D01*
X533890Y596061D01*
X533808Y596253D01*
X533788Y596285D01*
X533772Y596320D01*
X533655Y596493D01*
X533543Y596669D01*
X533518Y596697D01*
X533496Y596729D01*
X533353Y596881D01*
X533214Y597037D01*
X533185Y597061D01*
X533159Y597088D01*
X532993Y597216D01*
X532830Y597347D01*
X532797Y597366D01*
X532767Y597389D01*
X532583Y597487D01*
X532402Y597591D01*
X532366Y597604D01*
X532332Y597622D01*
X532135Y597690D01*
X531939Y597762D01*
X531902Y597770D01*
X531866Y597782D01*
X531659Y597817D01*
X531455Y597857D01*
X531417Y597858D01*
X531379Y597865D01*
X531170Y597866D01*
X530962Y597872D01*
X530924Y597867D01*
X530886Y597868D01*
X530679Y597835D01*
X530473Y597808D01*
X530436Y597797D01*
X530399Y597791D01*
X530200Y597726D01*
X530001Y597665D01*
X529966Y597649D01*
X529930Y597637D01*
X529745Y597540D01*
X529557Y597449D01*
X529526Y597427D01*
X529492Y597409D01*
X529420Y597351D01*
X529155Y597163D01*
X529033Y597042D01*
X528959Y596984D01*
X521632Y589657D01*
X521608Y589628D01*
X521579Y589602D01*
X521448Y589440D01*
X521313Y589281D01*
X521293Y589248D01*
X521269Y589218D01*
X521166Y589038D01*
X521058Y588858D01*
X521044Y588823D01*
X521025Y588790D01*
X520953Y588594D01*
X520875Y588400D01*
X520867Y588363D01*
X520854Y588327D01*
X520814Y588122D01*
X520768Y587918D01*
X520766Y587880D01*
X520759Y587843D01*
X520753Y587635D01*
X520741Y587426D01*
X520745Y587388D01*
X520744Y587350D01*
X520771Y587143D01*
X520793Y586935D01*
X520803Y586899D01*
X520808Y586861D01*
X520869Y586661D01*
X520924Y586460D01*
X520940Y586425D01*
X520951Y586388D01*
X521042Y586201D01*
X521129Y586011D01*
X521151Y585979D01*
X521167Y585945D01*
X521288Y585775D01*
X521405Y585602D01*
X521431Y585574D01*
X521453Y585543D01*
X521600Y585394D01*
X521743Y585242D01*
X521773Y585219D01*
X521800Y585192D01*
X521968Y585069D01*
X522134Y584942D01*
X522168Y584924D01*
X522198Y584902D01*
X522385Y584808D01*
X522569Y584709D01*
X522605Y584697D01*
X522639Y584679D01*
X522838Y584617D01*
X523035Y584549D01*
X523073Y584543D01*
X523109Y584531D01*
X523202Y584521D01*
X523522Y584466D01*
X523694Y584465D01*
X523787Y584455D01*
X531114Y584455D01*
X531190Y584461D01*
G37*
G36*
X581151Y726190D02*
X581151Y726190D01*
X581189Y726188D01*
X581397Y726210D01*
X581605Y726227D01*
X581642Y726236D01*
X581679Y726240D01*
X581881Y726295D01*
X582083Y726345D01*
X582118Y726360D01*
X582155Y726371D01*
X582345Y726458D01*
X582537Y726540D01*
X582569Y726560D01*
X582604Y726576D01*
X582777Y726693D01*
X582953Y726805D01*
X582981Y726830D01*
X583013Y726852D01*
X583165Y726995D01*
X583321Y727134D01*
X583345Y727163D01*
X583372Y727189D01*
X583500Y727355D01*
X583631Y727518D01*
X583650Y727551D01*
X583673Y727581D01*
X583771Y727765D01*
X583875Y727946D01*
X583888Y727982D01*
X583906Y728016D01*
X583974Y728213D01*
X584046Y728409D01*
X584054Y728446D01*
X584066Y728482D01*
X584101Y728689D01*
X584141Y728893D01*
X584142Y728931D01*
X584149Y728969D01*
X584150Y729178D01*
X584156Y729386D01*
X584151Y729424D01*
X584152Y729462D01*
X584119Y729669D01*
X584092Y729875D01*
X584081Y729912D01*
X584075Y729949D01*
X584010Y730148D01*
X583949Y730347D01*
X583933Y730382D01*
X583921Y730418D01*
X583824Y730603D01*
X583733Y730791D01*
X583711Y730822D01*
X583693Y730856D01*
X583635Y730928D01*
X583447Y731193D01*
X583326Y731315D01*
X583268Y731389D01*
X578989Y735668D01*
X578931Y735717D01*
X578879Y735772D01*
X578743Y735876D01*
X578613Y735987D01*
X578547Y736026D01*
X578487Y736073D01*
X578337Y736153D01*
X578190Y736242D01*
X578120Y736270D01*
X578052Y736306D01*
X577890Y736361D01*
X577732Y736425D01*
X577658Y736441D01*
X577586Y736466D01*
X577417Y736495D01*
X577251Y736531D01*
X577174Y736536D01*
X577099Y736549D01*
X576928Y736550D01*
X576758Y736559D01*
X576682Y736551D01*
X576606Y736552D01*
X576437Y736525D01*
X576267Y736507D01*
X576194Y736487D01*
X576119Y736475D01*
X575956Y736422D01*
X575792Y736376D01*
X575722Y736344D01*
X575650Y736321D01*
X575499Y736242D01*
X575343Y736171D01*
X575280Y736128D01*
X575212Y736093D01*
X575130Y736027D01*
X574934Y735895D01*
X574762Y735733D01*
X574679Y735668D01*
X570400Y731389D01*
X570376Y731360D01*
X570347Y731334D01*
X570216Y731172D01*
X570081Y731013D01*
X570061Y730980D01*
X570037Y730950D01*
X569934Y730769D01*
X569826Y730590D01*
X569812Y730555D01*
X569793Y730522D01*
X569721Y730326D01*
X569643Y730132D01*
X569635Y730095D01*
X569622Y730059D01*
X569582Y729854D01*
X569536Y729650D01*
X569534Y729612D01*
X569527Y729575D01*
X569521Y729367D01*
X569509Y729158D01*
X569513Y729120D01*
X569512Y729082D01*
X569539Y728875D01*
X569561Y728667D01*
X569571Y728631D01*
X569576Y728593D01*
X569637Y728393D01*
X569692Y728192D01*
X569708Y728157D01*
X569719Y728120D01*
X569810Y727933D01*
X569897Y727743D01*
X569919Y727712D01*
X569935Y727677D01*
X570056Y727507D01*
X570173Y727334D01*
X570199Y727306D01*
X570221Y727275D01*
X570367Y727127D01*
X570511Y726974D01*
X570541Y726951D01*
X570568Y726924D01*
X570736Y726801D01*
X570902Y726674D01*
X570936Y726656D01*
X570966Y726634D01*
X571152Y726540D01*
X571337Y726441D01*
X571373Y726428D01*
X571407Y726411D01*
X571606Y726349D01*
X571803Y726281D01*
X571841Y726275D01*
X571877Y726263D01*
X571970Y726253D01*
X572290Y726198D01*
X572462Y726197D01*
X572555Y726187D01*
X581113Y726187D01*
X581151Y726190D01*
G37*
G36*
X589216Y688389D02*
X589216Y688389D01*
X589254Y688388D01*
X589461Y688421D01*
X589667Y688448D01*
X589704Y688459D01*
X589741Y688465D01*
X589940Y688530D01*
X590139Y688591D01*
X590174Y688607D01*
X590210Y688619D01*
X590395Y688716D01*
X590583Y688807D01*
X590614Y688829D01*
X590648Y688847D01*
X590720Y688905D01*
X590985Y689093D01*
X591107Y689214D01*
X591181Y689272D01*
X595753Y693844D01*
X595827Y693932D01*
X595908Y694012D01*
X595986Y694119D01*
X596072Y694220D01*
X596131Y694318D01*
X596198Y694411D01*
X596258Y694529D01*
X596327Y694643D01*
X596369Y694749D01*
X596421Y694851D01*
X596461Y694978D01*
X596510Y695101D01*
X596535Y695212D01*
X596569Y695321D01*
X596579Y695415D01*
X596617Y695583D01*
X596635Y695907D01*
X596645Y695999D01*
X596645Y698592D01*
X596628Y698809D01*
X596614Y699027D01*
X596608Y699055D01*
X596605Y699083D01*
X596553Y699294D01*
X596504Y699508D01*
X596493Y699535D01*
X596487Y699562D01*
X596401Y699762D01*
X596318Y699965D01*
X596303Y699989D01*
X596292Y700016D01*
X596175Y700199D01*
X596061Y700386D01*
X596042Y700408D01*
X596027Y700432D01*
X595882Y700594D01*
X595739Y700760D01*
X595717Y700778D01*
X595698Y700799D01*
X595529Y700936D01*
X595361Y701077D01*
X595341Y701088D01*
X595314Y701109D01*
X594886Y701353D01*
X594810Y701381D01*
X594764Y701407D01*
X592454Y702364D01*
X592282Y702419D01*
X592113Y702482D01*
X592048Y702495D01*
X591985Y702515D01*
X591806Y702542D01*
X591629Y702577D01*
X591563Y702579D01*
X591497Y702589D01*
X591316Y702586D01*
X591136Y702592D01*
X591070Y702583D01*
X591003Y702582D01*
X590826Y702551D01*
X590647Y702528D01*
X590583Y702508D01*
X590518Y702497D01*
X590348Y702437D01*
X590174Y702385D01*
X590115Y702356D01*
X590052Y702334D01*
X589893Y702247D01*
X589731Y702168D01*
X589677Y702130D01*
X589619Y702098D01*
X589476Y701987D01*
X589329Y701883D01*
X589282Y701836D01*
X589229Y701795D01*
X589106Y701663D01*
X588978Y701536D01*
X588939Y701482D01*
X588894Y701433D01*
X588794Y701283D01*
X588688Y701137D01*
X588658Y701078D01*
X588621Y701022D01*
X588547Y700858D01*
X588465Y700697D01*
X588445Y700633D01*
X588418Y700573D01*
X588371Y700399D01*
X588317Y700226D01*
X588311Y700174D01*
X588290Y700096D01*
X588241Y699605D01*
X588243Y699572D01*
X588241Y699548D01*
X588241Y697702D01*
X586849Y694343D01*
X586797Y694282D01*
X586716Y694201D01*
X586638Y694094D01*
X586552Y693993D01*
X586493Y693895D01*
X586426Y693803D01*
X586366Y693684D01*
X586297Y693570D01*
X586255Y693464D01*
X586203Y693362D01*
X586163Y693235D01*
X586114Y693112D01*
X586089Y693001D01*
X586055Y692892D01*
X586045Y692798D01*
X586007Y692630D01*
X585989Y692306D01*
X585979Y692214D01*
X585979Y691427D01*
X585982Y691389D01*
X585980Y691351D01*
X586002Y691143D01*
X586019Y690935D01*
X586028Y690898D01*
X586032Y690860D01*
X586087Y690659D01*
X586137Y690457D01*
X586152Y690422D01*
X586163Y690385D01*
X586250Y690195D01*
X586332Y690003D01*
X586352Y689971D01*
X586368Y689936D01*
X586485Y689763D01*
X586597Y689587D01*
X586622Y689559D01*
X586644Y689527D01*
X586787Y689375D01*
X586926Y689219D01*
X586955Y689195D01*
X586981Y689168D01*
X587148Y689040D01*
X587310Y688909D01*
X587342Y688891D01*
X587373Y688867D01*
X587557Y688768D01*
X587738Y688665D01*
X587774Y688652D01*
X587808Y688634D01*
X588005Y688566D01*
X588201Y688494D01*
X588238Y688486D01*
X588274Y688474D01*
X588481Y688439D01*
X588685Y688399D01*
X588723Y688398D01*
X588761Y688391D01*
X588970Y688390D01*
X589178Y688384D01*
X589216Y688389D01*
G37*
G36*
X583006Y407423D02*
X583006Y407423D01*
X583082Y407421D01*
X583251Y407443D01*
X583422Y407457D01*
X583496Y407475D01*
X583571Y407485D01*
X583735Y407534D01*
X583901Y407575D01*
X583970Y407605D01*
X584044Y407627D01*
X584197Y407703D01*
X584354Y407770D01*
X584418Y407811D01*
X584487Y407844D01*
X584626Y407943D01*
X584770Y408035D01*
X584827Y408086D01*
X584889Y408130D01*
X585010Y408250D01*
X585138Y408364D01*
X585186Y408423D01*
X585240Y408477D01*
X585341Y408615D01*
X585448Y408748D01*
X585485Y408814D01*
X585530Y408875D01*
X585607Y409028D01*
X585692Y409176D01*
X585718Y409248D01*
X585753Y409316D01*
X585804Y409479D01*
X585863Y409639D01*
X585878Y409714D01*
X585901Y409786D01*
X585913Y409891D01*
X585958Y410123D01*
X585965Y410359D01*
X585977Y410464D01*
X585977Y418045D01*
X585974Y418083D01*
X585976Y418121D01*
X585954Y418329D01*
X585937Y418537D01*
X585928Y418574D01*
X585924Y418612D01*
X585869Y418812D01*
X585819Y419015D01*
X585804Y419051D01*
X585793Y419087D01*
X585707Y419277D01*
X585624Y419469D01*
X585604Y419501D01*
X585588Y419536D01*
X585471Y419709D01*
X585359Y419885D01*
X585334Y419913D01*
X585312Y419945D01*
X585169Y420097D01*
X585030Y420253D01*
X585001Y420277D01*
X584974Y420304D01*
X584809Y420431D01*
X584646Y420563D01*
X584613Y420581D01*
X584583Y420605D01*
X584399Y420704D01*
X584218Y420807D01*
X584182Y420820D01*
X584148Y420838D01*
X583951Y420906D01*
X583755Y420978D01*
X583718Y420986D01*
X583682Y420998D01*
X583475Y421033D01*
X583271Y421073D01*
X583233Y421074D01*
X583195Y421081D01*
X582986Y421082D01*
X582778Y421088D01*
X582740Y421083D01*
X582702Y421084D01*
X582495Y421051D01*
X582289Y421024D01*
X582252Y421013D01*
X582215Y421007D01*
X582017Y420942D01*
X581817Y420881D01*
X581782Y420865D01*
X581746Y420853D01*
X581561Y420756D01*
X581373Y420665D01*
X581342Y420642D01*
X581308Y420625D01*
X581236Y420567D01*
X580971Y420379D01*
X580849Y420258D01*
X580775Y420200D01*
X579251Y418676D01*
X579177Y418588D01*
X579096Y418508D01*
X579018Y418401D01*
X578932Y418300D01*
X578873Y418202D01*
X578806Y418109D01*
X578746Y417991D01*
X578677Y417877D01*
X578635Y417771D01*
X578583Y417669D01*
X578543Y417542D01*
X578494Y417419D01*
X578469Y417307D01*
X578435Y417199D01*
X578425Y417105D01*
X578387Y416937D01*
X578369Y416613D01*
X578359Y416521D01*
X578359Y410464D01*
X578365Y410388D01*
X578363Y410312D01*
X578385Y410143D01*
X578399Y409972D01*
X578417Y409898D01*
X578427Y409823D01*
X578476Y409659D01*
X578517Y409493D01*
X578547Y409424D01*
X578569Y409350D01*
X578645Y409197D01*
X578712Y409040D01*
X578753Y408976D01*
X578786Y408907D01*
X578885Y408768D01*
X578977Y408624D01*
X579028Y408567D01*
X579072Y408505D01*
X579192Y408384D01*
X579306Y408256D01*
X579365Y408208D01*
X579419Y408154D01*
X579557Y408053D01*
X579690Y407946D01*
X579756Y407909D01*
X579817Y407864D01*
X579970Y407787D01*
X580118Y407702D01*
X580190Y407676D01*
X580258Y407641D01*
X580421Y407590D01*
X580581Y407531D01*
X580656Y407516D01*
X580728Y407493D01*
X580833Y407481D01*
X581065Y407436D01*
X581301Y407429D01*
X581406Y407417D01*
X582930Y407417D01*
X583006Y407423D01*
G37*
G36*
X499658Y597489D02*
X499658Y597489D01*
X499877Y597487D01*
X499905Y597492D01*
X499933Y597492D01*
X500148Y597530D01*
X500364Y597564D01*
X500391Y597573D01*
X500419Y597578D01*
X500625Y597650D01*
X500833Y597718D01*
X500858Y597731D01*
X500885Y597741D01*
X501077Y597845D01*
X501270Y597946D01*
X501289Y597960D01*
X501318Y597977D01*
X501707Y598279D01*
X501762Y598338D01*
X501803Y598371D01*
X506552Y603120D01*
X506601Y603178D01*
X506657Y603230D01*
X506761Y603366D01*
X506872Y603496D01*
X506911Y603561D01*
X506957Y603622D01*
X507038Y603772D01*
X507126Y603918D01*
X507155Y603989D01*
X507191Y604056D01*
X507246Y604218D01*
X507309Y604377D01*
X507326Y604451D01*
X507351Y604523D01*
X507379Y604692D01*
X507416Y604858D01*
X507420Y604934D01*
X507433Y605009D01*
X507434Y605180D01*
X507444Y605351D01*
X507436Y605426D01*
X507436Y605503D01*
X507410Y605672D01*
X507392Y605841D01*
X507371Y605915D01*
X507360Y605990D01*
X507306Y606152D01*
X507261Y606317D01*
X507229Y606386D01*
X507205Y606459D01*
X507126Y606610D01*
X507055Y606765D01*
X507013Y606829D01*
X506977Y606896D01*
X506912Y606979D01*
X506780Y607175D01*
X506618Y607347D01*
X506552Y607429D01*
X505455Y608527D01*
X505397Y608576D01*
X505344Y608632D01*
X505209Y608736D01*
X505079Y608846D01*
X505014Y608886D01*
X504953Y608932D01*
X504803Y609013D01*
X504656Y609101D01*
X504585Y609129D01*
X504518Y609165D01*
X504357Y609221D01*
X504198Y609284D01*
X504124Y609300D01*
X504052Y609325D01*
X503883Y609354D01*
X503716Y609391D01*
X503640Y609395D01*
X503565Y609408D01*
X503394Y609409D01*
X503224Y609418D01*
X503148Y609410D01*
X503072Y609411D01*
X502903Y609384D01*
X502733Y609366D01*
X502660Y609346D01*
X502585Y609334D01*
X502422Y609281D01*
X502258Y609236D01*
X502188Y609204D01*
X502116Y609180D01*
X501965Y609101D01*
X501809Y609030D01*
X501746Y608987D01*
X501678Y608952D01*
X501596Y608886D01*
X501400Y608754D01*
X501228Y608593D01*
X501145Y608527D01*
X498370Y605751D01*
X497944Y605575D01*
X497750Y605476D01*
X497553Y605379D01*
X497530Y605363D01*
X497505Y605350D01*
X497329Y605220D01*
X497151Y605094D01*
X497131Y605074D01*
X497108Y605057D01*
X496955Y604901D01*
X496800Y604747D01*
X496783Y604724D01*
X496763Y604704D01*
X496638Y604525D01*
X496510Y604348D01*
X496497Y604323D01*
X496481Y604300D01*
X496386Y604103D01*
X496287Y603908D01*
X496279Y603881D01*
X496266Y603855D01*
X496205Y603646D01*
X496139Y603437D01*
X496136Y603414D01*
X496127Y603382D01*
X496066Y602893D01*
X496069Y602812D01*
X496063Y602760D01*
X496063Y600749D01*
X496080Y600532D01*
X496094Y600314D01*
X496100Y600286D01*
X496103Y600257D01*
X496155Y600046D01*
X496204Y599833D01*
X496215Y599806D01*
X496221Y599779D01*
X496307Y599578D01*
X496390Y599376D01*
X496405Y599351D01*
X496416Y599325D01*
X496533Y599141D01*
X496647Y598955D01*
X496666Y598933D01*
X496681Y598909D01*
X496826Y598746D01*
X496969Y598581D01*
X496991Y598563D01*
X497010Y598541D01*
X497180Y598404D01*
X497347Y598264D01*
X497367Y598252D01*
X497394Y598231D01*
X497822Y597987D01*
X497898Y597959D01*
X497944Y597934D01*
X498483Y597711D01*
X498690Y597644D01*
X498897Y597573D01*
X498925Y597568D01*
X498952Y597559D01*
X499168Y597527D01*
X499383Y597490D01*
X499412Y597490D01*
X499440Y597486D01*
X499658Y597489D01*
G37*
G36*
X482169Y719507D02*
X482169Y719507D01*
X482274Y719506D01*
X482415Y719528D01*
X482557Y719541D01*
X482632Y719562D01*
X482761Y719583D01*
X483174Y719718D01*
X483212Y719730D01*
X486028Y720896D01*
X486035Y720897D01*
X486199Y720946D01*
X486365Y720987D01*
X486434Y721017D01*
X486508Y721039D01*
X486661Y721115D01*
X486818Y721182D01*
X486882Y721223D01*
X486951Y721256D01*
X487090Y721355D01*
X487234Y721447D01*
X487291Y721498D01*
X487353Y721542D01*
X487474Y721662D01*
X487602Y721776D01*
X487650Y721835D01*
X487704Y721889D01*
X487805Y722027D01*
X487912Y722160D01*
X487949Y722226D01*
X487994Y722287D01*
X488071Y722440D01*
X488156Y722588D01*
X488182Y722660D01*
X488217Y722728D01*
X488268Y722891D01*
X488327Y723051D01*
X488342Y723126D01*
X488365Y723198D01*
X488377Y723303D01*
X488422Y723535D01*
X488429Y723771D01*
X488441Y723876D01*
X488441Y725893D01*
X488438Y725931D01*
X488440Y725969D01*
X488418Y726177D01*
X488401Y726385D01*
X488392Y726422D01*
X488388Y726460D01*
X488333Y726661D01*
X488283Y726863D01*
X488268Y726898D01*
X488257Y726935D01*
X488170Y727125D01*
X488088Y727317D01*
X488068Y727349D01*
X488052Y727384D01*
X487935Y727557D01*
X487823Y727733D01*
X487798Y727761D01*
X487776Y727793D01*
X487633Y727945D01*
X487494Y728101D01*
X487465Y728125D01*
X487439Y728152D01*
X487272Y728280D01*
X487110Y728411D01*
X487078Y728429D01*
X487047Y728453D01*
X486863Y728552D01*
X486682Y728655D01*
X486646Y728668D01*
X486612Y728686D01*
X486415Y728754D01*
X486219Y728826D01*
X486182Y728834D01*
X486146Y728846D01*
X485939Y728881D01*
X485735Y728921D01*
X485697Y728922D01*
X485659Y728929D01*
X485450Y728930D01*
X485242Y728936D01*
X485204Y728931D01*
X485166Y728932D01*
X484959Y728899D01*
X484753Y728872D01*
X484716Y728861D01*
X484679Y728855D01*
X484480Y728790D01*
X484281Y728729D01*
X484246Y728713D01*
X484210Y728701D01*
X484025Y728604D01*
X483837Y728513D01*
X483806Y728491D01*
X483772Y728473D01*
X483700Y728415D01*
X483435Y728227D01*
X483313Y728106D01*
X483239Y728048D01*
X479891Y724700D01*
X479799Y724591D01*
X479699Y724489D01*
X479639Y724403D01*
X479572Y724324D01*
X479498Y724202D01*
X479417Y724085D01*
X479371Y723991D01*
X479317Y723901D01*
X479264Y723769D01*
X479202Y723640D01*
X479173Y723540D01*
X479134Y723443D01*
X479103Y723304D01*
X479063Y723167D01*
X479050Y723063D01*
X479027Y722961D01*
X479019Y722819D01*
X479002Y722678D01*
X479006Y722573D01*
X479000Y722469D01*
X479015Y722327D01*
X479020Y722185D01*
X479041Y722082D01*
X479052Y721978D01*
X479090Y721841D01*
X479118Y721701D01*
X479155Y721603D01*
X479183Y721502D01*
X479242Y721373D01*
X479292Y721240D01*
X479345Y721149D01*
X479388Y721054D01*
X479468Y720936D01*
X479539Y720812D01*
X479605Y720731D01*
X479664Y720645D01*
X479761Y720541D01*
X479852Y720431D01*
X479930Y720361D01*
X480002Y720285D01*
X480115Y720198D01*
X480221Y720104D01*
X480310Y720049D01*
X480393Y719985D01*
X480519Y719917D01*
X480639Y719842D01*
X480736Y719801D01*
X480828Y719752D01*
X480963Y719705D01*
X481094Y719650D01*
X481195Y719626D01*
X481294Y719592D01*
X481435Y719568D01*
X481573Y719534D01*
X481678Y719527D01*
X481781Y719509D01*
X481923Y719508D01*
X482065Y719498D01*
X482169Y719507D01*
G37*
D10*
X858012Y393700D03*
X830326Y393700D03*
X802894Y393700D03*
X775208Y393700D03*
X747522Y393700D03*
X720090Y393700D03*
X692404Y393700D03*
X664718Y393700D03*
X637286Y393700D03*
X609600Y393700D03*
X581914Y393700D03*
X554482Y393700D03*
X526796Y393700D03*
X844296Y368300D03*
X816610Y368300D03*
X788924Y368300D03*
X761492Y368300D03*
X733806Y368300D03*
X706120Y368300D03*
X678688Y368300D03*
X651002Y368300D03*
X623316Y368300D03*
X595884Y368300D03*
X568198Y368300D03*
X540512Y368300D03*
X499110Y393700D03*
X471424Y393700D03*
X443992Y393700D03*
X416306Y393700D03*
X513080Y368300D03*
X485394Y368300D03*
X457708Y368300D03*
X430022Y368300D03*
X388620Y393700D03*
X361188Y393700D03*
X402590Y368300D03*
X374904Y368300D03*
D11*
X292100Y381000D03*
X927100Y381000D03*
D12*
X495170Y784160D03*
X723770Y784160D03*
D13*
X488950Y552450D03*
X488950Y565150D03*
X501650Y552450D03*
X501650Y565150D03*
X514350Y552450D03*
X514350Y565150D03*
X527050Y552450D03*
X527050Y565150D03*
X539750Y552450D03*
X539750Y565150D03*
X552450Y552450D03*
X552450Y565150D03*
X565150Y552450D03*
X565150Y565150D03*
X577850Y552450D03*
X577850Y565150D03*
X590550Y552450D03*
X590550Y565150D03*
X603250Y552450D03*
X603250Y565150D03*
X615950Y552450D03*
X615950Y565150D03*
X628650Y552450D03*
X628650Y565150D03*
X641350Y552450D03*
X641350Y565150D03*
X654050Y552450D03*
X654050Y565150D03*
X666750Y552450D03*
X666750Y565150D03*
X679450Y552450D03*
X679450Y565150D03*
X692150Y552450D03*
X692150Y565150D03*
X704850Y552450D03*
X704850Y565150D03*
X717550Y552450D03*
X717550Y565150D03*
X730250Y552450D03*
X730250Y565150D03*
D14*
X389000Y617380D02*
X389000Y632620D01*
X414400Y632620D02*
X414400Y617380D01*
X439800Y617380D02*
X439800Y632620D01*
X465200Y632620D02*
X465200Y617380D01*
X490600Y617380D02*
X490600Y632620D01*
X516000Y632620D02*
X516000Y617380D01*
X541400Y617380D02*
X541400Y632620D01*
X566800Y632620D02*
X566800Y617380D01*
X616400Y616680D02*
X616400Y631920D01*
X641800Y631920D02*
X641800Y616680D01*
X667200Y616680D02*
X667200Y631920D01*
X692600Y631920D02*
X692600Y616680D01*
X718000Y616680D02*
X718000Y631920D01*
X743400Y631920D02*
X743400Y616680D01*
X768800Y616680D02*
X768800Y631920D01*
X794200Y631920D02*
X794200Y616680D01*
X387800Y670280D02*
X387800Y685520D01*
X413200Y685520D02*
X413200Y670280D01*
X438600Y670280D02*
X438600Y685520D01*
X464000Y685520D02*
X464000Y670280D01*
X489400Y670280D02*
X489400Y685520D01*
X514800Y685520D02*
X514800Y670280D01*
X540200Y670280D02*
X540200Y685520D01*
X565600Y685520D02*
X565600Y670280D01*
X616400Y670780D02*
X616400Y686020D01*
X641800Y686020D02*
X641800Y670780D01*
X667200Y670780D02*
X667200Y686020D01*
X692600Y686020D02*
X692600Y670780D01*
X718000Y670780D02*
X718000Y686020D01*
X743400Y686020D02*
X743400Y670780D01*
X768800Y670780D02*
X768800Y686020D01*
X794200Y686020D02*
X794200Y670780D01*
D15*
X413004Y624840D02*
X413004Y507492D01*
X388620Y483108D01*
X388620Y393700D01*
X413004Y624840D02*
X414400Y625000D01*
X438912Y624840D02*
X438912Y528828D01*
X391668Y481584D01*
X391668Y419100D01*
X416052Y394716D01*
X438912Y624840D02*
X439800Y625000D01*
X416052Y394716D02*
X416306Y393700D01*
X445008Y394716D02*
X445008Y603504D01*
X466344Y624840D01*
X445008Y394716D02*
X443992Y393700D01*
X466344Y624840D02*
X465200Y625000D01*
X489204Y624840D02*
X489204Y595884D01*
X452628Y559308D01*
X452628Y413004D01*
X470916Y394716D01*
X489204Y624840D02*
X490600Y625000D01*
X470916Y394716D02*
X471424Y393700D01*
X499872Y393192D02*
X512064Y393192D01*
X522732Y382524D01*
X530352Y382524D01*
X537972Y390144D01*
X537972Y466344D01*
X467868Y536448D01*
X467868Y556260D01*
X486156Y574548D01*
X516636Y574548D01*
X525780Y565404D01*
X499110Y393700D02*
X499872Y393192D01*
X527050Y565150D02*
X525780Y565404D01*
X556260Y714756D02*
X527304Y743712D01*
X556260Y643128D02*
X556260Y640080D01*
X542544Y626364D01*
X541400Y625000D01*
X541020Y624840D02*
X533400Y617220D01*
X533400Y615696D01*
X501396Y583692D01*
X481584Y583692D01*
X455676Y557784D01*
X455676Y464820D01*
X526796Y393700D01*
X541020Y624840D02*
X541400Y625000D01*
D16*
X527304Y743712D03*
X556260Y714756D03*
X556260Y643128D03*
D15*
X541020Y600456D02*
X541020Y577596D01*
X541020Y565404D01*
X541020Y600456D02*
X565404Y624840D01*
X541020Y565404D02*
X539750Y565150D01*
X565404Y624840D02*
X566800Y625000D01*
X464820Y557784D02*
X464820Y487680D01*
X464820Y557784D02*
X484632Y577596D01*
X541020Y577596D01*
D16*
X464820Y487680D03*
D15*
X553212Y565404D02*
X565404Y577596D01*
X569976Y577596D01*
X615696Y623316D01*
X553212Y565404D02*
X552450Y565150D01*
X615696Y623316D02*
X616400Y624300D01*
X574548Y789432D02*
X551688Y789432D01*
X574548Y789432D02*
X626364Y737616D01*
X626364Y633984D01*
X617220Y624840D01*
X616400Y624300D01*
X580644Y393192D02*
X580644Y365760D01*
X569976Y355092D01*
X400812Y355092D01*
X388620Y367284D01*
X388620Y374904D01*
X374904Y388620D01*
X374904Y633984D01*
X394716Y653796D01*
X461772Y653796D01*
X478536Y670560D01*
X478536Y688848D01*
X498348Y708660D01*
X498348Y736092D01*
X551688Y789432D01*
X581914Y393700D02*
X580644Y393192D01*
D16*
X551688Y789432D03*
D15*
X673608Y507492D02*
X673608Y486156D01*
X609600Y422148D01*
X609600Y393700D01*
D16*
X673608Y507492D03*
D15*
X565404Y583692D02*
X605028Y623316D01*
X605028Y635508D01*
X614172Y644652D01*
X557784Y758952D02*
X557784Y783336D01*
X557784Y758952D02*
X571500Y745236D01*
X571500Y742188D01*
X563880Y734568D01*
X544068Y734568D01*
X637032Y393192D02*
X637032Y367284D01*
X621792Y352044D01*
X399288Y352044D01*
X385572Y365760D01*
X385572Y373380D01*
X371856Y387096D01*
X371856Y640080D01*
X402336Y670560D01*
X402336Y688848D01*
X409956Y696468D01*
X481584Y696468D01*
X495300Y710184D01*
X495300Y742188D01*
X531876Y778764D01*
X637286Y393700D02*
X637032Y393192D01*
D16*
X565404Y583692D03*
X614172Y644652D03*
X557784Y783336D03*
X544068Y734568D03*
X531876Y778764D03*
D15*
X534924Y743712D02*
X565404Y743712D01*
X534924Y743712D02*
X528828Y749808D01*
X525780Y749808D01*
X504444Y728472D01*
X487680Y711708D02*
X487680Y707136D01*
X480060Y699516D01*
X387096Y699516D01*
X350520Y662940D01*
X350520Y377952D01*
X376428Y352044D01*
X394716Y352044D01*
X397764Y348996D01*
X623316Y348996D01*
X640080Y365760D01*
X640080Y374904D01*
X646176Y381000D01*
X693420Y624840D02*
X696468Y624840D01*
X714756Y643128D01*
X751332Y643128D01*
X752856Y641604D01*
X760476Y641604D01*
X684276Y480060D02*
X684276Y477012D01*
X665988Y458724D01*
X665988Y394716D01*
X692600Y624300D02*
X693420Y624840D01*
X665988Y394716D02*
X664718Y393700D01*
D16*
X565404Y743712D03*
X504444Y728472D03*
X487680Y711708D03*
X646176Y381000D03*
X760476Y641604D03*
X684276Y480060D03*
D15*
X592836Y579120D02*
X579120Y565404D01*
X592836Y579120D02*
X600456Y579120D01*
X627888Y606552D01*
X701040Y606552D01*
X717804Y623316D01*
X579120Y565404D02*
X577850Y565150D01*
X717804Y623316D02*
X718000Y624300D01*
X579120Y675132D02*
X579120Y699516D01*
X713232Y382524D02*
X751332Y382524D01*
X757428Y388620D01*
X757428Y547116D01*
X757428Y573024D02*
X739140Y591312D01*
D16*
X579120Y699516D03*
X579120Y675132D03*
X713232Y382524D03*
X757428Y547116D03*
X757428Y573024D03*
X739140Y591312D03*
D15*
X720852Y510540D02*
X720852Y394716D01*
X720090Y393700D01*
D16*
X720852Y510540D03*
D15*
X629412Y603504D02*
X591312Y565404D01*
X629412Y603504D02*
X748284Y603504D01*
X768096Y623316D01*
X591312Y565404D02*
X590550Y565150D01*
X768096Y623316D02*
X768800Y624300D01*
X748284Y545592D02*
X748284Y394716D01*
X748284Y545592D02*
X787908Y585216D01*
X748284Y394716D02*
X747522Y393700D01*
D16*
X787908Y585216D03*
D15*
X775716Y565404D02*
X775716Y394716D01*
X775716Y565404D02*
X794004Y583692D01*
X794004Y623316D01*
X775716Y394716D02*
X775208Y393700D01*
X794004Y623316D02*
X794200Y624300D01*
X801624Y638556D02*
X801624Y643128D01*
X801624Y638556D02*
X804672Y635508D01*
X804672Y396240D01*
X803148Y394716D01*
X802894Y393700D01*
X487680Y536448D02*
X483108Y536448D01*
X487680Y536448D02*
X493776Y530352D01*
X609600Y530352D01*
D16*
X801624Y643128D03*
X483108Y536448D03*
X609600Y530352D03*
D15*
X598932Y585216D02*
X620268Y606552D01*
X621792Y606552D01*
X629412Y614172D01*
X629412Y755904D01*
X605028Y780288D01*
X605028Y818388D01*
X609600Y822960D01*
X515112Y774192D02*
X461772Y774192D01*
X515112Y774192D02*
X569976Y829056D01*
X594360Y829056D01*
X605028Y818388D01*
X830580Y393192D02*
X844296Y393192D01*
X854964Y382524D01*
X861060Y382524D01*
X868680Y390144D01*
X868680Y653796D01*
X691896Y830580D01*
X617220Y830580D01*
X609600Y822960D01*
X830326Y393700D02*
X830580Y393192D01*
D16*
X598932Y585216D03*
X609600Y822960D03*
X461772Y774192D03*
D15*
X696468Y780288D02*
X713232Y780288D01*
X787908Y705612D01*
X803148Y705612D01*
X858012Y650748D01*
X858012Y393700D01*
X437388Y676656D02*
X434340Y676656D01*
X417576Y659892D01*
X399288Y659892D01*
X473964Y537972D02*
X477012Y537972D01*
X483108Y544068D01*
X608076Y544068D01*
X615696Y551688D01*
X438600Y677900D02*
X437388Y676656D01*
X615950Y552450D02*
X615696Y551688D01*
D16*
X696468Y780288D03*
X399288Y659892D03*
X473964Y537972D03*
D15*
X583692Y609600D02*
X583692Y633984D01*
X565404Y652272D01*
X493776Y652272D01*
X486156Y644652D01*
X451104Y644652D01*
X568452Y822960D02*
X583692Y822960D01*
X568452Y822960D02*
X464820Y719328D01*
X397764Y483108D02*
X397764Y432816D01*
X397764Y483108D02*
X441960Y527304D01*
X441960Y605028D01*
X451104Y614172D01*
X451104Y644652D01*
D16*
X583692Y609600D03*
X451104Y644652D03*
X583692Y822960D03*
X464820Y719328D03*
X397764Y432816D03*
D15*
X568452Y719328D02*
X597408Y719328D01*
X568452Y719328D02*
X545592Y696468D01*
X509016Y696468D01*
X490728Y678180D01*
X489400Y677900D01*
X628650Y552450D02*
X612648Y536448D01*
X495300Y536448D01*
X480060Y707136D02*
X390144Y707136D01*
X347472Y664464D01*
X347472Y376428D01*
X377952Y345948D01*
X390144Y345948D01*
D16*
X597408Y719328D03*
X495300Y536448D03*
X480060Y707136D03*
X390144Y345948D03*
D15*
X589788Y615696D02*
X589788Y632460D01*
X566928Y655320D02*
X562356Y659892D01*
X566928Y655320D02*
X589788Y632460D01*
X562356Y659892D02*
X531876Y659892D01*
X515112Y676656D01*
X514800Y677900D01*
X573024Y751332D02*
X573024Y783336D01*
X573024Y751332D02*
X603504Y720852D01*
X603504Y691896D01*
X566928Y655320D01*
X429768Y368808D02*
X417576Y368808D01*
X403860Y382524D01*
X385572Y382524D01*
X377952Y390144D01*
X377952Y591312D01*
X403860Y617220D01*
X403860Y637032D01*
X417576Y650748D01*
X487680Y650748D01*
X513588Y676656D01*
X429768Y368808D02*
X430022Y368300D01*
X513588Y676656D02*
X514800Y677900D01*
D16*
X589788Y615696D03*
X573024Y783336D03*
D15*
X573024Y710184D02*
X597408Y710184D01*
X573024Y710184D02*
X541020Y678180D01*
X540200Y677900D01*
X640080Y551688D02*
X640080Y498348D01*
X541020Y399288D01*
X541020Y388620D01*
X531876Y379476D01*
X509016Y379476D01*
X495300Y365760D01*
X495300Y362712D01*
X490728Y358140D01*
X467868Y358140D01*
X457708Y368300D01*
X640080Y551688D02*
X641350Y552450D01*
X533400Y608076D02*
X530352Y608076D01*
X502920Y580644D01*
X483108Y580644D01*
X458724Y556260D01*
X458724Y486156D01*
X531876Y413004D01*
D16*
X597408Y710184D03*
X533400Y608076D03*
X531876Y413004D03*
D15*
X611124Y783336D02*
X652272Y824484D01*
X611124Y783336D02*
X611124Y781812D01*
X484632Y368808D02*
X481584Y368808D01*
X454152Y396240D01*
X454152Y406908D01*
X449580Y411480D01*
X449580Y563880D01*
X475488Y589788D01*
X493776Y589788D02*
X502920Y589788D01*
X530352Y617220D01*
X530352Y637032D01*
X542544Y649224D01*
X560832Y649224D01*
X563880Y646176D01*
X484632Y368808D02*
X485394Y368300D01*
D16*
X652272Y824484D03*
X611124Y781812D03*
X475488Y589788D03*
X493776Y589788D03*
X563880Y646176D03*
D15*
X605028Y655320D02*
X605028Y667512D01*
X615696Y678180D01*
X616400Y678400D01*
X659892Y722376D02*
X659892Y822960D01*
X527304Y367284D02*
X513588Y367284D01*
X527304Y367284D02*
X536448Y358140D01*
X545592Y358140D01*
X557784Y370332D01*
X557784Y382524D01*
X571500Y396240D01*
X571500Y420624D01*
X673608Y522732D01*
X731520Y541020D02*
X739140Y548640D01*
X739140Y569976D01*
X728472Y580644D01*
X513080Y368300D02*
X513588Y367284D01*
D16*
X605028Y655320D03*
X659892Y822960D03*
X659892Y722376D03*
X673608Y522732D03*
X731520Y541020D03*
X728472Y580644D03*
D15*
X665988Y551688D02*
X665988Y519684D01*
X544068Y397764D01*
X544068Y371856D01*
X540512Y368300D01*
X665988Y551688D02*
X666750Y552450D01*
X643128Y673608D02*
X643128Y678180D01*
X643128Y673608D02*
X678180Y638556D01*
X684276Y638556D01*
X705612Y659892D01*
X746760Y659892D01*
X757428Y670560D01*
X757428Y688848D01*
X765048Y696468D01*
X798576Y696468D01*
X819912Y675132D01*
X819912Y568452D01*
X643128Y678180D02*
X641800Y678400D01*
D16*
X819912Y568452D03*
D15*
X679704Y565404D02*
X679704Y597408D01*
X679704Y644652D02*
X679704Y665988D01*
X667512Y678180D01*
X679704Y565404D02*
X679450Y565150D01*
X667512Y678180D02*
X667200Y678400D01*
X678180Y690372D02*
X678180Y824484D01*
X678180Y690372D02*
X667512Y679704D01*
X667200Y678400D01*
D16*
X679704Y597408D03*
X679704Y644652D03*
X678180Y824484D03*
D15*
X679704Y551688D02*
X679704Y487680D01*
X620268Y428244D01*
X620268Y390144D01*
X598932Y368808D01*
X595884Y368808D01*
X679704Y551688D02*
X679450Y552450D01*
X595884Y368808D02*
X595884Y368300D01*
X693420Y679704D02*
X696468Y679704D01*
X719328Y702564D01*
X801624Y702564D01*
X832104Y672084D01*
X832104Y409956D01*
X692600Y678400D02*
X693420Y679704D01*
D16*
X832104Y409956D03*
D15*
X673608Y515112D02*
X592836Y434340D01*
X592836Y379476D01*
X585216Y371856D01*
X585216Y364236D01*
X591312Y358140D01*
X614172Y358140D01*
X623316Y367284D01*
X623316Y368300D01*
X801624Y650748D02*
X801624Y656844D01*
X801624Y650748D02*
X813816Y638556D01*
X813816Y390144D01*
X803148Y379476D01*
X729996Y379476D01*
X716280Y365760D01*
X716280Y364236D01*
X710184Y358140D01*
X669036Y358140D01*
D16*
X673608Y515112D03*
X801624Y656844D03*
X669036Y358140D03*
D15*
X691896Y495300D02*
X691896Y551688D01*
X691896Y495300D02*
X652272Y455676D01*
X652272Y368808D01*
X691896Y551688D02*
X692150Y552450D01*
X652272Y368808D02*
X651002Y368300D01*
X743712Y679704D02*
X763524Y699516D01*
X800100Y699516D01*
X826008Y673608D01*
X826008Y403860D01*
X816864Y394716D01*
X816864Y384048D01*
X800100Y367284D01*
X800100Y364236D01*
X787908Y352044D01*
X667512Y352044D01*
X652272Y367284D01*
X743400Y678400D02*
X743712Y679704D01*
X651002Y368300D02*
X652272Y367284D01*
X705612Y565404D02*
X737616Y597408D01*
X748284Y597408D01*
X754380Y647700D02*
X754380Y662940D01*
X769620Y678180D01*
X705612Y565404D02*
X704850Y565150D01*
X768800Y678400D02*
X769620Y678180D01*
X679704Y467868D02*
X679704Y368808D01*
X679704Y467868D02*
X699516Y487680D01*
X699516Y492252D01*
X679704Y368808D02*
X678688Y368300D01*
D16*
X748284Y597408D03*
X754380Y647700D03*
X699516Y492252D03*
D17*
X706120Y551180D02*
X704850Y552450D01*
X706120Y534924D02*
X706120Y368300D01*
X706120Y534924D02*
X706120Y551180D01*
D15*
X794004Y646176D02*
X794004Y678180D01*
X794004Y646176D02*
X778764Y630936D01*
X778764Y580644D01*
X733044Y534924D01*
X706120Y534924D01*
X794004Y678180D02*
X794200Y678400D01*
X706120Y534924D02*
X705612Y534924D01*
M02*
