M48
;GenerationSoftware,Autodesk,EAGLE,9.4.1*%
;CreationDate,2019-05-29T15:43:23Z*%
FMAT,2
ICI,OFF
METRIC,TZ,000.000
T6C0.300
T5C0.710
T4C1.000
T3C1.016
T2C2.800
T1C3.302
%
G90
M71
T1
X92710Y38100
X29210Y38100
T2
X26374Y84155
X95650Y84159
T3
X66472Y39370
X63729Y39370
X60960Y39370
X58191Y39370
X55448Y39370
X52680Y39370
X84430Y36830
X81661Y36830
X78892Y36830
X76149Y36830
X73381Y36830
X70612Y36830
X67869Y36830
X76880Y67840
X74340Y67840
X71800Y67840
X69260Y67840
X66720Y67840
X64180Y67840
X79420Y67840
X61640Y67840
X56560Y67790
X54020Y67790
X51480Y67790
X48940Y67790
X46400Y67790
X43860Y67790
X41320Y67790
X38780Y67790
X79420Y62430
X76880Y62430
X74340Y62430
X71800Y62430
X69260Y62430
X66720Y62430
X64180Y62430
X56680Y62500
X54140Y62500
X51600Y62500
X49060Y62500
X46520Y62500
X43980Y62500
X41440Y62500
X38900Y62500
X61640Y62430
X77521Y39370
X74752Y39370
X37490Y36830
X40259Y36830
X36119Y39370
X38862Y39370
X43002Y36830
X45771Y36830
X48539Y36830
X51308Y36830
X41631Y39370
X44399Y39370
X47142Y39370
X49911Y39370
X54051Y36830
X56820Y36830
X59588Y36830
X62332Y36830
X65100Y36830
X72009Y39370
X69240Y39370
X85801Y39370
X83033Y39370
X80289Y39370
T4
X72377Y78416
X49517Y78416
T5
X62865Y56515
X64135Y55245
X65405Y55245
X65405Y56515
X66675Y55245
X66675Y56515
X67945Y55245
X67945Y56515
X69215Y55245
X69215Y56515
X70485Y55245
X70485Y56515
X71755Y55245
X71755Y56515
X73025Y55245
X73025Y56515
X64135Y56515
X50165Y55245
X48895Y55245
X48895Y56515
X50165Y56515
X51435Y55245
X51435Y56515
X52705Y55245
X52705Y56515
X53975Y55245
X53975Y56515
X55245Y55245
X55245Y56515
X56515Y55245
X56515Y56515
X57785Y55245
X57785Y56515
X59055Y55245
X59055Y56515
X60325Y55245
X60325Y56515
X61595Y55245
X61595Y56515
X62865Y55245
T6
X52730Y74371
X55626Y71476
X55626Y64313
X46482Y48768
X55169Y78943
X67361Y50749
X56540Y58369
X61417Y64465
X55778Y78334
X54407Y73457
X53188Y77876
X56540Y74371
X50444Y72847
X48768Y71171
X64618Y38100
X76048Y64160
X68428Y48006
X47549Y58979
X61112Y78181
X75438Y64770
X74828Y59741
X69952Y49225
X66904Y35814
X65227Y82448
X80162Y65684
X67361Y51511
X83210Y40996
X67818Y82448
X67970Y64465
X67970Y59741
X81991Y56845
X72847Y58064
X73152Y54102
X67361Y52273
X65989Y72238
X65989Y82296
X60503Y65532
X56388Y64618
X53188Y41300
X53340Y60808
X59741Y71018
X57302Y78334
X58979Y61570
X39014Y34595
X48006Y70714
X49530Y53645
X72085Y51054
X59741Y71933
X39776Y43282
X46482Y71933
X58369Y82296
X45110Y64465
X58369Y60960
X47396Y53797
X39929Y65989
X69647Y78029
X46177Y77419
X60960Y82296
X59893Y58522
X60960Y53035
X48311Y53645
X80162Y64313
X78791Y58522
X73914Y59131
X75743Y57302
X75743Y54712
X71323Y38252
X57912Y67513
X57912Y69952
X49378Y58979
M30