G04 EAGLE Gerber RS-274X export*
G75*
%MOMM*%
%FSLAX34Y34*%
%LPD*%
%INSilkscreen Top*%
%IPPOS*%
%AMOC8*
5,1,8,0,0,1.08239X$1,22.5*%
G01*
%ADD10C,0.101600*%
%ADD11C,0.812800*%
%ADD12C,0.100000*%
%ADD13R,0.508000X0.508000*%


D10*
X262641Y816973D02*
X262641Y803754D01*
X256031Y803754D01*
X253828Y805957D01*
X253828Y810364D01*
X256031Y812567D01*
X262641Y812567D01*
X266925Y810364D02*
X275738Y810364D01*
X280023Y803754D02*
X286632Y803754D01*
X288835Y805957D01*
X286632Y808160D01*
X282226Y808160D01*
X280023Y810364D01*
X282226Y812567D01*
X288835Y812567D01*
X293120Y812567D02*
X293120Y805957D01*
X295323Y803754D01*
X301933Y803754D01*
X301933Y812567D01*
X306217Y816973D02*
X306217Y803754D01*
X312827Y803754D01*
X315030Y805957D01*
X315030Y810364D01*
X312827Y812567D01*
X306217Y812567D01*
X334615Y814770D02*
X334615Y805957D01*
X336818Y803754D01*
X336818Y812567D02*
X332412Y812567D01*
X343346Y803754D02*
X347753Y803754D01*
X349956Y805957D01*
X349956Y810364D01*
X347753Y812567D01*
X343346Y812567D01*
X341143Y810364D01*
X341143Y805957D01*
X343346Y803754D01*
X367338Y803754D02*
X373947Y803754D01*
X376150Y805957D01*
X373947Y808160D01*
X369541Y808160D01*
X367338Y810364D01*
X369541Y812567D01*
X376150Y812567D01*
X382638Y812567D02*
X387044Y812567D01*
X389248Y810364D01*
X389248Y803754D01*
X382638Y803754D01*
X380435Y805957D01*
X382638Y808160D01*
X389248Y808160D01*
X393532Y803754D02*
X393532Y812567D01*
X395735Y812567D01*
X397938Y810364D01*
X397938Y803754D01*
X397938Y810364D02*
X400142Y812567D01*
X402345Y810364D01*
X402345Y803754D01*
X408832Y805957D02*
X408832Y814770D01*
X408832Y805957D02*
X411036Y803754D01*
X411036Y812567D02*
X406629Y812567D01*
X417564Y803754D02*
X421970Y803754D01*
X417564Y803754D02*
X415361Y805957D01*
X415361Y810364D01*
X417564Y812567D01*
X421970Y812567D01*
X424174Y810364D01*
X424174Y808160D01*
X415361Y808160D01*
X430661Y812567D02*
X437271Y812567D01*
X430661Y812567D02*
X428458Y810364D01*
X428458Y805957D01*
X430661Y803754D01*
X437271Y803754D01*
X256031Y793434D02*
X256031Y782418D01*
X256031Y793434D02*
X258234Y795637D01*
X258234Y789028D02*
X253828Y789028D01*
X264763Y782418D02*
X269169Y782418D01*
X271372Y784621D01*
X271372Y789028D01*
X269169Y791231D01*
X264763Y791231D01*
X262560Y789028D01*
X262560Y784621D01*
X264763Y782418D01*
X275657Y782418D02*
X275657Y791231D01*
X280063Y791231D02*
X275657Y786824D01*
X280063Y791231D02*
X282266Y791231D01*
X301872Y791231D02*
X306278Y791231D01*
X308481Y789028D01*
X308481Y782418D01*
X301872Y782418D01*
X299668Y784621D01*
X301872Y786824D01*
X308481Y786824D01*
X314969Y791231D02*
X321578Y791231D01*
X314969Y791231D02*
X312766Y789028D01*
X312766Y784621D01*
X314969Y782418D01*
X321578Y782418D01*
X328066Y784621D02*
X328066Y793434D01*
X328066Y784621D02*
X330269Y782418D01*
X330269Y791231D02*
X325863Y791231D01*
X334594Y791231D02*
X336798Y791231D01*
X336798Y782418D01*
X339001Y782418D02*
X334594Y782418D01*
X336798Y795637D02*
X336798Y797841D01*
X349936Y795637D02*
X352139Y793434D01*
X349936Y795637D02*
X345529Y795637D01*
X343326Y793434D01*
X343326Y784621D01*
X345529Y782418D01*
X349936Y782418D01*
X352139Y784621D01*
X356423Y782418D02*
X356423Y795637D01*
X356423Y789028D02*
X365236Y789028D01*
X365236Y795637D02*
X365236Y782418D01*
X371724Y791231D02*
X376130Y791231D01*
X378333Y789028D01*
X378333Y782418D01*
X371724Y782418D01*
X369520Y784621D01*
X371724Y786824D01*
X378333Y786824D01*
X382618Y782418D02*
X382618Y791231D01*
X384821Y791231D01*
X387024Y789028D01*
X387024Y782418D01*
X387024Y789028D02*
X389227Y791231D01*
X391430Y789028D01*
X391430Y782418D01*
X395715Y778012D02*
X395715Y791231D01*
X402325Y791231D01*
X404528Y789028D01*
X404528Y784621D01*
X402325Y782418D01*
X395715Y782418D01*
D11*
X499110Y392430D02*
X499110Y382270D01*
X526796Y382270D02*
X526796Y392430D01*
X720090Y392430D02*
X720090Y382270D01*
X540512Y367030D02*
X540512Y356870D01*
X513080Y356870D02*
X513080Y367030D01*
X485394Y367030D02*
X485394Y356870D01*
X471424Y382270D02*
X471424Y392430D01*
X457708Y367030D02*
X457708Y356870D01*
X443992Y382270D02*
X443992Y392430D01*
X430022Y367284D02*
X430022Y357124D01*
X416306Y382524D02*
X416306Y392684D01*
X733806Y367030D02*
X733806Y356870D01*
X747522Y382270D02*
X747522Y392430D01*
X761492Y367030D02*
X761492Y356870D01*
X775208Y382270D02*
X775208Y392430D01*
X788924Y367030D02*
X788924Y356870D01*
X802894Y382270D02*
X802894Y392430D01*
X830326Y392430D02*
X830326Y382270D01*
X816610Y367030D02*
X816610Y356870D01*
X858012Y382270D02*
X858012Y392430D01*
X844296Y367030D02*
X844296Y356870D01*
X388620Y382270D02*
X388620Y392430D01*
X402590Y367284D02*
X402590Y357124D01*
X374904Y357124D02*
X374904Y367284D01*
X361188Y382270D02*
X361188Y392430D01*
X554482Y392430D02*
X554482Y382270D01*
X568198Y367030D02*
X568198Y356870D01*
X581914Y382270D02*
X581914Y392430D01*
X609600Y392430D02*
X609600Y382270D01*
X595884Y367030D02*
X595884Y356870D01*
X623316Y356870D02*
X623316Y367030D01*
X651002Y367030D02*
X651002Y356870D01*
X637286Y382270D02*
X637286Y392430D01*
X664718Y392430D02*
X664718Y382270D01*
X692404Y382270D02*
X692404Y392430D01*
X678688Y367030D02*
X678688Y356870D01*
X706120Y356870D02*
X706120Y367030D01*
D12*
X490980Y550420D02*
X490980Y554480D01*
X486920Y563120D02*
X486920Y567180D01*
X486920Y554480D02*
X486920Y550420D01*
X490980Y563120D02*
X490980Y567180D01*
X486920Y567180D01*
X486920Y554480D02*
X490980Y554480D01*
X490980Y550420D02*
X486920Y550420D01*
X486920Y563120D02*
X490980Y563120D01*
X495300Y541660D02*
X482600Y541660D01*
X495300Y541660D01*
X490980Y563120D02*
X486920Y563120D01*
X486920Y550420D02*
X490980Y550420D01*
X490980Y554480D02*
X486920Y554480D01*
X486920Y567180D02*
X490980Y567180D01*
X490980Y563120D01*
X486920Y554480D02*
X486920Y550420D01*
X486920Y563120D02*
X486920Y567180D01*
X490980Y554480D02*
X490980Y550420D01*
X482600Y541660D02*
X482600Y575940D01*
X503680Y554480D02*
X503680Y550420D01*
X499620Y563120D02*
X499620Y567180D01*
X499620Y554480D02*
X499620Y550420D01*
X503680Y563120D02*
X503680Y567180D01*
X499620Y567180D01*
X499620Y554480D02*
X503680Y554480D01*
X503680Y550420D02*
X499620Y550420D01*
X499620Y563120D02*
X503680Y563120D01*
X508000Y541660D02*
X495300Y541660D01*
X499620Y567180D02*
X503680Y567180D01*
X508000Y541660D02*
X495300Y541660D01*
X499620Y563120D02*
X503680Y563120D01*
X503680Y550420D02*
X499620Y550420D01*
X499620Y554480D02*
X503680Y554480D01*
X503680Y563120D02*
X503680Y567180D01*
X499620Y554480D02*
X499620Y550420D01*
X499620Y563120D02*
X499620Y567180D01*
X503680Y554480D02*
X503680Y550420D01*
X512320Y563120D02*
X512320Y567180D01*
X512320Y554480D02*
X512320Y550420D01*
X512320Y567180D02*
X516380Y567180D01*
X516380Y554480D02*
X512320Y554480D01*
X512320Y550420D02*
X516380Y550420D01*
X516380Y563120D02*
X512320Y563120D01*
X508000Y541660D02*
X520700Y541660D01*
X516380Y567180D02*
X512320Y567180D01*
X508000Y541660D02*
X520700Y541660D01*
X516380Y563120D02*
X512320Y563120D01*
X512320Y550420D02*
X516380Y550420D01*
X516380Y554480D02*
X512320Y554480D01*
X512320Y550420D01*
X512320Y563120D02*
X512320Y567180D01*
X495300Y575940D02*
X482600Y575940D01*
X495300Y575940D01*
X508000Y575940D01*
X495300Y575940D01*
X508000Y575940D02*
X520700Y575940D01*
X508000Y575940D01*
X516380Y554480D02*
X516380Y550420D01*
X516380Y563120D02*
X516380Y567180D01*
X516380Y563120D01*
X516380Y554480D02*
X516380Y550420D01*
X529080Y550420D02*
X529080Y554480D01*
X525020Y563120D02*
X525020Y567180D01*
X525020Y554480D02*
X525020Y550420D01*
X529080Y563120D02*
X529080Y567180D01*
X525020Y567180D01*
X525020Y554480D02*
X529080Y554480D01*
X529080Y550420D02*
X525020Y550420D01*
X525020Y563120D02*
X529080Y563120D01*
X533400Y541660D02*
X520700Y541660D01*
X525020Y567180D02*
X529080Y567180D01*
X533400Y541660D02*
X520700Y541660D01*
X525020Y563120D02*
X529080Y563120D01*
X529080Y550420D02*
X525020Y550420D01*
X525020Y554480D02*
X529080Y554480D01*
X529080Y563120D02*
X529080Y567180D01*
X525020Y554480D02*
X525020Y550420D01*
X525020Y563120D02*
X525020Y567180D01*
X529080Y554480D02*
X529080Y550420D01*
X541780Y550420D02*
X541780Y554480D01*
X537720Y563120D02*
X537720Y567180D01*
X537720Y554480D02*
X537720Y550420D01*
X541780Y563120D02*
X541780Y567180D01*
X537720Y567180D01*
X537720Y554480D02*
X541780Y554480D01*
X541780Y550420D02*
X537720Y550420D01*
X537720Y563120D02*
X541780Y563120D01*
X546100Y541660D02*
X533400Y541660D01*
X537720Y567180D02*
X541780Y567180D01*
X546100Y541660D02*
X533400Y541660D01*
X537720Y563120D02*
X541780Y563120D01*
X541780Y550420D02*
X537720Y550420D01*
X537720Y554480D02*
X541780Y554480D01*
X541780Y563120D02*
X541780Y567180D01*
X537720Y554480D02*
X537720Y550420D01*
X537720Y563120D02*
X537720Y567180D01*
X541780Y554480D02*
X541780Y550420D01*
X546100Y541660D02*
X558800Y541660D01*
X546100Y541660D01*
X533400Y575940D02*
X520700Y575940D01*
X533400Y575940D01*
X546100Y575940D01*
X533400Y575940D01*
X546100Y575940D02*
X558800Y575940D01*
X546100Y575940D01*
X554480Y554480D02*
X554480Y550420D01*
X550420Y563120D02*
X550420Y567180D01*
X550420Y554480D02*
X550420Y550420D01*
X554480Y563120D02*
X554480Y567180D01*
X550420Y567180D01*
X550420Y554480D02*
X554480Y554480D01*
X554480Y550420D02*
X550420Y550420D01*
X550420Y563120D02*
X554480Y563120D01*
X554480Y567180D02*
X550420Y567180D01*
X550420Y563120D02*
X554480Y563120D01*
X554480Y550420D02*
X550420Y550420D01*
X550420Y554480D02*
X554480Y554480D01*
X554480Y563120D02*
X554480Y567180D01*
X550420Y554480D02*
X550420Y550420D01*
X550420Y563120D02*
X550420Y567180D01*
X554480Y554480D02*
X554480Y550420D01*
X567180Y550420D02*
X567180Y554480D01*
X563120Y563120D02*
X563120Y567180D01*
X563120Y554480D02*
X563120Y550420D01*
X567180Y563120D02*
X567180Y567180D01*
X563120Y567180D01*
X563120Y554480D02*
X567180Y554480D01*
X567180Y550420D02*
X563120Y550420D01*
X563120Y563120D02*
X567180Y563120D01*
X571500Y541660D02*
X558800Y541660D01*
X563120Y567180D02*
X567180Y567180D01*
X571500Y541660D02*
X558800Y541660D01*
X563120Y563120D02*
X567180Y563120D01*
X567180Y550420D02*
X563120Y550420D01*
X563120Y554480D02*
X567180Y554480D01*
X567180Y563120D02*
X567180Y567180D01*
X563120Y554480D02*
X563120Y550420D01*
X563120Y563120D02*
X563120Y567180D01*
X567180Y554480D02*
X567180Y550420D01*
X575820Y563120D02*
X575820Y567180D01*
X575820Y554480D02*
X575820Y550420D01*
X575820Y567180D02*
X579880Y567180D01*
X579880Y554480D02*
X575820Y554480D01*
X575820Y550420D02*
X579880Y550420D01*
X579880Y563120D02*
X575820Y563120D01*
X571500Y541660D02*
X584200Y541660D01*
X579880Y567180D02*
X575820Y567180D01*
X571500Y541660D02*
X584200Y541660D01*
X579880Y563120D02*
X575820Y563120D01*
X575820Y550420D02*
X579880Y550420D01*
X579880Y554480D02*
X575820Y554480D01*
X575820Y550420D01*
X575820Y563120D02*
X575820Y567180D01*
X571500Y575940D02*
X558800Y575940D01*
X571500Y575940D01*
X584200Y575940D01*
X571500Y575940D01*
X579880Y554480D02*
X579880Y550420D01*
X579880Y563120D02*
X579880Y567180D01*
X579880Y563120D01*
X579880Y554480D02*
X579880Y550420D01*
X592580Y550420D02*
X592580Y554480D01*
X588520Y563120D02*
X588520Y567180D01*
X588520Y554480D02*
X588520Y550420D01*
X592580Y563120D02*
X592580Y567180D01*
X588520Y567180D01*
X588520Y554480D02*
X592580Y554480D01*
X592580Y550420D02*
X588520Y550420D01*
X588520Y563120D02*
X592580Y563120D01*
X596900Y541660D02*
X584200Y541660D01*
X588520Y567180D02*
X592580Y567180D01*
X596900Y541660D02*
X584200Y541660D01*
X588520Y563120D02*
X592580Y563120D01*
X592580Y550420D02*
X588520Y550420D01*
X588520Y554480D02*
X592580Y554480D01*
X592580Y563120D02*
X592580Y567180D01*
X588520Y554480D02*
X588520Y550420D01*
X588520Y563120D02*
X588520Y567180D01*
X592580Y554480D02*
X592580Y550420D01*
X605280Y550420D02*
X605280Y554480D01*
X601220Y563120D02*
X601220Y567180D01*
X601220Y554480D02*
X601220Y550420D01*
X605280Y563120D02*
X605280Y567180D01*
X601220Y567180D01*
X601220Y554480D02*
X605280Y554480D01*
X605280Y550420D02*
X601220Y550420D01*
X601220Y563120D02*
X605280Y563120D01*
X609600Y541660D02*
X596900Y541660D01*
X601220Y567180D02*
X605280Y567180D01*
X609600Y541660D02*
X596900Y541660D01*
X601220Y563120D02*
X605280Y563120D01*
X605280Y550420D02*
X601220Y550420D01*
X601220Y554480D02*
X605280Y554480D01*
X605280Y563120D02*
X605280Y567180D01*
X601220Y554480D02*
X601220Y550420D01*
X601220Y563120D02*
X601220Y567180D01*
X605280Y554480D02*
X605280Y550420D01*
X609600Y541660D02*
X622300Y541660D01*
X609600Y541660D01*
X596900Y575940D02*
X584200Y575940D01*
X596900Y575940D01*
X609600Y575940D01*
X596900Y575940D01*
X609600Y575940D02*
X622300Y575940D01*
X609600Y575940D01*
X617980Y554480D02*
X617980Y550420D01*
X613920Y563120D02*
X613920Y567180D01*
X613920Y554480D02*
X613920Y550420D01*
X617980Y563120D02*
X617980Y567180D01*
X613920Y567180D01*
X613920Y554480D02*
X617980Y554480D01*
X617980Y550420D02*
X613920Y550420D01*
X613920Y563120D02*
X617980Y563120D01*
X617980Y567180D02*
X613920Y567180D01*
X613920Y563120D02*
X617980Y563120D01*
X617980Y550420D02*
X613920Y550420D01*
X613920Y554480D02*
X617980Y554480D01*
X617980Y563120D02*
X617980Y567180D01*
X613920Y554480D02*
X613920Y550420D01*
X613920Y563120D02*
X613920Y567180D01*
X617980Y554480D02*
X617980Y550420D01*
X630680Y550420D02*
X630680Y554480D01*
X626620Y563120D02*
X626620Y567180D01*
X626620Y554480D02*
X626620Y550420D01*
X630680Y563120D02*
X630680Y567180D01*
X626620Y567180D01*
X626620Y554480D02*
X630680Y554480D01*
X630680Y550420D02*
X626620Y550420D01*
X626620Y563120D02*
X630680Y563120D01*
X635000Y541660D02*
X622300Y541660D01*
X626620Y567180D02*
X630680Y567180D01*
X635000Y541660D02*
X622300Y541660D01*
X626620Y563120D02*
X630680Y563120D01*
X630680Y550420D02*
X626620Y550420D01*
X626620Y554480D02*
X630680Y554480D01*
X630680Y563120D02*
X630680Y567180D01*
X626620Y554480D02*
X626620Y550420D01*
X626620Y563120D02*
X626620Y567180D01*
X630680Y554480D02*
X630680Y550420D01*
X639320Y563120D02*
X639320Y567180D01*
X639320Y554480D02*
X639320Y550420D01*
X639320Y567180D02*
X643380Y567180D01*
X643380Y554480D02*
X639320Y554480D01*
X639320Y550420D02*
X643380Y550420D01*
X643380Y563120D02*
X639320Y563120D01*
X635000Y541660D02*
X647700Y541660D01*
X643380Y567180D02*
X639320Y567180D01*
X635000Y541660D02*
X647700Y541660D01*
X643380Y563120D02*
X639320Y563120D01*
X639320Y550420D02*
X643380Y550420D01*
X643380Y554480D02*
X639320Y554480D01*
X639320Y550420D01*
X639320Y563120D02*
X639320Y567180D01*
X635000Y575940D02*
X622300Y575940D01*
X635000Y575940D01*
X647700Y575940D01*
X635000Y575940D01*
X643380Y554480D02*
X643380Y550420D01*
X643380Y563120D02*
X643380Y567180D01*
X643380Y563120D01*
X643380Y554480D02*
X643380Y550420D01*
X656080Y550420D02*
X656080Y554480D01*
X652020Y563120D02*
X652020Y567180D01*
X652020Y554480D02*
X652020Y550420D01*
X656080Y563120D02*
X656080Y567180D01*
X652020Y567180D01*
X652020Y554480D02*
X656080Y554480D01*
X656080Y550420D02*
X652020Y550420D01*
X652020Y563120D02*
X656080Y563120D01*
X660400Y541660D02*
X647700Y541660D01*
X652020Y567180D02*
X656080Y567180D01*
X660400Y541660D02*
X647700Y541660D01*
X652020Y563120D02*
X656080Y563120D01*
X656080Y550420D02*
X652020Y550420D01*
X652020Y554480D02*
X656080Y554480D01*
X656080Y563120D02*
X656080Y567180D01*
X652020Y554480D02*
X652020Y550420D01*
X652020Y563120D02*
X652020Y567180D01*
X656080Y554480D02*
X656080Y550420D01*
X668780Y550420D02*
X668780Y554480D01*
X664720Y563120D02*
X664720Y567180D01*
X664720Y554480D02*
X664720Y550420D01*
X668780Y563120D02*
X668780Y567180D01*
X664720Y567180D01*
X664720Y554480D02*
X668780Y554480D01*
X668780Y550420D02*
X664720Y550420D01*
X664720Y563120D02*
X668780Y563120D01*
X673100Y541660D02*
X660400Y541660D01*
X664720Y567180D02*
X668780Y567180D01*
X673100Y541660D02*
X660400Y541660D01*
X664720Y563120D02*
X668780Y563120D01*
X668780Y550420D02*
X664720Y550420D01*
X664720Y554480D02*
X668780Y554480D01*
X668780Y563120D02*
X668780Y567180D01*
X664720Y554480D02*
X664720Y550420D01*
X664720Y563120D02*
X664720Y567180D01*
X668780Y554480D02*
X668780Y550420D01*
X673100Y541660D02*
X685800Y541660D01*
X673100Y541660D01*
X660400Y575940D02*
X647700Y575940D01*
X660400Y575940D01*
X673100Y575940D01*
X660400Y575940D01*
X673100Y575940D02*
X685800Y575940D01*
X673100Y575940D01*
X681480Y554480D02*
X681480Y550420D01*
X677420Y563120D02*
X677420Y567180D01*
X677420Y554480D02*
X677420Y550420D01*
X681480Y563120D02*
X681480Y567180D01*
X677420Y567180D01*
X677420Y554480D02*
X681480Y554480D01*
X681480Y550420D02*
X677420Y550420D01*
X677420Y563120D02*
X681480Y563120D01*
X681480Y567180D02*
X677420Y567180D01*
X677420Y563120D02*
X681480Y563120D01*
X681480Y550420D02*
X677420Y550420D01*
X677420Y554480D02*
X681480Y554480D01*
X681480Y563120D02*
X681480Y567180D01*
X677420Y554480D02*
X677420Y550420D01*
X677420Y563120D02*
X677420Y567180D01*
X681480Y554480D02*
X681480Y550420D01*
X694180Y550420D02*
X694180Y554480D01*
X690120Y563120D02*
X690120Y567180D01*
X690120Y554480D02*
X690120Y550420D01*
X694180Y563120D02*
X694180Y567180D01*
X690120Y567180D01*
X690120Y554480D02*
X694180Y554480D01*
X694180Y550420D02*
X690120Y550420D01*
X690120Y563120D02*
X694180Y563120D01*
X698500Y541660D02*
X685800Y541660D01*
X690120Y567180D02*
X694180Y567180D01*
X698500Y541660D02*
X685800Y541660D01*
X690120Y563120D02*
X694180Y563120D01*
X694180Y550420D02*
X690120Y550420D01*
X690120Y554480D02*
X694180Y554480D01*
X694180Y563120D02*
X694180Y567180D01*
X690120Y554480D02*
X690120Y550420D01*
X690120Y563120D02*
X690120Y567180D01*
X694180Y554480D02*
X694180Y550420D01*
X706880Y550420D02*
X706880Y554480D01*
X702820Y563120D02*
X702820Y567180D01*
X702820Y554480D02*
X702820Y550420D01*
X706880Y563120D02*
X706880Y567180D01*
X702820Y567180D01*
X702820Y554480D02*
X706880Y554480D01*
X706880Y550420D02*
X702820Y550420D01*
X702820Y563120D02*
X706880Y563120D01*
X711200Y541660D02*
X698500Y541660D01*
X702820Y567180D02*
X706880Y567180D01*
X711200Y541660D02*
X698500Y541660D01*
X702820Y563120D02*
X706880Y563120D01*
X706880Y550420D02*
X702820Y550420D01*
X702820Y554480D02*
X706880Y554480D01*
X706880Y563120D02*
X706880Y567180D01*
X702820Y554480D02*
X702820Y550420D01*
X702820Y563120D02*
X702820Y567180D01*
X706880Y554480D02*
X706880Y550420D01*
X698500Y575940D02*
X685800Y575940D01*
X698500Y575940D01*
X711200Y575940D01*
X698500Y575940D01*
X719580Y554480D02*
X719580Y550420D01*
X715520Y563120D02*
X715520Y567180D01*
X715520Y554480D02*
X715520Y550420D01*
X719580Y563120D02*
X719580Y567180D01*
X715520Y567180D01*
X715520Y554480D02*
X719580Y554480D01*
X719580Y550420D02*
X715520Y550420D01*
X715520Y563120D02*
X719580Y563120D01*
X723900Y541660D02*
X711200Y541660D01*
X715520Y567180D02*
X719580Y567180D01*
X723900Y541660D02*
X711200Y541660D01*
X715520Y563120D02*
X719580Y563120D01*
X719580Y550420D02*
X715520Y550420D01*
X715520Y554480D02*
X719580Y554480D01*
X719580Y563120D02*
X719580Y567180D01*
X715520Y554480D02*
X715520Y550420D01*
X715520Y563120D02*
X715520Y567180D01*
X719580Y554480D02*
X719580Y550420D01*
X736600Y541660D02*
X736600Y575940D01*
X736600Y541660D02*
X723900Y541660D01*
X728220Y563120D02*
X732280Y563120D01*
X732280Y550420D02*
X728220Y550420D01*
X728220Y554480D02*
X732280Y554480D01*
X732280Y567180D02*
X728220Y567180D01*
X732280Y567180D02*
X732280Y563120D01*
X728220Y554480D02*
X728220Y550420D01*
X728220Y563120D02*
X728220Y567180D01*
X732280Y554480D02*
X732280Y550420D01*
X723900Y575940D02*
X711200Y575940D01*
X723900Y575940D01*
X736600Y575940D01*
D10*
X466426Y556522D02*
X462528Y552624D01*
X466426Y556522D02*
X466426Y544828D01*
X462528Y544828D02*
X470324Y544828D01*
X470324Y561088D02*
X462528Y561088D01*
X470324Y568884D01*
X470324Y570833D01*
X468375Y572782D01*
X464477Y572782D01*
X462528Y570833D01*
X749688Y554573D02*
X751637Y556522D01*
X755535Y556522D01*
X757484Y554573D01*
X757484Y552624D01*
X755535Y550675D01*
X753586Y550675D01*
X755535Y550675D02*
X757484Y548726D01*
X757484Y546777D01*
X755535Y544828D01*
X751637Y544828D01*
X749688Y546777D01*
X761382Y546777D02*
X763331Y544828D01*
X767229Y544828D01*
X769178Y546777D01*
X769178Y554573D01*
X767229Y556522D01*
X763331Y556522D01*
X761382Y554573D01*
X761382Y552624D01*
X763331Y550675D01*
X769178Y550675D01*
X755535Y561088D02*
X755535Y572782D01*
X749688Y566935D01*
X757484Y566935D01*
X761382Y563037D02*
X761382Y570833D01*
X763331Y572782D01*
X767229Y572782D01*
X769178Y570833D01*
X769178Y563037D01*
X767229Y561088D01*
X763331Y561088D01*
X761382Y563037D01*
X769178Y570833D01*
D13*
X541400Y625000D03*
X516000Y625000D03*
X490600Y625000D03*
X465200Y625000D03*
X439800Y625000D03*
X414400Y625000D03*
X389000Y625000D03*
X566800Y625000D03*
X768800Y624300D03*
X743400Y624300D03*
X718000Y624300D03*
X692600Y624300D03*
X667200Y624300D03*
X641800Y624300D03*
X616400Y624300D03*
X794200Y624300D03*
X540200Y677900D03*
X514800Y677900D03*
X489400Y677900D03*
X464000Y677900D03*
X438600Y677900D03*
X413200Y677900D03*
X387800Y677900D03*
X565600Y677900D03*
X768800Y678400D03*
X743400Y678400D03*
X718000Y678400D03*
X692600Y678400D03*
X667200Y678400D03*
X641800Y678400D03*
X616400Y678400D03*
X794200Y678400D03*
M02*
