G04 EAGLE Gerber RS-274X export*
G75*
%MOMM*%
%FSLAX34Y34*%
%LPD*%
%INSoldermask Bottom*%
%IPPOS*%
%AMOC8*
5,1,8,0,0,1.08239X$1,22.5*%
G01*
%ADD10C,3.003200*%
%ADD11P,1.869504X8X22.500000*%
%ADD12C,5.283200*%
%ADD13C,1.703200*%
%ADD14C,1.244000*%
%ADD15C,1.727200*%


D10*
X263740Y841550D03*
X956500Y841590D03*
D11*
X858012Y393700D03*
X830326Y393700D03*
X802894Y393700D03*
X775208Y393700D03*
X747522Y393700D03*
X720090Y393700D03*
X692404Y393700D03*
X664718Y393700D03*
X637286Y393700D03*
X609600Y393700D03*
X581914Y393700D03*
X554482Y393700D03*
X526796Y393700D03*
X844296Y368300D03*
X816610Y368300D03*
X788924Y368300D03*
X761492Y368300D03*
X733806Y368300D03*
X706120Y368300D03*
X678688Y368300D03*
X651002Y368300D03*
X623316Y368300D03*
X595884Y368300D03*
X568198Y368300D03*
X540512Y368300D03*
X499110Y393700D03*
X471424Y393700D03*
X443992Y393700D03*
X416306Y393700D03*
X513080Y368300D03*
X485394Y368300D03*
X457708Y368300D03*
X430022Y368300D03*
X388620Y393700D03*
X361188Y393700D03*
X402590Y368300D03*
X374904Y368300D03*
D12*
X292100Y381000D03*
X927100Y381000D03*
D13*
X495170Y784160D03*
X723770Y784160D03*
D14*
X488950Y552450D03*
X488950Y565150D03*
X501650Y552450D03*
X501650Y565150D03*
X514350Y552450D03*
X514350Y565150D03*
X527050Y552450D03*
X527050Y565150D03*
X539750Y552450D03*
X539750Y565150D03*
X552450Y552450D03*
X552450Y565150D03*
X565150Y552450D03*
X565150Y565150D03*
X577850Y552450D03*
X577850Y565150D03*
X590550Y552450D03*
X590550Y565150D03*
X603250Y552450D03*
X603250Y565150D03*
X615950Y552450D03*
X615950Y565150D03*
X628650Y552450D03*
X628650Y565150D03*
X641350Y552450D03*
X641350Y565150D03*
X654050Y552450D03*
X654050Y565150D03*
X666750Y552450D03*
X666750Y565150D03*
X679450Y552450D03*
X679450Y565150D03*
X692150Y552450D03*
X692150Y565150D03*
X704850Y552450D03*
X704850Y565150D03*
X717550Y552450D03*
X717550Y565150D03*
X730250Y552450D03*
X730250Y565150D03*
D15*
X389000Y617380D02*
X389000Y632620D01*
X414400Y632620D02*
X414400Y617380D01*
X439800Y617380D02*
X439800Y632620D01*
X465200Y632620D02*
X465200Y617380D01*
X490600Y617380D02*
X490600Y632620D01*
X516000Y632620D02*
X516000Y617380D01*
X541400Y617380D02*
X541400Y632620D01*
X566800Y632620D02*
X566800Y617380D01*
X616400Y616680D02*
X616400Y631920D01*
X641800Y631920D02*
X641800Y616680D01*
X667200Y616680D02*
X667200Y631920D01*
X692600Y631920D02*
X692600Y616680D01*
X718000Y616680D02*
X718000Y631920D01*
X743400Y631920D02*
X743400Y616680D01*
X768800Y616680D02*
X768800Y631920D01*
X794200Y631920D02*
X794200Y616680D01*
X387800Y670280D02*
X387800Y685520D01*
X413200Y685520D02*
X413200Y670280D01*
X438600Y670280D02*
X438600Y685520D01*
X464000Y685520D02*
X464000Y670280D01*
X489400Y670280D02*
X489400Y685520D01*
X514800Y685520D02*
X514800Y670280D01*
X540200Y670280D02*
X540200Y685520D01*
X565600Y685520D02*
X565600Y670280D01*
X616400Y670780D02*
X616400Y686020D01*
X641800Y686020D02*
X641800Y670780D01*
X667200Y670780D02*
X667200Y686020D01*
X692600Y686020D02*
X692600Y670780D01*
X718000Y670780D02*
X718000Y686020D01*
X743400Y686020D02*
X743400Y670780D01*
X768800Y670780D02*
X768800Y686020D01*
X794200Y686020D02*
X794200Y670780D01*
M02*
