G75*
%MOIN*%
%OFA0B0*%
%FSLAX25Y25*%
%IPPOS*%
%LPD*%
%AMOC8*
5,1,8,0,0,1.08239X$1,22.5*
%
%ADD10R,0.05984X0.02484*%
%ADD11C,0.04795*%
%ADD12OC8,0.06984*%
%ADD13R,0.05346X0.05346*%
D10*
X0028312Y0019920D03*
X0028312Y0022420D03*
X0028312Y0024920D03*
X0028312Y0027420D03*
X0028312Y0029920D03*
X0028312Y0032420D03*
X0028312Y0034920D03*
X0028312Y0037420D03*
X0028312Y0039920D03*
X0028312Y0042420D03*
X0028312Y0044920D03*
X0028312Y0047420D03*
X0028312Y0049920D03*
X0028312Y0052420D03*
X0028312Y0054920D03*
X0028312Y0057420D03*
X0028312Y0059920D03*
X0028312Y0062420D03*
X0036312Y0062420D03*
X0036312Y0059920D03*
X0036312Y0057420D03*
X0036312Y0054920D03*
X0036312Y0052420D03*
X0036312Y0049920D03*
X0036312Y0047420D03*
X0036312Y0044920D03*
X0036312Y0042420D03*
X0036312Y0039920D03*
X0036312Y0037420D03*
X0036312Y0034920D03*
X0036312Y0032420D03*
X0036312Y0029920D03*
X0036312Y0027420D03*
X0036312Y0024920D03*
X0036312Y0022420D03*
X0036312Y0019920D03*
D11*
X0060146Y0019454D02*
X0060146Y0015643D01*
X0065146Y0015643D02*
X0065146Y0019454D01*
X0070146Y0019454D02*
X0070146Y0015643D01*
X0075146Y0015643D02*
X0075146Y0019454D01*
X0080146Y0019454D02*
X0080146Y0015643D01*
X0085146Y0015643D02*
X0085146Y0019454D01*
X0090146Y0019454D02*
X0090146Y0015643D01*
X0095146Y0015643D02*
X0095146Y0019454D01*
X0100146Y0019454D02*
X0100146Y0015643D01*
X0105146Y0015643D02*
X0105146Y0019454D01*
X0110146Y0019454D02*
X0110146Y0015643D01*
X0115146Y0015643D02*
X0115146Y0019454D01*
X0120146Y0019454D02*
X0120146Y0015643D01*
X0125146Y0015643D02*
X0125146Y0019454D01*
X0130146Y0019454D02*
X0130146Y0015643D01*
X0135146Y0015643D02*
X0135146Y0019454D01*
X0140146Y0019454D02*
X0140146Y0015643D01*
X0145146Y0015643D02*
X0145146Y0019454D01*
X0150146Y0019454D02*
X0150146Y0015643D01*
X0155146Y0015643D02*
X0155146Y0019454D01*
X0155146Y0039143D02*
X0155146Y0042954D01*
X0150146Y0042954D02*
X0150146Y0039143D01*
X0145146Y0039143D02*
X0145146Y0042954D01*
X0140146Y0042954D02*
X0140146Y0039143D01*
X0135146Y0039143D02*
X0135146Y0042954D01*
X0130146Y0042954D02*
X0130146Y0039143D01*
X0125146Y0039143D02*
X0125146Y0042954D01*
X0120146Y0042954D02*
X0120146Y0039143D01*
X0115146Y0039143D02*
X0115146Y0042954D01*
X0110146Y0042954D02*
X0110146Y0039143D01*
X0105146Y0039143D02*
X0105146Y0042954D01*
X0100146Y0042954D02*
X0100146Y0039143D01*
X0095146Y0039143D02*
X0095146Y0042954D01*
X0090146Y0042954D02*
X0090146Y0039143D01*
X0085146Y0039143D02*
X0085146Y0042954D01*
X0080146Y0042954D02*
X0080146Y0039143D01*
X0075146Y0039143D02*
X0075146Y0042954D01*
X0070146Y0042954D02*
X0070146Y0039143D01*
X0065146Y0039143D02*
X0065146Y0042954D01*
X0060146Y0042954D02*
X0060146Y0039143D01*
X0060146Y0062643D02*
X0060146Y0066454D01*
X0065146Y0066454D02*
X0065146Y0062643D01*
X0070146Y0062643D02*
X0070146Y0066454D01*
X0075146Y0066454D02*
X0075146Y0062643D01*
X0080146Y0062643D02*
X0080146Y0066454D01*
X0085146Y0066454D02*
X0085146Y0062643D01*
X0090146Y0062643D02*
X0090146Y0066454D01*
X0095146Y0066454D02*
X0095146Y0062643D01*
X0100146Y0062643D02*
X0100146Y0066454D01*
X0105146Y0066454D02*
X0105146Y0062643D01*
X0110146Y0062643D02*
X0110146Y0066454D01*
X0115146Y0066454D02*
X0115146Y0062643D01*
X0120146Y0062643D02*
X0120146Y0066454D01*
X0125146Y0066454D02*
X0125146Y0062643D01*
X0130146Y0062643D02*
X0130146Y0066454D01*
X0135146Y0066454D02*
X0135146Y0062643D01*
X0140146Y0062643D02*
X0140146Y0066454D01*
X0145146Y0066454D02*
X0145146Y0062643D01*
X0150146Y0062643D02*
X0150146Y0066454D01*
X0155146Y0066454D02*
X0155146Y0062643D01*
D12*
X0041170Y0070894D03*
X0023060Y0070698D03*
D13*
X0008099Y0010461D03*
X0017548Y0013217D03*
X0008493Y0016564D03*
X0008887Y0022666D03*
X0008887Y0030540D03*
X0009083Y0036052D03*
X0008887Y0041367D03*
X0008887Y0046879D03*
X0009280Y0054162D03*
X0009280Y0059477D03*
X0009280Y0064989D03*
X0009280Y0070501D03*
X0022272Y0061839D03*
X0053965Y0038709D03*
X0051013Y0017548D03*
X0043139Y0015973D03*
M02*
