%
M48
M72
T01C0.01811
T02C0.02362
T03C0.04000
%
T01
X60146Y17548
X65146Y17548
X70146Y17548
X75146Y17548
X80146Y17548
X85146Y17548
X90146Y17548
X95146Y17548
X100146Y17548
X105146Y17548
X110146Y17548
X115146Y17548
X120146Y17548
X125146Y17548
X130146Y17548
X135146Y17548
X140146Y17548
X145146Y17548
X150146Y17548
X155146Y17548
X155146Y41048
X150146Y41048
X145146Y41048
X140146Y41048
X135146Y41048
X130146Y41048
X125146Y41048
X120146Y41048
X115146Y41048
X110146Y41048
X105146Y41048
X100146Y41048
X95146Y41048
X90146Y41048
X85146Y41048
X80146Y41048
X75146Y41048
X70146Y41048
X65146Y41048
X60146Y41048
X60146Y64548
X65146Y64548
X70146Y64548
X75146Y64548
X80146Y64548
X85146Y64548
X90146Y64548
X95146Y64548
X100146Y64548
X105146Y64548
X110146Y64548
X115146Y64548
X120146Y64548
X125146Y64548
X130146Y64548
X135146Y64548
X140146Y64548
X145146Y64548
X150146Y64548
X155146Y64548
T02
X8099Y10461
X17548Y13217
X8493Y16564
X8887Y22666
X8887Y30540
X9083Y36052
X8887Y41367
X8887Y46879
X9280Y54162
X9280Y59477
X9280Y64989
X9280Y70501
X22272Y61839
X53965Y38709
X51013Y17548
X43139Y15973
T03
X23060Y70698
X41170Y70894
M30
