G75*
%MOIN*%
%OFA0B0*%
%FSLAX25Y25*%
%IPPOS*%
%LPD*%
%AMOC8*
5,1,8,0,0,1.08239X$1,22.5*
%
%ADD10C,0.00300*%
%ADD11C,0.00200*%
%ADD12C,0.00800*%
%ADD13C,0.00600*%
%ADD14C,0.00400*%
D10*
X0037383Y0009824D02*
X0037383Y0012726D01*
X0038834Y0012726D01*
X0039318Y0012243D01*
X0039318Y0011275D01*
X0038834Y0010791D01*
X0037383Y0010791D01*
X0038351Y0010791D02*
X0039318Y0009824D01*
X0040330Y0009824D02*
X0042265Y0009824D01*
X0043276Y0009824D02*
X0043276Y0012726D01*
X0045211Y0012726D01*
X0047226Y0012276D02*
X0047709Y0011793D01*
X0048677Y0011793D01*
X0049161Y0012276D01*
X0049161Y0013244D01*
X0048193Y0013244D01*
X0047226Y0014211D02*
X0047226Y0012276D01*
X0050172Y0011793D02*
X0050172Y0014695D01*
X0052107Y0011793D01*
X0052107Y0014695D01*
X0053119Y0014695D02*
X0054570Y0014695D01*
X0055054Y0014211D01*
X0055054Y0012276D01*
X0054570Y0011793D01*
X0053119Y0011793D01*
X0053119Y0014695D01*
X0049161Y0014211D02*
X0048677Y0014695D01*
X0047709Y0014695D01*
X0047226Y0014211D01*
X0042265Y0012726D02*
X0040330Y0012726D01*
X0040330Y0009824D01*
X0040330Y0011275D02*
X0041297Y0011275D01*
X0043276Y0011275D02*
X0044244Y0011275D01*
D11*
X0040508Y0022184D02*
X0039040Y0022209D01*
X0038680Y0022583D01*
X0038693Y0023316D01*
X0039066Y0023677D01*
X0040534Y0023651D01*
X0040894Y0023278D01*
X0040881Y0022544D01*
X0040508Y0022184D01*
X0040914Y0024387D02*
X0039446Y0024412D01*
X0039452Y0024779D01*
X0039826Y0025140D01*
X0039465Y0025513D01*
X0039838Y0025874D01*
X0040939Y0025855D01*
X0040926Y0025121D02*
X0039826Y0025140D01*
X0039484Y0026622D02*
X0039504Y0027723D01*
X0039877Y0028083D01*
X0040978Y0028064D01*
X0040624Y0028812D02*
X0039890Y0028825D01*
X0039529Y0029198D01*
X0039542Y0029932D01*
X0039916Y0030293D01*
X0040282Y0030286D01*
X0040257Y0028819D01*
X0040624Y0028812D02*
X0040997Y0029173D01*
X0041010Y0029907D01*
X0039562Y0031041D02*
X0039574Y0031775D01*
X0039201Y0031414D02*
X0040669Y0031389D01*
X0041042Y0031749D01*
X0041055Y0032488D02*
X0041068Y0033222D01*
X0041061Y0032855D02*
X0039594Y0032881D01*
X0039587Y0032514D01*
X0038860Y0032894D02*
X0038493Y0032900D01*
X0039980Y0033981D02*
X0040714Y0033968D01*
X0041087Y0034328D01*
X0041106Y0035429D01*
X0041119Y0036171D02*
X0041138Y0037272D01*
X0040778Y0037645D01*
X0040405Y0037285D01*
X0040392Y0036551D01*
X0040018Y0036190D01*
X0039658Y0036564D01*
X0039677Y0037664D01*
X0039639Y0035455D02*
X0039619Y0034354D01*
X0039980Y0033981D01*
X0038995Y0040629D02*
X0039020Y0042096D01*
X0039008Y0041362D02*
X0041209Y0041324D01*
X0040868Y0042806D02*
X0040134Y0042819D01*
X0039774Y0043192D01*
X0039786Y0043926D01*
X0040160Y0044287D01*
X0040527Y0044280D01*
X0040501Y0042812D01*
X0040868Y0042806D02*
X0041241Y0043167D01*
X0041254Y0043900D01*
X0041273Y0045009D02*
X0039831Y0046502D01*
X0039844Y0047244D02*
X0039857Y0047978D01*
X0039484Y0047618D02*
X0040951Y0047592D01*
X0041325Y0047953D01*
X0041299Y0046477D02*
X0039806Y0045035D01*
X0039175Y0050940D02*
X0039200Y0052407D01*
X0039188Y0051674D02*
X0041389Y0051635D01*
X0041415Y0053111D02*
X0039213Y0053149D01*
X0039953Y0053503D02*
X0039966Y0054237D01*
X0040340Y0054598D01*
X0041440Y0054578D01*
X0041453Y0055320D02*
X0041466Y0056054D01*
X0041460Y0055687D02*
X0039992Y0055713D01*
X0039986Y0055346D01*
X0039258Y0055726D02*
X0038891Y0055732D01*
X0040378Y0056813D02*
X0040018Y0057186D01*
X0040037Y0058287D01*
X0040764Y0057907D02*
X0040752Y0057173D01*
X0040378Y0056813D01*
X0041479Y0056793D02*
X0041498Y0057894D01*
X0041138Y0058267D01*
X0040764Y0057907D01*
X0041189Y0061219D02*
X0041563Y0061579D01*
X0041575Y0062313D01*
X0041215Y0062687D01*
X0040848Y0062693D01*
X0040475Y0062332D01*
X0040462Y0061599D01*
X0040088Y0061238D01*
X0039722Y0061244D01*
X0039361Y0061618D01*
X0039374Y0062352D01*
X0039747Y0062712D01*
X0040127Y0063448D02*
X0040133Y0063814D01*
X0041601Y0063789D01*
X0041595Y0063422D02*
X0041608Y0064156D01*
X0041253Y0064901D02*
X0040520Y0064914D01*
X0040159Y0065287D01*
X0040178Y0066388D01*
X0039445Y0066401D02*
X0041646Y0066363D01*
X0041627Y0065262D01*
X0041253Y0064901D01*
X0039400Y0063827D02*
X0039033Y0063834D01*
X0040558Y0067124D02*
X0040198Y0067497D01*
X0040210Y0068231D01*
X0040584Y0068591D01*
X0040951Y0068585D01*
X0040925Y0067117D01*
X0041292Y0067111D02*
X0040558Y0067124D01*
X0041292Y0067111D02*
X0041665Y0067471D01*
X0041678Y0068205D01*
X0059183Y0069590D02*
X0059550Y0069223D01*
X0060284Y0069223D01*
X0060651Y0069590D01*
X0060651Y0069957D01*
X0060284Y0070324D01*
X0059183Y0070324D01*
X0059183Y0069590D01*
X0059183Y0070324D02*
X0059917Y0071058D01*
X0060651Y0071425D01*
X0064105Y0071058D02*
X0064105Y0070691D01*
X0064472Y0070324D01*
X0065573Y0070324D01*
X0065573Y0069590D02*
X0065573Y0071058D01*
X0065206Y0071425D01*
X0064472Y0071425D01*
X0064105Y0071058D01*
X0064105Y0069590D02*
X0064472Y0069223D01*
X0065206Y0069223D01*
X0065573Y0069590D01*
X0069223Y0069590D02*
X0069590Y0069223D01*
X0070324Y0069223D01*
X0070691Y0069590D01*
X0070691Y0070324D01*
X0070324Y0070691D01*
X0069957Y0070691D01*
X0069223Y0070324D01*
X0069223Y0071425D01*
X0070691Y0071425D01*
X0073357Y0070691D02*
X0074091Y0071425D01*
X0074091Y0069223D01*
X0073357Y0069223D02*
X0074825Y0069223D01*
X0075567Y0069590D02*
X0077034Y0071058D01*
X0077034Y0069590D01*
X0076668Y0069223D01*
X0075934Y0069223D01*
X0075567Y0069590D01*
X0075567Y0071058D01*
X0075934Y0071425D01*
X0076668Y0071425D01*
X0077034Y0071058D01*
X0079065Y0070521D02*
X0080533Y0070521D01*
X0080166Y0069420D02*
X0080166Y0071622D01*
X0079065Y0070521D01*
X0083396Y0070888D02*
X0084130Y0071622D01*
X0084130Y0069420D01*
X0083396Y0069420D02*
X0084864Y0069420D01*
X0085606Y0069420D02*
X0087074Y0069420D01*
X0086340Y0069420D02*
X0086340Y0071622D01*
X0085606Y0070888D01*
X0089302Y0071255D02*
X0089669Y0071622D01*
X0090403Y0071622D01*
X0090769Y0071255D01*
X0090769Y0070888D01*
X0090403Y0070521D01*
X0090769Y0070154D01*
X0090769Y0069787D01*
X0090403Y0069420D01*
X0089669Y0069420D01*
X0089302Y0069787D01*
X0090036Y0070521D02*
X0090403Y0070521D01*
X0093042Y0070888D02*
X0093776Y0071622D01*
X0093776Y0069420D01*
X0093042Y0069420D02*
X0094510Y0069420D01*
X0095252Y0069420D02*
X0096720Y0070888D01*
X0096720Y0071255D01*
X0096353Y0071622D01*
X0095619Y0071622D01*
X0095252Y0071255D01*
X0095252Y0069420D02*
X0096720Y0069420D01*
X0099538Y0069420D02*
X0101006Y0070888D01*
X0101006Y0071255D01*
X0100639Y0071622D01*
X0099905Y0071622D01*
X0099538Y0071255D01*
X0099538Y0069420D02*
X0101006Y0069420D01*
X0103475Y0069223D02*
X0104943Y0069223D01*
X0104209Y0069223D02*
X0104209Y0071425D01*
X0103475Y0070691D01*
X0105685Y0071058D02*
X0106052Y0071425D01*
X0106786Y0071425D01*
X0107153Y0071058D01*
X0107153Y0070691D01*
X0106786Y0070324D01*
X0107153Y0069957D01*
X0107153Y0069590D01*
X0106786Y0069223D01*
X0106052Y0069223D01*
X0105685Y0069590D01*
X0106419Y0070324D02*
X0106786Y0070324D01*
X0115089Y0074341D02*
X0115089Y0074708D01*
X0116557Y0076176D01*
X0116557Y0076543D01*
X0115089Y0076543D01*
X0119509Y0074708D02*
X0119876Y0075075D01*
X0120977Y0075075D01*
X0120977Y0075442D02*
X0120977Y0074341D01*
X0119876Y0074341D01*
X0119509Y0074708D01*
X0120610Y0075809D02*
X0120977Y0075442D01*
X0120610Y0075809D02*
X0119876Y0075809D01*
X0121719Y0075809D02*
X0122820Y0075809D01*
X0123187Y0075442D01*
X0123187Y0074341D01*
X0123928Y0074708D02*
X0123928Y0075442D01*
X0124295Y0075809D01*
X0125396Y0075809D01*
X0125396Y0076543D02*
X0125396Y0074341D01*
X0124295Y0074341D01*
X0123928Y0074708D01*
X0121719Y0074341D02*
X0121719Y0075809D01*
X0128348Y0075809D02*
X0128348Y0076176D01*
X0128715Y0076543D01*
X0129449Y0076543D01*
X0129816Y0076176D01*
X0129816Y0075809D01*
X0129449Y0075442D01*
X0128715Y0075442D01*
X0128348Y0075809D01*
X0128715Y0075442D02*
X0128348Y0075075D01*
X0128348Y0074708D01*
X0128715Y0074341D01*
X0129449Y0074341D01*
X0129816Y0074708D01*
X0129816Y0075075D01*
X0129449Y0075442D01*
X0132768Y0075809D02*
X0133135Y0075809D01*
X0133135Y0074341D01*
X0132768Y0074341D02*
X0133502Y0074341D01*
X0134241Y0074341D02*
X0134241Y0075809D01*
X0135342Y0075809D01*
X0135709Y0075442D01*
X0135709Y0074341D01*
X0136818Y0074708D02*
X0137185Y0074341D01*
X0136818Y0074708D02*
X0136818Y0076176D01*
X0136451Y0075809D02*
X0137185Y0075809D01*
X0138291Y0075809D02*
X0139025Y0075809D01*
X0139392Y0075442D01*
X0139392Y0074341D01*
X0138291Y0074341D01*
X0137924Y0074708D01*
X0138291Y0075075D01*
X0139392Y0075075D01*
X0140134Y0074341D02*
X0140134Y0075809D01*
X0141235Y0075809D01*
X0141602Y0075442D01*
X0141602Y0074341D01*
X0144554Y0074341D02*
X0144554Y0075809D01*
X0145655Y0075809D01*
X0146022Y0075442D01*
X0146022Y0074341D01*
X0146764Y0074708D02*
X0147131Y0074341D01*
X0147865Y0074341D01*
X0148232Y0074708D01*
X0148232Y0075442D01*
X0147865Y0075809D01*
X0147131Y0075809D01*
X0146764Y0075442D01*
X0146764Y0074708D01*
X0148974Y0075809D02*
X0149708Y0075809D01*
X0149341Y0076176D02*
X0149341Y0074708D01*
X0149708Y0074341D01*
X0152657Y0074708D02*
X0153024Y0074341D01*
X0154125Y0074341D01*
X0154867Y0074708D02*
X0155234Y0074341D01*
X0155968Y0074341D01*
X0156335Y0074708D01*
X0156335Y0075442D01*
X0155968Y0075809D01*
X0155234Y0075809D01*
X0154867Y0075442D01*
X0154867Y0074708D01*
X0153024Y0075809D02*
X0152657Y0075442D01*
X0152657Y0074708D01*
X0153024Y0075809D02*
X0154125Y0075809D01*
X0157077Y0075809D02*
X0157077Y0074341D01*
X0158545Y0074341D02*
X0158545Y0075442D01*
X0158178Y0075809D01*
X0157077Y0075809D01*
X0159287Y0075809D02*
X0160388Y0075809D01*
X0160754Y0075442D01*
X0160754Y0074341D01*
X0161496Y0074708D02*
X0161496Y0075442D01*
X0161863Y0075809D01*
X0162597Y0075809D01*
X0162964Y0075442D01*
X0162964Y0075075D01*
X0161496Y0075075D01*
X0161496Y0074708D02*
X0161863Y0074341D01*
X0162597Y0074341D01*
X0163706Y0074708D02*
X0163706Y0075442D01*
X0164073Y0075809D01*
X0165174Y0075809D01*
X0165916Y0075809D02*
X0166650Y0075809D01*
X0166283Y0076176D02*
X0166283Y0074708D01*
X0166650Y0074341D01*
X0167389Y0074708D02*
X0167389Y0075442D01*
X0167756Y0075809D01*
X0168490Y0075809D01*
X0168857Y0075442D01*
X0168857Y0075075D01*
X0167389Y0075075D01*
X0167389Y0074708D02*
X0167756Y0074341D01*
X0168490Y0074341D01*
X0169599Y0074708D02*
X0169599Y0075442D01*
X0169966Y0075809D01*
X0171067Y0075809D01*
X0171067Y0076543D02*
X0171067Y0074341D01*
X0169966Y0074341D01*
X0169599Y0074708D01*
X0165174Y0074341D02*
X0164073Y0074341D01*
X0163706Y0074708D01*
X0159287Y0074341D02*
X0159287Y0075809D01*
X0133135Y0076543D02*
X0133135Y0076910D01*
X0106786Y0048000D02*
X0106052Y0048000D01*
X0105685Y0047633D01*
X0105685Y0047266D01*
X0106052Y0046899D01*
X0107153Y0046899D01*
X0107153Y0046165D02*
X0107153Y0047633D01*
X0106786Y0048000D01*
X0104943Y0047633D02*
X0104576Y0048000D01*
X0103842Y0048000D01*
X0103475Y0047633D01*
X0102231Y0047633D02*
X0100763Y0046165D01*
X0101130Y0045798D01*
X0101864Y0045798D01*
X0102231Y0046165D01*
X0102231Y0047633D01*
X0101864Y0048000D01*
X0101130Y0048000D01*
X0100763Y0047633D01*
X0100763Y0046165D01*
X0100021Y0046165D02*
X0099654Y0045798D01*
X0098921Y0045798D01*
X0098554Y0046165D01*
X0099287Y0046899D02*
X0099654Y0046899D01*
X0100021Y0046532D01*
X0100021Y0046165D01*
X0099654Y0046899D02*
X0100021Y0047266D01*
X0100021Y0047633D01*
X0099654Y0048000D01*
X0098921Y0048000D01*
X0098554Y0047633D01*
X0096773Y0048000D02*
X0096773Y0045798D01*
X0096039Y0045798D02*
X0097507Y0045798D01*
X0095297Y0046165D02*
X0094930Y0045798D01*
X0094196Y0045798D01*
X0093829Y0046165D01*
X0094563Y0046899D02*
X0094930Y0046899D01*
X0095297Y0046532D01*
X0095297Y0046165D01*
X0094930Y0046899D02*
X0095297Y0047266D01*
X0095297Y0047633D01*
X0094930Y0048000D01*
X0094196Y0048000D01*
X0093829Y0047633D01*
X0091995Y0046899D02*
X0090527Y0046899D01*
X0091628Y0048000D01*
X0091628Y0045798D01*
X0089785Y0045798D02*
X0088317Y0045798D01*
X0089051Y0045798D02*
X0089051Y0048000D01*
X0088317Y0047266D01*
X0085455Y0045798D02*
X0083987Y0045798D01*
X0084721Y0045798D02*
X0084721Y0048000D01*
X0083987Y0047266D01*
X0081956Y0046899D02*
X0081956Y0046165D01*
X0081589Y0045798D01*
X0080855Y0045798D01*
X0080488Y0046165D01*
X0080488Y0046899D02*
X0081222Y0047266D01*
X0081589Y0047266D01*
X0081956Y0046899D01*
X0080488Y0046899D02*
X0080488Y0048000D01*
X0081956Y0048000D01*
X0079012Y0048000D02*
X0079012Y0045798D01*
X0078278Y0045798D02*
X0079746Y0045798D01*
X0078278Y0047266D02*
X0079012Y0048000D01*
X0075612Y0047633D02*
X0075612Y0046165D01*
X0075245Y0045798D01*
X0074511Y0045798D01*
X0074144Y0046165D01*
X0075612Y0047633D01*
X0075245Y0048000D01*
X0074511Y0048000D01*
X0074144Y0047633D01*
X0074144Y0046165D01*
X0071916Y0046361D02*
X0071549Y0045994D01*
X0070815Y0045994D01*
X0070448Y0046361D01*
X0070448Y0046728D01*
X0070815Y0047095D01*
X0071549Y0047095D01*
X0071916Y0046728D01*
X0071916Y0046361D01*
X0071549Y0047095D02*
X0071916Y0047462D01*
X0071916Y0047829D01*
X0071549Y0048196D01*
X0070815Y0048196D01*
X0070448Y0047829D01*
X0070448Y0047462D01*
X0070815Y0047095D01*
X0068973Y0048196D02*
X0068973Y0045994D01*
X0069706Y0045994D02*
X0068239Y0045994D01*
X0066798Y0047633D02*
X0065330Y0046165D01*
X0065330Y0045798D01*
X0064588Y0045798D02*
X0063120Y0045798D01*
X0063854Y0045798D02*
X0063854Y0048000D01*
X0063120Y0047266D01*
X0061483Y0048000D02*
X0060749Y0047633D01*
X0060015Y0046899D01*
X0061116Y0046899D01*
X0061483Y0046532D01*
X0061483Y0046165D01*
X0061116Y0045798D01*
X0060382Y0045798D01*
X0060015Y0046165D01*
X0060015Y0046899D01*
X0059273Y0045798D02*
X0057806Y0045798D01*
X0058539Y0045798D02*
X0058539Y0048000D01*
X0057806Y0047266D01*
X0065330Y0048000D02*
X0066798Y0048000D01*
X0066798Y0047633D01*
X0068239Y0047462D02*
X0068973Y0048196D01*
X0096039Y0047266D02*
X0096773Y0048000D01*
X0103475Y0045798D02*
X0104943Y0047266D01*
X0104943Y0047633D01*
X0105685Y0046165D02*
X0106052Y0045798D01*
X0106786Y0045798D01*
X0107153Y0046165D01*
X0104943Y0045798D02*
X0103475Y0045798D01*
X0101668Y0025165D02*
X0100934Y0025165D01*
X0100567Y0024798D01*
X0100567Y0024431D01*
X0100934Y0024064D01*
X0102034Y0024064D01*
X0102034Y0024798D02*
X0101668Y0025165D01*
X0102034Y0024798D02*
X0102034Y0023330D01*
X0101668Y0022963D01*
X0100934Y0022963D01*
X0100567Y0023330D01*
X0099825Y0022963D02*
X0098357Y0022963D01*
X0099091Y0022963D02*
X0099091Y0025165D01*
X0098357Y0024431D01*
X0097507Y0024798D02*
X0096039Y0023330D01*
X0096039Y0022963D01*
X0095297Y0022963D02*
X0093829Y0022963D01*
X0095297Y0024431D01*
X0095297Y0024798D01*
X0094930Y0025165D01*
X0094196Y0025165D01*
X0093829Y0024798D01*
X0092192Y0024601D02*
X0090724Y0023133D01*
X0091091Y0022766D01*
X0091825Y0022766D01*
X0092192Y0023133D01*
X0092192Y0024601D01*
X0091825Y0024968D01*
X0091091Y0024968D01*
X0090724Y0024601D01*
X0090724Y0023133D01*
X0089982Y0022766D02*
X0088514Y0022766D01*
X0089982Y0024234D01*
X0089982Y0024601D01*
X0089615Y0024968D01*
X0088881Y0024968D01*
X0088514Y0024601D01*
X0086877Y0024968D02*
X0086143Y0024601D01*
X0085409Y0023867D01*
X0086510Y0023867D01*
X0086877Y0023500D01*
X0086877Y0023133D01*
X0086510Y0022766D01*
X0085776Y0022766D01*
X0085409Y0023133D01*
X0085409Y0023867D01*
X0084667Y0024234D02*
X0084667Y0024601D01*
X0084300Y0024968D01*
X0083566Y0024968D01*
X0083199Y0024601D01*
X0084667Y0024234D02*
X0083199Y0022766D01*
X0084667Y0022766D01*
X0082153Y0022569D02*
X0080685Y0022569D01*
X0081419Y0022569D02*
X0081419Y0024771D01*
X0080685Y0024037D01*
X0079943Y0024037D02*
X0079943Y0024404D01*
X0079576Y0024771D01*
X0078842Y0024771D01*
X0078475Y0024404D01*
X0079943Y0024037D02*
X0078475Y0022569D01*
X0079943Y0022569D01*
X0076838Y0022936D02*
X0076838Y0023670D01*
X0076471Y0024037D01*
X0076104Y0024037D01*
X0075370Y0023670D01*
X0075370Y0024771D01*
X0076838Y0024771D01*
X0074628Y0024404D02*
X0074261Y0024771D01*
X0073527Y0024771D01*
X0073160Y0024404D01*
X0071916Y0024404D02*
X0071549Y0024771D01*
X0070815Y0024771D01*
X0070448Y0024404D01*
X0069706Y0024404D02*
X0069340Y0024771D01*
X0068606Y0024771D01*
X0068239Y0024404D01*
X0069706Y0024404D02*
X0069706Y0024037D01*
X0068239Y0022569D01*
X0069706Y0022569D01*
X0070448Y0022569D02*
X0071916Y0024037D01*
X0071916Y0024404D01*
X0073160Y0022569D02*
X0074628Y0024037D01*
X0074628Y0024404D01*
X0075370Y0022936D02*
X0075737Y0022569D01*
X0076471Y0022569D01*
X0076838Y0022936D01*
X0074628Y0022569D02*
X0073160Y0022569D01*
X0071916Y0022569D02*
X0070448Y0022569D01*
X0066798Y0023670D02*
X0065330Y0023670D01*
X0066431Y0024771D01*
X0066431Y0022569D01*
X0064588Y0022569D02*
X0063120Y0022569D01*
X0064588Y0024037D01*
X0064588Y0024404D01*
X0064221Y0024771D01*
X0063487Y0024771D01*
X0063120Y0024404D01*
X0061483Y0024207D02*
X0061483Y0023840D01*
X0061116Y0023473D01*
X0061483Y0023106D01*
X0061483Y0022739D01*
X0061116Y0022372D01*
X0060382Y0022372D01*
X0060015Y0022739D01*
X0059273Y0022372D02*
X0057806Y0022372D01*
X0059273Y0023840D01*
X0059273Y0024207D01*
X0058906Y0024574D01*
X0058172Y0024574D01*
X0057806Y0024207D01*
X0060015Y0024207D02*
X0060382Y0024574D01*
X0061116Y0024574D01*
X0061483Y0024207D01*
X0061116Y0023473D02*
X0060749Y0023473D01*
X0040952Y0026596D02*
X0039484Y0026622D01*
X0040314Y0053130D02*
X0039953Y0053503D01*
X0096039Y0025165D02*
X0097507Y0025165D01*
X0097507Y0024798D01*
X0103869Y0024601D02*
X0104235Y0024968D01*
X0104969Y0024968D01*
X0105336Y0024601D01*
X0105336Y0024234D01*
X0103869Y0022766D01*
X0105336Y0022766D01*
X0106078Y0023133D02*
X0106445Y0022766D01*
X0107179Y0022766D01*
X0107546Y0023133D01*
X0107546Y0023500D01*
X0107179Y0023867D01*
X0106445Y0023867D01*
X0106078Y0024234D01*
X0106078Y0024601D01*
X0106445Y0024968D01*
X0107179Y0024968D01*
X0107546Y0024601D01*
X0107546Y0024234D01*
X0107179Y0023867D01*
X0106445Y0023867D02*
X0106078Y0023500D01*
X0106078Y0023133D01*
D12*
X0037000Y0017320D02*
X0037002Y0017360D01*
X0037008Y0017400D01*
X0037018Y0017440D01*
X0037031Y0017478D01*
X0037049Y0017514D01*
X0037069Y0017549D01*
X0037094Y0017581D01*
X0037121Y0017611D01*
X0037151Y0017638D01*
X0037183Y0017663D01*
X0037218Y0017683D01*
X0037254Y0017701D01*
X0037292Y0017714D01*
X0037332Y0017724D01*
X0037372Y0017730D01*
X0037412Y0017732D01*
X0037452Y0017730D01*
X0037492Y0017724D01*
X0037532Y0017714D01*
X0037570Y0017701D01*
X0037606Y0017683D01*
X0037641Y0017663D01*
X0037673Y0017638D01*
X0037703Y0017611D01*
X0037730Y0017581D01*
X0037755Y0017549D01*
X0037775Y0017514D01*
X0037793Y0017478D01*
X0037806Y0017440D01*
X0037816Y0017400D01*
X0037822Y0017360D01*
X0037824Y0017320D01*
X0037822Y0017280D01*
X0037816Y0017240D01*
X0037806Y0017200D01*
X0037793Y0017162D01*
X0037775Y0017126D01*
X0037755Y0017091D01*
X0037730Y0017059D01*
X0037703Y0017029D01*
X0037673Y0017002D01*
X0037641Y0016977D01*
X0037606Y0016957D01*
X0037570Y0016939D01*
X0037532Y0016926D01*
X0037492Y0016916D01*
X0037452Y0016910D01*
X0037412Y0016908D01*
X0037372Y0016910D01*
X0037332Y0016916D01*
X0037292Y0016926D01*
X0037254Y0016939D01*
X0037218Y0016957D01*
X0037183Y0016977D01*
X0037151Y0017002D01*
X0037121Y0017029D01*
X0037094Y0017059D01*
X0037069Y0017091D01*
X0037049Y0017126D01*
X0037031Y0017162D01*
X0037018Y0017200D01*
X0037008Y0017240D01*
X0037002Y0017280D01*
X0037000Y0017320D01*
D13*
X0025560Y0065698D02*
X0020560Y0065698D01*
X0018060Y0068198D01*
X0018060Y0073198D01*
X0020560Y0075698D01*
X0025560Y0075698D01*
X0028060Y0073198D01*
X0028060Y0068198D01*
X0025560Y0065698D01*
X0036170Y0068394D02*
X0038670Y0065894D01*
X0043670Y0065894D01*
X0046170Y0068394D01*
X0046170Y0073394D01*
X0043670Y0075894D01*
X0038670Y0075894D01*
X0036170Y0073394D01*
X0036170Y0068394D01*
D14*
X0048275Y0074751D02*
X0048275Y0078354D01*
X0050076Y0078354D01*
X0050677Y0077754D01*
X0050677Y0076553D01*
X0050076Y0075952D01*
X0048275Y0075952D01*
X0049476Y0075952D02*
X0050677Y0074751D01*
X0051958Y0074751D02*
X0054360Y0074751D01*
X0055641Y0074751D02*
X0055641Y0078354D01*
X0058043Y0078354D01*
X0054360Y0078354D02*
X0051958Y0078354D01*
X0051958Y0074751D01*
X0051958Y0076553D02*
X0053159Y0076553D01*
X0055641Y0076553D02*
X0056842Y0076553D01*
X0017295Y0075942D02*
X0017295Y0078344D01*
X0016695Y0078945D01*
X0014893Y0078945D01*
X0014893Y0075342D01*
X0016695Y0075342D01*
X0017295Y0075942D01*
X0013612Y0075342D02*
X0013612Y0078945D01*
X0011210Y0078945D02*
X0013612Y0075342D01*
X0011210Y0075342D02*
X0011210Y0078945D01*
X0009929Y0078344D02*
X0009328Y0078945D01*
X0008127Y0078945D01*
X0007527Y0078344D01*
X0007527Y0075942D01*
X0008127Y0075342D01*
X0009328Y0075342D01*
X0009929Y0075942D01*
X0009929Y0077143D01*
X0008728Y0077143D01*
M02*
