%
M48
M72
T01C0.0177
T02C0.0217
T03C0.0236
%
T01
X2328Y9664
X2328Y10164
X2328Y10664
X2328Y11164
X2328Y11664
X2328Y12164
X2328Y12664
X2328Y13164
X2328Y13664
X2328Y14164
X2828Y14164
X2828Y13664
X2828Y13164
X2828Y12664
X2828Y12164
X2828Y11664
X2828Y11164
X2828Y10664
X2828Y10164
X2828Y9664
X3328Y9664
X3328Y10164
X3328Y10664
X3328Y11164
X3328Y11664
X3328Y12164
X3328Y12664
X3328Y13164
X3328Y13664
X3328Y14164
X3828Y14164
X3828Y13664
X3828Y13164
X3828Y12664
X3828Y12164
X3828Y11664
X3828Y11164
X3828Y10664
X3828Y10164
X3828Y9664
T02
X6672Y9668
X6672Y10168
X6672Y10668
X6672Y11168
X6672Y11668
X6672Y12168
X6672Y12668
X6672Y13168
X6672Y9168
X6672Y8668
X6672Y8168
X6672Y7668
X6672Y7168
X6672Y6668
X6672Y6168
X6672Y5668
X6672Y5168
X6672Y4668
X6672Y4168
X6672Y3668
T03
X1578Y1078
X1578Y2078
X1578Y3078
X1578Y4078
X1578Y5078
X1578Y6078
X1578Y7078
X1578Y8078
X4578Y8078
X4578Y7078
X4578Y6078
X4578Y5078
X4578Y4078
X4578Y3078
X4578Y2078
X4578Y1078
M30
