G75*
%MOIN*%
%OFA0B0*%
%FSLAX25Y25*%
%IPPOS*%
%LPD*%
%AMOC8*
5,1,8,0,0,1.08239X$1,22.5*
%
%ADD10C,0.00300*%
D10*
X0010493Y0019155D02*
X0012428Y0021090D01*
X0012428Y0021573D01*
X0011945Y0022057D01*
X0010977Y0022057D01*
X0010493Y0021573D01*
X0010493Y0019155D02*
X0012428Y0019155D01*
X0011854Y0012215D02*
X0011854Y0009312D01*
X0010887Y0009312D02*
X0012822Y0009312D01*
X0010887Y0011247D02*
X0011854Y0012215D01*
X0011551Y0029391D02*
X0010583Y0029391D01*
X0010100Y0029875D01*
X0011067Y0030842D02*
X0011551Y0030842D01*
X0012035Y0030358D01*
X0012035Y0029875D01*
X0011551Y0029391D01*
X0011551Y0030842D02*
X0012035Y0031326D01*
X0012035Y0031810D01*
X0011551Y0032293D01*
X0010583Y0032293D01*
X0010100Y0031810D01*
X0011945Y0039233D02*
X0011945Y0042136D01*
X0010493Y0040685D01*
X0012428Y0040685D01*
X0011551Y0049470D02*
X0010583Y0049470D01*
X0010100Y0049953D01*
X0010100Y0050921D02*
X0011067Y0051405D01*
X0011551Y0051405D01*
X0012035Y0050921D01*
X0012035Y0049953D01*
X0011551Y0049470D01*
X0010100Y0050921D02*
X0010100Y0052372D01*
X0012035Y0052372D01*
X0011945Y0059312D02*
X0010977Y0059312D01*
X0010493Y0059796D01*
X0010493Y0060763D01*
X0011945Y0060763D01*
X0012428Y0060280D01*
X0012428Y0059796D01*
X0011945Y0059312D01*
X0010493Y0060763D02*
X0011461Y0061731D01*
X0012428Y0062215D01*
X0010493Y0069155D02*
X0010493Y0069638D01*
X0012428Y0071573D01*
X0012428Y0072057D01*
X0010493Y0072057D01*
X0010977Y0079391D02*
X0010493Y0079875D01*
X0010493Y0080358D01*
X0010977Y0080842D01*
X0011945Y0080842D01*
X0012428Y0080358D01*
X0012428Y0079875D01*
X0011945Y0079391D01*
X0010977Y0079391D01*
X0010977Y0080842D02*
X0010493Y0081326D01*
X0010493Y0081810D01*
X0010977Y0082293D01*
X0011945Y0082293D01*
X0012428Y0081810D01*
X0012428Y0081326D01*
X0011945Y0080842D01*
X0012383Y0094942D02*
X0014318Y0094942D01*
X0013351Y0094942D02*
X0013351Y0097845D01*
X0012383Y0096877D01*
X0012383Y0099667D02*
X0014318Y0101602D01*
X0014318Y0102085D01*
X0013834Y0102569D01*
X0012867Y0102569D01*
X0012383Y0102085D01*
X0012383Y0099667D02*
X0014318Y0099667D01*
X0015330Y0099667D02*
X0017265Y0102569D01*
X0018276Y0101602D02*
X0019244Y0102569D01*
X0019244Y0099667D01*
X0020211Y0099667D02*
X0018276Y0099667D01*
X0019244Y0097845D02*
X0018276Y0096877D01*
X0019244Y0097845D02*
X0019244Y0094942D01*
X0020211Y0094942D02*
X0018276Y0094942D01*
X0015330Y0094942D02*
X0017265Y0097845D01*
X0021223Y0097845D02*
X0023158Y0097845D01*
X0023158Y0097361D01*
X0021223Y0095426D01*
X0021223Y0094942D01*
X0021706Y0104785D02*
X0021223Y0105268D01*
X0021223Y0105752D01*
X0021706Y0106236D01*
X0022674Y0106236D01*
X0023158Y0105752D01*
X0023158Y0105268D01*
X0022674Y0104785D01*
X0021706Y0104785D01*
X0021706Y0106236D02*
X0021223Y0106720D01*
X0021223Y0107203D01*
X0021706Y0107687D01*
X0022674Y0107687D01*
X0023158Y0107203D01*
X0023158Y0106720D01*
X0022674Y0106236D01*
X0020211Y0104785D02*
X0018276Y0104785D01*
X0019244Y0104785D02*
X0019244Y0107687D01*
X0018276Y0106720D01*
X0017265Y0107687D02*
X0015330Y0104785D01*
X0014318Y0105268D02*
X0014318Y0105752D01*
X0013834Y0106236D01*
X0013351Y0106236D01*
X0013834Y0106236D02*
X0014318Y0106720D01*
X0014318Y0107203D01*
X0013834Y0107687D01*
X0012867Y0107687D01*
X0012383Y0107203D01*
X0012867Y0109509D02*
X0012383Y0109993D01*
X0012383Y0110477D01*
X0012867Y0110960D01*
X0013834Y0110960D01*
X0014318Y0110477D01*
X0014318Y0109993D01*
X0013834Y0109509D01*
X0012867Y0109509D01*
X0012867Y0110960D02*
X0012383Y0111444D01*
X0012383Y0111928D01*
X0012867Y0112412D01*
X0013834Y0112412D01*
X0014318Y0111928D01*
X0014318Y0111444D01*
X0013834Y0110960D01*
X0015330Y0109509D02*
X0017265Y0112412D01*
X0018276Y0111928D02*
X0018760Y0112412D01*
X0019727Y0112412D01*
X0020211Y0111928D01*
X0020211Y0111444D01*
X0018276Y0109509D01*
X0020211Y0109509D01*
X0019817Y0114627D02*
X0017882Y0114627D01*
X0018850Y0114627D02*
X0018850Y0117530D01*
X0017882Y0116562D01*
X0016871Y0117530D02*
X0014936Y0114627D01*
X0013924Y0117046D02*
X0011989Y0115111D01*
X0011989Y0114627D01*
X0011989Y0117530D02*
X0013924Y0117530D01*
X0013924Y0117046D01*
X0013834Y0119745D02*
X0012867Y0119745D01*
X0012383Y0120229D01*
X0012383Y0121197D01*
X0013834Y0121197D01*
X0014318Y0120713D01*
X0014318Y0120229D01*
X0013834Y0119745D01*
X0012383Y0121197D02*
X0013351Y0122164D01*
X0014318Y0122648D01*
X0013834Y0124863D02*
X0012867Y0124863D01*
X0012383Y0125347D01*
X0012383Y0126315D02*
X0013351Y0126798D01*
X0013834Y0126798D01*
X0014318Y0126315D01*
X0014318Y0125347D01*
X0013834Y0124863D01*
X0015330Y0124863D02*
X0017265Y0127766D01*
X0018276Y0127282D02*
X0018760Y0127766D01*
X0019727Y0127766D01*
X0020211Y0127282D01*
X0020211Y0126798D01*
X0018276Y0124863D01*
X0020211Y0124863D01*
X0021223Y0125347D02*
X0023158Y0127282D01*
X0023158Y0125347D01*
X0022674Y0124863D01*
X0021706Y0124863D01*
X0021223Y0125347D01*
X0021223Y0127282D01*
X0021706Y0127766D01*
X0022674Y0127766D01*
X0023158Y0127282D01*
X0020211Y0131433D02*
X0018276Y0131433D01*
X0019727Y0132884D01*
X0019727Y0129981D01*
X0017265Y0132884D02*
X0015330Y0129981D01*
X0014318Y0131433D02*
X0012383Y0131433D01*
X0013834Y0132884D01*
X0013834Y0129981D01*
X0014318Y0127766D02*
X0012383Y0127766D01*
X0012383Y0126315D01*
X0017265Y0122648D02*
X0015330Y0119745D01*
X0018276Y0120229D02*
X0018760Y0119745D01*
X0019727Y0119745D01*
X0020211Y0120229D01*
X0020211Y0120713D01*
X0019727Y0121197D01*
X0019244Y0121197D01*
X0019727Y0121197D02*
X0020211Y0121680D01*
X0020211Y0122164D01*
X0019727Y0122648D01*
X0018760Y0122648D01*
X0018276Y0122164D01*
X0021313Y0117530D02*
X0020829Y0117046D01*
X0020829Y0116562D01*
X0021313Y0116078D01*
X0022764Y0116078D01*
X0022764Y0115111D02*
X0022764Y0117046D01*
X0022280Y0117530D01*
X0021313Y0117530D01*
X0020829Y0115111D02*
X0021313Y0114627D01*
X0022280Y0114627D01*
X0022764Y0115111D01*
X0014318Y0105268D02*
X0013834Y0104785D01*
X0012867Y0104785D01*
X0012383Y0105268D01*
X0041123Y0104785D02*
X0043058Y0104785D01*
X0042091Y0104785D02*
X0042091Y0107687D01*
X0041123Y0106720D01*
X0042091Y0102963D02*
X0042091Y0100060D01*
X0043058Y0100060D02*
X0041123Y0100060D01*
X0041123Y0101995D02*
X0042091Y0102963D01*
X0044070Y0102963D02*
X0044070Y0101511D01*
X0045037Y0101995D01*
X0045521Y0101995D01*
X0046005Y0101511D01*
X0046005Y0100544D01*
X0045521Y0100060D01*
X0044553Y0100060D01*
X0044070Y0100544D01*
X0044070Y0102963D02*
X0046005Y0102963D01*
X0045521Y0104785D02*
X0045521Y0107687D01*
X0044070Y0106236D01*
X0046005Y0106236D01*
X0047016Y0104785D02*
X0048951Y0107687D01*
X0049963Y0106720D02*
X0050930Y0107687D01*
X0050930Y0104785D01*
X0049963Y0104785D02*
X0051898Y0104785D01*
X0051414Y0102963D02*
X0051898Y0102479D01*
X0051898Y0101995D01*
X0051414Y0101511D01*
X0051898Y0101028D01*
X0051898Y0100544D01*
X0051414Y0100060D01*
X0050447Y0100060D01*
X0049963Y0100544D01*
X0050930Y0101511D02*
X0051414Y0101511D01*
X0051414Y0102963D02*
X0050447Y0102963D01*
X0049963Y0102479D01*
X0048951Y0102963D02*
X0047016Y0100060D01*
X0046005Y0097845D02*
X0045037Y0097361D01*
X0044070Y0096393D01*
X0045521Y0096393D01*
X0046005Y0095910D01*
X0046005Y0095426D01*
X0045521Y0094942D01*
X0044553Y0094942D01*
X0044070Y0095426D01*
X0044070Y0096393D01*
X0043058Y0094942D02*
X0041123Y0094942D01*
X0042091Y0094942D02*
X0042091Y0097845D01*
X0041123Y0096877D01*
X0047016Y0094942D02*
X0048951Y0097845D01*
X0049963Y0096877D02*
X0050930Y0097845D01*
X0050930Y0094942D01*
X0049963Y0094942D02*
X0051898Y0094942D01*
X0052909Y0095426D02*
X0053393Y0094942D01*
X0054361Y0094942D01*
X0054844Y0095426D01*
X0054844Y0095910D01*
X0054361Y0096393D01*
X0052909Y0096393D01*
X0052909Y0095426D01*
X0052909Y0096393D02*
X0053877Y0097361D01*
X0054844Y0097845D01*
X0054844Y0100060D02*
X0052909Y0100060D01*
X0054844Y0101995D01*
X0054844Y0102479D01*
X0054361Y0102963D01*
X0053393Y0102963D01*
X0052909Y0102479D01*
X0053393Y0104785D02*
X0052909Y0105268D01*
X0053393Y0104785D02*
X0054361Y0104785D01*
X0054844Y0105268D01*
X0054844Y0106236D01*
X0054361Y0106720D01*
X0053877Y0106720D01*
X0052909Y0106236D01*
X0052909Y0107687D01*
X0054844Y0107687D01*
X0056175Y0109656D02*
X0058110Y0109656D01*
X0057143Y0109656D02*
X0057143Y0112558D01*
X0056175Y0111590D01*
X0054844Y0110296D02*
X0052909Y0110296D01*
X0053877Y0110296D02*
X0053877Y0113199D01*
X0052909Y0112231D01*
X0051898Y0112231D02*
X0051414Y0111748D01*
X0051898Y0111264D01*
X0051898Y0110780D01*
X0051414Y0110296D01*
X0050447Y0110296D01*
X0049963Y0110780D01*
X0050930Y0111748D02*
X0051414Y0111748D01*
X0051898Y0112231D02*
X0051898Y0112715D01*
X0051414Y0113199D01*
X0050447Y0113199D01*
X0049963Y0112715D01*
X0048951Y0113199D02*
X0047016Y0110296D01*
X0046005Y0110780D02*
X0045521Y0110296D01*
X0044553Y0110296D01*
X0044070Y0110780D01*
X0043058Y0110296D02*
X0041123Y0110296D01*
X0041123Y0112231D02*
X0042091Y0113199D01*
X0042091Y0110296D01*
X0044070Y0112715D02*
X0044553Y0113199D01*
X0045521Y0113199D01*
X0046005Y0112715D01*
X0046005Y0112231D01*
X0045521Y0111748D01*
X0046005Y0111264D01*
X0046005Y0110780D01*
X0045521Y0111748D02*
X0045037Y0111748D01*
X0044070Y0115021D02*
X0046005Y0116956D01*
X0046005Y0117440D01*
X0045521Y0117923D01*
X0044553Y0117923D01*
X0044070Y0117440D01*
X0044070Y0115021D02*
X0046005Y0115021D01*
X0047016Y0115021D02*
X0048951Y0117923D01*
X0049963Y0116956D02*
X0050930Y0117923D01*
X0050930Y0115021D01*
X0049963Y0115021D02*
X0051898Y0115021D01*
X0052909Y0116472D02*
X0054844Y0116472D01*
X0054361Y0115021D02*
X0054361Y0117923D01*
X0052909Y0116472D01*
X0053393Y0119745D02*
X0052909Y0120229D01*
X0054844Y0122164D01*
X0054844Y0120229D01*
X0054361Y0119745D01*
X0053393Y0119745D01*
X0052909Y0120229D02*
X0052909Y0122164D01*
X0053393Y0122648D01*
X0054361Y0122648D01*
X0054844Y0122164D01*
X0054361Y0124863D02*
X0053393Y0124863D01*
X0052909Y0125347D01*
X0053877Y0126315D02*
X0054361Y0126315D01*
X0054844Y0125831D01*
X0054844Y0125347D01*
X0054361Y0124863D01*
X0054361Y0126315D02*
X0054844Y0126798D01*
X0054844Y0127282D01*
X0054361Y0127766D01*
X0053393Y0127766D01*
X0052909Y0127282D01*
X0051898Y0124863D02*
X0049963Y0124863D01*
X0050930Y0124863D02*
X0050930Y0127766D01*
X0049963Y0126798D01*
X0048951Y0127766D02*
X0047016Y0124863D01*
X0046005Y0125347D02*
X0045521Y0124863D01*
X0044553Y0124863D01*
X0044070Y0125347D01*
X0046005Y0127282D01*
X0046005Y0125347D01*
X0046005Y0127282D02*
X0045521Y0127766D01*
X0044553Y0127766D01*
X0044070Y0127282D01*
X0044070Y0125347D01*
X0043058Y0124863D02*
X0041123Y0124863D01*
X0042091Y0124863D02*
X0042091Y0127766D01*
X0041123Y0126798D01*
X0042394Y0130375D02*
X0041911Y0130859D01*
X0042394Y0130375D02*
X0043362Y0130375D01*
X0043846Y0130859D01*
X0043846Y0132794D01*
X0043362Y0133278D01*
X0042394Y0133278D01*
X0041911Y0132794D01*
X0041911Y0132310D01*
X0042394Y0131826D01*
X0043846Y0131826D01*
X0044857Y0130375D02*
X0046792Y0133278D01*
X0047804Y0132794D02*
X0048287Y0133278D01*
X0049255Y0133278D01*
X0049739Y0132794D01*
X0049739Y0132310D01*
X0047804Y0130375D01*
X0049739Y0130375D01*
X0050750Y0130859D02*
X0051234Y0130375D01*
X0052201Y0130375D01*
X0052685Y0130859D01*
X0052685Y0132794D01*
X0052201Y0133278D01*
X0051234Y0133278D01*
X0050750Y0132794D01*
X0050750Y0132310D01*
X0051234Y0131826D01*
X0052685Y0131826D01*
X0057344Y0126995D02*
X0058311Y0127963D01*
X0058311Y0125060D01*
X0058311Y0127963D01*
X0057344Y0126995D01*
X0057344Y0125060D02*
X0059279Y0125060D01*
X0057344Y0125060D01*
X0058705Y0122845D02*
X0057737Y0121877D01*
X0058705Y0122845D02*
X0058705Y0119942D01*
X0059672Y0119942D02*
X0057737Y0119942D01*
X0058311Y0117726D02*
X0058311Y0114824D01*
X0057344Y0114824D02*
X0059279Y0114824D01*
X0060290Y0114824D02*
X0062225Y0116759D01*
X0062225Y0117243D01*
X0061741Y0117726D01*
X0060774Y0117726D01*
X0060290Y0117243D01*
X0060290Y0114824D02*
X0062225Y0114824D01*
X0060573Y0112558D02*
X0061057Y0112074D01*
X0061057Y0111590D01*
X0060573Y0111107D01*
X0061057Y0110623D01*
X0061057Y0110139D01*
X0060573Y0109656D01*
X0059605Y0109656D01*
X0059122Y0110139D01*
X0060089Y0111107D02*
X0060573Y0111107D01*
X0060573Y0112558D02*
X0059605Y0112558D01*
X0059122Y0112074D01*
X0058311Y0107884D02*
X0058311Y0104981D01*
X0057344Y0104981D02*
X0059279Y0104981D01*
X0060290Y0106433D02*
X0062225Y0106433D01*
X0061741Y0107884D02*
X0061741Y0104981D01*
X0062225Y0102766D02*
X0060290Y0102766D01*
X0060290Y0101315D01*
X0061258Y0101798D01*
X0061741Y0101798D01*
X0062225Y0101315D01*
X0062225Y0100347D01*
X0061741Y0099863D01*
X0060774Y0099863D01*
X0060290Y0100347D01*
X0059279Y0099863D02*
X0057344Y0099863D01*
X0057344Y0101798D02*
X0058311Y0102766D01*
X0058311Y0099863D01*
X0058311Y0097648D02*
X0057344Y0096680D01*
X0058311Y0097648D02*
X0058311Y0094745D01*
X0057344Y0094745D02*
X0059279Y0094745D01*
X0060290Y0095229D02*
X0060774Y0094745D01*
X0061741Y0094745D01*
X0062225Y0095229D01*
X0062225Y0095713D01*
X0061741Y0096197D01*
X0060290Y0096197D01*
X0060290Y0095229D01*
X0060290Y0096197D02*
X0061258Y0097164D01*
X0062225Y0097648D01*
X0060370Y0092923D02*
X0060853Y0092440D01*
X0060853Y0091956D01*
X0060370Y0091472D01*
X0059402Y0091472D01*
X0058919Y0091956D01*
X0058919Y0092440D01*
X0059402Y0092923D01*
X0060370Y0092923D01*
X0060370Y0091472D02*
X0060853Y0090988D01*
X0060853Y0090505D01*
X0060370Y0090021D01*
X0059402Y0090021D01*
X0058919Y0090505D01*
X0058919Y0090988D01*
X0059402Y0091472D01*
X0059312Y0087412D02*
X0061247Y0087412D01*
X0061247Y0086928D01*
X0059312Y0084993D01*
X0059312Y0084509D01*
X0060280Y0081810D02*
X0059312Y0080842D01*
X0060763Y0080842D01*
X0061247Y0080358D01*
X0061247Y0079875D01*
X0060763Y0079391D01*
X0059796Y0079391D01*
X0059312Y0079875D01*
X0059312Y0080842D01*
X0060280Y0081810D02*
X0061247Y0082293D01*
X0061247Y0077569D02*
X0059312Y0077569D01*
X0059312Y0076118D01*
X0060280Y0076602D01*
X0060763Y0076602D01*
X0061247Y0076118D01*
X0061247Y0075150D01*
X0060763Y0074667D01*
X0059796Y0074667D01*
X0059312Y0075150D01*
X0060763Y0072845D02*
X0059312Y0071393D01*
X0061247Y0071393D01*
X0060763Y0069942D02*
X0060763Y0072845D01*
X0060763Y0067726D02*
X0059796Y0067726D01*
X0059312Y0067243D01*
X0060280Y0066275D02*
X0060763Y0066275D01*
X0061247Y0065791D01*
X0061247Y0065308D01*
X0060763Y0064824D01*
X0059796Y0064824D01*
X0059312Y0065308D01*
X0060763Y0066275D02*
X0061247Y0066759D01*
X0061247Y0067243D01*
X0060763Y0067726D01*
X0060763Y0062608D02*
X0059796Y0062608D01*
X0059312Y0062125D01*
X0060763Y0062608D02*
X0061247Y0062125D01*
X0061247Y0061641D01*
X0059312Y0059706D01*
X0061247Y0059706D01*
X0060280Y0057490D02*
X0060280Y0054588D01*
X0061247Y0054588D02*
X0059312Y0054588D01*
X0059312Y0056523D02*
X0060280Y0057490D01*
X0053957Y0059312D02*
X0052023Y0059312D01*
X0052990Y0059312D02*
X0052990Y0062215D01*
X0052023Y0061247D01*
X0051011Y0059312D02*
X0049076Y0059312D01*
X0050043Y0059312D02*
X0050043Y0062215D01*
X0049076Y0061247D01*
X0049076Y0069548D02*
X0051011Y0069548D01*
X0050043Y0069548D02*
X0050043Y0072451D01*
X0049076Y0071483D01*
X0052023Y0071967D02*
X0052023Y0070032D01*
X0053957Y0071967D01*
X0053957Y0070032D01*
X0053474Y0069548D01*
X0052506Y0069548D01*
X0052023Y0070032D01*
X0052023Y0071967D02*
X0052506Y0072451D01*
X0053474Y0072451D01*
X0053957Y0071967D01*
X0051315Y0079391D02*
X0050347Y0079391D01*
X0049863Y0079875D01*
X0050347Y0080842D02*
X0051798Y0080842D01*
X0051798Y0079875D02*
X0051798Y0081810D01*
X0051315Y0082293D01*
X0050347Y0082293D01*
X0049863Y0081810D01*
X0049863Y0081326D01*
X0050347Y0080842D01*
X0051798Y0079875D02*
X0051315Y0079391D01*
X0052506Y0052372D02*
X0052023Y0051888D01*
X0052506Y0052372D02*
X0053474Y0052372D01*
X0053957Y0051888D01*
X0053957Y0051405D01*
X0052023Y0049470D01*
X0053957Y0049470D01*
X0051011Y0049470D02*
X0049076Y0049470D01*
X0050043Y0049470D02*
X0050043Y0052372D01*
X0049076Y0051405D01*
X0048875Y0042086D02*
X0047907Y0041118D01*
X0048875Y0042086D02*
X0048875Y0039183D01*
X0049842Y0039183D02*
X0047907Y0039183D01*
X0050854Y0039667D02*
X0051338Y0039183D01*
X0052305Y0039183D01*
X0052789Y0039667D01*
X0052789Y0040151D01*
X0052305Y0040634D01*
X0051821Y0040634D01*
X0052305Y0040634D02*
X0052789Y0041118D01*
X0052789Y0041602D01*
X0052305Y0042086D01*
X0051338Y0042086D01*
X0050854Y0041602D01*
X0050043Y0032293D02*
X0050043Y0029391D01*
X0049076Y0029391D02*
X0051011Y0029391D01*
X0052023Y0030842D02*
X0053957Y0030842D01*
X0053474Y0029391D02*
X0053474Y0032293D01*
X0052023Y0030842D01*
X0050043Y0032293D02*
X0049076Y0031326D01*
X0050437Y0022451D02*
X0049470Y0021483D01*
X0050437Y0022451D02*
X0050437Y0019548D01*
X0049470Y0019548D02*
X0051405Y0019548D01*
X0052416Y0020032D02*
X0052900Y0019548D01*
X0053867Y0019548D01*
X0054351Y0020032D01*
X0054351Y0021000D01*
X0053867Y0021483D01*
X0053384Y0021483D01*
X0052416Y0021000D01*
X0052416Y0022451D01*
X0054351Y0022451D01*
X0054351Y0012215D02*
X0053384Y0011731D01*
X0052416Y0010763D01*
X0053867Y0010763D01*
X0054351Y0010280D01*
X0054351Y0009796D01*
X0053867Y0009312D01*
X0052900Y0009312D01*
X0052416Y0009796D01*
X0052416Y0010763D01*
X0051405Y0009312D02*
X0049470Y0009312D01*
X0050437Y0009312D02*
X0050437Y0012215D01*
X0049470Y0011247D01*
X0060290Y0106433D02*
X0061741Y0107884D01*
X0058311Y0107884D02*
X0057344Y0106916D01*
X0057344Y0116759D02*
X0058311Y0117726D01*
X0060684Y0119942D02*
X0062619Y0119942D01*
X0061651Y0119942D02*
X0061651Y0122845D01*
X0060684Y0121877D01*
X0060774Y0125060D02*
X0060290Y0125544D01*
X0062225Y0127479D01*
X0062225Y0125544D01*
X0061741Y0125060D01*
X0060774Y0125060D01*
X0060290Y0125544D01*
X0060290Y0127479D01*
X0060774Y0127963D01*
X0061741Y0127963D01*
X0062225Y0127479D01*
X0060290Y0125544D01*
X0060290Y0127479D01*
X0060774Y0127963D01*
X0061741Y0127963D01*
X0062225Y0127479D01*
X0062225Y0125544D01*
X0061741Y0125060D01*
X0060774Y0125060D01*
X0060370Y0130178D02*
X0059402Y0130178D01*
X0058919Y0130662D01*
X0059402Y0130178D01*
X0060370Y0130178D01*
X0060853Y0130662D01*
X0060853Y0132597D01*
X0060370Y0133081D01*
X0059402Y0133081D01*
X0058919Y0132597D01*
X0058919Y0132113D01*
X0059402Y0131630D01*
X0060853Y0131630D01*
X0059402Y0131630D01*
X0058919Y0132113D01*
X0058919Y0132597D01*
X0059402Y0133081D01*
X0060370Y0133081D01*
X0060853Y0132597D01*
X0060853Y0130662D01*
X0060370Y0130178D01*
X0051898Y0122164D02*
X0051898Y0121680D01*
X0051414Y0121197D01*
X0051898Y0120713D01*
X0051898Y0120229D01*
X0051414Y0119745D01*
X0050447Y0119745D01*
X0049963Y0120229D01*
X0050930Y0121197D02*
X0051414Y0121197D01*
X0051898Y0122164D02*
X0051414Y0122648D01*
X0050447Y0122648D01*
X0049963Y0122164D01*
X0048951Y0122648D02*
X0047016Y0119745D01*
X0046005Y0119745D02*
X0044070Y0119745D01*
X0043058Y0119745D02*
X0041123Y0119745D01*
X0041123Y0121680D02*
X0042091Y0122648D01*
X0042091Y0119745D01*
X0042091Y0117923D02*
X0042091Y0115021D01*
X0043058Y0115021D02*
X0041123Y0115021D01*
X0041123Y0116956D02*
X0042091Y0117923D01*
X0044070Y0121680D02*
X0045037Y0122648D01*
X0045037Y0119745D01*
M02*
