G75*
%MOIN*%
%OFA0B0*%
%FSLAX25Y25*%
%IPPOS*%
%LPD*%
%AMOC8*
5,1,8,0,0,1.08239X$1,22.5*
%
%ADD10R,0.05162X0.05162*%
%ADD11R,0.04572X0.04572*%
%ADD12C,0.04965*%
D10*
X0015776Y0010776D03*
X0015776Y0020776D03*
X0015776Y0030776D03*
X0015776Y0040776D03*
X0015776Y0050776D03*
X0015776Y0060776D03*
X0015776Y0070776D03*
X0015776Y0080776D03*
X0045776Y0080776D03*
X0045776Y0070776D03*
X0045776Y0060776D03*
X0045776Y0050776D03*
X0045776Y0040776D03*
X0045776Y0030776D03*
X0045776Y0020776D03*
X0045776Y0010776D03*
D11*
X0038276Y0096643D03*
X0038276Y0101643D03*
X0038276Y0106643D03*
X0038276Y0111643D03*
X0038276Y0116643D03*
X0038276Y0121643D03*
X0038276Y0126643D03*
X0038276Y0131643D03*
X0038276Y0136643D03*
X0038276Y0141643D03*
X0033276Y0141643D03*
X0033276Y0136643D03*
X0033276Y0131643D03*
X0033276Y0126643D03*
X0033276Y0121643D03*
X0033276Y0116643D03*
X0033276Y0111643D03*
X0033276Y0106643D03*
X0033276Y0101643D03*
X0033276Y0096643D03*
X0028276Y0096643D03*
X0028276Y0101643D03*
X0028276Y0106643D03*
X0028276Y0111643D03*
X0028276Y0116643D03*
X0028276Y0121643D03*
X0028276Y0126643D03*
X0028276Y0131643D03*
X0028276Y0136643D03*
X0028276Y0141643D03*
X0023276Y0141643D03*
X0023276Y0136643D03*
X0023276Y0131643D03*
X0023276Y0126643D03*
X0023276Y0121643D03*
X0023276Y0116643D03*
X0023276Y0111643D03*
X0023276Y0106643D03*
X0023276Y0101643D03*
X0023276Y0096643D03*
D12*
X0064639Y0096682D02*
X0068804Y0096682D01*
X0068804Y0101682D02*
X0064639Y0101682D01*
X0064639Y0106682D02*
X0068804Y0106682D01*
X0068804Y0111682D02*
X0064639Y0111682D01*
X0064639Y0116682D02*
X0068804Y0116682D01*
X0068804Y0121682D02*
X0064639Y0121682D01*
X0064639Y0126682D02*
X0068804Y0126682D01*
X0068804Y0131682D02*
X0064639Y0131682D01*
X0064639Y0091682D02*
X0068804Y0091682D01*
X0068804Y0086682D02*
X0064639Y0086682D01*
X0064639Y0081682D02*
X0068804Y0081682D01*
X0068804Y0076682D02*
X0064639Y0076682D01*
X0064639Y0071682D02*
X0068804Y0071682D01*
X0068804Y0066682D02*
X0064639Y0066682D01*
X0064639Y0061682D02*
X0068804Y0061682D01*
X0068804Y0056682D02*
X0064639Y0056682D01*
X0064639Y0051682D02*
X0068804Y0051682D01*
X0068804Y0046682D02*
X0064639Y0046682D01*
X0064639Y0041682D02*
X0068804Y0041682D01*
X0068804Y0036682D02*
X0064639Y0036682D01*
M02*
