%
M48
M72
T01C0.0118
T02C0.0236
T03C0.0394
T04C0.0400
T05C0.1300
%
T01
X8374Y7562
X9161Y7562
X9948Y7562
X10736Y7562
X11523Y7562
X12311Y7562
X13098Y7562
X13885Y7562
X14673Y7562
X15460Y7562
X16248Y7562
X17035Y7562
X17822Y7562
X18610Y7562
X19397Y7562
X20185Y7562
X20972Y7562
X21759Y7562
X22547Y7562
X23334Y7562
X24122Y7562
X24909Y7562
X25696Y7562
X26484Y7562
X27271Y7562
X28059Y7562
X28846Y7562
X29633Y7562
X30421Y7562
X31208Y7562
X31996Y7562
X32783Y7562
X24338Y15337
X23846Y15337
X23334Y15337
X22842Y15337
X22350Y15337
X21838Y15318
X21317Y15337
X20824Y15337
X20332Y15337
X19840Y15337
X19348Y15337
X18826Y15337
X18315Y15318
X17822Y15337
X17330Y15337
X16838Y15337
X16838Y19176
X17330Y19166
X17822Y19166
X18334Y19166
X18846Y19166
X19338Y19166
X19830Y19166
X20342Y19166
X20834Y19166
X21346Y19166
X21858Y19156
X22330Y19156
X22842Y19137
X23334Y19117
X23846Y19117
X24358Y19117
X22212Y22739
X21956Y23172
X21484Y23172
X21720Y22739
X21228Y22739
X20972Y23172
X20480Y23172
X20716Y22739
X20224Y22739
X19732Y22739
X19968Y23172
X19476Y23172
X19220Y22739
X18728Y22739
X18964Y23172
X22468Y23172
T02
X32094Y15780
X33324Y13812
T03
X25074Y17326
X16074Y17326
T04
X16210Y4247
X15130Y4247
X14040Y4247
X12950Y4247
X11870Y4247
X10780Y4247
X11320Y3127
X12410Y3127
X13500Y3127
X14580Y3127
X15670Y3127
X16760Y3127
X17840Y3127
X18930Y3127
X20020Y3127
X21100Y3127
X22190Y3127
X23280Y3127
X24370Y3127
X25450Y3127
X26540Y3127
X27630Y3127
X28710Y3127
X29800Y3127
X29260Y4247
X30340Y4247
X28170Y4247
X27080Y4247
X26000Y4247
X24910Y4247
X23820Y4247
X22730Y4247
X21650Y4247
X20560Y4247
X19470Y4247
X18390Y4247
X17300Y4247
T05
X8060Y3687
X33060Y3687
M30
