G75*
%MOIN*%
%OFA0B0*%
%FSLAX25Y25*%
%IPPOS*%
%LPD*%
%AMOC8*
5,1,8,0,0,1.08239X$1,22.5*
%
%ADD10R,0.03543X0.02756*%
%ADD11R,0.02756X0.03543*%
%ADD12R,0.01500X0.05000*%
%ADD13R,0.02362X0.09843*%
D10*
X0083736Y0081918D03*
X0083736Y0087036D03*
X0091610Y0087036D03*
X0091610Y0081918D03*
X0099484Y0081918D03*
X0099484Y0087036D03*
X0107358Y0087036D03*
X0107358Y0081918D03*
X0115232Y0081918D03*
X0115232Y0087036D03*
X0123106Y0087036D03*
X0123106Y0081918D03*
X0130980Y0081918D03*
X0130980Y0087036D03*
X0138854Y0087036D03*
X0138854Y0081918D03*
X0146728Y0081918D03*
X0146728Y0087036D03*
X0154602Y0087036D03*
X0154602Y0081918D03*
X0162476Y0081918D03*
X0162476Y0087036D03*
X0170350Y0087036D03*
X0170350Y0081918D03*
X0178224Y0081918D03*
X0178224Y0087036D03*
X0186098Y0087036D03*
X0186098Y0081918D03*
X0193972Y0081918D03*
X0193972Y0087036D03*
X0201846Y0087036D03*
X0201846Y0081918D03*
X0209720Y0081918D03*
X0209720Y0087036D03*
X0217594Y0087036D03*
X0217594Y0081918D03*
X0225469Y0081918D03*
X0225469Y0087036D03*
X0233343Y0087036D03*
X0233343Y0081918D03*
X0241217Y0081918D03*
X0241217Y0087036D03*
X0249091Y0087036D03*
X0249091Y0081918D03*
X0256965Y0081918D03*
X0256965Y0087036D03*
X0264839Y0087036D03*
X0264839Y0081918D03*
X0272713Y0081918D03*
X0272713Y0087036D03*
X0280587Y0087036D03*
X0280587Y0081918D03*
X0288461Y0081918D03*
X0288461Y0087036D03*
X0296335Y0087036D03*
X0296335Y0081918D03*
X0304209Y0081918D03*
X0304209Y0087036D03*
X0312083Y0087036D03*
X0312083Y0081918D03*
X0319957Y0081918D03*
X0319957Y0087036D03*
X0327831Y0087036D03*
X0327831Y0081918D03*
X0327831Y0107509D03*
X0327831Y0112627D03*
X0319957Y0112627D03*
X0319957Y0107509D03*
X0312083Y0107509D03*
X0312083Y0112627D03*
X0304209Y0112627D03*
X0304209Y0107509D03*
X0296335Y0107509D03*
X0296335Y0112627D03*
X0288461Y0112627D03*
X0288461Y0107509D03*
X0280587Y0107509D03*
X0280587Y0112627D03*
X0272713Y0112627D03*
X0272713Y0107509D03*
X0264839Y0107509D03*
X0264839Y0112627D03*
X0256965Y0112627D03*
X0256965Y0107509D03*
X0249091Y0107509D03*
X0249091Y0112627D03*
X0241217Y0112627D03*
X0241217Y0107509D03*
X0233343Y0107509D03*
X0233343Y0112627D03*
X0225469Y0112627D03*
X0225469Y0107509D03*
X0217594Y0107509D03*
X0217594Y0112627D03*
X0209720Y0112627D03*
X0209720Y0107509D03*
X0201846Y0107509D03*
X0201846Y0112627D03*
X0193972Y0112627D03*
X0193972Y0107509D03*
X0186098Y0107509D03*
X0186098Y0112627D03*
X0178224Y0112627D03*
X0178224Y0107509D03*
X0170350Y0107509D03*
X0170350Y0112627D03*
X0162476Y0112627D03*
X0162476Y0107509D03*
X0154602Y0107509D03*
X0154602Y0112627D03*
X0146728Y0112627D03*
X0146728Y0107509D03*
X0138854Y0107509D03*
X0138854Y0112627D03*
X0130980Y0113020D03*
X0130980Y0107902D03*
X0123106Y0107509D03*
X0123106Y0112627D03*
X0115232Y0112627D03*
X0115232Y0107509D03*
X0107358Y0107509D03*
X0107358Y0112627D03*
X0099484Y0112627D03*
X0099484Y0107509D03*
X0091610Y0107509D03*
X0091610Y0112627D03*
X0083736Y0112627D03*
X0083736Y0107509D03*
X0083736Y0133099D03*
X0083736Y0138217D03*
X0091610Y0138217D03*
X0091610Y0133099D03*
X0099484Y0133099D03*
X0099484Y0138217D03*
X0107358Y0138217D03*
X0107358Y0133099D03*
X0115232Y0133099D03*
X0115232Y0138217D03*
X0123106Y0138217D03*
X0123106Y0133099D03*
X0130980Y0133099D03*
X0130980Y0138217D03*
X0138854Y0138217D03*
X0138854Y0133099D03*
X0146728Y0133099D03*
X0146728Y0138217D03*
X0154602Y0138217D03*
X0154602Y0133099D03*
X0162476Y0133099D03*
X0162476Y0138217D03*
X0170350Y0138217D03*
X0170350Y0133099D03*
X0178224Y0133099D03*
X0178224Y0138217D03*
X0186098Y0138217D03*
X0186098Y0133099D03*
X0193972Y0133099D03*
X0193972Y0138217D03*
X0201846Y0138217D03*
X0201846Y0133099D03*
X0209720Y0133099D03*
X0209720Y0138217D03*
X0217594Y0138217D03*
X0217594Y0133099D03*
X0225469Y0133099D03*
X0225469Y0138217D03*
X0233343Y0138217D03*
X0233343Y0133099D03*
X0241217Y0133099D03*
X0241217Y0138217D03*
X0249091Y0138217D03*
X0249091Y0133099D03*
X0256965Y0133099D03*
X0256965Y0138217D03*
X0264839Y0138217D03*
X0264839Y0133099D03*
X0272713Y0133099D03*
X0272713Y0138217D03*
X0280587Y0138217D03*
X0280587Y0133099D03*
X0288461Y0133099D03*
X0288461Y0138217D03*
X0296335Y0138217D03*
X0296335Y0133099D03*
X0304209Y0133099D03*
X0304209Y0138217D03*
X0312083Y0138217D03*
X0312083Y0133099D03*
X0319957Y0133099D03*
X0319957Y0138217D03*
X0327831Y0138217D03*
X0327831Y0133099D03*
D11*
X0329209Y0125816D03*
X0334327Y0125816D03*
X0326453Y0119910D03*
X0321335Y0119910D03*
X0318579Y0125816D03*
X0313461Y0125816D03*
X0310705Y0119910D03*
X0305587Y0119910D03*
X0302831Y0125816D03*
X0297713Y0125816D03*
X0294957Y0119910D03*
X0289839Y0119910D03*
X0287083Y0125816D03*
X0281965Y0125816D03*
X0279209Y0119910D03*
X0274091Y0119910D03*
X0271335Y0125816D03*
X0266217Y0125816D03*
X0263461Y0119910D03*
X0258343Y0119910D03*
X0255587Y0125816D03*
X0250469Y0125816D03*
X0247713Y0119910D03*
X0242594Y0119910D03*
X0239839Y0125816D03*
X0234720Y0125816D03*
X0231965Y0119910D03*
X0226846Y0119910D03*
X0224091Y0125816D03*
X0218972Y0125816D03*
X0216217Y0119910D03*
X0211098Y0119910D03*
X0208343Y0125816D03*
X0203224Y0125816D03*
X0200469Y0119910D03*
X0195350Y0119910D03*
X0192594Y0125816D03*
X0187476Y0125816D03*
X0184720Y0119910D03*
X0179602Y0119910D03*
X0176846Y0125816D03*
X0171728Y0125816D03*
X0168972Y0119910D03*
X0163854Y0119910D03*
X0161098Y0125816D03*
X0155980Y0125816D03*
X0153224Y0119910D03*
X0148106Y0119910D03*
X0145350Y0125816D03*
X0140232Y0125816D03*
X0137476Y0119910D03*
X0132358Y0119910D03*
X0129602Y0125816D03*
X0124484Y0125816D03*
X0121728Y0119910D03*
X0116610Y0119910D03*
X0113854Y0125816D03*
X0108736Y0125816D03*
X0105980Y0119910D03*
X0100862Y0119910D03*
X0098106Y0125816D03*
X0092988Y0125816D03*
X0090232Y0119910D03*
X0085114Y0119910D03*
X0092988Y0100225D03*
X0098106Y0100225D03*
X0100862Y0094320D03*
X0105980Y0094320D03*
X0108736Y0100225D03*
X0113854Y0100225D03*
X0116610Y0094320D03*
X0121728Y0094320D03*
X0124484Y0100225D03*
X0129602Y0100225D03*
X0132358Y0094320D03*
X0137476Y0094320D03*
X0140232Y0100225D03*
X0145350Y0100225D03*
X0148106Y0094320D03*
X0153224Y0094320D03*
X0155980Y0100225D03*
X0161098Y0100225D03*
X0163854Y0094320D03*
X0168972Y0094320D03*
X0171728Y0100225D03*
X0176846Y0100225D03*
X0179602Y0094320D03*
X0184720Y0094320D03*
X0187476Y0100225D03*
X0192594Y0100225D03*
X0195350Y0094320D03*
X0200469Y0094320D03*
X0203224Y0100225D03*
X0208343Y0100225D03*
X0211098Y0094320D03*
X0216217Y0094320D03*
X0218972Y0100225D03*
X0224091Y0100225D03*
X0226846Y0094320D03*
X0231965Y0094320D03*
X0234720Y0100225D03*
X0239839Y0100225D03*
X0242594Y0094320D03*
X0247713Y0094320D03*
X0250469Y0100225D03*
X0255587Y0100225D03*
X0258343Y0094320D03*
X0263461Y0094320D03*
X0266217Y0100225D03*
X0271335Y0100225D03*
X0274091Y0094320D03*
X0279209Y0094320D03*
X0281965Y0100225D03*
X0287083Y0100225D03*
X0289839Y0094320D03*
X0294957Y0094320D03*
X0297713Y0100225D03*
X0302831Y0100225D03*
X0305587Y0094320D03*
X0310705Y0094320D03*
X0313461Y0100225D03*
X0318579Y0100225D03*
X0321335Y0094320D03*
X0326453Y0094320D03*
X0329209Y0100225D03*
X0334327Y0100225D03*
X0090232Y0094320D03*
X0085114Y0094320D03*
D12*
X0184730Y0214139D03*
X0187230Y0214139D03*
X0189730Y0214139D03*
X0192230Y0214139D03*
X0194730Y0214139D03*
X0197230Y0214139D03*
X0199730Y0214139D03*
X0202230Y0214139D03*
X0204730Y0214139D03*
X0207230Y0214139D03*
X0209730Y0214139D03*
X0212230Y0214139D03*
X0214730Y0214139D03*
X0217230Y0214139D03*
X0219730Y0214139D03*
X0222230Y0214139D03*
X0224730Y0214139D03*
X0227230Y0214139D03*
X0227230Y0222139D03*
X0224730Y0222139D03*
X0222230Y0222139D03*
X0219730Y0222139D03*
X0217230Y0222139D03*
X0214730Y0222139D03*
X0212230Y0222139D03*
X0209730Y0222139D03*
X0207230Y0222139D03*
X0204730Y0222139D03*
X0202230Y0222139D03*
X0199730Y0222139D03*
X0197230Y0222139D03*
X0194730Y0222139D03*
X0192230Y0222139D03*
X0189730Y0222139D03*
X0187230Y0222139D03*
X0184730Y0222139D03*
D13*
X0183244Y0182213D03*
X0178244Y0182213D03*
X0173244Y0182213D03*
X0168244Y0182213D03*
X0163244Y0182213D03*
X0158244Y0182213D03*
X0158244Y0164300D03*
X0163244Y0164300D03*
X0168244Y0164300D03*
X0173244Y0164300D03*
X0178244Y0164300D03*
X0183244Y0164300D03*
X0188244Y0164300D03*
X0193244Y0164300D03*
X0198244Y0164300D03*
X0203244Y0164300D03*
X0208244Y0164300D03*
X0213244Y0164300D03*
X0218244Y0164300D03*
X0223244Y0164300D03*
X0228244Y0164300D03*
X0233244Y0164300D03*
X0238244Y0164300D03*
X0243244Y0164300D03*
X0248244Y0164300D03*
X0253244Y0164300D03*
X0253244Y0182213D03*
X0248244Y0182213D03*
X0243244Y0182213D03*
X0238244Y0182213D03*
X0233244Y0182213D03*
X0228244Y0182213D03*
X0223244Y0182213D03*
X0218244Y0182213D03*
X0213244Y0182213D03*
X0208244Y0182213D03*
X0203244Y0182213D03*
X0198244Y0182213D03*
X0193244Y0182213D03*
X0188244Y0182213D03*
M02*
