G75*
%MOIN*%
%OFA0B0*%
%FSLAX25Y25*%
%IPPOS*%
%LPD*%
%AMOC8*
5,1,8,0,0,1.08239X$1,22.5*
%
%ADD10C,0.00600*%
%ADD11C,0.00300*%
%ADD12R,0.02362X0.01181*%
%ADD13C,0.00200*%
%ADD14R,0.01181X0.02362*%
%ADD15C,0.00800*%
%ADD16C,0.00500*%
D10*
X0082854Y0083513D02*
X0082854Y0085442D01*
X0084618Y0085442D02*
X0084618Y0083513D01*
X0090728Y0083513D02*
X0090728Y0085442D01*
X0092492Y0085442D02*
X0092492Y0083513D01*
X0098602Y0083513D02*
X0098602Y0085442D01*
X0100366Y0085442D02*
X0100366Y0083513D01*
X0106476Y0083513D02*
X0106476Y0085442D01*
X0108240Y0085442D02*
X0108240Y0083513D01*
X0114350Y0083513D02*
X0114350Y0085442D01*
X0116114Y0085442D02*
X0116114Y0083513D01*
X0122224Y0083513D02*
X0122224Y0085442D01*
X0123988Y0085442D02*
X0123988Y0083513D01*
X0130098Y0083513D02*
X0130098Y0085442D01*
X0131862Y0085442D02*
X0131862Y0083513D01*
X0137972Y0083513D02*
X0137972Y0085442D01*
X0139736Y0085442D02*
X0139736Y0083513D01*
X0145846Y0083513D02*
X0145846Y0085442D01*
X0147610Y0085442D02*
X0147610Y0083513D01*
X0153720Y0083513D02*
X0153720Y0085442D01*
X0155484Y0085442D02*
X0155484Y0083513D01*
X0161594Y0083513D02*
X0161594Y0085442D01*
X0163358Y0085442D02*
X0163358Y0083513D01*
X0169469Y0083513D02*
X0169469Y0085442D01*
X0171232Y0085442D02*
X0171232Y0083513D01*
X0177343Y0083513D02*
X0177343Y0085442D01*
X0179106Y0085442D02*
X0179106Y0083513D01*
X0185217Y0083513D02*
X0185217Y0085442D01*
X0186980Y0085442D02*
X0186980Y0083513D01*
X0193091Y0083513D02*
X0193091Y0085442D01*
X0194854Y0085442D02*
X0194854Y0083513D01*
X0200965Y0083513D02*
X0200965Y0085442D01*
X0202728Y0085442D02*
X0202728Y0083513D01*
X0208839Y0083513D02*
X0208839Y0085442D01*
X0210602Y0085442D02*
X0210602Y0083513D01*
X0216713Y0083513D02*
X0216713Y0085442D01*
X0218476Y0085442D02*
X0218476Y0083513D01*
X0224587Y0083513D02*
X0224587Y0085442D01*
X0226350Y0085442D02*
X0226350Y0083513D01*
X0232461Y0083513D02*
X0232461Y0085442D01*
X0234224Y0085442D02*
X0234224Y0083513D01*
X0240335Y0083513D02*
X0240335Y0085442D01*
X0242098Y0085442D02*
X0242098Y0083513D01*
X0248209Y0083513D02*
X0248209Y0085442D01*
X0249972Y0085442D02*
X0249972Y0083513D01*
X0256083Y0083513D02*
X0256083Y0085442D01*
X0257846Y0085442D02*
X0257846Y0083513D01*
X0263957Y0083513D02*
X0263957Y0085442D01*
X0265720Y0085442D02*
X0265720Y0083513D01*
X0271831Y0083513D02*
X0271831Y0085442D01*
X0273594Y0085442D02*
X0273594Y0083513D01*
X0279705Y0083513D02*
X0279705Y0085442D01*
X0281469Y0085442D02*
X0281469Y0083513D01*
X0287579Y0083513D02*
X0287579Y0085442D01*
X0289343Y0085442D02*
X0289343Y0083513D01*
X0295453Y0083513D02*
X0295453Y0085442D01*
X0297217Y0085442D02*
X0297217Y0083513D01*
X0303327Y0083513D02*
X0303327Y0085442D01*
X0305091Y0085442D02*
X0305091Y0083513D01*
X0311201Y0083513D02*
X0311201Y0085442D01*
X0312965Y0085442D02*
X0312965Y0083513D01*
X0319075Y0083513D02*
X0319075Y0085442D01*
X0320839Y0085442D02*
X0320839Y0083513D01*
X0326949Y0083513D02*
X0326949Y0085442D01*
X0328713Y0085442D02*
X0328713Y0083513D01*
X0324858Y0093438D02*
X0322929Y0093438D01*
X0322929Y0095202D02*
X0324858Y0095202D01*
X0330803Y0099343D02*
X0332732Y0099343D01*
X0332732Y0101107D02*
X0330803Y0101107D01*
X0328713Y0109103D02*
X0328713Y0111032D01*
X0326949Y0111032D02*
X0326949Y0109103D01*
X0320839Y0109103D02*
X0320839Y0111032D01*
X0319075Y0111032D02*
X0319075Y0109103D01*
X0312965Y0109103D02*
X0312965Y0111032D01*
X0311201Y0111032D02*
X0311201Y0109103D01*
X0305091Y0109103D02*
X0305091Y0111032D01*
X0303327Y0111032D02*
X0303327Y0109103D01*
X0297217Y0109103D02*
X0297217Y0111032D01*
X0295453Y0111032D02*
X0295453Y0109103D01*
X0289343Y0109103D02*
X0289343Y0111032D01*
X0287579Y0111032D02*
X0287579Y0109103D01*
X0281469Y0109103D02*
X0281469Y0111032D01*
X0279705Y0111032D02*
X0279705Y0109103D01*
X0273594Y0109103D02*
X0273594Y0111032D01*
X0271831Y0111032D02*
X0271831Y0109103D01*
X0265720Y0109103D02*
X0265720Y0111032D01*
X0263957Y0111032D02*
X0263957Y0109103D01*
X0257846Y0109103D02*
X0257846Y0111032D01*
X0256083Y0111032D02*
X0256083Y0109103D01*
X0249972Y0109103D02*
X0249972Y0111032D01*
X0248209Y0111032D02*
X0248209Y0109103D01*
X0242098Y0109103D02*
X0242098Y0111032D01*
X0240335Y0111032D02*
X0240335Y0109103D01*
X0234224Y0109103D02*
X0234224Y0111032D01*
X0232461Y0111032D02*
X0232461Y0109103D01*
X0226350Y0109103D02*
X0226350Y0111032D01*
X0224587Y0111032D02*
X0224587Y0109103D01*
X0218476Y0109103D02*
X0218476Y0111032D01*
X0216713Y0111032D02*
X0216713Y0109103D01*
X0210602Y0109103D02*
X0210602Y0111032D01*
X0208839Y0111032D02*
X0208839Y0109103D01*
X0202728Y0109103D02*
X0202728Y0111032D01*
X0200965Y0111032D02*
X0200965Y0109103D01*
X0194854Y0109103D02*
X0194854Y0111032D01*
X0193091Y0111032D02*
X0193091Y0109103D01*
X0186980Y0109103D02*
X0186980Y0111032D01*
X0185217Y0111032D02*
X0185217Y0109103D01*
X0179106Y0109103D02*
X0179106Y0111032D01*
X0177343Y0111032D02*
X0177343Y0109103D01*
X0171232Y0109103D02*
X0171232Y0111032D01*
X0169469Y0111032D02*
X0169469Y0109103D01*
X0163358Y0109103D02*
X0163358Y0111032D01*
X0161594Y0111032D02*
X0161594Y0109103D01*
X0155484Y0109103D02*
X0155484Y0111032D01*
X0153720Y0111032D02*
X0153720Y0109103D01*
X0147610Y0109103D02*
X0147610Y0111032D01*
X0145846Y0111032D02*
X0145846Y0109103D01*
X0139736Y0109103D02*
X0139736Y0111032D01*
X0137972Y0111032D02*
X0137972Y0109103D01*
X0131862Y0109497D02*
X0131862Y0111426D01*
X0130098Y0111426D02*
X0130098Y0109497D01*
X0123988Y0109103D02*
X0123988Y0111032D01*
X0122224Y0111032D02*
X0122224Y0109103D01*
X0116114Y0109103D02*
X0116114Y0111032D01*
X0114350Y0111032D02*
X0114350Y0109103D01*
X0108240Y0109103D02*
X0108240Y0111032D01*
X0106476Y0111032D02*
X0106476Y0109103D01*
X0100366Y0109103D02*
X0100366Y0111032D01*
X0098602Y0111032D02*
X0098602Y0109103D01*
X0092492Y0109103D02*
X0092492Y0111032D01*
X0090728Y0111032D02*
X0090728Y0109103D01*
X0084618Y0109103D02*
X0084618Y0111032D01*
X0082854Y0111032D02*
X0082854Y0109103D01*
X0086709Y0119028D02*
X0088638Y0119028D01*
X0088638Y0120792D02*
X0086709Y0120792D01*
X0094583Y0124934D02*
X0096512Y0124934D01*
X0096512Y0126698D02*
X0094583Y0126698D01*
X0092492Y0134694D02*
X0092492Y0136623D01*
X0090728Y0136623D02*
X0090728Y0134694D01*
X0084618Y0134694D02*
X0084618Y0136623D01*
X0082854Y0136623D02*
X0082854Y0134694D01*
X0098602Y0134694D02*
X0098602Y0136623D01*
X0100366Y0136623D02*
X0100366Y0134694D01*
X0106476Y0134694D02*
X0106476Y0136623D01*
X0108240Y0136623D02*
X0108240Y0134694D01*
X0114350Y0134694D02*
X0114350Y0136623D01*
X0116114Y0136623D02*
X0116114Y0134694D01*
X0122224Y0134694D02*
X0122224Y0136623D01*
X0123988Y0136623D02*
X0123988Y0134694D01*
X0130098Y0134694D02*
X0130098Y0136623D01*
X0131862Y0136623D02*
X0131862Y0134694D01*
X0137972Y0134694D02*
X0137972Y0136623D01*
X0139736Y0136623D02*
X0139736Y0134694D01*
X0145846Y0134694D02*
X0145846Y0136623D01*
X0147610Y0136623D02*
X0147610Y0134694D01*
X0153720Y0134694D02*
X0153720Y0136623D01*
X0155484Y0136623D02*
X0155484Y0134694D01*
X0161594Y0134694D02*
X0161594Y0136623D01*
X0163358Y0136623D02*
X0163358Y0134694D01*
X0169469Y0134694D02*
X0169469Y0136623D01*
X0171232Y0136623D02*
X0171232Y0134694D01*
X0177343Y0134694D02*
X0177343Y0136623D01*
X0179106Y0136623D02*
X0179106Y0134694D01*
X0185217Y0134694D02*
X0185217Y0136623D01*
X0186980Y0136623D02*
X0186980Y0134694D01*
X0193091Y0134694D02*
X0193091Y0136623D01*
X0194854Y0136623D02*
X0194854Y0134694D01*
X0200965Y0134694D02*
X0200965Y0136623D01*
X0202728Y0136623D02*
X0202728Y0134694D01*
X0208839Y0134694D02*
X0208839Y0136623D01*
X0210602Y0136623D02*
X0210602Y0134694D01*
X0216713Y0134694D02*
X0216713Y0136623D01*
X0218476Y0136623D02*
X0218476Y0134694D01*
X0224587Y0134694D02*
X0224587Y0136623D01*
X0226350Y0136623D02*
X0226350Y0134694D01*
X0232461Y0134694D02*
X0232461Y0136623D01*
X0234224Y0136623D02*
X0234224Y0134694D01*
X0240335Y0134694D02*
X0240335Y0136623D01*
X0242098Y0136623D02*
X0242098Y0134694D01*
X0248209Y0134694D02*
X0248209Y0136623D01*
X0249972Y0136623D02*
X0249972Y0134694D01*
X0256083Y0134694D02*
X0256083Y0136623D01*
X0257846Y0136623D02*
X0257846Y0134694D01*
X0263957Y0134694D02*
X0263957Y0136623D01*
X0265720Y0136623D02*
X0265720Y0134694D01*
X0271831Y0134694D02*
X0271831Y0136623D01*
X0273594Y0136623D02*
X0273594Y0134694D01*
X0279705Y0134694D02*
X0279705Y0136623D01*
X0281469Y0136623D02*
X0281469Y0134694D01*
X0287579Y0134694D02*
X0287579Y0136623D01*
X0289343Y0136623D02*
X0289343Y0134694D01*
X0295453Y0134694D02*
X0295453Y0136623D01*
X0297217Y0136623D02*
X0297217Y0134694D01*
X0303327Y0134694D02*
X0303327Y0136623D01*
X0305091Y0136623D02*
X0305091Y0134694D01*
X0311201Y0134694D02*
X0311201Y0136623D01*
X0312965Y0136623D02*
X0312965Y0134694D01*
X0319075Y0134694D02*
X0319075Y0136623D01*
X0320839Y0136623D02*
X0320839Y0134694D01*
X0326949Y0134694D02*
X0326949Y0136623D01*
X0328713Y0136623D02*
X0328713Y0134694D01*
X0330803Y0126698D02*
X0332732Y0126698D01*
X0332732Y0124934D02*
X0330803Y0124934D01*
X0324858Y0120792D02*
X0322929Y0120792D01*
X0322929Y0119028D02*
X0324858Y0119028D01*
X0316984Y0124934D02*
X0315055Y0124934D01*
X0315055Y0126698D02*
X0316984Y0126698D01*
X0309110Y0120792D02*
X0307181Y0120792D01*
X0307181Y0119028D02*
X0309110Y0119028D01*
X0301236Y0124934D02*
X0299307Y0124934D01*
X0299307Y0126698D02*
X0301236Y0126698D01*
X0293362Y0120792D02*
X0291433Y0120792D01*
X0291433Y0119028D02*
X0293362Y0119028D01*
X0285488Y0124934D02*
X0283559Y0124934D01*
X0283559Y0126698D02*
X0285488Y0126698D01*
X0277614Y0120792D02*
X0275685Y0120792D01*
X0275685Y0119028D02*
X0277614Y0119028D01*
X0269740Y0124934D02*
X0267811Y0124934D01*
X0267811Y0126698D02*
X0269740Y0126698D01*
X0261866Y0120792D02*
X0259937Y0120792D01*
X0259937Y0119028D02*
X0261866Y0119028D01*
X0253992Y0124934D02*
X0252063Y0124934D01*
X0252063Y0126698D02*
X0253992Y0126698D01*
X0246118Y0120792D02*
X0244189Y0120792D01*
X0244189Y0119028D02*
X0246118Y0119028D01*
X0238244Y0124934D02*
X0236315Y0124934D01*
X0236315Y0126698D02*
X0238244Y0126698D01*
X0230370Y0120792D02*
X0228441Y0120792D01*
X0228441Y0119028D02*
X0230370Y0119028D01*
X0222496Y0124934D02*
X0220567Y0124934D01*
X0220567Y0126698D02*
X0222496Y0126698D01*
X0214622Y0120792D02*
X0212693Y0120792D01*
X0212693Y0119028D02*
X0214622Y0119028D01*
X0206748Y0124934D02*
X0204819Y0124934D01*
X0204819Y0126698D02*
X0206748Y0126698D01*
X0198874Y0120792D02*
X0196945Y0120792D01*
X0196945Y0119028D02*
X0198874Y0119028D01*
X0191000Y0124934D02*
X0189071Y0124934D01*
X0189071Y0126698D02*
X0191000Y0126698D01*
X0183126Y0120792D02*
X0181197Y0120792D01*
X0181197Y0119028D02*
X0183126Y0119028D01*
X0175252Y0124934D02*
X0173323Y0124934D01*
X0173323Y0126698D02*
X0175252Y0126698D01*
X0167378Y0120792D02*
X0165449Y0120792D01*
X0165449Y0119028D02*
X0167378Y0119028D01*
X0159504Y0124934D02*
X0157575Y0124934D01*
X0157575Y0126698D02*
X0159504Y0126698D01*
X0151630Y0120792D02*
X0149701Y0120792D01*
X0149701Y0119028D02*
X0151630Y0119028D01*
X0143756Y0124934D02*
X0141827Y0124934D01*
X0141827Y0126698D02*
X0143756Y0126698D01*
X0135882Y0120792D02*
X0133953Y0120792D01*
X0133953Y0119028D02*
X0135882Y0119028D01*
X0128008Y0124934D02*
X0126079Y0124934D01*
X0126079Y0126698D02*
X0128008Y0126698D01*
X0120134Y0120792D02*
X0118205Y0120792D01*
X0118205Y0119028D02*
X0120134Y0119028D01*
X0112260Y0124934D02*
X0110331Y0124934D01*
X0110331Y0126698D02*
X0112260Y0126698D01*
X0104386Y0120792D02*
X0102457Y0120792D01*
X0102457Y0119028D02*
X0104386Y0119028D01*
X0110331Y0101107D02*
X0112260Y0101107D01*
X0112260Y0099343D02*
X0110331Y0099343D01*
X0104386Y0095202D02*
X0102457Y0095202D01*
X0102457Y0093438D02*
X0104386Y0093438D01*
X0096512Y0099343D02*
X0094583Y0099343D01*
X0094583Y0101107D02*
X0096512Y0101107D01*
X0088638Y0095202D02*
X0086709Y0095202D01*
X0086709Y0093438D02*
X0088638Y0093438D01*
X0118205Y0093438D02*
X0120134Y0093438D01*
X0120134Y0095202D02*
X0118205Y0095202D01*
X0126079Y0099343D02*
X0128008Y0099343D01*
X0128008Y0101107D02*
X0126079Y0101107D01*
X0133953Y0095202D02*
X0135882Y0095202D01*
X0135882Y0093438D02*
X0133953Y0093438D01*
X0141827Y0099343D02*
X0143756Y0099343D01*
X0143756Y0101107D02*
X0141827Y0101107D01*
X0149701Y0095202D02*
X0151630Y0095202D01*
X0151630Y0093438D02*
X0149701Y0093438D01*
X0157575Y0099343D02*
X0159504Y0099343D01*
X0159504Y0101107D02*
X0157575Y0101107D01*
X0165449Y0095202D02*
X0167378Y0095202D01*
X0167378Y0093438D02*
X0165449Y0093438D01*
X0173323Y0099343D02*
X0175252Y0099343D01*
X0175252Y0101107D02*
X0173323Y0101107D01*
X0181197Y0095202D02*
X0183126Y0095202D01*
X0183126Y0093438D02*
X0181197Y0093438D01*
X0189071Y0099343D02*
X0191000Y0099343D01*
X0191000Y0101107D02*
X0189071Y0101107D01*
X0196945Y0095202D02*
X0198874Y0095202D01*
X0198874Y0093438D02*
X0196945Y0093438D01*
X0204819Y0099343D02*
X0206748Y0099343D01*
X0206748Y0101107D02*
X0204819Y0101107D01*
X0212693Y0095202D02*
X0214622Y0095202D01*
X0214622Y0093438D02*
X0212693Y0093438D01*
X0220567Y0099343D02*
X0222496Y0099343D01*
X0222496Y0101107D02*
X0220567Y0101107D01*
X0228441Y0095202D02*
X0230370Y0095202D01*
X0230370Y0093438D02*
X0228441Y0093438D01*
X0236315Y0099343D02*
X0238244Y0099343D01*
X0238244Y0101107D02*
X0236315Y0101107D01*
X0244189Y0095202D02*
X0246118Y0095202D01*
X0246118Y0093438D02*
X0244189Y0093438D01*
X0252063Y0099343D02*
X0253992Y0099343D01*
X0253992Y0101107D02*
X0252063Y0101107D01*
X0259937Y0095202D02*
X0261866Y0095202D01*
X0261866Y0093438D02*
X0259937Y0093438D01*
X0267811Y0099343D02*
X0269740Y0099343D01*
X0269740Y0101107D02*
X0267811Y0101107D01*
X0275685Y0095202D02*
X0277614Y0095202D01*
X0277614Y0093438D02*
X0275685Y0093438D01*
X0283559Y0099343D02*
X0285488Y0099343D01*
X0285488Y0101107D02*
X0283559Y0101107D01*
X0291433Y0095202D02*
X0293362Y0095202D01*
X0293362Y0093438D02*
X0291433Y0093438D01*
X0299307Y0099343D02*
X0301236Y0099343D01*
X0301236Y0101107D02*
X0299307Y0101107D01*
X0307181Y0095202D02*
X0309110Y0095202D01*
X0309110Y0093438D02*
X0307181Y0093438D01*
X0315055Y0099343D02*
X0316984Y0099343D01*
X0316984Y0101107D02*
X0315055Y0101107D01*
X0323293Y0204856D02*
X0322225Y0205923D01*
X0322225Y0210194D01*
X0323293Y0211261D01*
X0325428Y0211261D01*
X0326496Y0210194D01*
X0326496Y0208059D02*
X0324360Y0208059D01*
X0326496Y0208059D02*
X0326496Y0205923D01*
X0325428Y0204856D01*
X0323293Y0204856D01*
X0328671Y0204856D02*
X0328671Y0211261D01*
X0332941Y0204856D01*
X0332941Y0211261D01*
X0335116Y0211261D02*
X0338319Y0211261D01*
X0339387Y0210194D01*
X0339387Y0205923D01*
X0338319Y0204856D01*
X0335116Y0204856D01*
X0335116Y0211261D01*
X0085449Y0168855D02*
X0085449Y0164585D01*
X0084382Y0163517D01*
X0081179Y0163517D01*
X0081179Y0169923D01*
X0084382Y0169923D01*
X0085449Y0168855D01*
X0079004Y0169923D02*
X0079004Y0163517D01*
X0074734Y0169923D01*
X0074734Y0163517D01*
X0072559Y0164585D02*
X0072559Y0166720D01*
X0070423Y0166720D01*
X0068288Y0168855D02*
X0068288Y0164585D01*
X0069356Y0163517D01*
X0071491Y0163517D01*
X0072559Y0164585D01*
X0072559Y0168855D02*
X0071491Y0169923D01*
X0069356Y0169923D01*
X0068288Y0168855D01*
D11*
X0315776Y0164999D02*
X0315776Y0163064D01*
X0316260Y0162580D01*
X0317227Y0162580D01*
X0317711Y0163064D01*
X0317711Y0164031D01*
X0316743Y0164031D01*
X0315776Y0164999D02*
X0316260Y0165482D01*
X0317227Y0165482D01*
X0317711Y0164999D01*
X0318723Y0165482D02*
X0320657Y0162580D01*
X0320657Y0165482D01*
X0321669Y0165482D02*
X0323120Y0165482D01*
X0323604Y0164999D01*
X0323604Y0163064D01*
X0323120Y0162580D01*
X0321669Y0162580D01*
X0321669Y0165482D01*
X0318723Y0165482D02*
X0318723Y0162580D01*
D12*
X0319976Y0137268D03*
X0319976Y0134068D03*
X0327850Y0134068D03*
X0327850Y0137268D03*
X0312102Y0137268D03*
X0312102Y0134068D03*
X0304228Y0134068D03*
X0304228Y0137268D03*
X0296354Y0137268D03*
X0296354Y0134068D03*
X0288480Y0134068D03*
X0288480Y0137268D03*
X0280606Y0137268D03*
X0280606Y0134068D03*
X0272732Y0134068D03*
X0272732Y0137268D03*
X0264858Y0137268D03*
X0264858Y0134068D03*
X0256984Y0134068D03*
X0256984Y0137268D03*
X0249110Y0137268D03*
X0249110Y0134068D03*
X0241236Y0134068D03*
X0241236Y0137268D03*
X0233362Y0137268D03*
X0233362Y0134068D03*
X0225488Y0134068D03*
X0225488Y0137268D03*
X0217614Y0137268D03*
X0217614Y0134068D03*
X0209740Y0134068D03*
X0209740Y0137268D03*
X0201866Y0137268D03*
X0201866Y0134068D03*
X0193992Y0134068D03*
X0193992Y0137268D03*
X0186118Y0137268D03*
X0186118Y0134068D03*
X0178244Y0134068D03*
X0178244Y0137268D03*
X0170369Y0137268D03*
X0170369Y0134068D03*
X0162495Y0134068D03*
X0162495Y0137268D03*
X0154621Y0137268D03*
X0154621Y0134068D03*
X0146747Y0134068D03*
X0146747Y0137268D03*
X0138873Y0137268D03*
X0138873Y0134068D03*
X0130999Y0134068D03*
X0130999Y0137268D03*
X0123125Y0137268D03*
X0123125Y0134068D03*
X0115251Y0134068D03*
X0115251Y0137268D03*
X0107377Y0137268D03*
X0107377Y0134068D03*
X0099503Y0134068D03*
X0099503Y0137268D03*
X0091629Y0137268D03*
X0091629Y0134068D03*
X0083755Y0134068D03*
X0083755Y0137268D03*
X0083755Y0111677D03*
X0083755Y0108477D03*
X0091629Y0108477D03*
X0091629Y0111677D03*
X0099503Y0111677D03*
X0099503Y0108477D03*
X0107377Y0108477D03*
X0107377Y0111677D03*
X0115251Y0111677D03*
X0115251Y0108477D03*
X0123125Y0108477D03*
X0123125Y0111677D03*
X0130999Y0112071D03*
X0130999Y0108871D03*
X0138873Y0108477D03*
X0138873Y0111677D03*
X0146747Y0111677D03*
X0146747Y0108477D03*
X0154621Y0108477D03*
X0154621Y0111677D03*
X0162495Y0111677D03*
X0162495Y0108477D03*
X0170369Y0108477D03*
X0170369Y0111677D03*
X0178244Y0111677D03*
X0178244Y0108477D03*
X0186118Y0108477D03*
X0186118Y0111677D03*
X0193992Y0111677D03*
X0193992Y0108477D03*
X0201866Y0108477D03*
X0201866Y0111677D03*
X0209740Y0111677D03*
X0209740Y0108477D03*
X0217614Y0108477D03*
X0217614Y0111677D03*
X0225488Y0111677D03*
X0225488Y0108477D03*
X0233362Y0108477D03*
X0233362Y0111677D03*
X0241236Y0111677D03*
X0241236Y0108477D03*
X0249110Y0108477D03*
X0249110Y0111677D03*
X0256984Y0111677D03*
X0256984Y0108477D03*
X0264858Y0108477D03*
X0264858Y0111677D03*
X0272732Y0111677D03*
X0272732Y0108477D03*
X0280606Y0108477D03*
X0280606Y0111677D03*
X0288480Y0111677D03*
X0288480Y0108477D03*
X0296354Y0108477D03*
X0296354Y0111677D03*
X0304228Y0111677D03*
X0304228Y0108477D03*
X0312102Y0108477D03*
X0312102Y0111677D03*
X0319976Y0111677D03*
X0319976Y0108477D03*
X0327850Y0108477D03*
X0327850Y0111677D03*
X0327850Y0086087D03*
X0327850Y0082887D03*
X0319976Y0082887D03*
X0319976Y0086087D03*
X0312102Y0086087D03*
X0312102Y0082887D03*
X0304228Y0082887D03*
X0304228Y0086087D03*
X0296354Y0086087D03*
X0296354Y0082887D03*
X0288480Y0082887D03*
X0288480Y0086087D03*
X0280606Y0086087D03*
X0280606Y0082887D03*
X0272732Y0082887D03*
X0272732Y0086087D03*
X0264858Y0086087D03*
X0264858Y0082887D03*
X0256984Y0082887D03*
X0256984Y0086087D03*
X0249110Y0086087D03*
X0249110Y0082887D03*
X0241236Y0082887D03*
X0241236Y0086087D03*
X0233362Y0086087D03*
X0233362Y0082887D03*
X0225488Y0082887D03*
X0225488Y0086087D03*
X0217614Y0086087D03*
X0217614Y0082887D03*
X0209740Y0082887D03*
X0209740Y0086087D03*
X0201866Y0086087D03*
X0201866Y0082887D03*
X0193992Y0082887D03*
X0193992Y0086087D03*
X0186118Y0086087D03*
X0186118Y0082887D03*
X0178244Y0082887D03*
X0178244Y0086087D03*
X0170369Y0086087D03*
X0170369Y0082887D03*
X0162495Y0082887D03*
X0162495Y0086087D03*
X0154621Y0086087D03*
X0154621Y0082887D03*
X0146747Y0082887D03*
X0146747Y0086087D03*
X0138873Y0086087D03*
X0138873Y0082887D03*
X0130999Y0082887D03*
X0130999Y0086087D03*
X0123125Y0086087D03*
X0123125Y0082887D03*
X0115251Y0082887D03*
X0115251Y0086087D03*
X0107377Y0086087D03*
X0107377Y0082887D03*
X0099503Y0082887D03*
X0099503Y0086087D03*
X0091629Y0086087D03*
X0091629Y0082887D03*
X0083755Y0082887D03*
X0083755Y0086087D03*
D13*
X0078934Y0083178D02*
X0078934Y0082077D01*
X0081136Y0082077D01*
X0080402Y0082077D02*
X0080402Y0083178D01*
X0080035Y0083545D01*
X0079301Y0083545D01*
X0078934Y0083178D01*
X0079668Y0084287D02*
X0078934Y0085021D01*
X0081136Y0085021D01*
X0081136Y0084287D02*
X0081136Y0085755D01*
X0081136Y0083545D02*
X0080402Y0082811D01*
X0086808Y0083178D02*
X0087175Y0083545D01*
X0087909Y0083545D01*
X0088276Y0083178D01*
X0088276Y0082077D01*
X0088276Y0082811D02*
X0089010Y0083545D01*
X0088643Y0084287D02*
X0089010Y0084654D01*
X0089010Y0085388D01*
X0088643Y0085755D01*
X0088276Y0085755D01*
X0087909Y0085388D01*
X0087909Y0084287D01*
X0088643Y0084287D01*
X0087909Y0084287D02*
X0087175Y0085021D01*
X0086808Y0085755D01*
X0086808Y0083178D02*
X0086808Y0082077D01*
X0089010Y0082077D01*
X0094682Y0082077D02*
X0094682Y0083178D01*
X0095049Y0083545D01*
X0095783Y0083545D01*
X0096150Y0083178D01*
X0096150Y0082077D01*
X0096150Y0082811D02*
X0096884Y0083545D01*
X0096884Y0084287D02*
X0096884Y0085755D01*
X0096884Y0085021D02*
X0094682Y0085021D01*
X0095416Y0084287D01*
X0095416Y0086497D02*
X0094682Y0087231D01*
X0096884Y0087231D01*
X0096884Y0086497D02*
X0096884Y0087965D01*
X0102556Y0087965D02*
X0102923Y0087231D01*
X0103657Y0086497D01*
X0103657Y0087598D01*
X0104024Y0087965D01*
X0104391Y0087965D01*
X0104758Y0087598D01*
X0104758Y0086864D01*
X0104391Y0086497D01*
X0103657Y0086497D01*
X0104758Y0085755D02*
X0104758Y0084287D01*
X0104758Y0085021D02*
X0102556Y0085021D01*
X0103290Y0084287D01*
X0102923Y0083545D02*
X0103657Y0083545D01*
X0104024Y0083178D01*
X0104024Y0082077D01*
X0104024Y0082811D02*
X0104758Y0083545D01*
X0104758Y0082077D02*
X0102556Y0082077D01*
X0102556Y0083178D01*
X0102923Y0083545D01*
X0096884Y0082077D02*
X0094682Y0082077D01*
X0110430Y0082077D02*
X0110430Y0083178D01*
X0110797Y0083545D01*
X0111531Y0083545D01*
X0111898Y0083178D01*
X0111898Y0082077D01*
X0111898Y0082811D02*
X0112632Y0083545D01*
X0112632Y0084287D02*
X0111164Y0085755D01*
X0110797Y0085755D01*
X0110430Y0085388D01*
X0110430Y0084654D01*
X0110797Y0084287D01*
X0112632Y0084287D02*
X0112632Y0085755D01*
X0112632Y0086497D02*
X0112632Y0087965D01*
X0112632Y0087231D02*
X0110430Y0087231D01*
X0111164Y0086497D01*
X0110430Y0082077D02*
X0112632Y0082077D01*
X0118304Y0082077D02*
X0118304Y0083178D01*
X0118671Y0083545D01*
X0119405Y0083545D01*
X0119772Y0083178D01*
X0119772Y0082077D01*
X0119772Y0082811D02*
X0120506Y0083545D01*
X0120506Y0084287D02*
X0119038Y0085755D01*
X0118671Y0085755D01*
X0118304Y0085388D01*
X0118304Y0084654D01*
X0118671Y0084287D01*
X0120506Y0084287D02*
X0120506Y0085755D01*
X0120139Y0086497D02*
X0119405Y0086497D01*
X0119405Y0087598D01*
X0119772Y0087965D01*
X0120139Y0087965D01*
X0120506Y0087598D01*
X0120506Y0086864D01*
X0120139Y0086497D01*
X0119405Y0086497D02*
X0118671Y0087231D01*
X0118304Y0087965D01*
X0118304Y0082077D02*
X0120506Y0082077D01*
X0126178Y0082077D02*
X0126178Y0083178D01*
X0126545Y0083545D01*
X0127279Y0083545D01*
X0127646Y0083178D01*
X0127646Y0082077D01*
X0127646Y0082811D02*
X0128380Y0083545D01*
X0128013Y0084287D02*
X0128380Y0084654D01*
X0128380Y0085388D01*
X0128013Y0085755D01*
X0127646Y0085755D01*
X0127279Y0085388D01*
X0127279Y0085021D01*
X0127279Y0085388D02*
X0126912Y0085755D01*
X0126545Y0085755D01*
X0126178Y0085388D01*
X0126178Y0084654D01*
X0126545Y0084287D01*
X0126178Y0082077D02*
X0128380Y0082077D01*
X0134052Y0082077D02*
X0134052Y0083178D01*
X0134419Y0083545D01*
X0135153Y0083545D01*
X0135520Y0083178D01*
X0135520Y0082077D01*
X0135520Y0082811D02*
X0136254Y0083545D01*
X0135887Y0084287D02*
X0136254Y0084654D01*
X0136254Y0085388D01*
X0135887Y0085755D01*
X0135520Y0085755D01*
X0135153Y0085388D01*
X0135153Y0085021D01*
X0135153Y0085388D02*
X0134786Y0085755D01*
X0134419Y0085755D01*
X0134052Y0085388D01*
X0134052Y0084654D01*
X0134419Y0084287D01*
X0134052Y0082077D02*
X0136254Y0082077D01*
X0135887Y0086497D02*
X0136254Y0086864D01*
X0136254Y0087598D01*
X0135887Y0087965D01*
X0135520Y0087965D01*
X0135153Y0087598D01*
X0135153Y0086497D01*
X0135887Y0086497D01*
X0135153Y0086497D02*
X0134419Y0087231D01*
X0134052Y0087965D01*
X0128380Y0087965D02*
X0128380Y0086497D01*
X0128380Y0087231D02*
X0126178Y0087231D01*
X0126912Y0086497D01*
X0122290Y0096920D02*
X0122290Y0099122D01*
X0121189Y0098021D01*
X0122657Y0098021D01*
X0120447Y0098388D02*
X0120447Y0098755D01*
X0120080Y0099122D01*
X0119346Y0099122D01*
X0118979Y0098755D01*
X0118237Y0098755D02*
X0118237Y0098021D01*
X0117870Y0097654D01*
X0116769Y0097654D01*
X0117503Y0097654D02*
X0118237Y0096920D01*
X0118979Y0096920D02*
X0120447Y0098388D01*
X0120447Y0096920D02*
X0118979Y0096920D01*
X0118237Y0098755D02*
X0117870Y0099122D01*
X0116769Y0099122D01*
X0116769Y0096920D01*
X0114416Y0102825D02*
X0114783Y0103192D01*
X0114783Y0104660D01*
X0114416Y0105027D01*
X0113682Y0105027D01*
X0113315Y0104660D01*
X0113315Y0104293D01*
X0113682Y0103926D01*
X0114783Y0103926D01*
X0114416Y0102825D02*
X0113682Y0102825D01*
X0113315Y0103192D01*
X0112573Y0102825D02*
X0111105Y0102825D01*
X0111839Y0102825D02*
X0111839Y0105027D01*
X0111105Y0104293D01*
X0110363Y0103926D02*
X0109996Y0103559D01*
X0108895Y0103559D01*
X0108895Y0102825D02*
X0108895Y0105027D01*
X0109996Y0105027D01*
X0110363Y0104660D01*
X0110363Y0103926D01*
X0109629Y0103559D02*
X0110363Y0102825D01*
X0106542Y0099122D02*
X0105441Y0098021D01*
X0106909Y0098021D01*
X0106542Y0096920D02*
X0106542Y0099122D01*
X0103965Y0099122D02*
X0103965Y0096920D01*
X0103231Y0096920D02*
X0104699Y0096920D01*
X0103231Y0098388D02*
X0103965Y0099122D01*
X0102489Y0098755D02*
X0102489Y0098021D01*
X0102122Y0097654D01*
X0101021Y0097654D01*
X0101755Y0097654D02*
X0102489Y0096920D01*
X0101021Y0096920D02*
X0101021Y0099122D01*
X0102122Y0099122D01*
X0102489Y0098755D01*
X0096825Y0103192D02*
X0096825Y0104660D01*
X0096458Y0105027D01*
X0095724Y0105027D01*
X0095357Y0104660D01*
X0095357Y0104293D01*
X0095724Y0103926D01*
X0096825Y0103926D01*
X0096825Y0103192D02*
X0096458Y0102825D01*
X0095724Y0102825D01*
X0095357Y0103192D01*
X0094615Y0102825D02*
X0093881Y0103559D01*
X0094248Y0103559D02*
X0093147Y0103559D01*
X0093147Y0102825D02*
X0093147Y0105027D01*
X0094248Y0105027D01*
X0094615Y0104660D01*
X0094615Y0103926D01*
X0094248Y0103559D01*
X0088584Y0099122D02*
X0087483Y0098021D01*
X0088951Y0098021D01*
X0088584Y0096920D02*
X0088584Y0099122D01*
X0086741Y0098755D02*
X0086741Y0098021D01*
X0086374Y0097654D01*
X0085273Y0097654D01*
X0086007Y0097654D02*
X0086741Y0096920D01*
X0085273Y0096920D02*
X0085273Y0099122D01*
X0086374Y0099122D01*
X0086741Y0098755D01*
X0086808Y0107668D02*
X0086808Y0108769D01*
X0087175Y0109136D01*
X0087909Y0109136D01*
X0088276Y0108769D01*
X0088276Y0107668D01*
X0088276Y0108402D02*
X0089010Y0109136D01*
X0089010Y0109878D02*
X0088643Y0109878D01*
X0087175Y0111346D01*
X0086808Y0111346D01*
X0086808Y0109878D01*
X0086808Y0107668D02*
X0089010Y0107668D01*
X0094682Y0107668D02*
X0094682Y0108769D01*
X0095049Y0109136D01*
X0095783Y0109136D01*
X0096150Y0108769D01*
X0096150Y0107668D01*
X0096150Y0108402D02*
X0096884Y0109136D01*
X0096884Y0109878D02*
X0096884Y0111346D01*
X0096884Y0110612D02*
X0094682Y0110612D01*
X0095416Y0109878D01*
X0095049Y0112087D02*
X0094682Y0112454D01*
X0094682Y0113188D01*
X0095049Y0113555D01*
X0095416Y0113555D01*
X0096884Y0112087D01*
X0096884Y0113555D01*
X0102556Y0113555D02*
X0102556Y0112087D01*
X0102556Y0113555D02*
X0102923Y0113555D01*
X0104391Y0112087D01*
X0104758Y0112087D01*
X0104758Y0111346D02*
X0104758Y0109878D01*
X0104758Y0110612D02*
X0102556Y0110612D01*
X0103290Y0109878D01*
X0102923Y0109136D02*
X0103657Y0109136D01*
X0104024Y0108769D01*
X0104024Y0107668D01*
X0104024Y0108402D02*
X0104758Y0109136D01*
X0104758Y0107668D02*
X0102556Y0107668D01*
X0102556Y0108769D01*
X0102923Y0109136D01*
X0096884Y0107668D02*
X0094682Y0107668D01*
X0081136Y0107668D02*
X0078934Y0107668D01*
X0078934Y0108769D01*
X0079301Y0109136D01*
X0080035Y0109136D01*
X0080402Y0108769D01*
X0080402Y0107668D01*
X0080402Y0108402D02*
X0081136Y0109136D01*
X0081136Y0109878D02*
X0079668Y0111346D01*
X0079301Y0111346D01*
X0078934Y0110979D01*
X0078934Y0110245D01*
X0079301Y0109878D01*
X0081136Y0109878D02*
X0081136Y0111346D01*
X0085273Y0122510D02*
X0085273Y0124712D01*
X0086374Y0124712D01*
X0086741Y0124345D01*
X0086741Y0123611D01*
X0086374Y0123244D01*
X0085273Y0123244D01*
X0086007Y0123244D02*
X0086741Y0122510D01*
X0087483Y0122877D02*
X0087850Y0122510D01*
X0088584Y0122510D01*
X0088951Y0122877D01*
X0088951Y0123611D01*
X0088584Y0123978D01*
X0088217Y0123978D01*
X0087483Y0123611D01*
X0087483Y0124712D01*
X0088951Y0124712D01*
X0093147Y0128416D02*
X0093147Y0130618D01*
X0094248Y0130618D01*
X0094615Y0130251D01*
X0094615Y0129517D01*
X0094248Y0129150D01*
X0093147Y0129150D01*
X0093881Y0129150D02*
X0094615Y0128416D01*
X0095357Y0128416D02*
X0096825Y0128416D01*
X0096091Y0128416D02*
X0096091Y0130618D01*
X0095357Y0129884D01*
X0097567Y0130251D02*
X0097934Y0130618D01*
X0098668Y0130618D01*
X0099035Y0130251D01*
X0097567Y0128783D01*
X0097934Y0128416D01*
X0098668Y0128416D01*
X0099035Y0128783D01*
X0099035Y0130251D01*
X0097567Y0130251D02*
X0097567Y0128783D01*
X0101021Y0124712D02*
X0102122Y0124712D01*
X0102489Y0124345D01*
X0102489Y0123611D01*
X0102122Y0123244D01*
X0101021Y0123244D01*
X0101021Y0122510D02*
X0101021Y0124712D01*
X0101755Y0123244D02*
X0102489Y0122510D01*
X0103231Y0122510D02*
X0104699Y0122510D01*
X0103965Y0122510D02*
X0103965Y0124712D01*
X0103231Y0123978D01*
X0105441Y0123611D02*
X0106175Y0123978D01*
X0106542Y0123978D01*
X0106909Y0123611D01*
X0106909Y0122877D01*
X0106542Y0122510D01*
X0105808Y0122510D01*
X0105441Y0122877D01*
X0105441Y0123611D02*
X0105441Y0124712D01*
X0106909Y0124712D01*
X0108895Y0128416D02*
X0108895Y0130618D01*
X0109996Y0130618D01*
X0110363Y0130251D01*
X0110363Y0129517D01*
X0109996Y0129150D01*
X0108895Y0129150D01*
X0109629Y0129150D02*
X0110363Y0128416D01*
X0111105Y0128416D02*
X0112573Y0129884D01*
X0112573Y0130251D01*
X0112206Y0130618D01*
X0111472Y0130618D01*
X0111105Y0130251D01*
X0111105Y0128416D02*
X0112573Y0128416D01*
X0113315Y0128783D02*
X0114783Y0130251D01*
X0114783Y0128783D01*
X0114416Y0128416D01*
X0113682Y0128416D01*
X0113315Y0128783D01*
X0113315Y0130251D01*
X0113682Y0130618D01*
X0114416Y0130618D01*
X0114783Y0130251D01*
X0116769Y0124712D02*
X0117870Y0124712D01*
X0118237Y0124345D01*
X0118237Y0123611D01*
X0117870Y0123244D01*
X0116769Y0123244D01*
X0116769Y0122510D02*
X0116769Y0124712D01*
X0117503Y0123244D02*
X0118237Y0122510D01*
X0118979Y0122510D02*
X0120447Y0123978D01*
X0120447Y0124345D01*
X0120080Y0124712D01*
X0119346Y0124712D01*
X0118979Y0124345D01*
X0118979Y0122510D02*
X0120447Y0122510D01*
X0121189Y0122877D02*
X0121556Y0122510D01*
X0122290Y0122510D01*
X0122657Y0122877D01*
X0122657Y0123611D01*
X0122290Y0123978D01*
X0121923Y0123978D01*
X0121189Y0123611D01*
X0121189Y0124712D01*
X0122657Y0124712D01*
X0124643Y0128416D02*
X0124643Y0130618D01*
X0125744Y0130618D01*
X0126111Y0130251D01*
X0126111Y0129517D01*
X0125744Y0129150D01*
X0124643Y0129150D01*
X0125377Y0129150D02*
X0126111Y0128416D01*
X0126853Y0128783D02*
X0127220Y0128416D01*
X0127954Y0128416D01*
X0128321Y0128783D01*
X0128321Y0129150D01*
X0127954Y0129517D01*
X0127587Y0129517D01*
X0127954Y0129517D02*
X0128321Y0129884D01*
X0128321Y0130251D01*
X0127954Y0130618D01*
X0127220Y0130618D01*
X0126853Y0130251D01*
X0129063Y0130251D02*
X0129063Y0128783D01*
X0130531Y0130251D01*
X0130531Y0128783D01*
X0130164Y0128416D01*
X0129430Y0128416D01*
X0129063Y0128783D01*
X0129063Y0130251D02*
X0129430Y0130618D01*
X0130164Y0130618D01*
X0130531Y0130251D01*
X0132517Y0124712D02*
X0133618Y0124712D01*
X0133985Y0124345D01*
X0133985Y0123611D01*
X0133618Y0123244D01*
X0132517Y0123244D01*
X0132517Y0122510D02*
X0132517Y0124712D01*
X0133251Y0123244D02*
X0133985Y0122510D01*
X0134727Y0122877D02*
X0135094Y0122510D01*
X0135828Y0122510D01*
X0136195Y0122877D01*
X0136195Y0123244D01*
X0135828Y0123611D01*
X0135461Y0123611D01*
X0135828Y0123611D02*
X0136195Y0123978D01*
X0136195Y0124345D01*
X0135828Y0124712D01*
X0135094Y0124712D01*
X0134727Y0124345D01*
X0136937Y0124712D02*
X0136937Y0123611D01*
X0137671Y0123978D01*
X0138038Y0123978D01*
X0138405Y0123611D01*
X0138405Y0122877D01*
X0138038Y0122510D01*
X0137304Y0122510D01*
X0136937Y0122877D01*
X0136937Y0124712D02*
X0138405Y0124712D01*
X0140391Y0128416D02*
X0140391Y0130618D01*
X0141492Y0130618D01*
X0141859Y0130251D01*
X0141859Y0129517D01*
X0141492Y0129150D01*
X0140391Y0129150D01*
X0141125Y0129150D02*
X0141859Y0128416D01*
X0142601Y0129517D02*
X0144069Y0129517D01*
X0144811Y0130251D02*
X0145178Y0130618D01*
X0145912Y0130618D01*
X0146279Y0130251D01*
X0144811Y0128783D01*
X0145178Y0128416D01*
X0145912Y0128416D01*
X0146279Y0128783D01*
X0146279Y0130251D01*
X0144811Y0130251D02*
X0144811Y0128783D01*
X0143702Y0128416D02*
X0143702Y0130618D01*
X0142601Y0129517D01*
X0148265Y0124712D02*
X0149366Y0124712D01*
X0149733Y0124345D01*
X0149733Y0123611D01*
X0149366Y0123244D01*
X0148265Y0123244D01*
X0148265Y0122510D02*
X0148265Y0124712D01*
X0148999Y0123244D02*
X0149733Y0122510D01*
X0150475Y0123611D02*
X0151943Y0123611D01*
X0152685Y0123611D02*
X0153419Y0123978D01*
X0153786Y0123978D01*
X0154153Y0123611D01*
X0154153Y0122877D01*
X0153786Y0122510D01*
X0153052Y0122510D01*
X0152685Y0122877D01*
X0152685Y0123611D02*
X0152685Y0124712D01*
X0154153Y0124712D01*
X0151576Y0124712D02*
X0150475Y0123611D01*
X0151576Y0122510D02*
X0151576Y0124712D01*
X0156139Y0128416D02*
X0156139Y0130618D01*
X0157240Y0130618D01*
X0157607Y0130251D01*
X0157607Y0129517D01*
X0157240Y0129150D01*
X0156139Y0129150D01*
X0156873Y0129150D02*
X0157607Y0128416D01*
X0158349Y0128783D02*
X0158716Y0128416D01*
X0159450Y0128416D01*
X0159817Y0128783D01*
X0159817Y0129517D01*
X0159450Y0129884D01*
X0159083Y0129884D01*
X0158349Y0129517D01*
X0158349Y0130618D01*
X0159817Y0130618D01*
X0160559Y0130251D02*
X0160926Y0130618D01*
X0161660Y0130618D01*
X0162027Y0130251D01*
X0160559Y0128783D01*
X0160926Y0128416D01*
X0161660Y0128416D01*
X0162027Y0128783D01*
X0162027Y0130251D01*
X0160559Y0130251D02*
X0160559Y0128783D01*
X0164013Y0124712D02*
X0165114Y0124712D01*
X0165481Y0124345D01*
X0165481Y0123611D01*
X0165114Y0123244D01*
X0164013Y0123244D01*
X0164013Y0122510D02*
X0164013Y0124712D01*
X0164747Y0123244D02*
X0165481Y0122510D01*
X0166223Y0122877D02*
X0166590Y0122510D01*
X0167324Y0122510D01*
X0167691Y0122877D01*
X0167691Y0123611D01*
X0167324Y0123978D01*
X0166957Y0123978D01*
X0166223Y0123611D01*
X0166223Y0124712D01*
X0167691Y0124712D01*
X0168433Y0124712D02*
X0168433Y0123611D01*
X0169167Y0123978D01*
X0169534Y0123978D01*
X0169901Y0123611D01*
X0169901Y0122877D01*
X0169534Y0122510D01*
X0168800Y0122510D01*
X0168433Y0122877D01*
X0168433Y0124712D02*
X0169901Y0124712D01*
X0171887Y0128416D02*
X0171887Y0130618D01*
X0172988Y0130618D01*
X0173355Y0130251D01*
X0173355Y0129517D01*
X0172988Y0129150D01*
X0171887Y0129150D01*
X0172621Y0129150D02*
X0173355Y0128416D01*
X0174097Y0128783D02*
X0174464Y0128416D01*
X0175198Y0128416D01*
X0175565Y0128783D01*
X0175565Y0129150D01*
X0175198Y0129517D01*
X0174097Y0129517D01*
X0174097Y0128783D01*
X0174097Y0129517D02*
X0174831Y0130251D01*
X0175565Y0130618D01*
X0176307Y0130251D02*
X0176674Y0130618D01*
X0177408Y0130618D01*
X0177775Y0130251D01*
X0176307Y0128783D01*
X0176674Y0128416D01*
X0177408Y0128416D01*
X0177775Y0128783D01*
X0177775Y0130251D01*
X0176307Y0130251D02*
X0176307Y0128783D01*
X0179761Y0124712D02*
X0180862Y0124712D01*
X0181229Y0124345D01*
X0181229Y0123611D01*
X0180862Y0123244D01*
X0179761Y0123244D01*
X0179761Y0122510D02*
X0179761Y0124712D01*
X0180495Y0123244D02*
X0181229Y0122510D01*
X0181971Y0122877D02*
X0182338Y0122510D01*
X0183072Y0122510D01*
X0183439Y0122877D01*
X0183439Y0123244D01*
X0183072Y0123611D01*
X0181971Y0123611D01*
X0181971Y0122877D01*
X0181971Y0123611D02*
X0182705Y0124345D01*
X0183439Y0124712D01*
X0184181Y0124712D02*
X0184181Y0123611D01*
X0184915Y0123978D01*
X0185282Y0123978D01*
X0185649Y0123611D01*
X0185649Y0122877D01*
X0185282Y0122510D01*
X0184548Y0122510D01*
X0184181Y0122877D01*
X0184181Y0124712D02*
X0185649Y0124712D01*
X0187635Y0128416D02*
X0187635Y0130618D01*
X0188736Y0130618D01*
X0189103Y0130251D01*
X0189103Y0129517D01*
X0188736Y0129150D01*
X0187635Y0129150D01*
X0188369Y0129150D02*
X0189103Y0128416D01*
X0189845Y0128416D02*
X0189845Y0128783D01*
X0191313Y0130251D01*
X0191313Y0130618D01*
X0189845Y0130618D01*
X0192055Y0130251D02*
X0192422Y0130618D01*
X0193156Y0130618D01*
X0193523Y0130251D01*
X0192055Y0128783D01*
X0192422Y0128416D01*
X0193156Y0128416D01*
X0193523Y0128783D01*
X0193523Y0130251D01*
X0192055Y0130251D02*
X0192055Y0128783D01*
X0195509Y0124712D02*
X0196610Y0124712D01*
X0196977Y0124345D01*
X0196977Y0123611D01*
X0196610Y0123244D01*
X0195509Y0123244D01*
X0195509Y0122510D02*
X0195509Y0124712D01*
X0196243Y0123244D02*
X0196977Y0122510D01*
X0197719Y0122510D02*
X0197719Y0122877D01*
X0199187Y0124345D01*
X0199187Y0124712D01*
X0197719Y0124712D01*
X0199929Y0124712D02*
X0199929Y0123611D01*
X0200663Y0123978D01*
X0201030Y0123978D01*
X0201397Y0123611D01*
X0201397Y0122877D01*
X0201030Y0122510D01*
X0200296Y0122510D01*
X0199929Y0122877D01*
X0199929Y0124712D02*
X0201397Y0124712D01*
X0203383Y0128416D02*
X0203383Y0130618D01*
X0204484Y0130618D01*
X0204851Y0130251D01*
X0204851Y0129517D01*
X0204484Y0129150D01*
X0203383Y0129150D01*
X0204117Y0129150D02*
X0204851Y0128416D01*
X0205593Y0128783D02*
X0205593Y0129150D01*
X0205960Y0129517D01*
X0206694Y0129517D01*
X0207061Y0129150D01*
X0207061Y0128783D01*
X0206694Y0128416D01*
X0205960Y0128416D01*
X0205593Y0128783D01*
X0205960Y0129517D02*
X0205593Y0129884D01*
X0205593Y0130251D01*
X0205960Y0130618D01*
X0206694Y0130618D01*
X0207061Y0130251D01*
X0207061Y0129884D01*
X0206694Y0129517D01*
X0207803Y0128783D02*
X0207803Y0130251D01*
X0208170Y0130618D01*
X0208904Y0130618D01*
X0209271Y0130251D01*
X0207803Y0128783D01*
X0208170Y0128416D01*
X0208904Y0128416D01*
X0209271Y0128783D01*
X0209271Y0130251D01*
X0211257Y0124712D02*
X0212358Y0124712D01*
X0212725Y0124345D01*
X0212725Y0123611D01*
X0212358Y0123244D01*
X0211257Y0123244D01*
X0211257Y0122510D02*
X0211257Y0124712D01*
X0211991Y0123244D02*
X0212725Y0122510D01*
X0213467Y0122877D02*
X0213467Y0123244D01*
X0213834Y0123611D01*
X0214568Y0123611D01*
X0214935Y0123244D01*
X0214935Y0122877D01*
X0214568Y0122510D01*
X0213834Y0122510D01*
X0213467Y0122877D01*
X0213834Y0123611D02*
X0213467Y0123978D01*
X0213467Y0124345D01*
X0213834Y0124712D01*
X0214568Y0124712D01*
X0214935Y0124345D01*
X0214935Y0123978D01*
X0214568Y0123611D01*
X0215677Y0123611D02*
X0216411Y0123978D01*
X0216778Y0123978D01*
X0217145Y0123611D01*
X0217145Y0122877D01*
X0216778Y0122510D01*
X0216044Y0122510D01*
X0215677Y0122877D01*
X0215677Y0123611D02*
X0215677Y0124712D01*
X0217145Y0124712D01*
X0219131Y0128416D02*
X0219131Y0130618D01*
X0220232Y0130618D01*
X0220599Y0130251D01*
X0220599Y0129517D01*
X0220232Y0129150D01*
X0219131Y0129150D01*
X0219865Y0129150D02*
X0220599Y0128416D01*
X0221341Y0128783D02*
X0221708Y0128416D01*
X0222442Y0128416D01*
X0222809Y0128783D01*
X0222809Y0130251D01*
X0222442Y0130618D01*
X0221708Y0130618D01*
X0221341Y0130251D01*
X0221341Y0129884D01*
X0221708Y0129517D01*
X0222809Y0129517D01*
X0223551Y0130251D02*
X0223918Y0130618D01*
X0224652Y0130618D01*
X0225019Y0130251D01*
X0223551Y0128783D01*
X0223918Y0128416D01*
X0224652Y0128416D01*
X0225019Y0128783D01*
X0225019Y0130251D01*
X0223551Y0130251D02*
X0223551Y0128783D01*
X0227006Y0124712D02*
X0228106Y0124712D01*
X0228473Y0124345D01*
X0228473Y0123611D01*
X0228106Y0123244D01*
X0227006Y0123244D01*
X0227739Y0123244D02*
X0228473Y0122510D01*
X0229215Y0122877D02*
X0229582Y0122510D01*
X0230316Y0122510D01*
X0230683Y0122877D01*
X0230683Y0124345D01*
X0230316Y0124712D01*
X0229582Y0124712D01*
X0229215Y0124345D01*
X0229215Y0123978D01*
X0229582Y0123611D01*
X0230683Y0123611D01*
X0231425Y0123611D02*
X0232159Y0123978D01*
X0232526Y0123978D01*
X0232893Y0123611D01*
X0232893Y0122877D01*
X0232526Y0122510D01*
X0231792Y0122510D01*
X0231425Y0122877D01*
X0231425Y0123611D02*
X0231425Y0124712D01*
X0232893Y0124712D01*
X0234880Y0128416D02*
X0234880Y0130618D01*
X0235980Y0130618D01*
X0236347Y0130251D01*
X0236347Y0129517D01*
X0235980Y0129150D01*
X0234880Y0129150D01*
X0235613Y0129150D02*
X0236347Y0128416D01*
X0237089Y0128416D02*
X0238557Y0128416D01*
X0237823Y0128416D02*
X0237823Y0130618D01*
X0237089Y0129884D01*
X0239299Y0130251D02*
X0239666Y0130618D01*
X0240400Y0130618D01*
X0240767Y0130251D01*
X0239299Y0128783D01*
X0239666Y0128416D01*
X0240400Y0128416D01*
X0240767Y0128783D01*
X0240767Y0130251D01*
X0241509Y0130251D02*
X0241876Y0130618D01*
X0242610Y0130618D01*
X0242977Y0130251D01*
X0241509Y0128783D01*
X0241876Y0128416D01*
X0242610Y0128416D01*
X0242977Y0128783D01*
X0242977Y0130251D01*
X0241509Y0130251D02*
X0241509Y0128783D01*
X0239299Y0128783D02*
X0239299Y0130251D01*
X0242754Y0124712D02*
X0243854Y0124712D01*
X0244221Y0124345D01*
X0244221Y0123611D01*
X0243854Y0123244D01*
X0242754Y0123244D01*
X0243487Y0123244D02*
X0244221Y0122510D01*
X0244963Y0122510D02*
X0246431Y0122510D01*
X0245697Y0122510D02*
X0245697Y0124712D01*
X0244963Y0123978D01*
X0247173Y0124345D02*
X0247173Y0122877D01*
X0248641Y0124345D01*
X0248641Y0122877D01*
X0248274Y0122510D01*
X0247540Y0122510D01*
X0247173Y0122877D01*
X0247173Y0124345D02*
X0247540Y0124712D01*
X0248274Y0124712D01*
X0248641Y0124345D01*
X0249383Y0124712D02*
X0249383Y0123611D01*
X0250117Y0123978D01*
X0250484Y0123978D01*
X0250851Y0123611D01*
X0250851Y0122877D01*
X0250484Y0122510D01*
X0249750Y0122510D01*
X0249383Y0122877D01*
X0249383Y0124712D02*
X0250851Y0124712D01*
X0250628Y0128416D02*
X0250628Y0130618D01*
X0251728Y0130618D01*
X0252095Y0130251D01*
X0252095Y0129517D01*
X0251728Y0129150D01*
X0250628Y0129150D01*
X0251362Y0129150D02*
X0252095Y0128416D01*
X0252837Y0128416D02*
X0254305Y0128416D01*
X0253571Y0128416D02*
X0253571Y0130618D01*
X0252837Y0129884D01*
X0255047Y0129884D02*
X0255781Y0130618D01*
X0255781Y0128416D01*
X0255047Y0128416D02*
X0256515Y0128416D01*
X0257257Y0128783D02*
X0258725Y0130251D01*
X0258725Y0128783D01*
X0258358Y0128416D01*
X0257624Y0128416D01*
X0257257Y0128783D01*
X0257257Y0130251D01*
X0257624Y0130618D01*
X0258358Y0130618D01*
X0258725Y0130251D01*
X0258502Y0124712D02*
X0259603Y0124712D01*
X0259969Y0124345D01*
X0259969Y0123611D01*
X0259603Y0123244D01*
X0258502Y0123244D01*
X0259236Y0123244D02*
X0259969Y0122510D01*
X0260711Y0122510D02*
X0262179Y0122510D01*
X0261445Y0122510D02*
X0261445Y0124712D01*
X0260711Y0123978D01*
X0262921Y0123978D02*
X0263655Y0124712D01*
X0263655Y0122510D01*
X0262921Y0122510D02*
X0264389Y0122510D01*
X0265131Y0122877D02*
X0265498Y0122510D01*
X0266232Y0122510D01*
X0266599Y0122877D01*
X0266599Y0123611D01*
X0266232Y0123978D01*
X0265865Y0123978D01*
X0265131Y0123611D01*
X0265131Y0124712D01*
X0266599Y0124712D01*
X0266376Y0128416D02*
X0266376Y0130618D01*
X0267477Y0130618D01*
X0267844Y0130251D01*
X0267844Y0129517D01*
X0267477Y0129150D01*
X0266376Y0129150D01*
X0267110Y0129150D02*
X0267844Y0128416D01*
X0268585Y0128416D02*
X0270053Y0128416D01*
X0269319Y0128416D02*
X0269319Y0130618D01*
X0268585Y0129884D01*
X0270795Y0130251D02*
X0271162Y0130618D01*
X0271896Y0130618D01*
X0272263Y0130251D01*
X0272263Y0129884D01*
X0270795Y0128416D01*
X0272263Y0128416D01*
X0273005Y0128783D02*
X0274473Y0130251D01*
X0274473Y0128783D01*
X0274106Y0128416D01*
X0273372Y0128416D01*
X0273005Y0128783D01*
X0273005Y0130251D01*
X0273372Y0130618D01*
X0274106Y0130618D01*
X0274473Y0130251D01*
X0274250Y0124712D02*
X0275351Y0124712D01*
X0275718Y0124345D01*
X0275718Y0123611D01*
X0275351Y0123244D01*
X0274250Y0123244D01*
X0274984Y0123244D02*
X0275718Y0122510D01*
X0276459Y0122510D02*
X0277927Y0122510D01*
X0277193Y0122510D02*
X0277193Y0124712D01*
X0276459Y0123978D01*
X0278669Y0124345D02*
X0279036Y0124712D01*
X0279770Y0124712D01*
X0280137Y0124345D01*
X0280137Y0123978D01*
X0278669Y0122510D01*
X0280137Y0122510D01*
X0280879Y0122877D02*
X0281246Y0122510D01*
X0281980Y0122510D01*
X0282347Y0122877D01*
X0282347Y0123611D01*
X0281980Y0123978D01*
X0281613Y0123978D01*
X0280879Y0123611D01*
X0280879Y0124712D01*
X0282347Y0124712D01*
X0282124Y0128416D02*
X0282124Y0130618D01*
X0283225Y0130618D01*
X0283592Y0130251D01*
X0283592Y0129517D01*
X0283225Y0129150D01*
X0282124Y0129150D01*
X0282858Y0129150D02*
X0283592Y0128416D01*
X0284334Y0128416D02*
X0285801Y0128416D01*
X0285067Y0128416D02*
X0285067Y0130618D01*
X0284334Y0129884D01*
X0286543Y0130251D02*
X0286910Y0130618D01*
X0287644Y0130618D01*
X0288011Y0130251D01*
X0288011Y0129884D01*
X0287644Y0129517D01*
X0288011Y0129150D01*
X0288011Y0128783D01*
X0287644Y0128416D01*
X0286910Y0128416D01*
X0286543Y0128783D01*
X0287277Y0129517D02*
X0287644Y0129517D01*
X0288753Y0130251D02*
X0289120Y0130618D01*
X0289854Y0130618D01*
X0290221Y0130251D01*
X0288753Y0128783D01*
X0289120Y0128416D01*
X0289854Y0128416D01*
X0290221Y0128783D01*
X0290221Y0130251D01*
X0288753Y0130251D02*
X0288753Y0128783D01*
X0289998Y0124712D02*
X0291099Y0124712D01*
X0291466Y0124345D01*
X0291466Y0123611D01*
X0291099Y0123244D01*
X0289998Y0123244D01*
X0290732Y0123244D02*
X0291466Y0122510D01*
X0292208Y0122510D02*
X0293675Y0122510D01*
X0292941Y0122510D02*
X0292941Y0124712D01*
X0292208Y0123978D01*
X0294417Y0124345D02*
X0294784Y0124712D01*
X0295518Y0124712D01*
X0295885Y0124345D01*
X0295885Y0123978D01*
X0295518Y0123611D01*
X0295885Y0123244D01*
X0295885Y0122877D01*
X0295518Y0122510D01*
X0294784Y0122510D01*
X0294417Y0122877D01*
X0295151Y0123611D02*
X0295518Y0123611D01*
X0296627Y0123611D02*
X0297361Y0123978D01*
X0297728Y0123978D01*
X0298095Y0123611D01*
X0298095Y0122877D01*
X0297728Y0122510D01*
X0296994Y0122510D01*
X0296627Y0122877D01*
X0296627Y0123611D02*
X0296627Y0124712D01*
X0298095Y0124712D01*
X0297872Y0128416D02*
X0297872Y0130618D01*
X0298973Y0130618D01*
X0299340Y0130251D01*
X0299340Y0129517D01*
X0298973Y0129150D01*
X0297872Y0129150D01*
X0298606Y0129150D02*
X0299340Y0128416D01*
X0300082Y0128416D02*
X0301549Y0128416D01*
X0300815Y0128416D02*
X0300815Y0130618D01*
X0300082Y0129884D01*
X0302291Y0129517D02*
X0303759Y0129517D01*
X0304501Y0130251D02*
X0304868Y0130618D01*
X0305602Y0130618D01*
X0305969Y0130251D01*
X0304501Y0128783D01*
X0304868Y0128416D01*
X0305602Y0128416D01*
X0305969Y0128783D01*
X0305969Y0130251D01*
X0304501Y0130251D02*
X0304501Y0128783D01*
X0303392Y0128416D02*
X0303392Y0130618D01*
X0302291Y0129517D01*
X0305746Y0124712D02*
X0306847Y0124712D01*
X0307214Y0124345D01*
X0307214Y0123611D01*
X0306847Y0123244D01*
X0305746Y0123244D01*
X0306480Y0123244D02*
X0307214Y0122510D01*
X0307956Y0122510D02*
X0309423Y0122510D01*
X0308690Y0122510D02*
X0308690Y0124712D01*
X0307956Y0123978D01*
X0310165Y0123611D02*
X0311633Y0123611D01*
X0312375Y0123611D02*
X0313109Y0123978D01*
X0313476Y0123978D01*
X0313843Y0123611D01*
X0313843Y0122877D01*
X0313476Y0122510D01*
X0312742Y0122510D01*
X0312375Y0122877D01*
X0312375Y0123611D02*
X0312375Y0124712D01*
X0313843Y0124712D01*
X0311266Y0124712D02*
X0310165Y0123611D01*
X0311266Y0122510D02*
X0311266Y0124712D01*
X0313620Y0128416D02*
X0313620Y0130618D01*
X0314721Y0130618D01*
X0315088Y0130251D01*
X0315088Y0129517D01*
X0314721Y0129150D01*
X0313620Y0129150D01*
X0314354Y0129150D02*
X0315088Y0128416D01*
X0315830Y0128416D02*
X0317297Y0128416D01*
X0316564Y0128416D02*
X0316564Y0130618D01*
X0315830Y0129884D01*
X0318039Y0129517D02*
X0318773Y0129884D01*
X0319140Y0129884D01*
X0319507Y0129517D01*
X0319507Y0128783D01*
X0319140Y0128416D01*
X0318406Y0128416D01*
X0318039Y0128783D01*
X0318039Y0129517D02*
X0318039Y0130618D01*
X0319507Y0130618D01*
X0320249Y0130251D02*
X0320249Y0128783D01*
X0321717Y0130251D01*
X0321717Y0128783D01*
X0321350Y0128416D01*
X0320616Y0128416D01*
X0320249Y0128783D01*
X0320249Y0130251D02*
X0320616Y0130618D01*
X0321350Y0130618D01*
X0321717Y0130251D01*
X0321494Y0124712D02*
X0322595Y0124712D01*
X0322962Y0124345D01*
X0322962Y0123611D01*
X0322595Y0123244D01*
X0321494Y0123244D01*
X0322228Y0123244D02*
X0322962Y0122510D01*
X0323704Y0122510D02*
X0325171Y0122510D01*
X0324438Y0122510D02*
X0324438Y0124712D01*
X0323704Y0123978D01*
X0325913Y0123611D02*
X0326647Y0123978D01*
X0327014Y0123978D01*
X0327381Y0123611D01*
X0327381Y0122877D01*
X0327014Y0122510D01*
X0326280Y0122510D01*
X0325913Y0122877D01*
X0325913Y0123611D02*
X0325913Y0124712D01*
X0327381Y0124712D01*
X0328123Y0124712D02*
X0328123Y0123611D01*
X0328857Y0123978D01*
X0329224Y0123978D01*
X0329591Y0123611D01*
X0329591Y0122877D01*
X0329224Y0122510D01*
X0328490Y0122510D01*
X0328123Y0122877D01*
X0328123Y0124712D02*
X0329591Y0124712D01*
X0329368Y0128416D02*
X0329368Y0130618D01*
X0330469Y0130618D01*
X0330836Y0130251D01*
X0330836Y0129517D01*
X0330469Y0129150D01*
X0329368Y0129150D01*
X0330102Y0129150D02*
X0330836Y0128416D01*
X0331578Y0128416D02*
X0333046Y0128416D01*
X0332312Y0128416D02*
X0332312Y0130618D01*
X0331578Y0129884D01*
X0333787Y0129517D02*
X0334888Y0129517D01*
X0335255Y0129150D01*
X0335255Y0128783D01*
X0334888Y0128416D01*
X0334154Y0128416D01*
X0333787Y0128783D01*
X0333787Y0129517D01*
X0334521Y0130251D01*
X0335255Y0130618D01*
X0335997Y0130251D02*
X0336364Y0130618D01*
X0337098Y0130618D01*
X0337465Y0130251D01*
X0335997Y0128783D01*
X0336364Y0128416D01*
X0337098Y0128416D01*
X0337465Y0128783D01*
X0337465Y0130251D01*
X0335997Y0130251D02*
X0335997Y0128783D01*
X0321494Y0124712D02*
X0321494Y0122510D01*
X0322635Y0115372D02*
X0323002Y0115372D01*
X0324470Y0113904D01*
X0324837Y0113904D01*
X0324470Y0113162D02*
X0324837Y0112795D01*
X0324837Y0112061D01*
X0324470Y0111694D01*
X0323736Y0111694D02*
X0323369Y0112428D01*
X0323369Y0112795D01*
X0323736Y0113162D01*
X0324470Y0113162D01*
X0323736Y0111694D02*
X0322635Y0111694D01*
X0322635Y0113162D01*
X0322635Y0113904D02*
X0322635Y0115372D01*
X0317357Y0115372D02*
X0317357Y0113904D01*
X0315889Y0115372D01*
X0315522Y0115372D01*
X0315155Y0115005D01*
X0315155Y0114271D01*
X0315522Y0113904D01*
X0315155Y0113162D02*
X0315155Y0111694D01*
X0316256Y0111694D01*
X0315889Y0112428D01*
X0315889Y0112795D01*
X0316256Y0113162D01*
X0316990Y0113162D01*
X0317357Y0112795D01*
X0317357Y0112061D01*
X0316990Y0111694D01*
X0317357Y0110952D02*
X0317357Y0109484D01*
X0317357Y0110218D02*
X0315155Y0110218D01*
X0315889Y0109484D01*
X0315522Y0108742D02*
X0316256Y0108742D01*
X0316623Y0108375D01*
X0316623Y0107274D01*
X0317357Y0107274D02*
X0315155Y0107274D01*
X0315155Y0108375D01*
X0315522Y0108742D01*
X0316623Y0108008D02*
X0317357Y0108742D01*
X0316564Y0105027D02*
X0315830Y0104293D01*
X0315088Y0103926D02*
X0314721Y0103559D01*
X0313620Y0103559D01*
X0314354Y0103559D02*
X0315088Y0102825D01*
X0315830Y0102825D02*
X0317297Y0102825D01*
X0316564Y0102825D02*
X0316564Y0105027D01*
X0315088Y0104660D02*
X0315088Y0103926D01*
X0315088Y0104660D02*
X0314721Y0105027D01*
X0313620Y0105027D01*
X0313620Y0102825D01*
X0313476Y0099122D02*
X0312375Y0098021D01*
X0313843Y0098021D01*
X0313476Y0096920D02*
X0313476Y0099122D01*
X0311633Y0098021D02*
X0310165Y0098021D01*
X0311266Y0099122D01*
X0311266Y0096920D01*
X0309423Y0096920D02*
X0307956Y0096920D01*
X0308690Y0096920D02*
X0308690Y0099122D01*
X0307956Y0098388D01*
X0307214Y0098755D02*
X0307214Y0098021D01*
X0306847Y0097654D01*
X0305746Y0097654D01*
X0306480Y0097654D02*
X0307214Y0096920D01*
X0305746Y0096920D02*
X0305746Y0099122D01*
X0306847Y0099122D01*
X0307214Y0098755D01*
X0305602Y0102825D02*
X0304868Y0102825D01*
X0304501Y0103192D01*
X0303759Y0103192D02*
X0303392Y0102825D01*
X0302658Y0102825D01*
X0302291Y0103192D01*
X0301549Y0102825D02*
X0300082Y0102825D01*
X0300815Y0102825D02*
X0300815Y0105027D01*
X0300082Y0104293D01*
X0299340Y0103926D02*
X0298973Y0103559D01*
X0297872Y0103559D01*
X0298606Y0103559D02*
X0299340Y0102825D01*
X0299340Y0103926D02*
X0299340Y0104660D01*
X0298973Y0105027D01*
X0297872Y0105027D01*
X0297872Y0102825D01*
X0297728Y0099122D02*
X0296627Y0098021D01*
X0298095Y0098021D01*
X0297728Y0096920D02*
X0297728Y0099122D01*
X0295885Y0098755D02*
X0295885Y0098388D01*
X0295518Y0098021D01*
X0295885Y0097654D01*
X0295885Y0097287D01*
X0295518Y0096920D01*
X0294784Y0096920D01*
X0294417Y0097287D01*
X0293675Y0096920D02*
X0292208Y0096920D01*
X0292941Y0096920D02*
X0292941Y0099122D01*
X0292208Y0098388D01*
X0291466Y0098755D02*
X0291466Y0098021D01*
X0291099Y0097654D01*
X0289998Y0097654D01*
X0290732Y0097654D02*
X0291466Y0096920D01*
X0289998Y0096920D02*
X0289998Y0099122D01*
X0291099Y0099122D01*
X0291466Y0098755D01*
X0294417Y0098755D02*
X0294784Y0099122D01*
X0295518Y0099122D01*
X0295885Y0098755D01*
X0295518Y0098021D02*
X0295151Y0098021D01*
X0290221Y0103192D02*
X0290221Y0104660D01*
X0289854Y0105027D01*
X0289120Y0105027D01*
X0288753Y0104660D01*
X0288753Y0104293D01*
X0289120Y0103926D01*
X0290221Y0103926D01*
X0290221Y0103192D02*
X0289854Y0102825D01*
X0289120Y0102825D01*
X0288753Y0103192D01*
X0288011Y0102825D02*
X0286543Y0102825D01*
X0288011Y0104293D01*
X0288011Y0104660D01*
X0287644Y0105027D01*
X0286910Y0105027D01*
X0286543Y0104660D01*
X0285067Y0105027D02*
X0285067Y0102825D01*
X0284334Y0102825D02*
X0285801Y0102825D01*
X0284334Y0104293D02*
X0285067Y0105027D01*
X0283592Y0104660D02*
X0283592Y0103926D01*
X0283225Y0103559D01*
X0282124Y0103559D01*
X0282858Y0103559D02*
X0283592Y0102825D01*
X0282124Y0102825D02*
X0282124Y0105027D01*
X0283225Y0105027D01*
X0283592Y0104660D01*
X0283659Y0106880D02*
X0283659Y0107981D01*
X0284026Y0108348D01*
X0284760Y0108348D01*
X0285127Y0107981D01*
X0285127Y0106880D01*
X0285861Y0106880D02*
X0283659Y0106880D01*
X0285127Y0107614D02*
X0285861Y0108348D01*
X0285861Y0109090D02*
X0285861Y0110558D01*
X0285861Y0109824D02*
X0283659Y0109824D01*
X0284393Y0109090D01*
X0284026Y0111300D02*
X0283659Y0111667D01*
X0283659Y0112401D01*
X0284026Y0112768D01*
X0284393Y0112768D01*
X0284760Y0112401D01*
X0285127Y0112768D01*
X0285494Y0112768D01*
X0285861Y0112401D01*
X0285861Y0111667D01*
X0285494Y0111300D01*
X0284760Y0112034D02*
X0284760Y0112401D01*
X0284026Y0113510D02*
X0283659Y0113877D01*
X0283659Y0114611D01*
X0284026Y0114978D01*
X0284393Y0114978D01*
X0285861Y0113510D01*
X0285861Y0114978D01*
X0291533Y0114978D02*
X0291900Y0114978D01*
X0293368Y0113510D01*
X0293735Y0113510D01*
X0293368Y0112768D02*
X0293735Y0112401D01*
X0293735Y0111667D01*
X0293368Y0111300D01*
X0293735Y0110558D02*
X0293735Y0109090D01*
X0293735Y0109824D02*
X0291533Y0109824D01*
X0292267Y0109090D01*
X0292634Y0108348D02*
X0293001Y0107981D01*
X0293001Y0106880D01*
X0293735Y0106880D02*
X0291533Y0106880D01*
X0291533Y0107981D01*
X0291900Y0108348D01*
X0292634Y0108348D01*
X0293001Y0107614D02*
X0293735Y0108348D01*
X0291900Y0111300D02*
X0291533Y0111667D01*
X0291533Y0112401D01*
X0291900Y0112768D01*
X0292267Y0112768D01*
X0292634Y0112401D01*
X0293001Y0112768D01*
X0293368Y0112768D01*
X0292634Y0112401D02*
X0292634Y0112034D01*
X0291533Y0113510D02*
X0291533Y0114978D01*
X0299013Y0115005D02*
X0299013Y0114271D01*
X0299380Y0113904D01*
X0300114Y0113162D02*
X0300114Y0111694D01*
X0299013Y0112795D01*
X0301215Y0112795D01*
X0301215Y0113904D02*
X0299747Y0115372D01*
X0299380Y0115372D01*
X0299013Y0115005D01*
X0301215Y0115372D02*
X0301215Y0113904D01*
X0301215Y0110952D02*
X0301215Y0109484D01*
X0301215Y0110218D02*
X0299013Y0110218D01*
X0299747Y0109484D01*
X0299380Y0108742D02*
X0300114Y0108742D01*
X0300481Y0108375D01*
X0300481Y0107274D01*
X0301215Y0107274D02*
X0299013Y0107274D01*
X0299013Y0108375D01*
X0299380Y0108742D01*
X0300481Y0108008D02*
X0301215Y0108742D01*
X0302658Y0105027D02*
X0303392Y0105027D01*
X0303759Y0104660D01*
X0303759Y0104293D01*
X0303392Y0103926D01*
X0303759Y0103559D01*
X0303759Y0103192D01*
X0303392Y0103926D02*
X0303025Y0103926D01*
X0302291Y0104660D02*
X0302658Y0105027D01*
X0304501Y0104660D02*
X0304501Y0104293D01*
X0304868Y0103926D01*
X0305969Y0103926D01*
X0305969Y0103192D02*
X0305969Y0104660D01*
X0305602Y0105027D01*
X0304868Y0105027D01*
X0304501Y0104660D01*
X0305969Y0103192D02*
X0305602Y0102825D01*
X0307281Y0106880D02*
X0307281Y0107981D01*
X0307648Y0108348D01*
X0308382Y0108348D01*
X0308749Y0107981D01*
X0308749Y0106880D01*
X0309483Y0106880D02*
X0307281Y0106880D01*
X0308749Y0107614D02*
X0309483Y0108348D01*
X0309483Y0109090D02*
X0309483Y0110558D01*
X0309483Y0109824D02*
X0307281Y0109824D01*
X0308015Y0109090D01*
X0308382Y0111300D02*
X0308382Y0112768D01*
X0308749Y0113510D02*
X0308382Y0113877D01*
X0308382Y0114611D01*
X0308749Y0114978D01*
X0309116Y0114978D01*
X0309483Y0114611D01*
X0309483Y0113877D01*
X0309116Y0113510D01*
X0308749Y0113510D01*
X0308382Y0113877D02*
X0308015Y0113510D01*
X0307648Y0113510D01*
X0307281Y0113877D01*
X0307281Y0114611D01*
X0307648Y0114978D01*
X0308015Y0114978D01*
X0308382Y0114611D01*
X0309483Y0112401D02*
X0307281Y0112401D01*
X0308382Y0111300D01*
X0318039Y0103926D02*
X0319507Y0103926D01*
X0320249Y0104293D02*
X0320616Y0103926D01*
X0321717Y0103926D01*
X0321717Y0103192D02*
X0321717Y0104660D01*
X0321350Y0105027D01*
X0320616Y0105027D01*
X0320249Y0104660D01*
X0320249Y0104293D01*
X0320249Y0103192D02*
X0320616Y0102825D01*
X0321350Y0102825D01*
X0321717Y0103192D01*
X0319140Y0102825D02*
X0319140Y0105027D01*
X0318039Y0103926D01*
X0322635Y0107274D02*
X0322635Y0108375D01*
X0323002Y0108742D01*
X0323736Y0108742D01*
X0324103Y0108375D01*
X0324103Y0107274D01*
X0324103Y0108008D02*
X0324837Y0108742D01*
X0324837Y0109484D02*
X0324837Y0110952D01*
X0324837Y0110218D02*
X0322635Y0110218D01*
X0323369Y0109484D01*
X0322635Y0107274D02*
X0324837Y0107274D01*
X0329368Y0105027D02*
X0330469Y0105027D01*
X0330836Y0104660D01*
X0330836Y0103926D01*
X0330469Y0103559D01*
X0329368Y0103559D01*
X0330102Y0103559D02*
X0330836Y0102825D01*
X0331578Y0102825D02*
X0333046Y0102825D01*
X0332312Y0102825D02*
X0332312Y0105027D01*
X0331578Y0104293D01*
X0333787Y0103926D02*
X0334521Y0104293D01*
X0334888Y0104293D01*
X0335255Y0103926D01*
X0335255Y0103192D01*
X0334888Y0102825D01*
X0334154Y0102825D01*
X0333787Y0103192D01*
X0333787Y0103926D02*
X0333787Y0105027D01*
X0335255Y0105027D01*
X0335997Y0104660D02*
X0335997Y0104293D01*
X0336364Y0103926D01*
X0337465Y0103926D01*
X0337465Y0103192D02*
X0337465Y0104660D01*
X0337098Y0105027D01*
X0336364Y0105027D01*
X0335997Y0104660D01*
X0335997Y0103192D02*
X0336364Y0102825D01*
X0337098Y0102825D01*
X0337465Y0103192D01*
X0329368Y0102825D02*
X0329368Y0105027D01*
X0329224Y0099122D02*
X0328123Y0098021D01*
X0329591Y0098021D01*
X0329224Y0096920D02*
X0329224Y0099122D01*
X0327381Y0099122D02*
X0325913Y0099122D01*
X0325913Y0098021D01*
X0326647Y0098388D01*
X0327014Y0098388D01*
X0327381Y0098021D01*
X0327381Y0097287D01*
X0327014Y0096920D01*
X0326280Y0096920D01*
X0325913Y0097287D01*
X0325171Y0096920D02*
X0323704Y0096920D01*
X0324438Y0096920D02*
X0324438Y0099122D01*
X0323704Y0098388D01*
X0322962Y0098755D02*
X0322962Y0098021D01*
X0322595Y0097654D01*
X0321494Y0097654D01*
X0322228Y0097654D02*
X0322962Y0096920D01*
X0321494Y0096920D02*
X0321494Y0099122D01*
X0322595Y0099122D01*
X0322962Y0098755D01*
X0323029Y0087813D02*
X0323396Y0087079D01*
X0324130Y0086345D01*
X0324130Y0087446D01*
X0324497Y0087813D01*
X0324864Y0087813D01*
X0325231Y0087446D01*
X0325231Y0086712D01*
X0324864Y0086345D01*
X0324130Y0086345D01*
X0324130Y0085603D02*
X0324864Y0085603D01*
X0325231Y0085236D01*
X0325231Y0084502D01*
X0324864Y0084135D01*
X0324130Y0084135D02*
X0323763Y0084869D01*
X0323763Y0085236D01*
X0324130Y0085603D01*
X0323029Y0085603D02*
X0323029Y0084135D01*
X0324130Y0084135D01*
X0325231Y0083393D02*
X0325231Y0081925D01*
X0325231Y0082659D02*
X0323029Y0082659D01*
X0323763Y0081925D01*
X0324130Y0081183D02*
X0324497Y0080816D01*
X0324497Y0079715D01*
X0325231Y0079715D02*
X0323029Y0079715D01*
X0323029Y0080816D01*
X0323396Y0081183D01*
X0324130Y0081183D01*
X0324497Y0080449D02*
X0325231Y0081183D01*
X0317357Y0080502D02*
X0315155Y0080502D01*
X0315155Y0081603D01*
X0315522Y0081970D01*
X0316256Y0081970D01*
X0316623Y0081603D01*
X0316623Y0080502D01*
X0316623Y0081236D02*
X0317357Y0081970D01*
X0317357Y0082712D02*
X0317357Y0084180D01*
X0317357Y0083446D02*
X0315155Y0083446D01*
X0315889Y0082712D01*
X0316256Y0084922D02*
X0315889Y0085656D01*
X0315889Y0086023D01*
X0316256Y0086390D01*
X0316990Y0086390D01*
X0317357Y0086023D01*
X0317357Y0085289D01*
X0316990Y0084922D01*
X0316256Y0084922D02*
X0315155Y0084922D01*
X0315155Y0086390D01*
X0315889Y0087132D02*
X0315155Y0087866D01*
X0317357Y0087866D01*
X0317357Y0087132D02*
X0317357Y0088600D01*
X0309483Y0086345D02*
X0309116Y0086345D01*
X0307648Y0087813D01*
X0307281Y0087813D01*
X0307281Y0086345D01*
X0307281Y0085236D02*
X0308382Y0084135D01*
X0308382Y0085603D01*
X0309483Y0085236D02*
X0307281Y0085236D01*
X0307281Y0082659D02*
X0309483Y0082659D01*
X0309483Y0081925D02*
X0309483Y0083393D01*
X0308015Y0081925D02*
X0307281Y0082659D01*
X0307648Y0081183D02*
X0308382Y0081183D01*
X0308749Y0080816D01*
X0308749Y0079715D01*
X0309483Y0079715D02*
X0307281Y0079715D01*
X0307281Y0080816D01*
X0307648Y0081183D01*
X0308749Y0080449D02*
X0309483Y0081183D01*
X0301609Y0081183D02*
X0300875Y0080449D01*
X0300875Y0080816D02*
X0300875Y0079715D01*
X0301609Y0079715D02*
X0299407Y0079715D01*
X0299407Y0080816D01*
X0299774Y0081183D01*
X0300508Y0081183D01*
X0300875Y0080816D01*
X0301609Y0081925D02*
X0301609Y0083393D01*
X0301609Y0082659D02*
X0299407Y0082659D01*
X0300141Y0081925D01*
X0300508Y0084135D02*
X0300508Y0085603D01*
X0300141Y0086345D02*
X0299407Y0087079D01*
X0301609Y0087079D01*
X0301609Y0086345D02*
X0301609Y0087813D01*
X0301609Y0085236D02*
X0299407Y0085236D01*
X0300508Y0084135D01*
X0293735Y0084502D02*
X0293368Y0084135D01*
X0293735Y0084502D02*
X0293735Y0085236D01*
X0293368Y0085603D01*
X0293001Y0085603D01*
X0292634Y0085236D01*
X0292634Y0084869D01*
X0292634Y0085236D02*
X0292267Y0085603D01*
X0291900Y0085603D01*
X0291533Y0085236D01*
X0291533Y0084502D01*
X0291900Y0084135D01*
X0291533Y0082659D02*
X0293735Y0082659D01*
X0293735Y0081925D02*
X0293735Y0083393D01*
X0292267Y0081925D02*
X0291533Y0082659D01*
X0291900Y0081183D02*
X0292634Y0081183D01*
X0293001Y0080816D01*
X0293001Y0079715D01*
X0293735Y0079715D02*
X0291533Y0079715D01*
X0291533Y0080816D01*
X0291900Y0081183D01*
X0293001Y0080449D02*
X0293735Y0081183D01*
X0293368Y0086345D02*
X0293735Y0086712D01*
X0293735Y0087446D01*
X0293368Y0087813D01*
X0293001Y0087813D01*
X0292634Y0087446D01*
X0292634Y0086345D01*
X0293368Y0086345D01*
X0292634Y0086345D02*
X0291900Y0087079D01*
X0291533Y0087813D01*
X0285861Y0087813D02*
X0285861Y0086345D01*
X0285861Y0087079D02*
X0283659Y0087079D01*
X0284393Y0086345D01*
X0284393Y0085603D02*
X0284760Y0085236D01*
X0285127Y0085603D01*
X0285494Y0085603D01*
X0285861Y0085236D01*
X0285861Y0084502D01*
X0285494Y0084135D01*
X0285861Y0083393D02*
X0285861Y0081925D01*
X0285861Y0082659D02*
X0283659Y0082659D01*
X0284393Y0081925D01*
X0284760Y0081183D02*
X0285127Y0080816D01*
X0285127Y0079715D01*
X0285861Y0079715D02*
X0283659Y0079715D01*
X0283659Y0080816D01*
X0284026Y0081183D01*
X0284760Y0081183D01*
X0285127Y0080449D02*
X0285861Y0081183D01*
X0284026Y0084135D02*
X0283659Y0084502D01*
X0283659Y0085236D01*
X0284026Y0085603D01*
X0284393Y0085603D01*
X0284760Y0085236D02*
X0284760Y0084869D01*
X0277987Y0085603D02*
X0277987Y0084135D01*
X0276519Y0085603D01*
X0276152Y0085603D01*
X0275785Y0085236D01*
X0275785Y0084502D01*
X0276152Y0084135D01*
X0275785Y0082659D02*
X0277987Y0082659D01*
X0277987Y0081925D02*
X0277987Y0083393D01*
X0276519Y0081925D02*
X0275785Y0082659D01*
X0276152Y0081183D02*
X0275785Y0080816D01*
X0275785Y0079715D01*
X0277987Y0079715D01*
X0277253Y0079715D02*
X0277253Y0080816D01*
X0276886Y0081183D01*
X0276152Y0081183D01*
X0277253Y0080449D02*
X0277987Y0081183D01*
X0277620Y0086345D02*
X0277987Y0086712D01*
X0277987Y0087446D01*
X0277620Y0087813D01*
X0277253Y0087813D01*
X0276886Y0087446D01*
X0276886Y0086345D01*
X0277620Y0086345D01*
X0276886Y0086345D02*
X0276152Y0087079D01*
X0275785Y0087813D01*
X0270113Y0087813D02*
X0270113Y0086345D01*
X0270113Y0087079D02*
X0267911Y0087079D01*
X0268645Y0086345D01*
X0268645Y0085603D02*
X0268278Y0085603D01*
X0267911Y0085236D01*
X0267911Y0084502D01*
X0268278Y0084135D01*
X0268645Y0085603D02*
X0270113Y0084135D01*
X0270113Y0085603D01*
X0270113Y0083393D02*
X0270113Y0081925D01*
X0270113Y0082659D02*
X0267911Y0082659D01*
X0268645Y0081925D01*
X0268278Y0081183D02*
X0269012Y0081183D01*
X0269379Y0080816D01*
X0269379Y0079715D01*
X0270113Y0079715D02*
X0267911Y0079715D01*
X0267911Y0080816D01*
X0268278Y0081183D01*
X0269379Y0080449D02*
X0270113Y0081183D01*
X0262239Y0081183D02*
X0261505Y0080449D01*
X0261505Y0080816D02*
X0261505Y0079715D01*
X0262239Y0079715D02*
X0260037Y0079715D01*
X0260037Y0080816D01*
X0260404Y0081183D01*
X0261138Y0081183D01*
X0261505Y0080816D01*
X0262239Y0081925D02*
X0262239Y0083393D01*
X0262239Y0082659D02*
X0260037Y0082659D01*
X0260771Y0081925D01*
X0260771Y0084135D02*
X0260037Y0084869D01*
X0262239Y0084869D01*
X0262239Y0084135D02*
X0262239Y0085603D01*
X0261872Y0086345D02*
X0261138Y0086345D01*
X0261138Y0087446D01*
X0261505Y0087813D01*
X0261872Y0087813D01*
X0262239Y0087446D01*
X0262239Y0086712D01*
X0261872Y0086345D01*
X0261138Y0086345D02*
X0260404Y0087079D01*
X0260037Y0087813D01*
X0254365Y0087866D02*
X0252163Y0087866D01*
X0252897Y0087132D01*
X0254365Y0087132D02*
X0254365Y0088600D01*
X0254365Y0086390D02*
X0254365Y0084922D01*
X0254365Y0085656D02*
X0252163Y0085656D01*
X0252897Y0084922D01*
X0254365Y0084180D02*
X0254365Y0082712D01*
X0254365Y0083446D02*
X0252163Y0083446D01*
X0252897Y0082712D01*
X0253264Y0081970D02*
X0253631Y0081603D01*
X0253631Y0080502D01*
X0254365Y0080502D02*
X0252163Y0080502D01*
X0252163Y0081603D01*
X0252530Y0081970D01*
X0253264Y0081970D01*
X0253631Y0081236D02*
X0254365Y0081970D01*
X0246491Y0081970D02*
X0245757Y0081236D01*
X0245757Y0081603D02*
X0245757Y0080502D01*
X0246491Y0080502D02*
X0244289Y0080502D01*
X0244289Y0081603D01*
X0244656Y0081970D01*
X0245390Y0081970D01*
X0245757Y0081603D01*
X0246491Y0082712D02*
X0246491Y0084180D01*
X0246491Y0083446D02*
X0244289Y0083446D01*
X0245023Y0082712D01*
X0244656Y0084922D02*
X0244289Y0085289D01*
X0244289Y0086023D01*
X0244656Y0086390D01*
X0246124Y0084922D01*
X0246491Y0085289D01*
X0246491Y0086023D01*
X0246124Y0086390D01*
X0244656Y0086390D01*
X0245390Y0087132D02*
X0245390Y0088233D01*
X0245757Y0088600D01*
X0246124Y0088600D01*
X0246491Y0088233D01*
X0246491Y0087499D01*
X0246124Y0087132D01*
X0245390Y0087132D01*
X0244656Y0087866D01*
X0244289Y0088600D01*
X0244656Y0084922D02*
X0246124Y0084922D01*
X0238617Y0085289D02*
X0238250Y0084922D01*
X0236782Y0086390D01*
X0238250Y0086390D01*
X0238617Y0086023D01*
X0238617Y0085289D01*
X0238250Y0084922D02*
X0236782Y0084922D01*
X0236415Y0085289D01*
X0236415Y0086023D01*
X0236782Y0086390D01*
X0237149Y0087132D02*
X0236415Y0087866D01*
X0238617Y0087866D01*
X0238617Y0087132D02*
X0238617Y0088600D01*
X0238617Y0084180D02*
X0238617Y0082712D01*
X0238617Y0083446D02*
X0236415Y0083446D01*
X0237149Y0082712D01*
X0237516Y0081970D02*
X0237883Y0081603D01*
X0237883Y0080502D01*
X0238617Y0080502D02*
X0236415Y0080502D01*
X0236415Y0081603D01*
X0236782Y0081970D01*
X0237516Y0081970D01*
X0237883Y0081236D02*
X0238617Y0081970D01*
X0230743Y0082077D02*
X0228541Y0082077D01*
X0228541Y0083178D01*
X0228908Y0083545D01*
X0229642Y0083545D01*
X0230009Y0083178D01*
X0230009Y0082077D01*
X0230009Y0082811D02*
X0230743Y0083545D01*
X0230376Y0084287D02*
X0230743Y0084654D01*
X0230743Y0085388D01*
X0230376Y0085755D01*
X0228908Y0085755D01*
X0228541Y0085388D01*
X0228541Y0084654D01*
X0228908Y0084287D01*
X0229275Y0084287D01*
X0229642Y0084654D01*
X0229642Y0085755D01*
X0230376Y0086497D02*
X0230743Y0086497D01*
X0230376Y0086497D02*
X0228908Y0087965D01*
X0228541Y0087965D01*
X0228541Y0086497D01*
X0222869Y0086497D02*
X0222869Y0087965D01*
X0222869Y0087231D02*
X0220667Y0087231D01*
X0221401Y0086497D01*
X0221768Y0085755D02*
X0221768Y0084654D01*
X0221401Y0084287D01*
X0221034Y0084287D01*
X0220667Y0084654D01*
X0220667Y0085388D01*
X0221034Y0085755D01*
X0222502Y0085755D01*
X0222869Y0085388D01*
X0222869Y0084654D01*
X0222502Y0084287D01*
X0222869Y0083545D02*
X0222135Y0082811D01*
X0222135Y0083178D02*
X0222135Y0082077D01*
X0222869Y0082077D02*
X0220667Y0082077D01*
X0220667Y0083178D01*
X0221034Y0083545D01*
X0221768Y0083545D01*
X0222135Y0083178D01*
X0214994Y0083545D02*
X0214261Y0082811D01*
X0214261Y0083178D02*
X0214261Y0082077D01*
X0214994Y0082077D02*
X0212793Y0082077D01*
X0212793Y0083178D01*
X0213160Y0083545D01*
X0213894Y0083545D01*
X0214261Y0083178D01*
X0214261Y0084287D02*
X0213894Y0084654D01*
X0213894Y0085388D01*
X0214261Y0085755D01*
X0214628Y0085755D01*
X0214994Y0085388D01*
X0214994Y0084654D01*
X0214628Y0084287D01*
X0214261Y0084287D01*
X0213894Y0084654D02*
X0213527Y0084287D01*
X0213160Y0084287D01*
X0212793Y0084654D01*
X0212793Y0085388D01*
X0213160Y0085755D01*
X0213527Y0085755D01*
X0213894Y0085388D01*
X0213894Y0086497D02*
X0213894Y0087598D01*
X0214261Y0087965D01*
X0214628Y0087965D01*
X0214994Y0087598D01*
X0214994Y0086864D01*
X0214628Y0086497D01*
X0213894Y0086497D01*
X0213160Y0087231D01*
X0212793Y0087965D01*
X0207120Y0087965D02*
X0207120Y0086497D01*
X0207120Y0087231D02*
X0204919Y0087231D01*
X0205653Y0086497D01*
X0205653Y0085755D02*
X0206020Y0085388D01*
X0206020Y0084654D01*
X0205653Y0084287D01*
X0205286Y0084287D01*
X0204919Y0084654D01*
X0204919Y0085388D01*
X0205286Y0085755D01*
X0205653Y0085755D01*
X0206020Y0085388D02*
X0206387Y0085755D01*
X0206753Y0085755D01*
X0207120Y0085388D01*
X0207120Y0084654D01*
X0206753Y0084287D01*
X0206387Y0084287D01*
X0206020Y0084654D01*
X0206020Y0083545D02*
X0206387Y0083178D01*
X0206387Y0082077D01*
X0207120Y0082077D02*
X0204919Y0082077D01*
X0204919Y0083178D01*
X0205286Y0083545D01*
X0206020Y0083545D01*
X0206387Y0082811D02*
X0207120Y0083545D01*
X0199246Y0083545D02*
X0198512Y0082811D01*
X0198512Y0083178D02*
X0198512Y0082077D01*
X0199246Y0082077D02*
X0197045Y0082077D01*
X0197045Y0083178D01*
X0197412Y0083545D01*
X0198146Y0083545D01*
X0198512Y0083178D01*
X0198879Y0084287D02*
X0199246Y0084287D01*
X0198879Y0084287D02*
X0197412Y0085755D01*
X0197045Y0085755D01*
X0197045Y0084287D01*
X0198146Y0086497D02*
X0198146Y0087598D01*
X0198512Y0087965D01*
X0198879Y0087965D01*
X0199246Y0087598D01*
X0199246Y0086864D01*
X0198879Y0086497D01*
X0198146Y0086497D01*
X0197412Y0087231D01*
X0197045Y0087965D01*
X0191372Y0087965D02*
X0191372Y0086497D01*
X0191372Y0087231D02*
X0189171Y0087231D01*
X0189905Y0086497D01*
X0189538Y0085755D02*
X0191005Y0084287D01*
X0191372Y0084287D01*
X0191372Y0083545D02*
X0190638Y0082811D01*
X0190638Y0083178D02*
X0190638Y0082077D01*
X0191372Y0082077D02*
X0189171Y0082077D01*
X0189171Y0083178D01*
X0189538Y0083545D01*
X0190272Y0083545D01*
X0190638Y0083178D01*
X0189171Y0084287D02*
X0189171Y0085755D01*
X0189538Y0085755D01*
X0183498Y0085388D02*
X0183131Y0085755D01*
X0182764Y0085755D01*
X0182397Y0085388D01*
X0182397Y0084287D01*
X0183131Y0084287D01*
X0183498Y0084654D01*
X0183498Y0085388D01*
X0183131Y0086497D02*
X0183498Y0086864D01*
X0183498Y0087598D01*
X0183131Y0087965D01*
X0182764Y0087965D01*
X0182397Y0087598D01*
X0182397Y0086497D01*
X0183131Y0086497D01*
X0182397Y0086497D02*
X0181664Y0087231D01*
X0181297Y0087965D01*
X0181297Y0085755D02*
X0181664Y0085021D01*
X0182397Y0084287D01*
X0182397Y0083545D02*
X0182764Y0083178D01*
X0182764Y0082077D01*
X0182764Y0082811D02*
X0183498Y0083545D01*
X0182397Y0083545D02*
X0181664Y0083545D01*
X0181297Y0083178D01*
X0181297Y0082077D01*
X0183498Y0082077D01*
X0175624Y0082077D02*
X0173423Y0082077D01*
X0173423Y0083178D01*
X0173790Y0083545D01*
X0174523Y0083545D01*
X0174890Y0083178D01*
X0174890Y0082077D01*
X0174890Y0082811D02*
X0175624Y0083545D01*
X0175257Y0084287D02*
X0175624Y0084654D01*
X0175624Y0085388D01*
X0175257Y0085755D01*
X0174890Y0085755D01*
X0174523Y0085388D01*
X0174523Y0084287D01*
X0175257Y0084287D01*
X0174523Y0084287D02*
X0173790Y0085021D01*
X0173423Y0085755D01*
X0174156Y0086497D02*
X0173423Y0087231D01*
X0175624Y0087231D01*
X0175624Y0086497D02*
X0175624Y0087965D01*
X0167750Y0087598D02*
X0167383Y0087965D01*
X0167016Y0087965D01*
X0166649Y0087598D01*
X0166649Y0086497D01*
X0167383Y0086497D01*
X0167750Y0086864D01*
X0167750Y0087598D01*
X0166649Y0086497D02*
X0165916Y0087231D01*
X0165549Y0087965D01*
X0165549Y0085755D02*
X0165549Y0084287D01*
X0166649Y0084287D01*
X0166282Y0085021D01*
X0166282Y0085388D01*
X0166649Y0085755D01*
X0167383Y0085755D01*
X0167750Y0085388D01*
X0167750Y0084654D01*
X0167383Y0084287D01*
X0167750Y0083545D02*
X0167016Y0082811D01*
X0167016Y0083178D02*
X0167016Y0082077D01*
X0167750Y0082077D02*
X0165549Y0082077D01*
X0165549Y0083178D01*
X0165916Y0083545D01*
X0166649Y0083545D01*
X0167016Y0083178D01*
X0159876Y0083545D02*
X0159142Y0082811D01*
X0159142Y0083178D02*
X0159142Y0082077D01*
X0159876Y0082077D02*
X0157675Y0082077D01*
X0157675Y0083178D01*
X0158041Y0083545D01*
X0158775Y0083545D01*
X0159142Y0083178D01*
X0158775Y0084287D02*
X0158408Y0085021D01*
X0158408Y0085388D01*
X0158775Y0085755D01*
X0159509Y0085755D01*
X0159876Y0085388D01*
X0159876Y0084654D01*
X0159509Y0084287D01*
X0158775Y0084287D02*
X0157675Y0084287D01*
X0157675Y0085755D01*
X0158408Y0086497D02*
X0157675Y0087231D01*
X0159876Y0087231D01*
X0159876Y0086497D02*
X0159876Y0087965D01*
X0152002Y0086497D02*
X0151635Y0086497D01*
X0150167Y0087965D01*
X0149800Y0087965D01*
X0149800Y0086497D01*
X0149800Y0085388D02*
X0150901Y0084287D01*
X0150901Y0085755D01*
X0152002Y0085388D02*
X0149800Y0085388D01*
X0150167Y0083545D02*
X0150901Y0083545D01*
X0151268Y0083178D01*
X0151268Y0082077D01*
X0151268Y0082811D02*
X0152002Y0083545D01*
X0152002Y0082077D02*
X0149800Y0082077D01*
X0149800Y0083178D01*
X0150167Y0083545D01*
X0144128Y0083545D02*
X0143394Y0082811D01*
X0143394Y0083178D02*
X0143394Y0082077D01*
X0144128Y0082077D02*
X0141926Y0082077D01*
X0141926Y0083178D01*
X0142293Y0083545D01*
X0143027Y0083545D01*
X0143394Y0083178D01*
X0143027Y0084287D02*
X0143027Y0085755D01*
X0142660Y0086497D02*
X0141926Y0087231D01*
X0144128Y0087231D01*
X0144128Y0086497D02*
X0144128Y0087965D01*
X0144128Y0085388D02*
X0141926Y0085388D01*
X0143027Y0084287D01*
X0138038Y0096920D02*
X0138038Y0099122D01*
X0136937Y0098021D01*
X0138405Y0098021D01*
X0136195Y0098388D02*
X0135828Y0098021D01*
X0136195Y0097654D01*
X0136195Y0097287D01*
X0135828Y0096920D01*
X0135094Y0096920D01*
X0134727Y0097287D01*
X0133985Y0096920D02*
X0133251Y0097654D01*
X0133618Y0097654D02*
X0132517Y0097654D01*
X0132517Y0096920D02*
X0132517Y0099122D01*
X0133618Y0099122D01*
X0133985Y0098755D01*
X0133985Y0098021D01*
X0133618Y0097654D01*
X0134727Y0098755D02*
X0135094Y0099122D01*
X0135828Y0099122D01*
X0136195Y0098755D01*
X0136195Y0098388D01*
X0135828Y0098021D02*
X0135461Y0098021D01*
X0140391Y0102825D02*
X0140391Y0105027D01*
X0141492Y0105027D01*
X0141859Y0104660D01*
X0141859Y0103926D01*
X0141492Y0103559D01*
X0140391Y0103559D01*
X0141125Y0103559D02*
X0141859Y0102825D01*
X0142601Y0103192D02*
X0142968Y0102825D01*
X0143702Y0102825D01*
X0144069Y0103192D01*
X0144069Y0103559D01*
X0143702Y0103926D01*
X0143335Y0103926D01*
X0143702Y0103926D02*
X0144069Y0104293D01*
X0144069Y0104660D01*
X0143702Y0105027D01*
X0142968Y0105027D01*
X0142601Y0104660D01*
X0144811Y0104660D02*
X0144811Y0104293D01*
X0145178Y0103926D01*
X0146279Y0103926D01*
X0146279Y0103192D02*
X0146279Y0104660D01*
X0145912Y0105027D01*
X0145178Y0105027D01*
X0144811Y0104660D01*
X0144811Y0103192D02*
X0145178Y0102825D01*
X0145912Y0102825D01*
X0146279Y0103192D01*
X0148265Y0099122D02*
X0149366Y0099122D01*
X0149733Y0098755D01*
X0149733Y0098021D01*
X0149366Y0097654D01*
X0148265Y0097654D01*
X0148265Y0096920D02*
X0148265Y0099122D01*
X0148999Y0097654D02*
X0149733Y0096920D01*
X0150475Y0098021D02*
X0151943Y0098021D01*
X0152685Y0098021D02*
X0154153Y0098021D01*
X0153786Y0099122D02*
X0152685Y0098021D01*
X0153786Y0096920D02*
X0153786Y0099122D01*
X0151576Y0099122D02*
X0151576Y0096920D01*
X0150475Y0098021D02*
X0151576Y0099122D01*
X0156139Y0102825D02*
X0156139Y0105027D01*
X0157240Y0105027D01*
X0157607Y0104660D01*
X0157607Y0103926D01*
X0157240Y0103559D01*
X0156139Y0103559D01*
X0156873Y0103559D02*
X0157607Y0102825D01*
X0158349Y0103926D02*
X0159817Y0103926D01*
X0160559Y0104293D02*
X0160926Y0103926D01*
X0162027Y0103926D01*
X0162027Y0103192D02*
X0162027Y0104660D01*
X0161660Y0105027D01*
X0160926Y0105027D01*
X0160559Y0104660D01*
X0160559Y0104293D01*
X0160559Y0103192D02*
X0160926Y0102825D01*
X0161660Y0102825D01*
X0162027Y0103192D01*
X0159450Y0102825D02*
X0159450Y0105027D01*
X0158349Y0103926D01*
X0157675Y0107668D02*
X0157675Y0108769D01*
X0158041Y0109136D01*
X0158775Y0109136D01*
X0159142Y0108769D01*
X0159142Y0107668D01*
X0159142Y0108402D02*
X0159876Y0109136D01*
X0159509Y0109878D02*
X0159876Y0110245D01*
X0159876Y0110979D01*
X0159509Y0111346D01*
X0158775Y0111346D01*
X0158408Y0110979D01*
X0158408Y0110612D01*
X0158775Y0109878D01*
X0157675Y0109878D01*
X0157675Y0111346D01*
X0158041Y0112087D02*
X0157675Y0112454D01*
X0157675Y0113188D01*
X0158041Y0113555D01*
X0158408Y0113555D01*
X0159876Y0112087D01*
X0159876Y0113555D01*
X0165549Y0113555D02*
X0165549Y0112087D01*
X0165549Y0111346D02*
X0165549Y0109878D01*
X0166649Y0109878D01*
X0166282Y0110612D01*
X0166282Y0110979D01*
X0166649Y0111346D01*
X0167383Y0111346D01*
X0167750Y0110979D01*
X0167750Y0110245D01*
X0167383Y0109878D01*
X0167750Y0109136D02*
X0167016Y0108402D01*
X0167016Y0108769D02*
X0167016Y0107668D01*
X0167750Y0107668D02*
X0165549Y0107668D01*
X0165549Y0108769D01*
X0165916Y0109136D01*
X0166649Y0109136D01*
X0167016Y0108769D01*
X0167383Y0112087D02*
X0167750Y0112087D01*
X0167383Y0112087D02*
X0165916Y0113555D01*
X0165549Y0113555D01*
X0173423Y0113188D02*
X0173423Y0112454D01*
X0173790Y0112087D01*
X0173423Y0111346D02*
X0173790Y0110612D01*
X0174523Y0109878D01*
X0174523Y0110979D01*
X0174890Y0111346D01*
X0175257Y0111346D01*
X0175624Y0110979D01*
X0175624Y0110245D01*
X0175257Y0109878D01*
X0174523Y0109878D01*
X0174523Y0109136D02*
X0173790Y0109136D01*
X0173423Y0108769D01*
X0173423Y0107668D01*
X0175624Y0107668D01*
X0174890Y0107668D02*
X0174890Y0108769D01*
X0174523Y0109136D01*
X0174890Y0108402D02*
X0175624Y0109136D01*
X0175624Y0112087D02*
X0174156Y0113555D01*
X0173790Y0113555D01*
X0173423Y0113188D01*
X0175624Y0113555D02*
X0175624Y0112087D01*
X0181297Y0112087D02*
X0181297Y0113555D01*
X0181664Y0113555D01*
X0183131Y0112087D01*
X0183498Y0112087D01*
X0183131Y0111346D02*
X0182764Y0111346D01*
X0182397Y0110979D01*
X0182397Y0109878D01*
X0183131Y0109878D01*
X0183498Y0110245D01*
X0183498Y0110979D01*
X0183131Y0111346D01*
X0181664Y0110612D02*
X0182397Y0109878D01*
X0182397Y0109136D02*
X0182764Y0108769D01*
X0182764Y0107668D01*
X0182764Y0108402D02*
X0183498Y0109136D01*
X0182397Y0109136D02*
X0181664Y0109136D01*
X0181297Y0108769D01*
X0181297Y0107668D01*
X0183498Y0107668D01*
X0181664Y0110612D02*
X0181297Y0111346D01*
X0177408Y0105027D02*
X0176674Y0105027D01*
X0176307Y0104660D01*
X0176307Y0104293D01*
X0176674Y0103926D01*
X0177775Y0103926D01*
X0177775Y0103192D02*
X0177775Y0104660D01*
X0177408Y0105027D01*
X0175565Y0105027D02*
X0174097Y0105027D01*
X0174097Y0103926D01*
X0174831Y0104293D01*
X0175198Y0104293D01*
X0175565Y0103926D01*
X0175565Y0103192D01*
X0175198Y0102825D01*
X0174464Y0102825D01*
X0174097Y0103192D01*
X0173355Y0102825D02*
X0172621Y0103559D01*
X0172988Y0103559D02*
X0171887Y0103559D01*
X0171887Y0102825D02*
X0171887Y0105027D01*
X0172988Y0105027D01*
X0173355Y0104660D01*
X0173355Y0103926D01*
X0172988Y0103559D01*
X0176307Y0103192D02*
X0176674Y0102825D01*
X0177408Y0102825D01*
X0177775Y0103192D01*
X0179761Y0099122D02*
X0180862Y0099122D01*
X0181229Y0098755D01*
X0181229Y0098021D01*
X0180862Y0097654D01*
X0179761Y0097654D01*
X0179761Y0096920D02*
X0179761Y0099122D01*
X0180495Y0097654D02*
X0181229Y0096920D01*
X0181971Y0097287D02*
X0181971Y0098021D01*
X0183072Y0098021D01*
X0183439Y0097654D01*
X0183439Y0097287D01*
X0183072Y0096920D01*
X0182338Y0096920D01*
X0181971Y0097287D01*
X0181971Y0098021D02*
X0182705Y0098755D01*
X0183439Y0099122D01*
X0184181Y0098021D02*
X0185649Y0098021D01*
X0185282Y0099122D02*
X0184181Y0098021D01*
X0185282Y0096920D02*
X0185282Y0099122D01*
X0187635Y0102825D02*
X0187635Y0105027D01*
X0188736Y0105027D01*
X0189103Y0104660D01*
X0189103Y0103926D01*
X0188736Y0103559D01*
X0187635Y0103559D01*
X0188369Y0103559D02*
X0189103Y0102825D01*
X0189845Y0103192D02*
X0190212Y0102825D01*
X0190946Y0102825D01*
X0191313Y0103192D01*
X0191313Y0103559D01*
X0190946Y0103926D01*
X0189845Y0103926D01*
X0189845Y0103192D01*
X0189845Y0103926D02*
X0190579Y0104660D01*
X0191313Y0105027D01*
X0192055Y0104660D02*
X0192055Y0104293D01*
X0192422Y0103926D01*
X0193523Y0103926D01*
X0193523Y0103192D02*
X0193523Y0104660D01*
X0193156Y0105027D01*
X0192422Y0105027D01*
X0192055Y0104660D01*
X0192055Y0103192D02*
X0192422Y0102825D01*
X0193156Y0102825D01*
X0193523Y0103192D01*
X0195509Y0099122D02*
X0196610Y0099122D01*
X0196977Y0098755D01*
X0196977Y0098021D01*
X0196610Y0097654D01*
X0195509Y0097654D01*
X0195509Y0096920D02*
X0195509Y0099122D01*
X0196243Y0097654D02*
X0196977Y0096920D01*
X0197719Y0096920D02*
X0197719Y0097287D01*
X0199187Y0098755D01*
X0199187Y0099122D01*
X0197719Y0099122D01*
X0199929Y0098021D02*
X0201397Y0098021D01*
X0201030Y0099122D02*
X0199929Y0098021D01*
X0201030Y0096920D02*
X0201030Y0099122D01*
X0203383Y0102825D02*
X0203383Y0105027D01*
X0204484Y0105027D01*
X0204851Y0104660D01*
X0204851Y0103926D01*
X0204484Y0103559D01*
X0203383Y0103559D01*
X0204117Y0103559D02*
X0204851Y0102825D01*
X0205593Y0102825D02*
X0205593Y0103192D01*
X0207061Y0104660D01*
X0207061Y0105027D01*
X0205593Y0105027D01*
X0207803Y0104660D02*
X0207803Y0104293D01*
X0208170Y0103926D01*
X0209271Y0103926D01*
X0209271Y0103192D02*
X0209271Y0104660D01*
X0208904Y0105027D01*
X0208170Y0105027D01*
X0207803Y0104660D01*
X0207803Y0103192D02*
X0208170Y0102825D01*
X0208904Y0102825D01*
X0209271Y0103192D01*
X0211257Y0099122D02*
X0212358Y0099122D01*
X0212725Y0098755D01*
X0212725Y0098021D01*
X0212358Y0097654D01*
X0211257Y0097654D01*
X0211257Y0096920D02*
X0211257Y0099122D01*
X0211991Y0097654D02*
X0212725Y0096920D01*
X0213467Y0097287D02*
X0213467Y0097654D01*
X0213834Y0098021D01*
X0214568Y0098021D01*
X0214935Y0097654D01*
X0214935Y0097287D01*
X0214568Y0096920D01*
X0213834Y0096920D01*
X0213467Y0097287D01*
X0213834Y0098021D02*
X0213467Y0098388D01*
X0213467Y0098755D01*
X0213834Y0099122D01*
X0214568Y0099122D01*
X0214935Y0098755D01*
X0214935Y0098388D01*
X0214568Y0098021D01*
X0215677Y0098021D02*
X0217145Y0098021D01*
X0216778Y0099122D02*
X0215677Y0098021D01*
X0216778Y0096920D02*
X0216778Y0099122D01*
X0219131Y0102825D02*
X0219131Y0105027D01*
X0220232Y0105027D01*
X0220599Y0104660D01*
X0220599Y0103926D01*
X0220232Y0103559D01*
X0219131Y0103559D01*
X0219865Y0103559D02*
X0220599Y0102825D01*
X0221341Y0103192D02*
X0221341Y0103559D01*
X0221708Y0103926D01*
X0222442Y0103926D01*
X0222809Y0103559D01*
X0222809Y0103192D01*
X0222442Y0102825D01*
X0221708Y0102825D01*
X0221341Y0103192D01*
X0221708Y0103926D02*
X0221341Y0104293D01*
X0221341Y0104660D01*
X0221708Y0105027D01*
X0222442Y0105027D01*
X0222809Y0104660D01*
X0222809Y0104293D01*
X0222442Y0103926D01*
X0223551Y0104293D02*
X0223918Y0103926D01*
X0225019Y0103926D01*
X0225019Y0103192D02*
X0225019Y0104660D01*
X0224652Y0105027D01*
X0223918Y0105027D01*
X0223551Y0104660D01*
X0223551Y0104293D01*
X0223551Y0103192D02*
X0223918Y0102825D01*
X0224652Y0102825D01*
X0225019Y0103192D01*
X0227006Y0099122D02*
X0228106Y0099122D01*
X0228473Y0098755D01*
X0228473Y0098021D01*
X0228106Y0097654D01*
X0227006Y0097654D01*
X0227739Y0097654D02*
X0228473Y0096920D01*
X0229215Y0097287D02*
X0229582Y0096920D01*
X0230316Y0096920D01*
X0230683Y0097287D01*
X0230683Y0098755D01*
X0230316Y0099122D01*
X0229582Y0099122D01*
X0229215Y0098755D01*
X0229215Y0098388D01*
X0229582Y0098021D01*
X0230683Y0098021D01*
X0231425Y0098021D02*
X0232893Y0098021D01*
X0232526Y0099122D02*
X0231425Y0098021D01*
X0232526Y0096920D02*
X0232526Y0099122D01*
X0234880Y0102825D02*
X0234880Y0105027D01*
X0235980Y0105027D01*
X0236347Y0104660D01*
X0236347Y0103926D01*
X0235980Y0103559D01*
X0234880Y0103559D01*
X0235613Y0103559D02*
X0236347Y0102825D01*
X0237089Y0103192D02*
X0237456Y0102825D01*
X0238190Y0102825D01*
X0238557Y0103192D01*
X0238557Y0104660D01*
X0238190Y0105027D01*
X0237456Y0105027D01*
X0237089Y0104660D01*
X0237089Y0104293D01*
X0237456Y0103926D01*
X0238557Y0103926D01*
X0239299Y0104293D02*
X0239666Y0103926D01*
X0240767Y0103926D01*
X0240767Y0103192D02*
X0240767Y0104660D01*
X0240400Y0105027D01*
X0239666Y0105027D01*
X0239299Y0104660D01*
X0239299Y0104293D01*
X0239299Y0103192D02*
X0239666Y0102825D01*
X0240400Y0102825D01*
X0240767Y0103192D01*
X0242754Y0099122D02*
X0243854Y0099122D01*
X0244221Y0098755D01*
X0244221Y0098021D01*
X0243854Y0097654D01*
X0242754Y0097654D01*
X0243487Y0097654D02*
X0244221Y0096920D01*
X0244963Y0096920D02*
X0246431Y0096920D01*
X0245697Y0096920D02*
X0245697Y0099122D01*
X0244963Y0098388D01*
X0247173Y0098755D02*
X0247173Y0097287D01*
X0248641Y0098755D01*
X0248641Y0097287D01*
X0248274Y0096920D01*
X0247540Y0096920D01*
X0247173Y0097287D01*
X0247173Y0098755D02*
X0247540Y0099122D01*
X0248274Y0099122D01*
X0248641Y0098755D01*
X0249383Y0098021D02*
X0250851Y0098021D01*
X0250484Y0096920D02*
X0250484Y0099122D01*
X0249383Y0098021D01*
X0250628Y0102825D02*
X0250628Y0105027D01*
X0251728Y0105027D01*
X0252095Y0104660D01*
X0252095Y0103926D01*
X0251728Y0103559D01*
X0250628Y0103559D01*
X0251362Y0103559D02*
X0252095Y0102825D01*
X0252837Y0102825D02*
X0254305Y0102825D01*
X0253571Y0102825D02*
X0253571Y0105027D01*
X0252837Y0104293D01*
X0255047Y0104660D02*
X0255047Y0103192D01*
X0256515Y0104660D01*
X0256515Y0103192D01*
X0256148Y0102825D01*
X0255414Y0102825D01*
X0255047Y0103192D01*
X0255047Y0104660D02*
X0255414Y0105027D01*
X0256148Y0105027D01*
X0256515Y0104660D01*
X0257257Y0104660D02*
X0257257Y0104293D01*
X0257624Y0103926D01*
X0258725Y0103926D01*
X0258725Y0103192D02*
X0258725Y0104660D01*
X0258358Y0105027D01*
X0257624Y0105027D01*
X0257257Y0104660D01*
X0257257Y0103192D02*
X0257624Y0102825D01*
X0258358Y0102825D01*
X0258725Y0103192D01*
X0258502Y0099122D02*
X0259603Y0099122D01*
X0259969Y0098755D01*
X0259969Y0098021D01*
X0259603Y0097654D01*
X0258502Y0097654D01*
X0259236Y0097654D02*
X0259969Y0096920D01*
X0260711Y0096920D02*
X0262179Y0096920D01*
X0261445Y0096920D02*
X0261445Y0099122D01*
X0260711Y0098388D01*
X0262921Y0098388D02*
X0263655Y0099122D01*
X0263655Y0096920D01*
X0262921Y0096920D02*
X0264389Y0096920D01*
X0265131Y0098021D02*
X0266599Y0098021D01*
X0266232Y0099122D02*
X0265131Y0098021D01*
X0266232Y0096920D02*
X0266232Y0099122D01*
X0266376Y0102825D02*
X0266376Y0105027D01*
X0267477Y0105027D01*
X0267844Y0104660D01*
X0267844Y0103926D01*
X0267477Y0103559D01*
X0266376Y0103559D01*
X0267110Y0103559D02*
X0267844Y0102825D01*
X0268585Y0102825D02*
X0270053Y0102825D01*
X0269319Y0102825D02*
X0269319Y0105027D01*
X0268585Y0104293D01*
X0270795Y0104293D02*
X0271529Y0105027D01*
X0271529Y0102825D01*
X0270795Y0102825D02*
X0272263Y0102825D01*
X0273005Y0103192D02*
X0273372Y0102825D01*
X0274106Y0102825D01*
X0274473Y0103192D01*
X0274473Y0104660D01*
X0274106Y0105027D01*
X0273372Y0105027D01*
X0273005Y0104660D01*
X0273005Y0104293D01*
X0273372Y0103926D01*
X0274473Y0103926D01*
X0275391Y0106880D02*
X0275391Y0107981D01*
X0275758Y0108348D01*
X0276492Y0108348D01*
X0276859Y0107981D01*
X0276859Y0106880D01*
X0277593Y0106880D02*
X0275391Y0106880D01*
X0276859Y0107614D02*
X0277593Y0108348D01*
X0277593Y0109090D02*
X0277593Y0110558D01*
X0277593Y0109824D02*
X0275391Y0109824D01*
X0276125Y0109090D01*
X0275758Y0111300D02*
X0275391Y0111667D01*
X0275391Y0112401D01*
X0275758Y0112768D01*
X0276125Y0112768D01*
X0277593Y0111300D01*
X0277593Y0112768D01*
X0277593Y0113510D02*
X0277226Y0113510D01*
X0275758Y0114978D01*
X0275391Y0114978D01*
X0275391Y0113510D01*
X0270113Y0113162D02*
X0270113Y0111694D01*
X0268645Y0113162D01*
X0268278Y0113162D01*
X0267911Y0112795D01*
X0267911Y0112061D01*
X0268278Y0111694D01*
X0267911Y0110218D02*
X0270113Y0110218D01*
X0270113Y0109484D02*
X0270113Y0110952D01*
X0268645Y0109484D02*
X0267911Y0110218D01*
X0268278Y0108742D02*
X0269012Y0108742D01*
X0269379Y0108375D01*
X0269379Y0107274D01*
X0270113Y0107274D02*
X0267911Y0107274D01*
X0267911Y0108375D01*
X0268278Y0108742D01*
X0269379Y0108008D02*
X0270113Y0108742D01*
X0270113Y0113904D02*
X0268645Y0115372D01*
X0268278Y0115372D01*
X0267911Y0115005D01*
X0267911Y0114271D01*
X0268278Y0113904D01*
X0270113Y0113904D02*
X0270113Y0115372D01*
X0262239Y0113510D02*
X0261872Y0113510D01*
X0260404Y0114978D01*
X0260037Y0114978D01*
X0260037Y0113510D01*
X0260037Y0112034D02*
X0262239Y0112034D01*
X0262239Y0111300D02*
X0262239Y0112768D01*
X0260771Y0111300D02*
X0260037Y0112034D01*
X0260037Y0109824D02*
X0262239Y0109824D01*
X0262239Y0109090D02*
X0262239Y0110558D01*
X0260771Y0109090D02*
X0260037Y0109824D01*
X0260404Y0108348D02*
X0261138Y0108348D01*
X0261505Y0107981D01*
X0261505Y0106880D01*
X0262239Y0106880D02*
X0260037Y0106880D01*
X0260037Y0107981D01*
X0260404Y0108348D01*
X0261505Y0107614D02*
X0262239Y0108348D01*
X0254365Y0108742D02*
X0253631Y0108008D01*
X0253631Y0108375D02*
X0253631Y0107274D01*
X0254365Y0107274D02*
X0252163Y0107274D01*
X0252163Y0108375D01*
X0252530Y0108742D01*
X0253264Y0108742D01*
X0253631Y0108375D01*
X0254365Y0109484D02*
X0254365Y0110952D01*
X0254365Y0110218D02*
X0252163Y0110218D01*
X0252897Y0109484D01*
X0252897Y0111694D02*
X0252163Y0112428D01*
X0254365Y0112428D01*
X0254365Y0111694D02*
X0254365Y0113162D01*
X0254365Y0113904D02*
X0252897Y0115372D01*
X0252530Y0115372D01*
X0252163Y0115005D01*
X0252163Y0114271D01*
X0252530Y0113904D01*
X0254365Y0113904D02*
X0254365Y0115372D01*
X0258502Y0122510D02*
X0258502Y0124712D01*
X0274250Y0124712D02*
X0274250Y0122510D01*
X0289998Y0122510D02*
X0289998Y0124712D01*
X0291533Y0139557D02*
X0291533Y0140658D01*
X0291900Y0141025D01*
X0292634Y0141025D01*
X0293001Y0140658D01*
X0293001Y0139557D01*
X0293735Y0139557D02*
X0291533Y0139557D01*
X0293001Y0140291D02*
X0293735Y0141025D01*
X0293735Y0141767D02*
X0293735Y0143235D01*
X0293735Y0142501D02*
X0291533Y0142501D01*
X0292267Y0141767D01*
X0291900Y0143977D02*
X0291533Y0144344D01*
X0291533Y0145078D01*
X0291900Y0145445D01*
X0292267Y0145445D01*
X0292634Y0145078D01*
X0293001Y0145445D01*
X0293368Y0145445D01*
X0293735Y0145078D01*
X0293735Y0144344D01*
X0293368Y0143977D01*
X0292634Y0144711D02*
X0292634Y0145078D01*
X0293001Y0146187D02*
X0292634Y0146554D01*
X0292634Y0147288D01*
X0293001Y0147655D01*
X0293368Y0147655D01*
X0293735Y0147288D01*
X0293735Y0146554D01*
X0293368Y0146187D01*
X0293001Y0146187D01*
X0292634Y0146554D02*
X0292267Y0146187D01*
X0291900Y0146187D01*
X0291533Y0146554D01*
X0291533Y0147288D01*
X0291900Y0147655D01*
X0292267Y0147655D01*
X0292634Y0147288D01*
X0286254Y0146948D02*
X0285887Y0146581D01*
X0286254Y0146948D02*
X0286254Y0147682D01*
X0285887Y0148049D01*
X0285520Y0148049D01*
X0285153Y0147682D01*
X0285153Y0147315D01*
X0285153Y0147682D02*
X0284786Y0148049D01*
X0284419Y0148049D01*
X0284052Y0147682D01*
X0284052Y0146948D01*
X0284419Y0146581D01*
X0284419Y0145839D02*
X0284786Y0145839D01*
X0285153Y0145472D01*
X0285520Y0145839D01*
X0285887Y0145839D01*
X0286254Y0145472D01*
X0286254Y0144738D01*
X0285887Y0144371D01*
X0286254Y0143629D02*
X0286254Y0142161D01*
X0286254Y0142895D02*
X0284052Y0142895D01*
X0284786Y0142161D01*
X0284419Y0141419D02*
X0285153Y0141419D01*
X0285520Y0141052D01*
X0285520Y0139951D01*
X0285520Y0140685D02*
X0286254Y0141419D01*
X0286254Y0139951D02*
X0284052Y0139951D01*
X0284052Y0141052D01*
X0284419Y0141419D01*
X0284419Y0144371D02*
X0284052Y0144738D01*
X0284052Y0145472D01*
X0284419Y0145839D01*
X0285153Y0145472D02*
X0285153Y0145105D01*
X0277987Y0144765D02*
X0276519Y0146233D01*
X0276152Y0146233D01*
X0275785Y0145866D01*
X0275785Y0145132D01*
X0276152Y0144765D01*
X0275785Y0143289D02*
X0277987Y0143289D01*
X0277987Y0142555D02*
X0277987Y0144023D01*
X0277987Y0144765D02*
X0277987Y0146233D01*
X0277620Y0146975D02*
X0277253Y0146975D01*
X0276886Y0147341D01*
X0276886Y0148075D01*
X0277253Y0148442D01*
X0277620Y0148442D01*
X0277987Y0148075D01*
X0277987Y0147341D01*
X0277620Y0146975D01*
X0276886Y0147341D02*
X0276519Y0146975D01*
X0276152Y0146975D01*
X0275785Y0147341D01*
X0275785Y0148075D01*
X0276152Y0148442D01*
X0276519Y0148442D01*
X0276886Y0148075D01*
X0275785Y0143289D02*
X0276519Y0142555D01*
X0276886Y0141813D02*
X0277253Y0141446D01*
X0277253Y0140345D01*
X0277987Y0140345D02*
X0275785Y0140345D01*
X0275785Y0141446D01*
X0276152Y0141813D01*
X0276886Y0141813D01*
X0277253Y0141079D02*
X0277987Y0141813D01*
X0270113Y0141813D02*
X0269379Y0141079D01*
X0269379Y0141446D02*
X0269379Y0140345D01*
X0270113Y0140345D02*
X0267911Y0140345D01*
X0267911Y0141446D01*
X0268278Y0141813D01*
X0269012Y0141813D01*
X0269379Y0141446D01*
X0270113Y0142555D02*
X0270113Y0144023D01*
X0270113Y0143289D02*
X0267911Y0143289D01*
X0268645Y0142555D01*
X0268278Y0144765D02*
X0267911Y0145132D01*
X0267911Y0145866D01*
X0268278Y0146233D01*
X0268645Y0146233D01*
X0270113Y0144765D01*
X0270113Y0146233D01*
X0269746Y0146975D02*
X0270113Y0147341D01*
X0270113Y0148075D01*
X0269746Y0148442D01*
X0269379Y0148442D01*
X0269012Y0148075D01*
X0269012Y0147708D01*
X0269012Y0148075D02*
X0268645Y0148442D01*
X0268278Y0148442D01*
X0267911Y0148075D01*
X0267911Y0147341D01*
X0268278Y0146975D01*
X0262239Y0147341D02*
X0261872Y0146975D01*
X0261505Y0146975D01*
X0261138Y0147341D01*
X0261138Y0148075D01*
X0261505Y0148442D01*
X0261872Y0148442D01*
X0262239Y0148075D01*
X0262239Y0147341D01*
X0261138Y0147341D02*
X0260771Y0146975D01*
X0260404Y0146975D01*
X0260037Y0147341D01*
X0260037Y0148075D01*
X0260404Y0148442D01*
X0260771Y0148442D01*
X0261138Y0148075D01*
X0262239Y0146233D02*
X0262239Y0144765D01*
X0262239Y0145499D02*
X0260037Y0145499D01*
X0260771Y0144765D01*
X0262239Y0144023D02*
X0262239Y0142555D01*
X0262239Y0143289D02*
X0260037Y0143289D01*
X0260771Y0142555D01*
X0261138Y0141813D02*
X0261505Y0141446D01*
X0261505Y0140345D01*
X0262239Y0140345D02*
X0260037Y0140345D01*
X0260037Y0141446D01*
X0260404Y0141813D01*
X0261138Y0141813D01*
X0261505Y0141079D02*
X0262239Y0141813D01*
X0254758Y0141132D02*
X0252556Y0141132D01*
X0252556Y0142233D01*
X0252923Y0142600D01*
X0253657Y0142600D01*
X0254024Y0142233D01*
X0254024Y0141132D01*
X0254024Y0141866D02*
X0254758Y0142600D01*
X0254758Y0143342D02*
X0254758Y0144810D01*
X0254758Y0144076D02*
X0252556Y0144076D01*
X0253290Y0143342D01*
X0253290Y0145552D02*
X0252556Y0146286D01*
X0254758Y0146286D01*
X0254758Y0145552D02*
X0254758Y0147020D01*
X0254391Y0147762D02*
X0254758Y0148129D01*
X0254758Y0148863D01*
X0254391Y0149230D01*
X0254024Y0149230D01*
X0253657Y0148863D01*
X0253657Y0148496D01*
X0253657Y0148863D02*
X0253290Y0149230D01*
X0252923Y0149230D01*
X0252556Y0148863D01*
X0252556Y0148129D01*
X0252923Y0147762D01*
X0246884Y0147735D02*
X0246517Y0147368D01*
X0246150Y0147368D01*
X0245783Y0147735D01*
X0245783Y0148469D01*
X0246150Y0148836D01*
X0246517Y0148836D01*
X0246884Y0148469D01*
X0246884Y0147735D01*
X0245783Y0147735D02*
X0245416Y0147368D01*
X0245049Y0147368D01*
X0244682Y0147735D01*
X0244682Y0148469D01*
X0245049Y0148836D01*
X0245416Y0148836D01*
X0245783Y0148469D01*
X0245049Y0146626D02*
X0246517Y0145158D01*
X0246884Y0145525D01*
X0246884Y0146259D01*
X0246517Y0146626D01*
X0245049Y0146626D01*
X0244682Y0146259D01*
X0244682Y0145525D01*
X0245049Y0145158D01*
X0246517Y0145158D01*
X0246884Y0144416D02*
X0246884Y0142948D01*
X0246884Y0143682D02*
X0244682Y0143682D01*
X0245416Y0142948D01*
X0245049Y0142206D02*
X0245783Y0142206D01*
X0246150Y0141840D01*
X0246150Y0140739D01*
X0246150Y0141473D02*
X0246884Y0142206D01*
X0246884Y0140739D02*
X0244682Y0140739D01*
X0244682Y0141840D01*
X0245049Y0142206D01*
X0239010Y0142206D02*
X0238276Y0141473D01*
X0238276Y0141840D02*
X0238276Y0140739D01*
X0239010Y0140739D02*
X0236808Y0140739D01*
X0236808Y0141840D01*
X0237175Y0142206D01*
X0237909Y0142206D01*
X0238276Y0141840D01*
X0237542Y0142948D02*
X0236808Y0143682D01*
X0239010Y0143682D01*
X0239010Y0142948D02*
X0239010Y0144416D01*
X0238643Y0145158D02*
X0237175Y0146626D01*
X0238643Y0146626D01*
X0239010Y0146259D01*
X0239010Y0145525D01*
X0238643Y0145158D01*
X0237175Y0145158D01*
X0236808Y0145525D01*
X0236808Y0146259D01*
X0237175Y0146626D01*
X0237175Y0147368D02*
X0236808Y0147735D01*
X0236808Y0148469D01*
X0237175Y0148836D01*
X0237542Y0148836D01*
X0237909Y0148469D01*
X0238276Y0148836D01*
X0238643Y0148836D01*
X0239010Y0148469D01*
X0239010Y0147735D01*
X0238643Y0147368D01*
X0237909Y0148102D02*
X0237909Y0148469D01*
X0231136Y0147047D02*
X0231136Y0146313D01*
X0230769Y0145946D01*
X0230035Y0145946D01*
X0230035Y0147047D01*
X0230402Y0147414D01*
X0230769Y0147414D01*
X0231136Y0147047D01*
X0230035Y0145946D02*
X0229301Y0146680D01*
X0228934Y0147414D01*
X0229301Y0145204D02*
X0228934Y0144837D01*
X0228934Y0144103D01*
X0229301Y0143736D01*
X0229668Y0143736D01*
X0230035Y0144103D01*
X0230035Y0145204D01*
X0230769Y0145204D02*
X0229301Y0145204D01*
X0230769Y0145204D02*
X0231136Y0144837D01*
X0231136Y0144103D01*
X0230769Y0143736D01*
X0231136Y0142994D02*
X0230402Y0142260D01*
X0230402Y0142627D02*
X0230402Y0141526D01*
X0231136Y0141526D02*
X0228934Y0141526D01*
X0228934Y0142627D01*
X0229301Y0142994D01*
X0230035Y0142994D01*
X0230402Y0142627D01*
X0222869Y0142600D02*
X0222135Y0141866D01*
X0222135Y0142233D02*
X0222135Y0141132D01*
X0222869Y0141132D02*
X0220667Y0141132D01*
X0220667Y0142233D01*
X0221034Y0142600D01*
X0221768Y0142600D01*
X0222135Y0142233D01*
X0222502Y0143342D02*
X0222869Y0143709D01*
X0222869Y0144443D01*
X0222502Y0144810D01*
X0221034Y0144810D01*
X0220667Y0144443D01*
X0220667Y0143709D01*
X0221034Y0143342D01*
X0221401Y0143342D01*
X0221768Y0143709D01*
X0221768Y0144810D01*
X0222502Y0145552D02*
X0222869Y0145919D01*
X0222869Y0146653D01*
X0222502Y0147020D01*
X0222135Y0147020D01*
X0221768Y0146653D01*
X0221768Y0146286D01*
X0221768Y0146653D02*
X0221401Y0147020D01*
X0221034Y0147020D01*
X0220667Y0146653D01*
X0220667Y0145919D01*
X0221034Y0145552D01*
X0214994Y0145919D02*
X0214628Y0145552D01*
X0214261Y0145552D01*
X0213894Y0145919D01*
X0213894Y0146653D01*
X0214261Y0147020D01*
X0214628Y0147020D01*
X0214994Y0146653D01*
X0214994Y0145919D01*
X0213894Y0145919D02*
X0213527Y0145552D01*
X0213160Y0145552D01*
X0212793Y0145919D01*
X0212793Y0146653D01*
X0213160Y0147020D01*
X0213527Y0147020D01*
X0213894Y0146653D01*
X0214261Y0144810D02*
X0213894Y0144443D01*
X0213894Y0143709D01*
X0213527Y0143342D01*
X0213160Y0143342D01*
X0212793Y0143709D01*
X0212793Y0144443D01*
X0213160Y0144810D01*
X0213527Y0144810D01*
X0213894Y0144443D01*
X0214261Y0144810D02*
X0214628Y0144810D01*
X0214994Y0144443D01*
X0214994Y0143709D01*
X0214628Y0143342D01*
X0214261Y0143342D01*
X0213894Y0143709D01*
X0213894Y0142600D02*
X0214261Y0142233D01*
X0214261Y0141132D01*
X0214994Y0141132D02*
X0212793Y0141132D01*
X0212793Y0142233D01*
X0213160Y0142600D01*
X0213894Y0142600D01*
X0214261Y0141866D02*
X0214994Y0142600D01*
X0207120Y0142600D02*
X0206387Y0141866D01*
X0206387Y0142233D02*
X0206387Y0141132D01*
X0207120Y0141132D02*
X0204919Y0141132D01*
X0204919Y0142233D01*
X0205286Y0142600D01*
X0206020Y0142600D01*
X0206387Y0142233D01*
X0206387Y0143342D02*
X0206020Y0143709D01*
X0206020Y0144443D01*
X0206387Y0144810D01*
X0206753Y0144810D01*
X0207120Y0144443D01*
X0207120Y0143709D01*
X0206753Y0143342D01*
X0206387Y0143342D01*
X0206020Y0143709D02*
X0205653Y0143342D01*
X0205286Y0143342D01*
X0204919Y0143709D01*
X0204919Y0144443D01*
X0205286Y0144810D01*
X0205653Y0144810D01*
X0206020Y0144443D01*
X0206753Y0145552D02*
X0207120Y0145919D01*
X0207120Y0146653D01*
X0206753Y0147020D01*
X0206387Y0147020D01*
X0206020Y0146653D01*
X0206020Y0146286D01*
X0206020Y0146653D02*
X0205653Y0147020D01*
X0205286Y0147020D01*
X0204919Y0146653D01*
X0204919Y0145919D01*
X0205286Y0145552D01*
X0199246Y0145919D02*
X0198879Y0145552D01*
X0198512Y0145552D01*
X0198146Y0145919D01*
X0198146Y0146653D01*
X0198512Y0147020D01*
X0198879Y0147020D01*
X0199246Y0146653D01*
X0199246Y0145919D01*
X0198146Y0145919D02*
X0197779Y0145552D01*
X0197412Y0145552D01*
X0197045Y0145919D01*
X0197045Y0146653D01*
X0197412Y0147020D01*
X0197779Y0147020D01*
X0198146Y0146653D01*
X0197412Y0144810D02*
X0198879Y0143342D01*
X0199246Y0143342D01*
X0199246Y0142600D02*
X0198512Y0141866D01*
X0198512Y0142233D02*
X0198512Y0141132D01*
X0199246Y0141132D02*
X0197045Y0141132D01*
X0197045Y0142233D01*
X0197412Y0142600D01*
X0198146Y0142600D01*
X0198512Y0142233D01*
X0197045Y0143342D02*
X0197045Y0144810D01*
X0197412Y0144810D01*
X0191372Y0145919D02*
X0191005Y0145552D01*
X0191372Y0145919D02*
X0191372Y0146653D01*
X0191005Y0147020D01*
X0190638Y0147020D01*
X0190272Y0146653D01*
X0190272Y0146286D01*
X0190272Y0146653D02*
X0189905Y0147020D01*
X0189538Y0147020D01*
X0189171Y0146653D01*
X0189171Y0145919D01*
X0189538Y0145552D01*
X0189538Y0144810D02*
X0191005Y0143342D01*
X0191372Y0143342D01*
X0191372Y0142600D02*
X0190638Y0141866D01*
X0190638Y0142233D02*
X0190638Y0141132D01*
X0191372Y0141132D02*
X0189171Y0141132D01*
X0189171Y0142233D01*
X0189538Y0142600D01*
X0190272Y0142600D01*
X0190638Y0142233D01*
X0189171Y0143342D02*
X0189171Y0144810D01*
X0189538Y0144810D01*
X0183498Y0144443D02*
X0183498Y0143709D01*
X0183131Y0143342D01*
X0182397Y0143342D01*
X0182397Y0144443D01*
X0182764Y0144810D01*
X0183131Y0144810D01*
X0183498Y0144443D01*
X0183131Y0145552D02*
X0182764Y0145552D01*
X0182397Y0145919D01*
X0182397Y0146653D01*
X0182764Y0147020D01*
X0183131Y0147020D01*
X0183498Y0146653D01*
X0183498Y0145919D01*
X0183131Y0145552D01*
X0182397Y0145919D02*
X0182031Y0145552D01*
X0181664Y0145552D01*
X0181297Y0145919D01*
X0181297Y0146653D01*
X0181664Y0147020D01*
X0182031Y0147020D01*
X0182397Y0146653D01*
X0181297Y0144810D02*
X0181664Y0144076D01*
X0182397Y0143342D01*
X0182397Y0142600D02*
X0182764Y0142233D01*
X0182764Y0141132D01*
X0182764Y0141866D02*
X0183498Y0142600D01*
X0182397Y0142600D02*
X0181664Y0142600D01*
X0181297Y0142233D01*
X0181297Y0141132D01*
X0183498Y0141132D01*
X0175624Y0141132D02*
X0173423Y0141132D01*
X0173423Y0142233D01*
X0173790Y0142600D01*
X0174523Y0142600D01*
X0174890Y0142233D01*
X0174890Y0141132D01*
X0174890Y0141866D02*
X0175624Y0142600D01*
X0175257Y0143342D02*
X0175624Y0143709D01*
X0175624Y0144443D01*
X0175257Y0144810D01*
X0174890Y0144810D01*
X0174523Y0144443D01*
X0174523Y0143342D01*
X0175257Y0143342D01*
X0174523Y0143342D02*
X0173790Y0144076D01*
X0173423Y0144810D01*
X0173790Y0145552D02*
X0173423Y0145919D01*
X0173423Y0146653D01*
X0173790Y0147020D01*
X0174156Y0147020D01*
X0174523Y0146653D01*
X0174890Y0147020D01*
X0175257Y0147020D01*
X0175624Y0146653D01*
X0175624Y0145919D01*
X0175257Y0145552D01*
X0174523Y0146286D02*
X0174523Y0146653D01*
X0167750Y0146653D02*
X0167750Y0145919D01*
X0167383Y0145552D01*
X0167016Y0145552D01*
X0166649Y0145919D01*
X0166649Y0146653D01*
X0167016Y0147020D01*
X0167383Y0147020D01*
X0167750Y0146653D01*
X0166649Y0146653D02*
X0166282Y0147020D01*
X0165916Y0147020D01*
X0165549Y0146653D01*
X0165549Y0145919D01*
X0165916Y0145552D01*
X0166282Y0145552D01*
X0166649Y0145919D01*
X0166649Y0144810D02*
X0167383Y0144810D01*
X0167750Y0144443D01*
X0167750Y0143709D01*
X0167383Y0143342D01*
X0166649Y0143342D02*
X0166282Y0144076D01*
X0166282Y0144443D01*
X0166649Y0144810D01*
X0165549Y0144810D02*
X0165549Y0143342D01*
X0166649Y0143342D01*
X0166649Y0142600D02*
X0167016Y0142233D01*
X0167016Y0141132D01*
X0167016Y0141866D02*
X0167750Y0142600D01*
X0166649Y0142600D02*
X0165916Y0142600D01*
X0165549Y0142233D01*
X0165549Y0141132D01*
X0167750Y0141132D01*
X0159876Y0141132D02*
X0157675Y0141132D01*
X0157675Y0142233D01*
X0158041Y0142600D01*
X0158775Y0142600D01*
X0159142Y0142233D01*
X0159142Y0141132D01*
X0159142Y0141866D02*
X0159876Y0142600D01*
X0159509Y0143342D02*
X0159876Y0143709D01*
X0159876Y0144443D01*
X0159509Y0144810D01*
X0158775Y0144810D01*
X0158408Y0144443D01*
X0158408Y0144076D01*
X0158775Y0143342D01*
X0157675Y0143342D01*
X0157675Y0144810D01*
X0158041Y0145552D02*
X0157675Y0145919D01*
X0157675Y0146653D01*
X0158041Y0147020D01*
X0158408Y0147020D01*
X0158775Y0146653D01*
X0159142Y0147020D01*
X0159509Y0147020D01*
X0159876Y0146653D01*
X0159876Y0145919D01*
X0159509Y0145552D01*
X0158775Y0146286D02*
X0158775Y0146653D01*
X0152002Y0146653D02*
X0151635Y0147020D01*
X0151268Y0147020D01*
X0150901Y0146653D01*
X0150901Y0145552D01*
X0151635Y0145552D01*
X0152002Y0145919D01*
X0152002Y0146653D01*
X0150901Y0145552D02*
X0150167Y0146286D01*
X0149800Y0147020D01*
X0150901Y0144810D02*
X0150901Y0143342D01*
X0149800Y0144443D01*
X0152002Y0144443D01*
X0152002Y0142600D02*
X0151268Y0141866D01*
X0151268Y0142233D02*
X0151268Y0141132D01*
X0152002Y0141132D02*
X0149800Y0141132D01*
X0149800Y0142233D01*
X0150167Y0142600D01*
X0150901Y0142600D01*
X0151268Y0142233D01*
X0144128Y0142600D02*
X0143394Y0141866D01*
X0143394Y0142233D02*
X0143394Y0141132D01*
X0144128Y0141132D02*
X0141926Y0141132D01*
X0141926Y0142233D01*
X0142293Y0142600D01*
X0143027Y0142600D01*
X0143394Y0142233D01*
X0143027Y0143342D02*
X0143027Y0144810D01*
X0142293Y0145552D02*
X0141926Y0145919D01*
X0141926Y0146653D01*
X0142293Y0147020D01*
X0142660Y0147020D01*
X0143027Y0146653D01*
X0143394Y0147020D01*
X0143761Y0147020D01*
X0144128Y0146653D01*
X0144128Y0145919D01*
X0143761Y0145552D01*
X0143027Y0146286D02*
X0143027Y0146653D01*
X0141926Y0144443D02*
X0143027Y0143342D01*
X0144128Y0144443D02*
X0141926Y0144443D01*
X0136254Y0144443D02*
X0136254Y0143709D01*
X0135887Y0143342D01*
X0136254Y0142600D02*
X0135520Y0141866D01*
X0135520Y0142233D02*
X0135520Y0141132D01*
X0136254Y0141132D02*
X0134052Y0141132D01*
X0134052Y0142233D01*
X0134419Y0142600D01*
X0135153Y0142600D01*
X0135520Y0142233D01*
X0134419Y0143342D02*
X0134052Y0143709D01*
X0134052Y0144443D01*
X0134419Y0144810D01*
X0134786Y0144810D01*
X0135153Y0144443D01*
X0135520Y0144810D01*
X0135887Y0144810D01*
X0136254Y0144443D01*
X0135153Y0144443D02*
X0135153Y0144076D01*
X0134786Y0145552D02*
X0134419Y0145552D01*
X0134052Y0145919D01*
X0134052Y0146653D01*
X0134419Y0147020D01*
X0134786Y0147020D01*
X0135153Y0146653D01*
X0135153Y0145919D01*
X0134786Y0145552D01*
X0135153Y0145919D02*
X0135520Y0145552D01*
X0135887Y0145552D01*
X0136254Y0145919D01*
X0136254Y0146653D01*
X0135887Y0147020D01*
X0135520Y0147020D01*
X0135153Y0146653D01*
X0128380Y0146653D02*
X0128380Y0145919D01*
X0128013Y0145552D01*
X0128013Y0144810D02*
X0128380Y0144443D01*
X0128380Y0143709D01*
X0128013Y0143342D01*
X0128380Y0142600D02*
X0127646Y0141866D01*
X0127646Y0142233D02*
X0127646Y0141132D01*
X0128380Y0141132D02*
X0126178Y0141132D01*
X0126178Y0142233D01*
X0126545Y0142600D01*
X0127279Y0142600D01*
X0127646Y0142233D01*
X0126545Y0143342D02*
X0126178Y0143709D01*
X0126178Y0144443D01*
X0126545Y0144810D01*
X0126912Y0144810D01*
X0127279Y0144443D01*
X0127646Y0144810D01*
X0128013Y0144810D01*
X0127279Y0144443D02*
X0127279Y0144076D01*
X0126545Y0145552D02*
X0126178Y0145919D01*
X0126178Y0146653D01*
X0126545Y0147020D01*
X0126912Y0147020D01*
X0127279Y0146653D01*
X0127646Y0147020D01*
X0128013Y0147020D01*
X0128380Y0146653D01*
X0127279Y0146653D02*
X0127279Y0146286D01*
X0120506Y0145919D02*
X0120139Y0145552D01*
X0119772Y0145552D01*
X0119405Y0145919D01*
X0119405Y0146653D01*
X0119772Y0147020D01*
X0120139Y0147020D01*
X0120506Y0146653D01*
X0120506Y0145919D01*
X0119405Y0145919D02*
X0119038Y0145552D01*
X0118671Y0145552D01*
X0118304Y0145919D01*
X0118304Y0146653D01*
X0118671Y0147020D01*
X0119038Y0147020D01*
X0119405Y0146653D01*
X0119038Y0144810D02*
X0118671Y0144810D01*
X0118304Y0144443D01*
X0118304Y0143709D01*
X0118671Y0143342D01*
X0118671Y0142600D02*
X0119405Y0142600D01*
X0119772Y0142233D01*
X0119772Y0141132D01*
X0119772Y0141866D02*
X0120506Y0142600D01*
X0120506Y0143342D02*
X0119038Y0144810D01*
X0120506Y0144810D02*
X0120506Y0143342D01*
X0118671Y0142600D02*
X0118304Y0142233D01*
X0118304Y0141132D01*
X0120506Y0141132D01*
X0112632Y0141132D02*
X0110430Y0141132D01*
X0110430Y0142233D01*
X0110797Y0142600D01*
X0111531Y0142600D01*
X0111898Y0142233D01*
X0111898Y0141132D01*
X0111898Y0141866D02*
X0112632Y0142600D01*
X0112632Y0143342D02*
X0111164Y0144810D01*
X0110797Y0144810D01*
X0110430Y0144443D01*
X0110430Y0143709D01*
X0110797Y0143342D01*
X0112632Y0143342D02*
X0112632Y0144810D01*
X0112265Y0145552D02*
X0112632Y0145919D01*
X0112632Y0146653D01*
X0112265Y0147020D01*
X0111898Y0147020D01*
X0111531Y0146653D01*
X0111531Y0146286D01*
X0111531Y0146653D02*
X0111164Y0147020D01*
X0110797Y0147020D01*
X0110430Y0146653D01*
X0110430Y0145919D01*
X0110797Y0145552D01*
X0104758Y0145919D02*
X0104391Y0145552D01*
X0104024Y0145552D01*
X0103657Y0145919D01*
X0103657Y0146653D01*
X0104024Y0147020D01*
X0104391Y0147020D01*
X0104758Y0146653D01*
X0104758Y0145919D01*
X0103657Y0145919D02*
X0103290Y0145552D01*
X0102923Y0145552D01*
X0102556Y0145919D01*
X0102556Y0146653D01*
X0102923Y0147020D01*
X0103290Y0147020D01*
X0103657Y0146653D01*
X0104758Y0144810D02*
X0104758Y0143342D01*
X0104758Y0144076D02*
X0102556Y0144076D01*
X0103290Y0143342D01*
X0102923Y0142600D02*
X0103657Y0142600D01*
X0104024Y0142233D01*
X0104024Y0141132D01*
X0104024Y0141866D02*
X0104758Y0142600D01*
X0104758Y0141132D02*
X0102556Y0141132D01*
X0102556Y0142233D01*
X0102923Y0142600D01*
X0096884Y0142600D02*
X0096150Y0141866D01*
X0096150Y0142233D02*
X0096150Y0141132D01*
X0096884Y0141132D02*
X0094682Y0141132D01*
X0094682Y0142233D01*
X0095049Y0142600D01*
X0095783Y0142600D01*
X0096150Y0142233D01*
X0095416Y0143342D02*
X0094682Y0144076D01*
X0096884Y0144076D01*
X0096884Y0143342D02*
X0096884Y0144810D01*
X0096517Y0145552D02*
X0096884Y0145919D01*
X0096884Y0146653D01*
X0096517Y0147020D01*
X0096150Y0147020D01*
X0095783Y0146653D01*
X0095783Y0146286D01*
X0095783Y0146653D02*
X0095416Y0147020D01*
X0095049Y0147020D01*
X0094682Y0146653D01*
X0094682Y0145919D01*
X0095049Y0145552D01*
X0089010Y0144443D02*
X0089010Y0143709D01*
X0088643Y0143342D01*
X0088276Y0143342D01*
X0087909Y0143709D01*
X0087909Y0144443D01*
X0088276Y0144810D01*
X0088643Y0144810D01*
X0089010Y0144443D01*
X0087909Y0144443D02*
X0087542Y0144810D01*
X0087175Y0144810D01*
X0086808Y0144443D01*
X0086808Y0143709D01*
X0087175Y0143342D01*
X0087542Y0143342D01*
X0087909Y0143709D01*
X0087909Y0142600D02*
X0088276Y0142233D01*
X0088276Y0141132D01*
X0088276Y0141866D02*
X0089010Y0142600D01*
X0087909Y0142600D02*
X0087175Y0142600D01*
X0086808Y0142233D01*
X0086808Y0141132D01*
X0089010Y0141132D01*
X0081136Y0141132D02*
X0078934Y0141132D01*
X0078934Y0142233D01*
X0079301Y0142600D01*
X0080035Y0142600D01*
X0080402Y0142233D01*
X0080402Y0141132D01*
X0080402Y0141866D02*
X0081136Y0142600D01*
X0080769Y0143342D02*
X0081136Y0143709D01*
X0081136Y0144443D01*
X0080769Y0144810D01*
X0080402Y0144810D01*
X0080035Y0144443D01*
X0080035Y0144076D01*
X0080035Y0144443D02*
X0079668Y0144810D01*
X0079301Y0144810D01*
X0078934Y0144443D01*
X0078934Y0143709D01*
X0079301Y0143342D01*
X0110430Y0113188D02*
X0110430Y0112454D01*
X0110797Y0112087D01*
X0110797Y0111346D02*
X0110430Y0110979D01*
X0110430Y0110245D01*
X0110797Y0109878D01*
X0110797Y0109136D02*
X0111531Y0109136D01*
X0111898Y0108769D01*
X0111898Y0107668D01*
X0111898Y0108402D02*
X0112632Y0109136D01*
X0112632Y0109878D02*
X0111164Y0111346D01*
X0110797Y0111346D01*
X0112632Y0111346D02*
X0112632Y0109878D01*
X0110797Y0109136D02*
X0110430Y0108769D01*
X0110430Y0107668D01*
X0112632Y0107668D01*
X0112632Y0112087D02*
X0111164Y0113555D01*
X0110797Y0113555D01*
X0110430Y0113188D01*
X0112632Y0113555D02*
X0112632Y0112087D01*
X0118304Y0112087D02*
X0118304Y0113555D01*
X0118671Y0113555D01*
X0120139Y0112087D01*
X0120506Y0112087D01*
X0120506Y0111346D02*
X0120506Y0109878D01*
X0119038Y0111346D01*
X0118671Y0111346D01*
X0118304Y0110979D01*
X0118304Y0110245D01*
X0118671Y0109878D01*
X0118671Y0109136D02*
X0119405Y0109136D01*
X0119772Y0108769D01*
X0119772Y0107668D01*
X0119772Y0108402D02*
X0120506Y0109136D01*
X0120506Y0107668D02*
X0118304Y0107668D01*
X0118304Y0108769D01*
X0118671Y0109136D01*
X0124643Y0105027D02*
X0124643Y0102825D01*
X0124643Y0103559D02*
X0125744Y0103559D01*
X0126111Y0103926D01*
X0126111Y0104660D01*
X0125744Y0105027D01*
X0124643Y0105027D01*
X0125377Y0103559D02*
X0126111Y0102825D01*
X0126853Y0102825D02*
X0128321Y0104293D01*
X0128321Y0104660D01*
X0127954Y0105027D01*
X0127220Y0105027D01*
X0126853Y0104660D01*
X0126853Y0102825D02*
X0128321Y0102825D01*
X0129063Y0103192D02*
X0129430Y0102825D01*
X0130164Y0102825D01*
X0130531Y0103192D01*
X0130531Y0104660D01*
X0130164Y0105027D01*
X0129430Y0105027D01*
X0129063Y0104660D01*
X0129063Y0104293D01*
X0129430Y0103926D01*
X0130531Y0103926D01*
X0128380Y0108061D02*
X0126178Y0108061D01*
X0126178Y0109162D01*
X0126545Y0109529D01*
X0127279Y0109529D01*
X0127646Y0109162D01*
X0127646Y0108061D01*
X0127646Y0108795D02*
X0128380Y0109529D01*
X0128013Y0110271D02*
X0128380Y0110638D01*
X0128380Y0111372D01*
X0128013Y0111739D01*
X0127646Y0111739D01*
X0127279Y0111372D01*
X0127279Y0111005D01*
X0127279Y0111372D02*
X0126912Y0111739D01*
X0126545Y0111739D01*
X0126178Y0111372D01*
X0126178Y0110638D01*
X0126545Y0110271D01*
X0126545Y0112481D02*
X0126178Y0112848D01*
X0126178Y0113582D01*
X0126545Y0113949D01*
X0126912Y0113949D01*
X0128380Y0112481D01*
X0128380Y0113949D01*
X0134052Y0113555D02*
X0134052Y0112087D01*
X0134419Y0111346D02*
X0134052Y0110979D01*
X0134052Y0110245D01*
X0134419Y0109878D01*
X0134419Y0109136D02*
X0134052Y0108769D01*
X0134052Y0107668D01*
X0136254Y0107668D01*
X0135520Y0107668D02*
X0135520Y0108769D01*
X0135153Y0109136D01*
X0134419Y0109136D01*
X0135520Y0108402D02*
X0136254Y0109136D01*
X0135887Y0109878D02*
X0136254Y0110245D01*
X0136254Y0110979D01*
X0135887Y0111346D01*
X0135520Y0111346D01*
X0135153Y0110979D01*
X0135153Y0110612D01*
X0135153Y0110979D02*
X0134786Y0111346D01*
X0134419Y0111346D01*
X0135887Y0112087D02*
X0136254Y0112087D01*
X0135887Y0112087D02*
X0134419Y0113555D01*
X0134052Y0113555D01*
X0141926Y0113188D02*
X0141926Y0112454D01*
X0142293Y0112087D01*
X0143027Y0111346D02*
X0143027Y0109878D01*
X0141926Y0110979D01*
X0144128Y0110979D01*
X0144128Y0112087D02*
X0142660Y0113555D01*
X0142293Y0113555D01*
X0141926Y0113188D01*
X0144128Y0113555D02*
X0144128Y0112087D01*
X0144128Y0109136D02*
X0143394Y0108402D01*
X0143394Y0108769D02*
X0143394Y0107668D01*
X0144128Y0107668D02*
X0141926Y0107668D01*
X0141926Y0108769D01*
X0142293Y0109136D01*
X0143027Y0109136D01*
X0143394Y0108769D01*
X0149800Y0108769D02*
X0150167Y0109136D01*
X0150901Y0109136D01*
X0151268Y0108769D01*
X0151268Y0107668D01*
X0151268Y0108402D02*
X0152002Y0109136D01*
X0150901Y0109878D02*
X0150901Y0111346D01*
X0150534Y0112087D02*
X0150167Y0112087D01*
X0149800Y0112454D01*
X0149800Y0113188D01*
X0150167Y0113555D01*
X0150534Y0113555D01*
X0150901Y0113188D01*
X0150901Y0112454D01*
X0150534Y0112087D01*
X0150901Y0112454D02*
X0151268Y0112087D01*
X0151635Y0112087D01*
X0152002Y0112454D01*
X0152002Y0113188D01*
X0151635Y0113555D01*
X0151268Y0113555D01*
X0150901Y0113188D01*
X0149800Y0110979D02*
X0150901Y0109878D01*
X0152002Y0110979D02*
X0149800Y0110979D01*
X0149800Y0108769D02*
X0149800Y0107668D01*
X0152002Y0107668D01*
X0157675Y0107668D02*
X0159876Y0107668D01*
X0164013Y0099122D02*
X0165114Y0099122D01*
X0165481Y0098755D01*
X0165481Y0098021D01*
X0165114Y0097654D01*
X0164013Y0097654D01*
X0164013Y0096920D02*
X0164013Y0099122D01*
X0164747Y0097654D02*
X0165481Y0096920D01*
X0166223Y0097287D02*
X0166590Y0096920D01*
X0167324Y0096920D01*
X0167691Y0097287D01*
X0167691Y0098021D01*
X0167324Y0098388D01*
X0166957Y0098388D01*
X0166223Y0098021D01*
X0166223Y0099122D01*
X0167691Y0099122D01*
X0168433Y0098021D02*
X0169901Y0098021D01*
X0169534Y0099122D02*
X0168433Y0098021D01*
X0169534Y0096920D02*
X0169534Y0099122D01*
X0189171Y0107668D02*
X0189171Y0108769D01*
X0189538Y0109136D01*
X0190272Y0109136D01*
X0190638Y0108769D01*
X0190638Y0107668D01*
X0190638Y0108402D02*
X0191372Y0109136D01*
X0191372Y0109878D02*
X0191005Y0109878D01*
X0189538Y0111346D01*
X0189171Y0111346D01*
X0189171Y0109878D01*
X0189171Y0107668D02*
X0191372Y0107668D01*
X0191372Y0112087D02*
X0189905Y0113555D01*
X0189538Y0113555D01*
X0189171Y0113188D01*
X0189171Y0112454D01*
X0189538Y0112087D01*
X0191372Y0112087D02*
X0191372Y0113555D01*
X0197045Y0113555D02*
X0197045Y0112087D01*
X0197045Y0111346D02*
X0197412Y0111346D01*
X0198879Y0109878D01*
X0199246Y0109878D01*
X0199246Y0109136D02*
X0198512Y0108402D01*
X0198512Y0108769D02*
X0198512Y0107668D01*
X0199246Y0107668D02*
X0197045Y0107668D01*
X0197045Y0108769D01*
X0197412Y0109136D01*
X0198146Y0109136D01*
X0198512Y0108769D01*
X0197045Y0109878D02*
X0197045Y0111346D01*
X0198879Y0112087D02*
X0199246Y0112087D01*
X0198879Y0112087D02*
X0197412Y0113555D01*
X0197045Y0113555D01*
X0204919Y0113188D02*
X0204919Y0112454D01*
X0205286Y0112087D01*
X0205286Y0111346D02*
X0205653Y0111346D01*
X0206020Y0110979D01*
X0206020Y0110245D01*
X0205653Y0109878D01*
X0205286Y0109878D01*
X0204919Y0110245D01*
X0204919Y0110979D01*
X0205286Y0111346D01*
X0206020Y0110979D02*
X0206387Y0111346D01*
X0206753Y0111346D01*
X0207120Y0110979D01*
X0207120Y0110245D01*
X0206753Y0109878D01*
X0206387Y0109878D01*
X0206020Y0110245D01*
X0206020Y0109136D02*
X0206387Y0108769D01*
X0206387Y0107668D01*
X0207120Y0107668D02*
X0204919Y0107668D01*
X0204919Y0108769D01*
X0205286Y0109136D01*
X0206020Y0109136D01*
X0206387Y0108402D02*
X0207120Y0109136D01*
X0207120Y0112087D02*
X0205653Y0113555D01*
X0205286Y0113555D01*
X0204919Y0113188D01*
X0207120Y0113555D02*
X0207120Y0112087D01*
X0212793Y0112087D02*
X0212793Y0113555D01*
X0213160Y0113555D01*
X0214628Y0112087D01*
X0214994Y0112087D01*
X0214628Y0111346D02*
X0214994Y0110979D01*
X0214994Y0110245D01*
X0214628Y0109878D01*
X0214261Y0109878D01*
X0213894Y0110245D01*
X0213894Y0110979D01*
X0214261Y0111346D01*
X0214628Y0111346D01*
X0213894Y0110979D02*
X0213527Y0111346D01*
X0213160Y0111346D01*
X0212793Y0110979D01*
X0212793Y0110245D01*
X0213160Y0109878D01*
X0213527Y0109878D01*
X0213894Y0110245D01*
X0213894Y0109136D02*
X0214261Y0108769D01*
X0214261Y0107668D01*
X0214994Y0107668D02*
X0212793Y0107668D01*
X0212793Y0108769D01*
X0213160Y0109136D01*
X0213894Y0109136D01*
X0214261Y0108402D02*
X0214994Y0109136D01*
X0220667Y0108769D02*
X0221034Y0109136D01*
X0221768Y0109136D01*
X0222135Y0108769D01*
X0222135Y0107668D01*
X0222869Y0107668D02*
X0220667Y0107668D01*
X0220667Y0108769D01*
X0221034Y0109878D02*
X0221401Y0109878D01*
X0221768Y0110245D01*
X0221768Y0111346D01*
X0222502Y0111346D02*
X0221034Y0111346D01*
X0220667Y0110979D01*
X0220667Y0110245D01*
X0221034Y0109878D01*
X0222502Y0109878D02*
X0222869Y0110245D01*
X0222869Y0110979D01*
X0222502Y0111346D01*
X0222869Y0112087D02*
X0221401Y0113555D01*
X0221034Y0113555D01*
X0220667Y0113188D01*
X0220667Y0112454D01*
X0221034Y0112087D01*
X0222869Y0112087D02*
X0222869Y0113555D01*
X0228541Y0113188D02*
X0228908Y0113555D01*
X0229275Y0113555D01*
X0229642Y0113188D01*
X0229642Y0112454D01*
X0229275Y0112087D01*
X0228908Y0112087D01*
X0228541Y0112454D01*
X0228541Y0113188D01*
X0229642Y0113188D02*
X0230009Y0113555D01*
X0230376Y0113555D01*
X0230743Y0113188D01*
X0230743Y0112454D01*
X0230376Y0112087D01*
X0230009Y0112087D01*
X0229642Y0112454D01*
X0229642Y0111346D02*
X0229642Y0110245D01*
X0229275Y0109878D01*
X0228908Y0109878D01*
X0228541Y0110245D01*
X0228541Y0110979D01*
X0228908Y0111346D01*
X0230376Y0111346D01*
X0230743Y0110979D01*
X0230743Y0110245D01*
X0230376Y0109878D01*
X0230743Y0109136D02*
X0230009Y0108402D01*
X0230009Y0108769D02*
X0230009Y0107668D01*
X0230743Y0107668D02*
X0228541Y0107668D01*
X0228541Y0108769D01*
X0228908Y0109136D01*
X0229642Y0109136D01*
X0230009Y0108769D01*
X0236415Y0108375D02*
X0236782Y0108742D01*
X0237516Y0108742D01*
X0237883Y0108375D01*
X0237883Y0107274D01*
X0238617Y0107274D02*
X0236415Y0107274D01*
X0236415Y0108375D01*
X0237149Y0109484D02*
X0236415Y0110218D01*
X0238617Y0110218D01*
X0238617Y0109484D02*
X0238617Y0110952D01*
X0238250Y0111694D02*
X0236782Y0113162D01*
X0238250Y0113162D01*
X0238617Y0112795D01*
X0238617Y0112061D01*
X0238250Y0111694D01*
X0236782Y0111694D01*
X0236415Y0112061D01*
X0236415Y0112795D01*
X0236782Y0113162D01*
X0236782Y0113904D02*
X0236415Y0114271D01*
X0236415Y0115005D01*
X0236782Y0115372D01*
X0237149Y0115372D01*
X0238617Y0113904D01*
X0238617Y0115372D01*
X0244289Y0115372D02*
X0244289Y0113904D01*
X0244656Y0113162D02*
X0246124Y0111694D01*
X0246491Y0112061D01*
X0246491Y0112795D01*
X0246124Y0113162D01*
X0244656Y0113162D01*
X0244289Y0112795D01*
X0244289Y0112061D01*
X0244656Y0111694D01*
X0246124Y0111694D01*
X0246491Y0110952D02*
X0246491Y0109484D01*
X0246491Y0110218D02*
X0244289Y0110218D01*
X0245023Y0109484D01*
X0245390Y0108742D02*
X0245757Y0108375D01*
X0245757Y0107274D01*
X0246491Y0107274D02*
X0244289Y0107274D01*
X0244289Y0108375D01*
X0244656Y0108742D01*
X0245390Y0108742D01*
X0245757Y0108008D02*
X0246491Y0108742D01*
X0246491Y0113904D02*
X0246124Y0113904D01*
X0244656Y0115372D01*
X0244289Y0115372D01*
X0242754Y0122510D02*
X0242754Y0124712D01*
X0227006Y0124712D02*
X0227006Y0122510D01*
X0222869Y0109136D02*
X0222135Y0108402D01*
X0227006Y0099122D02*
X0227006Y0096920D01*
X0237883Y0108008D02*
X0238617Y0108742D01*
X0242754Y0099122D02*
X0242754Y0096920D01*
X0258502Y0096920D02*
X0258502Y0099122D01*
X0274250Y0099122D02*
X0274250Y0096920D01*
X0274250Y0097654D02*
X0275351Y0097654D01*
X0275718Y0098021D01*
X0275718Y0098755D01*
X0275351Y0099122D01*
X0274250Y0099122D01*
X0274984Y0097654D02*
X0275718Y0096920D01*
X0276459Y0096920D02*
X0277927Y0096920D01*
X0277193Y0096920D02*
X0277193Y0099122D01*
X0276459Y0098388D01*
X0278669Y0098755D02*
X0279036Y0099122D01*
X0279770Y0099122D01*
X0280137Y0098755D01*
X0280137Y0098388D01*
X0278669Y0096920D01*
X0280137Y0096920D01*
X0280879Y0098021D02*
X0282347Y0098021D01*
X0281980Y0099122D02*
X0280879Y0098021D01*
X0281980Y0096920D02*
X0281980Y0099122D01*
X0305746Y0122510D02*
X0305746Y0124712D01*
X0306887Y0139951D02*
X0306887Y0141052D01*
X0307254Y0141419D01*
X0307988Y0141419D01*
X0308355Y0141052D01*
X0308355Y0139951D01*
X0309089Y0139951D02*
X0306887Y0139951D01*
X0308355Y0140685D02*
X0309089Y0141419D01*
X0309089Y0142161D02*
X0309089Y0143629D01*
X0309089Y0142895D02*
X0306887Y0142895D01*
X0307621Y0142161D01*
X0307988Y0144371D02*
X0307988Y0145839D01*
X0307988Y0146581D02*
X0307988Y0147682D01*
X0308355Y0148049D01*
X0308722Y0148049D01*
X0309089Y0147682D01*
X0309089Y0146948D01*
X0308722Y0146581D01*
X0307988Y0146581D01*
X0307254Y0147315D01*
X0306887Y0148049D01*
X0306887Y0145472D02*
X0307988Y0144371D01*
X0309089Y0145472D02*
X0306887Y0145472D01*
X0301609Y0145472D02*
X0299407Y0145472D01*
X0300508Y0144371D01*
X0300508Y0145839D01*
X0301242Y0146581D02*
X0301609Y0146948D01*
X0301609Y0147682D01*
X0301242Y0148049D01*
X0300875Y0148049D01*
X0300508Y0147682D01*
X0300508Y0147315D01*
X0300508Y0147682D02*
X0300141Y0148049D01*
X0299774Y0148049D01*
X0299407Y0147682D01*
X0299407Y0146948D01*
X0299774Y0146581D01*
X0301609Y0143629D02*
X0301609Y0142161D01*
X0301609Y0142895D02*
X0299407Y0142895D01*
X0300141Y0142161D01*
X0300508Y0141419D02*
X0300875Y0141052D01*
X0300875Y0139951D01*
X0301609Y0139951D02*
X0299407Y0139951D01*
X0299407Y0141052D01*
X0299774Y0141419D01*
X0300508Y0141419D01*
X0300875Y0140685D02*
X0301609Y0141419D01*
X0315155Y0141052D02*
X0315155Y0139951D01*
X0317357Y0139951D01*
X0316623Y0139951D02*
X0316623Y0141052D01*
X0316256Y0141419D01*
X0315522Y0141419D01*
X0315155Y0141052D01*
X0315889Y0142161D02*
X0315155Y0142895D01*
X0317357Y0142895D01*
X0317357Y0142161D02*
X0317357Y0143629D01*
X0316990Y0144371D02*
X0317357Y0144738D01*
X0317357Y0145472D01*
X0316990Y0145839D01*
X0316256Y0145839D01*
X0315889Y0145472D01*
X0315889Y0145105D01*
X0316256Y0144371D01*
X0315155Y0144371D01*
X0315155Y0145839D01*
X0315522Y0146581D02*
X0315155Y0146948D01*
X0315155Y0147682D01*
X0315522Y0148049D01*
X0315889Y0148049D01*
X0316256Y0147682D01*
X0316623Y0148049D01*
X0316990Y0148049D01*
X0317357Y0147682D01*
X0317357Y0146948D01*
X0316990Y0146581D01*
X0316256Y0147315D02*
X0316256Y0147682D01*
X0323029Y0147682D02*
X0323396Y0148049D01*
X0323763Y0148049D01*
X0324130Y0147682D01*
X0324130Y0146948D01*
X0323763Y0146581D01*
X0323396Y0146581D01*
X0323029Y0146948D01*
X0323029Y0147682D01*
X0324130Y0147682D02*
X0324497Y0148049D01*
X0324864Y0148049D01*
X0325231Y0147682D01*
X0325231Y0146948D01*
X0324864Y0146581D01*
X0324497Y0146581D01*
X0324130Y0146948D01*
X0324130Y0145839D02*
X0324864Y0145839D01*
X0325231Y0145472D01*
X0325231Y0144738D01*
X0324864Y0144371D01*
X0324130Y0144371D02*
X0323763Y0145105D01*
X0323763Y0145472D01*
X0324130Y0145839D01*
X0323029Y0145839D02*
X0323029Y0144371D01*
X0324130Y0144371D01*
X0325231Y0143629D02*
X0325231Y0142161D01*
X0325231Y0142895D02*
X0323029Y0142895D01*
X0323763Y0142161D01*
X0324130Y0141419D02*
X0324497Y0141052D01*
X0324497Y0139951D01*
X0325231Y0139951D02*
X0323029Y0139951D01*
X0323029Y0141052D01*
X0323396Y0141419D01*
X0324130Y0141419D01*
X0324497Y0140685D02*
X0325231Y0141419D01*
X0317357Y0141419D02*
X0316623Y0140685D01*
X0178640Y0215089D02*
X0177439Y0215089D01*
X0178039Y0215089D02*
X0178039Y0216890D01*
X0177439Y0216290D01*
X0176798Y0216590D02*
X0176498Y0216890D01*
X0175897Y0216890D01*
X0175597Y0216590D01*
X0175597Y0216290D01*
X0175897Y0215989D01*
X0176498Y0215989D01*
X0176798Y0215689D01*
X0176798Y0215389D01*
X0176498Y0215089D01*
X0175897Y0215089D01*
X0175597Y0215389D01*
X0174957Y0215389D02*
X0174957Y0216890D01*
X0173756Y0216890D02*
X0173756Y0215389D01*
X0174056Y0215089D01*
X0174656Y0215089D01*
X0174957Y0215389D01*
X0176198Y0214788D02*
X0176198Y0217190D01*
D14*
X0175897Y0125797D03*
X0172697Y0125797D03*
X0168023Y0119891D03*
X0164823Y0119891D03*
X0160149Y0125797D03*
X0156949Y0125797D03*
X0152275Y0119891D03*
X0149075Y0119891D03*
X0144401Y0125797D03*
X0141201Y0125797D03*
X0136527Y0119891D03*
X0133327Y0119891D03*
X0128653Y0125797D03*
X0125453Y0125797D03*
X0120779Y0119891D03*
X0117579Y0119891D03*
X0112905Y0125797D03*
X0109705Y0125797D03*
X0105031Y0119891D03*
X0101831Y0119891D03*
X0097157Y0125797D03*
X0093957Y0125797D03*
X0089283Y0119891D03*
X0086083Y0119891D03*
X0093957Y0100206D03*
X0097157Y0100206D03*
X0101831Y0094301D03*
X0105031Y0094301D03*
X0109705Y0100206D03*
X0112905Y0100206D03*
X0117579Y0094301D03*
X0120779Y0094301D03*
X0125453Y0100206D03*
X0128653Y0100206D03*
X0133327Y0094301D03*
X0136527Y0094301D03*
X0141201Y0100206D03*
X0144401Y0100206D03*
X0149075Y0094301D03*
X0152275Y0094301D03*
X0156949Y0100206D03*
X0160149Y0100206D03*
X0164823Y0094301D03*
X0168023Y0094301D03*
X0172697Y0100206D03*
X0175897Y0100206D03*
X0180571Y0094301D03*
X0183771Y0094301D03*
X0188445Y0100206D03*
X0191645Y0100206D03*
X0196319Y0094301D03*
X0199519Y0094301D03*
X0204193Y0100206D03*
X0207393Y0100206D03*
X0212067Y0094301D03*
X0215267Y0094301D03*
X0219941Y0100206D03*
X0223141Y0100206D03*
X0227815Y0094301D03*
X0231015Y0094301D03*
X0235689Y0100206D03*
X0238889Y0100206D03*
X0243563Y0094301D03*
X0246763Y0094301D03*
X0251437Y0100206D03*
X0254637Y0100206D03*
X0259311Y0094301D03*
X0262511Y0094301D03*
X0267185Y0100206D03*
X0270385Y0100206D03*
X0275059Y0094301D03*
X0278259Y0094301D03*
X0282933Y0100206D03*
X0286133Y0100206D03*
X0290807Y0094301D03*
X0294007Y0094301D03*
X0298681Y0100206D03*
X0301881Y0100206D03*
X0306555Y0094301D03*
X0309755Y0094301D03*
X0314429Y0100206D03*
X0317629Y0100206D03*
X0322303Y0094301D03*
X0325503Y0094301D03*
X0330177Y0100206D03*
X0333377Y0100206D03*
X0325503Y0119891D03*
X0322303Y0119891D03*
X0317629Y0125797D03*
X0314429Y0125797D03*
X0309755Y0119891D03*
X0306555Y0119891D03*
X0301881Y0125797D03*
X0298681Y0125797D03*
X0294007Y0119891D03*
X0290807Y0119891D03*
X0286133Y0125797D03*
X0282933Y0125797D03*
X0278259Y0119891D03*
X0275059Y0119891D03*
X0270385Y0125797D03*
X0267185Y0125797D03*
X0262511Y0119891D03*
X0259311Y0119891D03*
X0254637Y0125797D03*
X0251437Y0125797D03*
X0246763Y0119891D03*
X0243563Y0119891D03*
X0238889Y0125797D03*
X0235689Y0125797D03*
X0231015Y0119891D03*
X0227815Y0119891D03*
X0223141Y0125797D03*
X0219941Y0125797D03*
X0215267Y0119891D03*
X0212067Y0119891D03*
X0207393Y0125797D03*
X0204193Y0125797D03*
X0199519Y0119891D03*
X0196319Y0119891D03*
X0191645Y0125797D03*
X0188445Y0125797D03*
X0183771Y0119891D03*
X0180571Y0119891D03*
X0089283Y0094301D03*
X0086083Y0094301D03*
X0330177Y0125797D03*
X0333377Y0125797D03*
D15*
X0181718Y0213039D02*
X0181720Y0213079D01*
X0181726Y0213119D01*
X0181736Y0213159D01*
X0181749Y0213197D01*
X0181767Y0213233D01*
X0181787Y0213268D01*
X0181812Y0213300D01*
X0181839Y0213330D01*
X0181869Y0213357D01*
X0181901Y0213382D01*
X0181936Y0213402D01*
X0181972Y0213420D01*
X0182010Y0213433D01*
X0182050Y0213443D01*
X0182090Y0213449D01*
X0182130Y0213451D01*
X0182170Y0213449D01*
X0182210Y0213443D01*
X0182250Y0213433D01*
X0182288Y0213420D01*
X0182324Y0213402D01*
X0182359Y0213382D01*
X0182391Y0213357D01*
X0182421Y0213330D01*
X0182448Y0213300D01*
X0182473Y0213268D01*
X0182493Y0213233D01*
X0182511Y0213197D01*
X0182524Y0213159D01*
X0182534Y0213119D01*
X0182540Y0213079D01*
X0182542Y0213039D01*
X0182540Y0212999D01*
X0182534Y0212959D01*
X0182524Y0212919D01*
X0182511Y0212881D01*
X0182493Y0212845D01*
X0182473Y0212810D01*
X0182448Y0212778D01*
X0182421Y0212748D01*
X0182391Y0212721D01*
X0182359Y0212696D01*
X0182324Y0212676D01*
X0182288Y0212658D01*
X0182250Y0212645D01*
X0182210Y0212635D01*
X0182170Y0212629D01*
X0182130Y0212627D01*
X0182090Y0212629D01*
X0182050Y0212635D01*
X0182010Y0212645D01*
X0181972Y0212658D01*
X0181936Y0212676D01*
X0181901Y0212696D01*
X0181869Y0212721D01*
X0181839Y0212748D01*
X0181812Y0212778D01*
X0181787Y0212810D01*
X0181767Y0212845D01*
X0181749Y0212881D01*
X0181736Y0212919D01*
X0181726Y0212959D01*
X0181720Y0212999D01*
X0181718Y0213039D01*
D16*
X0180180Y0214489D02*
X0231680Y0214489D01*
X0231680Y0221489D01*
X0180180Y0221489D01*
X0180180Y0214489D01*
M02*
