G75*
%MOIN*%
%OFA0B0*%
%FSLAX25Y25*%
%IPPOS*%
%LPD*%
%AMOC8*
5,1,8,0,0,1.08239X$1,22.5*
%
%ADD10C,0.00300*%
%ADD11C,0.00600*%
%ADD12C,0.01000*%
%ADD13C,0.00500*%
D10*
X0167338Y0161596D02*
X0169807Y0161596D01*
X0167338Y0164064D01*
X0167338Y0164682D01*
X0167955Y0165299D01*
X0169190Y0165299D01*
X0169807Y0164682D01*
X0169511Y0178328D02*
X0167043Y0178328D01*
X0168277Y0178328D02*
X0168277Y0182031D01*
X0169511Y0180797D01*
X0186376Y0212186D02*
X0188311Y0212186D01*
X0186376Y0214121D01*
X0186376Y0214605D01*
X0186859Y0215089D01*
X0187827Y0215089D01*
X0188311Y0214605D01*
X0188311Y0220454D02*
X0186376Y0220454D01*
X0187343Y0220454D02*
X0187343Y0223356D01*
X0188311Y0222389D01*
X0223587Y0220651D02*
X0225522Y0220651D01*
X0224554Y0220651D02*
X0224554Y0223553D01*
X0225522Y0222586D01*
X0226533Y0222586D02*
X0227017Y0222102D01*
X0226533Y0221618D01*
X0226533Y0221135D01*
X0227017Y0220651D01*
X0227984Y0220651D01*
X0228468Y0221135D01*
X0227501Y0222102D02*
X0227017Y0222102D01*
X0226533Y0222586D02*
X0226533Y0223070D01*
X0227017Y0223553D01*
X0227984Y0223553D01*
X0228468Y0223070D01*
X0227984Y0215286D02*
X0227017Y0215286D01*
X0226533Y0214802D01*
X0226533Y0214318D01*
X0227017Y0213834D01*
X0226533Y0213351D01*
X0226533Y0212867D01*
X0227017Y0212383D01*
X0227984Y0212383D01*
X0228468Y0212867D01*
X0227501Y0213834D02*
X0227017Y0213834D01*
X0228468Y0214802D02*
X0227984Y0215286D01*
X0225522Y0214802D02*
X0225038Y0215286D01*
X0224070Y0215286D01*
X0223587Y0214802D01*
X0223587Y0214318D01*
X0225522Y0212383D01*
X0223587Y0212383D01*
X0241464Y0182130D02*
X0241464Y0178426D01*
X0242698Y0178426D02*
X0240230Y0178426D01*
X0242698Y0180895D02*
X0241464Y0182130D01*
X0243913Y0181512D02*
X0243913Y0180895D01*
X0244530Y0180278D01*
X0243913Y0179661D01*
X0243913Y0179044D01*
X0244530Y0178426D01*
X0245764Y0178426D01*
X0246381Y0179044D01*
X0245147Y0180278D02*
X0244530Y0180278D01*
X0243913Y0181512D02*
X0244530Y0182130D01*
X0245764Y0182130D01*
X0246381Y0181512D01*
X0246158Y0165200D02*
X0244924Y0165200D01*
X0244306Y0164583D01*
X0244306Y0163966D01*
X0244924Y0163349D01*
X0244306Y0162732D01*
X0244306Y0162114D01*
X0244924Y0161497D01*
X0246158Y0161497D01*
X0246775Y0162114D01*
X0245541Y0163349D02*
X0244924Y0163349D01*
X0243092Y0164583D02*
X0242475Y0165200D01*
X0241240Y0165200D01*
X0240623Y0164583D01*
X0240623Y0163966D01*
X0243092Y0161497D01*
X0240623Y0161497D01*
X0246158Y0165200D02*
X0246775Y0164583D01*
D11*
X0068600Y0058867D02*
X0068600Y0014867D01*
X0068602Y0014769D01*
X0068608Y0014671D01*
X0068617Y0014573D01*
X0068631Y0014476D01*
X0068648Y0014379D01*
X0068669Y0014283D01*
X0068694Y0014188D01*
X0068722Y0014094D01*
X0068755Y0014002D01*
X0068790Y0013910D01*
X0068830Y0013820D01*
X0068872Y0013732D01*
X0068919Y0013645D01*
X0068968Y0013561D01*
X0069021Y0013478D01*
X0069077Y0013398D01*
X0069137Y0013319D01*
X0069199Y0013243D01*
X0069264Y0013170D01*
X0069332Y0013099D01*
X0069403Y0013031D01*
X0069476Y0012966D01*
X0069552Y0012904D01*
X0069631Y0012844D01*
X0069711Y0012788D01*
X0069794Y0012735D01*
X0069878Y0012686D01*
X0069965Y0012639D01*
X0070053Y0012597D01*
X0070143Y0012557D01*
X0070235Y0012522D01*
X0070327Y0012489D01*
X0070421Y0012461D01*
X0070516Y0012436D01*
X0070612Y0012415D01*
X0070709Y0012398D01*
X0070806Y0012384D01*
X0070904Y0012375D01*
X0071002Y0012369D01*
X0071100Y0012367D01*
X0079600Y0012367D01*
X0079600Y0012867D01*
X0089600Y0012867D01*
X0089600Y0012367D01*
X0079600Y0012367D01*
X0089600Y0012367D02*
X0321600Y0012367D01*
X0321600Y0012867D01*
X0331600Y0012867D01*
X0331600Y0012367D01*
X0340100Y0012367D01*
X0340198Y0012369D01*
X0340296Y0012375D01*
X0340394Y0012384D01*
X0340491Y0012398D01*
X0340588Y0012415D01*
X0340684Y0012436D01*
X0340779Y0012461D01*
X0340873Y0012489D01*
X0340965Y0012522D01*
X0341057Y0012557D01*
X0341147Y0012597D01*
X0341235Y0012639D01*
X0341322Y0012686D01*
X0341406Y0012735D01*
X0341489Y0012788D01*
X0341569Y0012844D01*
X0341648Y0012904D01*
X0341724Y0012966D01*
X0341797Y0013031D01*
X0341868Y0013099D01*
X0341936Y0013170D01*
X0342001Y0013243D01*
X0342063Y0013319D01*
X0342123Y0013398D01*
X0342179Y0013478D01*
X0342232Y0013561D01*
X0342281Y0013645D01*
X0342328Y0013732D01*
X0342370Y0013820D01*
X0342410Y0013910D01*
X0342445Y0014002D01*
X0342478Y0014094D01*
X0342506Y0014188D01*
X0342531Y0014283D01*
X0342552Y0014379D01*
X0342569Y0014476D01*
X0342583Y0014573D01*
X0342592Y0014671D01*
X0342598Y0014769D01*
X0342600Y0014867D01*
X0342600Y0058867D01*
X0342598Y0058965D01*
X0342592Y0059063D01*
X0342583Y0059161D01*
X0342569Y0059258D01*
X0342552Y0059355D01*
X0342531Y0059451D01*
X0342506Y0059546D01*
X0342478Y0059640D01*
X0342445Y0059732D01*
X0342410Y0059824D01*
X0342370Y0059914D01*
X0342328Y0060002D01*
X0342281Y0060089D01*
X0342232Y0060173D01*
X0342179Y0060256D01*
X0342123Y0060336D01*
X0342063Y0060415D01*
X0342001Y0060491D01*
X0341936Y0060564D01*
X0341868Y0060635D01*
X0341797Y0060703D01*
X0341724Y0060768D01*
X0341648Y0060830D01*
X0341569Y0060890D01*
X0341489Y0060946D01*
X0341406Y0060999D01*
X0341322Y0061048D01*
X0341235Y0061095D01*
X0341147Y0061137D01*
X0341057Y0061177D01*
X0340965Y0061212D01*
X0340873Y0061245D01*
X0340779Y0061273D01*
X0340684Y0061298D01*
X0340588Y0061319D01*
X0340491Y0061336D01*
X0340394Y0061350D01*
X0340296Y0061359D01*
X0340198Y0061365D01*
X0340100Y0061367D01*
X0331600Y0061367D01*
X0321600Y0061367D01*
X0321600Y0060867D01*
X0331600Y0060867D01*
X0331600Y0061367D01*
X0321600Y0061367D02*
X0089600Y0061367D01*
X0079600Y0061367D01*
X0079600Y0060867D01*
X0089600Y0060867D01*
X0089600Y0061367D01*
X0079600Y0061367D02*
X0071100Y0061367D01*
X0071002Y0061365D01*
X0070904Y0061359D01*
X0070806Y0061350D01*
X0070709Y0061336D01*
X0070612Y0061319D01*
X0070516Y0061298D01*
X0070421Y0061273D01*
X0070327Y0061245D01*
X0070235Y0061212D01*
X0070143Y0061177D01*
X0070053Y0061137D01*
X0069965Y0061095D01*
X0069878Y0061048D01*
X0069794Y0060999D01*
X0069711Y0060946D01*
X0069631Y0060890D01*
X0069552Y0060830D01*
X0069476Y0060768D01*
X0069403Y0060703D01*
X0069332Y0060635D01*
X0069264Y0060564D01*
X0069199Y0060491D01*
X0069137Y0060415D01*
X0069077Y0060336D01*
X0069021Y0060256D01*
X0068968Y0060173D01*
X0068919Y0060089D01*
X0068872Y0060002D01*
X0068830Y0059914D01*
X0068790Y0059824D01*
X0068755Y0059732D01*
X0068722Y0059640D01*
X0068694Y0059546D01*
X0068669Y0059451D01*
X0068648Y0059355D01*
X0068631Y0059258D01*
X0068617Y0059161D01*
X0068608Y0059063D01*
X0068602Y0058965D01*
X0068600Y0058867D01*
X0074100Y0036867D02*
X0074102Y0037028D01*
X0074108Y0037188D01*
X0074118Y0037349D01*
X0074132Y0037509D01*
X0074150Y0037669D01*
X0074171Y0037828D01*
X0074197Y0037987D01*
X0074227Y0038145D01*
X0074260Y0038302D01*
X0074298Y0038459D01*
X0074339Y0038614D01*
X0074384Y0038768D01*
X0074433Y0038921D01*
X0074486Y0039073D01*
X0074542Y0039224D01*
X0074603Y0039373D01*
X0074666Y0039521D01*
X0074734Y0039667D01*
X0074805Y0039811D01*
X0074879Y0039953D01*
X0074957Y0040094D01*
X0075039Y0040232D01*
X0075124Y0040369D01*
X0075212Y0040503D01*
X0075304Y0040635D01*
X0075399Y0040765D01*
X0075497Y0040893D01*
X0075598Y0041018D01*
X0075702Y0041140D01*
X0075809Y0041260D01*
X0075919Y0041377D01*
X0076032Y0041492D01*
X0076148Y0041603D01*
X0076267Y0041712D01*
X0076388Y0041817D01*
X0076512Y0041920D01*
X0076638Y0042020D01*
X0076766Y0042116D01*
X0076897Y0042209D01*
X0077031Y0042299D01*
X0077166Y0042386D01*
X0077304Y0042469D01*
X0077443Y0042549D01*
X0077585Y0042625D01*
X0077728Y0042698D01*
X0077873Y0042767D01*
X0078020Y0042833D01*
X0078168Y0042895D01*
X0078318Y0042953D01*
X0078469Y0043008D01*
X0078622Y0043059D01*
X0078776Y0043106D01*
X0078931Y0043149D01*
X0079087Y0043188D01*
X0079243Y0043224D01*
X0079401Y0043255D01*
X0079559Y0043283D01*
X0079718Y0043307D01*
X0079878Y0043327D01*
X0080038Y0043343D01*
X0080198Y0043355D01*
X0080359Y0043363D01*
X0080520Y0043367D01*
X0080680Y0043367D01*
X0080841Y0043363D01*
X0081002Y0043355D01*
X0081162Y0043343D01*
X0081322Y0043327D01*
X0081482Y0043307D01*
X0081641Y0043283D01*
X0081799Y0043255D01*
X0081957Y0043224D01*
X0082113Y0043188D01*
X0082269Y0043149D01*
X0082424Y0043106D01*
X0082578Y0043059D01*
X0082731Y0043008D01*
X0082882Y0042953D01*
X0083032Y0042895D01*
X0083180Y0042833D01*
X0083327Y0042767D01*
X0083472Y0042698D01*
X0083615Y0042625D01*
X0083757Y0042549D01*
X0083896Y0042469D01*
X0084034Y0042386D01*
X0084169Y0042299D01*
X0084303Y0042209D01*
X0084434Y0042116D01*
X0084562Y0042020D01*
X0084688Y0041920D01*
X0084812Y0041817D01*
X0084933Y0041712D01*
X0085052Y0041603D01*
X0085168Y0041492D01*
X0085281Y0041377D01*
X0085391Y0041260D01*
X0085498Y0041140D01*
X0085602Y0041018D01*
X0085703Y0040893D01*
X0085801Y0040765D01*
X0085896Y0040635D01*
X0085988Y0040503D01*
X0086076Y0040369D01*
X0086161Y0040232D01*
X0086243Y0040094D01*
X0086321Y0039953D01*
X0086395Y0039811D01*
X0086466Y0039667D01*
X0086534Y0039521D01*
X0086597Y0039373D01*
X0086658Y0039224D01*
X0086714Y0039073D01*
X0086767Y0038921D01*
X0086816Y0038768D01*
X0086861Y0038614D01*
X0086902Y0038459D01*
X0086940Y0038302D01*
X0086973Y0038145D01*
X0087003Y0037987D01*
X0087029Y0037828D01*
X0087050Y0037669D01*
X0087068Y0037509D01*
X0087082Y0037349D01*
X0087092Y0037188D01*
X0087098Y0037028D01*
X0087100Y0036867D01*
X0087098Y0036706D01*
X0087092Y0036546D01*
X0087082Y0036385D01*
X0087068Y0036225D01*
X0087050Y0036065D01*
X0087029Y0035906D01*
X0087003Y0035747D01*
X0086973Y0035589D01*
X0086940Y0035432D01*
X0086902Y0035275D01*
X0086861Y0035120D01*
X0086816Y0034966D01*
X0086767Y0034813D01*
X0086714Y0034661D01*
X0086658Y0034510D01*
X0086597Y0034361D01*
X0086534Y0034213D01*
X0086466Y0034067D01*
X0086395Y0033923D01*
X0086321Y0033781D01*
X0086243Y0033640D01*
X0086161Y0033502D01*
X0086076Y0033365D01*
X0085988Y0033231D01*
X0085896Y0033099D01*
X0085801Y0032969D01*
X0085703Y0032841D01*
X0085602Y0032716D01*
X0085498Y0032594D01*
X0085391Y0032474D01*
X0085281Y0032357D01*
X0085168Y0032242D01*
X0085052Y0032131D01*
X0084933Y0032022D01*
X0084812Y0031917D01*
X0084688Y0031814D01*
X0084562Y0031714D01*
X0084434Y0031618D01*
X0084303Y0031525D01*
X0084169Y0031435D01*
X0084034Y0031348D01*
X0083896Y0031265D01*
X0083757Y0031185D01*
X0083615Y0031109D01*
X0083472Y0031036D01*
X0083327Y0030967D01*
X0083180Y0030901D01*
X0083032Y0030839D01*
X0082882Y0030781D01*
X0082731Y0030726D01*
X0082578Y0030675D01*
X0082424Y0030628D01*
X0082269Y0030585D01*
X0082113Y0030546D01*
X0081957Y0030510D01*
X0081799Y0030479D01*
X0081641Y0030451D01*
X0081482Y0030427D01*
X0081322Y0030407D01*
X0081162Y0030391D01*
X0081002Y0030379D01*
X0080841Y0030371D01*
X0080680Y0030367D01*
X0080520Y0030367D01*
X0080359Y0030371D01*
X0080198Y0030379D01*
X0080038Y0030391D01*
X0079878Y0030407D01*
X0079718Y0030427D01*
X0079559Y0030451D01*
X0079401Y0030479D01*
X0079243Y0030510D01*
X0079087Y0030546D01*
X0078931Y0030585D01*
X0078776Y0030628D01*
X0078622Y0030675D01*
X0078469Y0030726D01*
X0078318Y0030781D01*
X0078168Y0030839D01*
X0078020Y0030901D01*
X0077873Y0030967D01*
X0077728Y0031036D01*
X0077585Y0031109D01*
X0077443Y0031185D01*
X0077304Y0031265D01*
X0077166Y0031348D01*
X0077031Y0031435D01*
X0076897Y0031525D01*
X0076766Y0031618D01*
X0076638Y0031714D01*
X0076512Y0031814D01*
X0076388Y0031917D01*
X0076267Y0032022D01*
X0076148Y0032131D01*
X0076032Y0032242D01*
X0075919Y0032357D01*
X0075809Y0032474D01*
X0075702Y0032594D01*
X0075598Y0032716D01*
X0075497Y0032841D01*
X0075399Y0032969D01*
X0075304Y0033099D01*
X0075212Y0033231D01*
X0075124Y0033365D01*
X0075039Y0033502D01*
X0074957Y0033640D01*
X0074879Y0033781D01*
X0074805Y0033923D01*
X0074734Y0034067D01*
X0074666Y0034213D01*
X0074603Y0034361D01*
X0074542Y0034510D01*
X0074486Y0034661D01*
X0074433Y0034813D01*
X0074384Y0034966D01*
X0074339Y0035120D01*
X0074298Y0035275D01*
X0074260Y0035432D01*
X0074227Y0035589D01*
X0074197Y0035747D01*
X0074171Y0035906D01*
X0074150Y0036065D01*
X0074132Y0036225D01*
X0074118Y0036385D01*
X0074108Y0036546D01*
X0074102Y0036706D01*
X0074100Y0036867D01*
X0096900Y0045967D02*
X0100000Y0025367D01*
X0099947Y0025430D02*
X0099983Y0025290D01*
X0100022Y0025151D01*
X0100066Y0025013D01*
X0100112Y0024877D01*
X0100163Y0024742D01*
X0100217Y0024608D01*
X0100275Y0024476D01*
X0100337Y0024345D01*
X0100402Y0024216D01*
X0100470Y0024089D01*
X0100542Y0023964D01*
X0100618Y0023840D01*
X0100696Y0023719D01*
X0100778Y0023600D01*
X0100863Y0023484D01*
X0100952Y0023370D01*
X0101043Y0023258D01*
X0101137Y0023149D01*
X0101235Y0023042D01*
X0101335Y0022938D01*
X0101438Y0022837D01*
X0101544Y0022738D01*
X0101652Y0022643D01*
X0101763Y0022550D01*
X0101876Y0022461D01*
X0101992Y0022375D01*
X0102110Y0022292D01*
X0102230Y0022212D01*
X0102353Y0022135D01*
X0102477Y0022062D01*
X0102604Y0021992D01*
X0102732Y0021926D01*
X0102862Y0021863D01*
X0102994Y0021804D01*
X0103127Y0021748D01*
X0103262Y0021696D01*
X0103398Y0021648D01*
X0103535Y0021604D01*
X0103674Y0021563D01*
X0103813Y0021526D01*
X0103954Y0021493D01*
X0104095Y0021463D01*
X0104237Y0021438D01*
X0104380Y0021416D01*
X0104523Y0021399D01*
X0104667Y0021385D01*
X0104811Y0021375D01*
X0104955Y0021369D01*
X0105100Y0021367D01*
X0306100Y0021367D01*
X0311200Y0025267D02*
X0314300Y0046067D01*
X0314297Y0046028D02*
X0314323Y0046170D01*
X0314346Y0046312D01*
X0314365Y0046455D01*
X0314379Y0046598D01*
X0314390Y0046742D01*
X0314397Y0046886D01*
X0314400Y0047030D01*
X0314399Y0047174D01*
X0314394Y0047318D01*
X0314385Y0047462D01*
X0314373Y0047606D01*
X0314356Y0047749D01*
X0314335Y0047892D01*
X0314311Y0048034D01*
X0314283Y0048175D01*
X0314251Y0048316D01*
X0314215Y0048456D01*
X0314175Y0048594D01*
X0314132Y0048732D01*
X0314085Y0048868D01*
X0314034Y0049003D01*
X0313979Y0049136D01*
X0313921Y0049268D01*
X0313860Y0049399D01*
X0313794Y0049527D01*
X0313726Y0049654D01*
X0313654Y0049779D01*
X0313578Y0049902D01*
X0313500Y0050022D01*
X0313418Y0050141D01*
X0313332Y0050257D01*
X0313244Y0050371D01*
X0313153Y0050483D01*
X0313058Y0050592D01*
X0312961Y0050698D01*
X0312861Y0050802D01*
X0312758Y0050903D01*
X0312652Y0051001D01*
X0312544Y0051096D01*
X0312433Y0051188D01*
X0312320Y0051277D01*
X0312204Y0051363D01*
X0312086Y0051446D01*
X0311966Y0051525D01*
X0311843Y0051602D01*
X0311719Y0051675D01*
X0311593Y0051744D01*
X0311465Y0051810D01*
X0311335Y0051873D01*
X0311203Y0051932D01*
X0311070Y0051987D01*
X0310935Y0052039D01*
X0310800Y0052087D01*
X0310662Y0052131D01*
X0310524Y0052172D01*
X0310385Y0052209D01*
X0310244Y0052242D01*
X0310103Y0052271D01*
X0309961Y0052297D01*
X0309819Y0052318D01*
X0309676Y0052336D01*
X0309532Y0052349D01*
X0309388Y0052359D01*
X0309244Y0052365D01*
X0309100Y0052367D01*
X0102100Y0052367D01*
X0101957Y0052365D01*
X0101813Y0052359D01*
X0101670Y0052350D01*
X0101528Y0052336D01*
X0101385Y0052319D01*
X0101243Y0052297D01*
X0101102Y0052272D01*
X0100962Y0052243D01*
X0100822Y0052211D01*
X0100683Y0052174D01*
X0100546Y0052134D01*
X0100409Y0052090D01*
X0100274Y0052043D01*
X0100140Y0051991D01*
X0100007Y0051937D01*
X0099877Y0051878D01*
X0099747Y0051816D01*
X0099620Y0051751D01*
X0099494Y0051682D01*
X0099370Y0051610D01*
X0099248Y0051534D01*
X0099128Y0051456D01*
X0099010Y0051374D01*
X0098895Y0051288D01*
X0098782Y0051200D01*
X0098671Y0051109D01*
X0098563Y0051015D01*
X0098458Y0050918D01*
X0098355Y0050818D01*
X0098255Y0050715D01*
X0098158Y0050610D01*
X0098063Y0050502D01*
X0097972Y0050391D01*
X0097883Y0050278D01*
X0097798Y0050163D01*
X0097716Y0050046D01*
X0097637Y0049926D01*
X0097561Y0049804D01*
X0097489Y0049680D01*
X0097420Y0049555D01*
X0097354Y0049427D01*
X0097292Y0049298D01*
X0097233Y0049167D01*
X0097178Y0049035D01*
X0097127Y0048901D01*
X0097079Y0048766D01*
X0097035Y0048629D01*
X0096994Y0048492D01*
X0096958Y0048353D01*
X0096925Y0048213D01*
X0096896Y0048073D01*
X0096870Y0047932D01*
X0096849Y0047790D01*
X0096831Y0047648D01*
X0096817Y0047505D01*
X0096807Y0047362D01*
X0096801Y0047219D01*
X0096799Y0047075D01*
X0096801Y0046932D01*
X0096806Y0046789D01*
X0096816Y0046646D01*
X0096829Y0046503D01*
X0096846Y0046360D01*
X0096867Y0046219D01*
X0096892Y0046077D01*
X0096921Y0045937D01*
X0306100Y0021367D02*
X0306245Y0021369D01*
X0306391Y0021375D01*
X0306536Y0021385D01*
X0306680Y0021399D01*
X0306825Y0021417D01*
X0306968Y0021439D01*
X0307111Y0021464D01*
X0307254Y0021494D01*
X0307395Y0021528D01*
X0307535Y0021565D01*
X0307675Y0021606D01*
X0307813Y0021651D01*
X0307950Y0021700D01*
X0308085Y0021753D01*
X0308219Y0021809D01*
X0308352Y0021869D01*
X0308483Y0021933D01*
X0308611Y0022000D01*
X0308739Y0022070D01*
X0308864Y0022145D01*
X0308987Y0022222D01*
X0309107Y0022303D01*
X0309226Y0022387D01*
X0309342Y0022474D01*
X0309456Y0022565D01*
X0309567Y0022658D01*
X0309676Y0022755D01*
X0309782Y0022854D01*
X0309885Y0022957D01*
X0309985Y0023062D01*
X0310083Y0023170D01*
X0310177Y0023280D01*
X0310268Y0023394D01*
X0310356Y0023509D01*
X0310441Y0023627D01*
X0310523Y0023747D01*
X0310602Y0023870D01*
X0310677Y0023994D01*
X0310748Y0024121D01*
X0310816Y0024249D01*
X0310881Y0024379D01*
X0310942Y0024511D01*
X0310999Y0024645D01*
X0311053Y0024780D01*
X0311103Y0024916D01*
X0311149Y0025054D01*
X0311191Y0025193D01*
X0311230Y0025334D01*
X0321600Y0012367D02*
X0331600Y0012367D01*
X0324100Y0036867D02*
X0324102Y0037028D01*
X0324108Y0037188D01*
X0324118Y0037349D01*
X0324132Y0037509D01*
X0324150Y0037669D01*
X0324171Y0037828D01*
X0324197Y0037987D01*
X0324227Y0038145D01*
X0324260Y0038302D01*
X0324298Y0038459D01*
X0324339Y0038614D01*
X0324384Y0038768D01*
X0324433Y0038921D01*
X0324486Y0039073D01*
X0324542Y0039224D01*
X0324603Y0039373D01*
X0324666Y0039521D01*
X0324734Y0039667D01*
X0324805Y0039811D01*
X0324879Y0039953D01*
X0324957Y0040094D01*
X0325039Y0040232D01*
X0325124Y0040369D01*
X0325212Y0040503D01*
X0325304Y0040635D01*
X0325399Y0040765D01*
X0325497Y0040893D01*
X0325598Y0041018D01*
X0325702Y0041140D01*
X0325809Y0041260D01*
X0325919Y0041377D01*
X0326032Y0041492D01*
X0326148Y0041603D01*
X0326267Y0041712D01*
X0326388Y0041817D01*
X0326512Y0041920D01*
X0326638Y0042020D01*
X0326766Y0042116D01*
X0326897Y0042209D01*
X0327031Y0042299D01*
X0327166Y0042386D01*
X0327304Y0042469D01*
X0327443Y0042549D01*
X0327585Y0042625D01*
X0327728Y0042698D01*
X0327873Y0042767D01*
X0328020Y0042833D01*
X0328168Y0042895D01*
X0328318Y0042953D01*
X0328469Y0043008D01*
X0328622Y0043059D01*
X0328776Y0043106D01*
X0328931Y0043149D01*
X0329087Y0043188D01*
X0329243Y0043224D01*
X0329401Y0043255D01*
X0329559Y0043283D01*
X0329718Y0043307D01*
X0329878Y0043327D01*
X0330038Y0043343D01*
X0330198Y0043355D01*
X0330359Y0043363D01*
X0330520Y0043367D01*
X0330680Y0043367D01*
X0330841Y0043363D01*
X0331002Y0043355D01*
X0331162Y0043343D01*
X0331322Y0043327D01*
X0331482Y0043307D01*
X0331641Y0043283D01*
X0331799Y0043255D01*
X0331957Y0043224D01*
X0332113Y0043188D01*
X0332269Y0043149D01*
X0332424Y0043106D01*
X0332578Y0043059D01*
X0332731Y0043008D01*
X0332882Y0042953D01*
X0333032Y0042895D01*
X0333180Y0042833D01*
X0333327Y0042767D01*
X0333472Y0042698D01*
X0333615Y0042625D01*
X0333757Y0042549D01*
X0333896Y0042469D01*
X0334034Y0042386D01*
X0334169Y0042299D01*
X0334303Y0042209D01*
X0334434Y0042116D01*
X0334562Y0042020D01*
X0334688Y0041920D01*
X0334812Y0041817D01*
X0334933Y0041712D01*
X0335052Y0041603D01*
X0335168Y0041492D01*
X0335281Y0041377D01*
X0335391Y0041260D01*
X0335498Y0041140D01*
X0335602Y0041018D01*
X0335703Y0040893D01*
X0335801Y0040765D01*
X0335896Y0040635D01*
X0335988Y0040503D01*
X0336076Y0040369D01*
X0336161Y0040232D01*
X0336243Y0040094D01*
X0336321Y0039953D01*
X0336395Y0039811D01*
X0336466Y0039667D01*
X0336534Y0039521D01*
X0336597Y0039373D01*
X0336658Y0039224D01*
X0336714Y0039073D01*
X0336767Y0038921D01*
X0336816Y0038768D01*
X0336861Y0038614D01*
X0336902Y0038459D01*
X0336940Y0038302D01*
X0336973Y0038145D01*
X0337003Y0037987D01*
X0337029Y0037828D01*
X0337050Y0037669D01*
X0337068Y0037509D01*
X0337082Y0037349D01*
X0337092Y0037188D01*
X0337098Y0037028D01*
X0337100Y0036867D01*
X0337098Y0036706D01*
X0337092Y0036546D01*
X0337082Y0036385D01*
X0337068Y0036225D01*
X0337050Y0036065D01*
X0337029Y0035906D01*
X0337003Y0035747D01*
X0336973Y0035589D01*
X0336940Y0035432D01*
X0336902Y0035275D01*
X0336861Y0035120D01*
X0336816Y0034966D01*
X0336767Y0034813D01*
X0336714Y0034661D01*
X0336658Y0034510D01*
X0336597Y0034361D01*
X0336534Y0034213D01*
X0336466Y0034067D01*
X0336395Y0033923D01*
X0336321Y0033781D01*
X0336243Y0033640D01*
X0336161Y0033502D01*
X0336076Y0033365D01*
X0335988Y0033231D01*
X0335896Y0033099D01*
X0335801Y0032969D01*
X0335703Y0032841D01*
X0335602Y0032716D01*
X0335498Y0032594D01*
X0335391Y0032474D01*
X0335281Y0032357D01*
X0335168Y0032242D01*
X0335052Y0032131D01*
X0334933Y0032022D01*
X0334812Y0031917D01*
X0334688Y0031814D01*
X0334562Y0031714D01*
X0334434Y0031618D01*
X0334303Y0031525D01*
X0334169Y0031435D01*
X0334034Y0031348D01*
X0333896Y0031265D01*
X0333757Y0031185D01*
X0333615Y0031109D01*
X0333472Y0031036D01*
X0333327Y0030967D01*
X0333180Y0030901D01*
X0333032Y0030839D01*
X0332882Y0030781D01*
X0332731Y0030726D01*
X0332578Y0030675D01*
X0332424Y0030628D01*
X0332269Y0030585D01*
X0332113Y0030546D01*
X0331957Y0030510D01*
X0331799Y0030479D01*
X0331641Y0030451D01*
X0331482Y0030427D01*
X0331322Y0030407D01*
X0331162Y0030391D01*
X0331002Y0030379D01*
X0330841Y0030371D01*
X0330680Y0030367D01*
X0330520Y0030367D01*
X0330359Y0030371D01*
X0330198Y0030379D01*
X0330038Y0030391D01*
X0329878Y0030407D01*
X0329718Y0030427D01*
X0329559Y0030451D01*
X0329401Y0030479D01*
X0329243Y0030510D01*
X0329087Y0030546D01*
X0328931Y0030585D01*
X0328776Y0030628D01*
X0328622Y0030675D01*
X0328469Y0030726D01*
X0328318Y0030781D01*
X0328168Y0030839D01*
X0328020Y0030901D01*
X0327873Y0030967D01*
X0327728Y0031036D01*
X0327585Y0031109D01*
X0327443Y0031185D01*
X0327304Y0031265D01*
X0327166Y0031348D01*
X0327031Y0031435D01*
X0326897Y0031525D01*
X0326766Y0031618D01*
X0326638Y0031714D01*
X0326512Y0031814D01*
X0326388Y0031917D01*
X0326267Y0032022D01*
X0326148Y0032131D01*
X0326032Y0032242D01*
X0325919Y0032357D01*
X0325809Y0032474D01*
X0325702Y0032594D01*
X0325598Y0032716D01*
X0325497Y0032841D01*
X0325399Y0032969D01*
X0325304Y0033099D01*
X0325212Y0033231D01*
X0325124Y0033365D01*
X0325039Y0033502D01*
X0324957Y0033640D01*
X0324879Y0033781D01*
X0324805Y0033923D01*
X0324734Y0034067D01*
X0324666Y0034213D01*
X0324603Y0034361D01*
X0324542Y0034510D01*
X0324486Y0034661D01*
X0324433Y0034813D01*
X0324384Y0034966D01*
X0324339Y0035120D01*
X0324298Y0035275D01*
X0324260Y0035432D01*
X0324227Y0035589D01*
X0324197Y0035747D01*
X0324171Y0035906D01*
X0324150Y0036065D01*
X0324132Y0036225D01*
X0324118Y0036385D01*
X0324108Y0036546D01*
X0324102Y0036706D01*
X0324100Y0036867D01*
D12*
X0300400Y0042467D02*
X0300402Y0042576D01*
X0300408Y0042685D01*
X0300418Y0042793D01*
X0300432Y0042901D01*
X0300449Y0043009D01*
X0300471Y0043116D01*
X0300496Y0043222D01*
X0300526Y0043326D01*
X0300559Y0043430D01*
X0300596Y0043533D01*
X0300636Y0043634D01*
X0300680Y0043733D01*
X0300728Y0043831D01*
X0300780Y0043928D01*
X0300834Y0044022D01*
X0300892Y0044114D01*
X0300954Y0044204D01*
X0301019Y0044291D01*
X0301086Y0044377D01*
X0301157Y0044460D01*
X0301231Y0044540D01*
X0301308Y0044617D01*
X0301387Y0044692D01*
X0301469Y0044763D01*
X0301554Y0044832D01*
X0301641Y0044897D01*
X0301730Y0044960D01*
X0301822Y0045018D01*
X0301916Y0045074D01*
X0302011Y0045126D01*
X0302109Y0045175D01*
X0302208Y0045220D01*
X0302309Y0045262D01*
X0302411Y0045299D01*
X0302514Y0045333D01*
X0302619Y0045364D01*
X0302725Y0045390D01*
X0302831Y0045413D01*
X0302939Y0045431D01*
X0303047Y0045446D01*
X0303155Y0045457D01*
X0303264Y0045464D01*
X0303373Y0045467D01*
X0303482Y0045466D01*
X0303591Y0045461D01*
X0303699Y0045452D01*
X0303807Y0045439D01*
X0303915Y0045422D01*
X0304022Y0045402D01*
X0304128Y0045377D01*
X0304233Y0045349D01*
X0304337Y0045317D01*
X0304440Y0045281D01*
X0304542Y0045241D01*
X0304642Y0045198D01*
X0304740Y0045151D01*
X0304837Y0045101D01*
X0304931Y0045047D01*
X0305024Y0044989D01*
X0305115Y0044929D01*
X0305203Y0044865D01*
X0305289Y0044798D01*
X0305372Y0044728D01*
X0305453Y0044655D01*
X0305531Y0044579D01*
X0305606Y0044500D01*
X0305679Y0044418D01*
X0305748Y0044334D01*
X0305814Y0044248D01*
X0305877Y0044159D01*
X0305937Y0044068D01*
X0305994Y0043975D01*
X0306047Y0043880D01*
X0306096Y0043783D01*
X0306142Y0043684D01*
X0306184Y0043584D01*
X0306223Y0043482D01*
X0306258Y0043378D01*
X0306289Y0043274D01*
X0306317Y0043169D01*
X0306340Y0043062D01*
X0306360Y0042955D01*
X0306376Y0042847D01*
X0306388Y0042739D01*
X0306396Y0042630D01*
X0306400Y0042521D01*
X0306400Y0042413D01*
X0306396Y0042304D01*
X0306388Y0042195D01*
X0306376Y0042087D01*
X0306360Y0041979D01*
X0306340Y0041872D01*
X0306317Y0041765D01*
X0306289Y0041660D01*
X0306258Y0041556D01*
X0306223Y0041452D01*
X0306184Y0041350D01*
X0306142Y0041250D01*
X0306096Y0041151D01*
X0306047Y0041054D01*
X0305994Y0040959D01*
X0305937Y0040866D01*
X0305877Y0040775D01*
X0305814Y0040686D01*
X0305748Y0040600D01*
X0305679Y0040516D01*
X0305606Y0040434D01*
X0305531Y0040355D01*
X0305453Y0040279D01*
X0305372Y0040206D01*
X0305289Y0040136D01*
X0305203Y0040069D01*
X0305115Y0040005D01*
X0305024Y0039945D01*
X0304931Y0039887D01*
X0304837Y0039833D01*
X0304740Y0039783D01*
X0304642Y0039736D01*
X0304542Y0039693D01*
X0304440Y0039653D01*
X0304337Y0039617D01*
X0304233Y0039585D01*
X0304128Y0039557D01*
X0304022Y0039532D01*
X0303915Y0039512D01*
X0303807Y0039495D01*
X0303699Y0039482D01*
X0303591Y0039473D01*
X0303482Y0039468D01*
X0303373Y0039467D01*
X0303264Y0039470D01*
X0303155Y0039477D01*
X0303047Y0039488D01*
X0302939Y0039503D01*
X0302831Y0039521D01*
X0302725Y0039544D01*
X0302619Y0039570D01*
X0302514Y0039601D01*
X0302411Y0039635D01*
X0302309Y0039672D01*
X0302208Y0039714D01*
X0302109Y0039759D01*
X0302011Y0039808D01*
X0301916Y0039860D01*
X0301822Y0039916D01*
X0301730Y0039974D01*
X0301641Y0040037D01*
X0301554Y0040102D01*
X0301469Y0040171D01*
X0301387Y0040242D01*
X0301308Y0040317D01*
X0301231Y0040394D01*
X0301157Y0040474D01*
X0301086Y0040557D01*
X0301019Y0040643D01*
X0300954Y0040730D01*
X0300892Y0040820D01*
X0300834Y0040912D01*
X0300780Y0041006D01*
X0300728Y0041103D01*
X0300680Y0041201D01*
X0300636Y0041300D01*
X0300596Y0041401D01*
X0300559Y0041504D01*
X0300526Y0041608D01*
X0300496Y0041712D01*
X0300471Y0041818D01*
X0300449Y0041925D01*
X0300432Y0042033D01*
X0300418Y0042141D01*
X0300408Y0042249D01*
X0300402Y0042358D01*
X0300400Y0042467D01*
X0289500Y0042467D02*
X0289502Y0042576D01*
X0289508Y0042685D01*
X0289518Y0042793D01*
X0289532Y0042901D01*
X0289549Y0043009D01*
X0289571Y0043116D01*
X0289596Y0043222D01*
X0289626Y0043326D01*
X0289659Y0043430D01*
X0289696Y0043533D01*
X0289736Y0043634D01*
X0289780Y0043733D01*
X0289828Y0043831D01*
X0289880Y0043928D01*
X0289934Y0044022D01*
X0289992Y0044114D01*
X0290054Y0044204D01*
X0290119Y0044291D01*
X0290186Y0044377D01*
X0290257Y0044460D01*
X0290331Y0044540D01*
X0290408Y0044617D01*
X0290487Y0044692D01*
X0290569Y0044763D01*
X0290654Y0044832D01*
X0290741Y0044897D01*
X0290830Y0044960D01*
X0290922Y0045018D01*
X0291016Y0045074D01*
X0291111Y0045126D01*
X0291209Y0045175D01*
X0291308Y0045220D01*
X0291409Y0045262D01*
X0291511Y0045299D01*
X0291614Y0045333D01*
X0291719Y0045364D01*
X0291825Y0045390D01*
X0291931Y0045413D01*
X0292039Y0045431D01*
X0292147Y0045446D01*
X0292255Y0045457D01*
X0292364Y0045464D01*
X0292473Y0045467D01*
X0292582Y0045466D01*
X0292691Y0045461D01*
X0292799Y0045452D01*
X0292907Y0045439D01*
X0293015Y0045422D01*
X0293122Y0045402D01*
X0293228Y0045377D01*
X0293333Y0045349D01*
X0293437Y0045317D01*
X0293540Y0045281D01*
X0293642Y0045241D01*
X0293742Y0045198D01*
X0293840Y0045151D01*
X0293937Y0045101D01*
X0294031Y0045047D01*
X0294124Y0044989D01*
X0294215Y0044929D01*
X0294303Y0044865D01*
X0294389Y0044798D01*
X0294472Y0044728D01*
X0294553Y0044655D01*
X0294631Y0044579D01*
X0294706Y0044500D01*
X0294779Y0044418D01*
X0294848Y0044334D01*
X0294914Y0044248D01*
X0294977Y0044159D01*
X0295037Y0044068D01*
X0295094Y0043975D01*
X0295147Y0043880D01*
X0295196Y0043783D01*
X0295242Y0043684D01*
X0295284Y0043584D01*
X0295323Y0043482D01*
X0295358Y0043378D01*
X0295389Y0043274D01*
X0295417Y0043169D01*
X0295440Y0043062D01*
X0295460Y0042955D01*
X0295476Y0042847D01*
X0295488Y0042739D01*
X0295496Y0042630D01*
X0295500Y0042521D01*
X0295500Y0042413D01*
X0295496Y0042304D01*
X0295488Y0042195D01*
X0295476Y0042087D01*
X0295460Y0041979D01*
X0295440Y0041872D01*
X0295417Y0041765D01*
X0295389Y0041660D01*
X0295358Y0041556D01*
X0295323Y0041452D01*
X0295284Y0041350D01*
X0295242Y0041250D01*
X0295196Y0041151D01*
X0295147Y0041054D01*
X0295094Y0040959D01*
X0295037Y0040866D01*
X0294977Y0040775D01*
X0294914Y0040686D01*
X0294848Y0040600D01*
X0294779Y0040516D01*
X0294706Y0040434D01*
X0294631Y0040355D01*
X0294553Y0040279D01*
X0294472Y0040206D01*
X0294389Y0040136D01*
X0294303Y0040069D01*
X0294215Y0040005D01*
X0294124Y0039945D01*
X0294031Y0039887D01*
X0293937Y0039833D01*
X0293840Y0039783D01*
X0293742Y0039736D01*
X0293642Y0039693D01*
X0293540Y0039653D01*
X0293437Y0039617D01*
X0293333Y0039585D01*
X0293228Y0039557D01*
X0293122Y0039532D01*
X0293015Y0039512D01*
X0292907Y0039495D01*
X0292799Y0039482D01*
X0292691Y0039473D01*
X0292582Y0039468D01*
X0292473Y0039467D01*
X0292364Y0039470D01*
X0292255Y0039477D01*
X0292147Y0039488D01*
X0292039Y0039503D01*
X0291931Y0039521D01*
X0291825Y0039544D01*
X0291719Y0039570D01*
X0291614Y0039601D01*
X0291511Y0039635D01*
X0291409Y0039672D01*
X0291308Y0039714D01*
X0291209Y0039759D01*
X0291111Y0039808D01*
X0291016Y0039860D01*
X0290922Y0039916D01*
X0290830Y0039974D01*
X0290741Y0040037D01*
X0290654Y0040102D01*
X0290569Y0040171D01*
X0290487Y0040242D01*
X0290408Y0040317D01*
X0290331Y0040394D01*
X0290257Y0040474D01*
X0290186Y0040557D01*
X0290119Y0040643D01*
X0290054Y0040730D01*
X0289992Y0040820D01*
X0289934Y0040912D01*
X0289880Y0041006D01*
X0289828Y0041103D01*
X0289780Y0041201D01*
X0289736Y0041300D01*
X0289696Y0041401D01*
X0289659Y0041504D01*
X0289626Y0041608D01*
X0289596Y0041712D01*
X0289571Y0041818D01*
X0289549Y0041925D01*
X0289532Y0042033D01*
X0289518Y0042141D01*
X0289508Y0042249D01*
X0289502Y0042358D01*
X0289500Y0042467D01*
X0278700Y0042467D02*
X0278702Y0042576D01*
X0278708Y0042685D01*
X0278718Y0042793D01*
X0278732Y0042901D01*
X0278749Y0043009D01*
X0278771Y0043116D01*
X0278796Y0043222D01*
X0278826Y0043326D01*
X0278859Y0043430D01*
X0278896Y0043533D01*
X0278936Y0043634D01*
X0278980Y0043733D01*
X0279028Y0043831D01*
X0279080Y0043928D01*
X0279134Y0044022D01*
X0279192Y0044114D01*
X0279254Y0044204D01*
X0279319Y0044291D01*
X0279386Y0044377D01*
X0279457Y0044460D01*
X0279531Y0044540D01*
X0279608Y0044617D01*
X0279687Y0044692D01*
X0279769Y0044763D01*
X0279854Y0044832D01*
X0279941Y0044897D01*
X0280030Y0044960D01*
X0280122Y0045018D01*
X0280216Y0045074D01*
X0280311Y0045126D01*
X0280409Y0045175D01*
X0280508Y0045220D01*
X0280609Y0045262D01*
X0280711Y0045299D01*
X0280814Y0045333D01*
X0280919Y0045364D01*
X0281025Y0045390D01*
X0281131Y0045413D01*
X0281239Y0045431D01*
X0281347Y0045446D01*
X0281455Y0045457D01*
X0281564Y0045464D01*
X0281673Y0045467D01*
X0281782Y0045466D01*
X0281891Y0045461D01*
X0281999Y0045452D01*
X0282107Y0045439D01*
X0282215Y0045422D01*
X0282322Y0045402D01*
X0282428Y0045377D01*
X0282533Y0045349D01*
X0282637Y0045317D01*
X0282740Y0045281D01*
X0282842Y0045241D01*
X0282942Y0045198D01*
X0283040Y0045151D01*
X0283137Y0045101D01*
X0283231Y0045047D01*
X0283324Y0044989D01*
X0283415Y0044929D01*
X0283503Y0044865D01*
X0283589Y0044798D01*
X0283672Y0044728D01*
X0283753Y0044655D01*
X0283831Y0044579D01*
X0283906Y0044500D01*
X0283979Y0044418D01*
X0284048Y0044334D01*
X0284114Y0044248D01*
X0284177Y0044159D01*
X0284237Y0044068D01*
X0284294Y0043975D01*
X0284347Y0043880D01*
X0284396Y0043783D01*
X0284442Y0043684D01*
X0284484Y0043584D01*
X0284523Y0043482D01*
X0284558Y0043378D01*
X0284589Y0043274D01*
X0284617Y0043169D01*
X0284640Y0043062D01*
X0284660Y0042955D01*
X0284676Y0042847D01*
X0284688Y0042739D01*
X0284696Y0042630D01*
X0284700Y0042521D01*
X0284700Y0042413D01*
X0284696Y0042304D01*
X0284688Y0042195D01*
X0284676Y0042087D01*
X0284660Y0041979D01*
X0284640Y0041872D01*
X0284617Y0041765D01*
X0284589Y0041660D01*
X0284558Y0041556D01*
X0284523Y0041452D01*
X0284484Y0041350D01*
X0284442Y0041250D01*
X0284396Y0041151D01*
X0284347Y0041054D01*
X0284294Y0040959D01*
X0284237Y0040866D01*
X0284177Y0040775D01*
X0284114Y0040686D01*
X0284048Y0040600D01*
X0283979Y0040516D01*
X0283906Y0040434D01*
X0283831Y0040355D01*
X0283753Y0040279D01*
X0283672Y0040206D01*
X0283589Y0040136D01*
X0283503Y0040069D01*
X0283415Y0040005D01*
X0283324Y0039945D01*
X0283231Y0039887D01*
X0283137Y0039833D01*
X0283040Y0039783D01*
X0282942Y0039736D01*
X0282842Y0039693D01*
X0282740Y0039653D01*
X0282637Y0039617D01*
X0282533Y0039585D01*
X0282428Y0039557D01*
X0282322Y0039532D01*
X0282215Y0039512D01*
X0282107Y0039495D01*
X0281999Y0039482D01*
X0281891Y0039473D01*
X0281782Y0039468D01*
X0281673Y0039467D01*
X0281564Y0039470D01*
X0281455Y0039477D01*
X0281347Y0039488D01*
X0281239Y0039503D01*
X0281131Y0039521D01*
X0281025Y0039544D01*
X0280919Y0039570D01*
X0280814Y0039601D01*
X0280711Y0039635D01*
X0280609Y0039672D01*
X0280508Y0039714D01*
X0280409Y0039759D01*
X0280311Y0039808D01*
X0280216Y0039860D01*
X0280122Y0039916D01*
X0280030Y0039974D01*
X0279941Y0040037D01*
X0279854Y0040102D01*
X0279769Y0040171D01*
X0279687Y0040242D01*
X0279608Y0040317D01*
X0279531Y0040394D01*
X0279457Y0040474D01*
X0279386Y0040557D01*
X0279319Y0040643D01*
X0279254Y0040730D01*
X0279192Y0040820D01*
X0279134Y0040912D01*
X0279080Y0041006D01*
X0279028Y0041103D01*
X0278980Y0041201D01*
X0278936Y0041300D01*
X0278896Y0041401D01*
X0278859Y0041504D01*
X0278826Y0041608D01*
X0278796Y0041712D01*
X0278771Y0041818D01*
X0278749Y0041925D01*
X0278732Y0042033D01*
X0278718Y0042141D01*
X0278708Y0042249D01*
X0278702Y0042358D01*
X0278700Y0042467D01*
X0267800Y0042467D02*
X0267802Y0042576D01*
X0267808Y0042685D01*
X0267818Y0042793D01*
X0267832Y0042901D01*
X0267849Y0043009D01*
X0267871Y0043116D01*
X0267896Y0043222D01*
X0267926Y0043326D01*
X0267959Y0043430D01*
X0267996Y0043533D01*
X0268036Y0043634D01*
X0268080Y0043733D01*
X0268128Y0043831D01*
X0268180Y0043928D01*
X0268234Y0044022D01*
X0268292Y0044114D01*
X0268354Y0044204D01*
X0268419Y0044291D01*
X0268486Y0044377D01*
X0268557Y0044460D01*
X0268631Y0044540D01*
X0268708Y0044617D01*
X0268787Y0044692D01*
X0268869Y0044763D01*
X0268954Y0044832D01*
X0269041Y0044897D01*
X0269130Y0044960D01*
X0269222Y0045018D01*
X0269316Y0045074D01*
X0269411Y0045126D01*
X0269509Y0045175D01*
X0269608Y0045220D01*
X0269709Y0045262D01*
X0269811Y0045299D01*
X0269914Y0045333D01*
X0270019Y0045364D01*
X0270125Y0045390D01*
X0270231Y0045413D01*
X0270339Y0045431D01*
X0270447Y0045446D01*
X0270555Y0045457D01*
X0270664Y0045464D01*
X0270773Y0045467D01*
X0270882Y0045466D01*
X0270991Y0045461D01*
X0271099Y0045452D01*
X0271207Y0045439D01*
X0271315Y0045422D01*
X0271422Y0045402D01*
X0271528Y0045377D01*
X0271633Y0045349D01*
X0271737Y0045317D01*
X0271840Y0045281D01*
X0271942Y0045241D01*
X0272042Y0045198D01*
X0272140Y0045151D01*
X0272237Y0045101D01*
X0272331Y0045047D01*
X0272424Y0044989D01*
X0272515Y0044929D01*
X0272603Y0044865D01*
X0272689Y0044798D01*
X0272772Y0044728D01*
X0272853Y0044655D01*
X0272931Y0044579D01*
X0273006Y0044500D01*
X0273079Y0044418D01*
X0273148Y0044334D01*
X0273214Y0044248D01*
X0273277Y0044159D01*
X0273337Y0044068D01*
X0273394Y0043975D01*
X0273447Y0043880D01*
X0273496Y0043783D01*
X0273542Y0043684D01*
X0273584Y0043584D01*
X0273623Y0043482D01*
X0273658Y0043378D01*
X0273689Y0043274D01*
X0273717Y0043169D01*
X0273740Y0043062D01*
X0273760Y0042955D01*
X0273776Y0042847D01*
X0273788Y0042739D01*
X0273796Y0042630D01*
X0273800Y0042521D01*
X0273800Y0042413D01*
X0273796Y0042304D01*
X0273788Y0042195D01*
X0273776Y0042087D01*
X0273760Y0041979D01*
X0273740Y0041872D01*
X0273717Y0041765D01*
X0273689Y0041660D01*
X0273658Y0041556D01*
X0273623Y0041452D01*
X0273584Y0041350D01*
X0273542Y0041250D01*
X0273496Y0041151D01*
X0273447Y0041054D01*
X0273394Y0040959D01*
X0273337Y0040866D01*
X0273277Y0040775D01*
X0273214Y0040686D01*
X0273148Y0040600D01*
X0273079Y0040516D01*
X0273006Y0040434D01*
X0272931Y0040355D01*
X0272853Y0040279D01*
X0272772Y0040206D01*
X0272689Y0040136D01*
X0272603Y0040069D01*
X0272515Y0040005D01*
X0272424Y0039945D01*
X0272331Y0039887D01*
X0272237Y0039833D01*
X0272140Y0039783D01*
X0272042Y0039736D01*
X0271942Y0039693D01*
X0271840Y0039653D01*
X0271737Y0039617D01*
X0271633Y0039585D01*
X0271528Y0039557D01*
X0271422Y0039532D01*
X0271315Y0039512D01*
X0271207Y0039495D01*
X0271099Y0039482D01*
X0270991Y0039473D01*
X0270882Y0039468D01*
X0270773Y0039467D01*
X0270664Y0039470D01*
X0270555Y0039477D01*
X0270447Y0039488D01*
X0270339Y0039503D01*
X0270231Y0039521D01*
X0270125Y0039544D01*
X0270019Y0039570D01*
X0269914Y0039601D01*
X0269811Y0039635D01*
X0269709Y0039672D01*
X0269608Y0039714D01*
X0269509Y0039759D01*
X0269411Y0039808D01*
X0269316Y0039860D01*
X0269222Y0039916D01*
X0269130Y0039974D01*
X0269041Y0040037D01*
X0268954Y0040102D01*
X0268869Y0040171D01*
X0268787Y0040242D01*
X0268708Y0040317D01*
X0268631Y0040394D01*
X0268557Y0040474D01*
X0268486Y0040557D01*
X0268419Y0040643D01*
X0268354Y0040730D01*
X0268292Y0040820D01*
X0268234Y0040912D01*
X0268180Y0041006D01*
X0268128Y0041103D01*
X0268080Y0041201D01*
X0268036Y0041300D01*
X0267996Y0041401D01*
X0267959Y0041504D01*
X0267926Y0041608D01*
X0267896Y0041712D01*
X0267871Y0041818D01*
X0267849Y0041925D01*
X0267832Y0042033D01*
X0267818Y0042141D01*
X0267808Y0042249D01*
X0267802Y0042358D01*
X0267800Y0042467D01*
X0256900Y0042467D02*
X0256902Y0042576D01*
X0256908Y0042685D01*
X0256918Y0042793D01*
X0256932Y0042901D01*
X0256949Y0043009D01*
X0256971Y0043116D01*
X0256996Y0043222D01*
X0257026Y0043326D01*
X0257059Y0043430D01*
X0257096Y0043533D01*
X0257136Y0043634D01*
X0257180Y0043733D01*
X0257228Y0043831D01*
X0257280Y0043928D01*
X0257334Y0044022D01*
X0257392Y0044114D01*
X0257454Y0044204D01*
X0257519Y0044291D01*
X0257586Y0044377D01*
X0257657Y0044460D01*
X0257731Y0044540D01*
X0257808Y0044617D01*
X0257887Y0044692D01*
X0257969Y0044763D01*
X0258054Y0044832D01*
X0258141Y0044897D01*
X0258230Y0044960D01*
X0258322Y0045018D01*
X0258416Y0045074D01*
X0258511Y0045126D01*
X0258609Y0045175D01*
X0258708Y0045220D01*
X0258809Y0045262D01*
X0258911Y0045299D01*
X0259014Y0045333D01*
X0259119Y0045364D01*
X0259225Y0045390D01*
X0259331Y0045413D01*
X0259439Y0045431D01*
X0259547Y0045446D01*
X0259655Y0045457D01*
X0259764Y0045464D01*
X0259873Y0045467D01*
X0259982Y0045466D01*
X0260091Y0045461D01*
X0260199Y0045452D01*
X0260307Y0045439D01*
X0260415Y0045422D01*
X0260522Y0045402D01*
X0260628Y0045377D01*
X0260733Y0045349D01*
X0260837Y0045317D01*
X0260940Y0045281D01*
X0261042Y0045241D01*
X0261142Y0045198D01*
X0261240Y0045151D01*
X0261337Y0045101D01*
X0261431Y0045047D01*
X0261524Y0044989D01*
X0261615Y0044929D01*
X0261703Y0044865D01*
X0261789Y0044798D01*
X0261872Y0044728D01*
X0261953Y0044655D01*
X0262031Y0044579D01*
X0262106Y0044500D01*
X0262179Y0044418D01*
X0262248Y0044334D01*
X0262314Y0044248D01*
X0262377Y0044159D01*
X0262437Y0044068D01*
X0262494Y0043975D01*
X0262547Y0043880D01*
X0262596Y0043783D01*
X0262642Y0043684D01*
X0262684Y0043584D01*
X0262723Y0043482D01*
X0262758Y0043378D01*
X0262789Y0043274D01*
X0262817Y0043169D01*
X0262840Y0043062D01*
X0262860Y0042955D01*
X0262876Y0042847D01*
X0262888Y0042739D01*
X0262896Y0042630D01*
X0262900Y0042521D01*
X0262900Y0042413D01*
X0262896Y0042304D01*
X0262888Y0042195D01*
X0262876Y0042087D01*
X0262860Y0041979D01*
X0262840Y0041872D01*
X0262817Y0041765D01*
X0262789Y0041660D01*
X0262758Y0041556D01*
X0262723Y0041452D01*
X0262684Y0041350D01*
X0262642Y0041250D01*
X0262596Y0041151D01*
X0262547Y0041054D01*
X0262494Y0040959D01*
X0262437Y0040866D01*
X0262377Y0040775D01*
X0262314Y0040686D01*
X0262248Y0040600D01*
X0262179Y0040516D01*
X0262106Y0040434D01*
X0262031Y0040355D01*
X0261953Y0040279D01*
X0261872Y0040206D01*
X0261789Y0040136D01*
X0261703Y0040069D01*
X0261615Y0040005D01*
X0261524Y0039945D01*
X0261431Y0039887D01*
X0261337Y0039833D01*
X0261240Y0039783D01*
X0261142Y0039736D01*
X0261042Y0039693D01*
X0260940Y0039653D01*
X0260837Y0039617D01*
X0260733Y0039585D01*
X0260628Y0039557D01*
X0260522Y0039532D01*
X0260415Y0039512D01*
X0260307Y0039495D01*
X0260199Y0039482D01*
X0260091Y0039473D01*
X0259982Y0039468D01*
X0259873Y0039467D01*
X0259764Y0039470D01*
X0259655Y0039477D01*
X0259547Y0039488D01*
X0259439Y0039503D01*
X0259331Y0039521D01*
X0259225Y0039544D01*
X0259119Y0039570D01*
X0259014Y0039601D01*
X0258911Y0039635D01*
X0258809Y0039672D01*
X0258708Y0039714D01*
X0258609Y0039759D01*
X0258511Y0039808D01*
X0258416Y0039860D01*
X0258322Y0039916D01*
X0258230Y0039974D01*
X0258141Y0040037D01*
X0258054Y0040102D01*
X0257969Y0040171D01*
X0257887Y0040242D01*
X0257808Y0040317D01*
X0257731Y0040394D01*
X0257657Y0040474D01*
X0257586Y0040557D01*
X0257519Y0040643D01*
X0257454Y0040730D01*
X0257392Y0040820D01*
X0257334Y0040912D01*
X0257280Y0041006D01*
X0257228Y0041103D01*
X0257180Y0041201D01*
X0257136Y0041300D01*
X0257096Y0041401D01*
X0257059Y0041504D01*
X0257026Y0041608D01*
X0256996Y0041712D01*
X0256971Y0041818D01*
X0256949Y0041925D01*
X0256932Y0042033D01*
X0256918Y0042141D01*
X0256908Y0042249D01*
X0256902Y0042358D01*
X0256900Y0042467D01*
X0246100Y0042467D02*
X0246102Y0042576D01*
X0246108Y0042685D01*
X0246118Y0042793D01*
X0246132Y0042901D01*
X0246149Y0043009D01*
X0246171Y0043116D01*
X0246196Y0043222D01*
X0246226Y0043326D01*
X0246259Y0043430D01*
X0246296Y0043533D01*
X0246336Y0043634D01*
X0246380Y0043733D01*
X0246428Y0043831D01*
X0246480Y0043928D01*
X0246534Y0044022D01*
X0246592Y0044114D01*
X0246654Y0044204D01*
X0246719Y0044291D01*
X0246786Y0044377D01*
X0246857Y0044460D01*
X0246931Y0044540D01*
X0247008Y0044617D01*
X0247087Y0044692D01*
X0247169Y0044763D01*
X0247254Y0044832D01*
X0247341Y0044897D01*
X0247430Y0044960D01*
X0247522Y0045018D01*
X0247616Y0045074D01*
X0247711Y0045126D01*
X0247809Y0045175D01*
X0247908Y0045220D01*
X0248009Y0045262D01*
X0248111Y0045299D01*
X0248214Y0045333D01*
X0248319Y0045364D01*
X0248425Y0045390D01*
X0248531Y0045413D01*
X0248639Y0045431D01*
X0248747Y0045446D01*
X0248855Y0045457D01*
X0248964Y0045464D01*
X0249073Y0045467D01*
X0249182Y0045466D01*
X0249291Y0045461D01*
X0249399Y0045452D01*
X0249507Y0045439D01*
X0249615Y0045422D01*
X0249722Y0045402D01*
X0249828Y0045377D01*
X0249933Y0045349D01*
X0250037Y0045317D01*
X0250140Y0045281D01*
X0250242Y0045241D01*
X0250342Y0045198D01*
X0250440Y0045151D01*
X0250537Y0045101D01*
X0250631Y0045047D01*
X0250724Y0044989D01*
X0250815Y0044929D01*
X0250903Y0044865D01*
X0250989Y0044798D01*
X0251072Y0044728D01*
X0251153Y0044655D01*
X0251231Y0044579D01*
X0251306Y0044500D01*
X0251379Y0044418D01*
X0251448Y0044334D01*
X0251514Y0044248D01*
X0251577Y0044159D01*
X0251637Y0044068D01*
X0251694Y0043975D01*
X0251747Y0043880D01*
X0251796Y0043783D01*
X0251842Y0043684D01*
X0251884Y0043584D01*
X0251923Y0043482D01*
X0251958Y0043378D01*
X0251989Y0043274D01*
X0252017Y0043169D01*
X0252040Y0043062D01*
X0252060Y0042955D01*
X0252076Y0042847D01*
X0252088Y0042739D01*
X0252096Y0042630D01*
X0252100Y0042521D01*
X0252100Y0042413D01*
X0252096Y0042304D01*
X0252088Y0042195D01*
X0252076Y0042087D01*
X0252060Y0041979D01*
X0252040Y0041872D01*
X0252017Y0041765D01*
X0251989Y0041660D01*
X0251958Y0041556D01*
X0251923Y0041452D01*
X0251884Y0041350D01*
X0251842Y0041250D01*
X0251796Y0041151D01*
X0251747Y0041054D01*
X0251694Y0040959D01*
X0251637Y0040866D01*
X0251577Y0040775D01*
X0251514Y0040686D01*
X0251448Y0040600D01*
X0251379Y0040516D01*
X0251306Y0040434D01*
X0251231Y0040355D01*
X0251153Y0040279D01*
X0251072Y0040206D01*
X0250989Y0040136D01*
X0250903Y0040069D01*
X0250815Y0040005D01*
X0250724Y0039945D01*
X0250631Y0039887D01*
X0250537Y0039833D01*
X0250440Y0039783D01*
X0250342Y0039736D01*
X0250242Y0039693D01*
X0250140Y0039653D01*
X0250037Y0039617D01*
X0249933Y0039585D01*
X0249828Y0039557D01*
X0249722Y0039532D01*
X0249615Y0039512D01*
X0249507Y0039495D01*
X0249399Y0039482D01*
X0249291Y0039473D01*
X0249182Y0039468D01*
X0249073Y0039467D01*
X0248964Y0039470D01*
X0248855Y0039477D01*
X0248747Y0039488D01*
X0248639Y0039503D01*
X0248531Y0039521D01*
X0248425Y0039544D01*
X0248319Y0039570D01*
X0248214Y0039601D01*
X0248111Y0039635D01*
X0248009Y0039672D01*
X0247908Y0039714D01*
X0247809Y0039759D01*
X0247711Y0039808D01*
X0247616Y0039860D01*
X0247522Y0039916D01*
X0247430Y0039974D01*
X0247341Y0040037D01*
X0247254Y0040102D01*
X0247169Y0040171D01*
X0247087Y0040242D01*
X0247008Y0040317D01*
X0246931Y0040394D01*
X0246857Y0040474D01*
X0246786Y0040557D01*
X0246719Y0040643D01*
X0246654Y0040730D01*
X0246592Y0040820D01*
X0246534Y0040912D01*
X0246480Y0041006D01*
X0246428Y0041103D01*
X0246380Y0041201D01*
X0246336Y0041300D01*
X0246296Y0041401D01*
X0246259Y0041504D01*
X0246226Y0041608D01*
X0246196Y0041712D01*
X0246171Y0041818D01*
X0246149Y0041925D01*
X0246132Y0042033D01*
X0246118Y0042141D01*
X0246108Y0042249D01*
X0246102Y0042358D01*
X0246100Y0042467D01*
X0235200Y0042467D02*
X0235202Y0042576D01*
X0235208Y0042685D01*
X0235218Y0042793D01*
X0235232Y0042901D01*
X0235249Y0043009D01*
X0235271Y0043116D01*
X0235296Y0043222D01*
X0235326Y0043326D01*
X0235359Y0043430D01*
X0235396Y0043533D01*
X0235436Y0043634D01*
X0235480Y0043733D01*
X0235528Y0043831D01*
X0235580Y0043928D01*
X0235634Y0044022D01*
X0235692Y0044114D01*
X0235754Y0044204D01*
X0235819Y0044291D01*
X0235886Y0044377D01*
X0235957Y0044460D01*
X0236031Y0044540D01*
X0236108Y0044617D01*
X0236187Y0044692D01*
X0236269Y0044763D01*
X0236354Y0044832D01*
X0236441Y0044897D01*
X0236530Y0044960D01*
X0236622Y0045018D01*
X0236716Y0045074D01*
X0236811Y0045126D01*
X0236909Y0045175D01*
X0237008Y0045220D01*
X0237109Y0045262D01*
X0237211Y0045299D01*
X0237314Y0045333D01*
X0237419Y0045364D01*
X0237525Y0045390D01*
X0237631Y0045413D01*
X0237739Y0045431D01*
X0237847Y0045446D01*
X0237955Y0045457D01*
X0238064Y0045464D01*
X0238173Y0045467D01*
X0238282Y0045466D01*
X0238391Y0045461D01*
X0238499Y0045452D01*
X0238607Y0045439D01*
X0238715Y0045422D01*
X0238822Y0045402D01*
X0238928Y0045377D01*
X0239033Y0045349D01*
X0239137Y0045317D01*
X0239240Y0045281D01*
X0239342Y0045241D01*
X0239442Y0045198D01*
X0239540Y0045151D01*
X0239637Y0045101D01*
X0239731Y0045047D01*
X0239824Y0044989D01*
X0239915Y0044929D01*
X0240003Y0044865D01*
X0240089Y0044798D01*
X0240172Y0044728D01*
X0240253Y0044655D01*
X0240331Y0044579D01*
X0240406Y0044500D01*
X0240479Y0044418D01*
X0240548Y0044334D01*
X0240614Y0044248D01*
X0240677Y0044159D01*
X0240737Y0044068D01*
X0240794Y0043975D01*
X0240847Y0043880D01*
X0240896Y0043783D01*
X0240942Y0043684D01*
X0240984Y0043584D01*
X0241023Y0043482D01*
X0241058Y0043378D01*
X0241089Y0043274D01*
X0241117Y0043169D01*
X0241140Y0043062D01*
X0241160Y0042955D01*
X0241176Y0042847D01*
X0241188Y0042739D01*
X0241196Y0042630D01*
X0241200Y0042521D01*
X0241200Y0042413D01*
X0241196Y0042304D01*
X0241188Y0042195D01*
X0241176Y0042087D01*
X0241160Y0041979D01*
X0241140Y0041872D01*
X0241117Y0041765D01*
X0241089Y0041660D01*
X0241058Y0041556D01*
X0241023Y0041452D01*
X0240984Y0041350D01*
X0240942Y0041250D01*
X0240896Y0041151D01*
X0240847Y0041054D01*
X0240794Y0040959D01*
X0240737Y0040866D01*
X0240677Y0040775D01*
X0240614Y0040686D01*
X0240548Y0040600D01*
X0240479Y0040516D01*
X0240406Y0040434D01*
X0240331Y0040355D01*
X0240253Y0040279D01*
X0240172Y0040206D01*
X0240089Y0040136D01*
X0240003Y0040069D01*
X0239915Y0040005D01*
X0239824Y0039945D01*
X0239731Y0039887D01*
X0239637Y0039833D01*
X0239540Y0039783D01*
X0239442Y0039736D01*
X0239342Y0039693D01*
X0239240Y0039653D01*
X0239137Y0039617D01*
X0239033Y0039585D01*
X0238928Y0039557D01*
X0238822Y0039532D01*
X0238715Y0039512D01*
X0238607Y0039495D01*
X0238499Y0039482D01*
X0238391Y0039473D01*
X0238282Y0039468D01*
X0238173Y0039467D01*
X0238064Y0039470D01*
X0237955Y0039477D01*
X0237847Y0039488D01*
X0237739Y0039503D01*
X0237631Y0039521D01*
X0237525Y0039544D01*
X0237419Y0039570D01*
X0237314Y0039601D01*
X0237211Y0039635D01*
X0237109Y0039672D01*
X0237008Y0039714D01*
X0236909Y0039759D01*
X0236811Y0039808D01*
X0236716Y0039860D01*
X0236622Y0039916D01*
X0236530Y0039974D01*
X0236441Y0040037D01*
X0236354Y0040102D01*
X0236269Y0040171D01*
X0236187Y0040242D01*
X0236108Y0040317D01*
X0236031Y0040394D01*
X0235957Y0040474D01*
X0235886Y0040557D01*
X0235819Y0040643D01*
X0235754Y0040730D01*
X0235692Y0040820D01*
X0235634Y0040912D01*
X0235580Y0041006D01*
X0235528Y0041103D01*
X0235480Y0041201D01*
X0235436Y0041300D01*
X0235396Y0041401D01*
X0235359Y0041504D01*
X0235326Y0041608D01*
X0235296Y0041712D01*
X0235271Y0041818D01*
X0235249Y0041925D01*
X0235232Y0042033D01*
X0235218Y0042141D01*
X0235208Y0042249D01*
X0235202Y0042358D01*
X0235200Y0042467D01*
X0224300Y0042467D02*
X0224302Y0042576D01*
X0224308Y0042685D01*
X0224318Y0042793D01*
X0224332Y0042901D01*
X0224349Y0043009D01*
X0224371Y0043116D01*
X0224396Y0043222D01*
X0224426Y0043326D01*
X0224459Y0043430D01*
X0224496Y0043533D01*
X0224536Y0043634D01*
X0224580Y0043733D01*
X0224628Y0043831D01*
X0224680Y0043928D01*
X0224734Y0044022D01*
X0224792Y0044114D01*
X0224854Y0044204D01*
X0224919Y0044291D01*
X0224986Y0044377D01*
X0225057Y0044460D01*
X0225131Y0044540D01*
X0225208Y0044617D01*
X0225287Y0044692D01*
X0225369Y0044763D01*
X0225454Y0044832D01*
X0225541Y0044897D01*
X0225630Y0044960D01*
X0225722Y0045018D01*
X0225816Y0045074D01*
X0225911Y0045126D01*
X0226009Y0045175D01*
X0226108Y0045220D01*
X0226209Y0045262D01*
X0226311Y0045299D01*
X0226414Y0045333D01*
X0226519Y0045364D01*
X0226625Y0045390D01*
X0226731Y0045413D01*
X0226839Y0045431D01*
X0226947Y0045446D01*
X0227055Y0045457D01*
X0227164Y0045464D01*
X0227273Y0045467D01*
X0227382Y0045466D01*
X0227491Y0045461D01*
X0227599Y0045452D01*
X0227707Y0045439D01*
X0227815Y0045422D01*
X0227922Y0045402D01*
X0228028Y0045377D01*
X0228133Y0045349D01*
X0228237Y0045317D01*
X0228340Y0045281D01*
X0228442Y0045241D01*
X0228542Y0045198D01*
X0228640Y0045151D01*
X0228737Y0045101D01*
X0228831Y0045047D01*
X0228924Y0044989D01*
X0229015Y0044929D01*
X0229103Y0044865D01*
X0229189Y0044798D01*
X0229272Y0044728D01*
X0229353Y0044655D01*
X0229431Y0044579D01*
X0229506Y0044500D01*
X0229579Y0044418D01*
X0229648Y0044334D01*
X0229714Y0044248D01*
X0229777Y0044159D01*
X0229837Y0044068D01*
X0229894Y0043975D01*
X0229947Y0043880D01*
X0229996Y0043783D01*
X0230042Y0043684D01*
X0230084Y0043584D01*
X0230123Y0043482D01*
X0230158Y0043378D01*
X0230189Y0043274D01*
X0230217Y0043169D01*
X0230240Y0043062D01*
X0230260Y0042955D01*
X0230276Y0042847D01*
X0230288Y0042739D01*
X0230296Y0042630D01*
X0230300Y0042521D01*
X0230300Y0042413D01*
X0230296Y0042304D01*
X0230288Y0042195D01*
X0230276Y0042087D01*
X0230260Y0041979D01*
X0230240Y0041872D01*
X0230217Y0041765D01*
X0230189Y0041660D01*
X0230158Y0041556D01*
X0230123Y0041452D01*
X0230084Y0041350D01*
X0230042Y0041250D01*
X0229996Y0041151D01*
X0229947Y0041054D01*
X0229894Y0040959D01*
X0229837Y0040866D01*
X0229777Y0040775D01*
X0229714Y0040686D01*
X0229648Y0040600D01*
X0229579Y0040516D01*
X0229506Y0040434D01*
X0229431Y0040355D01*
X0229353Y0040279D01*
X0229272Y0040206D01*
X0229189Y0040136D01*
X0229103Y0040069D01*
X0229015Y0040005D01*
X0228924Y0039945D01*
X0228831Y0039887D01*
X0228737Y0039833D01*
X0228640Y0039783D01*
X0228542Y0039736D01*
X0228442Y0039693D01*
X0228340Y0039653D01*
X0228237Y0039617D01*
X0228133Y0039585D01*
X0228028Y0039557D01*
X0227922Y0039532D01*
X0227815Y0039512D01*
X0227707Y0039495D01*
X0227599Y0039482D01*
X0227491Y0039473D01*
X0227382Y0039468D01*
X0227273Y0039467D01*
X0227164Y0039470D01*
X0227055Y0039477D01*
X0226947Y0039488D01*
X0226839Y0039503D01*
X0226731Y0039521D01*
X0226625Y0039544D01*
X0226519Y0039570D01*
X0226414Y0039601D01*
X0226311Y0039635D01*
X0226209Y0039672D01*
X0226108Y0039714D01*
X0226009Y0039759D01*
X0225911Y0039808D01*
X0225816Y0039860D01*
X0225722Y0039916D01*
X0225630Y0039974D01*
X0225541Y0040037D01*
X0225454Y0040102D01*
X0225369Y0040171D01*
X0225287Y0040242D01*
X0225208Y0040317D01*
X0225131Y0040394D01*
X0225057Y0040474D01*
X0224986Y0040557D01*
X0224919Y0040643D01*
X0224854Y0040730D01*
X0224792Y0040820D01*
X0224734Y0040912D01*
X0224680Y0041006D01*
X0224628Y0041103D01*
X0224580Y0041201D01*
X0224536Y0041300D01*
X0224496Y0041401D01*
X0224459Y0041504D01*
X0224426Y0041608D01*
X0224396Y0041712D01*
X0224371Y0041818D01*
X0224349Y0041925D01*
X0224332Y0042033D01*
X0224318Y0042141D01*
X0224308Y0042249D01*
X0224302Y0042358D01*
X0224300Y0042467D01*
X0213500Y0042467D02*
X0213502Y0042576D01*
X0213508Y0042685D01*
X0213518Y0042793D01*
X0213532Y0042901D01*
X0213549Y0043009D01*
X0213571Y0043116D01*
X0213596Y0043222D01*
X0213626Y0043326D01*
X0213659Y0043430D01*
X0213696Y0043533D01*
X0213736Y0043634D01*
X0213780Y0043733D01*
X0213828Y0043831D01*
X0213880Y0043928D01*
X0213934Y0044022D01*
X0213992Y0044114D01*
X0214054Y0044204D01*
X0214119Y0044291D01*
X0214186Y0044377D01*
X0214257Y0044460D01*
X0214331Y0044540D01*
X0214408Y0044617D01*
X0214487Y0044692D01*
X0214569Y0044763D01*
X0214654Y0044832D01*
X0214741Y0044897D01*
X0214830Y0044960D01*
X0214922Y0045018D01*
X0215016Y0045074D01*
X0215111Y0045126D01*
X0215209Y0045175D01*
X0215308Y0045220D01*
X0215409Y0045262D01*
X0215511Y0045299D01*
X0215614Y0045333D01*
X0215719Y0045364D01*
X0215825Y0045390D01*
X0215931Y0045413D01*
X0216039Y0045431D01*
X0216147Y0045446D01*
X0216255Y0045457D01*
X0216364Y0045464D01*
X0216473Y0045467D01*
X0216582Y0045466D01*
X0216691Y0045461D01*
X0216799Y0045452D01*
X0216907Y0045439D01*
X0217015Y0045422D01*
X0217122Y0045402D01*
X0217228Y0045377D01*
X0217333Y0045349D01*
X0217437Y0045317D01*
X0217540Y0045281D01*
X0217642Y0045241D01*
X0217742Y0045198D01*
X0217840Y0045151D01*
X0217937Y0045101D01*
X0218031Y0045047D01*
X0218124Y0044989D01*
X0218215Y0044929D01*
X0218303Y0044865D01*
X0218389Y0044798D01*
X0218472Y0044728D01*
X0218553Y0044655D01*
X0218631Y0044579D01*
X0218706Y0044500D01*
X0218779Y0044418D01*
X0218848Y0044334D01*
X0218914Y0044248D01*
X0218977Y0044159D01*
X0219037Y0044068D01*
X0219094Y0043975D01*
X0219147Y0043880D01*
X0219196Y0043783D01*
X0219242Y0043684D01*
X0219284Y0043584D01*
X0219323Y0043482D01*
X0219358Y0043378D01*
X0219389Y0043274D01*
X0219417Y0043169D01*
X0219440Y0043062D01*
X0219460Y0042955D01*
X0219476Y0042847D01*
X0219488Y0042739D01*
X0219496Y0042630D01*
X0219500Y0042521D01*
X0219500Y0042413D01*
X0219496Y0042304D01*
X0219488Y0042195D01*
X0219476Y0042087D01*
X0219460Y0041979D01*
X0219440Y0041872D01*
X0219417Y0041765D01*
X0219389Y0041660D01*
X0219358Y0041556D01*
X0219323Y0041452D01*
X0219284Y0041350D01*
X0219242Y0041250D01*
X0219196Y0041151D01*
X0219147Y0041054D01*
X0219094Y0040959D01*
X0219037Y0040866D01*
X0218977Y0040775D01*
X0218914Y0040686D01*
X0218848Y0040600D01*
X0218779Y0040516D01*
X0218706Y0040434D01*
X0218631Y0040355D01*
X0218553Y0040279D01*
X0218472Y0040206D01*
X0218389Y0040136D01*
X0218303Y0040069D01*
X0218215Y0040005D01*
X0218124Y0039945D01*
X0218031Y0039887D01*
X0217937Y0039833D01*
X0217840Y0039783D01*
X0217742Y0039736D01*
X0217642Y0039693D01*
X0217540Y0039653D01*
X0217437Y0039617D01*
X0217333Y0039585D01*
X0217228Y0039557D01*
X0217122Y0039532D01*
X0217015Y0039512D01*
X0216907Y0039495D01*
X0216799Y0039482D01*
X0216691Y0039473D01*
X0216582Y0039468D01*
X0216473Y0039467D01*
X0216364Y0039470D01*
X0216255Y0039477D01*
X0216147Y0039488D01*
X0216039Y0039503D01*
X0215931Y0039521D01*
X0215825Y0039544D01*
X0215719Y0039570D01*
X0215614Y0039601D01*
X0215511Y0039635D01*
X0215409Y0039672D01*
X0215308Y0039714D01*
X0215209Y0039759D01*
X0215111Y0039808D01*
X0215016Y0039860D01*
X0214922Y0039916D01*
X0214830Y0039974D01*
X0214741Y0040037D01*
X0214654Y0040102D01*
X0214569Y0040171D01*
X0214487Y0040242D01*
X0214408Y0040317D01*
X0214331Y0040394D01*
X0214257Y0040474D01*
X0214186Y0040557D01*
X0214119Y0040643D01*
X0214054Y0040730D01*
X0213992Y0040820D01*
X0213934Y0040912D01*
X0213880Y0041006D01*
X0213828Y0041103D01*
X0213780Y0041201D01*
X0213736Y0041300D01*
X0213696Y0041401D01*
X0213659Y0041504D01*
X0213626Y0041608D01*
X0213596Y0041712D01*
X0213571Y0041818D01*
X0213549Y0041925D01*
X0213532Y0042033D01*
X0213518Y0042141D01*
X0213508Y0042249D01*
X0213502Y0042358D01*
X0213500Y0042467D01*
X0202600Y0042467D02*
X0202602Y0042576D01*
X0202608Y0042685D01*
X0202618Y0042793D01*
X0202632Y0042901D01*
X0202649Y0043009D01*
X0202671Y0043116D01*
X0202696Y0043222D01*
X0202726Y0043326D01*
X0202759Y0043430D01*
X0202796Y0043533D01*
X0202836Y0043634D01*
X0202880Y0043733D01*
X0202928Y0043831D01*
X0202980Y0043928D01*
X0203034Y0044022D01*
X0203092Y0044114D01*
X0203154Y0044204D01*
X0203219Y0044291D01*
X0203286Y0044377D01*
X0203357Y0044460D01*
X0203431Y0044540D01*
X0203508Y0044617D01*
X0203587Y0044692D01*
X0203669Y0044763D01*
X0203754Y0044832D01*
X0203841Y0044897D01*
X0203930Y0044960D01*
X0204022Y0045018D01*
X0204116Y0045074D01*
X0204211Y0045126D01*
X0204309Y0045175D01*
X0204408Y0045220D01*
X0204509Y0045262D01*
X0204611Y0045299D01*
X0204714Y0045333D01*
X0204819Y0045364D01*
X0204925Y0045390D01*
X0205031Y0045413D01*
X0205139Y0045431D01*
X0205247Y0045446D01*
X0205355Y0045457D01*
X0205464Y0045464D01*
X0205573Y0045467D01*
X0205682Y0045466D01*
X0205791Y0045461D01*
X0205899Y0045452D01*
X0206007Y0045439D01*
X0206115Y0045422D01*
X0206222Y0045402D01*
X0206328Y0045377D01*
X0206433Y0045349D01*
X0206537Y0045317D01*
X0206640Y0045281D01*
X0206742Y0045241D01*
X0206842Y0045198D01*
X0206940Y0045151D01*
X0207037Y0045101D01*
X0207131Y0045047D01*
X0207224Y0044989D01*
X0207315Y0044929D01*
X0207403Y0044865D01*
X0207489Y0044798D01*
X0207572Y0044728D01*
X0207653Y0044655D01*
X0207731Y0044579D01*
X0207806Y0044500D01*
X0207879Y0044418D01*
X0207948Y0044334D01*
X0208014Y0044248D01*
X0208077Y0044159D01*
X0208137Y0044068D01*
X0208194Y0043975D01*
X0208247Y0043880D01*
X0208296Y0043783D01*
X0208342Y0043684D01*
X0208384Y0043584D01*
X0208423Y0043482D01*
X0208458Y0043378D01*
X0208489Y0043274D01*
X0208517Y0043169D01*
X0208540Y0043062D01*
X0208560Y0042955D01*
X0208576Y0042847D01*
X0208588Y0042739D01*
X0208596Y0042630D01*
X0208600Y0042521D01*
X0208600Y0042413D01*
X0208596Y0042304D01*
X0208588Y0042195D01*
X0208576Y0042087D01*
X0208560Y0041979D01*
X0208540Y0041872D01*
X0208517Y0041765D01*
X0208489Y0041660D01*
X0208458Y0041556D01*
X0208423Y0041452D01*
X0208384Y0041350D01*
X0208342Y0041250D01*
X0208296Y0041151D01*
X0208247Y0041054D01*
X0208194Y0040959D01*
X0208137Y0040866D01*
X0208077Y0040775D01*
X0208014Y0040686D01*
X0207948Y0040600D01*
X0207879Y0040516D01*
X0207806Y0040434D01*
X0207731Y0040355D01*
X0207653Y0040279D01*
X0207572Y0040206D01*
X0207489Y0040136D01*
X0207403Y0040069D01*
X0207315Y0040005D01*
X0207224Y0039945D01*
X0207131Y0039887D01*
X0207037Y0039833D01*
X0206940Y0039783D01*
X0206842Y0039736D01*
X0206742Y0039693D01*
X0206640Y0039653D01*
X0206537Y0039617D01*
X0206433Y0039585D01*
X0206328Y0039557D01*
X0206222Y0039532D01*
X0206115Y0039512D01*
X0206007Y0039495D01*
X0205899Y0039482D01*
X0205791Y0039473D01*
X0205682Y0039468D01*
X0205573Y0039467D01*
X0205464Y0039470D01*
X0205355Y0039477D01*
X0205247Y0039488D01*
X0205139Y0039503D01*
X0205031Y0039521D01*
X0204925Y0039544D01*
X0204819Y0039570D01*
X0204714Y0039601D01*
X0204611Y0039635D01*
X0204509Y0039672D01*
X0204408Y0039714D01*
X0204309Y0039759D01*
X0204211Y0039808D01*
X0204116Y0039860D01*
X0204022Y0039916D01*
X0203930Y0039974D01*
X0203841Y0040037D01*
X0203754Y0040102D01*
X0203669Y0040171D01*
X0203587Y0040242D01*
X0203508Y0040317D01*
X0203431Y0040394D01*
X0203357Y0040474D01*
X0203286Y0040557D01*
X0203219Y0040643D01*
X0203154Y0040730D01*
X0203092Y0040820D01*
X0203034Y0040912D01*
X0202980Y0041006D01*
X0202928Y0041103D01*
X0202880Y0041201D01*
X0202836Y0041300D01*
X0202796Y0041401D01*
X0202759Y0041504D01*
X0202726Y0041608D01*
X0202696Y0041712D01*
X0202671Y0041818D01*
X0202649Y0041925D01*
X0202632Y0042033D01*
X0202618Y0042141D01*
X0202608Y0042249D01*
X0202602Y0042358D01*
X0202600Y0042467D01*
X0191700Y0042467D02*
X0191702Y0042576D01*
X0191708Y0042685D01*
X0191718Y0042793D01*
X0191732Y0042901D01*
X0191749Y0043009D01*
X0191771Y0043116D01*
X0191796Y0043222D01*
X0191826Y0043326D01*
X0191859Y0043430D01*
X0191896Y0043533D01*
X0191936Y0043634D01*
X0191980Y0043733D01*
X0192028Y0043831D01*
X0192080Y0043928D01*
X0192134Y0044022D01*
X0192192Y0044114D01*
X0192254Y0044204D01*
X0192319Y0044291D01*
X0192386Y0044377D01*
X0192457Y0044460D01*
X0192531Y0044540D01*
X0192608Y0044617D01*
X0192687Y0044692D01*
X0192769Y0044763D01*
X0192854Y0044832D01*
X0192941Y0044897D01*
X0193030Y0044960D01*
X0193122Y0045018D01*
X0193216Y0045074D01*
X0193311Y0045126D01*
X0193409Y0045175D01*
X0193508Y0045220D01*
X0193609Y0045262D01*
X0193711Y0045299D01*
X0193814Y0045333D01*
X0193919Y0045364D01*
X0194025Y0045390D01*
X0194131Y0045413D01*
X0194239Y0045431D01*
X0194347Y0045446D01*
X0194455Y0045457D01*
X0194564Y0045464D01*
X0194673Y0045467D01*
X0194782Y0045466D01*
X0194891Y0045461D01*
X0194999Y0045452D01*
X0195107Y0045439D01*
X0195215Y0045422D01*
X0195322Y0045402D01*
X0195428Y0045377D01*
X0195533Y0045349D01*
X0195637Y0045317D01*
X0195740Y0045281D01*
X0195842Y0045241D01*
X0195942Y0045198D01*
X0196040Y0045151D01*
X0196137Y0045101D01*
X0196231Y0045047D01*
X0196324Y0044989D01*
X0196415Y0044929D01*
X0196503Y0044865D01*
X0196589Y0044798D01*
X0196672Y0044728D01*
X0196753Y0044655D01*
X0196831Y0044579D01*
X0196906Y0044500D01*
X0196979Y0044418D01*
X0197048Y0044334D01*
X0197114Y0044248D01*
X0197177Y0044159D01*
X0197237Y0044068D01*
X0197294Y0043975D01*
X0197347Y0043880D01*
X0197396Y0043783D01*
X0197442Y0043684D01*
X0197484Y0043584D01*
X0197523Y0043482D01*
X0197558Y0043378D01*
X0197589Y0043274D01*
X0197617Y0043169D01*
X0197640Y0043062D01*
X0197660Y0042955D01*
X0197676Y0042847D01*
X0197688Y0042739D01*
X0197696Y0042630D01*
X0197700Y0042521D01*
X0197700Y0042413D01*
X0197696Y0042304D01*
X0197688Y0042195D01*
X0197676Y0042087D01*
X0197660Y0041979D01*
X0197640Y0041872D01*
X0197617Y0041765D01*
X0197589Y0041660D01*
X0197558Y0041556D01*
X0197523Y0041452D01*
X0197484Y0041350D01*
X0197442Y0041250D01*
X0197396Y0041151D01*
X0197347Y0041054D01*
X0197294Y0040959D01*
X0197237Y0040866D01*
X0197177Y0040775D01*
X0197114Y0040686D01*
X0197048Y0040600D01*
X0196979Y0040516D01*
X0196906Y0040434D01*
X0196831Y0040355D01*
X0196753Y0040279D01*
X0196672Y0040206D01*
X0196589Y0040136D01*
X0196503Y0040069D01*
X0196415Y0040005D01*
X0196324Y0039945D01*
X0196231Y0039887D01*
X0196137Y0039833D01*
X0196040Y0039783D01*
X0195942Y0039736D01*
X0195842Y0039693D01*
X0195740Y0039653D01*
X0195637Y0039617D01*
X0195533Y0039585D01*
X0195428Y0039557D01*
X0195322Y0039532D01*
X0195215Y0039512D01*
X0195107Y0039495D01*
X0194999Y0039482D01*
X0194891Y0039473D01*
X0194782Y0039468D01*
X0194673Y0039467D01*
X0194564Y0039470D01*
X0194455Y0039477D01*
X0194347Y0039488D01*
X0194239Y0039503D01*
X0194131Y0039521D01*
X0194025Y0039544D01*
X0193919Y0039570D01*
X0193814Y0039601D01*
X0193711Y0039635D01*
X0193609Y0039672D01*
X0193508Y0039714D01*
X0193409Y0039759D01*
X0193311Y0039808D01*
X0193216Y0039860D01*
X0193122Y0039916D01*
X0193030Y0039974D01*
X0192941Y0040037D01*
X0192854Y0040102D01*
X0192769Y0040171D01*
X0192687Y0040242D01*
X0192608Y0040317D01*
X0192531Y0040394D01*
X0192457Y0040474D01*
X0192386Y0040557D01*
X0192319Y0040643D01*
X0192254Y0040730D01*
X0192192Y0040820D01*
X0192134Y0040912D01*
X0192080Y0041006D01*
X0192028Y0041103D01*
X0191980Y0041201D01*
X0191936Y0041300D01*
X0191896Y0041401D01*
X0191859Y0041504D01*
X0191826Y0041608D01*
X0191796Y0041712D01*
X0191771Y0041818D01*
X0191749Y0041925D01*
X0191732Y0042033D01*
X0191718Y0042141D01*
X0191708Y0042249D01*
X0191702Y0042358D01*
X0191700Y0042467D01*
X0180900Y0042467D02*
X0180902Y0042576D01*
X0180908Y0042685D01*
X0180918Y0042793D01*
X0180932Y0042901D01*
X0180949Y0043009D01*
X0180971Y0043116D01*
X0180996Y0043222D01*
X0181026Y0043326D01*
X0181059Y0043430D01*
X0181096Y0043533D01*
X0181136Y0043634D01*
X0181180Y0043733D01*
X0181228Y0043831D01*
X0181280Y0043928D01*
X0181334Y0044022D01*
X0181392Y0044114D01*
X0181454Y0044204D01*
X0181519Y0044291D01*
X0181586Y0044377D01*
X0181657Y0044460D01*
X0181731Y0044540D01*
X0181808Y0044617D01*
X0181887Y0044692D01*
X0181969Y0044763D01*
X0182054Y0044832D01*
X0182141Y0044897D01*
X0182230Y0044960D01*
X0182322Y0045018D01*
X0182416Y0045074D01*
X0182511Y0045126D01*
X0182609Y0045175D01*
X0182708Y0045220D01*
X0182809Y0045262D01*
X0182911Y0045299D01*
X0183014Y0045333D01*
X0183119Y0045364D01*
X0183225Y0045390D01*
X0183331Y0045413D01*
X0183439Y0045431D01*
X0183547Y0045446D01*
X0183655Y0045457D01*
X0183764Y0045464D01*
X0183873Y0045467D01*
X0183982Y0045466D01*
X0184091Y0045461D01*
X0184199Y0045452D01*
X0184307Y0045439D01*
X0184415Y0045422D01*
X0184522Y0045402D01*
X0184628Y0045377D01*
X0184733Y0045349D01*
X0184837Y0045317D01*
X0184940Y0045281D01*
X0185042Y0045241D01*
X0185142Y0045198D01*
X0185240Y0045151D01*
X0185337Y0045101D01*
X0185431Y0045047D01*
X0185524Y0044989D01*
X0185615Y0044929D01*
X0185703Y0044865D01*
X0185789Y0044798D01*
X0185872Y0044728D01*
X0185953Y0044655D01*
X0186031Y0044579D01*
X0186106Y0044500D01*
X0186179Y0044418D01*
X0186248Y0044334D01*
X0186314Y0044248D01*
X0186377Y0044159D01*
X0186437Y0044068D01*
X0186494Y0043975D01*
X0186547Y0043880D01*
X0186596Y0043783D01*
X0186642Y0043684D01*
X0186684Y0043584D01*
X0186723Y0043482D01*
X0186758Y0043378D01*
X0186789Y0043274D01*
X0186817Y0043169D01*
X0186840Y0043062D01*
X0186860Y0042955D01*
X0186876Y0042847D01*
X0186888Y0042739D01*
X0186896Y0042630D01*
X0186900Y0042521D01*
X0186900Y0042413D01*
X0186896Y0042304D01*
X0186888Y0042195D01*
X0186876Y0042087D01*
X0186860Y0041979D01*
X0186840Y0041872D01*
X0186817Y0041765D01*
X0186789Y0041660D01*
X0186758Y0041556D01*
X0186723Y0041452D01*
X0186684Y0041350D01*
X0186642Y0041250D01*
X0186596Y0041151D01*
X0186547Y0041054D01*
X0186494Y0040959D01*
X0186437Y0040866D01*
X0186377Y0040775D01*
X0186314Y0040686D01*
X0186248Y0040600D01*
X0186179Y0040516D01*
X0186106Y0040434D01*
X0186031Y0040355D01*
X0185953Y0040279D01*
X0185872Y0040206D01*
X0185789Y0040136D01*
X0185703Y0040069D01*
X0185615Y0040005D01*
X0185524Y0039945D01*
X0185431Y0039887D01*
X0185337Y0039833D01*
X0185240Y0039783D01*
X0185142Y0039736D01*
X0185042Y0039693D01*
X0184940Y0039653D01*
X0184837Y0039617D01*
X0184733Y0039585D01*
X0184628Y0039557D01*
X0184522Y0039532D01*
X0184415Y0039512D01*
X0184307Y0039495D01*
X0184199Y0039482D01*
X0184091Y0039473D01*
X0183982Y0039468D01*
X0183873Y0039467D01*
X0183764Y0039470D01*
X0183655Y0039477D01*
X0183547Y0039488D01*
X0183439Y0039503D01*
X0183331Y0039521D01*
X0183225Y0039544D01*
X0183119Y0039570D01*
X0183014Y0039601D01*
X0182911Y0039635D01*
X0182809Y0039672D01*
X0182708Y0039714D01*
X0182609Y0039759D01*
X0182511Y0039808D01*
X0182416Y0039860D01*
X0182322Y0039916D01*
X0182230Y0039974D01*
X0182141Y0040037D01*
X0182054Y0040102D01*
X0181969Y0040171D01*
X0181887Y0040242D01*
X0181808Y0040317D01*
X0181731Y0040394D01*
X0181657Y0040474D01*
X0181586Y0040557D01*
X0181519Y0040643D01*
X0181454Y0040730D01*
X0181392Y0040820D01*
X0181334Y0040912D01*
X0181280Y0041006D01*
X0181228Y0041103D01*
X0181180Y0041201D01*
X0181136Y0041300D01*
X0181096Y0041401D01*
X0181059Y0041504D01*
X0181026Y0041608D01*
X0180996Y0041712D01*
X0180971Y0041818D01*
X0180949Y0041925D01*
X0180932Y0042033D01*
X0180918Y0042141D01*
X0180908Y0042249D01*
X0180902Y0042358D01*
X0180900Y0042467D01*
X0170000Y0042467D02*
X0170002Y0042576D01*
X0170008Y0042685D01*
X0170018Y0042793D01*
X0170032Y0042901D01*
X0170049Y0043009D01*
X0170071Y0043116D01*
X0170096Y0043222D01*
X0170126Y0043326D01*
X0170159Y0043430D01*
X0170196Y0043533D01*
X0170236Y0043634D01*
X0170280Y0043733D01*
X0170328Y0043831D01*
X0170380Y0043928D01*
X0170434Y0044022D01*
X0170492Y0044114D01*
X0170554Y0044204D01*
X0170619Y0044291D01*
X0170686Y0044377D01*
X0170757Y0044460D01*
X0170831Y0044540D01*
X0170908Y0044617D01*
X0170987Y0044692D01*
X0171069Y0044763D01*
X0171154Y0044832D01*
X0171241Y0044897D01*
X0171330Y0044960D01*
X0171422Y0045018D01*
X0171516Y0045074D01*
X0171611Y0045126D01*
X0171709Y0045175D01*
X0171808Y0045220D01*
X0171909Y0045262D01*
X0172011Y0045299D01*
X0172114Y0045333D01*
X0172219Y0045364D01*
X0172325Y0045390D01*
X0172431Y0045413D01*
X0172539Y0045431D01*
X0172647Y0045446D01*
X0172755Y0045457D01*
X0172864Y0045464D01*
X0172973Y0045467D01*
X0173082Y0045466D01*
X0173191Y0045461D01*
X0173299Y0045452D01*
X0173407Y0045439D01*
X0173515Y0045422D01*
X0173622Y0045402D01*
X0173728Y0045377D01*
X0173833Y0045349D01*
X0173937Y0045317D01*
X0174040Y0045281D01*
X0174142Y0045241D01*
X0174242Y0045198D01*
X0174340Y0045151D01*
X0174437Y0045101D01*
X0174531Y0045047D01*
X0174624Y0044989D01*
X0174715Y0044929D01*
X0174803Y0044865D01*
X0174889Y0044798D01*
X0174972Y0044728D01*
X0175053Y0044655D01*
X0175131Y0044579D01*
X0175206Y0044500D01*
X0175279Y0044418D01*
X0175348Y0044334D01*
X0175414Y0044248D01*
X0175477Y0044159D01*
X0175537Y0044068D01*
X0175594Y0043975D01*
X0175647Y0043880D01*
X0175696Y0043783D01*
X0175742Y0043684D01*
X0175784Y0043584D01*
X0175823Y0043482D01*
X0175858Y0043378D01*
X0175889Y0043274D01*
X0175917Y0043169D01*
X0175940Y0043062D01*
X0175960Y0042955D01*
X0175976Y0042847D01*
X0175988Y0042739D01*
X0175996Y0042630D01*
X0176000Y0042521D01*
X0176000Y0042413D01*
X0175996Y0042304D01*
X0175988Y0042195D01*
X0175976Y0042087D01*
X0175960Y0041979D01*
X0175940Y0041872D01*
X0175917Y0041765D01*
X0175889Y0041660D01*
X0175858Y0041556D01*
X0175823Y0041452D01*
X0175784Y0041350D01*
X0175742Y0041250D01*
X0175696Y0041151D01*
X0175647Y0041054D01*
X0175594Y0040959D01*
X0175537Y0040866D01*
X0175477Y0040775D01*
X0175414Y0040686D01*
X0175348Y0040600D01*
X0175279Y0040516D01*
X0175206Y0040434D01*
X0175131Y0040355D01*
X0175053Y0040279D01*
X0174972Y0040206D01*
X0174889Y0040136D01*
X0174803Y0040069D01*
X0174715Y0040005D01*
X0174624Y0039945D01*
X0174531Y0039887D01*
X0174437Y0039833D01*
X0174340Y0039783D01*
X0174242Y0039736D01*
X0174142Y0039693D01*
X0174040Y0039653D01*
X0173937Y0039617D01*
X0173833Y0039585D01*
X0173728Y0039557D01*
X0173622Y0039532D01*
X0173515Y0039512D01*
X0173407Y0039495D01*
X0173299Y0039482D01*
X0173191Y0039473D01*
X0173082Y0039468D01*
X0172973Y0039467D01*
X0172864Y0039470D01*
X0172755Y0039477D01*
X0172647Y0039488D01*
X0172539Y0039503D01*
X0172431Y0039521D01*
X0172325Y0039544D01*
X0172219Y0039570D01*
X0172114Y0039601D01*
X0172011Y0039635D01*
X0171909Y0039672D01*
X0171808Y0039714D01*
X0171709Y0039759D01*
X0171611Y0039808D01*
X0171516Y0039860D01*
X0171422Y0039916D01*
X0171330Y0039974D01*
X0171241Y0040037D01*
X0171154Y0040102D01*
X0171069Y0040171D01*
X0170987Y0040242D01*
X0170908Y0040317D01*
X0170831Y0040394D01*
X0170757Y0040474D01*
X0170686Y0040557D01*
X0170619Y0040643D01*
X0170554Y0040730D01*
X0170492Y0040820D01*
X0170434Y0040912D01*
X0170380Y0041006D01*
X0170328Y0041103D01*
X0170280Y0041201D01*
X0170236Y0041300D01*
X0170196Y0041401D01*
X0170159Y0041504D01*
X0170126Y0041608D01*
X0170096Y0041712D01*
X0170071Y0041818D01*
X0170049Y0041925D01*
X0170032Y0042033D01*
X0170018Y0042141D01*
X0170008Y0042249D01*
X0170002Y0042358D01*
X0170000Y0042467D01*
X0159100Y0042467D02*
X0159102Y0042576D01*
X0159108Y0042685D01*
X0159118Y0042793D01*
X0159132Y0042901D01*
X0159149Y0043009D01*
X0159171Y0043116D01*
X0159196Y0043222D01*
X0159226Y0043326D01*
X0159259Y0043430D01*
X0159296Y0043533D01*
X0159336Y0043634D01*
X0159380Y0043733D01*
X0159428Y0043831D01*
X0159480Y0043928D01*
X0159534Y0044022D01*
X0159592Y0044114D01*
X0159654Y0044204D01*
X0159719Y0044291D01*
X0159786Y0044377D01*
X0159857Y0044460D01*
X0159931Y0044540D01*
X0160008Y0044617D01*
X0160087Y0044692D01*
X0160169Y0044763D01*
X0160254Y0044832D01*
X0160341Y0044897D01*
X0160430Y0044960D01*
X0160522Y0045018D01*
X0160616Y0045074D01*
X0160711Y0045126D01*
X0160809Y0045175D01*
X0160908Y0045220D01*
X0161009Y0045262D01*
X0161111Y0045299D01*
X0161214Y0045333D01*
X0161319Y0045364D01*
X0161425Y0045390D01*
X0161531Y0045413D01*
X0161639Y0045431D01*
X0161747Y0045446D01*
X0161855Y0045457D01*
X0161964Y0045464D01*
X0162073Y0045467D01*
X0162182Y0045466D01*
X0162291Y0045461D01*
X0162399Y0045452D01*
X0162507Y0045439D01*
X0162615Y0045422D01*
X0162722Y0045402D01*
X0162828Y0045377D01*
X0162933Y0045349D01*
X0163037Y0045317D01*
X0163140Y0045281D01*
X0163242Y0045241D01*
X0163342Y0045198D01*
X0163440Y0045151D01*
X0163537Y0045101D01*
X0163631Y0045047D01*
X0163724Y0044989D01*
X0163815Y0044929D01*
X0163903Y0044865D01*
X0163989Y0044798D01*
X0164072Y0044728D01*
X0164153Y0044655D01*
X0164231Y0044579D01*
X0164306Y0044500D01*
X0164379Y0044418D01*
X0164448Y0044334D01*
X0164514Y0044248D01*
X0164577Y0044159D01*
X0164637Y0044068D01*
X0164694Y0043975D01*
X0164747Y0043880D01*
X0164796Y0043783D01*
X0164842Y0043684D01*
X0164884Y0043584D01*
X0164923Y0043482D01*
X0164958Y0043378D01*
X0164989Y0043274D01*
X0165017Y0043169D01*
X0165040Y0043062D01*
X0165060Y0042955D01*
X0165076Y0042847D01*
X0165088Y0042739D01*
X0165096Y0042630D01*
X0165100Y0042521D01*
X0165100Y0042413D01*
X0165096Y0042304D01*
X0165088Y0042195D01*
X0165076Y0042087D01*
X0165060Y0041979D01*
X0165040Y0041872D01*
X0165017Y0041765D01*
X0164989Y0041660D01*
X0164958Y0041556D01*
X0164923Y0041452D01*
X0164884Y0041350D01*
X0164842Y0041250D01*
X0164796Y0041151D01*
X0164747Y0041054D01*
X0164694Y0040959D01*
X0164637Y0040866D01*
X0164577Y0040775D01*
X0164514Y0040686D01*
X0164448Y0040600D01*
X0164379Y0040516D01*
X0164306Y0040434D01*
X0164231Y0040355D01*
X0164153Y0040279D01*
X0164072Y0040206D01*
X0163989Y0040136D01*
X0163903Y0040069D01*
X0163815Y0040005D01*
X0163724Y0039945D01*
X0163631Y0039887D01*
X0163537Y0039833D01*
X0163440Y0039783D01*
X0163342Y0039736D01*
X0163242Y0039693D01*
X0163140Y0039653D01*
X0163037Y0039617D01*
X0162933Y0039585D01*
X0162828Y0039557D01*
X0162722Y0039532D01*
X0162615Y0039512D01*
X0162507Y0039495D01*
X0162399Y0039482D01*
X0162291Y0039473D01*
X0162182Y0039468D01*
X0162073Y0039467D01*
X0161964Y0039470D01*
X0161855Y0039477D01*
X0161747Y0039488D01*
X0161639Y0039503D01*
X0161531Y0039521D01*
X0161425Y0039544D01*
X0161319Y0039570D01*
X0161214Y0039601D01*
X0161111Y0039635D01*
X0161009Y0039672D01*
X0160908Y0039714D01*
X0160809Y0039759D01*
X0160711Y0039808D01*
X0160616Y0039860D01*
X0160522Y0039916D01*
X0160430Y0039974D01*
X0160341Y0040037D01*
X0160254Y0040102D01*
X0160169Y0040171D01*
X0160087Y0040242D01*
X0160008Y0040317D01*
X0159931Y0040394D01*
X0159857Y0040474D01*
X0159786Y0040557D01*
X0159719Y0040643D01*
X0159654Y0040730D01*
X0159592Y0040820D01*
X0159534Y0040912D01*
X0159480Y0041006D01*
X0159428Y0041103D01*
X0159380Y0041201D01*
X0159336Y0041300D01*
X0159296Y0041401D01*
X0159259Y0041504D01*
X0159226Y0041608D01*
X0159196Y0041712D01*
X0159171Y0041818D01*
X0159149Y0041925D01*
X0159132Y0042033D01*
X0159118Y0042141D01*
X0159108Y0042249D01*
X0159102Y0042358D01*
X0159100Y0042467D01*
X0148300Y0042467D02*
X0148302Y0042576D01*
X0148308Y0042685D01*
X0148318Y0042793D01*
X0148332Y0042901D01*
X0148349Y0043009D01*
X0148371Y0043116D01*
X0148396Y0043222D01*
X0148426Y0043326D01*
X0148459Y0043430D01*
X0148496Y0043533D01*
X0148536Y0043634D01*
X0148580Y0043733D01*
X0148628Y0043831D01*
X0148680Y0043928D01*
X0148734Y0044022D01*
X0148792Y0044114D01*
X0148854Y0044204D01*
X0148919Y0044291D01*
X0148986Y0044377D01*
X0149057Y0044460D01*
X0149131Y0044540D01*
X0149208Y0044617D01*
X0149287Y0044692D01*
X0149369Y0044763D01*
X0149454Y0044832D01*
X0149541Y0044897D01*
X0149630Y0044960D01*
X0149722Y0045018D01*
X0149816Y0045074D01*
X0149911Y0045126D01*
X0150009Y0045175D01*
X0150108Y0045220D01*
X0150209Y0045262D01*
X0150311Y0045299D01*
X0150414Y0045333D01*
X0150519Y0045364D01*
X0150625Y0045390D01*
X0150731Y0045413D01*
X0150839Y0045431D01*
X0150947Y0045446D01*
X0151055Y0045457D01*
X0151164Y0045464D01*
X0151273Y0045467D01*
X0151382Y0045466D01*
X0151491Y0045461D01*
X0151599Y0045452D01*
X0151707Y0045439D01*
X0151815Y0045422D01*
X0151922Y0045402D01*
X0152028Y0045377D01*
X0152133Y0045349D01*
X0152237Y0045317D01*
X0152340Y0045281D01*
X0152442Y0045241D01*
X0152542Y0045198D01*
X0152640Y0045151D01*
X0152737Y0045101D01*
X0152831Y0045047D01*
X0152924Y0044989D01*
X0153015Y0044929D01*
X0153103Y0044865D01*
X0153189Y0044798D01*
X0153272Y0044728D01*
X0153353Y0044655D01*
X0153431Y0044579D01*
X0153506Y0044500D01*
X0153579Y0044418D01*
X0153648Y0044334D01*
X0153714Y0044248D01*
X0153777Y0044159D01*
X0153837Y0044068D01*
X0153894Y0043975D01*
X0153947Y0043880D01*
X0153996Y0043783D01*
X0154042Y0043684D01*
X0154084Y0043584D01*
X0154123Y0043482D01*
X0154158Y0043378D01*
X0154189Y0043274D01*
X0154217Y0043169D01*
X0154240Y0043062D01*
X0154260Y0042955D01*
X0154276Y0042847D01*
X0154288Y0042739D01*
X0154296Y0042630D01*
X0154300Y0042521D01*
X0154300Y0042413D01*
X0154296Y0042304D01*
X0154288Y0042195D01*
X0154276Y0042087D01*
X0154260Y0041979D01*
X0154240Y0041872D01*
X0154217Y0041765D01*
X0154189Y0041660D01*
X0154158Y0041556D01*
X0154123Y0041452D01*
X0154084Y0041350D01*
X0154042Y0041250D01*
X0153996Y0041151D01*
X0153947Y0041054D01*
X0153894Y0040959D01*
X0153837Y0040866D01*
X0153777Y0040775D01*
X0153714Y0040686D01*
X0153648Y0040600D01*
X0153579Y0040516D01*
X0153506Y0040434D01*
X0153431Y0040355D01*
X0153353Y0040279D01*
X0153272Y0040206D01*
X0153189Y0040136D01*
X0153103Y0040069D01*
X0153015Y0040005D01*
X0152924Y0039945D01*
X0152831Y0039887D01*
X0152737Y0039833D01*
X0152640Y0039783D01*
X0152542Y0039736D01*
X0152442Y0039693D01*
X0152340Y0039653D01*
X0152237Y0039617D01*
X0152133Y0039585D01*
X0152028Y0039557D01*
X0151922Y0039532D01*
X0151815Y0039512D01*
X0151707Y0039495D01*
X0151599Y0039482D01*
X0151491Y0039473D01*
X0151382Y0039468D01*
X0151273Y0039467D01*
X0151164Y0039470D01*
X0151055Y0039477D01*
X0150947Y0039488D01*
X0150839Y0039503D01*
X0150731Y0039521D01*
X0150625Y0039544D01*
X0150519Y0039570D01*
X0150414Y0039601D01*
X0150311Y0039635D01*
X0150209Y0039672D01*
X0150108Y0039714D01*
X0150009Y0039759D01*
X0149911Y0039808D01*
X0149816Y0039860D01*
X0149722Y0039916D01*
X0149630Y0039974D01*
X0149541Y0040037D01*
X0149454Y0040102D01*
X0149369Y0040171D01*
X0149287Y0040242D01*
X0149208Y0040317D01*
X0149131Y0040394D01*
X0149057Y0040474D01*
X0148986Y0040557D01*
X0148919Y0040643D01*
X0148854Y0040730D01*
X0148792Y0040820D01*
X0148734Y0040912D01*
X0148680Y0041006D01*
X0148628Y0041103D01*
X0148580Y0041201D01*
X0148536Y0041300D01*
X0148496Y0041401D01*
X0148459Y0041504D01*
X0148426Y0041608D01*
X0148396Y0041712D01*
X0148371Y0041818D01*
X0148349Y0041925D01*
X0148332Y0042033D01*
X0148318Y0042141D01*
X0148308Y0042249D01*
X0148302Y0042358D01*
X0148300Y0042467D01*
X0137400Y0042467D02*
X0137402Y0042576D01*
X0137408Y0042685D01*
X0137418Y0042793D01*
X0137432Y0042901D01*
X0137449Y0043009D01*
X0137471Y0043116D01*
X0137496Y0043222D01*
X0137526Y0043326D01*
X0137559Y0043430D01*
X0137596Y0043533D01*
X0137636Y0043634D01*
X0137680Y0043733D01*
X0137728Y0043831D01*
X0137780Y0043928D01*
X0137834Y0044022D01*
X0137892Y0044114D01*
X0137954Y0044204D01*
X0138019Y0044291D01*
X0138086Y0044377D01*
X0138157Y0044460D01*
X0138231Y0044540D01*
X0138308Y0044617D01*
X0138387Y0044692D01*
X0138469Y0044763D01*
X0138554Y0044832D01*
X0138641Y0044897D01*
X0138730Y0044960D01*
X0138822Y0045018D01*
X0138916Y0045074D01*
X0139011Y0045126D01*
X0139109Y0045175D01*
X0139208Y0045220D01*
X0139309Y0045262D01*
X0139411Y0045299D01*
X0139514Y0045333D01*
X0139619Y0045364D01*
X0139725Y0045390D01*
X0139831Y0045413D01*
X0139939Y0045431D01*
X0140047Y0045446D01*
X0140155Y0045457D01*
X0140264Y0045464D01*
X0140373Y0045467D01*
X0140482Y0045466D01*
X0140591Y0045461D01*
X0140699Y0045452D01*
X0140807Y0045439D01*
X0140915Y0045422D01*
X0141022Y0045402D01*
X0141128Y0045377D01*
X0141233Y0045349D01*
X0141337Y0045317D01*
X0141440Y0045281D01*
X0141542Y0045241D01*
X0141642Y0045198D01*
X0141740Y0045151D01*
X0141837Y0045101D01*
X0141931Y0045047D01*
X0142024Y0044989D01*
X0142115Y0044929D01*
X0142203Y0044865D01*
X0142289Y0044798D01*
X0142372Y0044728D01*
X0142453Y0044655D01*
X0142531Y0044579D01*
X0142606Y0044500D01*
X0142679Y0044418D01*
X0142748Y0044334D01*
X0142814Y0044248D01*
X0142877Y0044159D01*
X0142937Y0044068D01*
X0142994Y0043975D01*
X0143047Y0043880D01*
X0143096Y0043783D01*
X0143142Y0043684D01*
X0143184Y0043584D01*
X0143223Y0043482D01*
X0143258Y0043378D01*
X0143289Y0043274D01*
X0143317Y0043169D01*
X0143340Y0043062D01*
X0143360Y0042955D01*
X0143376Y0042847D01*
X0143388Y0042739D01*
X0143396Y0042630D01*
X0143400Y0042521D01*
X0143400Y0042413D01*
X0143396Y0042304D01*
X0143388Y0042195D01*
X0143376Y0042087D01*
X0143360Y0041979D01*
X0143340Y0041872D01*
X0143317Y0041765D01*
X0143289Y0041660D01*
X0143258Y0041556D01*
X0143223Y0041452D01*
X0143184Y0041350D01*
X0143142Y0041250D01*
X0143096Y0041151D01*
X0143047Y0041054D01*
X0142994Y0040959D01*
X0142937Y0040866D01*
X0142877Y0040775D01*
X0142814Y0040686D01*
X0142748Y0040600D01*
X0142679Y0040516D01*
X0142606Y0040434D01*
X0142531Y0040355D01*
X0142453Y0040279D01*
X0142372Y0040206D01*
X0142289Y0040136D01*
X0142203Y0040069D01*
X0142115Y0040005D01*
X0142024Y0039945D01*
X0141931Y0039887D01*
X0141837Y0039833D01*
X0141740Y0039783D01*
X0141642Y0039736D01*
X0141542Y0039693D01*
X0141440Y0039653D01*
X0141337Y0039617D01*
X0141233Y0039585D01*
X0141128Y0039557D01*
X0141022Y0039532D01*
X0140915Y0039512D01*
X0140807Y0039495D01*
X0140699Y0039482D01*
X0140591Y0039473D01*
X0140482Y0039468D01*
X0140373Y0039467D01*
X0140264Y0039470D01*
X0140155Y0039477D01*
X0140047Y0039488D01*
X0139939Y0039503D01*
X0139831Y0039521D01*
X0139725Y0039544D01*
X0139619Y0039570D01*
X0139514Y0039601D01*
X0139411Y0039635D01*
X0139309Y0039672D01*
X0139208Y0039714D01*
X0139109Y0039759D01*
X0139011Y0039808D01*
X0138916Y0039860D01*
X0138822Y0039916D01*
X0138730Y0039974D01*
X0138641Y0040037D01*
X0138554Y0040102D01*
X0138469Y0040171D01*
X0138387Y0040242D01*
X0138308Y0040317D01*
X0138231Y0040394D01*
X0138157Y0040474D01*
X0138086Y0040557D01*
X0138019Y0040643D01*
X0137954Y0040730D01*
X0137892Y0040820D01*
X0137834Y0040912D01*
X0137780Y0041006D01*
X0137728Y0041103D01*
X0137680Y0041201D01*
X0137636Y0041300D01*
X0137596Y0041401D01*
X0137559Y0041504D01*
X0137526Y0041608D01*
X0137496Y0041712D01*
X0137471Y0041818D01*
X0137449Y0041925D01*
X0137432Y0042033D01*
X0137418Y0042141D01*
X0137408Y0042249D01*
X0137402Y0042358D01*
X0137400Y0042467D01*
X0126500Y0042467D02*
X0126502Y0042576D01*
X0126508Y0042685D01*
X0126518Y0042793D01*
X0126532Y0042901D01*
X0126549Y0043009D01*
X0126571Y0043116D01*
X0126596Y0043222D01*
X0126626Y0043326D01*
X0126659Y0043430D01*
X0126696Y0043533D01*
X0126736Y0043634D01*
X0126780Y0043733D01*
X0126828Y0043831D01*
X0126880Y0043928D01*
X0126934Y0044022D01*
X0126992Y0044114D01*
X0127054Y0044204D01*
X0127119Y0044291D01*
X0127186Y0044377D01*
X0127257Y0044460D01*
X0127331Y0044540D01*
X0127408Y0044617D01*
X0127487Y0044692D01*
X0127569Y0044763D01*
X0127654Y0044832D01*
X0127741Y0044897D01*
X0127830Y0044960D01*
X0127922Y0045018D01*
X0128016Y0045074D01*
X0128111Y0045126D01*
X0128209Y0045175D01*
X0128308Y0045220D01*
X0128409Y0045262D01*
X0128511Y0045299D01*
X0128614Y0045333D01*
X0128719Y0045364D01*
X0128825Y0045390D01*
X0128931Y0045413D01*
X0129039Y0045431D01*
X0129147Y0045446D01*
X0129255Y0045457D01*
X0129364Y0045464D01*
X0129473Y0045467D01*
X0129582Y0045466D01*
X0129691Y0045461D01*
X0129799Y0045452D01*
X0129907Y0045439D01*
X0130015Y0045422D01*
X0130122Y0045402D01*
X0130228Y0045377D01*
X0130333Y0045349D01*
X0130437Y0045317D01*
X0130540Y0045281D01*
X0130642Y0045241D01*
X0130742Y0045198D01*
X0130840Y0045151D01*
X0130937Y0045101D01*
X0131031Y0045047D01*
X0131124Y0044989D01*
X0131215Y0044929D01*
X0131303Y0044865D01*
X0131389Y0044798D01*
X0131472Y0044728D01*
X0131553Y0044655D01*
X0131631Y0044579D01*
X0131706Y0044500D01*
X0131779Y0044418D01*
X0131848Y0044334D01*
X0131914Y0044248D01*
X0131977Y0044159D01*
X0132037Y0044068D01*
X0132094Y0043975D01*
X0132147Y0043880D01*
X0132196Y0043783D01*
X0132242Y0043684D01*
X0132284Y0043584D01*
X0132323Y0043482D01*
X0132358Y0043378D01*
X0132389Y0043274D01*
X0132417Y0043169D01*
X0132440Y0043062D01*
X0132460Y0042955D01*
X0132476Y0042847D01*
X0132488Y0042739D01*
X0132496Y0042630D01*
X0132500Y0042521D01*
X0132500Y0042413D01*
X0132496Y0042304D01*
X0132488Y0042195D01*
X0132476Y0042087D01*
X0132460Y0041979D01*
X0132440Y0041872D01*
X0132417Y0041765D01*
X0132389Y0041660D01*
X0132358Y0041556D01*
X0132323Y0041452D01*
X0132284Y0041350D01*
X0132242Y0041250D01*
X0132196Y0041151D01*
X0132147Y0041054D01*
X0132094Y0040959D01*
X0132037Y0040866D01*
X0131977Y0040775D01*
X0131914Y0040686D01*
X0131848Y0040600D01*
X0131779Y0040516D01*
X0131706Y0040434D01*
X0131631Y0040355D01*
X0131553Y0040279D01*
X0131472Y0040206D01*
X0131389Y0040136D01*
X0131303Y0040069D01*
X0131215Y0040005D01*
X0131124Y0039945D01*
X0131031Y0039887D01*
X0130937Y0039833D01*
X0130840Y0039783D01*
X0130742Y0039736D01*
X0130642Y0039693D01*
X0130540Y0039653D01*
X0130437Y0039617D01*
X0130333Y0039585D01*
X0130228Y0039557D01*
X0130122Y0039532D01*
X0130015Y0039512D01*
X0129907Y0039495D01*
X0129799Y0039482D01*
X0129691Y0039473D01*
X0129582Y0039468D01*
X0129473Y0039467D01*
X0129364Y0039470D01*
X0129255Y0039477D01*
X0129147Y0039488D01*
X0129039Y0039503D01*
X0128931Y0039521D01*
X0128825Y0039544D01*
X0128719Y0039570D01*
X0128614Y0039601D01*
X0128511Y0039635D01*
X0128409Y0039672D01*
X0128308Y0039714D01*
X0128209Y0039759D01*
X0128111Y0039808D01*
X0128016Y0039860D01*
X0127922Y0039916D01*
X0127830Y0039974D01*
X0127741Y0040037D01*
X0127654Y0040102D01*
X0127569Y0040171D01*
X0127487Y0040242D01*
X0127408Y0040317D01*
X0127331Y0040394D01*
X0127257Y0040474D01*
X0127186Y0040557D01*
X0127119Y0040643D01*
X0127054Y0040730D01*
X0126992Y0040820D01*
X0126934Y0040912D01*
X0126880Y0041006D01*
X0126828Y0041103D01*
X0126780Y0041201D01*
X0126736Y0041300D01*
X0126696Y0041401D01*
X0126659Y0041504D01*
X0126626Y0041608D01*
X0126596Y0041712D01*
X0126571Y0041818D01*
X0126549Y0041925D01*
X0126532Y0042033D01*
X0126518Y0042141D01*
X0126508Y0042249D01*
X0126502Y0042358D01*
X0126500Y0042467D01*
X0115700Y0042467D02*
X0115702Y0042576D01*
X0115708Y0042685D01*
X0115718Y0042793D01*
X0115732Y0042901D01*
X0115749Y0043009D01*
X0115771Y0043116D01*
X0115796Y0043222D01*
X0115826Y0043326D01*
X0115859Y0043430D01*
X0115896Y0043533D01*
X0115936Y0043634D01*
X0115980Y0043733D01*
X0116028Y0043831D01*
X0116080Y0043928D01*
X0116134Y0044022D01*
X0116192Y0044114D01*
X0116254Y0044204D01*
X0116319Y0044291D01*
X0116386Y0044377D01*
X0116457Y0044460D01*
X0116531Y0044540D01*
X0116608Y0044617D01*
X0116687Y0044692D01*
X0116769Y0044763D01*
X0116854Y0044832D01*
X0116941Y0044897D01*
X0117030Y0044960D01*
X0117122Y0045018D01*
X0117216Y0045074D01*
X0117311Y0045126D01*
X0117409Y0045175D01*
X0117508Y0045220D01*
X0117609Y0045262D01*
X0117711Y0045299D01*
X0117814Y0045333D01*
X0117919Y0045364D01*
X0118025Y0045390D01*
X0118131Y0045413D01*
X0118239Y0045431D01*
X0118347Y0045446D01*
X0118455Y0045457D01*
X0118564Y0045464D01*
X0118673Y0045467D01*
X0118782Y0045466D01*
X0118891Y0045461D01*
X0118999Y0045452D01*
X0119107Y0045439D01*
X0119215Y0045422D01*
X0119322Y0045402D01*
X0119428Y0045377D01*
X0119533Y0045349D01*
X0119637Y0045317D01*
X0119740Y0045281D01*
X0119842Y0045241D01*
X0119942Y0045198D01*
X0120040Y0045151D01*
X0120137Y0045101D01*
X0120231Y0045047D01*
X0120324Y0044989D01*
X0120415Y0044929D01*
X0120503Y0044865D01*
X0120589Y0044798D01*
X0120672Y0044728D01*
X0120753Y0044655D01*
X0120831Y0044579D01*
X0120906Y0044500D01*
X0120979Y0044418D01*
X0121048Y0044334D01*
X0121114Y0044248D01*
X0121177Y0044159D01*
X0121237Y0044068D01*
X0121294Y0043975D01*
X0121347Y0043880D01*
X0121396Y0043783D01*
X0121442Y0043684D01*
X0121484Y0043584D01*
X0121523Y0043482D01*
X0121558Y0043378D01*
X0121589Y0043274D01*
X0121617Y0043169D01*
X0121640Y0043062D01*
X0121660Y0042955D01*
X0121676Y0042847D01*
X0121688Y0042739D01*
X0121696Y0042630D01*
X0121700Y0042521D01*
X0121700Y0042413D01*
X0121696Y0042304D01*
X0121688Y0042195D01*
X0121676Y0042087D01*
X0121660Y0041979D01*
X0121640Y0041872D01*
X0121617Y0041765D01*
X0121589Y0041660D01*
X0121558Y0041556D01*
X0121523Y0041452D01*
X0121484Y0041350D01*
X0121442Y0041250D01*
X0121396Y0041151D01*
X0121347Y0041054D01*
X0121294Y0040959D01*
X0121237Y0040866D01*
X0121177Y0040775D01*
X0121114Y0040686D01*
X0121048Y0040600D01*
X0120979Y0040516D01*
X0120906Y0040434D01*
X0120831Y0040355D01*
X0120753Y0040279D01*
X0120672Y0040206D01*
X0120589Y0040136D01*
X0120503Y0040069D01*
X0120415Y0040005D01*
X0120324Y0039945D01*
X0120231Y0039887D01*
X0120137Y0039833D01*
X0120040Y0039783D01*
X0119942Y0039736D01*
X0119842Y0039693D01*
X0119740Y0039653D01*
X0119637Y0039617D01*
X0119533Y0039585D01*
X0119428Y0039557D01*
X0119322Y0039532D01*
X0119215Y0039512D01*
X0119107Y0039495D01*
X0118999Y0039482D01*
X0118891Y0039473D01*
X0118782Y0039468D01*
X0118673Y0039467D01*
X0118564Y0039470D01*
X0118455Y0039477D01*
X0118347Y0039488D01*
X0118239Y0039503D01*
X0118131Y0039521D01*
X0118025Y0039544D01*
X0117919Y0039570D01*
X0117814Y0039601D01*
X0117711Y0039635D01*
X0117609Y0039672D01*
X0117508Y0039714D01*
X0117409Y0039759D01*
X0117311Y0039808D01*
X0117216Y0039860D01*
X0117122Y0039916D01*
X0117030Y0039974D01*
X0116941Y0040037D01*
X0116854Y0040102D01*
X0116769Y0040171D01*
X0116687Y0040242D01*
X0116608Y0040317D01*
X0116531Y0040394D01*
X0116457Y0040474D01*
X0116386Y0040557D01*
X0116319Y0040643D01*
X0116254Y0040730D01*
X0116192Y0040820D01*
X0116134Y0040912D01*
X0116080Y0041006D01*
X0116028Y0041103D01*
X0115980Y0041201D01*
X0115936Y0041300D01*
X0115896Y0041401D01*
X0115859Y0041504D01*
X0115826Y0041608D01*
X0115796Y0041712D01*
X0115771Y0041818D01*
X0115749Y0041925D01*
X0115732Y0042033D01*
X0115718Y0042141D01*
X0115708Y0042249D01*
X0115702Y0042358D01*
X0115700Y0042467D01*
X0104800Y0042467D02*
X0104802Y0042576D01*
X0104808Y0042685D01*
X0104818Y0042793D01*
X0104832Y0042901D01*
X0104849Y0043009D01*
X0104871Y0043116D01*
X0104896Y0043222D01*
X0104926Y0043326D01*
X0104959Y0043430D01*
X0104996Y0043533D01*
X0105036Y0043634D01*
X0105080Y0043733D01*
X0105128Y0043831D01*
X0105180Y0043928D01*
X0105234Y0044022D01*
X0105292Y0044114D01*
X0105354Y0044204D01*
X0105419Y0044291D01*
X0105486Y0044377D01*
X0105557Y0044460D01*
X0105631Y0044540D01*
X0105708Y0044617D01*
X0105787Y0044692D01*
X0105869Y0044763D01*
X0105954Y0044832D01*
X0106041Y0044897D01*
X0106130Y0044960D01*
X0106222Y0045018D01*
X0106316Y0045074D01*
X0106411Y0045126D01*
X0106509Y0045175D01*
X0106608Y0045220D01*
X0106709Y0045262D01*
X0106811Y0045299D01*
X0106914Y0045333D01*
X0107019Y0045364D01*
X0107125Y0045390D01*
X0107231Y0045413D01*
X0107339Y0045431D01*
X0107447Y0045446D01*
X0107555Y0045457D01*
X0107664Y0045464D01*
X0107773Y0045467D01*
X0107882Y0045466D01*
X0107991Y0045461D01*
X0108099Y0045452D01*
X0108207Y0045439D01*
X0108315Y0045422D01*
X0108422Y0045402D01*
X0108528Y0045377D01*
X0108633Y0045349D01*
X0108737Y0045317D01*
X0108840Y0045281D01*
X0108942Y0045241D01*
X0109042Y0045198D01*
X0109140Y0045151D01*
X0109237Y0045101D01*
X0109331Y0045047D01*
X0109424Y0044989D01*
X0109515Y0044929D01*
X0109603Y0044865D01*
X0109689Y0044798D01*
X0109772Y0044728D01*
X0109853Y0044655D01*
X0109931Y0044579D01*
X0110006Y0044500D01*
X0110079Y0044418D01*
X0110148Y0044334D01*
X0110214Y0044248D01*
X0110277Y0044159D01*
X0110337Y0044068D01*
X0110394Y0043975D01*
X0110447Y0043880D01*
X0110496Y0043783D01*
X0110542Y0043684D01*
X0110584Y0043584D01*
X0110623Y0043482D01*
X0110658Y0043378D01*
X0110689Y0043274D01*
X0110717Y0043169D01*
X0110740Y0043062D01*
X0110760Y0042955D01*
X0110776Y0042847D01*
X0110788Y0042739D01*
X0110796Y0042630D01*
X0110800Y0042521D01*
X0110800Y0042413D01*
X0110796Y0042304D01*
X0110788Y0042195D01*
X0110776Y0042087D01*
X0110760Y0041979D01*
X0110740Y0041872D01*
X0110717Y0041765D01*
X0110689Y0041660D01*
X0110658Y0041556D01*
X0110623Y0041452D01*
X0110584Y0041350D01*
X0110542Y0041250D01*
X0110496Y0041151D01*
X0110447Y0041054D01*
X0110394Y0040959D01*
X0110337Y0040866D01*
X0110277Y0040775D01*
X0110214Y0040686D01*
X0110148Y0040600D01*
X0110079Y0040516D01*
X0110006Y0040434D01*
X0109931Y0040355D01*
X0109853Y0040279D01*
X0109772Y0040206D01*
X0109689Y0040136D01*
X0109603Y0040069D01*
X0109515Y0040005D01*
X0109424Y0039945D01*
X0109331Y0039887D01*
X0109237Y0039833D01*
X0109140Y0039783D01*
X0109042Y0039736D01*
X0108942Y0039693D01*
X0108840Y0039653D01*
X0108737Y0039617D01*
X0108633Y0039585D01*
X0108528Y0039557D01*
X0108422Y0039532D01*
X0108315Y0039512D01*
X0108207Y0039495D01*
X0108099Y0039482D01*
X0107991Y0039473D01*
X0107882Y0039468D01*
X0107773Y0039467D01*
X0107664Y0039470D01*
X0107555Y0039477D01*
X0107447Y0039488D01*
X0107339Y0039503D01*
X0107231Y0039521D01*
X0107125Y0039544D01*
X0107019Y0039570D01*
X0106914Y0039601D01*
X0106811Y0039635D01*
X0106709Y0039672D01*
X0106608Y0039714D01*
X0106509Y0039759D01*
X0106411Y0039808D01*
X0106316Y0039860D01*
X0106222Y0039916D01*
X0106130Y0039974D01*
X0106041Y0040037D01*
X0105954Y0040102D01*
X0105869Y0040171D01*
X0105787Y0040242D01*
X0105708Y0040317D01*
X0105631Y0040394D01*
X0105557Y0040474D01*
X0105486Y0040557D01*
X0105419Y0040643D01*
X0105354Y0040730D01*
X0105292Y0040820D01*
X0105234Y0040912D01*
X0105180Y0041006D01*
X0105128Y0041103D01*
X0105080Y0041201D01*
X0105036Y0041300D01*
X0104996Y0041401D01*
X0104959Y0041504D01*
X0104926Y0041608D01*
X0104896Y0041712D01*
X0104871Y0041818D01*
X0104849Y0041925D01*
X0104832Y0042033D01*
X0104818Y0042141D01*
X0104808Y0042249D01*
X0104802Y0042358D01*
X0104800Y0042467D01*
X0110200Y0031267D02*
X0110202Y0031376D01*
X0110208Y0031485D01*
X0110218Y0031593D01*
X0110232Y0031701D01*
X0110249Y0031809D01*
X0110271Y0031916D01*
X0110296Y0032022D01*
X0110326Y0032126D01*
X0110359Y0032230D01*
X0110396Y0032333D01*
X0110436Y0032434D01*
X0110480Y0032533D01*
X0110528Y0032631D01*
X0110580Y0032728D01*
X0110634Y0032822D01*
X0110692Y0032914D01*
X0110754Y0033004D01*
X0110819Y0033091D01*
X0110886Y0033177D01*
X0110957Y0033260D01*
X0111031Y0033340D01*
X0111108Y0033417D01*
X0111187Y0033492D01*
X0111269Y0033563D01*
X0111354Y0033632D01*
X0111441Y0033697D01*
X0111530Y0033760D01*
X0111622Y0033818D01*
X0111716Y0033874D01*
X0111811Y0033926D01*
X0111909Y0033975D01*
X0112008Y0034020D01*
X0112109Y0034062D01*
X0112211Y0034099D01*
X0112314Y0034133D01*
X0112419Y0034164D01*
X0112525Y0034190D01*
X0112631Y0034213D01*
X0112739Y0034231D01*
X0112847Y0034246D01*
X0112955Y0034257D01*
X0113064Y0034264D01*
X0113173Y0034267D01*
X0113282Y0034266D01*
X0113391Y0034261D01*
X0113499Y0034252D01*
X0113607Y0034239D01*
X0113715Y0034222D01*
X0113822Y0034202D01*
X0113928Y0034177D01*
X0114033Y0034149D01*
X0114137Y0034117D01*
X0114240Y0034081D01*
X0114342Y0034041D01*
X0114442Y0033998D01*
X0114540Y0033951D01*
X0114637Y0033901D01*
X0114731Y0033847D01*
X0114824Y0033789D01*
X0114915Y0033729D01*
X0115003Y0033665D01*
X0115089Y0033598D01*
X0115172Y0033528D01*
X0115253Y0033455D01*
X0115331Y0033379D01*
X0115406Y0033300D01*
X0115479Y0033218D01*
X0115548Y0033134D01*
X0115614Y0033048D01*
X0115677Y0032959D01*
X0115737Y0032868D01*
X0115794Y0032775D01*
X0115847Y0032680D01*
X0115896Y0032583D01*
X0115942Y0032484D01*
X0115984Y0032384D01*
X0116023Y0032282D01*
X0116058Y0032178D01*
X0116089Y0032074D01*
X0116117Y0031969D01*
X0116140Y0031862D01*
X0116160Y0031755D01*
X0116176Y0031647D01*
X0116188Y0031539D01*
X0116196Y0031430D01*
X0116200Y0031321D01*
X0116200Y0031213D01*
X0116196Y0031104D01*
X0116188Y0030995D01*
X0116176Y0030887D01*
X0116160Y0030779D01*
X0116140Y0030672D01*
X0116117Y0030565D01*
X0116089Y0030460D01*
X0116058Y0030356D01*
X0116023Y0030252D01*
X0115984Y0030150D01*
X0115942Y0030050D01*
X0115896Y0029951D01*
X0115847Y0029854D01*
X0115794Y0029759D01*
X0115737Y0029666D01*
X0115677Y0029575D01*
X0115614Y0029486D01*
X0115548Y0029400D01*
X0115479Y0029316D01*
X0115406Y0029234D01*
X0115331Y0029155D01*
X0115253Y0029079D01*
X0115172Y0029006D01*
X0115089Y0028936D01*
X0115003Y0028869D01*
X0114915Y0028805D01*
X0114824Y0028745D01*
X0114731Y0028687D01*
X0114637Y0028633D01*
X0114540Y0028583D01*
X0114442Y0028536D01*
X0114342Y0028493D01*
X0114240Y0028453D01*
X0114137Y0028417D01*
X0114033Y0028385D01*
X0113928Y0028357D01*
X0113822Y0028332D01*
X0113715Y0028312D01*
X0113607Y0028295D01*
X0113499Y0028282D01*
X0113391Y0028273D01*
X0113282Y0028268D01*
X0113173Y0028267D01*
X0113064Y0028270D01*
X0112955Y0028277D01*
X0112847Y0028288D01*
X0112739Y0028303D01*
X0112631Y0028321D01*
X0112525Y0028344D01*
X0112419Y0028370D01*
X0112314Y0028401D01*
X0112211Y0028435D01*
X0112109Y0028472D01*
X0112008Y0028514D01*
X0111909Y0028559D01*
X0111811Y0028608D01*
X0111716Y0028660D01*
X0111622Y0028716D01*
X0111530Y0028774D01*
X0111441Y0028837D01*
X0111354Y0028902D01*
X0111269Y0028971D01*
X0111187Y0029042D01*
X0111108Y0029117D01*
X0111031Y0029194D01*
X0110957Y0029274D01*
X0110886Y0029357D01*
X0110819Y0029443D01*
X0110754Y0029530D01*
X0110692Y0029620D01*
X0110634Y0029712D01*
X0110580Y0029806D01*
X0110528Y0029903D01*
X0110480Y0030001D01*
X0110436Y0030100D01*
X0110396Y0030201D01*
X0110359Y0030304D01*
X0110326Y0030408D01*
X0110296Y0030512D01*
X0110271Y0030618D01*
X0110249Y0030725D01*
X0110232Y0030833D01*
X0110218Y0030941D01*
X0110208Y0031049D01*
X0110202Y0031158D01*
X0110200Y0031267D01*
X0121100Y0031267D02*
X0121102Y0031376D01*
X0121108Y0031485D01*
X0121118Y0031593D01*
X0121132Y0031701D01*
X0121149Y0031809D01*
X0121171Y0031916D01*
X0121196Y0032022D01*
X0121226Y0032126D01*
X0121259Y0032230D01*
X0121296Y0032333D01*
X0121336Y0032434D01*
X0121380Y0032533D01*
X0121428Y0032631D01*
X0121480Y0032728D01*
X0121534Y0032822D01*
X0121592Y0032914D01*
X0121654Y0033004D01*
X0121719Y0033091D01*
X0121786Y0033177D01*
X0121857Y0033260D01*
X0121931Y0033340D01*
X0122008Y0033417D01*
X0122087Y0033492D01*
X0122169Y0033563D01*
X0122254Y0033632D01*
X0122341Y0033697D01*
X0122430Y0033760D01*
X0122522Y0033818D01*
X0122616Y0033874D01*
X0122711Y0033926D01*
X0122809Y0033975D01*
X0122908Y0034020D01*
X0123009Y0034062D01*
X0123111Y0034099D01*
X0123214Y0034133D01*
X0123319Y0034164D01*
X0123425Y0034190D01*
X0123531Y0034213D01*
X0123639Y0034231D01*
X0123747Y0034246D01*
X0123855Y0034257D01*
X0123964Y0034264D01*
X0124073Y0034267D01*
X0124182Y0034266D01*
X0124291Y0034261D01*
X0124399Y0034252D01*
X0124507Y0034239D01*
X0124615Y0034222D01*
X0124722Y0034202D01*
X0124828Y0034177D01*
X0124933Y0034149D01*
X0125037Y0034117D01*
X0125140Y0034081D01*
X0125242Y0034041D01*
X0125342Y0033998D01*
X0125440Y0033951D01*
X0125537Y0033901D01*
X0125631Y0033847D01*
X0125724Y0033789D01*
X0125815Y0033729D01*
X0125903Y0033665D01*
X0125989Y0033598D01*
X0126072Y0033528D01*
X0126153Y0033455D01*
X0126231Y0033379D01*
X0126306Y0033300D01*
X0126379Y0033218D01*
X0126448Y0033134D01*
X0126514Y0033048D01*
X0126577Y0032959D01*
X0126637Y0032868D01*
X0126694Y0032775D01*
X0126747Y0032680D01*
X0126796Y0032583D01*
X0126842Y0032484D01*
X0126884Y0032384D01*
X0126923Y0032282D01*
X0126958Y0032178D01*
X0126989Y0032074D01*
X0127017Y0031969D01*
X0127040Y0031862D01*
X0127060Y0031755D01*
X0127076Y0031647D01*
X0127088Y0031539D01*
X0127096Y0031430D01*
X0127100Y0031321D01*
X0127100Y0031213D01*
X0127096Y0031104D01*
X0127088Y0030995D01*
X0127076Y0030887D01*
X0127060Y0030779D01*
X0127040Y0030672D01*
X0127017Y0030565D01*
X0126989Y0030460D01*
X0126958Y0030356D01*
X0126923Y0030252D01*
X0126884Y0030150D01*
X0126842Y0030050D01*
X0126796Y0029951D01*
X0126747Y0029854D01*
X0126694Y0029759D01*
X0126637Y0029666D01*
X0126577Y0029575D01*
X0126514Y0029486D01*
X0126448Y0029400D01*
X0126379Y0029316D01*
X0126306Y0029234D01*
X0126231Y0029155D01*
X0126153Y0029079D01*
X0126072Y0029006D01*
X0125989Y0028936D01*
X0125903Y0028869D01*
X0125815Y0028805D01*
X0125724Y0028745D01*
X0125631Y0028687D01*
X0125537Y0028633D01*
X0125440Y0028583D01*
X0125342Y0028536D01*
X0125242Y0028493D01*
X0125140Y0028453D01*
X0125037Y0028417D01*
X0124933Y0028385D01*
X0124828Y0028357D01*
X0124722Y0028332D01*
X0124615Y0028312D01*
X0124507Y0028295D01*
X0124399Y0028282D01*
X0124291Y0028273D01*
X0124182Y0028268D01*
X0124073Y0028267D01*
X0123964Y0028270D01*
X0123855Y0028277D01*
X0123747Y0028288D01*
X0123639Y0028303D01*
X0123531Y0028321D01*
X0123425Y0028344D01*
X0123319Y0028370D01*
X0123214Y0028401D01*
X0123111Y0028435D01*
X0123009Y0028472D01*
X0122908Y0028514D01*
X0122809Y0028559D01*
X0122711Y0028608D01*
X0122616Y0028660D01*
X0122522Y0028716D01*
X0122430Y0028774D01*
X0122341Y0028837D01*
X0122254Y0028902D01*
X0122169Y0028971D01*
X0122087Y0029042D01*
X0122008Y0029117D01*
X0121931Y0029194D01*
X0121857Y0029274D01*
X0121786Y0029357D01*
X0121719Y0029443D01*
X0121654Y0029530D01*
X0121592Y0029620D01*
X0121534Y0029712D01*
X0121480Y0029806D01*
X0121428Y0029903D01*
X0121380Y0030001D01*
X0121336Y0030100D01*
X0121296Y0030201D01*
X0121259Y0030304D01*
X0121226Y0030408D01*
X0121196Y0030512D01*
X0121171Y0030618D01*
X0121149Y0030725D01*
X0121132Y0030833D01*
X0121118Y0030941D01*
X0121108Y0031049D01*
X0121102Y0031158D01*
X0121100Y0031267D01*
X0132000Y0031267D02*
X0132002Y0031376D01*
X0132008Y0031485D01*
X0132018Y0031593D01*
X0132032Y0031701D01*
X0132049Y0031809D01*
X0132071Y0031916D01*
X0132096Y0032022D01*
X0132126Y0032126D01*
X0132159Y0032230D01*
X0132196Y0032333D01*
X0132236Y0032434D01*
X0132280Y0032533D01*
X0132328Y0032631D01*
X0132380Y0032728D01*
X0132434Y0032822D01*
X0132492Y0032914D01*
X0132554Y0033004D01*
X0132619Y0033091D01*
X0132686Y0033177D01*
X0132757Y0033260D01*
X0132831Y0033340D01*
X0132908Y0033417D01*
X0132987Y0033492D01*
X0133069Y0033563D01*
X0133154Y0033632D01*
X0133241Y0033697D01*
X0133330Y0033760D01*
X0133422Y0033818D01*
X0133516Y0033874D01*
X0133611Y0033926D01*
X0133709Y0033975D01*
X0133808Y0034020D01*
X0133909Y0034062D01*
X0134011Y0034099D01*
X0134114Y0034133D01*
X0134219Y0034164D01*
X0134325Y0034190D01*
X0134431Y0034213D01*
X0134539Y0034231D01*
X0134647Y0034246D01*
X0134755Y0034257D01*
X0134864Y0034264D01*
X0134973Y0034267D01*
X0135082Y0034266D01*
X0135191Y0034261D01*
X0135299Y0034252D01*
X0135407Y0034239D01*
X0135515Y0034222D01*
X0135622Y0034202D01*
X0135728Y0034177D01*
X0135833Y0034149D01*
X0135937Y0034117D01*
X0136040Y0034081D01*
X0136142Y0034041D01*
X0136242Y0033998D01*
X0136340Y0033951D01*
X0136437Y0033901D01*
X0136531Y0033847D01*
X0136624Y0033789D01*
X0136715Y0033729D01*
X0136803Y0033665D01*
X0136889Y0033598D01*
X0136972Y0033528D01*
X0137053Y0033455D01*
X0137131Y0033379D01*
X0137206Y0033300D01*
X0137279Y0033218D01*
X0137348Y0033134D01*
X0137414Y0033048D01*
X0137477Y0032959D01*
X0137537Y0032868D01*
X0137594Y0032775D01*
X0137647Y0032680D01*
X0137696Y0032583D01*
X0137742Y0032484D01*
X0137784Y0032384D01*
X0137823Y0032282D01*
X0137858Y0032178D01*
X0137889Y0032074D01*
X0137917Y0031969D01*
X0137940Y0031862D01*
X0137960Y0031755D01*
X0137976Y0031647D01*
X0137988Y0031539D01*
X0137996Y0031430D01*
X0138000Y0031321D01*
X0138000Y0031213D01*
X0137996Y0031104D01*
X0137988Y0030995D01*
X0137976Y0030887D01*
X0137960Y0030779D01*
X0137940Y0030672D01*
X0137917Y0030565D01*
X0137889Y0030460D01*
X0137858Y0030356D01*
X0137823Y0030252D01*
X0137784Y0030150D01*
X0137742Y0030050D01*
X0137696Y0029951D01*
X0137647Y0029854D01*
X0137594Y0029759D01*
X0137537Y0029666D01*
X0137477Y0029575D01*
X0137414Y0029486D01*
X0137348Y0029400D01*
X0137279Y0029316D01*
X0137206Y0029234D01*
X0137131Y0029155D01*
X0137053Y0029079D01*
X0136972Y0029006D01*
X0136889Y0028936D01*
X0136803Y0028869D01*
X0136715Y0028805D01*
X0136624Y0028745D01*
X0136531Y0028687D01*
X0136437Y0028633D01*
X0136340Y0028583D01*
X0136242Y0028536D01*
X0136142Y0028493D01*
X0136040Y0028453D01*
X0135937Y0028417D01*
X0135833Y0028385D01*
X0135728Y0028357D01*
X0135622Y0028332D01*
X0135515Y0028312D01*
X0135407Y0028295D01*
X0135299Y0028282D01*
X0135191Y0028273D01*
X0135082Y0028268D01*
X0134973Y0028267D01*
X0134864Y0028270D01*
X0134755Y0028277D01*
X0134647Y0028288D01*
X0134539Y0028303D01*
X0134431Y0028321D01*
X0134325Y0028344D01*
X0134219Y0028370D01*
X0134114Y0028401D01*
X0134011Y0028435D01*
X0133909Y0028472D01*
X0133808Y0028514D01*
X0133709Y0028559D01*
X0133611Y0028608D01*
X0133516Y0028660D01*
X0133422Y0028716D01*
X0133330Y0028774D01*
X0133241Y0028837D01*
X0133154Y0028902D01*
X0133069Y0028971D01*
X0132987Y0029042D01*
X0132908Y0029117D01*
X0132831Y0029194D01*
X0132757Y0029274D01*
X0132686Y0029357D01*
X0132619Y0029443D01*
X0132554Y0029530D01*
X0132492Y0029620D01*
X0132434Y0029712D01*
X0132380Y0029806D01*
X0132328Y0029903D01*
X0132280Y0030001D01*
X0132236Y0030100D01*
X0132196Y0030201D01*
X0132159Y0030304D01*
X0132126Y0030408D01*
X0132096Y0030512D01*
X0132071Y0030618D01*
X0132049Y0030725D01*
X0132032Y0030833D01*
X0132018Y0030941D01*
X0132008Y0031049D01*
X0132002Y0031158D01*
X0132000Y0031267D01*
X0142800Y0031267D02*
X0142802Y0031376D01*
X0142808Y0031485D01*
X0142818Y0031593D01*
X0142832Y0031701D01*
X0142849Y0031809D01*
X0142871Y0031916D01*
X0142896Y0032022D01*
X0142926Y0032126D01*
X0142959Y0032230D01*
X0142996Y0032333D01*
X0143036Y0032434D01*
X0143080Y0032533D01*
X0143128Y0032631D01*
X0143180Y0032728D01*
X0143234Y0032822D01*
X0143292Y0032914D01*
X0143354Y0033004D01*
X0143419Y0033091D01*
X0143486Y0033177D01*
X0143557Y0033260D01*
X0143631Y0033340D01*
X0143708Y0033417D01*
X0143787Y0033492D01*
X0143869Y0033563D01*
X0143954Y0033632D01*
X0144041Y0033697D01*
X0144130Y0033760D01*
X0144222Y0033818D01*
X0144316Y0033874D01*
X0144411Y0033926D01*
X0144509Y0033975D01*
X0144608Y0034020D01*
X0144709Y0034062D01*
X0144811Y0034099D01*
X0144914Y0034133D01*
X0145019Y0034164D01*
X0145125Y0034190D01*
X0145231Y0034213D01*
X0145339Y0034231D01*
X0145447Y0034246D01*
X0145555Y0034257D01*
X0145664Y0034264D01*
X0145773Y0034267D01*
X0145882Y0034266D01*
X0145991Y0034261D01*
X0146099Y0034252D01*
X0146207Y0034239D01*
X0146315Y0034222D01*
X0146422Y0034202D01*
X0146528Y0034177D01*
X0146633Y0034149D01*
X0146737Y0034117D01*
X0146840Y0034081D01*
X0146942Y0034041D01*
X0147042Y0033998D01*
X0147140Y0033951D01*
X0147237Y0033901D01*
X0147331Y0033847D01*
X0147424Y0033789D01*
X0147515Y0033729D01*
X0147603Y0033665D01*
X0147689Y0033598D01*
X0147772Y0033528D01*
X0147853Y0033455D01*
X0147931Y0033379D01*
X0148006Y0033300D01*
X0148079Y0033218D01*
X0148148Y0033134D01*
X0148214Y0033048D01*
X0148277Y0032959D01*
X0148337Y0032868D01*
X0148394Y0032775D01*
X0148447Y0032680D01*
X0148496Y0032583D01*
X0148542Y0032484D01*
X0148584Y0032384D01*
X0148623Y0032282D01*
X0148658Y0032178D01*
X0148689Y0032074D01*
X0148717Y0031969D01*
X0148740Y0031862D01*
X0148760Y0031755D01*
X0148776Y0031647D01*
X0148788Y0031539D01*
X0148796Y0031430D01*
X0148800Y0031321D01*
X0148800Y0031213D01*
X0148796Y0031104D01*
X0148788Y0030995D01*
X0148776Y0030887D01*
X0148760Y0030779D01*
X0148740Y0030672D01*
X0148717Y0030565D01*
X0148689Y0030460D01*
X0148658Y0030356D01*
X0148623Y0030252D01*
X0148584Y0030150D01*
X0148542Y0030050D01*
X0148496Y0029951D01*
X0148447Y0029854D01*
X0148394Y0029759D01*
X0148337Y0029666D01*
X0148277Y0029575D01*
X0148214Y0029486D01*
X0148148Y0029400D01*
X0148079Y0029316D01*
X0148006Y0029234D01*
X0147931Y0029155D01*
X0147853Y0029079D01*
X0147772Y0029006D01*
X0147689Y0028936D01*
X0147603Y0028869D01*
X0147515Y0028805D01*
X0147424Y0028745D01*
X0147331Y0028687D01*
X0147237Y0028633D01*
X0147140Y0028583D01*
X0147042Y0028536D01*
X0146942Y0028493D01*
X0146840Y0028453D01*
X0146737Y0028417D01*
X0146633Y0028385D01*
X0146528Y0028357D01*
X0146422Y0028332D01*
X0146315Y0028312D01*
X0146207Y0028295D01*
X0146099Y0028282D01*
X0145991Y0028273D01*
X0145882Y0028268D01*
X0145773Y0028267D01*
X0145664Y0028270D01*
X0145555Y0028277D01*
X0145447Y0028288D01*
X0145339Y0028303D01*
X0145231Y0028321D01*
X0145125Y0028344D01*
X0145019Y0028370D01*
X0144914Y0028401D01*
X0144811Y0028435D01*
X0144709Y0028472D01*
X0144608Y0028514D01*
X0144509Y0028559D01*
X0144411Y0028608D01*
X0144316Y0028660D01*
X0144222Y0028716D01*
X0144130Y0028774D01*
X0144041Y0028837D01*
X0143954Y0028902D01*
X0143869Y0028971D01*
X0143787Y0029042D01*
X0143708Y0029117D01*
X0143631Y0029194D01*
X0143557Y0029274D01*
X0143486Y0029357D01*
X0143419Y0029443D01*
X0143354Y0029530D01*
X0143292Y0029620D01*
X0143234Y0029712D01*
X0143180Y0029806D01*
X0143128Y0029903D01*
X0143080Y0030001D01*
X0143036Y0030100D01*
X0142996Y0030201D01*
X0142959Y0030304D01*
X0142926Y0030408D01*
X0142896Y0030512D01*
X0142871Y0030618D01*
X0142849Y0030725D01*
X0142832Y0030833D01*
X0142818Y0030941D01*
X0142808Y0031049D01*
X0142802Y0031158D01*
X0142800Y0031267D01*
X0153700Y0031267D02*
X0153702Y0031376D01*
X0153708Y0031485D01*
X0153718Y0031593D01*
X0153732Y0031701D01*
X0153749Y0031809D01*
X0153771Y0031916D01*
X0153796Y0032022D01*
X0153826Y0032126D01*
X0153859Y0032230D01*
X0153896Y0032333D01*
X0153936Y0032434D01*
X0153980Y0032533D01*
X0154028Y0032631D01*
X0154080Y0032728D01*
X0154134Y0032822D01*
X0154192Y0032914D01*
X0154254Y0033004D01*
X0154319Y0033091D01*
X0154386Y0033177D01*
X0154457Y0033260D01*
X0154531Y0033340D01*
X0154608Y0033417D01*
X0154687Y0033492D01*
X0154769Y0033563D01*
X0154854Y0033632D01*
X0154941Y0033697D01*
X0155030Y0033760D01*
X0155122Y0033818D01*
X0155216Y0033874D01*
X0155311Y0033926D01*
X0155409Y0033975D01*
X0155508Y0034020D01*
X0155609Y0034062D01*
X0155711Y0034099D01*
X0155814Y0034133D01*
X0155919Y0034164D01*
X0156025Y0034190D01*
X0156131Y0034213D01*
X0156239Y0034231D01*
X0156347Y0034246D01*
X0156455Y0034257D01*
X0156564Y0034264D01*
X0156673Y0034267D01*
X0156782Y0034266D01*
X0156891Y0034261D01*
X0156999Y0034252D01*
X0157107Y0034239D01*
X0157215Y0034222D01*
X0157322Y0034202D01*
X0157428Y0034177D01*
X0157533Y0034149D01*
X0157637Y0034117D01*
X0157740Y0034081D01*
X0157842Y0034041D01*
X0157942Y0033998D01*
X0158040Y0033951D01*
X0158137Y0033901D01*
X0158231Y0033847D01*
X0158324Y0033789D01*
X0158415Y0033729D01*
X0158503Y0033665D01*
X0158589Y0033598D01*
X0158672Y0033528D01*
X0158753Y0033455D01*
X0158831Y0033379D01*
X0158906Y0033300D01*
X0158979Y0033218D01*
X0159048Y0033134D01*
X0159114Y0033048D01*
X0159177Y0032959D01*
X0159237Y0032868D01*
X0159294Y0032775D01*
X0159347Y0032680D01*
X0159396Y0032583D01*
X0159442Y0032484D01*
X0159484Y0032384D01*
X0159523Y0032282D01*
X0159558Y0032178D01*
X0159589Y0032074D01*
X0159617Y0031969D01*
X0159640Y0031862D01*
X0159660Y0031755D01*
X0159676Y0031647D01*
X0159688Y0031539D01*
X0159696Y0031430D01*
X0159700Y0031321D01*
X0159700Y0031213D01*
X0159696Y0031104D01*
X0159688Y0030995D01*
X0159676Y0030887D01*
X0159660Y0030779D01*
X0159640Y0030672D01*
X0159617Y0030565D01*
X0159589Y0030460D01*
X0159558Y0030356D01*
X0159523Y0030252D01*
X0159484Y0030150D01*
X0159442Y0030050D01*
X0159396Y0029951D01*
X0159347Y0029854D01*
X0159294Y0029759D01*
X0159237Y0029666D01*
X0159177Y0029575D01*
X0159114Y0029486D01*
X0159048Y0029400D01*
X0158979Y0029316D01*
X0158906Y0029234D01*
X0158831Y0029155D01*
X0158753Y0029079D01*
X0158672Y0029006D01*
X0158589Y0028936D01*
X0158503Y0028869D01*
X0158415Y0028805D01*
X0158324Y0028745D01*
X0158231Y0028687D01*
X0158137Y0028633D01*
X0158040Y0028583D01*
X0157942Y0028536D01*
X0157842Y0028493D01*
X0157740Y0028453D01*
X0157637Y0028417D01*
X0157533Y0028385D01*
X0157428Y0028357D01*
X0157322Y0028332D01*
X0157215Y0028312D01*
X0157107Y0028295D01*
X0156999Y0028282D01*
X0156891Y0028273D01*
X0156782Y0028268D01*
X0156673Y0028267D01*
X0156564Y0028270D01*
X0156455Y0028277D01*
X0156347Y0028288D01*
X0156239Y0028303D01*
X0156131Y0028321D01*
X0156025Y0028344D01*
X0155919Y0028370D01*
X0155814Y0028401D01*
X0155711Y0028435D01*
X0155609Y0028472D01*
X0155508Y0028514D01*
X0155409Y0028559D01*
X0155311Y0028608D01*
X0155216Y0028660D01*
X0155122Y0028716D01*
X0155030Y0028774D01*
X0154941Y0028837D01*
X0154854Y0028902D01*
X0154769Y0028971D01*
X0154687Y0029042D01*
X0154608Y0029117D01*
X0154531Y0029194D01*
X0154457Y0029274D01*
X0154386Y0029357D01*
X0154319Y0029443D01*
X0154254Y0029530D01*
X0154192Y0029620D01*
X0154134Y0029712D01*
X0154080Y0029806D01*
X0154028Y0029903D01*
X0153980Y0030001D01*
X0153936Y0030100D01*
X0153896Y0030201D01*
X0153859Y0030304D01*
X0153826Y0030408D01*
X0153796Y0030512D01*
X0153771Y0030618D01*
X0153749Y0030725D01*
X0153732Y0030833D01*
X0153718Y0030941D01*
X0153708Y0031049D01*
X0153702Y0031158D01*
X0153700Y0031267D01*
X0164600Y0031267D02*
X0164602Y0031376D01*
X0164608Y0031485D01*
X0164618Y0031593D01*
X0164632Y0031701D01*
X0164649Y0031809D01*
X0164671Y0031916D01*
X0164696Y0032022D01*
X0164726Y0032126D01*
X0164759Y0032230D01*
X0164796Y0032333D01*
X0164836Y0032434D01*
X0164880Y0032533D01*
X0164928Y0032631D01*
X0164980Y0032728D01*
X0165034Y0032822D01*
X0165092Y0032914D01*
X0165154Y0033004D01*
X0165219Y0033091D01*
X0165286Y0033177D01*
X0165357Y0033260D01*
X0165431Y0033340D01*
X0165508Y0033417D01*
X0165587Y0033492D01*
X0165669Y0033563D01*
X0165754Y0033632D01*
X0165841Y0033697D01*
X0165930Y0033760D01*
X0166022Y0033818D01*
X0166116Y0033874D01*
X0166211Y0033926D01*
X0166309Y0033975D01*
X0166408Y0034020D01*
X0166509Y0034062D01*
X0166611Y0034099D01*
X0166714Y0034133D01*
X0166819Y0034164D01*
X0166925Y0034190D01*
X0167031Y0034213D01*
X0167139Y0034231D01*
X0167247Y0034246D01*
X0167355Y0034257D01*
X0167464Y0034264D01*
X0167573Y0034267D01*
X0167682Y0034266D01*
X0167791Y0034261D01*
X0167899Y0034252D01*
X0168007Y0034239D01*
X0168115Y0034222D01*
X0168222Y0034202D01*
X0168328Y0034177D01*
X0168433Y0034149D01*
X0168537Y0034117D01*
X0168640Y0034081D01*
X0168742Y0034041D01*
X0168842Y0033998D01*
X0168940Y0033951D01*
X0169037Y0033901D01*
X0169131Y0033847D01*
X0169224Y0033789D01*
X0169315Y0033729D01*
X0169403Y0033665D01*
X0169489Y0033598D01*
X0169572Y0033528D01*
X0169653Y0033455D01*
X0169731Y0033379D01*
X0169806Y0033300D01*
X0169879Y0033218D01*
X0169948Y0033134D01*
X0170014Y0033048D01*
X0170077Y0032959D01*
X0170137Y0032868D01*
X0170194Y0032775D01*
X0170247Y0032680D01*
X0170296Y0032583D01*
X0170342Y0032484D01*
X0170384Y0032384D01*
X0170423Y0032282D01*
X0170458Y0032178D01*
X0170489Y0032074D01*
X0170517Y0031969D01*
X0170540Y0031862D01*
X0170560Y0031755D01*
X0170576Y0031647D01*
X0170588Y0031539D01*
X0170596Y0031430D01*
X0170600Y0031321D01*
X0170600Y0031213D01*
X0170596Y0031104D01*
X0170588Y0030995D01*
X0170576Y0030887D01*
X0170560Y0030779D01*
X0170540Y0030672D01*
X0170517Y0030565D01*
X0170489Y0030460D01*
X0170458Y0030356D01*
X0170423Y0030252D01*
X0170384Y0030150D01*
X0170342Y0030050D01*
X0170296Y0029951D01*
X0170247Y0029854D01*
X0170194Y0029759D01*
X0170137Y0029666D01*
X0170077Y0029575D01*
X0170014Y0029486D01*
X0169948Y0029400D01*
X0169879Y0029316D01*
X0169806Y0029234D01*
X0169731Y0029155D01*
X0169653Y0029079D01*
X0169572Y0029006D01*
X0169489Y0028936D01*
X0169403Y0028869D01*
X0169315Y0028805D01*
X0169224Y0028745D01*
X0169131Y0028687D01*
X0169037Y0028633D01*
X0168940Y0028583D01*
X0168842Y0028536D01*
X0168742Y0028493D01*
X0168640Y0028453D01*
X0168537Y0028417D01*
X0168433Y0028385D01*
X0168328Y0028357D01*
X0168222Y0028332D01*
X0168115Y0028312D01*
X0168007Y0028295D01*
X0167899Y0028282D01*
X0167791Y0028273D01*
X0167682Y0028268D01*
X0167573Y0028267D01*
X0167464Y0028270D01*
X0167355Y0028277D01*
X0167247Y0028288D01*
X0167139Y0028303D01*
X0167031Y0028321D01*
X0166925Y0028344D01*
X0166819Y0028370D01*
X0166714Y0028401D01*
X0166611Y0028435D01*
X0166509Y0028472D01*
X0166408Y0028514D01*
X0166309Y0028559D01*
X0166211Y0028608D01*
X0166116Y0028660D01*
X0166022Y0028716D01*
X0165930Y0028774D01*
X0165841Y0028837D01*
X0165754Y0028902D01*
X0165669Y0028971D01*
X0165587Y0029042D01*
X0165508Y0029117D01*
X0165431Y0029194D01*
X0165357Y0029274D01*
X0165286Y0029357D01*
X0165219Y0029443D01*
X0165154Y0029530D01*
X0165092Y0029620D01*
X0165034Y0029712D01*
X0164980Y0029806D01*
X0164928Y0029903D01*
X0164880Y0030001D01*
X0164836Y0030100D01*
X0164796Y0030201D01*
X0164759Y0030304D01*
X0164726Y0030408D01*
X0164696Y0030512D01*
X0164671Y0030618D01*
X0164649Y0030725D01*
X0164632Y0030833D01*
X0164618Y0030941D01*
X0164608Y0031049D01*
X0164602Y0031158D01*
X0164600Y0031267D01*
X0175400Y0031267D02*
X0175402Y0031376D01*
X0175408Y0031485D01*
X0175418Y0031593D01*
X0175432Y0031701D01*
X0175449Y0031809D01*
X0175471Y0031916D01*
X0175496Y0032022D01*
X0175526Y0032126D01*
X0175559Y0032230D01*
X0175596Y0032333D01*
X0175636Y0032434D01*
X0175680Y0032533D01*
X0175728Y0032631D01*
X0175780Y0032728D01*
X0175834Y0032822D01*
X0175892Y0032914D01*
X0175954Y0033004D01*
X0176019Y0033091D01*
X0176086Y0033177D01*
X0176157Y0033260D01*
X0176231Y0033340D01*
X0176308Y0033417D01*
X0176387Y0033492D01*
X0176469Y0033563D01*
X0176554Y0033632D01*
X0176641Y0033697D01*
X0176730Y0033760D01*
X0176822Y0033818D01*
X0176916Y0033874D01*
X0177011Y0033926D01*
X0177109Y0033975D01*
X0177208Y0034020D01*
X0177309Y0034062D01*
X0177411Y0034099D01*
X0177514Y0034133D01*
X0177619Y0034164D01*
X0177725Y0034190D01*
X0177831Y0034213D01*
X0177939Y0034231D01*
X0178047Y0034246D01*
X0178155Y0034257D01*
X0178264Y0034264D01*
X0178373Y0034267D01*
X0178482Y0034266D01*
X0178591Y0034261D01*
X0178699Y0034252D01*
X0178807Y0034239D01*
X0178915Y0034222D01*
X0179022Y0034202D01*
X0179128Y0034177D01*
X0179233Y0034149D01*
X0179337Y0034117D01*
X0179440Y0034081D01*
X0179542Y0034041D01*
X0179642Y0033998D01*
X0179740Y0033951D01*
X0179837Y0033901D01*
X0179931Y0033847D01*
X0180024Y0033789D01*
X0180115Y0033729D01*
X0180203Y0033665D01*
X0180289Y0033598D01*
X0180372Y0033528D01*
X0180453Y0033455D01*
X0180531Y0033379D01*
X0180606Y0033300D01*
X0180679Y0033218D01*
X0180748Y0033134D01*
X0180814Y0033048D01*
X0180877Y0032959D01*
X0180937Y0032868D01*
X0180994Y0032775D01*
X0181047Y0032680D01*
X0181096Y0032583D01*
X0181142Y0032484D01*
X0181184Y0032384D01*
X0181223Y0032282D01*
X0181258Y0032178D01*
X0181289Y0032074D01*
X0181317Y0031969D01*
X0181340Y0031862D01*
X0181360Y0031755D01*
X0181376Y0031647D01*
X0181388Y0031539D01*
X0181396Y0031430D01*
X0181400Y0031321D01*
X0181400Y0031213D01*
X0181396Y0031104D01*
X0181388Y0030995D01*
X0181376Y0030887D01*
X0181360Y0030779D01*
X0181340Y0030672D01*
X0181317Y0030565D01*
X0181289Y0030460D01*
X0181258Y0030356D01*
X0181223Y0030252D01*
X0181184Y0030150D01*
X0181142Y0030050D01*
X0181096Y0029951D01*
X0181047Y0029854D01*
X0180994Y0029759D01*
X0180937Y0029666D01*
X0180877Y0029575D01*
X0180814Y0029486D01*
X0180748Y0029400D01*
X0180679Y0029316D01*
X0180606Y0029234D01*
X0180531Y0029155D01*
X0180453Y0029079D01*
X0180372Y0029006D01*
X0180289Y0028936D01*
X0180203Y0028869D01*
X0180115Y0028805D01*
X0180024Y0028745D01*
X0179931Y0028687D01*
X0179837Y0028633D01*
X0179740Y0028583D01*
X0179642Y0028536D01*
X0179542Y0028493D01*
X0179440Y0028453D01*
X0179337Y0028417D01*
X0179233Y0028385D01*
X0179128Y0028357D01*
X0179022Y0028332D01*
X0178915Y0028312D01*
X0178807Y0028295D01*
X0178699Y0028282D01*
X0178591Y0028273D01*
X0178482Y0028268D01*
X0178373Y0028267D01*
X0178264Y0028270D01*
X0178155Y0028277D01*
X0178047Y0028288D01*
X0177939Y0028303D01*
X0177831Y0028321D01*
X0177725Y0028344D01*
X0177619Y0028370D01*
X0177514Y0028401D01*
X0177411Y0028435D01*
X0177309Y0028472D01*
X0177208Y0028514D01*
X0177109Y0028559D01*
X0177011Y0028608D01*
X0176916Y0028660D01*
X0176822Y0028716D01*
X0176730Y0028774D01*
X0176641Y0028837D01*
X0176554Y0028902D01*
X0176469Y0028971D01*
X0176387Y0029042D01*
X0176308Y0029117D01*
X0176231Y0029194D01*
X0176157Y0029274D01*
X0176086Y0029357D01*
X0176019Y0029443D01*
X0175954Y0029530D01*
X0175892Y0029620D01*
X0175834Y0029712D01*
X0175780Y0029806D01*
X0175728Y0029903D01*
X0175680Y0030001D01*
X0175636Y0030100D01*
X0175596Y0030201D01*
X0175559Y0030304D01*
X0175526Y0030408D01*
X0175496Y0030512D01*
X0175471Y0030618D01*
X0175449Y0030725D01*
X0175432Y0030833D01*
X0175418Y0030941D01*
X0175408Y0031049D01*
X0175402Y0031158D01*
X0175400Y0031267D01*
X0186300Y0031267D02*
X0186302Y0031376D01*
X0186308Y0031485D01*
X0186318Y0031593D01*
X0186332Y0031701D01*
X0186349Y0031809D01*
X0186371Y0031916D01*
X0186396Y0032022D01*
X0186426Y0032126D01*
X0186459Y0032230D01*
X0186496Y0032333D01*
X0186536Y0032434D01*
X0186580Y0032533D01*
X0186628Y0032631D01*
X0186680Y0032728D01*
X0186734Y0032822D01*
X0186792Y0032914D01*
X0186854Y0033004D01*
X0186919Y0033091D01*
X0186986Y0033177D01*
X0187057Y0033260D01*
X0187131Y0033340D01*
X0187208Y0033417D01*
X0187287Y0033492D01*
X0187369Y0033563D01*
X0187454Y0033632D01*
X0187541Y0033697D01*
X0187630Y0033760D01*
X0187722Y0033818D01*
X0187816Y0033874D01*
X0187911Y0033926D01*
X0188009Y0033975D01*
X0188108Y0034020D01*
X0188209Y0034062D01*
X0188311Y0034099D01*
X0188414Y0034133D01*
X0188519Y0034164D01*
X0188625Y0034190D01*
X0188731Y0034213D01*
X0188839Y0034231D01*
X0188947Y0034246D01*
X0189055Y0034257D01*
X0189164Y0034264D01*
X0189273Y0034267D01*
X0189382Y0034266D01*
X0189491Y0034261D01*
X0189599Y0034252D01*
X0189707Y0034239D01*
X0189815Y0034222D01*
X0189922Y0034202D01*
X0190028Y0034177D01*
X0190133Y0034149D01*
X0190237Y0034117D01*
X0190340Y0034081D01*
X0190442Y0034041D01*
X0190542Y0033998D01*
X0190640Y0033951D01*
X0190737Y0033901D01*
X0190831Y0033847D01*
X0190924Y0033789D01*
X0191015Y0033729D01*
X0191103Y0033665D01*
X0191189Y0033598D01*
X0191272Y0033528D01*
X0191353Y0033455D01*
X0191431Y0033379D01*
X0191506Y0033300D01*
X0191579Y0033218D01*
X0191648Y0033134D01*
X0191714Y0033048D01*
X0191777Y0032959D01*
X0191837Y0032868D01*
X0191894Y0032775D01*
X0191947Y0032680D01*
X0191996Y0032583D01*
X0192042Y0032484D01*
X0192084Y0032384D01*
X0192123Y0032282D01*
X0192158Y0032178D01*
X0192189Y0032074D01*
X0192217Y0031969D01*
X0192240Y0031862D01*
X0192260Y0031755D01*
X0192276Y0031647D01*
X0192288Y0031539D01*
X0192296Y0031430D01*
X0192300Y0031321D01*
X0192300Y0031213D01*
X0192296Y0031104D01*
X0192288Y0030995D01*
X0192276Y0030887D01*
X0192260Y0030779D01*
X0192240Y0030672D01*
X0192217Y0030565D01*
X0192189Y0030460D01*
X0192158Y0030356D01*
X0192123Y0030252D01*
X0192084Y0030150D01*
X0192042Y0030050D01*
X0191996Y0029951D01*
X0191947Y0029854D01*
X0191894Y0029759D01*
X0191837Y0029666D01*
X0191777Y0029575D01*
X0191714Y0029486D01*
X0191648Y0029400D01*
X0191579Y0029316D01*
X0191506Y0029234D01*
X0191431Y0029155D01*
X0191353Y0029079D01*
X0191272Y0029006D01*
X0191189Y0028936D01*
X0191103Y0028869D01*
X0191015Y0028805D01*
X0190924Y0028745D01*
X0190831Y0028687D01*
X0190737Y0028633D01*
X0190640Y0028583D01*
X0190542Y0028536D01*
X0190442Y0028493D01*
X0190340Y0028453D01*
X0190237Y0028417D01*
X0190133Y0028385D01*
X0190028Y0028357D01*
X0189922Y0028332D01*
X0189815Y0028312D01*
X0189707Y0028295D01*
X0189599Y0028282D01*
X0189491Y0028273D01*
X0189382Y0028268D01*
X0189273Y0028267D01*
X0189164Y0028270D01*
X0189055Y0028277D01*
X0188947Y0028288D01*
X0188839Y0028303D01*
X0188731Y0028321D01*
X0188625Y0028344D01*
X0188519Y0028370D01*
X0188414Y0028401D01*
X0188311Y0028435D01*
X0188209Y0028472D01*
X0188108Y0028514D01*
X0188009Y0028559D01*
X0187911Y0028608D01*
X0187816Y0028660D01*
X0187722Y0028716D01*
X0187630Y0028774D01*
X0187541Y0028837D01*
X0187454Y0028902D01*
X0187369Y0028971D01*
X0187287Y0029042D01*
X0187208Y0029117D01*
X0187131Y0029194D01*
X0187057Y0029274D01*
X0186986Y0029357D01*
X0186919Y0029443D01*
X0186854Y0029530D01*
X0186792Y0029620D01*
X0186734Y0029712D01*
X0186680Y0029806D01*
X0186628Y0029903D01*
X0186580Y0030001D01*
X0186536Y0030100D01*
X0186496Y0030201D01*
X0186459Y0030304D01*
X0186426Y0030408D01*
X0186396Y0030512D01*
X0186371Y0030618D01*
X0186349Y0030725D01*
X0186332Y0030833D01*
X0186318Y0030941D01*
X0186308Y0031049D01*
X0186302Y0031158D01*
X0186300Y0031267D01*
X0197200Y0031267D02*
X0197202Y0031376D01*
X0197208Y0031485D01*
X0197218Y0031593D01*
X0197232Y0031701D01*
X0197249Y0031809D01*
X0197271Y0031916D01*
X0197296Y0032022D01*
X0197326Y0032126D01*
X0197359Y0032230D01*
X0197396Y0032333D01*
X0197436Y0032434D01*
X0197480Y0032533D01*
X0197528Y0032631D01*
X0197580Y0032728D01*
X0197634Y0032822D01*
X0197692Y0032914D01*
X0197754Y0033004D01*
X0197819Y0033091D01*
X0197886Y0033177D01*
X0197957Y0033260D01*
X0198031Y0033340D01*
X0198108Y0033417D01*
X0198187Y0033492D01*
X0198269Y0033563D01*
X0198354Y0033632D01*
X0198441Y0033697D01*
X0198530Y0033760D01*
X0198622Y0033818D01*
X0198716Y0033874D01*
X0198811Y0033926D01*
X0198909Y0033975D01*
X0199008Y0034020D01*
X0199109Y0034062D01*
X0199211Y0034099D01*
X0199314Y0034133D01*
X0199419Y0034164D01*
X0199525Y0034190D01*
X0199631Y0034213D01*
X0199739Y0034231D01*
X0199847Y0034246D01*
X0199955Y0034257D01*
X0200064Y0034264D01*
X0200173Y0034267D01*
X0200282Y0034266D01*
X0200391Y0034261D01*
X0200499Y0034252D01*
X0200607Y0034239D01*
X0200715Y0034222D01*
X0200822Y0034202D01*
X0200928Y0034177D01*
X0201033Y0034149D01*
X0201137Y0034117D01*
X0201240Y0034081D01*
X0201342Y0034041D01*
X0201442Y0033998D01*
X0201540Y0033951D01*
X0201637Y0033901D01*
X0201731Y0033847D01*
X0201824Y0033789D01*
X0201915Y0033729D01*
X0202003Y0033665D01*
X0202089Y0033598D01*
X0202172Y0033528D01*
X0202253Y0033455D01*
X0202331Y0033379D01*
X0202406Y0033300D01*
X0202479Y0033218D01*
X0202548Y0033134D01*
X0202614Y0033048D01*
X0202677Y0032959D01*
X0202737Y0032868D01*
X0202794Y0032775D01*
X0202847Y0032680D01*
X0202896Y0032583D01*
X0202942Y0032484D01*
X0202984Y0032384D01*
X0203023Y0032282D01*
X0203058Y0032178D01*
X0203089Y0032074D01*
X0203117Y0031969D01*
X0203140Y0031862D01*
X0203160Y0031755D01*
X0203176Y0031647D01*
X0203188Y0031539D01*
X0203196Y0031430D01*
X0203200Y0031321D01*
X0203200Y0031213D01*
X0203196Y0031104D01*
X0203188Y0030995D01*
X0203176Y0030887D01*
X0203160Y0030779D01*
X0203140Y0030672D01*
X0203117Y0030565D01*
X0203089Y0030460D01*
X0203058Y0030356D01*
X0203023Y0030252D01*
X0202984Y0030150D01*
X0202942Y0030050D01*
X0202896Y0029951D01*
X0202847Y0029854D01*
X0202794Y0029759D01*
X0202737Y0029666D01*
X0202677Y0029575D01*
X0202614Y0029486D01*
X0202548Y0029400D01*
X0202479Y0029316D01*
X0202406Y0029234D01*
X0202331Y0029155D01*
X0202253Y0029079D01*
X0202172Y0029006D01*
X0202089Y0028936D01*
X0202003Y0028869D01*
X0201915Y0028805D01*
X0201824Y0028745D01*
X0201731Y0028687D01*
X0201637Y0028633D01*
X0201540Y0028583D01*
X0201442Y0028536D01*
X0201342Y0028493D01*
X0201240Y0028453D01*
X0201137Y0028417D01*
X0201033Y0028385D01*
X0200928Y0028357D01*
X0200822Y0028332D01*
X0200715Y0028312D01*
X0200607Y0028295D01*
X0200499Y0028282D01*
X0200391Y0028273D01*
X0200282Y0028268D01*
X0200173Y0028267D01*
X0200064Y0028270D01*
X0199955Y0028277D01*
X0199847Y0028288D01*
X0199739Y0028303D01*
X0199631Y0028321D01*
X0199525Y0028344D01*
X0199419Y0028370D01*
X0199314Y0028401D01*
X0199211Y0028435D01*
X0199109Y0028472D01*
X0199008Y0028514D01*
X0198909Y0028559D01*
X0198811Y0028608D01*
X0198716Y0028660D01*
X0198622Y0028716D01*
X0198530Y0028774D01*
X0198441Y0028837D01*
X0198354Y0028902D01*
X0198269Y0028971D01*
X0198187Y0029042D01*
X0198108Y0029117D01*
X0198031Y0029194D01*
X0197957Y0029274D01*
X0197886Y0029357D01*
X0197819Y0029443D01*
X0197754Y0029530D01*
X0197692Y0029620D01*
X0197634Y0029712D01*
X0197580Y0029806D01*
X0197528Y0029903D01*
X0197480Y0030001D01*
X0197436Y0030100D01*
X0197396Y0030201D01*
X0197359Y0030304D01*
X0197326Y0030408D01*
X0197296Y0030512D01*
X0197271Y0030618D01*
X0197249Y0030725D01*
X0197232Y0030833D01*
X0197218Y0030941D01*
X0197208Y0031049D01*
X0197202Y0031158D01*
X0197200Y0031267D01*
X0208000Y0031267D02*
X0208002Y0031376D01*
X0208008Y0031485D01*
X0208018Y0031593D01*
X0208032Y0031701D01*
X0208049Y0031809D01*
X0208071Y0031916D01*
X0208096Y0032022D01*
X0208126Y0032126D01*
X0208159Y0032230D01*
X0208196Y0032333D01*
X0208236Y0032434D01*
X0208280Y0032533D01*
X0208328Y0032631D01*
X0208380Y0032728D01*
X0208434Y0032822D01*
X0208492Y0032914D01*
X0208554Y0033004D01*
X0208619Y0033091D01*
X0208686Y0033177D01*
X0208757Y0033260D01*
X0208831Y0033340D01*
X0208908Y0033417D01*
X0208987Y0033492D01*
X0209069Y0033563D01*
X0209154Y0033632D01*
X0209241Y0033697D01*
X0209330Y0033760D01*
X0209422Y0033818D01*
X0209516Y0033874D01*
X0209611Y0033926D01*
X0209709Y0033975D01*
X0209808Y0034020D01*
X0209909Y0034062D01*
X0210011Y0034099D01*
X0210114Y0034133D01*
X0210219Y0034164D01*
X0210325Y0034190D01*
X0210431Y0034213D01*
X0210539Y0034231D01*
X0210647Y0034246D01*
X0210755Y0034257D01*
X0210864Y0034264D01*
X0210973Y0034267D01*
X0211082Y0034266D01*
X0211191Y0034261D01*
X0211299Y0034252D01*
X0211407Y0034239D01*
X0211515Y0034222D01*
X0211622Y0034202D01*
X0211728Y0034177D01*
X0211833Y0034149D01*
X0211937Y0034117D01*
X0212040Y0034081D01*
X0212142Y0034041D01*
X0212242Y0033998D01*
X0212340Y0033951D01*
X0212437Y0033901D01*
X0212531Y0033847D01*
X0212624Y0033789D01*
X0212715Y0033729D01*
X0212803Y0033665D01*
X0212889Y0033598D01*
X0212972Y0033528D01*
X0213053Y0033455D01*
X0213131Y0033379D01*
X0213206Y0033300D01*
X0213279Y0033218D01*
X0213348Y0033134D01*
X0213414Y0033048D01*
X0213477Y0032959D01*
X0213537Y0032868D01*
X0213594Y0032775D01*
X0213647Y0032680D01*
X0213696Y0032583D01*
X0213742Y0032484D01*
X0213784Y0032384D01*
X0213823Y0032282D01*
X0213858Y0032178D01*
X0213889Y0032074D01*
X0213917Y0031969D01*
X0213940Y0031862D01*
X0213960Y0031755D01*
X0213976Y0031647D01*
X0213988Y0031539D01*
X0213996Y0031430D01*
X0214000Y0031321D01*
X0214000Y0031213D01*
X0213996Y0031104D01*
X0213988Y0030995D01*
X0213976Y0030887D01*
X0213960Y0030779D01*
X0213940Y0030672D01*
X0213917Y0030565D01*
X0213889Y0030460D01*
X0213858Y0030356D01*
X0213823Y0030252D01*
X0213784Y0030150D01*
X0213742Y0030050D01*
X0213696Y0029951D01*
X0213647Y0029854D01*
X0213594Y0029759D01*
X0213537Y0029666D01*
X0213477Y0029575D01*
X0213414Y0029486D01*
X0213348Y0029400D01*
X0213279Y0029316D01*
X0213206Y0029234D01*
X0213131Y0029155D01*
X0213053Y0029079D01*
X0212972Y0029006D01*
X0212889Y0028936D01*
X0212803Y0028869D01*
X0212715Y0028805D01*
X0212624Y0028745D01*
X0212531Y0028687D01*
X0212437Y0028633D01*
X0212340Y0028583D01*
X0212242Y0028536D01*
X0212142Y0028493D01*
X0212040Y0028453D01*
X0211937Y0028417D01*
X0211833Y0028385D01*
X0211728Y0028357D01*
X0211622Y0028332D01*
X0211515Y0028312D01*
X0211407Y0028295D01*
X0211299Y0028282D01*
X0211191Y0028273D01*
X0211082Y0028268D01*
X0210973Y0028267D01*
X0210864Y0028270D01*
X0210755Y0028277D01*
X0210647Y0028288D01*
X0210539Y0028303D01*
X0210431Y0028321D01*
X0210325Y0028344D01*
X0210219Y0028370D01*
X0210114Y0028401D01*
X0210011Y0028435D01*
X0209909Y0028472D01*
X0209808Y0028514D01*
X0209709Y0028559D01*
X0209611Y0028608D01*
X0209516Y0028660D01*
X0209422Y0028716D01*
X0209330Y0028774D01*
X0209241Y0028837D01*
X0209154Y0028902D01*
X0209069Y0028971D01*
X0208987Y0029042D01*
X0208908Y0029117D01*
X0208831Y0029194D01*
X0208757Y0029274D01*
X0208686Y0029357D01*
X0208619Y0029443D01*
X0208554Y0029530D01*
X0208492Y0029620D01*
X0208434Y0029712D01*
X0208380Y0029806D01*
X0208328Y0029903D01*
X0208280Y0030001D01*
X0208236Y0030100D01*
X0208196Y0030201D01*
X0208159Y0030304D01*
X0208126Y0030408D01*
X0208096Y0030512D01*
X0208071Y0030618D01*
X0208049Y0030725D01*
X0208032Y0030833D01*
X0208018Y0030941D01*
X0208008Y0031049D01*
X0208002Y0031158D01*
X0208000Y0031267D01*
X0218900Y0031267D02*
X0218902Y0031376D01*
X0218908Y0031485D01*
X0218918Y0031593D01*
X0218932Y0031701D01*
X0218949Y0031809D01*
X0218971Y0031916D01*
X0218996Y0032022D01*
X0219026Y0032126D01*
X0219059Y0032230D01*
X0219096Y0032333D01*
X0219136Y0032434D01*
X0219180Y0032533D01*
X0219228Y0032631D01*
X0219280Y0032728D01*
X0219334Y0032822D01*
X0219392Y0032914D01*
X0219454Y0033004D01*
X0219519Y0033091D01*
X0219586Y0033177D01*
X0219657Y0033260D01*
X0219731Y0033340D01*
X0219808Y0033417D01*
X0219887Y0033492D01*
X0219969Y0033563D01*
X0220054Y0033632D01*
X0220141Y0033697D01*
X0220230Y0033760D01*
X0220322Y0033818D01*
X0220416Y0033874D01*
X0220511Y0033926D01*
X0220609Y0033975D01*
X0220708Y0034020D01*
X0220809Y0034062D01*
X0220911Y0034099D01*
X0221014Y0034133D01*
X0221119Y0034164D01*
X0221225Y0034190D01*
X0221331Y0034213D01*
X0221439Y0034231D01*
X0221547Y0034246D01*
X0221655Y0034257D01*
X0221764Y0034264D01*
X0221873Y0034267D01*
X0221982Y0034266D01*
X0222091Y0034261D01*
X0222199Y0034252D01*
X0222307Y0034239D01*
X0222415Y0034222D01*
X0222522Y0034202D01*
X0222628Y0034177D01*
X0222733Y0034149D01*
X0222837Y0034117D01*
X0222940Y0034081D01*
X0223042Y0034041D01*
X0223142Y0033998D01*
X0223240Y0033951D01*
X0223337Y0033901D01*
X0223431Y0033847D01*
X0223524Y0033789D01*
X0223615Y0033729D01*
X0223703Y0033665D01*
X0223789Y0033598D01*
X0223872Y0033528D01*
X0223953Y0033455D01*
X0224031Y0033379D01*
X0224106Y0033300D01*
X0224179Y0033218D01*
X0224248Y0033134D01*
X0224314Y0033048D01*
X0224377Y0032959D01*
X0224437Y0032868D01*
X0224494Y0032775D01*
X0224547Y0032680D01*
X0224596Y0032583D01*
X0224642Y0032484D01*
X0224684Y0032384D01*
X0224723Y0032282D01*
X0224758Y0032178D01*
X0224789Y0032074D01*
X0224817Y0031969D01*
X0224840Y0031862D01*
X0224860Y0031755D01*
X0224876Y0031647D01*
X0224888Y0031539D01*
X0224896Y0031430D01*
X0224900Y0031321D01*
X0224900Y0031213D01*
X0224896Y0031104D01*
X0224888Y0030995D01*
X0224876Y0030887D01*
X0224860Y0030779D01*
X0224840Y0030672D01*
X0224817Y0030565D01*
X0224789Y0030460D01*
X0224758Y0030356D01*
X0224723Y0030252D01*
X0224684Y0030150D01*
X0224642Y0030050D01*
X0224596Y0029951D01*
X0224547Y0029854D01*
X0224494Y0029759D01*
X0224437Y0029666D01*
X0224377Y0029575D01*
X0224314Y0029486D01*
X0224248Y0029400D01*
X0224179Y0029316D01*
X0224106Y0029234D01*
X0224031Y0029155D01*
X0223953Y0029079D01*
X0223872Y0029006D01*
X0223789Y0028936D01*
X0223703Y0028869D01*
X0223615Y0028805D01*
X0223524Y0028745D01*
X0223431Y0028687D01*
X0223337Y0028633D01*
X0223240Y0028583D01*
X0223142Y0028536D01*
X0223042Y0028493D01*
X0222940Y0028453D01*
X0222837Y0028417D01*
X0222733Y0028385D01*
X0222628Y0028357D01*
X0222522Y0028332D01*
X0222415Y0028312D01*
X0222307Y0028295D01*
X0222199Y0028282D01*
X0222091Y0028273D01*
X0221982Y0028268D01*
X0221873Y0028267D01*
X0221764Y0028270D01*
X0221655Y0028277D01*
X0221547Y0028288D01*
X0221439Y0028303D01*
X0221331Y0028321D01*
X0221225Y0028344D01*
X0221119Y0028370D01*
X0221014Y0028401D01*
X0220911Y0028435D01*
X0220809Y0028472D01*
X0220708Y0028514D01*
X0220609Y0028559D01*
X0220511Y0028608D01*
X0220416Y0028660D01*
X0220322Y0028716D01*
X0220230Y0028774D01*
X0220141Y0028837D01*
X0220054Y0028902D01*
X0219969Y0028971D01*
X0219887Y0029042D01*
X0219808Y0029117D01*
X0219731Y0029194D01*
X0219657Y0029274D01*
X0219586Y0029357D01*
X0219519Y0029443D01*
X0219454Y0029530D01*
X0219392Y0029620D01*
X0219334Y0029712D01*
X0219280Y0029806D01*
X0219228Y0029903D01*
X0219180Y0030001D01*
X0219136Y0030100D01*
X0219096Y0030201D01*
X0219059Y0030304D01*
X0219026Y0030408D01*
X0218996Y0030512D01*
X0218971Y0030618D01*
X0218949Y0030725D01*
X0218932Y0030833D01*
X0218918Y0030941D01*
X0218908Y0031049D01*
X0218902Y0031158D01*
X0218900Y0031267D01*
X0229800Y0031267D02*
X0229802Y0031376D01*
X0229808Y0031485D01*
X0229818Y0031593D01*
X0229832Y0031701D01*
X0229849Y0031809D01*
X0229871Y0031916D01*
X0229896Y0032022D01*
X0229926Y0032126D01*
X0229959Y0032230D01*
X0229996Y0032333D01*
X0230036Y0032434D01*
X0230080Y0032533D01*
X0230128Y0032631D01*
X0230180Y0032728D01*
X0230234Y0032822D01*
X0230292Y0032914D01*
X0230354Y0033004D01*
X0230419Y0033091D01*
X0230486Y0033177D01*
X0230557Y0033260D01*
X0230631Y0033340D01*
X0230708Y0033417D01*
X0230787Y0033492D01*
X0230869Y0033563D01*
X0230954Y0033632D01*
X0231041Y0033697D01*
X0231130Y0033760D01*
X0231222Y0033818D01*
X0231316Y0033874D01*
X0231411Y0033926D01*
X0231509Y0033975D01*
X0231608Y0034020D01*
X0231709Y0034062D01*
X0231811Y0034099D01*
X0231914Y0034133D01*
X0232019Y0034164D01*
X0232125Y0034190D01*
X0232231Y0034213D01*
X0232339Y0034231D01*
X0232447Y0034246D01*
X0232555Y0034257D01*
X0232664Y0034264D01*
X0232773Y0034267D01*
X0232882Y0034266D01*
X0232991Y0034261D01*
X0233099Y0034252D01*
X0233207Y0034239D01*
X0233315Y0034222D01*
X0233422Y0034202D01*
X0233528Y0034177D01*
X0233633Y0034149D01*
X0233737Y0034117D01*
X0233840Y0034081D01*
X0233942Y0034041D01*
X0234042Y0033998D01*
X0234140Y0033951D01*
X0234237Y0033901D01*
X0234331Y0033847D01*
X0234424Y0033789D01*
X0234515Y0033729D01*
X0234603Y0033665D01*
X0234689Y0033598D01*
X0234772Y0033528D01*
X0234853Y0033455D01*
X0234931Y0033379D01*
X0235006Y0033300D01*
X0235079Y0033218D01*
X0235148Y0033134D01*
X0235214Y0033048D01*
X0235277Y0032959D01*
X0235337Y0032868D01*
X0235394Y0032775D01*
X0235447Y0032680D01*
X0235496Y0032583D01*
X0235542Y0032484D01*
X0235584Y0032384D01*
X0235623Y0032282D01*
X0235658Y0032178D01*
X0235689Y0032074D01*
X0235717Y0031969D01*
X0235740Y0031862D01*
X0235760Y0031755D01*
X0235776Y0031647D01*
X0235788Y0031539D01*
X0235796Y0031430D01*
X0235800Y0031321D01*
X0235800Y0031213D01*
X0235796Y0031104D01*
X0235788Y0030995D01*
X0235776Y0030887D01*
X0235760Y0030779D01*
X0235740Y0030672D01*
X0235717Y0030565D01*
X0235689Y0030460D01*
X0235658Y0030356D01*
X0235623Y0030252D01*
X0235584Y0030150D01*
X0235542Y0030050D01*
X0235496Y0029951D01*
X0235447Y0029854D01*
X0235394Y0029759D01*
X0235337Y0029666D01*
X0235277Y0029575D01*
X0235214Y0029486D01*
X0235148Y0029400D01*
X0235079Y0029316D01*
X0235006Y0029234D01*
X0234931Y0029155D01*
X0234853Y0029079D01*
X0234772Y0029006D01*
X0234689Y0028936D01*
X0234603Y0028869D01*
X0234515Y0028805D01*
X0234424Y0028745D01*
X0234331Y0028687D01*
X0234237Y0028633D01*
X0234140Y0028583D01*
X0234042Y0028536D01*
X0233942Y0028493D01*
X0233840Y0028453D01*
X0233737Y0028417D01*
X0233633Y0028385D01*
X0233528Y0028357D01*
X0233422Y0028332D01*
X0233315Y0028312D01*
X0233207Y0028295D01*
X0233099Y0028282D01*
X0232991Y0028273D01*
X0232882Y0028268D01*
X0232773Y0028267D01*
X0232664Y0028270D01*
X0232555Y0028277D01*
X0232447Y0028288D01*
X0232339Y0028303D01*
X0232231Y0028321D01*
X0232125Y0028344D01*
X0232019Y0028370D01*
X0231914Y0028401D01*
X0231811Y0028435D01*
X0231709Y0028472D01*
X0231608Y0028514D01*
X0231509Y0028559D01*
X0231411Y0028608D01*
X0231316Y0028660D01*
X0231222Y0028716D01*
X0231130Y0028774D01*
X0231041Y0028837D01*
X0230954Y0028902D01*
X0230869Y0028971D01*
X0230787Y0029042D01*
X0230708Y0029117D01*
X0230631Y0029194D01*
X0230557Y0029274D01*
X0230486Y0029357D01*
X0230419Y0029443D01*
X0230354Y0029530D01*
X0230292Y0029620D01*
X0230234Y0029712D01*
X0230180Y0029806D01*
X0230128Y0029903D01*
X0230080Y0030001D01*
X0230036Y0030100D01*
X0229996Y0030201D01*
X0229959Y0030304D01*
X0229926Y0030408D01*
X0229896Y0030512D01*
X0229871Y0030618D01*
X0229849Y0030725D01*
X0229832Y0030833D01*
X0229818Y0030941D01*
X0229808Y0031049D01*
X0229802Y0031158D01*
X0229800Y0031267D01*
X0240600Y0031267D02*
X0240602Y0031376D01*
X0240608Y0031485D01*
X0240618Y0031593D01*
X0240632Y0031701D01*
X0240649Y0031809D01*
X0240671Y0031916D01*
X0240696Y0032022D01*
X0240726Y0032126D01*
X0240759Y0032230D01*
X0240796Y0032333D01*
X0240836Y0032434D01*
X0240880Y0032533D01*
X0240928Y0032631D01*
X0240980Y0032728D01*
X0241034Y0032822D01*
X0241092Y0032914D01*
X0241154Y0033004D01*
X0241219Y0033091D01*
X0241286Y0033177D01*
X0241357Y0033260D01*
X0241431Y0033340D01*
X0241508Y0033417D01*
X0241587Y0033492D01*
X0241669Y0033563D01*
X0241754Y0033632D01*
X0241841Y0033697D01*
X0241930Y0033760D01*
X0242022Y0033818D01*
X0242116Y0033874D01*
X0242211Y0033926D01*
X0242309Y0033975D01*
X0242408Y0034020D01*
X0242509Y0034062D01*
X0242611Y0034099D01*
X0242714Y0034133D01*
X0242819Y0034164D01*
X0242925Y0034190D01*
X0243031Y0034213D01*
X0243139Y0034231D01*
X0243247Y0034246D01*
X0243355Y0034257D01*
X0243464Y0034264D01*
X0243573Y0034267D01*
X0243682Y0034266D01*
X0243791Y0034261D01*
X0243899Y0034252D01*
X0244007Y0034239D01*
X0244115Y0034222D01*
X0244222Y0034202D01*
X0244328Y0034177D01*
X0244433Y0034149D01*
X0244537Y0034117D01*
X0244640Y0034081D01*
X0244742Y0034041D01*
X0244842Y0033998D01*
X0244940Y0033951D01*
X0245037Y0033901D01*
X0245131Y0033847D01*
X0245224Y0033789D01*
X0245315Y0033729D01*
X0245403Y0033665D01*
X0245489Y0033598D01*
X0245572Y0033528D01*
X0245653Y0033455D01*
X0245731Y0033379D01*
X0245806Y0033300D01*
X0245879Y0033218D01*
X0245948Y0033134D01*
X0246014Y0033048D01*
X0246077Y0032959D01*
X0246137Y0032868D01*
X0246194Y0032775D01*
X0246247Y0032680D01*
X0246296Y0032583D01*
X0246342Y0032484D01*
X0246384Y0032384D01*
X0246423Y0032282D01*
X0246458Y0032178D01*
X0246489Y0032074D01*
X0246517Y0031969D01*
X0246540Y0031862D01*
X0246560Y0031755D01*
X0246576Y0031647D01*
X0246588Y0031539D01*
X0246596Y0031430D01*
X0246600Y0031321D01*
X0246600Y0031213D01*
X0246596Y0031104D01*
X0246588Y0030995D01*
X0246576Y0030887D01*
X0246560Y0030779D01*
X0246540Y0030672D01*
X0246517Y0030565D01*
X0246489Y0030460D01*
X0246458Y0030356D01*
X0246423Y0030252D01*
X0246384Y0030150D01*
X0246342Y0030050D01*
X0246296Y0029951D01*
X0246247Y0029854D01*
X0246194Y0029759D01*
X0246137Y0029666D01*
X0246077Y0029575D01*
X0246014Y0029486D01*
X0245948Y0029400D01*
X0245879Y0029316D01*
X0245806Y0029234D01*
X0245731Y0029155D01*
X0245653Y0029079D01*
X0245572Y0029006D01*
X0245489Y0028936D01*
X0245403Y0028869D01*
X0245315Y0028805D01*
X0245224Y0028745D01*
X0245131Y0028687D01*
X0245037Y0028633D01*
X0244940Y0028583D01*
X0244842Y0028536D01*
X0244742Y0028493D01*
X0244640Y0028453D01*
X0244537Y0028417D01*
X0244433Y0028385D01*
X0244328Y0028357D01*
X0244222Y0028332D01*
X0244115Y0028312D01*
X0244007Y0028295D01*
X0243899Y0028282D01*
X0243791Y0028273D01*
X0243682Y0028268D01*
X0243573Y0028267D01*
X0243464Y0028270D01*
X0243355Y0028277D01*
X0243247Y0028288D01*
X0243139Y0028303D01*
X0243031Y0028321D01*
X0242925Y0028344D01*
X0242819Y0028370D01*
X0242714Y0028401D01*
X0242611Y0028435D01*
X0242509Y0028472D01*
X0242408Y0028514D01*
X0242309Y0028559D01*
X0242211Y0028608D01*
X0242116Y0028660D01*
X0242022Y0028716D01*
X0241930Y0028774D01*
X0241841Y0028837D01*
X0241754Y0028902D01*
X0241669Y0028971D01*
X0241587Y0029042D01*
X0241508Y0029117D01*
X0241431Y0029194D01*
X0241357Y0029274D01*
X0241286Y0029357D01*
X0241219Y0029443D01*
X0241154Y0029530D01*
X0241092Y0029620D01*
X0241034Y0029712D01*
X0240980Y0029806D01*
X0240928Y0029903D01*
X0240880Y0030001D01*
X0240836Y0030100D01*
X0240796Y0030201D01*
X0240759Y0030304D01*
X0240726Y0030408D01*
X0240696Y0030512D01*
X0240671Y0030618D01*
X0240649Y0030725D01*
X0240632Y0030833D01*
X0240618Y0030941D01*
X0240608Y0031049D01*
X0240602Y0031158D01*
X0240600Y0031267D01*
X0251500Y0031267D02*
X0251502Y0031376D01*
X0251508Y0031485D01*
X0251518Y0031593D01*
X0251532Y0031701D01*
X0251549Y0031809D01*
X0251571Y0031916D01*
X0251596Y0032022D01*
X0251626Y0032126D01*
X0251659Y0032230D01*
X0251696Y0032333D01*
X0251736Y0032434D01*
X0251780Y0032533D01*
X0251828Y0032631D01*
X0251880Y0032728D01*
X0251934Y0032822D01*
X0251992Y0032914D01*
X0252054Y0033004D01*
X0252119Y0033091D01*
X0252186Y0033177D01*
X0252257Y0033260D01*
X0252331Y0033340D01*
X0252408Y0033417D01*
X0252487Y0033492D01*
X0252569Y0033563D01*
X0252654Y0033632D01*
X0252741Y0033697D01*
X0252830Y0033760D01*
X0252922Y0033818D01*
X0253016Y0033874D01*
X0253111Y0033926D01*
X0253209Y0033975D01*
X0253308Y0034020D01*
X0253409Y0034062D01*
X0253511Y0034099D01*
X0253614Y0034133D01*
X0253719Y0034164D01*
X0253825Y0034190D01*
X0253931Y0034213D01*
X0254039Y0034231D01*
X0254147Y0034246D01*
X0254255Y0034257D01*
X0254364Y0034264D01*
X0254473Y0034267D01*
X0254582Y0034266D01*
X0254691Y0034261D01*
X0254799Y0034252D01*
X0254907Y0034239D01*
X0255015Y0034222D01*
X0255122Y0034202D01*
X0255228Y0034177D01*
X0255333Y0034149D01*
X0255437Y0034117D01*
X0255540Y0034081D01*
X0255642Y0034041D01*
X0255742Y0033998D01*
X0255840Y0033951D01*
X0255937Y0033901D01*
X0256031Y0033847D01*
X0256124Y0033789D01*
X0256215Y0033729D01*
X0256303Y0033665D01*
X0256389Y0033598D01*
X0256472Y0033528D01*
X0256553Y0033455D01*
X0256631Y0033379D01*
X0256706Y0033300D01*
X0256779Y0033218D01*
X0256848Y0033134D01*
X0256914Y0033048D01*
X0256977Y0032959D01*
X0257037Y0032868D01*
X0257094Y0032775D01*
X0257147Y0032680D01*
X0257196Y0032583D01*
X0257242Y0032484D01*
X0257284Y0032384D01*
X0257323Y0032282D01*
X0257358Y0032178D01*
X0257389Y0032074D01*
X0257417Y0031969D01*
X0257440Y0031862D01*
X0257460Y0031755D01*
X0257476Y0031647D01*
X0257488Y0031539D01*
X0257496Y0031430D01*
X0257500Y0031321D01*
X0257500Y0031213D01*
X0257496Y0031104D01*
X0257488Y0030995D01*
X0257476Y0030887D01*
X0257460Y0030779D01*
X0257440Y0030672D01*
X0257417Y0030565D01*
X0257389Y0030460D01*
X0257358Y0030356D01*
X0257323Y0030252D01*
X0257284Y0030150D01*
X0257242Y0030050D01*
X0257196Y0029951D01*
X0257147Y0029854D01*
X0257094Y0029759D01*
X0257037Y0029666D01*
X0256977Y0029575D01*
X0256914Y0029486D01*
X0256848Y0029400D01*
X0256779Y0029316D01*
X0256706Y0029234D01*
X0256631Y0029155D01*
X0256553Y0029079D01*
X0256472Y0029006D01*
X0256389Y0028936D01*
X0256303Y0028869D01*
X0256215Y0028805D01*
X0256124Y0028745D01*
X0256031Y0028687D01*
X0255937Y0028633D01*
X0255840Y0028583D01*
X0255742Y0028536D01*
X0255642Y0028493D01*
X0255540Y0028453D01*
X0255437Y0028417D01*
X0255333Y0028385D01*
X0255228Y0028357D01*
X0255122Y0028332D01*
X0255015Y0028312D01*
X0254907Y0028295D01*
X0254799Y0028282D01*
X0254691Y0028273D01*
X0254582Y0028268D01*
X0254473Y0028267D01*
X0254364Y0028270D01*
X0254255Y0028277D01*
X0254147Y0028288D01*
X0254039Y0028303D01*
X0253931Y0028321D01*
X0253825Y0028344D01*
X0253719Y0028370D01*
X0253614Y0028401D01*
X0253511Y0028435D01*
X0253409Y0028472D01*
X0253308Y0028514D01*
X0253209Y0028559D01*
X0253111Y0028608D01*
X0253016Y0028660D01*
X0252922Y0028716D01*
X0252830Y0028774D01*
X0252741Y0028837D01*
X0252654Y0028902D01*
X0252569Y0028971D01*
X0252487Y0029042D01*
X0252408Y0029117D01*
X0252331Y0029194D01*
X0252257Y0029274D01*
X0252186Y0029357D01*
X0252119Y0029443D01*
X0252054Y0029530D01*
X0251992Y0029620D01*
X0251934Y0029712D01*
X0251880Y0029806D01*
X0251828Y0029903D01*
X0251780Y0030001D01*
X0251736Y0030100D01*
X0251696Y0030201D01*
X0251659Y0030304D01*
X0251626Y0030408D01*
X0251596Y0030512D01*
X0251571Y0030618D01*
X0251549Y0030725D01*
X0251532Y0030833D01*
X0251518Y0030941D01*
X0251508Y0031049D01*
X0251502Y0031158D01*
X0251500Y0031267D01*
X0262400Y0031267D02*
X0262402Y0031376D01*
X0262408Y0031485D01*
X0262418Y0031593D01*
X0262432Y0031701D01*
X0262449Y0031809D01*
X0262471Y0031916D01*
X0262496Y0032022D01*
X0262526Y0032126D01*
X0262559Y0032230D01*
X0262596Y0032333D01*
X0262636Y0032434D01*
X0262680Y0032533D01*
X0262728Y0032631D01*
X0262780Y0032728D01*
X0262834Y0032822D01*
X0262892Y0032914D01*
X0262954Y0033004D01*
X0263019Y0033091D01*
X0263086Y0033177D01*
X0263157Y0033260D01*
X0263231Y0033340D01*
X0263308Y0033417D01*
X0263387Y0033492D01*
X0263469Y0033563D01*
X0263554Y0033632D01*
X0263641Y0033697D01*
X0263730Y0033760D01*
X0263822Y0033818D01*
X0263916Y0033874D01*
X0264011Y0033926D01*
X0264109Y0033975D01*
X0264208Y0034020D01*
X0264309Y0034062D01*
X0264411Y0034099D01*
X0264514Y0034133D01*
X0264619Y0034164D01*
X0264725Y0034190D01*
X0264831Y0034213D01*
X0264939Y0034231D01*
X0265047Y0034246D01*
X0265155Y0034257D01*
X0265264Y0034264D01*
X0265373Y0034267D01*
X0265482Y0034266D01*
X0265591Y0034261D01*
X0265699Y0034252D01*
X0265807Y0034239D01*
X0265915Y0034222D01*
X0266022Y0034202D01*
X0266128Y0034177D01*
X0266233Y0034149D01*
X0266337Y0034117D01*
X0266440Y0034081D01*
X0266542Y0034041D01*
X0266642Y0033998D01*
X0266740Y0033951D01*
X0266837Y0033901D01*
X0266931Y0033847D01*
X0267024Y0033789D01*
X0267115Y0033729D01*
X0267203Y0033665D01*
X0267289Y0033598D01*
X0267372Y0033528D01*
X0267453Y0033455D01*
X0267531Y0033379D01*
X0267606Y0033300D01*
X0267679Y0033218D01*
X0267748Y0033134D01*
X0267814Y0033048D01*
X0267877Y0032959D01*
X0267937Y0032868D01*
X0267994Y0032775D01*
X0268047Y0032680D01*
X0268096Y0032583D01*
X0268142Y0032484D01*
X0268184Y0032384D01*
X0268223Y0032282D01*
X0268258Y0032178D01*
X0268289Y0032074D01*
X0268317Y0031969D01*
X0268340Y0031862D01*
X0268360Y0031755D01*
X0268376Y0031647D01*
X0268388Y0031539D01*
X0268396Y0031430D01*
X0268400Y0031321D01*
X0268400Y0031213D01*
X0268396Y0031104D01*
X0268388Y0030995D01*
X0268376Y0030887D01*
X0268360Y0030779D01*
X0268340Y0030672D01*
X0268317Y0030565D01*
X0268289Y0030460D01*
X0268258Y0030356D01*
X0268223Y0030252D01*
X0268184Y0030150D01*
X0268142Y0030050D01*
X0268096Y0029951D01*
X0268047Y0029854D01*
X0267994Y0029759D01*
X0267937Y0029666D01*
X0267877Y0029575D01*
X0267814Y0029486D01*
X0267748Y0029400D01*
X0267679Y0029316D01*
X0267606Y0029234D01*
X0267531Y0029155D01*
X0267453Y0029079D01*
X0267372Y0029006D01*
X0267289Y0028936D01*
X0267203Y0028869D01*
X0267115Y0028805D01*
X0267024Y0028745D01*
X0266931Y0028687D01*
X0266837Y0028633D01*
X0266740Y0028583D01*
X0266642Y0028536D01*
X0266542Y0028493D01*
X0266440Y0028453D01*
X0266337Y0028417D01*
X0266233Y0028385D01*
X0266128Y0028357D01*
X0266022Y0028332D01*
X0265915Y0028312D01*
X0265807Y0028295D01*
X0265699Y0028282D01*
X0265591Y0028273D01*
X0265482Y0028268D01*
X0265373Y0028267D01*
X0265264Y0028270D01*
X0265155Y0028277D01*
X0265047Y0028288D01*
X0264939Y0028303D01*
X0264831Y0028321D01*
X0264725Y0028344D01*
X0264619Y0028370D01*
X0264514Y0028401D01*
X0264411Y0028435D01*
X0264309Y0028472D01*
X0264208Y0028514D01*
X0264109Y0028559D01*
X0264011Y0028608D01*
X0263916Y0028660D01*
X0263822Y0028716D01*
X0263730Y0028774D01*
X0263641Y0028837D01*
X0263554Y0028902D01*
X0263469Y0028971D01*
X0263387Y0029042D01*
X0263308Y0029117D01*
X0263231Y0029194D01*
X0263157Y0029274D01*
X0263086Y0029357D01*
X0263019Y0029443D01*
X0262954Y0029530D01*
X0262892Y0029620D01*
X0262834Y0029712D01*
X0262780Y0029806D01*
X0262728Y0029903D01*
X0262680Y0030001D01*
X0262636Y0030100D01*
X0262596Y0030201D01*
X0262559Y0030304D01*
X0262526Y0030408D01*
X0262496Y0030512D01*
X0262471Y0030618D01*
X0262449Y0030725D01*
X0262432Y0030833D01*
X0262418Y0030941D01*
X0262408Y0031049D01*
X0262402Y0031158D01*
X0262400Y0031267D01*
X0273200Y0031267D02*
X0273202Y0031376D01*
X0273208Y0031485D01*
X0273218Y0031593D01*
X0273232Y0031701D01*
X0273249Y0031809D01*
X0273271Y0031916D01*
X0273296Y0032022D01*
X0273326Y0032126D01*
X0273359Y0032230D01*
X0273396Y0032333D01*
X0273436Y0032434D01*
X0273480Y0032533D01*
X0273528Y0032631D01*
X0273580Y0032728D01*
X0273634Y0032822D01*
X0273692Y0032914D01*
X0273754Y0033004D01*
X0273819Y0033091D01*
X0273886Y0033177D01*
X0273957Y0033260D01*
X0274031Y0033340D01*
X0274108Y0033417D01*
X0274187Y0033492D01*
X0274269Y0033563D01*
X0274354Y0033632D01*
X0274441Y0033697D01*
X0274530Y0033760D01*
X0274622Y0033818D01*
X0274716Y0033874D01*
X0274811Y0033926D01*
X0274909Y0033975D01*
X0275008Y0034020D01*
X0275109Y0034062D01*
X0275211Y0034099D01*
X0275314Y0034133D01*
X0275419Y0034164D01*
X0275525Y0034190D01*
X0275631Y0034213D01*
X0275739Y0034231D01*
X0275847Y0034246D01*
X0275955Y0034257D01*
X0276064Y0034264D01*
X0276173Y0034267D01*
X0276282Y0034266D01*
X0276391Y0034261D01*
X0276499Y0034252D01*
X0276607Y0034239D01*
X0276715Y0034222D01*
X0276822Y0034202D01*
X0276928Y0034177D01*
X0277033Y0034149D01*
X0277137Y0034117D01*
X0277240Y0034081D01*
X0277342Y0034041D01*
X0277442Y0033998D01*
X0277540Y0033951D01*
X0277637Y0033901D01*
X0277731Y0033847D01*
X0277824Y0033789D01*
X0277915Y0033729D01*
X0278003Y0033665D01*
X0278089Y0033598D01*
X0278172Y0033528D01*
X0278253Y0033455D01*
X0278331Y0033379D01*
X0278406Y0033300D01*
X0278479Y0033218D01*
X0278548Y0033134D01*
X0278614Y0033048D01*
X0278677Y0032959D01*
X0278737Y0032868D01*
X0278794Y0032775D01*
X0278847Y0032680D01*
X0278896Y0032583D01*
X0278942Y0032484D01*
X0278984Y0032384D01*
X0279023Y0032282D01*
X0279058Y0032178D01*
X0279089Y0032074D01*
X0279117Y0031969D01*
X0279140Y0031862D01*
X0279160Y0031755D01*
X0279176Y0031647D01*
X0279188Y0031539D01*
X0279196Y0031430D01*
X0279200Y0031321D01*
X0279200Y0031213D01*
X0279196Y0031104D01*
X0279188Y0030995D01*
X0279176Y0030887D01*
X0279160Y0030779D01*
X0279140Y0030672D01*
X0279117Y0030565D01*
X0279089Y0030460D01*
X0279058Y0030356D01*
X0279023Y0030252D01*
X0278984Y0030150D01*
X0278942Y0030050D01*
X0278896Y0029951D01*
X0278847Y0029854D01*
X0278794Y0029759D01*
X0278737Y0029666D01*
X0278677Y0029575D01*
X0278614Y0029486D01*
X0278548Y0029400D01*
X0278479Y0029316D01*
X0278406Y0029234D01*
X0278331Y0029155D01*
X0278253Y0029079D01*
X0278172Y0029006D01*
X0278089Y0028936D01*
X0278003Y0028869D01*
X0277915Y0028805D01*
X0277824Y0028745D01*
X0277731Y0028687D01*
X0277637Y0028633D01*
X0277540Y0028583D01*
X0277442Y0028536D01*
X0277342Y0028493D01*
X0277240Y0028453D01*
X0277137Y0028417D01*
X0277033Y0028385D01*
X0276928Y0028357D01*
X0276822Y0028332D01*
X0276715Y0028312D01*
X0276607Y0028295D01*
X0276499Y0028282D01*
X0276391Y0028273D01*
X0276282Y0028268D01*
X0276173Y0028267D01*
X0276064Y0028270D01*
X0275955Y0028277D01*
X0275847Y0028288D01*
X0275739Y0028303D01*
X0275631Y0028321D01*
X0275525Y0028344D01*
X0275419Y0028370D01*
X0275314Y0028401D01*
X0275211Y0028435D01*
X0275109Y0028472D01*
X0275008Y0028514D01*
X0274909Y0028559D01*
X0274811Y0028608D01*
X0274716Y0028660D01*
X0274622Y0028716D01*
X0274530Y0028774D01*
X0274441Y0028837D01*
X0274354Y0028902D01*
X0274269Y0028971D01*
X0274187Y0029042D01*
X0274108Y0029117D01*
X0274031Y0029194D01*
X0273957Y0029274D01*
X0273886Y0029357D01*
X0273819Y0029443D01*
X0273754Y0029530D01*
X0273692Y0029620D01*
X0273634Y0029712D01*
X0273580Y0029806D01*
X0273528Y0029903D01*
X0273480Y0030001D01*
X0273436Y0030100D01*
X0273396Y0030201D01*
X0273359Y0030304D01*
X0273326Y0030408D01*
X0273296Y0030512D01*
X0273271Y0030618D01*
X0273249Y0030725D01*
X0273232Y0030833D01*
X0273218Y0030941D01*
X0273208Y0031049D01*
X0273202Y0031158D01*
X0273200Y0031267D01*
X0284100Y0031267D02*
X0284102Y0031376D01*
X0284108Y0031485D01*
X0284118Y0031593D01*
X0284132Y0031701D01*
X0284149Y0031809D01*
X0284171Y0031916D01*
X0284196Y0032022D01*
X0284226Y0032126D01*
X0284259Y0032230D01*
X0284296Y0032333D01*
X0284336Y0032434D01*
X0284380Y0032533D01*
X0284428Y0032631D01*
X0284480Y0032728D01*
X0284534Y0032822D01*
X0284592Y0032914D01*
X0284654Y0033004D01*
X0284719Y0033091D01*
X0284786Y0033177D01*
X0284857Y0033260D01*
X0284931Y0033340D01*
X0285008Y0033417D01*
X0285087Y0033492D01*
X0285169Y0033563D01*
X0285254Y0033632D01*
X0285341Y0033697D01*
X0285430Y0033760D01*
X0285522Y0033818D01*
X0285616Y0033874D01*
X0285711Y0033926D01*
X0285809Y0033975D01*
X0285908Y0034020D01*
X0286009Y0034062D01*
X0286111Y0034099D01*
X0286214Y0034133D01*
X0286319Y0034164D01*
X0286425Y0034190D01*
X0286531Y0034213D01*
X0286639Y0034231D01*
X0286747Y0034246D01*
X0286855Y0034257D01*
X0286964Y0034264D01*
X0287073Y0034267D01*
X0287182Y0034266D01*
X0287291Y0034261D01*
X0287399Y0034252D01*
X0287507Y0034239D01*
X0287615Y0034222D01*
X0287722Y0034202D01*
X0287828Y0034177D01*
X0287933Y0034149D01*
X0288037Y0034117D01*
X0288140Y0034081D01*
X0288242Y0034041D01*
X0288342Y0033998D01*
X0288440Y0033951D01*
X0288537Y0033901D01*
X0288631Y0033847D01*
X0288724Y0033789D01*
X0288815Y0033729D01*
X0288903Y0033665D01*
X0288989Y0033598D01*
X0289072Y0033528D01*
X0289153Y0033455D01*
X0289231Y0033379D01*
X0289306Y0033300D01*
X0289379Y0033218D01*
X0289448Y0033134D01*
X0289514Y0033048D01*
X0289577Y0032959D01*
X0289637Y0032868D01*
X0289694Y0032775D01*
X0289747Y0032680D01*
X0289796Y0032583D01*
X0289842Y0032484D01*
X0289884Y0032384D01*
X0289923Y0032282D01*
X0289958Y0032178D01*
X0289989Y0032074D01*
X0290017Y0031969D01*
X0290040Y0031862D01*
X0290060Y0031755D01*
X0290076Y0031647D01*
X0290088Y0031539D01*
X0290096Y0031430D01*
X0290100Y0031321D01*
X0290100Y0031213D01*
X0290096Y0031104D01*
X0290088Y0030995D01*
X0290076Y0030887D01*
X0290060Y0030779D01*
X0290040Y0030672D01*
X0290017Y0030565D01*
X0289989Y0030460D01*
X0289958Y0030356D01*
X0289923Y0030252D01*
X0289884Y0030150D01*
X0289842Y0030050D01*
X0289796Y0029951D01*
X0289747Y0029854D01*
X0289694Y0029759D01*
X0289637Y0029666D01*
X0289577Y0029575D01*
X0289514Y0029486D01*
X0289448Y0029400D01*
X0289379Y0029316D01*
X0289306Y0029234D01*
X0289231Y0029155D01*
X0289153Y0029079D01*
X0289072Y0029006D01*
X0288989Y0028936D01*
X0288903Y0028869D01*
X0288815Y0028805D01*
X0288724Y0028745D01*
X0288631Y0028687D01*
X0288537Y0028633D01*
X0288440Y0028583D01*
X0288342Y0028536D01*
X0288242Y0028493D01*
X0288140Y0028453D01*
X0288037Y0028417D01*
X0287933Y0028385D01*
X0287828Y0028357D01*
X0287722Y0028332D01*
X0287615Y0028312D01*
X0287507Y0028295D01*
X0287399Y0028282D01*
X0287291Y0028273D01*
X0287182Y0028268D01*
X0287073Y0028267D01*
X0286964Y0028270D01*
X0286855Y0028277D01*
X0286747Y0028288D01*
X0286639Y0028303D01*
X0286531Y0028321D01*
X0286425Y0028344D01*
X0286319Y0028370D01*
X0286214Y0028401D01*
X0286111Y0028435D01*
X0286009Y0028472D01*
X0285908Y0028514D01*
X0285809Y0028559D01*
X0285711Y0028608D01*
X0285616Y0028660D01*
X0285522Y0028716D01*
X0285430Y0028774D01*
X0285341Y0028837D01*
X0285254Y0028902D01*
X0285169Y0028971D01*
X0285087Y0029042D01*
X0285008Y0029117D01*
X0284931Y0029194D01*
X0284857Y0029274D01*
X0284786Y0029357D01*
X0284719Y0029443D01*
X0284654Y0029530D01*
X0284592Y0029620D01*
X0284534Y0029712D01*
X0284480Y0029806D01*
X0284428Y0029903D01*
X0284380Y0030001D01*
X0284336Y0030100D01*
X0284296Y0030201D01*
X0284259Y0030304D01*
X0284226Y0030408D01*
X0284196Y0030512D01*
X0284171Y0030618D01*
X0284149Y0030725D01*
X0284132Y0030833D01*
X0284118Y0030941D01*
X0284108Y0031049D01*
X0284102Y0031158D01*
X0284100Y0031267D01*
X0295000Y0031267D02*
X0295002Y0031376D01*
X0295008Y0031485D01*
X0295018Y0031593D01*
X0295032Y0031701D01*
X0295049Y0031809D01*
X0295071Y0031916D01*
X0295096Y0032022D01*
X0295126Y0032126D01*
X0295159Y0032230D01*
X0295196Y0032333D01*
X0295236Y0032434D01*
X0295280Y0032533D01*
X0295328Y0032631D01*
X0295380Y0032728D01*
X0295434Y0032822D01*
X0295492Y0032914D01*
X0295554Y0033004D01*
X0295619Y0033091D01*
X0295686Y0033177D01*
X0295757Y0033260D01*
X0295831Y0033340D01*
X0295908Y0033417D01*
X0295987Y0033492D01*
X0296069Y0033563D01*
X0296154Y0033632D01*
X0296241Y0033697D01*
X0296330Y0033760D01*
X0296422Y0033818D01*
X0296516Y0033874D01*
X0296611Y0033926D01*
X0296709Y0033975D01*
X0296808Y0034020D01*
X0296909Y0034062D01*
X0297011Y0034099D01*
X0297114Y0034133D01*
X0297219Y0034164D01*
X0297325Y0034190D01*
X0297431Y0034213D01*
X0297539Y0034231D01*
X0297647Y0034246D01*
X0297755Y0034257D01*
X0297864Y0034264D01*
X0297973Y0034267D01*
X0298082Y0034266D01*
X0298191Y0034261D01*
X0298299Y0034252D01*
X0298407Y0034239D01*
X0298515Y0034222D01*
X0298622Y0034202D01*
X0298728Y0034177D01*
X0298833Y0034149D01*
X0298937Y0034117D01*
X0299040Y0034081D01*
X0299142Y0034041D01*
X0299242Y0033998D01*
X0299340Y0033951D01*
X0299437Y0033901D01*
X0299531Y0033847D01*
X0299624Y0033789D01*
X0299715Y0033729D01*
X0299803Y0033665D01*
X0299889Y0033598D01*
X0299972Y0033528D01*
X0300053Y0033455D01*
X0300131Y0033379D01*
X0300206Y0033300D01*
X0300279Y0033218D01*
X0300348Y0033134D01*
X0300414Y0033048D01*
X0300477Y0032959D01*
X0300537Y0032868D01*
X0300594Y0032775D01*
X0300647Y0032680D01*
X0300696Y0032583D01*
X0300742Y0032484D01*
X0300784Y0032384D01*
X0300823Y0032282D01*
X0300858Y0032178D01*
X0300889Y0032074D01*
X0300917Y0031969D01*
X0300940Y0031862D01*
X0300960Y0031755D01*
X0300976Y0031647D01*
X0300988Y0031539D01*
X0300996Y0031430D01*
X0301000Y0031321D01*
X0301000Y0031213D01*
X0300996Y0031104D01*
X0300988Y0030995D01*
X0300976Y0030887D01*
X0300960Y0030779D01*
X0300940Y0030672D01*
X0300917Y0030565D01*
X0300889Y0030460D01*
X0300858Y0030356D01*
X0300823Y0030252D01*
X0300784Y0030150D01*
X0300742Y0030050D01*
X0300696Y0029951D01*
X0300647Y0029854D01*
X0300594Y0029759D01*
X0300537Y0029666D01*
X0300477Y0029575D01*
X0300414Y0029486D01*
X0300348Y0029400D01*
X0300279Y0029316D01*
X0300206Y0029234D01*
X0300131Y0029155D01*
X0300053Y0029079D01*
X0299972Y0029006D01*
X0299889Y0028936D01*
X0299803Y0028869D01*
X0299715Y0028805D01*
X0299624Y0028745D01*
X0299531Y0028687D01*
X0299437Y0028633D01*
X0299340Y0028583D01*
X0299242Y0028536D01*
X0299142Y0028493D01*
X0299040Y0028453D01*
X0298937Y0028417D01*
X0298833Y0028385D01*
X0298728Y0028357D01*
X0298622Y0028332D01*
X0298515Y0028312D01*
X0298407Y0028295D01*
X0298299Y0028282D01*
X0298191Y0028273D01*
X0298082Y0028268D01*
X0297973Y0028267D01*
X0297864Y0028270D01*
X0297755Y0028277D01*
X0297647Y0028288D01*
X0297539Y0028303D01*
X0297431Y0028321D01*
X0297325Y0028344D01*
X0297219Y0028370D01*
X0297114Y0028401D01*
X0297011Y0028435D01*
X0296909Y0028472D01*
X0296808Y0028514D01*
X0296709Y0028559D01*
X0296611Y0028608D01*
X0296516Y0028660D01*
X0296422Y0028716D01*
X0296330Y0028774D01*
X0296241Y0028837D01*
X0296154Y0028902D01*
X0296069Y0028971D01*
X0295987Y0029042D01*
X0295908Y0029117D01*
X0295831Y0029194D01*
X0295757Y0029274D01*
X0295686Y0029357D01*
X0295619Y0029443D01*
X0295554Y0029530D01*
X0295492Y0029620D01*
X0295434Y0029712D01*
X0295380Y0029806D01*
X0295328Y0029903D01*
X0295280Y0030001D01*
X0295236Y0030100D01*
X0295196Y0030201D01*
X0295159Y0030304D01*
X0295126Y0030408D01*
X0295096Y0030512D01*
X0295071Y0030618D01*
X0295049Y0030725D01*
X0295032Y0030833D01*
X0295018Y0030941D01*
X0295008Y0031049D01*
X0295002Y0031158D01*
X0295000Y0031267D01*
D13*
X0294990Y0026520D02*
X0294990Y0025953D01*
X0297259Y0023684D01*
X0297259Y0023117D01*
X0298581Y0023684D02*
X0299149Y0023117D01*
X0300283Y0023117D01*
X0300850Y0023684D01*
X0299716Y0024818D02*
X0299149Y0024818D01*
X0298581Y0024251D01*
X0298581Y0023684D01*
X0299149Y0024818D02*
X0298581Y0025386D01*
X0298581Y0025953D01*
X0299149Y0026520D01*
X0300283Y0026520D01*
X0300850Y0025953D01*
X0297259Y0026520D02*
X0294990Y0026520D01*
X0289850Y0025953D02*
X0289283Y0026520D01*
X0288149Y0026520D01*
X0287581Y0025953D01*
X0287581Y0025386D01*
X0288149Y0024818D01*
X0287581Y0024251D01*
X0287581Y0023684D01*
X0288149Y0023117D01*
X0289283Y0023117D01*
X0289850Y0023684D01*
X0288716Y0024818D02*
X0288149Y0024818D01*
X0286259Y0024818D02*
X0285125Y0025953D01*
X0283990Y0026520D01*
X0284557Y0024818D02*
X0286259Y0024818D01*
X0286259Y0023684D01*
X0285692Y0023117D01*
X0284557Y0023117D01*
X0283990Y0023684D01*
X0283990Y0024251D01*
X0284557Y0024818D01*
X0278850Y0023684D02*
X0278283Y0023117D01*
X0277149Y0023117D01*
X0276581Y0023684D01*
X0276581Y0024251D01*
X0277149Y0024818D01*
X0277716Y0024818D01*
X0277149Y0024818D02*
X0276581Y0025386D01*
X0276581Y0025953D01*
X0277149Y0026520D01*
X0278283Y0026520D01*
X0278850Y0025953D01*
X0275259Y0026520D02*
X0275259Y0024818D01*
X0274125Y0025386D01*
X0273557Y0025386D01*
X0272990Y0024818D01*
X0272990Y0023684D01*
X0273557Y0023117D01*
X0274692Y0023117D01*
X0275259Y0023684D01*
X0275259Y0026520D02*
X0272990Y0026520D01*
X0268350Y0025953D02*
X0267783Y0026520D01*
X0266649Y0026520D01*
X0266081Y0025953D01*
X0266081Y0025386D01*
X0266649Y0024818D01*
X0266081Y0024251D01*
X0266081Y0023684D01*
X0266649Y0023117D01*
X0267783Y0023117D01*
X0268350Y0023684D01*
X0267216Y0024818D02*
X0266649Y0024818D01*
X0264759Y0024818D02*
X0263057Y0026520D01*
X0263057Y0023117D01*
X0262490Y0024818D02*
X0264759Y0024818D01*
X0257350Y0023684D02*
X0256783Y0023117D01*
X0255649Y0023117D01*
X0255081Y0023684D01*
X0255081Y0024251D01*
X0255649Y0024818D01*
X0256216Y0024818D01*
X0255649Y0024818D02*
X0255081Y0025386D01*
X0255081Y0025953D01*
X0255649Y0026520D01*
X0256783Y0026520D01*
X0257350Y0025953D01*
X0253759Y0025953D02*
X0253192Y0026520D01*
X0252057Y0026520D01*
X0251490Y0025953D01*
X0251490Y0025386D01*
X0252057Y0024818D01*
X0251490Y0024251D01*
X0251490Y0023684D01*
X0252057Y0023117D01*
X0253192Y0023117D01*
X0253759Y0023684D01*
X0252625Y0024818D02*
X0252057Y0024818D01*
X0246350Y0023684D02*
X0245783Y0023117D01*
X0244649Y0023117D01*
X0244081Y0023684D01*
X0244081Y0024251D01*
X0244649Y0024818D01*
X0245216Y0024818D01*
X0244649Y0024818D02*
X0244081Y0025386D01*
X0244081Y0025953D01*
X0244649Y0026520D01*
X0245783Y0026520D01*
X0246350Y0025953D01*
X0242759Y0025953D02*
X0242192Y0026520D01*
X0241057Y0026520D01*
X0240490Y0025953D01*
X0240490Y0025386D01*
X0242759Y0023117D01*
X0240490Y0023117D01*
X0235850Y0023684D02*
X0235283Y0023117D01*
X0234149Y0023117D01*
X0233581Y0023684D01*
X0233581Y0024251D01*
X0234149Y0024818D01*
X0234716Y0024818D01*
X0234149Y0024818D02*
X0233581Y0025386D01*
X0233581Y0025953D01*
X0234149Y0026520D01*
X0235283Y0026520D01*
X0235850Y0025953D01*
X0232259Y0025386D02*
X0231125Y0026520D01*
X0231125Y0023117D01*
X0232259Y0023117D02*
X0229990Y0023117D01*
X0224850Y0023684D02*
X0224283Y0023117D01*
X0223149Y0023117D01*
X0222581Y0023684D01*
X0222581Y0024251D01*
X0223149Y0024818D01*
X0223716Y0024818D01*
X0223149Y0024818D02*
X0222581Y0025386D01*
X0222581Y0025953D01*
X0223149Y0026520D01*
X0224283Y0026520D01*
X0224850Y0025953D01*
X0221259Y0025953D02*
X0221259Y0023684D01*
X0218990Y0025953D01*
X0218990Y0023684D01*
X0219557Y0023117D01*
X0220692Y0023117D01*
X0221259Y0023684D01*
X0221259Y0025953D02*
X0220692Y0026520D01*
X0219557Y0026520D01*
X0218990Y0025953D01*
X0213850Y0025953D02*
X0213283Y0026520D01*
X0212149Y0026520D01*
X0211581Y0025953D01*
X0211581Y0025386D01*
X0213850Y0023117D01*
X0211581Y0023117D01*
X0210259Y0023684D02*
X0209692Y0023117D01*
X0208557Y0023117D01*
X0207990Y0023684D01*
X0207990Y0025953D01*
X0208557Y0026520D01*
X0209692Y0026520D01*
X0210259Y0025953D01*
X0210259Y0025386D01*
X0209692Y0024818D01*
X0207990Y0024818D01*
X0203350Y0025953D02*
X0202783Y0026520D01*
X0201649Y0026520D01*
X0201081Y0025953D01*
X0201081Y0025386D01*
X0203350Y0023117D01*
X0201081Y0023117D01*
X0199759Y0023684D02*
X0199759Y0024251D01*
X0199192Y0024818D01*
X0198057Y0024818D01*
X0197490Y0024251D01*
X0197490Y0023684D01*
X0198057Y0023117D01*
X0199192Y0023117D01*
X0199759Y0023684D01*
X0199192Y0024818D02*
X0199759Y0025386D01*
X0199759Y0025953D01*
X0199192Y0026520D01*
X0198057Y0026520D01*
X0197490Y0025953D01*
X0197490Y0025386D01*
X0198057Y0024818D01*
X0192350Y0025953D02*
X0191783Y0026520D01*
X0190649Y0026520D01*
X0190081Y0025953D01*
X0190081Y0025386D01*
X0192350Y0023117D01*
X0190081Y0023117D01*
X0188759Y0023117D02*
X0188759Y0023684D01*
X0186490Y0025953D01*
X0186490Y0026520D01*
X0188759Y0026520D01*
X0181350Y0025953D02*
X0180783Y0026520D01*
X0179649Y0026520D01*
X0179081Y0025953D01*
X0179081Y0025386D01*
X0181350Y0023117D01*
X0179081Y0023117D01*
X0177759Y0023684D02*
X0177192Y0023117D01*
X0176057Y0023117D01*
X0175490Y0023684D01*
X0175490Y0024251D01*
X0176057Y0024818D01*
X0177759Y0024818D01*
X0177759Y0023684D01*
X0177759Y0024818D02*
X0176625Y0025953D01*
X0175490Y0026520D01*
X0171050Y0025953D02*
X0170483Y0026520D01*
X0169349Y0026520D01*
X0168781Y0025953D01*
X0168781Y0025386D01*
X0171050Y0023117D01*
X0168781Y0023117D01*
X0167459Y0023684D02*
X0166892Y0023117D01*
X0165757Y0023117D01*
X0165190Y0023684D01*
X0165190Y0024818D01*
X0165757Y0025386D01*
X0166325Y0025386D01*
X0167459Y0024818D01*
X0167459Y0026520D01*
X0165190Y0026520D01*
X0160050Y0025953D02*
X0159483Y0026520D01*
X0158349Y0026520D01*
X0157781Y0025953D01*
X0157781Y0025386D01*
X0160050Y0023117D01*
X0157781Y0023117D01*
X0156459Y0024818D02*
X0154190Y0024818D01*
X0154757Y0023117D02*
X0154757Y0026520D01*
X0156459Y0024818D01*
X0148550Y0025953D02*
X0147983Y0026520D01*
X0146849Y0026520D01*
X0146281Y0025953D01*
X0146281Y0025386D01*
X0148550Y0023117D01*
X0146281Y0023117D01*
X0144959Y0023684D02*
X0144392Y0023117D01*
X0143257Y0023117D01*
X0142690Y0023684D01*
X0142690Y0024251D01*
X0143257Y0024818D01*
X0143825Y0024818D01*
X0143257Y0024818D02*
X0142690Y0025386D01*
X0142690Y0025953D01*
X0143257Y0026520D01*
X0144392Y0026520D01*
X0144959Y0025953D01*
X0137550Y0025953D02*
X0136983Y0026520D01*
X0135849Y0026520D01*
X0135281Y0025953D01*
X0135281Y0025386D01*
X0137550Y0023117D01*
X0135281Y0023117D01*
X0133959Y0023117D02*
X0131690Y0025386D01*
X0131690Y0025953D01*
X0132257Y0026520D01*
X0133392Y0026520D01*
X0133959Y0025953D01*
X0133959Y0023117D02*
X0131690Y0023117D01*
X0127050Y0023117D02*
X0124781Y0025386D01*
X0124781Y0025953D01*
X0125349Y0026520D01*
X0126483Y0026520D01*
X0127050Y0025953D01*
X0127050Y0023117D02*
X0124781Y0023117D01*
X0123459Y0023117D02*
X0121190Y0023117D01*
X0122325Y0023117D02*
X0122325Y0026520D01*
X0123459Y0025386D01*
X0116550Y0025953D02*
X0115983Y0026520D01*
X0114849Y0026520D01*
X0114281Y0025953D01*
X0114281Y0025386D01*
X0116550Y0023117D01*
X0114281Y0023117D01*
X0112959Y0023684D02*
X0110690Y0025953D01*
X0110690Y0023684D01*
X0111257Y0023117D01*
X0112392Y0023117D01*
X0112959Y0023684D01*
X0112959Y0025953D01*
X0112392Y0026520D01*
X0111257Y0026520D01*
X0110690Y0025953D01*
X0108750Y0047117D02*
X0106481Y0047117D01*
X0107616Y0047117D02*
X0107616Y0050520D01*
X0108750Y0049386D01*
X0117981Y0049386D02*
X0117981Y0049953D01*
X0118549Y0050520D01*
X0119683Y0050520D01*
X0120250Y0049953D01*
X0117981Y0049386D02*
X0120250Y0047117D01*
X0117981Y0047117D01*
X0128481Y0047684D02*
X0129049Y0047117D01*
X0130183Y0047117D01*
X0130750Y0047684D01*
X0129616Y0048818D02*
X0129049Y0048818D01*
X0128481Y0048251D01*
X0128481Y0047684D01*
X0129049Y0048818D02*
X0128481Y0049386D01*
X0128481Y0049953D01*
X0129049Y0050520D01*
X0130183Y0050520D01*
X0130750Y0049953D01*
X0139481Y0048818D02*
X0141750Y0048818D01*
X0140049Y0050520D01*
X0140049Y0047117D01*
X0150481Y0047684D02*
X0151049Y0047117D01*
X0152183Y0047117D01*
X0152750Y0047684D01*
X0152750Y0048818D02*
X0151616Y0049386D01*
X0151049Y0049386D01*
X0150481Y0048818D01*
X0150481Y0047684D01*
X0152750Y0048818D02*
X0152750Y0050520D01*
X0150481Y0050520D01*
X0161481Y0050520D02*
X0162616Y0049953D01*
X0163750Y0048818D01*
X0162049Y0048818D01*
X0161481Y0048251D01*
X0161481Y0047684D01*
X0162049Y0047117D01*
X0163183Y0047117D01*
X0163750Y0047684D01*
X0163750Y0048818D01*
X0171981Y0049953D02*
X0174250Y0047684D01*
X0174250Y0047117D01*
X0174250Y0050520D02*
X0171981Y0050520D01*
X0171981Y0049953D01*
X0182981Y0049953D02*
X0182981Y0049386D01*
X0183549Y0048818D01*
X0184683Y0048818D01*
X0185250Y0049386D01*
X0185250Y0049953D01*
X0184683Y0050520D01*
X0183549Y0050520D01*
X0182981Y0049953D01*
X0183549Y0048818D02*
X0182981Y0048251D01*
X0182981Y0047684D01*
X0183549Y0047117D01*
X0184683Y0047117D01*
X0185250Y0047684D01*
X0185250Y0048251D01*
X0184683Y0048818D01*
X0193981Y0048818D02*
X0195683Y0048818D01*
X0196250Y0049386D01*
X0196250Y0049953D01*
X0195683Y0050520D01*
X0194549Y0050520D01*
X0193981Y0049953D01*
X0193981Y0047684D01*
X0194549Y0047117D01*
X0195683Y0047117D01*
X0196250Y0047684D01*
X0202390Y0047684D02*
X0202390Y0049953D01*
X0204659Y0047684D01*
X0204092Y0047117D01*
X0202957Y0047117D01*
X0202390Y0047684D01*
X0202390Y0049953D02*
X0202957Y0050520D01*
X0204092Y0050520D01*
X0204659Y0049953D01*
X0204659Y0047684D01*
X0205981Y0047117D02*
X0208250Y0047117D01*
X0207116Y0047117D02*
X0207116Y0050520D01*
X0208250Y0049386D01*
X0212890Y0047117D02*
X0215159Y0047117D01*
X0214025Y0047117D02*
X0214025Y0050520D01*
X0215159Y0049386D01*
X0216481Y0047117D02*
X0218750Y0047117D01*
X0217616Y0047117D02*
X0217616Y0050520D01*
X0218750Y0049386D01*
X0223890Y0049386D02*
X0223890Y0049953D01*
X0224457Y0050520D01*
X0225592Y0050520D01*
X0226159Y0049953D01*
X0223890Y0049386D02*
X0226159Y0047117D01*
X0223890Y0047117D01*
X0227481Y0047117D02*
X0229750Y0047117D01*
X0228616Y0047117D02*
X0228616Y0050520D01*
X0229750Y0049386D01*
X0234890Y0049386D02*
X0235457Y0048818D01*
X0234890Y0048251D01*
X0234890Y0047684D01*
X0235457Y0047117D01*
X0236592Y0047117D01*
X0237159Y0047684D01*
X0238481Y0047117D02*
X0240750Y0047117D01*
X0239616Y0047117D02*
X0239616Y0050520D01*
X0240750Y0049386D01*
X0237159Y0049953D02*
X0236592Y0050520D01*
X0235457Y0050520D01*
X0234890Y0049953D01*
X0234890Y0049386D01*
X0235457Y0048818D02*
X0236025Y0048818D01*
X0246190Y0048918D02*
X0248459Y0048918D01*
X0246757Y0050620D01*
X0246757Y0047217D01*
X0249781Y0047217D02*
X0252050Y0047217D01*
X0250916Y0047217D02*
X0250916Y0050620D01*
X0252050Y0049486D01*
X0257190Y0048918D02*
X0257190Y0047784D01*
X0257757Y0047217D01*
X0258892Y0047217D01*
X0259459Y0047784D01*
X0259459Y0048918D02*
X0258325Y0049486D01*
X0257757Y0049486D01*
X0257190Y0048918D01*
X0257190Y0050620D02*
X0259459Y0050620D01*
X0259459Y0048918D01*
X0260781Y0047217D02*
X0263050Y0047217D01*
X0261916Y0047217D02*
X0261916Y0050620D01*
X0263050Y0049486D01*
X0268190Y0050620D02*
X0269325Y0050053D01*
X0270459Y0048918D01*
X0268757Y0048918D01*
X0268190Y0048351D01*
X0268190Y0047784D01*
X0268757Y0047217D01*
X0269892Y0047217D01*
X0270459Y0047784D01*
X0270459Y0048918D01*
X0271781Y0047217D02*
X0274050Y0047217D01*
X0272916Y0047217D02*
X0272916Y0050620D01*
X0274050Y0049486D01*
X0279190Y0050053D02*
X0281459Y0047784D01*
X0281459Y0047217D01*
X0282781Y0047217D02*
X0285050Y0047217D01*
X0283916Y0047217D02*
X0283916Y0050620D01*
X0285050Y0049486D01*
X0281459Y0050620D02*
X0279190Y0050620D01*
X0279190Y0050053D01*
X0289690Y0050053D02*
X0289690Y0049486D01*
X0290257Y0048918D01*
X0291392Y0048918D01*
X0291959Y0049486D01*
X0291959Y0050053D01*
X0291392Y0050620D01*
X0290257Y0050620D01*
X0289690Y0050053D01*
X0290257Y0048918D02*
X0289690Y0048351D01*
X0289690Y0047784D01*
X0290257Y0047217D01*
X0291392Y0047217D01*
X0291959Y0047784D01*
X0291959Y0048351D01*
X0291392Y0048918D01*
X0293281Y0047217D02*
X0295550Y0047217D01*
X0294416Y0047217D02*
X0294416Y0050620D01*
X0295550Y0049486D01*
X0300190Y0050053D02*
X0300190Y0047784D01*
X0300757Y0047217D01*
X0301892Y0047217D01*
X0302459Y0047784D01*
X0301892Y0048918D02*
X0300190Y0048918D01*
X0300190Y0050053D02*
X0300757Y0050620D01*
X0301892Y0050620D01*
X0302459Y0050053D01*
X0302459Y0049486D01*
X0301892Y0048918D01*
X0303781Y0047217D02*
X0306050Y0047217D01*
X0304916Y0047217D02*
X0304916Y0050620D01*
X0306050Y0049486D01*
M02*
