%
M48
M72
T01C0.0079
T02C0.0433
%
T01
X4537Y2441
X4931Y2441
X5324Y2441
X5720Y2441
X6112Y2441
X6506Y2441
X6899Y2441
X7293Y2441
X7687Y2441
X8080Y2441
X8474Y2441
X8868Y2441
X9261Y2441
X9655Y2441
X10049Y2441
X10443Y2441
X9317Y5332
X9069Y5584
X8817Y5332
X8569Y5584
X8317Y5332
X8069Y5584
X7817Y5332
X7569Y5584
X7317Y5332
X7069Y5584
X6817Y5332
X6569Y5584
X6317Y5332
X6069Y5584
X5817Y5332
X5569Y5584
T02
X3277Y5069
X3326Y3543
M30
