G75*
%MOIN*%
%OFA0B0*%
%FSLAX25Y25*%
%IPPOS*%
%LPD*%
%AMOC8*
5,1,8,0,0,1.08239X$1,22.5*
%
%ADD10C,0.00300*%
%ADD11C,0.00800*%
%ADD12C,0.00500*%
D10*
X0037844Y0034720D02*
X0038461Y0034103D01*
X0039695Y0034103D01*
X0040312Y0034720D01*
X0040312Y0035954D01*
X0039078Y0035954D01*
X0037844Y0037189D02*
X0037844Y0034720D01*
X0037844Y0037189D02*
X0038461Y0037806D01*
X0039695Y0037806D01*
X0040312Y0037189D01*
X0039820Y0049359D02*
X0038586Y0050593D01*
X0039203Y0050593D02*
X0039820Y0051210D01*
X0039820Y0052445D01*
X0039203Y0053062D01*
X0037351Y0053062D01*
X0037351Y0049359D01*
X0037351Y0050593D02*
X0039203Y0050593D01*
D11*
X0050164Y0039778D02*
X0050166Y0039818D01*
X0050172Y0039858D01*
X0050182Y0039898D01*
X0050195Y0039936D01*
X0050213Y0039972D01*
X0050233Y0040007D01*
X0050258Y0040039D01*
X0050285Y0040069D01*
X0050315Y0040096D01*
X0050347Y0040121D01*
X0050382Y0040141D01*
X0050418Y0040159D01*
X0050456Y0040172D01*
X0050496Y0040182D01*
X0050536Y0040188D01*
X0050576Y0040190D01*
X0050616Y0040188D01*
X0050656Y0040182D01*
X0050696Y0040172D01*
X0050734Y0040159D01*
X0050770Y0040141D01*
X0050805Y0040121D01*
X0050837Y0040096D01*
X0050867Y0040069D01*
X0050894Y0040039D01*
X0050919Y0040007D01*
X0050939Y0039972D01*
X0050957Y0039936D01*
X0050970Y0039898D01*
X0050980Y0039858D01*
X0050986Y0039818D01*
X0050988Y0039778D01*
X0050986Y0039738D01*
X0050980Y0039698D01*
X0050970Y0039658D01*
X0050957Y0039620D01*
X0050939Y0039584D01*
X0050919Y0039549D01*
X0050894Y0039517D01*
X0050867Y0039487D01*
X0050837Y0039460D01*
X0050805Y0039435D01*
X0050770Y0039415D01*
X0050734Y0039397D01*
X0050696Y0039384D01*
X0050656Y0039374D01*
X0050616Y0039368D01*
X0050576Y0039366D01*
X0050536Y0039368D01*
X0050496Y0039374D01*
X0050456Y0039384D01*
X0050418Y0039397D01*
X0050382Y0039415D01*
X0050347Y0039435D01*
X0050315Y0039460D01*
X0050285Y0039487D01*
X0050258Y0039517D01*
X0050233Y0039549D01*
X0050213Y0039584D01*
X0050195Y0039620D01*
X0050182Y0039658D01*
X0050172Y0039698D01*
X0050166Y0039738D01*
X0050164Y0039778D01*
D12*
X0048626Y0041228D02*
X0100126Y0041228D01*
X0100126Y0048228D01*
X0048626Y0048228D01*
X0048626Y0041228D01*
M02*
