G75*
%MOIN*%
%OFA0B0*%
%FSLAX25Y25*%
%IPPOS*%
%LPD*%
%AMOC8*
5,1,8,0,0,1.08239X$1,22.5*
%
%ADD10R,0.01500X0.05000*%
%ADD11R,0.01181X0.04724*%
%ADD12R,0.06299X0.09449*%
%ADD13R,0.03150X0.06299*%
D10*
X0053176Y0040878D03*
X0055676Y0040878D03*
X0058176Y0040878D03*
X0060676Y0040878D03*
X0063176Y0040878D03*
X0065676Y0040878D03*
X0068176Y0040878D03*
X0070676Y0040878D03*
X0073176Y0040878D03*
X0075676Y0040878D03*
X0078176Y0040878D03*
X0080676Y0040878D03*
X0083176Y0040878D03*
X0085676Y0040878D03*
X0088176Y0040878D03*
X0090676Y0040878D03*
X0093176Y0040878D03*
X0095676Y0040878D03*
X0095676Y0048878D03*
X0093176Y0048878D03*
X0090676Y0048878D03*
X0088176Y0048878D03*
X0085676Y0048878D03*
X0083176Y0048878D03*
X0080676Y0048878D03*
X0078176Y0048878D03*
X0075676Y0048878D03*
X0073176Y0048878D03*
X0070676Y0048878D03*
X0068176Y0048878D03*
X0065676Y0048878D03*
X0063176Y0048878D03*
X0060676Y0048878D03*
X0058176Y0048878D03*
X0055676Y0048878D03*
X0053176Y0048878D03*
D11*
X0052772Y0029799D03*
X0052772Y0029799D03*
X0052772Y0029799D03*
X0054741Y0029799D03*
X0054741Y0029799D03*
X0054741Y0029799D03*
X0056709Y0029799D03*
X0056709Y0029799D03*
X0056709Y0029799D03*
X0058678Y0029799D03*
X0058678Y0029799D03*
X0058678Y0029799D03*
X0060646Y0029799D03*
X0060646Y0029799D03*
X0060646Y0029799D03*
X0062615Y0029799D03*
X0062615Y0029799D03*
X0062615Y0029799D03*
X0064583Y0029799D03*
X0064583Y0029799D03*
X0064583Y0029799D03*
X0066552Y0029799D03*
X0066552Y0029799D03*
X0066552Y0029799D03*
X0068520Y0029799D03*
X0068520Y0029799D03*
X0068520Y0029799D03*
X0070489Y0029799D03*
X0070489Y0029799D03*
X0070489Y0029799D03*
X0072457Y0029799D03*
X0072457Y0029799D03*
X0072457Y0029799D03*
X0074426Y0029799D03*
X0074426Y0029799D03*
X0074426Y0029799D03*
X0076394Y0029799D03*
X0076394Y0029799D03*
X0076394Y0029799D03*
X0078363Y0029799D03*
X0078363Y0029799D03*
X0078363Y0029799D03*
X0080331Y0029799D03*
X0080331Y0029799D03*
X0080331Y0029799D03*
X0082300Y0029799D03*
X0082300Y0029799D03*
X0082300Y0029799D03*
X0084268Y0029799D03*
X0084268Y0029799D03*
X0084268Y0029799D03*
X0086237Y0029799D03*
X0086237Y0029799D03*
X0086237Y0029799D03*
X0088205Y0029799D03*
X0088205Y0029799D03*
X0088205Y0029799D03*
X0090174Y0029799D03*
X0090174Y0029799D03*
X0090174Y0029799D03*
X0092142Y0029799D03*
X0092142Y0029799D03*
X0092142Y0029799D03*
X0094111Y0029799D03*
X0094111Y0029799D03*
X0094111Y0029799D03*
X0096079Y0029799D03*
X0096079Y0029799D03*
X0096079Y0029799D03*
X0098048Y0029799D03*
X0098048Y0029799D03*
X0098048Y0029799D03*
X0100016Y0029799D03*
X0100016Y0029799D03*
X0100016Y0029799D03*
X0101985Y0029799D03*
X0101985Y0029799D03*
X0101985Y0029799D03*
X0103953Y0029799D03*
X0103953Y0029799D03*
X0103953Y0029799D03*
X0105922Y0029799D03*
X0105922Y0029799D03*
X0105922Y0029799D03*
X0107890Y0029799D03*
X0107890Y0029799D03*
X0107890Y0029799D03*
X0109859Y0029799D03*
X0109859Y0029799D03*
X0109859Y0029799D03*
X0050804Y0029799D03*
X0050804Y0029799D03*
X0050804Y0029799D03*
X0048835Y0029799D03*
X0048835Y0029799D03*
X0048835Y0029799D03*
X0046867Y0029799D03*
X0046867Y0029799D03*
X0046867Y0029799D03*
X0044898Y0029799D03*
X0044898Y0029799D03*
X0044898Y0029799D03*
X0042930Y0029799D03*
X0042930Y0029799D03*
X0042930Y0029799D03*
X0040961Y0029799D03*
X0040961Y0029799D03*
X0040961Y0029799D03*
D12*
X0034268Y0019169D03*
X0034268Y0019169D03*
X0034268Y0019169D03*
X0116552Y0019169D03*
X0116552Y0019169D03*
X0116552Y0019169D03*
D13*
X0029544Y0017594D03*
X0029544Y0017594D03*
X0029544Y0017594D03*
X0121276Y0017594D03*
X0121276Y0017594D03*
X0121276Y0017594D03*
M02*
