G75*
%MOIN*%
%OFA0B0*%
%FSLAX25Y25*%
%IPPOS*%
%LPD*%
%AMOC8*
5,1,8,0,0,1.08239X$1,22.5*
%
%ADD10R,0.01500X0.05000*%
%ADD11R,0.01181X0.04724*%
%ADD12R,0.06299X0.09449*%
%ADD13R,0.03150X0.06299*%
%ADD14C,0.00492*%
%ADD15C,0.02787*%
%ADD16OC8,0.06496*%
D10*
X0053176Y0040878D03*
X0055676Y0040878D03*
X0058176Y0040878D03*
X0060676Y0040878D03*
X0063176Y0040878D03*
X0065676Y0040878D03*
X0068176Y0040878D03*
X0070676Y0040878D03*
X0073176Y0040878D03*
X0075676Y0040878D03*
X0078176Y0040878D03*
X0080676Y0040878D03*
X0083176Y0040878D03*
X0085676Y0040878D03*
X0088176Y0040878D03*
X0090676Y0040878D03*
X0093176Y0040878D03*
X0095676Y0040878D03*
X0095676Y0048878D03*
X0093176Y0048878D03*
X0090676Y0048878D03*
X0088176Y0048878D03*
X0085676Y0048878D03*
X0083176Y0048878D03*
X0080676Y0048878D03*
X0078176Y0048878D03*
X0075676Y0048878D03*
X0073176Y0048878D03*
X0070676Y0048878D03*
X0068176Y0048878D03*
X0065676Y0048878D03*
X0063176Y0048878D03*
X0060676Y0048878D03*
X0058176Y0048878D03*
X0055676Y0048878D03*
X0053176Y0048878D03*
D11*
X0052772Y0029799D03*
X0052772Y0029799D03*
X0052772Y0029799D03*
X0054741Y0029799D03*
X0054741Y0029799D03*
X0054741Y0029799D03*
X0056709Y0029799D03*
X0056709Y0029799D03*
X0056709Y0029799D03*
X0058678Y0029799D03*
X0058678Y0029799D03*
X0058678Y0029799D03*
X0060646Y0029799D03*
X0060646Y0029799D03*
X0060646Y0029799D03*
X0062615Y0029799D03*
X0062615Y0029799D03*
X0062615Y0029799D03*
X0064583Y0029799D03*
X0064583Y0029799D03*
X0064583Y0029799D03*
X0066552Y0029799D03*
X0066552Y0029799D03*
X0066552Y0029799D03*
X0068520Y0029799D03*
X0068520Y0029799D03*
X0068520Y0029799D03*
X0070489Y0029799D03*
X0070489Y0029799D03*
X0070489Y0029799D03*
X0072457Y0029799D03*
X0072457Y0029799D03*
X0072457Y0029799D03*
X0074426Y0029799D03*
X0074426Y0029799D03*
X0074426Y0029799D03*
X0076394Y0029799D03*
X0076394Y0029799D03*
X0076394Y0029799D03*
X0078363Y0029799D03*
X0078363Y0029799D03*
X0078363Y0029799D03*
X0080331Y0029799D03*
X0080331Y0029799D03*
X0080331Y0029799D03*
X0082300Y0029799D03*
X0082300Y0029799D03*
X0082300Y0029799D03*
X0084268Y0029799D03*
X0084268Y0029799D03*
X0084268Y0029799D03*
X0086237Y0029799D03*
X0086237Y0029799D03*
X0086237Y0029799D03*
X0088205Y0029799D03*
X0088205Y0029799D03*
X0088205Y0029799D03*
X0090174Y0029799D03*
X0090174Y0029799D03*
X0090174Y0029799D03*
X0092142Y0029799D03*
X0092142Y0029799D03*
X0092142Y0029799D03*
X0094111Y0029799D03*
X0094111Y0029799D03*
X0094111Y0029799D03*
X0096079Y0029799D03*
X0096079Y0029799D03*
X0096079Y0029799D03*
X0098048Y0029799D03*
X0098048Y0029799D03*
X0098048Y0029799D03*
X0100016Y0029799D03*
X0100016Y0029799D03*
X0100016Y0029799D03*
X0101985Y0029799D03*
X0101985Y0029799D03*
X0101985Y0029799D03*
X0103953Y0029799D03*
X0103953Y0029799D03*
X0103953Y0029799D03*
X0105922Y0029799D03*
X0105922Y0029799D03*
X0105922Y0029799D03*
X0107890Y0029799D03*
X0107890Y0029799D03*
X0107890Y0029799D03*
X0109859Y0029799D03*
X0109859Y0029799D03*
X0109859Y0029799D03*
X0050804Y0029799D03*
X0050804Y0029799D03*
X0050804Y0029799D03*
X0048835Y0029799D03*
X0048835Y0029799D03*
X0048835Y0029799D03*
X0046867Y0029799D03*
X0046867Y0029799D03*
X0046867Y0029799D03*
X0044898Y0029799D03*
X0044898Y0029799D03*
X0044898Y0029799D03*
X0042930Y0029799D03*
X0042930Y0029799D03*
X0042930Y0029799D03*
X0040961Y0029799D03*
X0040961Y0029799D03*
X0040961Y0029799D03*
D12*
X0034268Y0019169D03*
X0034268Y0019169D03*
X0034268Y0019169D03*
X0116552Y0019169D03*
X0116552Y0019169D03*
X0116552Y0019169D03*
D13*
X0029544Y0017594D03*
X0029544Y0017594D03*
X0029544Y0017594D03*
X0121276Y0017594D03*
X0121276Y0017594D03*
X0121276Y0017594D03*
D14*
X0120440Y0021482D02*
X0120440Y0024199D01*
X0120007Y0024632D01*
X0113096Y0024632D01*
X0112664Y0024199D01*
X0112664Y0014283D01*
X0038156Y0014283D01*
X0038156Y0024199D01*
X0037724Y0024632D01*
X0030813Y0024632D01*
X0030381Y0024199D01*
X0030381Y0021482D01*
X0027663Y0021482D01*
X0027375Y0021194D01*
X0027375Y0057067D01*
X0053895Y0057067D01*
X0053554Y0056726D01*
X0053554Y0054959D01*
X0054707Y0053806D01*
X0054712Y0052116D01*
X0054620Y0052116D01*
X0054426Y0051922D01*
X0054232Y0052116D01*
X0052120Y0052116D01*
X0051688Y0051684D01*
X0051688Y0049862D01*
X0036759Y0049862D01*
X0036759Y0052336D01*
X0034423Y0054671D01*
X0031121Y0054671D01*
X0028786Y0052336D01*
X0028786Y0049034D01*
X0031121Y0046699D01*
X0034423Y0046699D01*
X0035618Y0047894D01*
X0051688Y0047894D01*
X0051688Y0046072D01*
X0051965Y0045795D01*
X0051965Y0045356D01*
X0052542Y0044780D01*
X0053205Y0044116D01*
X0052120Y0044116D01*
X0051688Y0043684D01*
X0051688Y0041862D01*
X0038306Y0041862D01*
X0035387Y0038944D01*
X0034916Y0039415D01*
X0031613Y0039415D01*
X0029278Y0037080D01*
X0029278Y0033778D01*
X0031613Y0031443D01*
X0032280Y0031443D01*
X0032280Y0031084D01*
X0038186Y0025179D01*
X0038762Y0024602D01*
X0039746Y0024602D01*
X0043107Y0021242D01*
X0043684Y0020665D01*
X0107491Y0020665D01*
X0112904Y0026079D01*
X0113481Y0026655D01*
X0113481Y0040758D01*
X0104377Y0049862D01*
X0097164Y0049862D01*
X0097164Y0051684D01*
X0096732Y0052116D01*
X0094974Y0052116D01*
X0095298Y0052440D01*
X0095298Y0054206D01*
X0094049Y0055455D01*
X0092818Y0055455D01*
X0092818Y0056726D01*
X0092476Y0057067D01*
X0122816Y0057067D01*
X0122816Y0021482D01*
X0120440Y0021482D01*
X0120440Y0021917D02*
X0122816Y0021917D01*
X0122816Y0022408D02*
X0120440Y0022408D01*
X0120440Y0022898D02*
X0122816Y0022898D01*
X0122816Y0023389D02*
X0120440Y0023389D01*
X0120440Y0023879D02*
X0122816Y0023879D01*
X0122816Y0024370D02*
X0120269Y0024370D01*
X0122816Y0024861D02*
X0111686Y0024861D01*
X0111196Y0024370D02*
X0112835Y0024370D01*
X0112664Y0023879D02*
X0110705Y0023879D01*
X0110215Y0023389D02*
X0112664Y0023389D01*
X0112664Y0022898D02*
X0109724Y0022898D01*
X0109233Y0022408D02*
X0112664Y0022408D01*
X0112664Y0021917D02*
X0108743Y0021917D01*
X0108252Y0021426D02*
X0112664Y0021426D01*
X0112664Y0020936D02*
X0107761Y0020936D01*
X0107083Y0021650D02*
X0112497Y0027063D01*
X0112497Y0040350D01*
X0103969Y0048878D01*
X0095676Y0048878D01*
X0097164Y0047894D02*
X0103561Y0047894D01*
X0111512Y0039943D01*
X0111512Y0027471D01*
X0111188Y0027146D01*
X0111188Y0032467D01*
X0110755Y0032900D01*
X0108963Y0032900D01*
X0108875Y0032812D01*
X0108787Y0032900D01*
X0106994Y0032900D01*
X0106906Y0032812D01*
X0106818Y0032900D01*
X0105026Y0032900D01*
X0104938Y0032812D01*
X0104938Y0035055D01*
X0104979Y0035401D01*
X0104938Y0035454D01*
X0104938Y0035522D01*
X0104691Y0035768D01*
X0103146Y0037738D01*
X0103146Y0037805D01*
X0102900Y0038052D01*
X0102685Y0038326D01*
X0102618Y0038334D01*
X0102570Y0038382D01*
X0102221Y0038382D01*
X0101875Y0038424D01*
X0101822Y0038382D01*
X0097164Y0038382D01*
X0097164Y0043684D01*
X0096732Y0044116D01*
X0096660Y0044116D01*
X0096660Y0044292D01*
X0095764Y0045187D01*
X0095312Y0045640D01*
X0096732Y0045640D01*
X0097164Y0046072D01*
X0097164Y0047894D01*
X0097164Y0047430D02*
X0104025Y0047430D01*
X0104516Y0046939D02*
X0097164Y0046939D01*
X0097164Y0046449D02*
X0105006Y0046449D01*
X0105497Y0045958D02*
X0097050Y0045958D01*
X0095975Y0044977D02*
X0106478Y0044977D01*
X0105988Y0045468D02*
X0095484Y0045468D01*
X0094780Y0044780D02*
X0053934Y0044780D01*
X0052949Y0045764D01*
X0052949Y0048652D01*
X0053176Y0048878D01*
X0034579Y0048878D01*
X0032772Y0050685D01*
X0035777Y0053318D02*
X0054709Y0053318D01*
X0054705Y0053808D02*
X0035286Y0053808D01*
X0034796Y0054299D02*
X0054214Y0054299D01*
X0053724Y0054790D02*
X0027375Y0054790D01*
X0027375Y0055280D02*
X0053554Y0055280D01*
X0053554Y0055771D02*
X0027375Y0055771D01*
X0027375Y0056262D02*
X0053554Y0056262D01*
X0053580Y0056752D02*
X0027375Y0056752D01*
X0027375Y0054299D02*
X0030749Y0054299D01*
X0030258Y0053808D02*
X0027375Y0053808D01*
X0027375Y0053318D02*
X0029768Y0053318D01*
X0029277Y0052827D02*
X0027375Y0052827D01*
X0027375Y0052336D02*
X0028786Y0052336D01*
X0028786Y0051846D02*
X0027375Y0051846D01*
X0027375Y0051355D02*
X0028786Y0051355D01*
X0028786Y0050865D02*
X0027375Y0050865D01*
X0027375Y0050374D02*
X0028786Y0050374D01*
X0028786Y0049883D02*
X0027375Y0049883D01*
X0027375Y0049393D02*
X0028786Y0049393D01*
X0028918Y0048902D02*
X0027375Y0048902D01*
X0027375Y0048411D02*
X0029409Y0048411D01*
X0029899Y0047921D02*
X0027375Y0047921D01*
X0027375Y0047430D02*
X0030390Y0047430D01*
X0030881Y0046939D02*
X0027375Y0046939D01*
X0027375Y0046449D02*
X0051688Y0046449D01*
X0051688Y0046939D02*
X0034664Y0046939D01*
X0035155Y0047430D02*
X0051688Y0047430D01*
X0051802Y0045958D02*
X0027375Y0045958D01*
X0027375Y0045468D02*
X0051965Y0045468D01*
X0052344Y0044977D02*
X0027375Y0044977D01*
X0027375Y0044486D02*
X0052835Y0044486D01*
X0052000Y0043996D02*
X0027375Y0043996D01*
X0027375Y0043505D02*
X0051688Y0043505D01*
X0051688Y0043014D02*
X0027375Y0043014D01*
X0027375Y0042524D02*
X0051688Y0042524D01*
X0051688Y0042033D02*
X0027375Y0042033D01*
X0027375Y0041542D02*
X0037986Y0041542D01*
X0037495Y0041052D02*
X0027375Y0041052D01*
X0027375Y0040561D02*
X0037005Y0040561D01*
X0036514Y0040071D02*
X0027375Y0040071D01*
X0027375Y0039580D02*
X0036023Y0039580D01*
X0035533Y0039089D02*
X0035242Y0039089D01*
X0036779Y0037552D02*
X0039121Y0039894D01*
X0051688Y0039894D01*
X0051688Y0038382D01*
X0046636Y0038382D01*
X0046060Y0037805D01*
X0043914Y0035660D01*
X0043914Y0032812D01*
X0043826Y0032900D01*
X0042033Y0032900D01*
X0041946Y0032812D01*
X0041858Y0032900D01*
X0040065Y0032900D01*
X0039633Y0032467D01*
X0039633Y0027131D01*
X0040065Y0026699D01*
X0041858Y0026699D01*
X0041946Y0026787D01*
X0042033Y0026699D01*
X0043826Y0026699D01*
X0043914Y0026787D01*
X0044002Y0026699D01*
X0045795Y0026699D01*
X0045883Y0026787D01*
X0045883Y0026537D01*
X0044488Y0026537D01*
X0043239Y0025289D01*
X0043239Y0023894D01*
X0040562Y0026571D01*
X0039746Y0026571D01*
X0039578Y0026571D01*
X0034706Y0031443D01*
X0034916Y0031443D01*
X0037251Y0033778D01*
X0037251Y0037080D01*
X0036779Y0037552D01*
X0036845Y0037617D02*
X0045872Y0037617D01*
X0045381Y0037127D02*
X0037204Y0037127D01*
X0037251Y0036636D02*
X0044890Y0036636D01*
X0044400Y0036145D02*
X0037251Y0036145D01*
X0037251Y0035655D02*
X0043914Y0035655D01*
X0043914Y0035164D02*
X0037251Y0035164D01*
X0037251Y0034674D02*
X0043914Y0034674D01*
X0043914Y0034183D02*
X0037251Y0034183D01*
X0037165Y0033692D02*
X0043914Y0033692D01*
X0043914Y0033202D02*
X0036674Y0033202D01*
X0036184Y0032711D02*
X0039876Y0032711D01*
X0039633Y0032220D02*
X0035693Y0032220D01*
X0035202Y0031730D02*
X0039633Y0031730D01*
X0039633Y0031239D02*
X0034909Y0031239D01*
X0035400Y0030748D02*
X0039633Y0030748D01*
X0039633Y0030258D02*
X0035891Y0030258D01*
X0036381Y0029767D02*
X0039633Y0029767D01*
X0039633Y0029277D02*
X0036872Y0029277D01*
X0037363Y0028786D02*
X0039633Y0028786D01*
X0039633Y0028295D02*
X0037853Y0028295D01*
X0038344Y0027805D02*
X0039633Y0027805D01*
X0039633Y0027314D02*
X0038835Y0027314D01*
X0039325Y0026823D02*
X0039940Y0026823D01*
X0040800Y0026333D02*
X0044283Y0026333D01*
X0043792Y0025842D02*
X0041291Y0025842D01*
X0041781Y0025351D02*
X0043302Y0025351D01*
X0043239Y0024861D02*
X0042272Y0024861D01*
X0042763Y0024370D02*
X0043239Y0024370D01*
X0045371Y0024406D02*
X0046867Y0025902D01*
X0046867Y0029799D01*
X0048835Y0029799D02*
X0048835Y0035252D01*
X0049997Y0036413D01*
X0057182Y0036413D01*
X0058264Y0037496D01*
X0058264Y0040789D01*
X0058176Y0040878D01*
X0055705Y0040848D02*
X0055676Y0040878D01*
X0055705Y0040848D02*
X0055705Y0037890D01*
X0055213Y0037398D01*
X0047044Y0037398D01*
X0044898Y0035252D01*
X0044898Y0029799D01*
X0045883Y0032812D02*
X0045883Y0032812D01*
X0045883Y0034844D01*
X0047452Y0036413D01*
X0048605Y0036413D01*
X0047851Y0035660D01*
X0047851Y0034844D01*
X0047851Y0032812D01*
X0047851Y0032812D01*
X0047763Y0032900D01*
X0045970Y0032900D01*
X0045883Y0032812D01*
X0045883Y0033202D02*
X0047851Y0033202D01*
X0047851Y0033692D02*
X0045883Y0033692D01*
X0045883Y0034183D02*
X0047851Y0034183D01*
X0047851Y0034674D02*
X0045883Y0034674D01*
X0046202Y0035164D02*
X0047851Y0035164D01*
X0047851Y0035655D02*
X0046693Y0035655D01*
X0047184Y0036145D02*
X0048337Y0036145D01*
X0049820Y0034844D02*
X0050404Y0035429D01*
X0052542Y0035429D01*
X0051788Y0034675D01*
X0051788Y0033860D01*
X0051788Y0032812D01*
X0051788Y0032812D01*
X0051700Y0032900D01*
X0049907Y0032900D01*
X0049820Y0032812D01*
X0049820Y0034844D01*
X0049820Y0034674D02*
X0051788Y0034674D01*
X0051788Y0034183D02*
X0049820Y0034183D01*
X0049820Y0033692D02*
X0051788Y0033692D01*
X0051788Y0033202D02*
X0049820Y0033202D01*
X0049820Y0032812D02*
X0049820Y0032812D01*
X0050139Y0035164D02*
X0052277Y0035164D01*
X0052772Y0034268D02*
X0053934Y0035429D01*
X0059347Y0035429D01*
X0060725Y0036807D01*
X0060725Y0040829D01*
X0060676Y0040878D01*
X0063176Y0040878D02*
X0063186Y0040868D01*
X0063186Y0036906D01*
X0060725Y0034445D01*
X0057379Y0034445D01*
X0056709Y0033776D01*
X0056709Y0029799D01*
X0058678Y0029799D02*
X0058678Y0025902D01*
X0057201Y0024406D01*
X0055725Y0025944D02*
X0055725Y0026309D01*
X0055725Y0026787D01*
X0055813Y0026699D01*
X0057606Y0026699D01*
X0057694Y0026787D01*
X0057694Y0026537D01*
X0056318Y0026537D01*
X0055725Y0025944D01*
X0055725Y0026333D02*
X0056114Y0026333D01*
X0054741Y0025902D02*
X0053245Y0024406D01*
X0054488Y0022634D02*
X0055223Y0023369D01*
X0055958Y0022634D01*
X0054488Y0022634D01*
X0054752Y0022898D02*
X0055694Y0022898D01*
X0058445Y0022634D02*
X0059160Y0023349D01*
X0059875Y0022634D01*
X0058445Y0022634D01*
X0058709Y0022898D02*
X0059611Y0022898D01*
X0061119Y0024406D02*
X0062615Y0025902D01*
X0062615Y0029799D01*
X0060646Y0029799D02*
X0060646Y0032791D01*
X0061316Y0033461D01*
X0062989Y0033461D01*
X0065646Y0036610D01*
X0065646Y0040848D01*
X0065676Y0040878D01*
X0068176Y0040878D02*
X0068205Y0040848D01*
X0068205Y0036413D01*
X0064583Y0032791D01*
X0064583Y0029799D01*
X0066552Y0029799D02*
X0066552Y0025902D01*
X0065056Y0024406D01*
X0063812Y0022634D02*
X0063087Y0023359D01*
X0062362Y0022634D01*
X0063812Y0022634D01*
X0063548Y0022898D02*
X0062626Y0022898D01*
X0066299Y0022634D02*
X0067024Y0023359D01*
X0067749Y0022634D01*
X0066299Y0022634D01*
X0066563Y0022898D02*
X0067485Y0022898D01*
X0068993Y0024406D02*
X0070489Y0025902D01*
X0070489Y0029799D01*
X0072457Y0029799D02*
X0072457Y0034760D01*
X0073127Y0035429D01*
X0073127Y0040829D01*
X0073176Y0040878D01*
X0075587Y0040789D02*
X0075676Y0040878D01*
X0075587Y0040789D02*
X0075587Y0035429D01*
X0076394Y0034622D01*
X0076394Y0029799D01*
X0074426Y0029799D02*
X0074426Y0025902D01*
X0072930Y0024406D01*
X0074173Y0022634D02*
X0074898Y0023359D01*
X0075624Y0022634D01*
X0074173Y0022634D01*
X0074437Y0022898D02*
X0075359Y0022898D01*
X0076867Y0024406D02*
X0078363Y0025902D01*
X0078363Y0029799D01*
X0080331Y0029799D02*
X0080331Y0033441D01*
X0078245Y0035528D01*
X0078245Y0040809D01*
X0078176Y0040878D01*
X0080607Y0040809D02*
X0080676Y0040878D01*
X0080607Y0040809D02*
X0080607Y0036610D01*
X0084268Y0032949D01*
X0084268Y0029799D01*
X0086237Y0029799D02*
X0086237Y0025902D01*
X0084741Y0024406D01*
X0086248Y0022898D02*
X0087170Y0022898D01*
X0087435Y0022634D02*
X0085984Y0022634D01*
X0086709Y0023359D01*
X0087435Y0022634D01*
X0088678Y0024406D02*
X0090174Y0025803D01*
X0090174Y0029799D01*
X0088205Y0029799D02*
X0088205Y0032654D01*
X0087398Y0033461D01*
X0086020Y0033461D01*
X0083068Y0036413D01*
X0083068Y0040770D01*
X0083176Y0040878D01*
X0085627Y0040829D02*
X0085676Y0040878D01*
X0085627Y0040829D02*
X0085627Y0036807D01*
X0087989Y0034445D01*
X0091335Y0034445D01*
X0092142Y0033638D01*
X0092142Y0029799D01*
X0094111Y0029799D02*
X0094111Y0025803D01*
X0092615Y0024406D01*
X0091372Y0022634D02*
X0090646Y0023359D01*
X0089921Y0022634D01*
X0091372Y0022634D01*
X0091107Y0022898D02*
X0090185Y0022898D01*
X0093858Y0022634D02*
X0094583Y0023359D01*
X0095309Y0022634D01*
X0093858Y0022634D01*
X0094122Y0022898D02*
X0095044Y0022898D01*
X0096552Y0024406D02*
X0098048Y0025803D01*
X0098048Y0029799D01*
X0100016Y0029799D02*
X0100016Y0035114D01*
X0098717Y0036413D01*
X0091434Y0036413D01*
X0090646Y0037201D01*
X0090646Y0040848D01*
X0090676Y0040878D01*
X0088186Y0040868D02*
X0088176Y0040878D01*
X0088186Y0040868D02*
X0088186Y0036709D01*
X0089465Y0035429D01*
X0094780Y0035429D01*
X0096079Y0034130D01*
X0096079Y0029799D01*
X0095095Y0026787D02*
X0095183Y0026699D01*
X0096976Y0026699D01*
X0097064Y0026787D01*
X0097064Y0026537D01*
X0095669Y0026537D01*
X0095101Y0025970D01*
X0095108Y0026177D01*
X0095095Y0026191D01*
X0095095Y0026787D01*
X0095095Y0026333D02*
X0095464Y0026333D01*
X0093127Y0026537D02*
X0093127Y0026787D01*
X0093127Y0026787D01*
X0093039Y0026699D01*
X0091246Y0026699D01*
X0091158Y0026787D01*
X0091158Y0026191D01*
X0091171Y0026177D01*
X0091164Y0025970D01*
X0091732Y0026537D01*
X0093127Y0026537D01*
X0091527Y0026333D02*
X0091158Y0026333D01*
X0089190Y0026537D02*
X0087795Y0026537D01*
X0087221Y0025964D01*
X0087221Y0026309D01*
X0087221Y0026787D01*
X0087309Y0026699D01*
X0089102Y0026699D01*
X0089190Y0026787D01*
X0089190Y0026537D01*
X0089190Y0026787D02*
X0089190Y0026787D01*
X0087590Y0026333D02*
X0087221Y0026333D01*
X0085253Y0026537D02*
X0083858Y0026537D01*
X0083284Y0025964D01*
X0083284Y0026309D01*
X0083284Y0026787D01*
X0083372Y0026699D01*
X0085165Y0026699D01*
X0085253Y0026787D01*
X0085253Y0026537D01*
X0085253Y0026787D02*
X0085253Y0026787D01*
X0083653Y0026333D02*
X0083284Y0026333D01*
X0082300Y0025902D02*
X0080804Y0024406D01*
X0082047Y0022634D02*
X0082772Y0023359D01*
X0083498Y0022634D01*
X0082047Y0022634D01*
X0082311Y0022898D02*
X0083233Y0022898D01*
X0079561Y0022634D02*
X0078110Y0022634D01*
X0078835Y0023359D01*
X0079561Y0022634D01*
X0079296Y0022898D02*
X0078374Y0022898D01*
X0079347Y0025964D02*
X0079347Y0026309D01*
X0079347Y0026787D01*
X0079435Y0026699D01*
X0081228Y0026699D01*
X0081316Y0026787D01*
X0081316Y0026537D01*
X0079921Y0026537D01*
X0079347Y0025964D01*
X0079347Y0026333D02*
X0079716Y0026333D01*
X0081316Y0026787D02*
X0081316Y0026787D01*
X0082300Y0025902D02*
X0082300Y0029799D01*
X0081316Y0032812D02*
X0081316Y0033849D01*
X0079229Y0035935D01*
X0079229Y0037640D01*
X0079232Y0037640D01*
X0079426Y0037834D01*
X0079620Y0037640D01*
X0079623Y0037640D01*
X0079623Y0036203D01*
X0080199Y0035626D01*
X0082926Y0032900D01*
X0081404Y0032900D01*
X0081316Y0032812D01*
X0081316Y0033202D02*
X0082624Y0033202D01*
X0082133Y0033692D02*
X0081316Y0033692D01*
X0081642Y0034183D02*
X0080981Y0034183D01*
X0081152Y0034674D02*
X0080491Y0034674D01*
X0080661Y0035164D02*
X0080000Y0035164D01*
X0080170Y0035655D02*
X0079509Y0035655D01*
X0079680Y0036145D02*
X0079229Y0036145D01*
X0079229Y0036636D02*
X0079623Y0036636D01*
X0079623Y0037127D02*
X0079229Y0037127D01*
X0079229Y0037617D02*
X0079623Y0037617D01*
X0081591Y0037617D02*
X0082083Y0037617D01*
X0082083Y0037677D02*
X0082083Y0036526D01*
X0081591Y0037018D01*
X0081591Y0037640D01*
X0081732Y0037640D01*
X0081926Y0037834D01*
X0082083Y0037677D01*
X0082083Y0037127D02*
X0081591Y0037127D01*
X0081973Y0036636D02*
X0082083Y0036636D01*
X0084052Y0036821D02*
X0084052Y0037640D01*
X0084232Y0037640D01*
X0084426Y0037834D01*
X0084620Y0037640D01*
X0084642Y0037640D01*
X0084642Y0036399D01*
X0085219Y0035823D01*
X0086597Y0034445D01*
X0086428Y0034445D01*
X0084052Y0036821D01*
X0084237Y0036636D02*
X0084642Y0036636D01*
X0084642Y0037127D02*
X0084052Y0037127D01*
X0084052Y0037617D02*
X0084642Y0037617D01*
X0086611Y0037617D02*
X0087201Y0037617D01*
X0087201Y0037640D02*
X0087201Y0036624D01*
X0086611Y0037215D01*
X0086611Y0037640D01*
X0086732Y0037640D01*
X0086926Y0037834D01*
X0087120Y0037640D01*
X0087201Y0037640D01*
X0087201Y0037127D02*
X0086699Y0037127D01*
X0087190Y0036636D02*
X0087201Y0036636D01*
X0089170Y0037116D02*
X0089170Y0037640D01*
X0089232Y0037640D01*
X0089426Y0037834D01*
X0089620Y0037640D01*
X0089662Y0037640D01*
X0089662Y0036793D01*
X0090042Y0036413D01*
X0089873Y0036413D01*
X0089170Y0037116D01*
X0089170Y0037127D02*
X0089662Y0037127D01*
X0089662Y0037617D02*
X0089170Y0037617D01*
X0089650Y0036636D02*
X0089819Y0036636D01*
X0091631Y0037608D02*
X0091631Y0037640D01*
X0091732Y0037640D01*
X0091926Y0037834D01*
X0092120Y0037640D01*
X0092221Y0037640D01*
X0092221Y0037398D01*
X0091841Y0037398D01*
X0091631Y0037608D01*
X0091631Y0037617D02*
X0092221Y0037617D01*
X0093205Y0037791D02*
X0093205Y0040848D01*
X0093176Y0040878D01*
X0095676Y0040878D02*
X0095676Y0043884D01*
X0094780Y0044780D01*
X0094496Y0045764D02*
X0094356Y0045764D01*
X0094426Y0045834D01*
X0094496Y0045764D01*
X0096465Y0044486D02*
X0106969Y0044486D01*
X0107460Y0043996D02*
X0096852Y0043996D01*
X0097164Y0043505D02*
X0107950Y0043505D01*
X0108441Y0043014D02*
X0097164Y0043014D01*
X0097164Y0042524D02*
X0108931Y0042524D01*
X0109422Y0042033D02*
X0097164Y0042033D01*
X0097164Y0041542D02*
X0109913Y0041542D01*
X0110403Y0041052D02*
X0097164Y0041052D01*
X0097164Y0040561D02*
X0110894Y0040561D01*
X0111385Y0040071D02*
X0097164Y0040071D01*
X0097164Y0039580D02*
X0111512Y0039580D01*
X0111512Y0039089D02*
X0097164Y0039089D01*
X0097164Y0038599D02*
X0111512Y0038599D01*
X0111512Y0038108D02*
X0102856Y0038108D01*
X0103241Y0037617D02*
X0111512Y0037617D01*
X0111512Y0037127D02*
X0103626Y0037127D01*
X0104010Y0036636D02*
X0111512Y0036636D01*
X0111512Y0036145D02*
X0104395Y0036145D01*
X0104805Y0035655D02*
X0111512Y0035655D01*
X0111512Y0035164D02*
X0104951Y0035164D01*
X0104938Y0034674D02*
X0111512Y0034674D01*
X0111512Y0034183D02*
X0104938Y0034183D01*
X0104938Y0033692D02*
X0111512Y0033692D01*
X0111512Y0033202D02*
X0104938Y0033202D01*
X0102969Y0033202D02*
X0101001Y0033202D01*
X0101089Y0032900D02*
X0101001Y0032812D01*
X0101001Y0035522D01*
X0100109Y0036413D01*
X0101683Y0036413D01*
X0102969Y0034774D01*
X0102969Y0032812D01*
X0102969Y0032812D01*
X0102881Y0032900D01*
X0101089Y0032900D01*
X0101001Y0033692D02*
X0102969Y0033692D01*
X0102969Y0034183D02*
X0101001Y0034183D01*
X0101001Y0034674D02*
X0102969Y0034674D01*
X0102663Y0035164D02*
X0101001Y0035164D01*
X0100868Y0035655D02*
X0102278Y0035655D01*
X0101893Y0036145D02*
X0100377Y0036145D01*
X0099032Y0034706D02*
X0098309Y0035429D01*
X0096172Y0035429D01*
X0097064Y0034538D01*
X0097064Y0032812D01*
X0097152Y0032900D01*
X0098944Y0032900D01*
X0099032Y0032812D01*
X0099032Y0032812D01*
X0099032Y0034706D01*
X0099032Y0034674D02*
X0096928Y0034674D01*
X0097064Y0034183D02*
X0099032Y0034183D01*
X0099032Y0033692D02*
X0097064Y0033692D01*
X0097064Y0033202D02*
X0099032Y0033202D01*
X0098574Y0035164D02*
X0096437Y0035164D01*
X0095095Y0033722D02*
X0094372Y0034445D01*
X0092727Y0034445D01*
X0093127Y0034045D01*
X0093127Y0032812D01*
X0093215Y0032900D01*
X0095007Y0032900D01*
X0095095Y0032812D01*
X0095095Y0032812D01*
X0095095Y0033722D01*
X0095095Y0033692D02*
X0093127Y0033692D01*
X0093127Y0033202D02*
X0095095Y0033202D01*
X0094634Y0034183D02*
X0092989Y0034183D01*
X0091158Y0033230D02*
X0091158Y0032812D01*
X0091070Y0032900D01*
X0089278Y0032900D01*
X0089190Y0032812D01*
X0089190Y0033061D01*
X0088790Y0033461D01*
X0090928Y0033461D01*
X0091158Y0033230D01*
X0091158Y0033202D02*
X0089049Y0033202D01*
X0091158Y0032812D02*
X0091158Y0032812D01*
X0086368Y0034674D02*
X0086199Y0034674D01*
X0085878Y0035164D02*
X0085709Y0035164D01*
X0085387Y0035655D02*
X0085218Y0035655D01*
X0084896Y0036145D02*
X0084727Y0036145D01*
X0085253Y0032836D02*
X0085265Y0032824D01*
X0085253Y0032812D01*
X0085253Y0032836D01*
X0079347Y0032812D02*
X0079347Y0033033D01*
X0077837Y0034543D01*
X0077379Y0035002D01*
X0077379Y0032812D01*
X0077467Y0032900D01*
X0079259Y0032900D01*
X0079347Y0032812D01*
X0079347Y0032812D01*
X0079179Y0033202D02*
X0077379Y0033202D01*
X0077379Y0033692D02*
X0078688Y0033692D01*
X0078197Y0034183D02*
X0077379Y0034183D01*
X0077379Y0034674D02*
X0077707Y0034674D01*
X0077260Y0035148D02*
X0076572Y0035837D01*
X0076572Y0037640D01*
X0076732Y0037640D01*
X0076926Y0037834D01*
X0077120Y0037640D01*
X0077260Y0037640D01*
X0077260Y0035148D01*
X0077260Y0035164D02*
X0077244Y0035164D01*
X0077260Y0035655D02*
X0076754Y0035655D01*
X0076572Y0036145D02*
X0077260Y0036145D01*
X0077260Y0036636D02*
X0076572Y0036636D01*
X0076572Y0037127D02*
X0077260Y0037127D01*
X0077260Y0037617D02*
X0076572Y0037617D01*
X0074603Y0037617D02*
X0074111Y0037617D01*
X0074111Y0037640D02*
X0074232Y0037640D01*
X0074426Y0037834D01*
X0074603Y0037657D01*
X0074603Y0035837D01*
X0074603Y0035021D01*
X0075410Y0034214D01*
X0075410Y0032812D01*
X0075322Y0032900D01*
X0073530Y0032900D01*
X0073442Y0032812D01*
X0073442Y0034352D01*
X0073534Y0034445D01*
X0074111Y0035021D01*
X0074111Y0037640D01*
X0074111Y0037127D02*
X0074603Y0037127D01*
X0074603Y0036636D02*
X0074111Y0036636D01*
X0074111Y0036145D02*
X0074603Y0036145D01*
X0074603Y0035655D02*
X0074111Y0035655D01*
X0074111Y0035164D02*
X0074603Y0035164D01*
X0074951Y0034674D02*
X0073763Y0034674D01*
X0073442Y0034183D02*
X0075410Y0034183D01*
X0075410Y0033692D02*
X0073442Y0033692D01*
X0073442Y0033202D02*
X0075410Y0033202D01*
X0075410Y0032812D02*
X0075410Y0032812D01*
X0073442Y0032812D02*
X0073442Y0032812D01*
X0071473Y0032812D02*
X0071473Y0032812D01*
X0071473Y0034839D01*
X0071354Y0034725D01*
X0071074Y0034445D01*
X0071060Y0034445D01*
X0069505Y0032961D01*
X0069505Y0032812D01*
X0069505Y0032812D01*
X0069593Y0032900D01*
X0071385Y0032900D01*
X0071473Y0032812D01*
X0071473Y0033202D02*
X0069757Y0033202D01*
X0070271Y0033692D02*
X0071473Y0033692D01*
X0071473Y0034183D02*
X0070786Y0034183D01*
X0071302Y0034674D02*
X0071473Y0034674D01*
X0071650Y0035345D02*
X0072142Y0035837D01*
X0072142Y0037640D01*
X0072120Y0037640D01*
X0071926Y0037834D01*
X0071732Y0037640D01*
X0071650Y0037640D01*
X0071650Y0035823D01*
X0071660Y0035814D01*
X0071650Y0035418D01*
X0071650Y0035345D01*
X0071656Y0035655D02*
X0071960Y0035655D01*
X0072142Y0036145D02*
X0071650Y0036145D01*
X0071650Y0036636D02*
X0072142Y0036636D01*
X0072142Y0037127D02*
X0071650Y0037127D01*
X0071650Y0037617D02*
X0072142Y0037617D01*
X0069682Y0037617D02*
X0069190Y0037617D01*
X0069190Y0037640D02*
X0069232Y0037640D01*
X0069426Y0037834D01*
X0069620Y0037640D01*
X0069682Y0037640D01*
X0069682Y0035850D01*
X0068126Y0034366D01*
X0068113Y0034366D01*
X0067832Y0034086D01*
X0067546Y0033813D01*
X0067546Y0033799D01*
X0067536Y0033790D01*
X0067536Y0033393D01*
X0067527Y0032997D01*
X0067536Y0032988D01*
X0067536Y0032812D01*
X0067536Y0032812D01*
X0067448Y0032900D01*
X0066084Y0032900D01*
X0068613Y0035429D01*
X0069190Y0036006D01*
X0069190Y0037640D01*
X0069190Y0037127D02*
X0069682Y0037127D01*
X0069682Y0036636D02*
X0069190Y0036636D01*
X0069190Y0036145D02*
X0069682Y0036145D01*
X0069477Y0035655D02*
X0068839Y0035655D01*
X0068963Y0035164D02*
X0068348Y0035164D01*
X0068448Y0034674D02*
X0067857Y0034674D01*
X0067929Y0034183D02*
X0067367Y0034183D01*
X0067536Y0033692D02*
X0066876Y0033692D01*
X0066386Y0033202D02*
X0067532Y0033202D01*
X0068520Y0033382D02*
X0070666Y0035429D01*
X0070666Y0040868D01*
X0070676Y0040878D01*
X0067221Y0037640D02*
X0067221Y0036821D01*
X0066631Y0036230D01*
X0066631Y0036250D01*
X0066661Y0036287D01*
X0066631Y0036652D01*
X0066631Y0037640D01*
X0066732Y0037640D01*
X0066926Y0037834D01*
X0067120Y0037640D01*
X0067221Y0037640D01*
X0067221Y0037617D02*
X0066631Y0037617D01*
X0066631Y0037127D02*
X0067221Y0037127D01*
X0067036Y0036636D02*
X0066632Y0036636D01*
X0064662Y0036970D02*
X0062532Y0034445D01*
X0062117Y0034445D01*
X0063593Y0035921D01*
X0064170Y0036498D01*
X0064170Y0037640D01*
X0064232Y0037640D01*
X0064426Y0037834D01*
X0064620Y0037640D01*
X0064662Y0037640D01*
X0064662Y0036970D01*
X0064662Y0037127D02*
X0064170Y0037127D01*
X0064170Y0037617D02*
X0064662Y0037617D01*
X0064380Y0036636D02*
X0064170Y0036636D01*
X0063966Y0036145D02*
X0063818Y0036145D01*
X0063552Y0035655D02*
X0063327Y0035655D01*
X0063138Y0035164D02*
X0062836Y0035164D01*
X0062724Y0034674D02*
X0062346Y0034674D01*
X0061709Y0036821D02*
X0061709Y0037640D01*
X0061732Y0037640D01*
X0061926Y0037834D01*
X0062120Y0037640D01*
X0062201Y0037640D01*
X0062201Y0037313D01*
X0061709Y0036821D01*
X0061709Y0037127D02*
X0062015Y0037127D01*
X0062201Y0037617D02*
X0061709Y0037617D01*
X0059741Y0037617D02*
X0059249Y0037617D01*
X0059249Y0037657D02*
X0059426Y0037834D01*
X0059620Y0037640D01*
X0059741Y0037640D01*
X0059741Y0037215D01*
X0058939Y0036413D01*
X0058574Y0036413D01*
X0058672Y0036512D01*
X0059249Y0037088D01*
X0059249Y0037657D01*
X0059249Y0037127D02*
X0059653Y0037127D01*
X0059162Y0036636D02*
X0058796Y0036636D01*
X0057068Y0037692D02*
X0056774Y0037398D01*
X0056605Y0037398D01*
X0056690Y0037482D01*
X0056690Y0037640D01*
X0056732Y0037640D01*
X0056926Y0037834D01*
X0057068Y0037692D01*
X0056994Y0037617D02*
X0056690Y0037617D01*
X0053176Y0040878D02*
X0038713Y0040878D01*
X0033264Y0035429D01*
X0033264Y0031492D01*
X0039170Y0025587D01*
X0040154Y0025587D01*
X0044091Y0021650D01*
X0107083Y0021650D01*
X0106676Y0022634D02*
X0105669Y0022634D01*
X0106558Y0023522D01*
X0106558Y0025047D01*
X0106606Y0025095D01*
X0106892Y0025362D01*
X0106892Y0025382D01*
X0106906Y0025395D01*
X0106906Y0025787D01*
X0106919Y0026177D01*
X0106906Y0026191D01*
X0106906Y0026787D01*
X0106994Y0026699D01*
X0108787Y0026699D01*
X0108875Y0026787D01*
X0108963Y0026699D01*
X0110741Y0026699D01*
X0106676Y0022634D01*
X0106940Y0022898D02*
X0105933Y0022898D01*
X0106424Y0023389D02*
X0107431Y0023389D01*
X0107921Y0023879D02*
X0106558Y0023879D01*
X0106558Y0024370D02*
X0108412Y0024370D01*
X0108903Y0024861D02*
X0106558Y0024861D01*
X0106880Y0025351D02*
X0109393Y0025351D01*
X0109884Y0025842D02*
X0106908Y0025842D01*
X0106906Y0026333D02*
X0110374Y0026333D01*
X0111188Y0027314D02*
X0111356Y0027314D01*
X0111512Y0027805D02*
X0111188Y0027805D01*
X0111188Y0028295D02*
X0111512Y0028295D01*
X0111512Y0028786D02*
X0111188Y0028786D01*
X0111188Y0029277D02*
X0111512Y0029277D01*
X0111512Y0029767D02*
X0111188Y0029767D01*
X0111188Y0030258D02*
X0111512Y0030258D01*
X0111512Y0030748D02*
X0111188Y0030748D01*
X0111188Y0031239D02*
X0111512Y0031239D01*
X0111512Y0031730D02*
X0111188Y0031730D01*
X0111188Y0032220D02*
X0111512Y0032220D01*
X0111512Y0032711D02*
X0110944Y0032711D01*
X0113481Y0032711D02*
X0122816Y0032711D01*
X0122816Y0033202D02*
X0113481Y0033202D01*
X0113481Y0033692D02*
X0122816Y0033692D01*
X0122816Y0034183D02*
X0113481Y0034183D01*
X0113481Y0034674D02*
X0122816Y0034674D01*
X0122816Y0035164D02*
X0113481Y0035164D01*
X0113481Y0035655D02*
X0122816Y0035655D01*
X0122816Y0036145D02*
X0113481Y0036145D01*
X0113481Y0036636D02*
X0122816Y0036636D01*
X0122816Y0037127D02*
X0113481Y0037127D01*
X0113481Y0037617D02*
X0122816Y0037617D01*
X0122816Y0038108D02*
X0113481Y0038108D01*
X0113481Y0038599D02*
X0122816Y0038599D01*
X0122816Y0039089D02*
X0113481Y0039089D01*
X0113481Y0039580D02*
X0122816Y0039580D01*
X0122816Y0040071D02*
X0113481Y0040071D01*
X0113481Y0040561D02*
X0122816Y0040561D01*
X0122816Y0041052D02*
X0113187Y0041052D01*
X0112697Y0041542D02*
X0122816Y0041542D01*
X0122816Y0042033D02*
X0112206Y0042033D01*
X0111715Y0042524D02*
X0122816Y0042524D01*
X0122816Y0043014D02*
X0111225Y0043014D01*
X0110734Y0043505D02*
X0122816Y0043505D01*
X0122816Y0043996D02*
X0110243Y0043996D01*
X0109753Y0044486D02*
X0122816Y0044486D01*
X0122816Y0044977D02*
X0109262Y0044977D01*
X0108772Y0045468D02*
X0122816Y0045468D01*
X0122816Y0045958D02*
X0108281Y0045958D01*
X0107790Y0046449D02*
X0122816Y0046449D01*
X0122816Y0046939D02*
X0107300Y0046939D01*
X0106809Y0047430D02*
X0122816Y0047430D01*
X0122816Y0047921D02*
X0106318Y0047921D01*
X0105828Y0048411D02*
X0122816Y0048411D01*
X0122816Y0048902D02*
X0105337Y0048902D01*
X0104846Y0049393D02*
X0122816Y0049393D01*
X0122816Y0049883D02*
X0097164Y0049883D01*
X0097164Y0050374D02*
X0122816Y0050374D01*
X0122816Y0050865D02*
X0097164Y0050865D01*
X0097164Y0051355D02*
X0122816Y0051355D01*
X0122816Y0051846D02*
X0097002Y0051846D01*
X0095195Y0052336D02*
X0122816Y0052336D01*
X0122816Y0052827D02*
X0095298Y0052827D01*
X0095298Y0053318D02*
X0122816Y0053318D01*
X0122816Y0053808D02*
X0095298Y0053808D01*
X0095205Y0054299D02*
X0122816Y0054299D01*
X0122816Y0054790D02*
X0094714Y0054790D01*
X0094223Y0055280D02*
X0122816Y0055280D01*
X0122816Y0055771D02*
X0092818Y0055771D01*
X0092818Y0056262D02*
X0122816Y0056262D01*
X0122816Y0056752D02*
X0092791Y0056752D01*
X0090686Y0055843D02*
X0090646Y0048907D01*
X0090676Y0048878D01*
X0093176Y0048878D02*
X0093205Y0048907D01*
X0093166Y0053323D01*
X0088166Y0053323D02*
X0088087Y0048967D01*
X0088176Y0048878D01*
X0085823Y0049026D02*
X0085676Y0048878D01*
X0085823Y0049026D02*
X0085686Y0055843D01*
X0087818Y0055771D02*
X0088554Y0055771D01*
X0088554Y0055455D02*
X0087818Y0055455D01*
X0087818Y0056726D01*
X0087476Y0057067D01*
X0088895Y0057067D01*
X0088554Y0056726D01*
X0088554Y0055455D01*
X0088554Y0056262D02*
X0087818Y0056262D01*
X0087791Y0056752D02*
X0088580Y0056752D01*
X0083895Y0057067D02*
X0083554Y0056726D01*
X0083554Y0055455D01*
X0082818Y0055455D01*
X0082818Y0056726D01*
X0082476Y0057067D01*
X0083895Y0057067D01*
X0083580Y0056752D02*
X0082791Y0056752D01*
X0082818Y0056262D02*
X0083554Y0056262D01*
X0083554Y0055771D02*
X0082818Y0055771D01*
X0080686Y0055843D02*
X0080705Y0048907D01*
X0080676Y0048878D01*
X0083166Y0048888D02*
X0083176Y0048878D01*
X0083166Y0048888D02*
X0083166Y0053323D01*
X0078166Y0053323D02*
X0078146Y0048907D01*
X0078176Y0048878D01*
X0075686Y0048888D02*
X0075676Y0048878D01*
X0075686Y0048888D02*
X0075686Y0055843D01*
X0077818Y0055771D02*
X0078554Y0055771D01*
X0078554Y0055455D02*
X0077818Y0055455D01*
X0077818Y0056726D01*
X0077476Y0057067D01*
X0078895Y0057067D01*
X0078554Y0056726D01*
X0078554Y0055455D01*
X0078554Y0056262D02*
X0077818Y0056262D01*
X0077791Y0056752D02*
X0078580Y0056752D01*
X0073895Y0057067D02*
X0073554Y0056726D01*
X0073554Y0055455D01*
X0072818Y0055455D01*
X0072818Y0056726D01*
X0072476Y0057067D01*
X0073895Y0057067D01*
X0073580Y0056752D02*
X0072791Y0056752D01*
X0072818Y0056262D02*
X0073554Y0056262D01*
X0073554Y0055771D02*
X0072818Y0055771D01*
X0070686Y0055843D02*
X0070764Y0048967D01*
X0070676Y0048878D01*
X0073176Y0048878D02*
X0073225Y0048927D01*
X0073166Y0053323D01*
X0068166Y0053323D02*
X0068087Y0048947D01*
X0068176Y0048878D01*
X0065676Y0048878D02*
X0065646Y0048907D01*
X0065686Y0055843D01*
X0067818Y0055771D02*
X0068554Y0055771D01*
X0068554Y0055455D02*
X0067818Y0055455D01*
X0067818Y0056726D01*
X0067476Y0057067D01*
X0068895Y0057067D01*
X0068554Y0056726D01*
X0068554Y0055455D01*
X0068554Y0056262D02*
X0067818Y0056262D01*
X0067791Y0056752D02*
X0068580Y0056752D01*
X0063895Y0057067D02*
X0063554Y0056726D01*
X0063554Y0055455D01*
X0062818Y0055455D01*
X0062818Y0056726D01*
X0062476Y0057067D01*
X0063895Y0057067D01*
X0063580Y0056752D02*
X0062791Y0056752D01*
X0062818Y0056262D02*
X0063554Y0056262D01*
X0063554Y0055771D02*
X0062818Y0055771D01*
X0060686Y0055843D02*
X0060725Y0048927D01*
X0060676Y0048878D01*
X0063176Y0048878D02*
X0063186Y0048888D01*
X0063166Y0053323D01*
X0058166Y0053323D02*
X0058166Y0048888D01*
X0058176Y0048878D01*
X0055705Y0048907D02*
X0055676Y0048878D01*
X0055705Y0048907D02*
X0055686Y0055843D01*
X0057791Y0056752D02*
X0058580Y0056752D01*
X0058554Y0056726D02*
X0058554Y0055455D01*
X0057818Y0055455D01*
X0057818Y0056726D01*
X0057476Y0057067D01*
X0058895Y0057067D01*
X0058554Y0056726D01*
X0058554Y0056262D02*
X0057818Y0056262D01*
X0057818Y0055771D02*
X0058554Y0055771D01*
X0054710Y0052827D02*
X0036268Y0052827D01*
X0036758Y0052336D02*
X0054711Y0052336D01*
X0051850Y0051846D02*
X0036759Y0051846D01*
X0036759Y0051355D02*
X0051688Y0051355D01*
X0051688Y0050865D02*
X0036759Y0050865D01*
X0036759Y0050374D02*
X0051688Y0050374D01*
X0051688Y0049883D02*
X0036759Y0049883D01*
X0038807Y0039580D02*
X0051688Y0039580D01*
X0051688Y0039089D02*
X0038316Y0039089D01*
X0037826Y0038599D02*
X0051688Y0038599D01*
X0052772Y0034268D02*
X0052772Y0029799D01*
X0054741Y0029799D02*
X0054741Y0025902D01*
X0053757Y0026537D02*
X0053757Y0026787D01*
X0053669Y0026699D01*
X0051876Y0026699D01*
X0051788Y0026787D01*
X0051788Y0026787D01*
X0051788Y0026309D01*
X0051788Y0025964D01*
X0052362Y0026537D01*
X0053757Y0026537D01*
X0052157Y0026333D02*
X0051788Y0026333D01*
X0050804Y0025902D02*
X0049308Y0024406D01*
X0050551Y0022634D02*
X0051276Y0023359D01*
X0052001Y0022634D01*
X0050551Y0022634D01*
X0050815Y0022898D02*
X0051737Y0022898D01*
X0048064Y0022634D02*
X0046614Y0022634D01*
X0047339Y0023359D01*
X0048064Y0022634D01*
X0047800Y0022898D02*
X0046878Y0022898D01*
X0043413Y0020936D02*
X0038156Y0020936D01*
X0038156Y0021426D02*
X0042923Y0021426D01*
X0042432Y0021917D02*
X0038156Y0021917D01*
X0038156Y0022408D02*
X0041941Y0022408D01*
X0041451Y0022898D02*
X0038156Y0022898D01*
X0038156Y0023389D02*
X0040960Y0023389D01*
X0040469Y0023879D02*
X0038156Y0023879D01*
X0037985Y0024370D02*
X0039979Y0024370D01*
X0038504Y0024861D02*
X0027375Y0024861D01*
X0027375Y0025351D02*
X0038013Y0025351D01*
X0037523Y0025842D02*
X0027375Y0025842D01*
X0027375Y0026333D02*
X0037032Y0026333D01*
X0036541Y0026823D02*
X0027375Y0026823D01*
X0027375Y0027314D02*
X0036051Y0027314D01*
X0035560Y0027805D02*
X0027375Y0027805D01*
X0027375Y0028295D02*
X0035069Y0028295D01*
X0034579Y0028786D02*
X0027375Y0028786D01*
X0027375Y0029277D02*
X0034088Y0029277D01*
X0033597Y0029767D02*
X0027375Y0029767D01*
X0027375Y0030258D02*
X0033107Y0030258D01*
X0032616Y0030748D02*
X0027375Y0030748D01*
X0027375Y0031239D02*
X0032280Y0031239D01*
X0031327Y0031730D02*
X0027375Y0031730D01*
X0027375Y0032220D02*
X0030836Y0032220D01*
X0030345Y0032711D02*
X0027375Y0032711D01*
X0027375Y0033202D02*
X0029855Y0033202D01*
X0029364Y0033692D02*
X0027375Y0033692D01*
X0027375Y0034183D02*
X0029278Y0034183D01*
X0029278Y0034674D02*
X0027375Y0034674D01*
X0027375Y0035164D02*
X0029278Y0035164D01*
X0029278Y0035655D02*
X0027375Y0035655D01*
X0027375Y0036145D02*
X0029278Y0036145D01*
X0029278Y0036636D02*
X0027375Y0036636D01*
X0027375Y0037127D02*
X0029325Y0037127D01*
X0029815Y0037617D02*
X0027375Y0037617D01*
X0027375Y0038108D02*
X0030306Y0038108D01*
X0030797Y0038599D02*
X0027375Y0038599D01*
X0027375Y0039089D02*
X0031287Y0039089D01*
X0037335Y0038108D02*
X0046362Y0038108D01*
X0053757Y0033860D02*
X0053757Y0032812D01*
X0053757Y0032812D01*
X0053844Y0032900D01*
X0055637Y0032900D01*
X0055725Y0032812D01*
X0055725Y0032812D01*
X0055725Y0034183D01*
X0054079Y0034183D01*
X0054341Y0034445D02*
X0055987Y0034445D01*
X0055725Y0034183D01*
X0055725Y0033692D02*
X0053757Y0033692D01*
X0053757Y0033860D02*
X0054341Y0034445D01*
X0053757Y0033202D02*
X0055725Y0033202D01*
X0057694Y0033202D02*
X0059665Y0033202D01*
X0059662Y0033199D02*
X0059662Y0032812D01*
X0059662Y0032812D01*
X0059574Y0032900D01*
X0057781Y0032900D01*
X0057694Y0032812D01*
X0057694Y0032812D01*
X0057694Y0033368D01*
X0057786Y0033461D01*
X0059924Y0033461D01*
X0059662Y0033199D01*
X0060646Y0029858D02*
X0060646Y0029799D01*
X0059662Y0026787D02*
X0059750Y0026699D01*
X0061543Y0026699D01*
X0061631Y0026787D01*
X0061631Y0026537D01*
X0060236Y0026537D01*
X0059662Y0025964D01*
X0059662Y0026787D01*
X0059662Y0026787D01*
X0059662Y0026333D02*
X0060031Y0026333D01*
X0063599Y0026333D02*
X0063968Y0026333D01*
X0064173Y0026537D02*
X0063599Y0025964D01*
X0063599Y0026309D01*
X0063599Y0026787D01*
X0063687Y0026699D01*
X0065480Y0026699D01*
X0065568Y0026787D01*
X0065568Y0026537D01*
X0064173Y0026537D01*
X0063599Y0026787D02*
X0063599Y0026787D01*
X0067536Y0026787D02*
X0067536Y0026309D01*
X0067536Y0025964D01*
X0068110Y0026537D01*
X0069505Y0026537D01*
X0069505Y0026787D01*
X0069417Y0026699D01*
X0067624Y0026699D01*
X0067536Y0026787D01*
X0067536Y0026333D02*
X0067905Y0026333D01*
X0071473Y0026333D02*
X0071842Y0026333D01*
X0072047Y0026537D02*
X0071473Y0025964D01*
X0071473Y0026309D01*
X0071473Y0026787D01*
X0071561Y0026699D01*
X0073354Y0026699D01*
X0073442Y0026787D01*
X0073442Y0026537D01*
X0072047Y0026537D01*
X0070961Y0023359D02*
X0070236Y0022634D01*
X0071687Y0022634D01*
X0070961Y0023359D01*
X0070500Y0022898D02*
X0071422Y0022898D01*
X0075410Y0025964D02*
X0075410Y0026309D01*
X0075410Y0026787D01*
X0075498Y0026699D01*
X0077291Y0026699D01*
X0077379Y0026787D01*
X0077379Y0026537D01*
X0075984Y0026537D01*
X0075410Y0025964D01*
X0075410Y0026333D02*
X0075779Y0026333D01*
X0077379Y0026787D02*
X0077379Y0026787D01*
X0068520Y0029799D02*
X0068520Y0033382D01*
X0069356Y0045764D02*
X0069426Y0045834D01*
X0069496Y0045764D01*
X0069356Y0045764D01*
X0066996Y0045764D02*
X0066856Y0045764D01*
X0066926Y0045834D01*
X0066996Y0045764D01*
X0064496Y0045764D02*
X0064356Y0045764D01*
X0064426Y0045834D01*
X0064496Y0045764D01*
X0061996Y0045764D02*
X0061856Y0045764D01*
X0061926Y0045834D01*
X0061996Y0045764D01*
X0059496Y0045764D02*
X0059356Y0045764D01*
X0059426Y0045834D01*
X0059496Y0045764D01*
X0056996Y0045764D02*
X0056856Y0045764D01*
X0056926Y0045834D01*
X0056996Y0045764D01*
X0054496Y0045764D02*
X0054356Y0045764D01*
X0054426Y0045834D01*
X0054496Y0045764D01*
X0071856Y0045764D02*
X0071926Y0045834D01*
X0071996Y0045764D01*
X0071856Y0045764D01*
X0074356Y0045764D02*
X0074426Y0045834D01*
X0074496Y0045764D01*
X0074356Y0045764D01*
X0076856Y0045764D02*
X0076926Y0045834D01*
X0076996Y0045764D01*
X0076856Y0045764D01*
X0079356Y0045764D02*
X0079426Y0045834D01*
X0079496Y0045764D01*
X0079356Y0045764D01*
X0081856Y0045764D02*
X0081926Y0045834D01*
X0081996Y0045764D01*
X0081856Y0045764D01*
X0084356Y0045764D02*
X0084426Y0045834D01*
X0084496Y0045764D01*
X0084356Y0045764D01*
X0086856Y0045764D02*
X0086926Y0045834D01*
X0086996Y0045764D01*
X0086856Y0045764D01*
X0089356Y0045764D02*
X0089426Y0045834D01*
X0089496Y0045764D01*
X0089356Y0045764D01*
X0091856Y0045764D02*
X0091926Y0045834D01*
X0091996Y0045764D01*
X0091856Y0045764D01*
X0093205Y0037791D02*
X0093599Y0037398D01*
X0102162Y0037398D01*
X0103953Y0035114D01*
X0103953Y0029799D01*
X0101985Y0029799D02*
X0101985Y0025902D01*
X0100489Y0024406D01*
X0099246Y0022634D02*
X0098520Y0023359D01*
X0097795Y0022634D01*
X0099246Y0022634D01*
X0098981Y0022898D02*
X0098059Y0022898D01*
X0101732Y0022634D02*
X0102457Y0023359D01*
X0103183Y0022634D01*
X0101732Y0022634D01*
X0101996Y0022898D02*
X0102918Y0022898D01*
X0104426Y0024406D02*
X0105922Y0025803D01*
X0105922Y0029799D01*
X0106906Y0026787D02*
X0106906Y0026787D01*
X0104938Y0026787D02*
X0104938Y0026537D01*
X0103543Y0026537D01*
X0102969Y0025964D01*
X0102969Y0026787D01*
X0102969Y0026787D01*
X0103057Y0026699D01*
X0104850Y0026699D01*
X0104938Y0026787D01*
X0104938Y0026787D01*
X0103338Y0026333D02*
X0102969Y0026333D01*
X0101001Y0026537D02*
X0101001Y0026787D01*
X0101001Y0026787D01*
X0100913Y0026699D01*
X0099120Y0026699D01*
X0099032Y0026787D01*
X0099032Y0026191D01*
X0099045Y0026177D01*
X0099038Y0025970D01*
X0099606Y0026537D01*
X0101001Y0026537D01*
X0099401Y0026333D02*
X0099032Y0026333D01*
X0097064Y0026787D02*
X0097064Y0026787D01*
X0112177Y0025351D02*
X0122816Y0025351D01*
X0122816Y0025842D02*
X0112668Y0025842D01*
X0113158Y0026333D02*
X0122816Y0026333D01*
X0122816Y0026823D02*
X0113481Y0026823D01*
X0113481Y0027314D02*
X0122816Y0027314D01*
X0122816Y0027805D02*
X0113481Y0027805D01*
X0113481Y0028295D02*
X0122816Y0028295D01*
X0122816Y0028786D02*
X0113481Y0028786D01*
X0113481Y0029277D02*
X0122816Y0029277D01*
X0122816Y0029767D02*
X0113481Y0029767D01*
X0113481Y0030258D02*
X0122816Y0030258D01*
X0122816Y0030748D02*
X0113481Y0030748D01*
X0113481Y0031239D02*
X0122816Y0031239D01*
X0122816Y0031730D02*
X0113481Y0031730D01*
X0113481Y0032220D02*
X0122816Y0032220D01*
X0112664Y0020445D02*
X0038156Y0020445D01*
X0038156Y0019954D02*
X0112664Y0019954D01*
X0112664Y0019464D02*
X0038156Y0019464D01*
X0038156Y0018973D02*
X0112664Y0018973D01*
X0112664Y0018482D02*
X0038156Y0018482D01*
X0038156Y0017992D02*
X0112664Y0017992D01*
X0112664Y0017501D02*
X0038156Y0017501D01*
X0038156Y0017011D02*
X0112664Y0017011D01*
X0112664Y0016520D02*
X0038156Y0016520D01*
X0038156Y0016029D02*
X0112664Y0016029D01*
X0112664Y0015539D02*
X0038156Y0015539D01*
X0038156Y0015048D02*
X0112664Y0015048D01*
X0112664Y0014557D02*
X0038156Y0014557D01*
X0030381Y0021917D02*
X0027375Y0021917D01*
X0027375Y0022408D02*
X0030381Y0022408D01*
X0030381Y0022898D02*
X0027375Y0022898D01*
X0027375Y0023389D02*
X0030381Y0023389D01*
X0030381Y0023879D02*
X0027375Y0023879D01*
X0027375Y0024370D02*
X0030551Y0024370D01*
X0027607Y0021426D02*
X0027375Y0021426D01*
X0047851Y0025964D02*
X0047851Y0026309D01*
X0047851Y0026787D01*
X0047939Y0026699D01*
X0049732Y0026699D01*
X0049820Y0026787D01*
X0049820Y0026537D01*
X0048425Y0026537D01*
X0047851Y0025964D01*
X0047851Y0026333D02*
X0048220Y0026333D01*
X0050804Y0025902D02*
X0050804Y0029799D01*
D15*
X0049308Y0024406D03*
X0053245Y0024406D03*
X0057201Y0024406D03*
X0061119Y0024406D03*
X0065056Y0024406D03*
X0068993Y0024406D03*
X0072930Y0024406D03*
X0076867Y0024406D03*
X0080804Y0024406D03*
X0084741Y0024406D03*
X0088678Y0024406D03*
X0092615Y0024406D03*
X0096552Y0024406D03*
X0100489Y0024406D03*
X0104426Y0024406D03*
X0093166Y0053323D03*
X0090686Y0055843D03*
X0088166Y0053323D03*
X0085686Y0055843D03*
X0083166Y0053323D03*
X0080686Y0055843D03*
X0078166Y0053323D03*
X0075686Y0055843D03*
X0073166Y0053323D03*
X0070686Y0055843D03*
X0068166Y0053323D03*
X0065686Y0055843D03*
X0063166Y0053323D03*
X0060686Y0055843D03*
X0058166Y0053323D03*
X0055686Y0055843D03*
X0045371Y0024406D03*
D16*
X0033264Y0035429D03*
X0032772Y0050685D03*
M02*
