G75*
%MOIN*%
%OFA0B0*%
%FSLAX25Y25*%
%IPPOS*%
%LPD*%
%AMOC8*
5,1,8,0,0,1.08239X$1,22.5*
%
%ADD10C,0.02787*%
%ADD11C,0.00492*%
%ADD12OC8,0.06496*%
D10*
X0045371Y0024406D03*
X0049308Y0024406D03*
X0053245Y0024406D03*
X0057201Y0024406D03*
X0061119Y0024406D03*
X0065056Y0024406D03*
X0068993Y0024406D03*
X0072930Y0024406D03*
X0076867Y0024406D03*
X0080804Y0024406D03*
X0084741Y0024406D03*
X0088678Y0024406D03*
X0092615Y0024406D03*
X0096552Y0024406D03*
X0100489Y0024406D03*
X0104426Y0024406D03*
X0093166Y0053323D03*
X0090686Y0055843D03*
X0088166Y0053323D03*
X0085686Y0055843D03*
X0083166Y0053323D03*
X0080686Y0055843D03*
X0078166Y0053323D03*
X0075686Y0055843D03*
X0073166Y0053323D03*
X0070686Y0055843D03*
X0068166Y0053323D03*
X0065686Y0055843D03*
X0063166Y0053323D03*
X0060686Y0055843D03*
X0058166Y0053323D03*
X0055686Y0055843D03*
D11*
X0027375Y0057067D02*
X0027375Y0014283D01*
X0122816Y0014283D01*
X0122816Y0057067D01*
X0092476Y0057067D01*
X0092818Y0056726D01*
X0092818Y0055455D01*
X0094049Y0055455D01*
X0095298Y0054206D01*
X0095298Y0052440D01*
X0094171Y0051313D01*
X0094283Y0041747D01*
X0106420Y0029611D01*
X0106435Y0029610D01*
X0106706Y0029324D01*
X0106985Y0029045D01*
X0106985Y0029030D01*
X0106996Y0029018D01*
X0106985Y0028624D01*
X0106985Y0028230D01*
X0106974Y0028219D01*
X0106917Y0026156D01*
X0106922Y0026150D01*
X0106906Y0025750D01*
X0106895Y0025349D01*
X0106889Y0025343D01*
X0106889Y0025336D01*
X0106593Y0025064D01*
X0106558Y0025030D01*
X0106558Y0023522D01*
X0105309Y0022274D01*
X0103543Y0022274D01*
X0102457Y0023359D01*
X0101372Y0022274D01*
X0099606Y0022274D01*
X0098520Y0023359D01*
X0097435Y0022274D01*
X0095669Y0022274D01*
X0094583Y0023359D01*
X0093498Y0022274D01*
X0091732Y0022274D01*
X0090646Y0023359D01*
X0089561Y0022274D01*
X0087795Y0022274D01*
X0086709Y0023359D01*
X0085624Y0022274D01*
X0083858Y0022274D01*
X0082772Y0023359D01*
X0081687Y0022274D01*
X0079921Y0022274D01*
X0078835Y0023359D01*
X0077750Y0022274D01*
X0075984Y0022274D01*
X0074898Y0023359D01*
X0073813Y0022274D01*
X0072047Y0022274D01*
X0070961Y0023359D01*
X0069876Y0022274D01*
X0068110Y0022274D01*
X0067024Y0023359D01*
X0065939Y0022274D01*
X0064173Y0022274D01*
X0063087Y0023359D01*
X0062002Y0022274D01*
X0060236Y0022274D01*
X0059160Y0023349D01*
X0058084Y0022274D01*
X0056318Y0022274D01*
X0055223Y0023369D01*
X0054128Y0022274D01*
X0052362Y0022274D01*
X0051276Y0023359D01*
X0050191Y0022274D01*
X0048425Y0022274D01*
X0047339Y0023359D01*
X0046254Y0022274D01*
X0044488Y0022274D01*
X0043239Y0023522D01*
X0043239Y0025289D01*
X0044488Y0026537D01*
X0045863Y0026537D01*
X0045863Y0032786D01*
X0054626Y0041548D01*
X0054710Y0053803D01*
X0053554Y0054959D01*
X0053554Y0056726D01*
X0053895Y0057067D01*
X0027375Y0057067D01*
X0027375Y0056752D02*
X0053580Y0056752D01*
X0053554Y0056262D02*
X0027375Y0056262D01*
X0027375Y0055771D02*
X0053554Y0055771D01*
X0053554Y0055280D02*
X0027375Y0055280D01*
X0027375Y0054790D02*
X0053724Y0054790D01*
X0054214Y0054299D02*
X0034796Y0054299D01*
X0034423Y0054671D02*
X0031121Y0054671D01*
X0028786Y0052336D01*
X0028786Y0049034D01*
X0031121Y0046699D01*
X0034423Y0046699D01*
X0036759Y0049034D01*
X0036759Y0052336D01*
X0034423Y0054671D01*
X0035286Y0053808D02*
X0054705Y0053808D01*
X0054707Y0053318D02*
X0035777Y0053318D01*
X0036268Y0052827D02*
X0054704Y0052827D01*
X0054700Y0052336D02*
X0036758Y0052336D01*
X0036759Y0051846D02*
X0054697Y0051846D01*
X0054693Y0051355D02*
X0036759Y0051355D01*
X0036759Y0050865D02*
X0054690Y0050865D01*
X0054687Y0050374D02*
X0036759Y0050374D01*
X0036759Y0049883D02*
X0054683Y0049883D01*
X0054680Y0049393D02*
X0036759Y0049393D01*
X0036627Y0048902D02*
X0054676Y0048902D01*
X0054673Y0048411D02*
X0036136Y0048411D01*
X0035645Y0047921D02*
X0054670Y0047921D01*
X0054666Y0047430D02*
X0035155Y0047430D01*
X0034664Y0046939D02*
X0054663Y0046939D01*
X0054659Y0046449D02*
X0027375Y0046449D01*
X0027375Y0046939D02*
X0030881Y0046939D01*
X0030390Y0047430D02*
X0027375Y0047430D01*
X0027375Y0047921D02*
X0029899Y0047921D01*
X0029409Y0048411D02*
X0027375Y0048411D01*
X0027375Y0048902D02*
X0028918Y0048902D01*
X0028786Y0049393D02*
X0027375Y0049393D01*
X0027375Y0049883D02*
X0028786Y0049883D01*
X0028786Y0050374D02*
X0027375Y0050374D01*
X0027375Y0050865D02*
X0028786Y0050865D01*
X0028786Y0051355D02*
X0027375Y0051355D01*
X0027375Y0051846D02*
X0028786Y0051846D01*
X0028786Y0052336D02*
X0027375Y0052336D01*
X0027375Y0052827D02*
X0029277Y0052827D01*
X0029768Y0053318D02*
X0027375Y0053318D01*
X0027375Y0053808D02*
X0030258Y0053808D01*
X0030749Y0054299D02*
X0027375Y0054299D01*
X0027375Y0045958D02*
X0054656Y0045958D01*
X0054653Y0045468D02*
X0027375Y0045468D01*
X0027375Y0044977D02*
X0054649Y0044977D01*
X0054646Y0044486D02*
X0027375Y0044486D01*
X0027375Y0043996D02*
X0054642Y0043996D01*
X0054639Y0043505D02*
X0027375Y0043505D01*
X0027375Y0043014D02*
X0054636Y0043014D01*
X0054632Y0042524D02*
X0027375Y0042524D01*
X0027375Y0042033D02*
X0054629Y0042033D01*
X0054620Y0041542D02*
X0027375Y0041542D01*
X0027375Y0041052D02*
X0054129Y0041052D01*
X0053638Y0040561D02*
X0027375Y0040561D01*
X0027375Y0040071D02*
X0053148Y0040071D01*
X0052657Y0039580D02*
X0027375Y0039580D01*
X0027375Y0039089D02*
X0031287Y0039089D01*
X0031613Y0039415D02*
X0029278Y0037080D01*
X0029278Y0033778D01*
X0031613Y0031443D01*
X0034916Y0031443D01*
X0037251Y0033778D01*
X0037251Y0037080D01*
X0034916Y0039415D01*
X0031613Y0039415D01*
X0030797Y0038599D02*
X0027375Y0038599D01*
X0027375Y0038108D02*
X0030306Y0038108D01*
X0029815Y0037617D02*
X0027375Y0037617D01*
X0027375Y0037127D02*
X0029325Y0037127D01*
X0029278Y0036636D02*
X0027375Y0036636D01*
X0027375Y0036145D02*
X0029278Y0036145D01*
X0029278Y0035655D02*
X0027375Y0035655D01*
X0027375Y0035164D02*
X0029278Y0035164D01*
X0029278Y0034674D02*
X0027375Y0034674D01*
X0027375Y0034183D02*
X0029278Y0034183D01*
X0029364Y0033692D02*
X0027375Y0033692D01*
X0027375Y0033202D02*
X0029855Y0033202D01*
X0030345Y0032711D02*
X0027375Y0032711D01*
X0027375Y0032220D02*
X0030836Y0032220D01*
X0031327Y0031730D02*
X0027375Y0031730D01*
X0027375Y0031239D02*
X0045863Y0031239D01*
X0045863Y0030748D02*
X0027375Y0030748D01*
X0027375Y0030258D02*
X0045863Y0030258D01*
X0045863Y0029767D02*
X0027375Y0029767D01*
X0027375Y0029277D02*
X0045863Y0029277D01*
X0045863Y0028786D02*
X0027375Y0028786D01*
X0027375Y0028295D02*
X0045863Y0028295D01*
X0045863Y0027805D02*
X0027375Y0027805D01*
X0027375Y0027314D02*
X0045863Y0027314D01*
X0045863Y0026823D02*
X0027375Y0026823D01*
X0027375Y0026333D02*
X0044283Y0026333D01*
X0043792Y0025842D02*
X0027375Y0025842D01*
X0027375Y0025351D02*
X0043302Y0025351D01*
X0043239Y0024861D02*
X0027375Y0024861D01*
X0027375Y0024370D02*
X0043239Y0024370D01*
X0043239Y0023879D02*
X0027375Y0023879D01*
X0027375Y0023389D02*
X0043372Y0023389D01*
X0043863Y0022898D02*
X0027375Y0022898D01*
X0027375Y0022408D02*
X0044354Y0022408D01*
X0046388Y0022408D02*
X0048291Y0022408D01*
X0047800Y0022898D02*
X0046878Y0022898D01*
X0045371Y0024406D02*
X0046847Y0025882D01*
X0046847Y0032378D01*
X0055607Y0041138D01*
X0055705Y0055350D01*
X0055686Y0055843D01*
X0057791Y0056752D02*
X0058580Y0056752D01*
X0058554Y0056726D02*
X0058554Y0055455D01*
X0057818Y0055455D01*
X0057818Y0056726D01*
X0057476Y0057067D01*
X0058895Y0057067D01*
X0058554Y0056726D01*
X0058554Y0056262D02*
X0057818Y0056262D01*
X0057818Y0055771D02*
X0058554Y0055771D01*
X0060686Y0055843D02*
X0060725Y0041236D01*
X0054721Y0035232D01*
X0054721Y0025882D01*
X0053245Y0024406D01*
X0054752Y0022898D02*
X0055694Y0022898D01*
X0056184Y0022408D02*
X0054262Y0022408D01*
X0052228Y0022408D02*
X0050325Y0022408D01*
X0050815Y0022898D02*
X0051737Y0022898D01*
X0049308Y0024406D02*
X0050784Y0025882D01*
X0050784Y0033756D01*
X0058166Y0041138D01*
X0058166Y0053323D01*
X0056665Y0051809D02*
X0057182Y0051292D01*
X0057182Y0041545D01*
X0056591Y0040955D01*
X0056591Y0041134D01*
X0056665Y0051809D01*
X0056662Y0051355D02*
X0057119Y0051355D01*
X0057182Y0050865D02*
X0056659Y0050865D01*
X0056655Y0050374D02*
X0057182Y0050374D01*
X0057182Y0049883D02*
X0056652Y0049883D01*
X0056648Y0049393D02*
X0057182Y0049393D01*
X0057182Y0048902D02*
X0056645Y0048902D01*
X0056642Y0048411D02*
X0057182Y0048411D01*
X0057182Y0047921D02*
X0056638Y0047921D01*
X0056635Y0047430D02*
X0057182Y0047430D01*
X0057182Y0046939D02*
X0056631Y0046939D01*
X0056628Y0046449D02*
X0057182Y0046449D01*
X0057182Y0045958D02*
X0056625Y0045958D01*
X0056621Y0045468D02*
X0057182Y0045468D01*
X0057182Y0044977D02*
X0056618Y0044977D01*
X0056614Y0044486D02*
X0057182Y0044486D01*
X0057182Y0043996D02*
X0056611Y0043996D01*
X0056608Y0043505D02*
X0057182Y0043505D01*
X0057182Y0043014D02*
X0056604Y0043014D01*
X0056601Y0042524D02*
X0057182Y0042524D01*
X0057182Y0042033D02*
X0056597Y0042033D01*
X0056594Y0041542D02*
X0057179Y0041542D01*
X0056688Y0041052D02*
X0056591Y0041052D01*
X0059150Y0041053D02*
X0059740Y0041643D01*
X0059712Y0051854D01*
X0059150Y0051292D01*
X0059150Y0041053D01*
X0059150Y0041542D02*
X0059639Y0041542D01*
X0059739Y0042033D02*
X0059150Y0042033D01*
X0059150Y0042524D02*
X0059737Y0042524D01*
X0059736Y0043014D02*
X0059150Y0043014D01*
X0059150Y0043505D02*
X0059735Y0043505D01*
X0059733Y0043996D02*
X0059150Y0043996D01*
X0059150Y0044486D02*
X0059732Y0044486D01*
X0059731Y0044977D02*
X0059150Y0044977D01*
X0059150Y0045468D02*
X0059729Y0045468D01*
X0059728Y0045958D02*
X0059150Y0045958D01*
X0059150Y0046449D02*
X0059727Y0046449D01*
X0059725Y0046939D02*
X0059150Y0046939D01*
X0059150Y0047430D02*
X0059724Y0047430D01*
X0059723Y0047921D02*
X0059150Y0047921D01*
X0059150Y0048411D02*
X0059721Y0048411D01*
X0059720Y0048902D02*
X0059150Y0048902D01*
X0059150Y0049393D02*
X0059719Y0049393D01*
X0059717Y0049883D02*
X0059150Y0049883D01*
X0059150Y0050374D02*
X0059716Y0050374D01*
X0059715Y0050865D02*
X0059150Y0050865D01*
X0059213Y0051355D02*
X0059714Y0051355D01*
X0059704Y0051846D02*
X0059712Y0051846D01*
X0061681Y0051793D02*
X0062185Y0051289D01*
X0062201Y0041545D01*
X0061710Y0041054D01*
X0061709Y0041237D01*
X0061709Y0041644D01*
X0061708Y0041645D01*
X0061681Y0051793D01*
X0061682Y0051355D02*
X0062119Y0051355D01*
X0062186Y0050865D02*
X0061683Y0050865D01*
X0061685Y0050374D02*
X0062187Y0050374D01*
X0062187Y0049883D02*
X0061686Y0049883D01*
X0061687Y0049393D02*
X0062188Y0049393D01*
X0062189Y0048902D02*
X0061689Y0048902D01*
X0061690Y0048411D02*
X0062190Y0048411D01*
X0062190Y0047921D02*
X0061691Y0047921D01*
X0061693Y0047430D02*
X0062191Y0047430D01*
X0062192Y0046939D02*
X0061694Y0046939D01*
X0061695Y0046449D02*
X0062193Y0046449D01*
X0062194Y0045958D02*
X0061697Y0045958D01*
X0061698Y0045468D02*
X0062194Y0045468D01*
X0062195Y0044977D02*
X0061699Y0044977D01*
X0061701Y0044486D02*
X0062196Y0044486D01*
X0062197Y0043996D02*
X0061702Y0043996D01*
X0061703Y0043505D02*
X0062198Y0043505D01*
X0062198Y0043014D02*
X0061705Y0043014D01*
X0061706Y0042524D02*
X0062199Y0042524D01*
X0062200Y0042033D02*
X0061707Y0042033D01*
X0061709Y0041542D02*
X0062198Y0041542D01*
X0063186Y0041138D02*
X0063166Y0053323D01*
X0064691Y0051833D02*
X0064663Y0041547D01*
X0064170Y0041053D01*
X0064170Y0041135D01*
X0064170Y0041545D01*
X0064169Y0041546D01*
X0064154Y0051295D01*
X0064691Y0051833D01*
X0064689Y0051355D02*
X0064213Y0051355D01*
X0064154Y0050865D02*
X0064688Y0050865D01*
X0064687Y0050374D02*
X0064155Y0050374D01*
X0064156Y0049883D02*
X0064685Y0049883D01*
X0064684Y0049393D02*
X0064157Y0049393D01*
X0064157Y0048902D02*
X0064683Y0048902D01*
X0064682Y0048411D02*
X0064158Y0048411D01*
X0064159Y0047921D02*
X0064680Y0047921D01*
X0064679Y0047430D02*
X0064160Y0047430D01*
X0064161Y0046939D02*
X0064678Y0046939D01*
X0064676Y0046449D02*
X0064161Y0046449D01*
X0064162Y0045958D02*
X0064675Y0045958D01*
X0064674Y0045468D02*
X0064163Y0045468D01*
X0064164Y0044977D02*
X0064672Y0044977D01*
X0064671Y0044486D02*
X0064165Y0044486D01*
X0064165Y0043996D02*
X0064670Y0043996D01*
X0064668Y0043505D02*
X0064166Y0043505D01*
X0064167Y0043014D02*
X0064667Y0043014D01*
X0064666Y0042524D02*
X0064168Y0042524D01*
X0064168Y0042033D02*
X0064664Y0042033D01*
X0064659Y0041542D02*
X0064170Y0041542D01*
X0063186Y0041138D02*
X0058658Y0036610D01*
X0058658Y0025882D01*
X0057201Y0024406D01*
X0055705Y0025924D02*
X0055705Y0034825D01*
X0057674Y0036793D01*
X0057674Y0026537D01*
X0056318Y0026537D01*
X0055705Y0025924D01*
X0055705Y0026333D02*
X0056114Y0026333D01*
X0055705Y0026823D02*
X0057674Y0026823D01*
X0057674Y0027314D02*
X0055705Y0027314D01*
X0055705Y0027805D02*
X0057674Y0027805D01*
X0057674Y0028295D02*
X0055705Y0028295D01*
X0055705Y0028786D02*
X0057674Y0028786D01*
X0057674Y0029277D02*
X0055705Y0029277D01*
X0055705Y0029767D02*
X0057674Y0029767D01*
X0057674Y0030258D02*
X0055705Y0030258D01*
X0055705Y0030748D02*
X0057674Y0030748D01*
X0057674Y0031239D02*
X0055705Y0031239D01*
X0055705Y0031730D02*
X0057674Y0031730D01*
X0057674Y0032220D02*
X0055705Y0032220D01*
X0055705Y0032711D02*
X0057674Y0032711D01*
X0057674Y0033202D02*
X0055705Y0033202D01*
X0055705Y0033692D02*
X0057674Y0033692D01*
X0057674Y0034183D02*
X0055705Y0034183D01*
X0055705Y0034674D02*
X0057674Y0034674D01*
X0057674Y0035164D02*
X0056045Y0035164D01*
X0056536Y0035655D02*
X0057674Y0035655D01*
X0057674Y0036145D02*
X0057026Y0036145D01*
X0057517Y0036636D02*
X0057674Y0036636D01*
X0059642Y0036203D02*
X0061611Y0038171D01*
X0061611Y0026537D01*
X0060236Y0026537D01*
X0059642Y0025944D01*
X0059642Y0036203D01*
X0059642Y0036145D02*
X0061611Y0036145D01*
X0061611Y0035655D02*
X0059642Y0035655D01*
X0059642Y0035164D02*
X0061611Y0035164D01*
X0061611Y0034674D02*
X0059642Y0034674D01*
X0059642Y0034183D02*
X0061611Y0034183D01*
X0061611Y0033692D02*
X0059642Y0033692D01*
X0059642Y0033202D02*
X0061611Y0033202D01*
X0061611Y0032711D02*
X0059642Y0032711D01*
X0059642Y0032220D02*
X0061611Y0032220D01*
X0061611Y0031730D02*
X0059642Y0031730D01*
X0059642Y0031239D02*
X0061611Y0031239D01*
X0061611Y0030748D02*
X0059642Y0030748D01*
X0059642Y0030258D02*
X0061611Y0030258D01*
X0061611Y0029767D02*
X0059642Y0029767D01*
X0059642Y0029277D02*
X0061611Y0029277D01*
X0061611Y0028786D02*
X0059642Y0028786D01*
X0059642Y0028295D02*
X0061611Y0028295D01*
X0061611Y0027805D02*
X0059642Y0027805D01*
X0059642Y0027314D02*
X0061611Y0027314D01*
X0061611Y0026823D02*
X0059642Y0026823D01*
X0059642Y0026333D02*
X0060031Y0026333D01*
X0061119Y0024406D02*
X0062595Y0025882D01*
X0062595Y0038087D01*
X0065646Y0041138D01*
X0065686Y0055843D01*
X0067818Y0055771D02*
X0068554Y0055771D01*
X0068554Y0055455D02*
X0067818Y0055455D01*
X0067818Y0056726D01*
X0067476Y0057067D01*
X0068895Y0057067D01*
X0068554Y0056726D01*
X0068554Y0055455D01*
X0068554Y0056262D02*
X0067818Y0056262D01*
X0067791Y0056752D02*
X0068580Y0056752D01*
X0070686Y0055843D02*
X0070686Y0055390D01*
X0070469Y0025882D01*
X0068993Y0024406D01*
X0070500Y0022898D02*
X0071422Y0022898D01*
X0071913Y0022408D02*
X0070010Y0022408D01*
X0067976Y0022408D02*
X0066073Y0022408D01*
X0066563Y0022898D02*
X0067485Y0022898D01*
X0065056Y0024406D02*
X0066532Y0025882D01*
X0066532Y0039563D01*
X0068205Y0041236D01*
X0068166Y0053185D01*
X0068166Y0053323D01*
X0066659Y0051815D02*
X0067188Y0051286D01*
X0067220Y0041643D01*
X0066631Y0041053D01*
X0066631Y0041136D01*
X0066659Y0051815D01*
X0066658Y0051355D02*
X0067119Y0051355D01*
X0067189Y0050865D02*
X0066657Y0050865D01*
X0066655Y0050374D02*
X0067191Y0050374D01*
X0067193Y0049883D02*
X0066654Y0049883D01*
X0066653Y0049393D02*
X0067194Y0049393D01*
X0067196Y0048902D02*
X0066651Y0048902D01*
X0066650Y0048411D02*
X0067197Y0048411D01*
X0067199Y0047921D02*
X0066649Y0047921D01*
X0066647Y0047430D02*
X0067201Y0047430D01*
X0067202Y0046939D02*
X0066646Y0046939D01*
X0066645Y0046449D02*
X0067204Y0046449D01*
X0067206Y0045958D02*
X0066643Y0045958D01*
X0066642Y0045468D02*
X0067207Y0045468D01*
X0067209Y0044977D02*
X0066641Y0044977D01*
X0066640Y0044486D02*
X0067210Y0044486D01*
X0067212Y0043996D02*
X0066638Y0043996D01*
X0066637Y0043505D02*
X0067214Y0043505D01*
X0067215Y0043014D02*
X0066636Y0043014D01*
X0066634Y0042524D02*
X0067217Y0042524D01*
X0067219Y0042033D02*
X0066633Y0042033D01*
X0066632Y0041542D02*
X0067120Y0041542D01*
X0068432Y0040071D02*
X0069589Y0040071D01*
X0069593Y0040561D02*
X0068922Y0040561D01*
X0068902Y0040541D02*
X0069190Y0040829D01*
X0069190Y0040830D01*
X0069191Y0040832D01*
X0069190Y0041239D01*
X0069190Y0041644D01*
X0069188Y0041645D01*
X0069156Y0051298D01*
X0069675Y0051817D01*
X0069490Y0026537D01*
X0068110Y0026537D01*
X0067516Y0025944D01*
X0067516Y0039155D01*
X0068614Y0040253D01*
X0068616Y0040253D01*
X0068902Y0040541D01*
X0069190Y0041052D02*
X0069596Y0041052D01*
X0069600Y0041542D02*
X0069190Y0041542D01*
X0069187Y0042033D02*
X0069603Y0042033D01*
X0069607Y0042524D02*
X0069185Y0042524D01*
X0069184Y0043014D02*
X0069611Y0043014D01*
X0069614Y0043505D02*
X0069182Y0043505D01*
X0069181Y0043996D02*
X0069618Y0043996D01*
X0069621Y0044486D02*
X0069179Y0044486D01*
X0069177Y0044977D02*
X0069625Y0044977D01*
X0069629Y0045468D02*
X0069176Y0045468D01*
X0069174Y0045958D02*
X0069632Y0045958D01*
X0069636Y0046449D02*
X0069172Y0046449D01*
X0069171Y0046939D02*
X0069639Y0046939D01*
X0069643Y0047430D02*
X0069169Y0047430D01*
X0069168Y0047921D02*
X0069647Y0047921D01*
X0069650Y0048411D02*
X0069166Y0048411D01*
X0069164Y0048902D02*
X0069654Y0048902D01*
X0069657Y0049393D02*
X0069163Y0049393D01*
X0069161Y0049883D02*
X0069661Y0049883D01*
X0069665Y0050374D02*
X0069160Y0050374D01*
X0069158Y0050865D02*
X0069668Y0050865D01*
X0069672Y0051355D02*
X0069213Y0051355D01*
X0071640Y0051355D02*
X0072119Y0051355D01*
X0072192Y0051282D02*
X0072241Y0041136D01*
X0072241Y0040730D01*
X0072243Y0040728D01*
X0072243Y0040725D01*
X0072531Y0040440D01*
X0073422Y0039549D01*
X0073422Y0026537D01*
X0072047Y0026537D01*
X0071454Y0025945D01*
X0071644Y0051830D01*
X0072192Y0051282D01*
X0072194Y0050865D02*
X0071637Y0050865D01*
X0071633Y0050374D02*
X0072196Y0050374D01*
X0072198Y0049883D02*
X0071630Y0049883D01*
X0071626Y0049393D02*
X0072201Y0049393D01*
X0072203Y0048902D02*
X0071622Y0048902D01*
X0071619Y0048411D02*
X0072206Y0048411D01*
X0072208Y0047921D02*
X0071615Y0047921D01*
X0071612Y0047430D02*
X0072210Y0047430D01*
X0072213Y0046939D02*
X0071608Y0046939D01*
X0071604Y0046449D02*
X0072215Y0046449D01*
X0072217Y0045958D02*
X0071601Y0045958D01*
X0071597Y0045468D02*
X0072220Y0045468D01*
X0072222Y0044977D02*
X0071594Y0044977D01*
X0071590Y0044486D02*
X0072225Y0044486D01*
X0072227Y0043996D02*
X0071586Y0043996D01*
X0071583Y0043505D02*
X0072229Y0043505D01*
X0072232Y0043014D02*
X0071579Y0043014D01*
X0071576Y0042524D02*
X0072234Y0042524D01*
X0072236Y0042033D02*
X0071572Y0042033D01*
X0071568Y0041542D02*
X0072239Y0041542D01*
X0072241Y0041052D02*
X0071565Y0041052D01*
X0071561Y0040561D02*
X0072409Y0040561D01*
X0072900Y0040071D02*
X0071558Y0040071D01*
X0071554Y0039580D02*
X0073391Y0039580D01*
X0073422Y0039089D02*
X0071550Y0039089D01*
X0071547Y0038599D02*
X0073422Y0038599D01*
X0073422Y0038108D02*
X0071543Y0038108D01*
X0071540Y0037617D02*
X0073422Y0037617D01*
X0073422Y0037127D02*
X0071536Y0037127D01*
X0071532Y0036636D02*
X0073422Y0036636D01*
X0073422Y0036145D02*
X0071529Y0036145D01*
X0071525Y0035655D02*
X0073422Y0035655D01*
X0073422Y0035164D02*
X0071522Y0035164D01*
X0071518Y0034674D02*
X0073422Y0034674D01*
X0073422Y0034183D02*
X0071514Y0034183D01*
X0071511Y0033692D02*
X0073422Y0033692D01*
X0073422Y0033202D02*
X0071507Y0033202D01*
X0071504Y0032711D02*
X0073422Y0032711D01*
X0073422Y0032220D02*
X0071500Y0032220D01*
X0071496Y0031730D02*
X0073422Y0031730D01*
X0073422Y0031239D02*
X0071493Y0031239D01*
X0071489Y0030748D02*
X0073422Y0030748D01*
X0073422Y0030258D02*
X0071486Y0030258D01*
X0071482Y0029767D02*
X0073422Y0029767D01*
X0073422Y0029277D02*
X0071478Y0029277D01*
X0071475Y0028786D02*
X0073422Y0028786D01*
X0073422Y0028295D02*
X0071471Y0028295D01*
X0071468Y0027805D02*
X0073422Y0027805D01*
X0073422Y0027314D02*
X0071464Y0027314D01*
X0071460Y0026823D02*
X0073422Y0026823D01*
X0074406Y0025882D02*
X0074406Y0039957D01*
X0073225Y0041138D01*
X0073166Y0053323D01*
X0074701Y0051843D02*
X0074701Y0041053D01*
X0074207Y0041547D01*
X0074160Y0051302D01*
X0074701Y0051843D01*
X0074701Y0051355D02*
X0074213Y0051355D01*
X0074162Y0050865D02*
X0074701Y0050865D01*
X0074701Y0050374D02*
X0074165Y0050374D01*
X0074167Y0049883D02*
X0074701Y0049883D01*
X0074701Y0049393D02*
X0074169Y0049393D01*
X0074172Y0048902D02*
X0074701Y0048902D01*
X0074701Y0048411D02*
X0074174Y0048411D01*
X0074176Y0047921D02*
X0074701Y0047921D01*
X0074701Y0047430D02*
X0074179Y0047430D01*
X0074181Y0046939D02*
X0074701Y0046939D01*
X0074701Y0046449D02*
X0074184Y0046449D01*
X0074186Y0045958D02*
X0074701Y0045958D01*
X0074701Y0045468D02*
X0074188Y0045468D01*
X0074191Y0044977D02*
X0074701Y0044977D01*
X0074701Y0044486D02*
X0074193Y0044486D01*
X0074195Y0043996D02*
X0074701Y0043996D01*
X0074701Y0043505D02*
X0074198Y0043505D01*
X0074200Y0043014D02*
X0074701Y0043014D01*
X0074701Y0042524D02*
X0074203Y0042524D01*
X0074205Y0042033D02*
X0074701Y0042033D01*
X0074701Y0041542D02*
X0074212Y0041542D01*
X0075686Y0041236D02*
X0075686Y0055843D01*
X0077818Y0055771D02*
X0078554Y0055771D01*
X0078554Y0055455D02*
X0077818Y0055455D01*
X0077818Y0056726D01*
X0077476Y0057067D01*
X0078895Y0057067D01*
X0078554Y0056726D01*
X0078554Y0055455D01*
X0078554Y0056262D02*
X0077818Y0056262D01*
X0077791Y0056752D02*
X0078580Y0056752D01*
X0080676Y0055872D02*
X0080686Y0055843D01*
X0080676Y0055872D02*
X0080676Y0048878D01*
X0080705Y0048848D01*
X0080705Y0041236D01*
X0086217Y0035724D01*
X0086237Y0025902D01*
X0084741Y0024406D01*
X0083264Y0025944D02*
X0083264Y0037285D01*
X0085234Y0035316D01*
X0085251Y0026537D01*
X0083858Y0026537D01*
X0083264Y0025944D01*
X0083264Y0026333D02*
X0083653Y0026333D01*
X0083264Y0026823D02*
X0085251Y0026823D01*
X0085250Y0027314D02*
X0083264Y0027314D01*
X0083264Y0027805D02*
X0085249Y0027805D01*
X0085248Y0028295D02*
X0083264Y0028295D01*
X0083264Y0028786D02*
X0085247Y0028786D01*
X0085246Y0029277D02*
X0083264Y0029277D01*
X0083264Y0029767D02*
X0085245Y0029767D01*
X0085244Y0030258D02*
X0083264Y0030258D01*
X0083264Y0030748D02*
X0085243Y0030748D01*
X0085242Y0031239D02*
X0083264Y0031239D01*
X0083264Y0031730D02*
X0085241Y0031730D01*
X0085240Y0032220D02*
X0083264Y0032220D01*
X0083264Y0032711D02*
X0085239Y0032711D01*
X0085238Y0033202D02*
X0083264Y0033202D01*
X0083264Y0033692D02*
X0085237Y0033692D01*
X0085236Y0034183D02*
X0083264Y0034183D01*
X0083264Y0034674D02*
X0085235Y0034674D01*
X0085234Y0035164D02*
X0083264Y0035164D01*
X0083264Y0035655D02*
X0084895Y0035655D01*
X0084404Y0036145D02*
X0083264Y0036145D01*
X0083264Y0036636D02*
X0083914Y0036636D01*
X0083423Y0037127D02*
X0083264Y0037127D01*
X0082280Y0037102D02*
X0078146Y0041236D01*
X0078166Y0053323D01*
X0076670Y0051804D02*
X0077178Y0051295D01*
X0077163Y0041645D01*
X0077162Y0041644D01*
X0077162Y0041238D01*
X0077162Y0041152D01*
X0076670Y0041644D01*
X0076670Y0051804D01*
X0076670Y0051355D02*
X0077119Y0051355D01*
X0077178Y0050865D02*
X0076670Y0050865D01*
X0076670Y0050374D02*
X0077177Y0050374D01*
X0077176Y0049883D02*
X0076670Y0049883D01*
X0076670Y0049393D02*
X0077175Y0049393D01*
X0077175Y0048902D02*
X0076670Y0048902D01*
X0076670Y0048411D02*
X0077174Y0048411D01*
X0077173Y0047921D02*
X0076670Y0047921D01*
X0076670Y0047430D02*
X0077172Y0047430D01*
X0077171Y0046939D02*
X0076670Y0046939D01*
X0076670Y0046449D02*
X0077171Y0046449D01*
X0077170Y0045958D02*
X0076670Y0045958D01*
X0076670Y0045468D02*
X0077169Y0045468D01*
X0077168Y0044977D02*
X0076670Y0044977D01*
X0076670Y0044486D02*
X0077167Y0044486D01*
X0077167Y0043996D02*
X0076670Y0043996D01*
X0076670Y0043505D02*
X0077166Y0043505D01*
X0077165Y0043014D02*
X0076670Y0043014D01*
X0076670Y0042524D02*
X0077164Y0042524D01*
X0077163Y0042033D02*
X0076670Y0042033D01*
X0076771Y0041542D02*
X0077162Y0041542D01*
X0075686Y0041236D02*
X0078343Y0038579D01*
X0078343Y0025882D01*
X0076867Y0024406D01*
X0078374Y0022898D02*
X0079296Y0022898D01*
X0079787Y0022408D02*
X0077884Y0022408D01*
X0075850Y0022408D02*
X0073947Y0022408D01*
X0074437Y0022898D02*
X0075359Y0022898D01*
X0072930Y0024406D02*
X0074406Y0025882D01*
X0075390Y0025944D02*
X0075390Y0040140D01*
X0077359Y0038171D01*
X0077359Y0026537D01*
X0075984Y0026537D01*
X0075390Y0025944D01*
X0075390Y0026333D02*
X0075779Y0026333D01*
X0075390Y0026823D02*
X0077359Y0026823D01*
X0077359Y0027314D02*
X0075390Y0027314D01*
X0075390Y0027805D02*
X0077359Y0027805D01*
X0077359Y0028295D02*
X0075390Y0028295D01*
X0075390Y0028786D02*
X0077359Y0028786D01*
X0077359Y0029277D02*
X0075390Y0029277D01*
X0075390Y0029767D02*
X0077359Y0029767D01*
X0077359Y0030258D02*
X0075390Y0030258D01*
X0075390Y0030748D02*
X0077359Y0030748D01*
X0077359Y0031239D02*
X0075390Y0031239D01*
X0075390Y0031730D02*
X0077359Y0031730D01*
X0077359Y0032220D02*
X0075390Y0032220D01*
X0075390Y0032711D02*
X0077359Y0032711D01*
X0077359Y0033202D02*
X0075390Y0033202D01*
X0075390Y0033692D02*
X0077359Y0033692D01*
X0077359Y0034183D02*
X0075390Y0034183D01*
X0075390Y0034674D02*
X0077359Y0034674D01*
X0077359Y0035164D02*
X0075390Y0035164D01*
X0075390Y0035655D02*
X0077359Y0035655D01*
X0077359Y0036145D02*
X0075390Y0036145D01*
X0075390Y0036636D02*
X0077359Y0036636D01*
X0077359Y0037127D02*
X0075390Y0037127D01*
X0075390Y0037617D02*
X0077359Y0037617D01*
X0077359Y0038108D02*
X0075390Y0038108D01*
X0075390Y0038599D02*
X0076931Y0038599D01*
X0076441Y0039089D02*
X0075390Y0039089D01*
X0075390Y0039580D02*
X0075950Y0039580D01*
X0075459Y0040071D02*
X0075390Y0040071D01*
X0079131Y0041643D02*
X0079147Y0051289D01*
X0079692Y0051833D01*
X0079692Y0048470D01*
X0079721Y0048441D01*
X0079721Y0041053D01*
X0079131Y0041643D01*
X0079232Y0041542D02*
X0079721Y0041542D01*
X0079721Y0042033D02*
X0079132Y0042033D01*
X0079133Y0042524D02*
X0079721Y0042524D01*
X0079721Y0043014D02*
X0079133Y0043014D01*
X0079134Y0043505D02*
X0079721Y0043505D01*
X0079721Y0043996D02*
X0079135Y0043996D01*
X0079136Y0044486D02*
X0079721Y0044486D01*
X0079721Y0044977D02*
X0079137Y0044977D01*
X0079137Y0045468D02*
X0079721Y0045468D01*
X0079721Y0045958D02*
X0079138Y0045958D01*
X0079139Y0046449D02*
X0079721Y0046449D01*
X0079721Y0046939D02*
X0079140Y0046939D01*
X0079141Y0047430D02*
X0079721Y0047430D01*
X0079721Y0047921D02*
X0079141Y0047921D01*
X0079142Y0048411D02*
X0079721Y0048411D01*
X0079692Y0048902D02*
X0079143Y0048902D01*
X0079144Y0049393D02*
X0079692Y0049393D01*
X0079692Y0049883D02*
X0079145Y0049883D01*
X0079145Y0050374D02*
X0079692Y0050374D01*
X0079692Y0050865D02*
X0079146Y0050865D01*
X0079213Y0051355D02*
X0079692Y0051355D01*
X0081660Y0051355D02*
X0082119Y0051355D01*
X0082182Y0051292D02*
X0082182Y0041152D01*
X0081690Y0041644D01*
X0081690Y0049256D01*
X0081660Y0049286D01*
X0081660Y0051814D01*
X0082182Y0051292D01*
X0082182Y0050865D02*
X0081660Y0050865D01*
X0081660Y0050374D02*
X0082182Y0050374D01*
X0082182Y0049883D02*
X0081660Y0049883D01*
X0081660Y0049393D02*
X0082182Y0049393D01*
X0082182Y0048902D02*
X0081690Y0048902D01*
X0081690Y0048411D02*
X0082182Y0048411D01*
X0082182Y0047921D02*
X0081690Y0047921D01*
X0081690Y0047430D02*
X0082182Y0047430D01*
X0082182Y0046939D02*
X0081690Y0046939D01*
X0081690Y0046449D02*
X0082182Y0046449D01*
X0082182Y0045958D02*
X0081690Y0045958D01*
X0081690Y0045468D02*
X0082182Y0045468D01*
X0082182Y0044977D02*
X0081690Y0044977D01*
X0081690Y0044486D02*
X0082182Y0044486D01*
X0082182Y0043996D02*
X0081690Y0043996D01*
X0081690Y0043505D02*
X0082182Y0043505D01*
X0082182Y0043014D02*
X0081690Y0043014D01*
X0081690Y0042524D02*
X0082182Y0042524D01*
X0082182Y0042033D02*
X0081690Y0042033D01*
X0081791Y0041542D02*
X0082182Y0041542D01*
X0083166Y0041335D02*
X0083166Y0053323D01*
X0084704Y0051846D02*
X0084712Y0051846D01*
X0084712Y0051854D02*
X0084741Y0041333D01*
X0084741Y0041152D01*
X0084150Y0041742D01*
X0084150Y0051292D01*
X0084712Y0051854D01*
X0084713Y0051355D02*
X0084213Y0051355D01*
X0084150Y0050865D02*
X0084714Y0050865D01*
X0084716Y0050374D02*
X0084150Y0050374D01*
X0084150Y0049883D02*
X0084717Y0049883D01*
X0084719Y0049393D02*
X0084150Y0049393D01*
X0084150Y0048902D02*
X0084720Y0048902D01*
X0084721Y0048411D02*
X0084150Y0048411D01*
X0084150Y0047921D02*
X0084723Y0047921D01*
X0084724Y0047430D02*
X0084150Y0047430D01*
X0084150Y0046939D02*
X0084725Y0046939D01*
X0084727Y0046449D02*
X0084150Y0046449D01*
X0084150Y0045958D02*
X0084728Y0045958D01*
X0084729Y0045468D02*
X0084150Y0045468D01*
X0084150Y0044977D02*
X0084731Y0044977D01*
X0084732Y0044486D02*
X0084150Y0044486D01*
X0084150Y0043996D02*
X0084733Y0043996D01*
X0084735Y0043505D02*
X0084150Y0043505D01*
X0084150Y0043014D02*
X0084736Y0043014D01*
X0084738Y0042524D02*
X0084150Y0042524D01*
X0084150Y0042033D02*
X0084739Y0042033D01*
X0084740Y0041542D02*
X0084350Y0041542D01*
X0083166Y0041335D02*
X0090253Y0034248D01*
X0090154Y0025783D01*
X0088678Y0024406D01*
X0090185Y0022898D02*
X0091107Y0022898D01*
X0091598Y0022408D02*
X0089695Y0022408D01*
X0087661Y0022408D02*
X0085758Y0022408D01*
X0086248Y0022898D02*
X0087170Y0022898D01*
X0083724Y0022408D02*
X0081821Y0022408D01*
X0082311Y0022898D02*
X0083233Y0022898D01*
X0080804Y0024406D02*
X0082280Y0025882D01*
X0082280Y0037102D01*
X0081296Y0036695D02*
X0081296Y0026537D01*
X0079921Y0026537D01*
X0079327Y0025944D01*
X0079327Y0038663D01*
X0081296Y0036695D01*
X0081296Y0036636D02*
X0079327Y0036636D01*
X0079327Y0036145D02*
X0081296Y0036145D01*
X0081296Y0035655D02*
X0079327Y0035655D01*
X0079327Y0035164D02*
X0081296Y0035164D01*
X0081296Y0034674D02*
X0079327Y0034674D01*
X0079327Y0034183D02*
X0081296Y0034183D01*
X0081296Y0033692D02*
X0079327Y0033692D01*
X0079327Y0033202D02*
X0081296Y0033202D01*
X0081296Y0032711D02*
X0079327Y0032711D01*
X0079327Y0032220D02*
X0081296Y0032220D01*
X0081296Y0031730D02*
X0079327Y0031730D01*
X0079327Y0031239D02*
X0081296Y0031239D01*
X0081296Y0030748D02*
X0079327Y0030748D01*
X0079327Y0030258D02*
X0081296Y0030258D01*
X0081296Y0029767D02*
X0079327Y0029767D01*
X0079327Y0029277D02*
X0081296Y0029277D01*
X0081296Y0028786D02*
X0079327Y0028786D01*
X0079327Y0028295D02*
X0081296Y0028295D01*
X0081296Y0027805D02*
X0079327Y0027805D01*
X0079327Y0027314D02*
X0081296Y0027314D01*
X0081296Y0026823D02*
X0079327Y0026823D01*
X0079327Y0026333D02*
X0079716Y0026333D01*
X0087220Y0026333D02*
X0087590Y0026333D01*
X0087795Y0026537D02*
X0087221Y0025964D01*
X0087221Y0026309D01*
X0087220Y0026310D01*
X0087201Y0035723D01*
X0087201Y0035907D01*
X0089264Y0033845D01*
X0089179Y0026537D01*
X0087795Y0026537D01*
X0087219Y0026823D02*
X0089182Y0026823D01*
X0089188Y0027314D02*
X0087218Y0027314D01*
X0087217Y0027805D02*
X0089193Y0027805D01*
X0089199Y0028295D02*
X0087216Y0028295D01*
X0087215Y0028786D02*
X0089205Y0028786D01*
X0089211Y0029277D02*
X0087214Y0029277D01*
X0087213Y0029767D02*
X0089216Y0029767D01*
X0089222Y0030258D02*
X0087212Y0030258D01*
X0087211Y0030748D02*
X0089228Y0030748D01*
X0089233Y0031239D02*
X0087210Y0031239D01*
X0087209Y0031730D02*
X0089239Y0031730D01*
X0089245Y0032220D02*
X0087208Y0032220D01*
X0087207Y0032711D02*
X0089250Y0032711D01*
X0089256Y0033202D02*
X0087206Y0033202D01*
X0087205Y0033692D02*
X0089262Y0033692D01*
X0088926Y0034183D02*
X0087205Y0034183D01*
X0087204Y0034674D02*
X0088435Y0034674D01*
X0087945Y0035164D02*
X0087203Y0035164D01*
X0087202Y0035655D02*
X0087454Y0035655D01*
X0091239Y0034429D02*
X0093107Y0032561D01*
X0093107Y0026537D01*
X0091732Y0026537D01*
X0091145Y0025950D01*
X0091152Y0026157D01*
X0091143Y0026167D01*
X0091232Y0033836D01*
X0091237Y0033840D01*
X0091237Y0034242D01*
X0091239Y0034429D01*
X0091237Y0034183D02*
X0091485Y0034183D01*
X0091230Y0033692D02*
X0091976Y0033692D01*
X0092466Y0033202D02*
X0091225Y0033202D01*
X0091219Y0032711D02*
X0092957Y0032711D01*
X0093107Y0032220D02*
X0091213Y0032220D01*
X0091208Y0031730D02*
X0093107Y0031730D01*
X0093107Y0031239D02*
X0091202Y0031239D01*
X0091196Y0030748D02*
X0093107Y0030748D01*
X0093107Y0030258D02*
X0091191Y0030258D01*
X0091185Y0029767D02*
X0093107Y0029767D01*
X0093107Y0029277D02*
X0091179Y0029277D01*
X0091173Y0028786D02*
X0093107Y0028786D01*
X0093107Y0028295D02*
X0091168Y0028295D01*
X0091162Y0027805D02*
X0093107Y0027805D01*
X0093107Y0027314D02*
X0091156Y0027314D01*
X0091151Y0026823D02*
X0093107Y0026823D01*
X0094091Y0025783D02*
X0094091Y0032969D01*
X0085725Y0041335D01*
X0085686Y0055567D01*
X0085686Y0055843D01*
X0087818Y0055771D02*
X0088554Y0055771D01*
X0088554Y0055455D02*
X0087818Y0055455D01*
X0087818Y0056726D01*
X0087476Y0057067D01*
X0088895Y0057067D01*
X0088554Y0056726D01*
X0088554Y0055455D01*
X0088554Y0056262D02*
X0087818Y0056262D01*
X0087791Y0056752D02*
X0088580Y0056752D01*
X0090686Y0055843D02*
X0090686Y0055764D01*
X0090745Y0041335D01*
X0101965Y0030114D01*
X0101965Y0025882D01*
X0100489Y0024406D01*
X0101996Y0022898D02*
X0102918Y0022898D01*
X0103409Y0022408D02*
X0101506Y0022408D01*
X0099472Y0022408D02*
X0097569Y0022408D01*
X0098059Y0022898D02*
X0098981Y0022898D01*
X0096552Y0024406D02*
X0098127Y0025882D01*
X0098127Y0031295D01*
X0088087Y0041335D01*
X0088166Y0053323D01*
X0086680Y0051794D02*
X0087168Y0051305D01*
X0087106Y0041745D01*
X0087103Y0041742D01*
X0087103Y0041349D01*
X0086708Y0041743D01*
X0086680Y0051794D01*
X0086682Y0051355D02*
X0087119Y0051355D01*
X0087166Y0050865D02*
X0086683Y0050865D01*
X0086684Y0050374D02*
X0087162Y0050374D01*
X0087159Y0049883D02*
X0086686Y0049883D01*
X0086687Y0049393D02*
X0087156Y0049393D01*
X0087153Y0048902D02*
X0086688Y0048902D01*
X0086690Y0048411D02*
X0087149Y0048411D01*
X0087146Y0047921D02*
X0086691Y0047921D01*
X0086692Y0047430D02*
X0087143Y0047430D01*
X0087140Y0046939D02*
X0086694Y0046939D01*
X0086695Y0046449D02*
X0087137Y0046449D01*
X0087133Y0045958D02*
X0086697Y0045958D01*
X0086698Y0045468D02*
X0087130Y0045468D01*
X0087127Y0044977D02*
X0086699Y0044977D01*
X0086701Y0044486D02*
X0087124Y0044486D01*
X0087120Y0043996D02*
X0086702Y0043996D01*
X0086703Y0043505D02*
X0087117Y0043505D01*
X0087114Y0043014D02*
X0086705Y0043014D01*
X0086706Y0042524D02*
X0087111Y0042524D01*
X0087108Y0042033D02*
X0086707Y0042033D01*
X0086909Y0041542D02*
X0087103Y0041542D01*
X0089074Y0041740D02*
X0089137Y0051279D01*
X0089717Y0051859D01*
X0089760Y0041332D01*
X0089760Y0041053D01*
X0089074Y0041740D01*
X0089271Y0041542D02*
X0089760Y0041542D01*
X0089758Y0042033D02*
X0089076Y0042033D01*
X0089079Y0042524D02*
X0089756Y0042524D01*
X0089754Y0043014D02*
X0089083Y0043014D01*
X0089086Y0043505D02*
X0089752Y0043505D01*
X0089750Y0043996D02*
X0089089Y0043996D01*
X0089092Y0044486D02*
X0089748Y0044486D01*
X0089746Y0044977D02*
X0089095Y0044977D01*
X0089099Y0045468D02*
X0089744Y0045468D01*
X0089742Y0045958D02*
X0089102Y0045958D01*
X0089105Y0046449D02*
X0089740Y0046449D01*
X0089738Y0046939D02*
X0089108Y0046939D01*
X0089112Y0047430D02*
X0089736Y0047430D01*
X0089734Y0047921D02*
X0089115Y0047921D01*
X0089118Y0048411D02*
X0089732Y0048411D01*
X0089730Y0048902D02*
X0089121Y0048902D01*
X0089124Y0049393D02*
X0089727Y0049393D01*
X0089725Y0049883D02*
X0089128Y0049883D01*
X0089131Y0050374D02*
X0089723Y0050374D01*
X0089721Y0050865D02*
X0089134Y0050865D01*
X0089213Y0051355D02*
X0089719Y0051355D01*
X0089704Y0051846D02*
X0089717Y0051846D01*
X0091686Y0051788D02*
X0092203Y0051271D01*
X0092320Y0041329D01*
X0092320Y0041152D01*
X0091727Y0041744D01*
X0091686Y0051788D01*
X0091688Y0051355D02*
X0092119Y0051355D01*
X0092208Y0050865D02*
X0091690Y0050865D01*
X0091692Y0050374D02*
X0092214Y0050374D01*
X0092219Y0049883D02*
X0091694Y0049883D01*
X0091696Y0049393D02*
X0092225Y0049393D01*
X0092231Y0048902D02*
X0091698Y0048902D01*
X0091700Y0048411D02*
X0092237Y0048411D01*
X0092242Y0047921D02*
X0091702Y0047921D01*
X0091704Y0047430D02*
X0092248Y0047430D01*
X0092254Y0046939D02*
X0091706Y0046939D01*
X0091708Y0046449D02*
X0092260Y0046449D01*
X0092265Y0045958D02*
X0091710Y0045958D01*
X0091712Y0045468D02*
X0092271Y0045468D01*
X0092277Y0044977D02*
X0091714Y0044977D01*
X0091716Y0044486D02*
X0092283Y0044486D01*
X0092288Y0043996D02*
X0091718Y0043996D01*
X0091720Y0043505D02*
X0092294Y0043505D01*
X0092300Y0043014D02*
X0091722Y0043014D01*
X0091724Y0042524D02*
X0092306Y0042524D01*
X0092311Y0042033D02*
X0091726Y0042033D01*
X0091929Y0041542D02*
X0092317Y0041542D01*
X0093304Y0041335D02*
X0093166Y0053106D01*
X0093166Y0053323D01*
X0095298Y0053318D02*
X0122816Y0053318D01*
X0122816Y0053808D02*
X0095298Y0053808D01*
X0095205Y0054299D02*
X0122816Y0054299D01*
X0122816Y0054790D02*
X0094714Y0054790D01*
X0094223Y0055280D02*
X0122816Y0055280D01*
X0122816Y0055771D02*
X0092818Y0055771D01*
X0092818Y0056262D02*
X0122816Y0056262D01*
X0122816Y0056752D02*
X0092791Y0056752D01*
X0095298Y0052827D02*
X0122816Y0052827D01*
X0122816Y0052336D02*
X0095195Y0052336D01*
X0094704Y0051846D02*
X0122816Y0051846D01*
X0122816Y0051355D02*
X0094213Y0051355D01*
X0094177Y0050865D02*
X0122816Y0050865D01*
X0122816Y0050374D02*
X0094182Y0050374D01*
X0094188Y0049883D02*
X0122816Y0049883D01*
X0122816Y0049393D02*
X0094194Y0049393D01*
X0094200Y0048902D02*
X0122816Y0048902D01*
X0122816Y0048411D02*
X0094205Y0048411D01*
X0094211Y0047921D02*
X0122816Y0047921D01*
X0122816Y0047430D02*
X0094217Y0047430D01*
X0094223Y0046939D02*
X0122816Y0046939D01*
X0122816Y0046449D02*
X0094228Y0046449D01*
X0094234Y0045958D02*
X0122816Y0045958D01*
X0122816Y0045468D02*
X0094240Y0045468D01*
X0094245Y0044977D02*
X0122816Y0044977D01*
X0122816Y0044486D02*
X0094251Y0044486D01*
X0094257Y0043996D02*
X0122816Y0043996D01*
X0122816Y0043505D02*
X0094263Y0043505D01*
X0094268Y0043014D02*
X0122816Y0043014D01*
X0122816Y0042524D02*
X0094274Y0042524D01*
X0094280Y0042033D02*
X0122816Y0042033D01*
X0122816Y0041542D02*
X0094488Y0041542D01*
X0094979Y0041052D02*
X0122816Y0041052D01*
X0122816Y0040561D02*
X0095469Y0040561D01*
X0095960Y0040071D02*
X0122816Y0040071D01*
X0122816Y0039580D02*
X0096450Y0039580D01*
X0096941Y0039089D02*
X0122816Y0039089D01*
X0122816Y0038599D02*
X0097432Y0038599D01*
X0097922Y0038108D02*
X0122816Y0038108D01*
X0122816Y0037617D02*
X0098413Y0037617D01*
X0098904Y0037127D02*
X0122816Y0037127D01*
X0122816Y0036636D02*
X0099394Y0036636D01*
X0099885Y0036145D02*
X0122816Y0036145D01*
X0122816Y0035655D02*
X0100376Y0035655D01*
X0100866Y0035164D02*
X0122816Y0035164D01*
X0122816Y0034674D02*
X0101357Y0034674D01*
X0101847Y0034183D02*
X0122816Y0034183D01*
X0122816Y0033692D02*
X0102338Y0033692D01*
X0102829Y0033202D02*
X0122816Y0033202D01*
X0122816Y0032711D02*
X0103319Y0032711D01*
X0103810Y0032220D02*
X0122816Y0032220D01*
X0122816Y0031730D02*
X0104301Y0031730D01*
X0104791Y0031239D02*
X0122816Y0031239D01*
X0122816Y0030748D02*
X0105282Y0030748D01*
X0105773Y0030258D02*
X0122816Y0030258D01*
X0122816Y0029767D02*
X0106263Y0029767D01*
X0106754Y0029277D02*
X0122816Y0029277D01*
X0122816Y0028786D02*
X0106989Y0028786D01*
X0106985Y0028295D02*
X0122816Y0028295D01*
X0122816Y0027805D02*
X0106962Y0027805D01*
X0106949Y0027314D02*
X0122816Y0027314D01*
X0122816Y0026823D02*
X0106935Y0026823D01*
X0106922Y0026333D02*
X0122816Y0026333D01*
X0122816Y0025842D02*
X0106909Y0025842D01*
X0106895Y0025351D02*
X0122816Y0025351D01*
X0122816Y0024861D02*
X0106558Y0024861D01*
X0106558Y0024370D02*
X0122816Y0024370D01*
X0122816Y0023879D02*
X0106558Y0023879D01*
X0106424Y0023389D02*
X0122816Y0023389D01*
X0122816Y0022898D02*
X0105934Y0022898D01*
X0105443Y0022408D02*
X0122816Y0022408D01*
X0122816Y0021917D02*
X0027375Y0021917D01*
X0027375Y0021426D02*
X0122816Y0021426D01*
X0122816Y0020936D02*
X0027375Y0020936D01*
X0027375Y0020445D02*
X0122816Y0020445D01*
X0122816Y0019954D02*
X0027375Y0019954D01*
X0027375Y0019464D02*
X0122816Y0019464D01*
X0122816Y0018973D02*
X0027375Y0018973D01*
X0027375Y0018482D02*
X0122816Y0018482D01*
X0122816Y0017992D02*
X0027375Y0017992D01*
X0027375Y0017501D02*
X0122816Y0017501D01*
X0122816Y0017011D02*
X0027375Y0017011D01*
X0027375Y0016520D02*
X0122816Y0016520D01*
X0122816Y0016029D02*
X0027375Y0016029D01*
X0027375Y0015539D02*
X0122816Y0015539D01*
X0122816Y0015048D02*
X0027375Y0015048D01*
X0027375Y0014557D02*
X0122816Y0014557D01*
X0105922Y0025783D02*
X0106001Y0028638D01*
X0093304Y0041335D01*
X0095075Y0032955D02*
X0097142Y0030888D01*
X0097142Y0026537D01*
X0095669Y0026537D01*
X0095082Y0025950D01*
X0095089Y0026157D01*
X0095075Y0026171D01*
X0095075Y0032955D01*
X0095075Y0032711D02*
X0095319Y0032711D01*
X0095075Y0032220D02*
X0095810Y0032220D01*
X0096300Y0031730D02*
X0095075Y0031730D01*
X0095075Y0031239D02*
X0096791Y0031239D01*
X0097142Y0030748D02*
X0095075Y0030748D01*
X0095075Y0030258D02*
X0097142Y0030258D01*
X0097142Y0029767D02*
X0095075Y0029767D01*
X0095075Y0029277D02*
X0097142Y0029277D01*
X0097142Y0028786D02*
X0095075Y0028786D01*
X0095075Y0028295D02*
X0097142Y0028295D01*
X0097142Y0027805D02*
X0095075Y0027805D01*
X0095075Y0027314D02*
X0097142Y0027314D01*
X0097142Y0026823D02*
X0095075Y0026823D01*
X0095075Y0026333D02*
X0095464Y0026333D01*
X0094091Y0025783D02*
X0092615Y0024406D01*
X0094122Y0022898D02*
X0095044Y0022898D01*
X0095535Y0022408D02*
X0093632Y0022408D01*
X0091527Y0026333D02*
X0091145Y0026333D01*
X0099111Y0026333D02*
X0099401Y0026333D01*
X0099124Y0026258D02*
X0099111Y0026271D01*
X0099111Y0031577D01*
X0100981Y0029706D01*
X0100981Y0026537D01*
X0099606Y0026537D01*
X0099117Y0026048D01*
X0099124Y0026258D01*
X0099111Y0026823D02*
X0100981Y0026823D01*
X0100981Y0027314D02*
X0099111Y0027314D01*
X0099111Y0027805D02*
X0100981Y0027805D01*
X0100981Y0028295D02*
X0099111Y0028295D01*
X0099111Y0028786D02*
X0100981Y0028786D01*
X0100981Y0029277D02*
X0099111Y0029277D01*
X0099111Y0029767D02*
X0100920Y0029767D01*
X0100430Y0030258D02*
X0099111Y0030258D01*
X0099111Y0030748D02*
X0099939Y0030748D01*
X0099448Y0031239D02*
X0099111Y0031239D01*
X0102949Y0030297D02*
X0105005Y0028241D01*
X0104958Y0026537D01*
X0103543Y0026537D01*
X0102949Y0025944D01*
X0102949Y0030297D01*
X0102949Y0030258D02*
X0102989Y0030258D01*
X0102949Y0029767D02*
X0103479Y0029767D01*
X0103970Y0029277D02*
X0102949Y0029277D01*
X0102949Y0028786D02*
X0104461Y0028786D01*
X0104951Y0028295D02*
X0102949Y0028295D01*
X0102949Y0027805D02*
X0104993Y0027805D01*
X0104980Y0027314D02*
X0102949Y0027314D01*
X0102949Y0026823D02*
X0104966Y0026823D01*
X0105922Y0025783D02*
X0104426Y0024406D01*
X0103338Y0026333D02*
X0102949Y0026333D01*
X0080864Y0037127D02*
X0079327Y0037127D01*
X0079327Y0037617D02*
X0080373Y0037617D01*
X0079883Y0038108D02*
X0079327Y0038108D01*
X0079327Y0038599D02*
X0079392Y0038599D01*
X0069578Y0038599D02*
X0067516Y0038599D01*
X0067516Y0039089D02*
X0069582Y0039089D01*
X0069585Y0039580D02*
X0067941Y0039580D01*
X0067516Y0038108D02*
X0069575Y0038108D01*
X0069571Y0037617D02*
X0067516Y0037617D01*
X0067516Y0037127D02*
X0069567Y0037127D01*
X0069564Y0036636D02*
X0067516Y0036636D01*
X0067516Y0036145D02*
X0069560Y0036145D01*
X0069557Y0035655D02*
X0067516Y0035655D01*
X0067516Y0035164D02*
X0069553Y0035164D01*
X0069549Y0034674D02*
X0067516Y0034674D01*
X0067516Y0034183D02*
X0069546Y0034183D01*
X0069542Y0033692D02*
X0067516Y0033692D01*
X0067516Y0033202D02*
X0069539Y0033202D01*
X0069535Y0032711D02*
X0067516Y0032711D01*
X0067516Y0032220D02*
X0069531Y0032220D01*
X0069528Y0031730D02*
X0067516Y0031730D01*
X0067516Y0031239D02*
X0069524Y0031239D01*
X0069521Y0030748D02*
X0067516Y0030748D01*
X0067516Y0030258D02*
X0069517Y0030258D01*
X0069513Y0029767D02*
X0067516Y0029767D01*
X0067516Y0029277D02*
X0069510Y0029277D01*
X0069506Y0028786D02*
X0067516Y0028786D01*
X0067516Y0028295D02*
X0069503Y0028295D01*
X0069499Y0027805D02*
X0067516Y0027805D01*
X0067516Y0027314D02*
X0069495Y0027314D01*
X0069492Y0026823D02*
X0067516Y0026823D01*
X0067516Y0026333D02*
X0067905Y0026333D01*
X0065548Y0026537D02*
X0064173Y0026537D01*
X0063579Y0025944D01*
X0063579Y0037679D01*
X0065548Y0039647D01*
X0065548Y0026537D01*
X0065548Y0026823D02*
X0063579Y0026823D01*
X0063579Y0026333D02*
X0063968Y0026333D01*
X0063579Y0027314D02*
X0065548Y0027314D01*
X0065548Y0027805D02*
X0063579Y0027805D01*
X0063579Y0028295D02*
X0065548Y0028295D01*
X0065548Y0028786D02*
X0063579Y0028786D01*
X0063579Y0029277D02*
X0065548Y0029277D01*
X0065548Y0029767D02*
X0063579Y0029767D01*
X0063579Y0030258D02*
X0065548Y0030258D01*
X0065548Y0030748D02*
X0063579Y0030748D01*
X0063579Y0031239D02*
X0065548Y0031239D01*
X0065548Y0031730D02*
X0063579Y0031730D01*
X0063579Y0032220D02*
X0065548Y0032220D01*
X0065548Y0032711D02*
X0063579Y0032711D01*
X0063579Y0033202D02*
X0065548Y0033202D01*
X0065548Y0033692D02*
X0063579Y0033692D01*
X0063579Y0034183D02*
X0065548Y0034183D01*
X0065548Y0034674D02*
X0063579Y0034674D01*
X0063579Y0035164D02*
X0065548Y0035164D01*
X0065548Y0035655D02*
X0063579Y0035655D01*
X0063579Y0036145D02*
X0065548Y0036145D01*
X0065548Y0036636D02*
X0063579Y0036636D01*
X0063579Y0037127D02*
X0065548Y0037127D01*
X0065548Y0037617D02*
X0063579Y0037617D01*
X0064008Y0038108D02*
X0065548Y0038108D01*
X0065548Y0038599D02*
X0064499Y0038599D01*
X0064990Y0039089D02*
X0065548Y0039089D01*
X0065548Y0039580D02*
X0065480Y0039580D01*
X0061611Y0038108D02*
X0061548Y0038108D01*
X0061611Y0037617D02*
X0061057Y0037617D01*
X0060567Y0037127D02*
X0061611Y0037127D01*
X0061611Y0036636D02*
X0060076Y0036636D01*
X0053737Y0035317D02*
X0053737Y0026537D01*
X0052362Y0026537D01*
X0051768Y0025944D01*
X0051768Y0033348D01*
X0053737Y0035317D01*
X0053737Y0035164D02*
X0053584Y0035164D01*
X0053737Y0034674D02*
X0053094Y0034674D01*
X0052603Y0034183D02*
X0053737Y0034183D01*
X0053737Y0033692D02*
X0052112Y0033692D01*
X0051768Y0033202D02*
X0053737Y0033202D01*
X0053737Y0032711D02*
X0051768Y0032711D01*
X0051768Y0032220D02*
X0053737Y0032220D01*
X0053737Y0031730D02*
X0051768Y0031730D01*
X0051768Y0031239D02*
X0053737Y0031239D01*
X0053737Y0030748D02*
X0051768Y0030748D01*
X0051768Y0030258D02*
X0053737Y0030258D01*
X0053737Y0029767D02*
X0051768Y0029767D01*
X0051768Y0029277D02*
X0053737Y0029277D01*
X0053737Y0028786D02*
X0051768Y0028786D01*
X0051768Y0028295D02*
X0053737Y0028295D01*
X0053737Y0027805D02*
X0051768Y0027805D01*
X0051768Y0027314D02*
X0053737Y0027314D01*
X0053737Y0026823D02*
X0051768Y0026823D01*
X0051768Y0026333D02*
X0052157Y0026333D01*
X0049800Y0026537D02*
X0048425Y0026537D01*
X0047831Y0025944D01*
X0047831Y0031970D01*
X0049800Y0033939D01*
X0049800Y0026537D01*
X0049800Y0026823D02*
X0047831Y0026823D01*
X0047831Y0026333D02*
X0048220Y0026333D01*
X0047831Y0027314D02*
X0049800Y0027314D01*
X0049800Y0027805D02*
X0047831Y0027805D01*
X0047831Y0028295D02*
X0049800Y0028295D01*
X0049800Y0028786D02*
X0047831Y0028786D01*
X0047831Y0029277D02*
X0049800Y0029277D01*
X0049800Y0029767D02*
X0047831Y0029767D01*
X0047831Y0030258D02*
X0049800Y0030258D01*
X0049800Y0030748D02*
X0047831Y0030748D01*
X0047831Y0031239D02*
X0049800Y0031239D01*
X0049800Y0031730D02*
X0047831Y0031730D01*
X0048081Y0032220D02*
X0049800Y0032220D01*
X0049800Y0032711D02*
X0048572Y0032711D01*
X0049063Y0033202D02*
X0049800Y0033202D01*
X0049800Y0033692D02*
X0049553Y0033692D01*
X0048241Y0035164D02*
X0037251Y0035164D01*
X0037251Y0034674D02*
X0047751Y0034674D01*
X0047260Y0034183D02*
X0037251Y0034183D01*
X0037165Y0033692D02*
X0046769Y0033692D01*
X0046279Y0033202D02*
X0036674Y0033202D01*
X0036184Y0032711D02*
X0045863Y0032711D01*
X0045863Y0032220D02*
X0035693Y0032220D01*
X0035202Y0031730D02*
X0045863Y0031730D01*
X0048732Y0035655D02*
X0037251Y0035655D01*
X0037251Y0036145D02*
X0049223Y0036145D01*
X0049713Y0036636D02*
X0037251Y0036636D01*
X0037204Y0037127D02*
X0050204Y0037127D01*
X0050695Y0037617D02*
X0036714Y0037617D01*
X0036223Y0038108D02*
X0051185Y0038108D01*
X0051676Y0038599D02*
X0035732Y0038599D01*
X0035242Y0039089D02*
X0052166Y0039089D01*
X0071457Y0026333D02*
X0071842Y0026333D01*
X0064039Y0022408D02*
X0062136Y0022408D01*
X0062626Y0022898D02*
X0063548Y0022898D01*
X0060102Y0022408D02*
X0058218Y0022408D01*
X0058709Y0022898D02*
X0059611Y0022898D01*
X0062818Y0055455D02*
X0063554Y0055455D01*
X0063554Y0056726D01*
X0063895Y0057067D01*
X0062476Y0057067D01*
X0062818Y0056726D01*
X0062818Y0055455D01*
X0062818Y0055771D02*
X0063554Y0055771D01*
X0063554Y0056262D02*
X0062818Y0056262D01*
X0062791Y0056752D02*
X0063580Y0056752D01*
X0072476Y0057067D02*
X0072818Y0056726D01*
X0072818Y0055455D01*
X0073554Y0055455D01*
X0073554Y0056726D01*
X0073895Y0057067D01*
X0072476Y0057067D01*
X0072791Y0056752D02*
X0073580Y0056752D01*
X0073554Y0056262D02*
X0072818Y0056262D01*
X0072818Y0055771D02*
X0073554Y0055771D01*
X0082476Y0057067D02*
X0082818Y0056726D01*
X0082818Y0055455D01*
X0083554Y0055455D01*
X0083554Y0056726D01*
X0083895Y0057067D01*
X0082476Y0057067D01*
X0082791Y0056752D02*
X0083580Y0056752D01*
X0083554Y0056262D02*
X0082818Y0056262D01*
X0082818Y0055771D02*
X0083554Y0055771D01*
D12*
X0032772Y0050685D03*
X0033264Y0035429D03*
M02*
